<?xml version="1.0" encoding="utf-8"?>
<!-- Generator: Adobe Illustrator 14.0.0, SVG Export Plug-In . SVG Version: 6.00 Build 43363)  -->
<!DOCTYPE svg PUBLIC "-//W3C//DTD SVG 1.1//EN" "http://www.w3.org/Graphics/SVG/1.1/DTD/svg11.dtd">
<svg version="1.1" id="Layer_1" xmlns="http://www.w3.org/2000/svg" xmlns:xlink="http://www.w3.org/1999/xlink" x="0px" y="0px"
	 width="32px" height="32px" viewBox="0 0 32 32" enable-background="new 0 0 32 32" xml:space="preserve">
<g>
	<path fill="#006DBC" d="M10.648,10.784H6.012l0.87-4.057h4.637L10.648,10.784z"/>
	<path fill="#C1272D" d="M7.338,27.041"/>
	<path fill="#006DBC" d="M10.551,11.411H5.939L3.277,24.149c-0.39,1.403-0.288,1.459-1.817,1.459c-0.16,0-0.314-0.016-0.466-0.034
		v0.029h-0.12l-0.87,4.061h4.05l0.024-0.021c1.572-0.01,3.006-1.34,3.268-2.609c0.26-1.267,3.209-15.628,3.209-15.628L10.551,11.411
		z"/>
	<path fill="#1A202E" d="M29.459,19.044c0.126-0.225,0.234-0.628,0.337-0.9c0.288-0.773,0.56-1.556,0.813-2.342
		c0.641-1.985,1.24-4.054,1.381-6.145c0.05-0.777-0.233-2.209-0.565-2.93c-0.59-1.27-1.077-1.907-2.159-2.799
		c-1.71-1.4-3.848-1.61-5.97-1.587c-1.72,0.02-3.439,0.233-4.979,1.033c-2.27,1.179-3.767,3.37-4.759,5.659
		c-1.01,2.315-1.58,4.929-1.41,7.463c0.16,2.366,1.153,4.959,3.5,5.91c1.406,0.569,2.927,0.489,4.41,0.489c1.583,0,3.165,0,4.747,0
		c1.402,0,2.81,0,4.214,0c0.52,0,1.044,0,1.566,0c0.1,0,0.2,0,0.3,0c0.164,0,0.174-0.25,0.22-0.392
		c0.135-0.438,0.258-0.877,0.365-1.32c0.175-0.708,0.322-1.424,0.444-2.143c-0.815-0.016-1.637,0-2.455,0 M24.893,19.04
		c-1.328,0-2.486,0-3.884,0c-1.025,0-2.819,0.04-3.516-0.824c-0.7-0.87-0.666-2.429-0.536-3.509
		c0.157-1.285,0.492-2.472,0.891-3.633c0.727-2.128,2.231-3.885,4.524-4.263c0.957-0.156,2.071-0.167,2.968,0.238
		c0.93,0.42,1.572,1.468,1.699,2.459c0.177,1.39-0.228,2.888-0.567,4.219c-0.445,1.749-1.007,3.464-1.578,5.168"/>
</g>
</svg>
