<?xml version="1.0" encoding="utf-8"?>
<!-- Generator: Adobe Illustrator 14.0.0, SVG Export Plug-In . SVG Version: 6.00 Build 43363)  -->
<!DOCTYPE svg PUBLIC "-//W3C//DTD SVG 1.1//EN" "http://www.w3.org/Graphics/SVG/1.1/DTD/svg11.dtd">
<svg version="1.1" id="Layer_1" xmlns="http://www.w3.org/2000/svg" xmlns:xlink="http://www.w3.org/1999/xlink" x="0px" y="0px"
	 width="32px" height="32px" viewBox="0 0 32 32" enable-background="new 0 0 32 32" xml:space="preserve">
<path fill="#FFFFFF" d="M9.844,6.166L7.79,7.352C7.636,7.44,7.583,7.639,7.672,7.792l3.125,5.413c0.09,0.154,0.287,0.207,0.44,0.116
	l2.053-1.18c0.154-0.09,0.208-0.287,0.12-0.44l-3.126-5.413c-0.09-0.155-0.286-0.207-0.44-0.117V6.166z M18.204,20.002
	c-0.09-0.154-0.286-0.21-0.44-0.118l-2.054,1.185c-0.154,0.09-0.207,0.285-0.12,0.441l3.126,5.41c0.091,0.156,0.29,0.207,0.442,0.12
	l2.053-1.188c0.16-0.09,0.21-0.285,0.12-0.439l-3.12-5.41H18.204z M16,0C7.177,0,0,7.178,0,16s7.177,16,16,16
	c1.029,0,2.057-0.098,3.048-0.29l-0.187-0.953c-0.93,0.183-1.891,0.273-2.86,0.273C7.717,31.03,0.97,24.288,0.97,16
	S7.712,0.97,16,0.97S31.029,7.71,31.029,16c0,3.922-1.5,7.633-4.229,10.45c-1.22,1.26-1.68,1.397-1.87,1.382
	c-0.016-0.002-0.05-0.007-0.1-0.102c-0.471-0.871-1.493-2.95-1.77-3.515c0.756-0.603,1.359-1.478,1.31-2.729
	c-0.208-5.134-6.815-15.308-9.57-16.34c-1.616-0.608-3.12,0.112-4.086,0.813c0.013,0.01,0.026,0.03,0.038,0.05l3.017,5.23
	c1.05-0.59,2.77-0.677,4.709,2.68c2.03,3.524,1.25,5.229,0.315,6.033l2.915,5.05c0.174-0.074,0.35-0.16,0.527-0.256
	c0.337,0.689,1.275,2.59,1.732,3.439c0.232,0.436,0.574,0.564,0.82,0.601c0.855,0.124,1.797-0.729,2.7-1.666
	C30.4,24.125,32,20.175,32,16C32,7.178,24.823,0,16,0z"/>
</svg>
