<?xml version="1.0" encoding="utf-8"?>
<!-- Generator: Adobe Illustrator 14.0.0, SVG Export Plug-In . SVG Version: 6.00 Build 43363)  -->
<!DOCTYPE svg PUBLIC "-//W3C//DTD SVG 1.1//EN" "http://www.w3.org/Graphics/SVG/1.1/DTD/svg11.dtd">
<svg version="1.1" id="Layer_1" xmlns="http://www.w3.org/2000/svg" xmlns:xlink="http://www.w3.org/1999/xlink" x="0px" y="0px"
	 width="32px" height="32px" viewBox="0 0 32 32" enable-background="new 0 0 32 32" xml:space="preserve">
<g>
	<circle fill="#CD1D1F" cx="16" cy="16" r="16"/>
	<path fill="#FFFFFF" d="M10.179,27.839c-5.995-2.656-8.991-10.146-6.561-16.428C6.201,4.737,13.632,1.337,20.325,3.768
		c6.8,2.473,10.271,9.764,7.925,16.66c-2.192,6.431-9.601,10.247-15.817,8.242c0.686-2.074,1.372-4.148,2.045-6.188
		c1.993,1.829,4.645,1.886,6.973,0.114c2.868-2.202,4.141-7.308,2.608-10.592C22.826,9.36,20.665,7.872,17.835,7.5
		c-3.738-0.492-7.041,0.457-9.361,3.63c-1.665,2.286-2.014,4.822-0.846,7.47c0.371,0.844,1.004,1.471,1.829,1.886
		c0.48,0.248,0.786,0.136,0.96-0.408c0.228-0.731,0.217-1.327-0.252-2.045c-0.982-1.497-0.708-3.134-0.063-4.686
		c1.541-3.674,6.826-4.971,9.783-2.434c0.976,0.838,1.463,1.927,1.543,3.166c0.125,1.879-0.165,3.697-1.069,5.379
		c-0.541,0.997-1.275,1.777-2.424,2.056c-1.748,0.422-3.039-0.84-2.617-2.583c0.281-1.166,0.646-2.315,0.957-3.479
		c0.08-0.299,0.124-0.614,0.137-0.926c0.039-0.891-0.382-1.645-1.047-1.937c-0.72-0.313-1.662-0.109-2.268,0.553
		c-1.105,1.206-1.162,2.628-0.834,4.148c0.105,0.495,0.121,1.052,0.014,1.546c-0.496,2.309-1.072,4.602-1.566,6.914
		c-0.16,0.709-0.423,2.148-0.538,2.095L10.179,27.839z"/>
</g>
</svg>
