<?xml version="1.0" encoding="utf-8"?>
<!-- Generator: Adobe Illustrator 14.0.0, SVG Export Plug-In . SVG Version: 6.00 Build 43363)  -->
<!DOCTYPE svg PUBLIC "-//W3C//DTD SVG 1.1//EN" "http://www.w3.org/Graphics/SVG/1.1/DTD/svg11.dtd">
<svg version="1.1" id="Layer_1" xmlns="http://www.w3.org/2000/svg" xmlns:xlink="http://www.w3.org/1999/xlink" x="0px" y="0px"
	 width="32px" height="32px" viewBox="0 0 32 32" enable-background="new 0 0 32 32" xml:space="preserve">
<g>
	<path fill="#FFFFFF" d="M5.159,0.916l5.146,5.146c0.37,0.37,0.37,0.971,0,1.341L7.628,10.08c-0.37,0.367-0.97,0.367-1.34,0
		L0.979,4.77c-1.694,3.216-1.19,7.286,1.517,9.99c2.705,2.71,6.777,3.21,9.993,1.521L27.709,31.5c0.369,0.368,0.97,0.368,1.34,0
		l2.675-2.68c0.37-0.37,0.37-0.971,0-1.338l-15.38-15.385c1.335-3.106,0.739-6.846-1.8-9.384C12.005,0.176,8.268-0.42,5.159,0.916z"
		/>
</g>
</svg>
