<?xml version="1.0" encoding="utf-8"?>
<!-- Generator: Adobe Illustrator 14.0.0, SVG Export Plug-In . SVG Version: 6.00 Build 43363)  -->
<!DOCTYPE svg PUBLIC "-//W3C//DTD SVG 1.1//EN" "http://www.w3.org/Graphics/SVG/1.1/DTD/svg11.dtd">
<svg version="1.1" id="Layer_1" xmlns="http://www.w3.org/2000/svg" xmlns:xlink="http://www.w3.org/1999/xlink" x="0px" y="0px"
	 width="32px" height="32px" viewBox="0 0 32 32" enable-background="new 0 0 32 32" xml:space="preserve">
<g>
	<path fill="#98CB02" d="M20.379,2.699l1.377-2.215c0.094-0.15,0.047-0.347-0.104-0.438c-0.147-0.093-0.344-0.047-0.438,0.104
		l-1.42,2.279c-1.146-0.479-2.434-0.752-3.796-0.752c-1.362,0-2.65,0.272-3.798,0.755l-1.42-2.279
		c-0.092-0.15-0.288-0.196-0.437-0.105c-0.15,0.093-0.195,0.288-0.103,0.438l1.378,2.214c-2.51,1.267-4.212,3.586-4.292,6.256
		h17.343C24.591,6.286,22.889,3.966,20.379,2.699z M27.786,10.354c-0.96,0-1.735,0.774-1.735,1.733v7.95
		c0,0.96,0.776,1.732,1.735,1.732c0.957,0,1.735-0.776,1.735-1.735v-7.95c0-0.96-0.778-1.736-1.735-1.736V10.354z M4.212,10.354
		c-0.957,0-1.735,0.774-1.735,1.733v7.95c0,0.96,0.778,1.732,1.735,1.732c0.96,0,1.735-0.776,1.735-1.735v-7.95
		c0-0.96-0.776-1.736-1.735-1.736V10.354z M7.323,23.948c0,0.928,0.73,1.688,1.646,1.732h1.721v4.558
		c0,0.959,0.777,1.734,1.735,1.734s1.736-0.775,1.736-1.734v-4.558h3.668v4.58c0,0.96,0.78,1.737,1.737,1.737
		s1.734-0.777,1.734-1.735v-4.58h1.641c0.957,0,1.734-0.774,1.734-1.732V10.354H7.321v13.595H7.323z"/>
	<path fill="#FFFFFF" d="M20.699,5.534c0,0.56-0.453,1.012-1.014,1.012c-0.56,0-1.013-0.453-1.013-1.012
		c0-0.561,0.453-1.013,1.013-1.013C20.246,4.521,20.699,4.974,20.699,5.534z M13.324,5.534c0,0.56-0.453,1.012-1.013,1.012
		s-1.012-0.453-1.012-1.012c0-0.561,0.453-1.013,1.013-1.013S13.324,4.974,13.324,5.534z"/>
</g>
</svg>
