<?xml version="1.0" encoding="utf-8"?>
<!-- Generator: Adobe Illustrator 14.0.0, SVG Export Plug-In . SVG Version: 6.00 Build 43363)  -->
<!DOCTYPE svg PUBLIC "-//W3C//DTD SVG 1.1//EN" "http://www.w3.org/Graphics/SVG/1.1/DTD/svg11.dtd">
<svg version="1.1" id="Layer_1" xmlns="http://www.w3.org/2000/svg" xmlns:xlink="http://www.w3.org/1999/xlink" x="0px" y="0px"
	 width="32px" height="32px" viewBox="0 0 32 32" enable-background="new 0 0 32 32" xml:space="preserve">
<g>
	<path fill="#DD1B16" d="M15.879,30.84L4.117,24.038L2.219,5.973l13.773-4.909l13.775,4.909l-2.123,18.065"/>
	<path fill="#FFFFFF" d="M20.489,18.936l2.142,4.545h3.2L15.907,2.403L6.429,23.48h3.438l2.044-4.547L20.489,18.936z M15.915,8.916
		l3.351,7.11h-6.548L15.915,8.916z"/>
	<path opacity="0.2" enable-background="new    " d="M15.992,1.064l-0.113,0.042V30.84l11.766-6.802l2.123-18.065L15.992,1.064z"/>
	<path fill="#B3B3B3" d="M15.992,1.064L29.768,5.97l-2.123,18.07l-11.766,6.8L4.114,24.038L2.218,5.973l13.779-4.909 M15.997,0
		l-0.336,0.12L1.889,5.026L1.145,5.292l0.082,0.785l1.89,18.063l0.055,0.511l0.442,0.256l11.765,6.804l0.5,0.29l0.502-0.29
		l11.766-6.805l0.436-0.25l0.061-0.5L30.76,6.088l0.094-0.796l-0.752-0.268L16.329,0.12L15.992,0H15.997z"/>
</g>
</svg>
