<svg xmlns="http://www.w3.org/2000/svg" xmlns:xlink="http://www.w3.org/1999/xlink" width="32" height="32" viewBox="0 0 32 32"><symbol id="a" viewBox="-13.027 -16 26.055 32"><path fill="#fff" d="M8.732-1.003c-.039 4.053 3.306 5.995 3.455 6.093-1.879 2.75-4.807 3.127-5.851 3.17-2.491.253-4.861-1.468-6.127-1.468-1.259 0-3.211 1.431-5.278 1.394-2.716-.041-5.22-1.577-6.619-4.012-2.821-4.896-.722-12.15 2.028-16.121 1.344-1.944 2.946-4.128 5.049-4.051 2.026.082 2.793 1.313 5.243 1.313s3.138-1.313 5.282-1.271c2.181.041 3.562 1.98 4.896 3.932 1.543 2.255 2.179 4.438 2.217 4.551-.049.02-4.253 1.629-4.295 6.47zM4.704 10.889c1.118 1.355 1.87 3.236 1.666 5.111-1.609-.066-3.561-1.071-4.713-2.423-1.037-1.199-1.943-3.114-1.701-4.953 1.798-.14 3.63.914 4.748 2.265z"/><path fill="#B3B3B3" d="M4.033 10.58c.962 1.172 1.608 2.798 1.433 4.419-1.385-.057-3.061-.926-4.053-2.095-.892-1.036-1.671-2.692-1.462-4.282 1.545-.12 3.121.789 4.082 1.958z"/><path fill="#999" d="M5.088 14.477c-.181-.979-.643-1.967-1.332-2.804-.686-.829-1.618-1.438-2.541-1.696.198 1.103.803 2.138 1.379 2.803.619.724 1.561 1.348 2.494 1.697m1.282 1.523c-1.609-.066-3.561-1.071-4.713-2.423-1.037-1.199-1.943-3.114-1.701-4.953.108-.009.215-.013.323-.013 1.69 0 3.374 1.007 4.425 2.276 1.118 1.357 1.87 3.238 1.666 5.113z"/><path fill="#B3B3B3" d="M8.732-1.003c-.039 4.053 3.306 5.995 3.455 6.093-1.879 2.75-4.807 3.127-5.851 3.17-2.491.253-4.861-1.468-6.127-1.468-1.259 0-3.211 1.431-5.278 1.394-2.716-.041-5.22-1.577-6.619-4.012-2.821-4.896-.722-12.15 2.028-16.121 1.344-1.944 2.946-4.128 5.049-4.051 2.026.082 2.793 1.313 5.243 1.313s3.138-1.313 5.282-1.271c2.181.041 3.562 1.98 4.896 3.932 1.543 2.255 2.179 4.438 2.217 4.551-.049.02-4.253 1.629-4.295 6.47z"/><path fill="#999" d="M5.828 7.055c.127 0 .256-.006.385-.02l.035-.003.038-.002c.809-.034 2.646-.279 4.127-1.73-1.265-1.101-2.942-3.159-2.911-6.314.035-4.022 2.542-6.154 4.01-7.058-.328-.831-.883-2.042-1.717-3.261-1.35-1.97-2.419-3.367-3.903-3.396l-.074-.001c-.739 0-1.248.22-1.89.498-.797.346-1.788.773-3.295.773-1.564 0-2.596-.439-3.424-.793-.645-.273-1.153-.491-1.863-.521l-.063-.001c-1.379 0-2.698 1.74-3.93 3.522-2.381 3.438-4.567 10.306-1.973 14.808 1.184 2.061 3.318 3.36 5.631 3.396.908 0 1.853-.375 2.766-.737.85-.337 1.652-.655 2.433-.655.726 0 1.488.302 2.37.648 1.003.398 2.14.847 3.248.847m0 1.23c-2.302 0-4.44-1.493-5.619-1.493-1.243 0-3.161 1.395-5.198 1.395-.027 0-.054 0-.08-.001-2.716-.041-5.22-1.577-6.619-4.012-2.821-4.896-.722-12.15 2.028-16.121 1.321-1.911 2.892-4.053 4.942-4.053.036 0 .072.001.108.002 2.026.082 2.793 1.313 5.243 1.313 2.412 0 3.117-1.272 5.185-1.272.032 0 .064 0 .097.001 2.181.041 3.562 1.98 4.896 3.932 1.543 2.255 2.179 4.438 2.217 4.551-.05.021-4.253 1.632-4.295 6.473-.04 4.051 3.305 5.993 3.454 6.091-1.879 2.749-4.807 3.126-5.851 3.169-.17.017-.34.025-.508.025z"/></symbol><use xlink:href="#a" width="26.055" height="32" x="-13.027" y="-16" transform="matrix(1 0 0 -1 16 16)" overflow="visible"/></svg>