<svg xmlns="http://www.w3.org/2000/svg" width="32" height="32" viewBox="0 0 32 32"><path fill="#FFF" d="M28.309 2L10.072 7.636v16.916c-.863-.417-2.028-.518-3.215-.2-2.113.566-3.5 2.248-3.096 3.756.405 1.517 2.446 2.271 4.559 1.705 1.926-.513 3.242-1.957 3.159-3.348h.009V10.551l15.41-4.927v13.444c-.867-.418-2.03-.521-3.217-.202-2.117.563-3.499 2.247-3.097 3.756.403 1.509 2.441 2.271 4.554 1.7 1.993-.535 3.339-2.063 3.146-3.496h.02V2.001L28.309 2z"/><path fill="#C8C8C8" d="M28.309 2l-.008.001.008-.001zm-.007.002l-18.23 5.634v16.916c-.519-.251-1.147-.387-1.824-.387-.448 0-.918.06-1.391.187-2.113.566-3.5 2.248-3.096 3.756C4.075 29.282 5.373 30 6.924 30c.45 0 .922-.061 1.396-.188 1.926-.514 3.242-1.957 3.159-3.349h.009V10.551l15.41-4.927v13.444c-.522-.252-1.151-.389-1.828-.389-.448 0-.916.061-1.389.187-2.117.563-3.499 2.247-3.097 3.756.313 1.169 1.606 1.89 3.155 1.89.45 0 .922-.061 1.397-.188 1.993-.535 3.339-2.063 3.146-3.496h.019V2.002h.001z"/><path fill="#FFF" d="M27.302 3.358v1.087l-.709.226-15.41 4.927-.111.036v-1.26l16.23-5.016M25.069 19.68c.519 0 1.001.102 1.394.29l.744.359.085.631c.109.812-.782 1.959-2.415 2.396-.38.104-.763.155-1.137.155-1.108 0-2.009-.472-2.189-1.146-.146-.554.192-1.076.409-1.339.446-.543 1.167-.978 1.979-1.193a4.299 4.299 0 0 1 1.13-.153M8.248 25.165c.521 0 1 .099 1.39.287l.802.388.041.686c.048.812-.843 1.901-2.419 2.322-.381.1-.764.152-1.138.152-1.13 0-2.013-.463-2.196-1.15-.251-.939.864-2.123 2.388-2.533a4.391 4.391 0 0 1 1.132-.152"/></svg>