<?xml version="1.0" encoding="utf-8"?>
<!-- Generator: Adobe Illustrator 14.0.0, SVG Export Plug-In . SVG Version: 6.00 Build 43363)  -->
<!DOCTYPE svg PUBLIC "-//W3C//DTD SVG 1.1//EN" "http://www.w3.org/Graphics/SVG/1.1/DTD/svg11.dtd">
<svg version="1.1" id="Layer_1" xmlns="http://www.w3.org/2000/svg" xmlns:xlink="http://www.w3.org/1999/xlink" x="0px" y="0px"
	 width="32px" height="32px" viewBox="0 0 32 32" enable-background="new 0 0 32 32" xml:space="preserve">
<symbol  id="_x5F_button_x5F_base" viewBox="-16.001 -16 32 32">
	<g id="button_x5F_base_3_">
		<g id="button_6_">
			<g>
				
					<use xlink:href="#_x5F_button_x5F_shape"  width="32" height="32" x="-16" y="-16" transform="matrix(1 0 0 1 -9.765625e-004 0)" overflow="visible"/>
			</g>
			<g>
				<g>
					<g>
						<g>
							<path fill="#999999" d="M15.999-12c0-2.209-1.791-4-4-4h-24c-2.209,0-4,1.791-4,4v24c0,2.209,1.791,4,4,4h24
								c2.209,0,4-1.791,4-4V-12z"/>
						</g>
					</g>
				</g>
			</g>
		</g>
	</g>
	<g id="button_3_">
		<g>
			
				<use xlink:href="#_x5F_button_x5F_shape"  width="32" height="32" x="-16" y="-16" transform="matrix(0.9375 0 0 0.9375 -9.765625e-004 0)" overflow="visible"/>
		</g>
		<g>
			<g>
				<g>
					<g>
						<g>
							<path fill="#F2F2F2" d="M14.999-11.25c0-2.071-1.679-3.75-3.75-3.75h-22.5c-2.071,0-3.75,1.679-3.75,3.75v22.5
								c0,2.071,1.679,3.75,3.75,3.75h22.5c2.071,0,3.75-1.679,3.75-3.75V-11.25z"/>
						</g>
					</g>
				</g>
			</g>
		</g>
	</g>
</symbol>
<symbol  id="_x5F_button_x5F_overlay" viewBox="-16.5 -16.5 33 33">
	<g id="_x5F_button_x5F_overlay_1_" opacity="0">
		<g id="button_x5F_overlay_3_">
			<g>
				<use xlink:href="#_x5F_button_x5F_shape"  width="32" height="32" x="-16" y="-16" overflow="visible"/>
			</g>
			<g>
				<g>
					<g>
						<g>
							<path fill="none" stroke="#808080" d="M16-12c0-2.209-1.791-4-4-4h-24c-2.209,0-4,1.791-4,4v24c0,2.209,1.791,4,4,4h24
								c2.209,0,4-1.791,4-4V-12z"/>
						</g>
					</g>
				</g>
			</g>
			<g>
				<g>
					<g>
						<g>
							<path fill="#0000FF" d="M16-12c0-2.209-1.791-4-4-4h-24c-2.209,0-4,1.791-4,4v24c0,2.209,1.791,4,4,4h24c2.209,0,4-1.791,4-4
								V-12z"/>
						</g>
					</g>
				</g>
			</g>
			<g>
				<g>
					<g>
						<g>
							<radialGradient id="SVGID_1_" cx="-9.1748" cy="11.5107" r="24.9406" gradientUnits="userSpaceOnUse">
								<stop  offset="0" style="stop-color:#E6E6E6"/>
								<stop  offset="1" style="stop-color:#000000"/>
							</radialGradient>
							<path fill="url(#SVGID_1_)" d="M16-12c0-2.209-1.791-4-4-4h-24c-2.209,0-4,1.791-4,4v24c0,2.209,1.791,4,4,4h24
								c2.209,0,4-1.791,4-4V-12z"/>
						</g>
					</g>
				</g>
			</g>
		</g>
	</g>
</symbol>
<symbol  id="_x5F_button_x5F_shape" viewBox="-16 -16 32 32">
	<g id="button_x5F_shape_2_">
		<g>
			<g opacity="0">
				<path fill="#FFFFFF" d="M16-12c0-2.209-1.791-4-4-4h-24c-2.209,0-4,1.791-4,4v24c0,2.209,1.791,4,4,4h24c2.209,0,4-1.791,4-4
					V-12z"/>
			</g>
		</g>
	</g>
</symbol>
<symbol  id="behance" viewBox="-13.5 -8.583 27 17.166">
	<g>
		<g>
			<path fill="#FFFFFF" d="M-0.997,6.361c0.495-0.688,0.74-1.511,0.74-2.468c0-0.988-0.249-1.78-0.748-2.381
				c-0.278-0.337-0.688-0.643-1.231-0.92c0.823-0.301,1.448-0.775,1.865-1.428c0.421-0.651,0.629-1.44,0.629-2.368
				c0-0.96-0.236-1.819-0.719-2.579c-0.305-0.503-0.686-0.929-1.144-1.271c-0.515-0.396-1.125-0.665-1.826-0.812
				C-4.133-8.01-4.895-8.082-5.714-8.082H-13V8.083h7.813C-3.217,8.051-1.82,7.48-0.997,6.361z M-9.27,5.275V1.71h3.425
				c0.701,0,1.271,0.134,1.709,0.401c0.438,0.267,0.656,0.74,0.656,1.42c0,0.753-0.289,1.251-0.869,1.491
				C-4.847,5.19-5.484,5.275-6.258,5.275H-9.27z M-9.27-0.967v-4.308h3.42c0.701,0,1.246,0.092,1.637,0.284
				c0.708,0.352,1.063,1.022,1.063,2.018c0,0.841-0.345,1.421-1.029,1.732c-0.384,0.177-0.925,0.267-1.618,0.273H-9.27z"/>
			<path fill="#2A51E0" d="M-5.714-8.582H-13.5V8.583h8.313c2.136-0.034,3.678-0.682,4.592-1.926
				c0.557-0.772,0.838-1.701,0.838-2.764c0-1.103-0.291-2.011-0.863-2.7C-0.78,1-0.972,0.819-1.198,0.647
				c0.518-0.317,0.936-0.724,1.249-1.214C0.52-1.291,0.758-2.18,0.758-3.203c0-1.057-0.268-2.015-0.797-2.848
				c-0.333-0.55-0.762-1.025-1.267-1.402c-0.564-0.435-1.247-0.739-2.023-0.9C-4.061-8.505-4.862-8.582-5.714-8.582L-5.714-8.582z
				 M-12.5-7.583h6.786c0.783,0,1.517,0.07,2.182,0.209c0.627,0.13,1.173,0.372,1.623,0.718c0.407,0.305,0.748,0.684,1.021,1.133
				c0.437,0.688,0.646,1.444,0.646,2.32c0,0.827-0.185,1.533-0.549,2.097c-0.358,0.561-0.887,0.962-1.617,1.229l-1.077,0.395
				l1.021,0.521c0.479,0.244,0.841,0.512,1.073,0.793c0.427,0.514,0.634,1.188,0.634,2.063c0,0.86-0.211,1.571-0.646,2.175
				C-2.13,7.058-3.371,7.554-5.194,7.583H-12.5V-7.583L-12.5-7.583z M-5.85-5.774h-3.92v5.308h3.973
				c0.782-0.008,1.379-0.113,1.828-0.319c0.862-0.393,1.319-1.149,1.319-2.187c0-1.486-0.729-2.162-1.341-2.466
				C-4.452-5.665-5.06-5.774-5.85-5.774L-5.85-5.774z M-8.77-4.774h2.92c0.625,0,1.102,0.078,1.416,0.232
				c0.336,0.167,0.784,0.512,0.784,1.569c0,0.643-0.234,1.048-0.736,1.277C-4.702-1.55-5.178-1.473-5.802-1.467H-8.77V-4.774
				L-8.77-4.774z M-5.845,1.21H-9.77v4.565h3.512c0.823,0,1.52-0.094,2.069-0.279c0.568-0.234,1.209-0.754,1.209-1.965
				c0-1.075-0.487-1.598-0.896-1.848C-4.391,1.37-5.053,1.21-5.845,1.21L-5.845,1.21z M-8.77,2.21h2.925
				c0.605,0,1.093,0.11,1.448,0.328c0.104,0.063,0.417,0.254,0.417,0.993c0,0.706-0.3,0.922-0.561,1.029
				c-0.414,0.139-1.003,0.215-1.718,0.215H-8.77V2.21L-8.77,2.21z"/>
		</g>
		<g>
			<path fill="#FFFFFF" d="M9.973,3.768c0.808-0.362,1.475-0.934,2.002-1.715c0.475-0.69,0.78-1.486,0.923-2.395
				c0.08-0.529,0.114-1.297,0.1-2.301H4.561C4.606-3.806,5.01-4.619,5.771-5.086c0.459-0.291,1.018-0.435,1.67-0.435
				c0.688,0,1.25,0.176,1.682,0.532c0.235,0.189,0.443,0.456,0.623,0.794h3.092c-0.08-0.688-0.453-1.384-1.122-2.094
				c-1.037-1.124-2.491-1.69-4.358-1.69c-1.544,0-2.902,0.477-4.082,1.426c-1.178,0.952-1.768,2.497-1.768,4.64
				c0,2.008,0.532,3.545,1.596,4.616C4.17,3.774,5.549,4.309,7.248,4.309C8.256,4.309,9.164,4.129,9.973,3.768z M5.441,1.149
				C5.011,0.71,4.743,0.111,4.634-0.644h5.219C9.797,0.161,9.527,0.771,9.044,1.186c-0.48,0.418-1.079,0.626-1.796,0.626
				C6.47,1.812,5.867,1.589,5.441,1.149z"/>
			<path fill="#2A51E0" d="M7.357-8.479c-1.65,0-3.129,0.518-4.396,1.537C1.665-5.894,1.008-4.202,1.008-1.913
				c0,2.134,0.586,3.806,1.741,4.969c1.158,1.163,2.672,1.753,4.499,1.753c1.076,0,2.062-0.196,2.929-0.585
				c0.891-0.399,1.635-1.035,2.213-1.893c0.51-0.74,0.848-1.615,1.002-2.596c0.085-0.563,0.12-1.364,0.105-2.385L13.49-3.143H5.111
				c0.116-0.711,0.42-1.21,0.921-1.517c0.38-0.24,0.852-0.361,1.409-0.361c0.578,0,1.023,0.137,1.363,0.417
				c0.185,0.149,0.352,0.364,0.5,0.645l0.142,0.265h3.953l-0.064-0.558c-0.093-0.794-0.516-1.594-1.256-2.379
				C10.95-7.854,9.36-8.479,7.357-8.479L7.357-8.479z M7.248,3.809c-1.573,0-2.813-0.478-3.79-1.458
				c-0.962-0.969-1.45-2.404-1.45-4.264c0-1.972,0.532-3.402,1.582-4.25c1.099-0.885,2.331-1.315,3.768-1.315
				c1.712,0,3.055,0.515,3.991,1.53c0.404,0.429,0.688,0.848,0.849,1.254h-2.164C9.855-4.973,9.656-5.201,9.437-5.378
				C8.923-5.803,8.25-6.021,7.441-6.021c-0.751,0-1.402,0.173-1.938,0.514C4.602-4.955,4.113-3.996,4.061-2.661L4.04-2.143h8.46
				c-0.001,0.73-0.034,1.31-0.097,1.726c-0.132,0.841-0.407,1.556-0.841,2.186c-0.48,0.713-1.066,1.216-1.794,1.542
				C9.03,3.641,8.183,3.809,7.248,3.809L7.248,3.809z M10.389-1.144H4.057l0.082,0.572c0.125,0.861,0.443,1.558,0.945,2.07
				c0.522,0.539,1.251,0.813,2.164,0.813c0.837,0,1.552-0.251,2.124-0.748c0.584-0.503,0.914-1.233,0.979-2.173L10.389-1.144
				L10.389-1.144z M5.256-0.144h4.018C9.173,0.26,8.989,0.573,8.718,0.806c-0.392,0.341-0.872,0.506-1.47,0.506
				c-0.641,0-1.114-0.166-1.447-0.511C5.555,0.551,5.375,0.239,5.256-0.144L5.256-0.144z"/>
		</g>
		<g>
			<polygon fill="#FFFFFF" points="10.48,5.795 3.966,5.795 3.966,7.413 10.48,7.413 			"/>
			<path fill="#2A51E0" d="M10.98,5.295H3.466v2.618h7.515V5.295L10.98,5.295z M4.466,6.295H9.98v0.618H4.466V6.295L4.466,6.295z"/>
		</g>
	</g>
	<g>
		<path fill="#FFFFFF" d="M-0.997,6.361c0.495-0.688,0.74-1.511,0.74-2.468c0-0.988-0.249-1.78-0.748-2.381
			c-0.278-0.337-0.688-0.643-1.231-0.92c0.823-0.301,1.448-0.775,1.865-1.428c0.421-0.651,0.629-1.44,0.629-2.368
			c0-0.96-0.236-1.819-0.719-2.579c-0.305-0.503-0.686-0.929-1.144-1.271c-0.515-0.396-1.125-0.665-1.826-0.812
			C-4.133-8.01-4.895-8.082-5.714-8.082H-13V8.083h7.813C-3.217,8.051-1.82,7.48-0.997,6.361z M-9.27,5.275V1.71h3.425
			c0.701,0,1.271,0.134,1.709,0.401c0.438,0.267,0.656,0.74,0.656,1.42c0,0.753-0.289,1.251-0.869,1.491
			C-4.847,5.19-5.484,5.275-6.258,5.275H-9.27z M-9.27-0.967v-4.308h3.42c0.701,0,1.246,0.092,1.637,0.284
			c0.708,0.352,1.063,1.022,1.063,2.018c0,0.841-0.345,1.421-1.029,1.732c-0.384,0.177-0.925,0.267-1.618,0.273H-9.27z"/>
		<path fill="#FFFFFF" d="M9.973,3.768c0.808-0.362,1.475-0.934,2.002-1.715c0.475-0.69,0.78-1.486,0.923-2.395
			c0.08-0.529,0.114-1.297,0.1-2.301H4.561C4.606-3.806,5.01-4.619,5.771-5.086c0.459-0.291,1.018-0.435,1.67-0.435
			c0.688,0,1.25,0.176,1.682,0.532c0.235,0.189,0.443,0.456,0.623,0.794h3.092c-0.08-0.688-0.453-1.384-1.122-2.094
			c-1.037-1.124-2.491-1.69-4.358-1.69c-1.544,0-2.902,0.477-4.082,1.426c-1.178,0.952-1.768,2.497-1.768,4.64
			c0,2.008,0.532,3.545,1.596,4.616C4.17,3.774,5.549,4.309,7.248,4.309C8.256,4.309,9.164,4.129,9.973,3.768z M5.441,1.149
			C5.011,0.71,4.743,0.111,4.634-0.644h5.219C9.797,0.161,9.527,0.771,9.044,1.186c-0.48,0.418-1.079,0.626-1.796,0.626
			C6.47,1.812,5.867,1.589,5.441,1.149z"/>
		<polygon fill="#FFFFFF" points="10.48,5.795 3.966,5.795 3.966,7.413 10.48,7.413 		"/>
	</g>
</symbol>
<g>
	<g id="XMLID_1_">
		<g>
			<g>
				<path fill="#FFFFFF" d="M14.966,9.404c0.514,0.712,0.768,1.566,0.768,2.559c0,1.025-0.258,1.846-0.776,2.468
					c-0.289,0.35-0.714,0.667-1.277,0.955c0.854,0.313,1.502,0.804,1.935,1.481c0.437,0.675,0.652,1.494,0.652,2.456
					c0,0.995-0.245,1.887-0.746,2.675c-0.316,0.521-0.711,0.963-1.186,1.317c-0.534,0.41-1.167,0.69-1.894,0.841
					c-0.728,0.151-1.518,0.228-2.368,0.228H2.519V7.618h8.103C12.664,7.651,14.112,8.243,14.966,9.404z M6.387,10.53v3.697h3.552
					c0.727,0,1.318-0.139,1.772-0.416s0.681-0.768,0.681-1.473c0-0.781-0.3-1.297-0.901-1.546c-0.517-0.174-1.178-0.262-1.98-0.262
					H6.387z M6.387,17.003v4.468h3.546c0.727,0,1.292-0.096,1.697-0.295c0.734-0.365,1.103-1.061,1.103-2.093
					c0-0.871-0.357-1.474-1.067-1.796c-0.398-0.184-0.959-0.277-1.678-0.284H6.387z"/>
				<path fill="#2A51E0" d="M10.075,24.9H2V7.1h8.622c2.215,0.036,3.814,0.708,4.762,1.997c0.577,0.801,0.869,1.764,0.869,2.866
					c0,1.143-0.302,2.085-0.895,2.8c-0.166,0.201-0.365,0.389-0.6,0.567c0.537,0.329,0.97,0.75,1.295,1.258
					c0.486,0.752,0.733,1.673,0.733,2.734c0,1.096-0.277,2.089-0.826,2.953c-0.345,0.57-0.79,1.063-1.313,1.454
					c-0.585,0.451-1.293,0.767-2.099,0.934C11.789,24.821,10.958,24.9,10.075,24.9L10.075,24.9z M3.037,23.864h7.038
					c0.812,0,1.573-0.073,2.262-0.217c0.65-0.135,1.216-0.385,1.683-0.744c0.422-0.315,0.776-0.709,1.059-1.175
					c0.453-0.714,0.67-1.498,0.67-2.406c0-0.858-0.191-1.59-0.569-2.174c-0.372-0.582-0.919-0.999-1.677-1.275l-1.117-0.409
					l1.059-0.541c0.497-0.253,0.872-0.53,1.113-0.823c0.442-0.532,0.657-1.231,0.657-2.138c0-0.893-0.219-1.63-0.669-2.255
					c-0.755-1.025-2.042-1.541-3.933-1.571H3.037V23.864L3.037,23.864z M9.934,21.989H5.869v-5.505h4.12
					c0.812,0.009,1.43,0.118,1.896,0.333c0.894,0.406,1.368,1.19,1.368,2.267c0,1.542-0.756,2.242-1.391,2.558
					C11.383,21.875,10.753,21.989,9.934,21.989L9.934,21.989z M6.906,20.952h3.028c0.648,0,1.143-0.081,1.469-0.241
					c0.348-0.174,0.813-0.531,0.813-1.628c0-0.667-0.243-1.087-0.764-1.324c-0.328-0.151-0.821-0.231-1.468-0.237H6.906V20.952
					L6.906,20.952z M9.939,14.746h-4.07v-4.734H9.51c0.854,0,1.576,0.097,2.146,0.29c0.589,0.243,1.254,0.782,1.254,2.038
					c0,1.115-0.505,1.657-0.929,1.916C11.447,14.58,10.76,14.746,9.939,14.746L9.939,14.746z M6.906,13.708h3.033
					c0.628,0,1.133-0.114,1.502-0.339c0.107-0.065,0.432-0.264,0.432-1.031c0-0.732-0.311-0.956-0.581-1.067
					c-0.43-0.144-1.04-0.223-1.782-0.223H6.906V13.708L6.906,13.708z"/>
			</g>
			<g>
				<path fill="#FFFFFF" d="M26.342,12.094c0.838,0.375,1.529,0.967,2.076,1.778c0.492,0.715,0.81,1.542,0.957,2.483
					c0.083,0.549,0.118,1.345,0.104,2.385h-8.749c0.048,1.207,0.466,2.051,1.256,2.534c0.476,0.302,1.055,0.45,1.731,0.45
					c0.714,0,1.297-0.181,1.744-0.551c0.244-0.196,0.46-0.474,0.646-0.823h3.206c-0.083,0.712-0.47,1.436-1.164,2.17
					c-1.075,1.167-2.583,1.754-4.52,1.754c-1.602,0-3.01-0.494-4.233-1.479c-1.221-0.987-1.833-2.59-1.833-4.811
					c0-2.083,0.552-3.678,1.655-4.788c1.105-1.111,2.535-1.665,4.298-1.665C24.562,11.532,25.504,11.719,26.342,12.094z
					 M21.643,14.809c-0.446,0.456-0.724,1.076-0.837,1.859h5.412c-0.058-0.834-0.338-1.466-0.839-1.897
					c-0.498-0.433-1.119-0.649-1.862-0.649C22.709,14.122,22.085,14.354,21.643,14.809z"/>
				<path fill="#2A51E0" d="M23.63,24.793c-1.712,0-3.245-0.537-4.559-1.594c-1.345-1.086-2.026-2.841-2.026-5.214
					c0-2.214,0.607-3.947,1.806-5.154c1.201-1.206,2.771-1.818,4.666-1.818c1.116,0,2.138,0.204,3.037,0.607
					c0.924,0.414,1.695,1.074,2.295,1.962c0.528,0.768,0.879,1.676,1.039,2.692c0.088,0.583,0.124,1.415,0.109,2.473l-0.007,0.511
					h-8.689c0.12,0.738,0.436,1.256,0.955,1.573c0.394,0.25,0.883,0.374,1.461,0.374c0.6,0,1.062-0.141,1.414-0.432
					c0.191-0.155,0.364-0.378,0.519-0.668l0.146-0.274h4.1l-0.066,0.578c-0.097,0.823-0.535,1.653-1.303,2.467
					C27.355,24.146,25.707,24.793,23.63,24.793L23.63,24.793z M23.517,12.051c-1.632,0-2.918,0.495-3.931,1.512
					c-0.997,1.004-1.504,2.493-1.504,4.422c0,2.044,0.552,3.527,1.641,4.407c1.14,0.917,2.418,1.363,3.907,1.363
					c1.775,0,3.168-0.534,4.139-1.586c0.42-0.445,0.713-0.881,0.881-1.301h-2.244c-0.185,0.288-0.392,0.525-0.619,0.708
					c-0.533,0.441-1.23,0.666-2.069,0.666c-0.778,0-1.454-0.179-2.009-0.531c-0.936-0.573-1.442-1.566-1.497-2.951l-0.021-0.539
					h8.773c-0.001-0.757-0.035-1.357-0.101-1.789c-0.137-0.872-0.422-1.614-0.871-2.267c-0.499-0.739-1.106-1.261-1.861-1.599
					C25.364,12.225,24.485,12.051,23.517,12.051L23.517,12.051z M26.773,17.187h-6.566l0.085-0.593
					c0.13-0.893,0.46-1.615,0.98-2.147c0.542-0.559,1.297-0.843,2.244-0.843c0.868,0,1.609,0.261,2.202,0.776
					c0.606,0.521,0.948,1.279,1.017,2.252L26.773,17.187L26.773,17.187z M21.45,16.149h4.167c-0.104-0.418-0.295-0.743-0.576-0.985
					c-0.406-0.354-0.904-0.525-1.524-0.525c-0.664,0-1.155,0.173-1.501,0.53C21.761,15.429,21.574,15.752,21.45,16.149L21.45,16.149
					z"/>
			</g>
			<g>
				<rect x="20.112" y="8.313" fill="#FFFFFF" width="6.757" height="1.677"/>
				<path fill="#2A51E0" d="M27.387,10.509h-7.793V7.795h7.793V10.509L27.387,10.509z M20.631,9.473h5.72V8.832h-5.72V9.473
					L20.631,9.473z"/>
			</g>
		</g>
		<g>
			<path fill="#FFFFFF" d="M14.966,9.404c0.514,0.712,0.768,1.566,0.768,2.559c0,1.025-0.258,1.846-0.776,2.468
				c-0.289,0.35-0.714,0.667-1.277,0.955c0.854,0.313,1.502,0.804,1.935,1.481c0.437,0.675,0.652,1.494,0.652,2.456
				c0,0.995-0.245,1.887-0.746,2.675c-0.316,0.521-0.711,0.963-1.186,1.317c-0.534,0.41-1.167,0.69-1.894,0.841
				c-0.728,0.151-1.518,0.228-2.368,0.228H2.519V7.618h8.103C12.664,7.651,14.112,8.243,14.966,9.404z M6.387,10.53v3.697h3.552
				c0.727,0,1.318-0.139,1.772-0.416s0.681-0.768,0.681-1.473c0-0.781-0.3-1.297-0.901-1.546c-0.517-0.174-1.178-0.262-1.98-0.262
				H6.387z M6.387,17.003v4.468h3.546c0.727,0,1.292-0.096,1.697-0.295c0.734-0.365,1.103-1.061,1.103-2.093
				c0-0.871-0.357-1.474-1.067-1.796c-0.398-0.184-0.959-0.277-1.678-0.284H6.387z"/>
			<path fill="#FFFFFF" d="M26.342,12.094c0.838,0.375,1.529,0.967,2.076,1.778c0.492,0.715,0.81,1.542,0.957,2.483
				c0.083,0.549,0.118,1.345,0.104,2.385h-8.749c0.048,1.207,0.466,2.051,1.256,2.534c0.476,0.302,1.055,0.45,1.731,0.45
				c0.714,0,1.297-0.181,1.744-0.551c0.244-0.196,0.46-0.474,0.646-0.823h3.206c-0.083,0.712-0.47,1.436-1.164,2.17
				c-1.075,1.167-2.583,1.754-4.52,1.754c-1.602,0-3.01-0.494-4.233-1.479c-1.221-0.987-1.833-2.59-1.833-4.811
				c0-2.083,0.552-3.678,1.655-4.788c1.105-1.111,2.535-1.665,4.298-1.665C24.562,11.532,25.504,11.719,26.342,12.094z
				 M21.643,14.809c-0.446,0.456-0.724,1.076-0.837,1.859h5.412c-0.058-0.834-0.338-1.466-0.839-1.897
				c-0.498-0.433-1.119-0.649-1.862-0.649C22.709,14.122,22.085,14.354,21.643,14.809z"/>
			<rect x="20.112" y="8.313" fill="#FFFFFF" width="6.757" height="1.677"/>
		</g>
	</g>
</g>
</svg>
