<?xml version="1.0" encoding="utf-8"?>
<!-- Generator: Adobe Illustrator 14.0.0, SVG Export Plug-In . SVG Version: 6.00 Build 43363)  -->
<!DOCTYPE svg PUBLIC "-//W3C//DTD SVG 1.1//EN" "http://www.w3.org/Graphics/SVG/1.1/DTD/svg11.dtd">
<svg version="1.1" id="Layer_1" xmlns="http://www.w3.org/2000/svg" xmlns:xlink="http://www.w3.org/1999/xlink" x="0px" y="0px"
	 width="32px" height="32px" viewBox="0 0 32 32" enable-background="new 0 0 32 32" xml:space="preserve">
<symbol  id="_x5F_button_x5F_base" viewBox="-16.001 -16 32 32">
	<g id="button_x5F_base_3_">
		<g id="button_6_">
			<g>
				
					<use xlink:href="#_x5F_button_x5F_shape"  width="32" height="32" x="-16" y="-16" transform="matrix(1 0 0 1 -9.765625e-004 0)" overflow="visible"/>
			</g>
			<g>
				<g>
					<g>
						<g>
							<path fill="#999999" d="M15.999-12c0-2.209-1.791-4-4-4h-24c-2.209,0-4,1.791-4,4v24c0,2.209,1.791,4,4,4h24
								c2.209,0,4-1.791,4-4V-12z"/>
						</g>
					</g>
				</g>
			</g>
		</g>
	</g>
	<g id="button_3_">
		<g>
			
				<use xlink:href="#_x5F_button_x5F_shape"  width="32" height="32" x="-16" y="-16" transform="matrix(0.9375 0 0 0.9375 -9.765625e-004 0)" overflow="visible"/>
		</g>
		<g>
			<g>
				<g>
					<g>
						<g>
							<path fill="#F2F2F2" d="M14.999-11.25c0-2.071-1.679-3.75-3.75-3.75h-22.5c-2.071,0-3.75,1.679-3.75,3.75v22.5
								c0,2.071,1.679,3.75,3.75,3.75h22.5c2.071,0,3.75-1.679,3.75-3.75V-11.25z"/>
						</g>
					</g>
				</g>
			</g>
		</g>
	</g>
</symbol>
<symbol  id="_x5F_button_x5F_overlay" viewBox="-16.5 -16.5 33 33">
	<g id="_x5F_button_x5F_overlay_1_" opacity="0">
		<g id="button_x5F_overlay_3_">
			<g>
				<use xlink:href="#_x5F_button_x5F_shape"  width="32" height="32" x="-16" y="-16" overflow="visible"/>
			</g>
			<g>
				<g>
					<g>
						<g>
							<path fill="none" stroke="#808080" d="M16-12c0-2.209-1.791-4-4-4h-24c-2.209,0-4,1.791-4,4v24c0,2.209,1.791,4,4,4h24
								c2.209,0,4-1.791,4-4V-12z"/>
						</g>
					</g>
				</g>
			</g>
			<g>
				<g>
					<g>
						<g>
							<path fill="#0000FF" d="M16-12c0-2.209-1.791-4-4-4h-24c-2.209,0-4,1.791-4,4v24c0,2.209,1.791,4,4,4h24c2.209,0,4-1.791,4-4
								V-12z"/>
						</g>
					</g>
				</g>
			</g>
			<g>
				<g>
					<g>
						<g>
							<radialGradient id="SVGID_1_" cx="-9.1748" cy="11.5107" r="24.9406" gradientUnits="userSpaceOnUse">
								<stop  offset="0" style="stop-color:#E6E6E6"/>
								<stop  offset="1" style="stop-color:#000000"/>
							</radialGradient>
							<path fill="url(#SVGID_1_)" d="M16-12c0-2.209-1.791-4-4-4h-24c-2.209,0-4,1.791-4,4v24c0,2.209,1.791,4,4,4h24
								c2.209,0,4-1.791,4-4V-12z"/>
						</g>
					</g>
				</g>
			</g>
		</g>
	</g>
</symbol>
<symbol  id="_x5F_button_x5F_shape" viewBox="-16 -16 32 32">
	<g id="button_x5F_shape_2_">
		<g>
			<g opacity="0">
				<path fill="#FFFFFF" d="M16-12c0-2.209-1.791-4-4-4h-24c-2.209,0-4,1.791-4,4v24c0,2.209,1.791,4,4,4h24c2.209,0,4-1.791,4-4
					V-12z"/>
			</g>
		</g>
	</g>
</symbol>
<symbol  id="blogger" viewBox="-16.002 -16 32 32">
	
		<use xlink:href="#_x5F_button_x5F_base"  width="32" height="32" x="-16.001" y="-16" transform="matrix(1 0 0 1 -9.765625e-004 0)" overflow="visible"/>
	<path fill="#FFFFFF" d="M12.617,3.093v0.019h-2.291l-0.001,0.001c-0.848,0.014-1.51,0.159-1.51,1.77c0,1.611,0,1.318,0,1.318
		c0,4.295-3.482,7.777-7.778,7.777h-7.259C-10.518,13.978-14,10.495-14,6.2V-6.201c0-4.296,3.482-7.776,7.778-7.776H6.222
		c4.106,0,7.46,3.183,7.75,7.215H14v8.318C14,2.354,13.394,3.007,12.617,3.093z M-4.926,6.956h4.667
		c1.002,0,1.815-0.813,1.815-1.814c0-1.003-0.813-1.815-1.815-1.815h-4.667c-1.002,0-1.815,0.813-1.815,1.815
		C-6.741,6.144-5.928,6.956-4.926,6.956z M0.032-1.506C0.021-1.521,0.011-1.535,0-1.549C-0.014-1.53-0.026-1.513-0.04-1.495
		C-0.016-1.498,0.008-1.502,0.032-1.506z M4.926-7.044h-9.852c-1.002,0-1.815,0.813-1.815,1.815c0,1.002,0.813,1.814,1.815,1.814
		h9.852c1.002,0,1.815-0.813,1.815-1.814C6.741-6.231,5.928-7.044,4.926-7.044z"/>
</symbol>
<g>
	
		<use xlink:href="#_x5F_button_x5F_base"  width="32" height="32" x="-16.001" y="-16" transform="matrix(1 0 0 -1 16.002 16)" overflow="visible"/>
	<g id="XMLID_1_">
		<g>
			<g>
				<g>
					<g>
						<g>
							
								<use xlink:href="#_x5F_button_x5F_shape"  width="32" height="32" x="-16" y="-16" transform="matrix(1 0 0 -1 16 16)" overflow="visible"/>
						</g>
						<g>
							<g>
								<g>
									<g>
										<path fill="#999999" d="M32,28c0,2.209-1.791,4-4,4H4c-2.209,0-4-1.791-4-4V4c0-2.209,1.791-4,4-4h24c2.209,0,4,1.791,4,4
											V28z"/>
									</g>
								</g>
							</g>
						</g>
					</g>
				</g>
			</g>
			<g>
				<g>
					<g>
						<g>
							<g>
								<g>
									<g>
										<path fill="#FB913F" d="M32,28c0,2.209-1.791,4-4,4H4c-2.209,0-4-1.791-4-4V4c0-2.209,1.791-4,4-4h24c2.209,0,4,1.791,4,4
											V28z"/>
									</g>
								</g>
							</g>
						</g>
						<g>
							<g>
								<g>
									<g>
										<path fill="#FB913F" d="M32,28c0,2.209-1.791,4-4,4H4c-2.209,0-4-1.791-4-4V4c0-2.209,1.791-4,4-4h24c2.209,0,4,1.791,4,4
											V28z"/>
									</g>
								</g>
							</g>
						</g>
						<g>
							<g>
								<g>
									<g>
										<path fill="#FB913F" d="M32,28c0,2.209-1.791,4-4,4H4c-2.209,0-4-1.791-4-4V4c0-2.209,1.791-4,4-4h24c2.209,0,4,1.791,4,4
											V28z"/>
									</g>
								</g>
							</g>
						</g>
					</g>
				</g>
			</g>
		</g>
		<path fill="#FFFFFF" d="M28.619,12.907v-0.018h-2.291l-0.001-0.002c-0.849-0.013-1.511-0.158-1.511-1.77c0-1.611,0-1.317,0-1.317
			c0-4.296-3.482-7.778-7.777-7.778h-7.26c-4.295,0-7.777,3.482-7.777,7.778v12.401c0,4.296,3.482,7.776,7.777,7.776h12.444
			c4.105,0,7.46-3.183,7.75-7.215h0.028v-8.318C30.002,13.645,29.396,12.994,28.619,12.907z M11.076,9.044h4.666
			c1.002,0,1.814,0.812,1.814,1.814c0,1.003-0.813,1.815-1.814,1.815h-4.666c-1.003,0-1.815-0.812-1.815-1.815
			C9.261,9.856,10.073,9.044,11.076,9.044z M16.033,17.506c-0.011,0.015-0.021,0.029-0.031,0.043
			c-0.014-0.019-0.026-0.036-0.04-0.054C15.985,17.498,16.01,17.502,16.033,17.506z M20.927,23.044h-9.851
			c-1.003,0-1.815-0.813-1.815-1.815c0-1.002,0.813-1.814,1.815-1.814h9.851c1.003,0,1.815,0.813,1.815,1.814
			C22.742,22.231,21.93,23.044,20.927,23.044z"/>
	</g>
</g>
</svg>
