<?xml version="1.0" encoding="utf-8"?>
<!-- Generator: Adobe Illustrator 14.0.0, SVG Export Plug-In . SVG Version: 6.00 Build 43363)  -->
<!DOCTYPE svg PUBLIC "-//W3C//DTD SVG 1.1//EN" "http://www.w3.org/Graphics/SVG/1.1/DTD/svg11.dtd">
<svg version="1.1" id="Layer_1" xmlns="http://www.w3.org/2000/svg" xmlns:xlink="http://www.w3.org/1999/xlink" x="0px" y="0px"
	 width="32px" height="32px" viewBox="0 0 32 32" enable-background="new 0 0 32 32" xml:space="preserve">
<g>
	<path fill="#C8C8C8" d="M29.373,8.897V5.432c0-0.595-0.482-1.076-1.076-1.076h-6.463c-0.595,0-1.076,0.481-1.076,1.076v2.829H4.153
		c-1.188,0-2.152,0.964-2.152,2.154v15.076c0,1.187,0.964,2.151,2.152,2.151h23.693c1.188,0,2.154-0.965,2.154-2.151V10.415
		C30.001,9.822,29.762,9.287,29.373,8.897L29.373,8.897z M27.742,7.762h-5.355V6.19h5.355V7.762L27.742,7.762z"/>
	<path fill="#C8C8C8" d="M28.297,4.356h-6.463c-0.595,0-1.076,0.481-1.076,1.076v2.829H4.153c-1.188,0-2.152,0.964-2.152,2.154
		v15.076c0,1.187,0.964,2.151,2.152,2.151h23.693c1.188,0,2.154-0.965,2.154-2.151V10.415c0-0.593-0.239-1.128-0.628-1.518V5.432
		C29.373,4.837,28.891,4.356,28.297,4.356L28.297,4.356z"/>
	<polygon fill="#FFFFFF" points="22.387,7.762 22.387,6.19 27.742,6.19 27.742,7.762 22.387,7.762 	"/>
</g>
<path fill="#B4B4B4" d="M28.373,8.762v0.135v0.414l0.292,0.292c0.217,0.217,0.336,0.506,0.336,0.812v15.076
	c0,0.635-0.518,1.151-1.154,1.151H4.153c-0.635,0-1.152-0.517-1.152-1.151V10.415c0-0.637,0.517-1.154,1.152-1.154h16.604h1V8.762
	h0.629h5.355H28.373"/>
<path fill="#FFFFFF" d="M17.167,24.929c-3.896,0-7.067-3.17-7.067-7.066c0-3.902,3.171-7.069,7.067-7.069
	c3.896,0,7.067,3.167,7.067,7.064c0,3.896-3.167,7.065-7.062,7.065L17.167,24.929L17.167,24.929z"/>
</svg>
