<?xml version="1.0" encoding="utf-8"?>
<!-- Generator: Adobe Illustrator 14.0.0, SVG Export Plug-In . SVG Version: 6.00 Build 43363)  -->
<!DOCTYPE svg PUBLIC "-//W3C//DTD SVG 1.1//EN" "http://www.w3.org/Graphics/SVG/1.1/DTD/svg11.dtd">
<svg version="1.1" id="Layer_1" xmlns="http://www.w3.org/2000/svg" xmlns:xlink="http://www.w3.org/1999/xlink" x="0px" y="0px"
	 width="32px" height="32px" viewBox="0 0 32 32" enable-background="new 0 0 32 32" xml:space="preserve">
<g>
	<path fill="#FFFFFF" d="M23.803,29.055c-1.296,0-2.35-1.054-2.35-2.35c0-1.297,1.054-2.352,2.35-2.352
		c1.294,0,2.348,1.055,2.35,2.352C26.152,28.001,25.099,29.055,23.803,29.055L23.803,29.055z M11.133,29.055
		c-1.295,0-2.35-1.054-2.35-2.35c0-1.297,1.054-2.352,2.35-2.352c1.297,0,2.348,1.055,2.348,2.352
		C13.481,28.001,12.428,29.055,11.133,29.055L11.133,29.055z M9.54,23.468c-0.06,0-1.49-0.027-1.93-1.507
		c-0.134-0.452-0.608-2.946-1.158-5.835C5.67,12.009,4.696,6.885,4.272,5.417c-0.031-0.107-0.129-0.181-0.24-0.181H0.25V2.944h5.412
		l0.33,0.58c0.163,0.286,0.477,1.132,1.044,3.54c0.027,0.114,0.128,0.193,0.243,0.193c0.009,0,22.394-0.006,22.394-0.006
		c1.146,0,2.077,0.932,2.077,2.078v0.244l-3.73,8.387c-0.649,1.28-1.082,1.82-2.069,1.82H9.855c-0.074,0-0.144,0.033-0.191,0.09
		C9.616,19.926,9.596,20,9.609,20.073c0.024,0.135,0.003,0.531-0.014,0.85c-0.023,0.441-0.035,0.721-0.008,0.872
		C9.609,21.914,9.713,22,9.833,22h16.542l-0.559,1.468H9.54z"/>
	<path fill="#C8C8C8" d="M5.517,3.194l0.258,0.454C5.901,3.87,6.202,4.617,6.792,7.121c0.054,0.228,0.254,0.383,0.483,0.383
		c0.019,0,0.038-0.001,0.058-0.003h22.34c1.008,0,1.827,0.82,1.827,1.828v0.191l-3.698,8.315c-0.634,1.251-1.009,1.695-1.852,1.695
		H9.855c-0.147,0-0.287,0.066-0.382,0.179c-0.095,0.113-0.135,0.264-0.11,0.408c0.019,0.109-0.004,0.538-0.017,0.794
		c-0.024,0.458-0.037,0.748-0.004,0.93c0.043,0.237,0.25,0.41,0.492,0.41h16.18l-0.368,0.968H9.543
		C9.49,23.217,8.235,23.185,7.85,21.89c-0.131-0.439-0.626-3.049-1.152-5.811C5.914,11.957,4.939,6.827,4.513,5.348
		c-0.062-0.214-0.258-0.361-0.48-0.361H0.5V3.194H5.517 M23.803,24.604c1.156,0,2.098,0.943,2.1,2.102c0,1.158-0.941,2.1-2.1,2.1
		s-2.1-0.941-2.1-2.1C21.703,25.546,22.645,24.604,23.803,24.604 M11.138,24.604c1.154,0,2.093,0.942,2.093,2.102
		c0,1.158-0.941,2.1-2.098,2.1c-1.158,0-2.1-0.941-2.1-2.1c0-1.159,0.942-2.102,2.1-2.102H11.138 M5.807,2.694H0v2.793h4.032
		c0.715,2.478,3.004,15.42,3.338,16.545c0.502,1.686,2.17,1.686,2.17,1.686h16.45l0.748-1.968H9.833
		c-0.05-0.275,0.078-1.404,0.021-1.721H25.95c1.159,0,1.66-0.711,2.298-1.969L32,9.625V9.328C32,8.043,30.955,7,29.673,7H7.333
		c-0.02,0-0.037,0.004-0.054,0.006c-0.42-1.783-0.8-3.133-1.07-3.606L5.807,2.694L5.807,2.694z M23.803,24.104
		c-1.435,0-2.6,1.164-2.6,2.602s1.165,2.6,2.6,2.6c1.438,0,2.6-1.162,2.6-2.6C26.4,25.271,25.238,24.104,23.803,24.104
		L23.803,24.104z M11.138,24.104h-0.005c-1.436,0-2.6,1.164-2.6,2.602s1.164,2.6,2.6,2.6s2.598-1.162,2.598-2.6
		C13.731,25.271,12.571,24.104,11.138,24.104L11.138,24.104z"/>
</g>
<g>
	<polygon fill="#C8C8C8" points="9.59,17.24 7.932,9.79 28.87,9.79 25.561,17.24 	"/>
</g>
</svg>
