<?xml version="1.0" encoding="utf-8"?>
<!-- Generator: Adobe Illustrator 14.0.0, SVG Export Plug-In . SVG Version: 6.00 Build 43363)  -->
<!DOCTYPE svg PUBLIC "-//W3C//DTD SVG 1.1//EN" "http://www.w3.org/Graphics/SVG/1.1/DTD/svg11.dtd">
<svg version="1.1" id="Layer_1" xmlns="http://www.w3.org/2000/svg" xmlns:xlink="http://www.w3.org/1999/xlink" x="0px" y="0px"
	 width="32px" height="32px" viewBox="0 0 32 32" enable-background="new 0 0 32 32" xml:space="preserve">
<path fill="#FFFFFF" d="M29.673,7H7.333c-0.02,0-0.037,0.004-0.054,0.006c-0.42-1.783-0.8-3.133-1.07-3.606L5.807,2.694H0v2.793
	h4.032c0.715,2.478,3.004,15.42,3.338,16.545c0.502,1.686,2.17,1.686,2.17,1.686h16.45l0.93-2.794H10.015
	c-0.05-0.275-0.104-0.578-0.16-0.894H25.95c1.159,0,2.126-0.855,2.298-1.97L32,9.625V9.328C32,8.043,30.955,7,29.673,7z
	 M25.561,17.24H9.59L7.932,9.79H28.87l-3.31,7.447V17.24z M23.803,24.104c-1.435,0-2.6,1.164-2.6,2.601s1.165,2.6,2.6,2.6
	c1.437,0,2.6-1.163,2.6-2.6C26.4,25.271,25.238,24.104,23.803,24.104z M11.133,24.104c-1.436,0-2.6,1.164-2.6,2.601
	s1.164,2.6,2.6,2.6s2.598-1.163,2.598-2.6c0-1.433-1.16-2.601-2.593-2.601H11.133z"/>
</svg>
