<?xml version="1.0" encoding="utf-8"?>
<!-- Generator: Adobe Illustrator 14.0.0, SVG Export Plug-In . SVG Version: 6.00 Build 43363)  -->
<!DOCTYPE svg PUBLIC "-//W3C//DTD SVG 1.1//EN" "http://www.w3.org/Graphics/SVG/1.1/DTD/svg11.dtd">
<svg version="1.1" id="Layer_1" xmlns="http://www.w3.org/2000/svg" xmlns:xlink="http://www.w3.org/1999/xlink" x="0px" y="0px"
	 width="32px" height="32px" viewBox="0 0 32 32" enable-background="new 0 0 32 32" xml:space="preserve">
<g id="XMLID_1_">
	<path fill="#C8C8C8" d="M24.406,5.852V1.427c0-0.617-0.502-1.12-1.122-1.12c-0.617,0-1.12,0.503-1.12,1.12v3.364H9.721
		c-1.487,0-2.689,1.202-2.689,2.688v21.521c0,1.485,1.203,2.689,2.689,2.689h12.556c1.486,0,2.69-1.204,2.69-2.689V7.479
		C24.968,6.864,24.754,6.305,24.406,5.852z"/>
	<path fill="#FFFFFF" d="M23.396,17.492H8.601V7.03h14.796V17.492z"/>
	<path fill="#808080" d="M23.7,17.794H8.296V6.73H23.7V17.794L23.7,17.794z M8.9,17.19h14.195V7.332H8.9V17.19z"/>
	<path fill="#C8C8C8" d="M18.481,12.598c0.682,1.917-5.747,4.169-5.747,4.169s3.799-2.769,2.944-4.805
		c-0.85-2.034,1.689-4.533,1.689-4.533h5.083C22.452,7.429,17.798,10.681,18.481,12.598L18.481,12.598z"/>
	<path fill="none" d="M18.481,12.598c0.682,1.917-5.747,4.169-5.747,4.169s3.799-2.769,2.944-4.805
		c-0.85-2.034,1.689-4.533,1.689-4.533h5.083C22.452,7.429,17.798,10.681,18.481,12.598L18.481,12.598z"/>
	<path fill="none" d="M11.703,20.856c0,0.412-0.335,0.748-0.748,0.748H9.461c-0.414,0-0.75-0.336-0.75-0.747v-0.742
		c0-0.413,0.336-0.748,0.75-0.748h1.494c0.413,0,0.748,0.334,0.748,0.747v0.748V20.856z"/>
	<path fill="none" d="M11.703,28.704c0,0.413-0.335,0.748-0.748,0.748H9.461c-0.414,0-0.75-0.335-0.75-0.748v-0.748
		c0-0.412,0.336-0.747,0.75-0.747h1.494c0.413,0,0.748,0.335,0.748,0.747V28.704z"/>
	<path fill="none" d="M11.703,24.78c0,0.413-0.335,0.748-0.748,0.748H9.461c-0.414,0-0.75-0.335-0.75-0.748v-0.747
		c0-0.413,0.336-0.748,0.75-0.748h1.494c0.413,0,0.748,0.335,0.748,0.748V24.78z"/>
	<path fill="none" d="M17.308,20.856c0,0.412-0.334,0.748-0.748,0.748h-1.495c-0.413,0-0.748-0.336-0.748-0.747v-0.742
		c0-0.413,0.335-0.748,0.748-0.748h1.495c0.412,0,0.748,0.334,0.748,0.747v0.748V20.856z"/>
	<path fill="none" d="M17.308,28.704c0,0.413-0.334,0.748-0.748,0.748h-1.495c-0.413,0-0.748-0.335-0.748-0.748v-0.748
		c0-0.412,0.335-0.747,0.748-0.747h1.495c0.412,0,0.748,0.335,0.748,0.747V28.704z"/>
	<path fill="none" d="M17.308,24.78c0,0.413-0.334,0.748-0.748,0.748h-1.495c-0.413,0-0.748-0.335-0.748-0.748v-0.747
		c0-0.413,0.335-0.748,0.748-0.748h1.495c0.412,0,0.748,0.335,0.748,0.748V24.78z"/>
	<path fill="none" d="M22.913,20.856c0,0.412-0.336,0.748-0.748,0.748h-1.498c-0.412,0-0.747-0.336-0.747-0.747v-0.742
		c0-0.413,0.335-0.748,0.747-0.748h1.496c0.412,0,0.748,0.334,0.748,0.747v0.748L22.913,20.856z"/>
	<path fill="none" d="M22.913,28.704c0,0.413-0.336,0.748-0.748,0.748h-1.498c-0.412,0-0.747-0.335-0.747-0.748v-0.748
		c0-0.412,0.335-0.747,0.747-0.747h1.496c0.412,0,0.748,0.335,0.748,0.747L22.913,28.704L22.913,28.704z"/>
	<g>
		<path fill="#808080" d="M11.703,20.856c0,0.412-0.335,0.748-0.748,0.748H9.461c-0.414,0-0.75-0.336-0.75-0.747v-0.742
			c0-0.413,0.336-0.748,0.75-0.748h1.494c0.413,0,0.748,0.334,0.748,0.747v0.748V20.856z"/>
		<path fill="#808080" d="M11.703,28.704c0,0.413-0.335,0.748-0.748,0.748H9.461c-0.414,0-0.75-0.335-0.75-0.748v-0.748
			c0-0.412,0.336-0.747,0.75-0.747h1.494c0.413,0,0.748,0.335,0.748,0.747V28.704z"/>
		<path fill="#808080" d="M11.703,24.78c0,0.413-0.335,0.748-0.748,0.748H9.461c-0.414,0-0.75-0.335-0.75-0.748v-0.747
			c0-0.413,0.336-0.748,0.75-0.748h1.494c0.413,0,0.748,0.335,0.748,0.748V24.78z"/>
		<path fill="#808080" d="M17.308,20.856c0,0.412-0.334,0.748-0.748,0.748h-1.495c-0.413,0-0.748-0.336-0.748-0.747v-0.742
			c0-0.413,0.335-0.748,0.748-0.748h1.495c0.412,0,0.748,0.334,0.748,0.747v0.748V20.856z"/>
		<path fill="#808080" d="M17.308,28.704c0,0.413-0.334,0.748-0.748,0.748h-1.495c-0.413,0-0.748-0.335-0.748-0.748v-0.748
			c0-0.412,0.335-0.747,0.748-0.747h1.495c0.412,0,0.748,0.335,0.748,0.747V28.704z"/>
		<path fill="#808080" d="M17.308,24.78c0,0.413-0.334,0.748-0.748,0.748h-1.495c-0.413,0-0.748-0.335-0.748-0.748v-0.747
			c0-0.413,0.335-0.748,0.748-0.748h1.495c0.412,0,0.748,0.335,0.748,0.748V24.78z"/>
		<path fill="#808080" d="M22.913,20.856c0,0.412-0.336,0.748-0.748,0.748h-1.498c-0.412,0-0.747-0.336-0.747-0.747v-0.742
			c0-0.413,0.335-0.748,0.747-0.748h1.496c0.412,0,0.748,0.334,0.748,0.747v0.748L22.913,20.856z"/>
		<path fill="#808080" d="M22.913,28.704c0,0.413-0.336,0.748-0.748,0.748h-1.498c-0.412,0-0.747-0.335-0.747-0.748v-0.748
			c0-0.412,0.335-0.747,0.747-0.747h1.496c0.412,0,0.748,0.335,0.748,0.747L22.913,28.704L22.913,28.704z"/>
		<path fill="#808080" d="M22.913,24.78c0,0.413-0.336,0.748-0.748,0.748h-1.498c-0.412,0-0.747-0.335-0.747-0.748v-0.747
			c0-0.413,0.335-0.748,0.747-0.748h1.496c0.412,0,0.748,0.335,0.748,0.748L22.913,24.78L22.913,24.78z"/>
	</g>
	<path fill="none" d="M22.913,24.78c0,0.413-0.336,0.748-0.748,0.748h-1.498c-0.412,0-0.747-0.335-0.747-0.748v-0.747
		c0-0.413,0.335-0.748,0.747-0.748h1.496c0.412,0,0.748,0.335,0.748,0.748L22.913,24.78L22.913,24.78z"/>
</g>
</svg>
