<svg xmlns="http://www.w3.org/2000/svg" xmlns:xlink="http://www.w3.org/1999/xlink" width="32" height="32" viewBox="0 0 32 32"><symbol id="a" viewBox="-9.272 -16 18.544 32"><path d="M8.409 9.719c0-.619-.502-1.122-1.123-1.122-.617 0-1.119.503-1.119 1.122v4.859c0 .617.502 1.12 1.119 1.12.621 0 1.123-.503 1.123-1.12v-4.859z"/><path fill="#999" d="M7.286 8.295c-.783 0-1.422.639-1.422 1.424v4.859c0 .783.638 1.422 1.422 1.422.787 0 1.426-.639 1.426-1.422v-4.859c-.001-.785-.639-1.424-1.426-1.424zm0 7.101c-.451 0-.818-.367-.818-.818v-4.859c0-.452.367-.819.818-.819.453 0 .822.367.822.819v4.859c0 .451-.369.818-.822.818z"/><path d="M8.971-13.007c0-1.486-1.205-2.691-2.691-2.691h-12.559c-1.488 0-2.691 1.205-2.691 2.691v21.528c0 1.487 1.203 2.69 2.691 2.69h12.559c1.486 0 2.691-1.203 2.691-2.69v-21.528z"/><path fill="#999" d="M6.28-16h-12.559c-1.65 0-2.993 1.343-2.993 2.993v21.528c0 1.649 1.343 2.991 2.993 2.991h13.766c1.65 0 1.785-1.342 1.785-2.991v-21.528c0-1.65-1.344-2.993-2.992-2.993zm-12.559 26.91c-1.317 0-2.389-1.072-2.389-2.389v-21.528c0-1.317 1.072-2.391 2.389-2.391h12.559c1.316 0 2.389 1.072 2.389 2.391v21.528c0 1.315-1.072 2.389-2.389 2.389h-12.559z"/><path fill="#fff" d="M7.399-1.495h-14.8v10.464h14.8z"/><path fill="#999" d="M7.702-1.797h-15.406v11.068h15.406v-11.068zm-14.802.604h14.198v9.861h-14.198v-9.861z"/><path fill="#ccc" d="M2.483 3.4c.682-1.917-5.748-4.169-5.748-4.169s3.8 2.769 2.946 4.804c-.851 2.035 1.689 4.533 1.689 4.533h5.084s-4.655-3.25-3.971-5.168z"/><path fill="none" d="M2.483 3.4c.682-1.917-5.748-4.169-5.748-4.169s3.8 2.769 2.946 4.804c-.851 2.035 1.689 4.533 1.689 4.533h5.084s-4.655-3.25-3.971-5.168z"/><path fill="#808080" d="M-4.298-4.861c0-.412-.335-.747-.748-.747h-1.495c-.413 0-.748.335-.748.747v.748c0 .413.335.748.748.748h1.495c.413 0 .748-.335.748-.748v-.748z"/><path fill="none" d="M-4.298-4.861c0-.412-.335-.747-.748-.747h-1.495c-.413 0-.748.335-.748.747v.748c0 .413.335.748.748.748h1.495c.413 0 .748-.335.748-.748v-.748z"/><path fill="#808080" d="M-4.298-12.71c0-.413-.335-.748-.748-.748h-1.495c-.413 0-.748.335-.748.748v.748c0 .412.335.747.748.747h1.495c.413 0 .748-.335.748-.747v-.748z"/><path fill="none" d="M-4.298-12.71c0-.413-.335-.748-.748-.748h-1.495c-.413 0-.748.335-.748.748v.748c0 .412.335.747.748.747h1.495c.413 0 .748-.335.748-.747v-.748z"/><path fill="#808080" d="M-4.298-8.785c0-.413-.335-.748-.748-.748h-1.495c-.413 0-.748.335-.748.748v.747c0 .413.335.748.748.748h1.495c.413 0 .748-.335.748-.748v-.747z"/><path fill="none" d="M-4.298-8.785c0-.413-.335-.748-.748-.748h-1.495c-.413 0-.748.335-.748.748v.747c0 .413.335.748.748.748h1.495c.413 0 .748-.335.748-.748v-.747z"/><path fill="#808080" d="M1.308-4.861c0-.412-.334-.747-.748-.747h-1.495c-.413 0-.748.335-.748.747v.748c0 .413.335.748.748.748h1.495c.413 0 .748-.335.748-.748v-.748z"/><path fill="none" d="M1.308-4.861c0-.412-.334-.747-.748-.747h-1.495c-.413 0-.748.335-.748.747v.748c0 .413.335.748.748.748h1.495c.413 0 .748-.335.748-.748v-.748z"/><path fill="#808080" d="M1.308-12.71c0-.413-.334-.748-.748-.748h-1.495c-.413 0-.748.335-.748.748v.748c0 .412.335.747.748.747h1.495c.413 0 .748-.335.748-.747v-.748z"/><path fill="none" d="M1.308-12.71c0-.413-.334-.748-.748-.748h-1.495c-.413 0-.748.335-.748.748v.748c0 .412.335.747.748.747h1.495c.413 0 .748-.335.748-.747v-.748z"/><path fill="#808080" d="M1.308-8.785c0-.413-.334-.748-.748-.748h-1.495c-.413 0-.748.335-.748.748v.747c0 .413.335.748.748.748h1.495c.413 0 .748-.335.748-.748v-.747z"/><path fill="none" d="M1.308-8.785c0-.413-.334-.748-.748-.748h-1.495c-.413 0-.748.335-.748.748v.747c0 .413.335.748.748.748h1.495c.413 0 .748-.335.748-.748v-.747z"/><path fill="#808080" d="M6.915-4.861c0-.412-.336-.747-.748-.747h-1.497c-.412 0-.748.335-.748.747v.748c0 .413.336.748.748.748h1.496c.412 0 .748-.335.748-.748l.001-.748z"/><path fill="none" d="M6.915-4.861c0-.412-.336-.747-.748-.747h-1.497c-.412 0-.748.335-.748.747v.748c0 .413.336.748.748.748h1.496c.412 0 .748-.335.748-.748l.001-.748z"/><path fill="#808080" d="M6.915-12.71c0-.413-.336-.748-.748-.748h-1.497c-.412 0-.748.335-.748.748v.748c0 .412.336.747.748.747h1.496c.412 0 .748-.335.748-.747l.001-.748z"/><path fill="none" d="M6.915-12.71c0-.413-.336-.748-.748-.748h-1.497c-.412 0-.748.335-.748.748v.748c0 .412.336.747.748.747h1.496c.412 0 .748-.335.748-.747l.001-.748z"/><path fill="#808080" d="M6.915-8.785c0-.413-.336-.748-.748-.748h-1.497c-.412 0-.748.335-.748.748v.747c0 .413.336.748.748.748h1.496c.412 0 .748-.335.748-.748l.001-.747z"/><path fill="none" d="M6.915-8.785c0-.413-.336-.748-.748-.748h-1.497c-.412 0-.748.335-.748.748v.747c0 .413.336.748.748.748h1.496c.412 0 .748-.335.748-.748l.001-.747z"/></symbol><use xlink:href="#a" width="18.544" height="32" x="-9.272" y="-16" transform="matrix(1 0 0 -1 16 16)" overflow="visible"/></svg>