<?xml version="1.0" encoding="utf-8"?>
<!-- Generator: Adobe Illustrator 14.0.0, SVG Export Plug-In . SVG Version: 6.00 Build 43363)  -->
<!DOCTYPE svg PUBLIC "-//W3C//DTD SVG 1.1//EN" "http://www.w3.org/Graphics/SVG/1.1/DTD/svg11.dtd">
<svg version="1.1" id="Layer_1" xmlns="http://www.w3.org/2000/svg" xmlns:xlink="http://www.w3.org/1999/xlink" x="0px" y="0px"
	 width="32px" height="32px" viewBox="0 0 32 32" enable-background="new 0 0 32 32" xml:space="preserve">
<g>
	<path fill="#777777" d="M3.426,28.887c2.178-0.917,3.546-2.367,3.546-2.367c-3.84-2.387-6.343-6.261-6.343-10.629
		c0-7.255,6.885-13.135,15.376-13.135s15.373,5.879,15.373,13.135c0,7.256-6.888,13.134-15.379,13.134
		c-1.823,0-3.573-0.272-5.193-0.771C10.807,28.254,6.537,29.974,3.426,28.887L3.426,28.887z M5.794,29.867
		c-0.958,0-1.823-0.13-2.574-0.395l-1.53-0.533l1.49-0.631c1.24-0.52,2.21-1.236,2.78-1.71C2.211,24,0.001,20.043,0.001,15.891
		C0.001,8.303,7.177,2.132,16,2.132c8.821,0,15.999,6.169,15.999,13.756c0,7.586-7.178,13.763-15.999,13.763
		c-1.772,0-3.509-0.25-5.169-0.737C10.164,29.156,8.028,29.868,5.794,29.867L5.794,29.867z M5.306,28.612
		c0.16,0.01,0.322,0.012,0.488,0.012c2.399,0,4.756-0.938,4.78-0.948l0.205-0.08l0.21,0.063c1.604,0.49,3.29,0.74,5.012,0.74
		c8.136,0.001,14.755-5.619,14.755-12.519c0-6.899-6.619-12.512-14.755-12.512S1.246,8.989,1.246,15.891
		c0,3.973,2.263,7.747,6.053,10.104l0.64,0.399l-0.52,0.556c-0.044,0.043-0.817,0.854-2.12,1.662L5.306,28.612z"/>
	<path fill="#FFFFFF" d="M16.444,2.756c-8.245,0-14.932,5.709-14.932,12.755c0,4.243,2.437,8.002,6.169,10.319
		c-0.285,1.545-1.7,2.735-3.439,2.838c0.68,0.14,1.4,0.22,2.15,0.22c1.953,0,3.725-0.524,5.016-1.372
		c1.576,0.483,3.274,0.75,5.043,0.75c8.242,0,14.929-5.713,14.929-12.755c0-7.046-6.687-12.755-14.933-12.755H16.444z"/>
</g>
</svg>
