<?xml version="1.0" encoding="utf-8"?>
<!-- Generator: Adobe Illustrator 14.0.0, SVG Export Plug-In . SVG Version: 6.00 Build 43363)  -->
<!DOCTYPE svg PUBLIC "-//W3C//DTD SVG 1.1//EN" "http://www.w3.org/Graphics/SVG/1.1/DTD/svg11.dtd">
<svg version="1.1" id="Layer_1" xmlns="http://www.w3.org/2000/svg" xmlns:xlink="http://www.w3.org/1999/xlink" x="0px" y="0px"
	 width="32px" height="32px" viewBox="0 0 32 32" enable-background="new 0 0 32 32" xml:space="preserve">
<path fill="#E12E2F" d="M15.96,0.003c0,0,9.433-0.423,14.433,9.04H15.156c0,0-2.878-0.094-5.33,3.39
	c-0.706,1.46-1.46,2.966-0.612,5.933c-1.227-2.072-6.51-11.254-6.51-11.254s3.724-6.732,13.254-7.11"/>
<path fill="#FCD209" d="M29.9,24.03c0,0-4.353,8.364-15.061,7.954c1.32-2.282,7.616-13.17,7.616-13.17s1.521-2.438-0.272-6.303
	c-0.912-1.34-1.841-2.747-4.838-3.497c2.409-0.022,13.016,0.003,13.016,0.003S34.341,15.606,29.9,24.03"/>
<path fill="#43A445" d="M2.083,24.095c0,0-5.083-7.945,0.63-16.997c1.318,2.284,7.615,13.169,7.615,13.169s1.356,2.536,5.606,2.916
	c1.618-0.117,3.302-0.221,5.453-2.435c-1.185,2.09-6.51,11.25-6.51,11.25s-7.704,0.14-12.794-7.91"/>
<path fill="#FFFFFF" d="M8.78,16.13c0-3.934,3.196-7.124,7.14-7.124c3.939,0,7.137,3.19,7.137,7.125c0,3.94-3.195,7.13-7.138,7.13
	c-3.943,0-7.14-3.189-7.14-7.124"/>
<g>
	<defs>
		<path id="SVGID_1_" d="M9.976,16.13c0,3.277,2.66,5.935,5.943,5.935c3.28,0,5.94-2.655,5.94-5.934c0-3.27-2.66-5.93-5.94-5.93
			c-3.29,0-5.95,2.66-5.95,5.93"/>
	</defs>
	<clipPath id="SVGID_2_">
		<use xlink:href="#SVGID_1_"  overflow="visible"/>
	</clipPath>
	<path clip-path="url(#SVGID_2_)" fill="#0C5A94" d="M21.859,10.2v11.862H9.977V10.2H21.859z"/>
</g>
</svg>
