<svg xmlns="http://www.w3.org/2000/svg" xmlns:xlink="http://www.w3.org/1999/xlink" width="32" height="32" viewBox="0 0 32 32"><path fill="#E12E2F" d="M15.959.003s9.434-.423 14.434 9.04h-15.237s-2.878-.094-5.33 3.391c-.706 1.458-1.461 2.965-.612 5.932-1.227-2.072-6.511-11.254-6.511-11.254s3.726-6.732 13.256-7.109"/><path fill="#FCD209" d="M29.9 24.03s-4.352 8.364-15.061 7.954c1.32-2.282 7.617-13.169 7.617-13.169s1.521-2.439-.273-6.303c-.912-1.341-1.841-2.747-4.838-3.497 2.41-.022 13.016.003 13.016.003s3.978 6.588-.461 15.012"/><path fill="#43A445" d="M2.083 24.095s-5.082-7.945.63-16.997c1.318 2.284 7.615 13.171 7.615 13.171s1.356 2.535 5.606 2.914c1.618-.117 3.302-.219 5.453-2.434-1.185 2.095-6.511 11.251-6.511 11.251s-7.703.143-12.793-7.905"/><path fill="#fff" d="M8.78 16.131c0-3.935 3.196-7.125 7.139-7.125 3.94 0 7.138 3.19 7.138 7.125 0 3.938-3.195 7.125-7.138 7.125-3.942 0-7.139-3.189-7.139-7.125"/><defs><path id="a" d="M9.976 16.131c0 3.276 2.66 5.934 5.943 5.934 3.282 0 5.942-2.656 5.942-5.934 0-3.274-2.66-5.932-5.942-5.932-3.283 0-5.943 2.656-5.943 5.932"/></defs><clipPath id="b"><use xlink:href="#a" overflow="visible"/></clipPath><path clip-path="url(#b)" fill="#0C5A94" d="M21.861 10.199v11.864h-11.885v-11.864z"/></svg>