<?xml version="1.0" encoding="utf-8"?>
<!-- Generator: Adobe Illustrator 14.0.0, SVG Export Plug-In . SVG Version: 6.00 Build 43363)  -->
<!DOCTYPE svg PUBLIC "-//W3C//DTD SVG 1.1//EN" "http://www.w3.org/Graphics/SVG/1.1/DTD/svg11.dtd">
<svg version="1.1" id="Layer_1" xmlns="http://www.w3.org/2000/svg" xmlns:xlink="http://www.w3.org/1999/xlink" x="0px" y="0px"
	 width="32px" height="32px" viewBox="0 0 32 32" enable-background="new 0 0 32 32" xml:space="preserve">
<g>
	<path fill="#FFFFFF" d="M5.469,24.732c-2.46,0-4.463-2.003-4.463-4.463c0-2.454,2-4.458,4.454-4.462l0.71-0.002l0.232-0.671
		c0.79-2.274,2.936-3.806,5.345-3.806c0.29,0,0.582,0.02,0.867,0.064l0.729,0.11l0.322-0.667c1.071-2.201,3.259-3.571,5.707-3.571
		c3.129,0,5.828,2.332,6.277,5.424l0.104,0.7l0.692,0.141c2.638,0.522,4.547,2.854,4.547,5.545c0,3.118-2.537,5.655-5.655,5.655
		H5.469V24.732z"/>
	<path fill="#4798ED" d="M19.374,8.271c2.637,0,4.91,1.965,5.288,4.568l0.204,1.397l1.386,0.273c2.169,0.43,3.742,2.353,3.742,4.569
		c0,2.563-2.089,4.655-4.656,4.655H5.469c-1.909,0-3.463-1.555-3.463-3.464c0-1.904,1.549-3.458,3.456-3.463l1.419-0.003
		l0.466-1.343c0.649-1.879,2.417-3.138,4.4-3.138c0.237,0,0.479,0.02,0.719,0.055l1.455,0.22l0.649-1.321
		c0.904-1.859,2.746-3.013,4.808-3.013 M19.379,6.264c-2.909,0.004-5.418,1.691-6.607,4.141c-0.334-0.053-0.675-0.078-1.02-0.078
		c-2.915,0-5.388,1.872-6.292,4.478c-3.015,0.008-5.454,2.451-5.454,5.465c0,3.02,2.446,5.465,5.462,5.465h19.869
		c3.677-0.002,6.655-2.981,6.655-6.657c0-3.229-2.301-5.921-5.352-6.528c-0.518-3.55-3.574-6.277-7.268-6.277L19.379,6.264z"/>
</g>
</svg>
