<svg xmlns="http://www.w3.org/2000/svg" xmlns:xlink="http://www.w3.org/1999/xlink" width="32" height="32" viewBox="0 0 32 32"><symbol id="a" viewBox="-16 -9.735 32 19.47"><path fill="#fff" d="M-10.535-8.734c-2.462 0-4.465 2.003-4.465 4.464 0 2.456 1.999 4.46 4.456 4.464l.71.002.232.672c.789 2.276 2.937 3.808 5.347 3.808.29 0 .582-.021.868-.065l.729-.112.323.663c1.072 2.205 3.26 3.574 5.71 3.574 3.13 0 5.83-2.332 6.28-5.426l.103-.7.693-.139c2.636-.522 4.549-2.856 4.549-5.547 0-3.12-2.538-5.658-5.658-5.658h-19.877z"/><path fill="#4798ED" d="M3.376 7.734c2.637 0 4.912-1.965 5.291-4.569l.203-1.398 1.387-.274c2.169-.431 3.743-2.352 3.743-4.569 0-2.567-2.09-4.658-4.658-4.658h-19.877c-1.911 0-3.465 1.554-3.465 3.464 0 1.906 1.551 3.461 3.458 3.465l1.421.003.465 1.343c.649 1.875 2.418 3.135 4.402 3.135.237 0 .479-.019.719-.056l1.456-.222.644 1.323c.904 1.859 2.747 3.013 4.811 3.013m0 2c-2.906 0-5.418-1.688-6.609-4.138-.333.052-.674.078-1.021.078-2.914 0-5.39-1.873-6.292-4.479-3.014-.006-5.454-2.45-5.454-5.465 0-3.019 2.447-5.466 5.465-5.466h19.877c3.678.002 6.658 2.982 6.658 6.66 0 3.23-2.302 5.924-5.354 6.529-.517 3.553-3.575 6.281-7.27 6.281z"/></symbol><use xlink:href="#a" width="32" height="19.47" x="-16" y="-9.735" transform="matrix(1 0 0 -1 16 15.999)" overflow="visible"/></svg>