<?xml version="1.0" encoding="utf-8"?>
<!-- Generator: Adobe Illustrator 14.0.0, SVG Export Plug-In . SVG Version: 6.00 Build 43363)  -->
<!DOCTYPE svg PUBLIC "-//W3C//DTD SVG 1.1//EN" "http://www.w3.org/Graphics/SVG/1.1/DTD/svg11.dtd">
<svg version="1.1" id="Layer_1" xmlns="http://www.w3.org/2000/svg" xmlns:xlink="http://www.w3.org/1999/xlink" x="0px" y="0px"
	 width="192px" height="96px" viewBox="-204 298 192 96" enable-background="new -204 298 192 96" xml:space="preserve">
<symbol  id="background" viewBox="-16 -16 32 32">
	<g>
		<path fill="#ADADAD" d="M0-15c-8.271,0-15,6.729-15,15s6.729,15,15,15S15,8.271,15,0S8.271-15,0-15L0-15z"/>
		<path fill="#FFFFFF" d="M0,14c7.72,0,14-6.28,14-14S7.72-14,0-14S-14-7.72-14,0S-7.72,14,0,14 M0,16c-8.836,0-16-7.164-16-16
			s7.164-16,16-16c8.837,0,16,7.164,16,16S8.837,16,0,16L0,16z"/>
	</g>
</symbol>
<g>
	<path fill="#FFFFFF" d="M-188,298c-8.836,0-16,7.164-16,16s7.164,16,16,16c8.837,0,16-7.164,16-16S-179.163,298-188,298L-188,298z"
		/>
	<path fill="#ADADAD" d="M-188,329c-8.271,0-15-6.729-15-15s6.729-15,15-15s15,6.729,15,15S-179.729,329-188,329L-188,329z"/>
</g>
<polygon fill="#FFFFFF" points="-180,308 -184.196,308 -188,311.867 -191.803,308 -196,308 -190.099,314 -196,320 -191.803,320 
	-188,316.135 -184.196,320 -180,320 -185.9,314 "/>
<g>
	<g>
		<path fill="#FFFFFF" d="M-111,298.001h-26c-1.657,0-3,1.343-3,3v26c0,1.656,1.343,3,3,3h26c1.657,0,3-1.344,3-3v-26
			C-108,299.344-109.343,298.001-111,298.001L-111,298.001z"/>
		<path fill="#ADADAD" d="M-137,329.002c-1.103,0-2-0.897-2-2v-26c0-1.103,0.897-2,2-2h26c1.103,0,2,0.897,2,2v26
			c0,1.103-0.897,2-2,2H-137z"/>
	</g>
</g>
<polygon fill="#FFFFFF" points="-116,308 -120.196,308 -124,311.866 -127.803,308 -132,308 -126.099,313.999 -132,320.001 
	-127.803,320.001 -124,316.134 -120.196,320.001 -116,320.001 -121.9,313.999 "/>
<g>
	<path fill="#FFFFFF" d="M-188,330c-8.836,0-16,7.164-16,16s7.164,16,16,16c8.837,0,16-7.164,16-16S-179.163,330-188,330L-188,330z"
		/>
	<path fill="#FF3F1F" d="M-188,361c-8.271,0-15-6.729-15-15s6.729-15,15-15s15,6.729,15,15S-179.729,361-188,361L-188,361z"/>
</g>
<polygon fill="#FFFFFF" points="-180,340 -184.196,340 -188,343.867 -191.803,340 -196,340 -190.099,346 -196,352 -191.803,352 
	-188,348.135 -184.196,352 -180,352 -185.9,346 "/>
<g>
	<path fill="#FFFFFF" d="M-156,298c-8.836,0-16,7.164-16,16s7.164,16,16,16c8.837,0,16-7.164,16-16S-147.163,298-156,298L-156,298z"
		/>
	<path fill="#ADADAD" d="M-156,329c-8.271,0-15-6.729-15-15s6.729-15,15-15c8.271,0,15,6.729,15,15S-147.729,329-156,329L-156,329z"
		/>
</g>
<g>
	<g>
		<rect x="-161.1" y="306" fill="#FFFFFF" width="3.199" height="16"/>
	</g>
	<g>
		<rect x="-154.1" y="306" fill="#FFFFFF" width="3.199" height="16"/>
	</g>
</g>
<g>
	<path fill="#FFFFFF" d="M-156,330c-8.836,0-16,7.164-16,16s7.164,16,16,16c8.837,0,16-7.164,16-16S-147.163,330-156,330L-156,330z"
		/>
	<path fill="#008ADF" d="M-156,361c-8.271,0-15-6.729-15-15s6.729-15,15-15c8.271,0,15,6.729,15,15S-147.729,361-156,361L-156,361z"
		/>
</g>
<g>
	<g>
		<rect x="-161.1" y="338" fill="#FFFFFF" width="3.199" height="16"/>
	</g>
	<g>
		<rect x="-154.1" y="338" fill="#FFFFFF" width="3.199" height="16"/>
	</g>
</g>
<g>
	<g>
		<path fill="#FFFFFF" d="M-111,330h-26c-1.657,0-3,1.343-3,3v26c0,1.656,1.343,3,3,3h26c1.657,0,3-1.344,3-3v-26
			C-108,331.343-109.343,330-111,330L-111,330z"/>
		<path fill="#FF3F1F" d="M-137,361.001c-1.103,0-2-0.897-2-2v-26c0-1.103,0.897-2,2-2h26c1.103,0,2,0.897,2,2v26
			c0,1.103-0.897,2-2,2H-137z"/>
	</g>
</g>
<polygon fill="#FFFFFF" points="-116,339.999 -120.196,339.999 -124,343.865 -127.803,339.999 -132,339.999 -126.099,345.998 
	-132,352 -127.803,352 -124,348.133 -120.196,352 -116,352 -121.9,345.998 "/>
<g>
	<path fill="#FFFFFF" d="M-188,362c-8.836,0-16,7.164-16,16s7.164,16,16,16c8.837,0,16-7.164,16-16S-179.163,362-188,362L-188,362z"
		/>
	<path fill="#008ADF" d="M-188,393c-8.271,0-15-6.729-15-15s6.729-15,15-15c8.271,0,15,6.729,15,15S-179.729,393-188,393L-188,393z"
		/>
</g>
<g>
	<g>
		<polygon fill="#FFFFFF" points="-185.174,372 -189.105,372 -185.281,376.438 -196,376.438 -196,379.564 -185.281,379.564 
			-189.105,384 -185.174,384 -180,378 		"/>
	</g>
</g>
<g>
	<path fill="#FFFFFF" d="M-156,362c-8.836,0-16,7.164-16,16s7.164,16,16,16c8.837,0,16-7.164,16-16S-147.163,362-156,362L-156,362z"
		/>
	<path fill="#ADADAD" d="M-156,393c-8.271,0-15-6.729-15-15s6.729-15,15-15c8.271,0,15,6.729,15,15S-147.729,393-156,393L-156,393z"
		/>
</g>
<g>
	<path fill="#FFFFFF" d="M-124,362c-8.836,0-16,7.164-16,16s7.164,16,16,16c8.837,0,16-7.164,16-16S-115.163,362-124,362L-124,362z"
		/>
	<path fill="#008ADF" d="M-124,393c-8.271,0-15-6.729-15-15s6.729-15,15-15c8.271,0,15,6.729,15,15S-115.729,393-124,393L-124,393z"
		/>
</g>
<g>
	<g>
		<polygon fill="#FFFFFF" points="-153.174,372 -157.105,372 -153.281,376.438 -164,376.438 -164,379.564 -153.281,379.564 
			-157.105,384 -153.174,384 -148,378 		"/>
	</g>
</g>
<g>
	<g>
		<polygon fill="#FFFFFF" points="-124.738,370 -127,370 -127,386 -124.738,386 -117,378 		"/>
	</g>
</g>
<g>
	<path fill="#FFFFFF" d="M-92,362c-8.836,0-16,7.164-16,16s7.164,16,16,16c8.837,0,16-7.164,16-16S-83.163,362-92,362L-92,362z"/>
	<path fill="#ADADAD" d="M-92,393c-8.271,0-15-6.729-15-15s6.729-15,15-15s15,6.729,15,15S-83.729,393-92,393L-92,393z"/>
</g>
<g>
	<g>
		<polygon fill="#FFFFFF" points="-92.738,370 -95,370 -95,386 -92.738,386 -85,378 		"/>
	</g>
</g>
<g>
	<path fill="#FFFFFF" d="M-28,394c8.836,0,16-7.164,16-16s-7.164-16-16-16c-8.837,0-16,7.164-16,16S-36.837,394-28,394L-28,394z"/>
	<path fill="#ADADAD" d="M-28,363c8.271,0,15,6.729,15,15s-6.729,15-15,15s-15-6.729-15-15S-36.271,363-28,363L-28,363z"/>
</g>
<g>
	<g>
		<polygon fill="#FFFFFF" points="-30.826,384 -26.895,384 -30.719,379.563 -20,379.563 -20,376.436 -30.719,376.436 -26.895,372 
			-30.826,372 -36,378 		"/>
	</g>
</g>
<g>
	<path fill="#FFFFFF" d="M-60,394c8.836,0,16-7.164,16-16s-7.164-16-16-16c-8.837,0-16,7.164-16,16S-68.837,394-60,394L-60,394z"/>
	<path fill="#008ADF" d="M-60,363c8.271,0,15,6.729,15,15s-6.729,15-15,15s-15-6.729-15-15S-68.271,363-60,363L-60,363z"/>
</g>
<g>
	<g>
		<polygon fill="#FFFFFF" points="-62.826,384 -58.895,384 -62.719,379.563 -52,379.563 -52,376.436 -62.719,376.436 -58.895,372 
			-62.826,372 -68,378 		"/>
	</g>
</g>
</svg>
