<svg xmlns="http://www.w3.org/2000/svg" xmlns:xlink="http://www.w3.org/1999/xlink" width="32" height="32" viewBox="0 0 32 32"><symbol id="a" viewBox="-16 -16 32 32"><path d="M15.407 0c0-8.51-6.897-15.407-15.407-15.407-8.509 0-15.407 6.897-15.407 15.407 0 8.509 6.898 15.407 15.407 15.407 8.51 0 15.407-6.898 15.407-15.407z"/><path fill="#fff" d="M0-16c-8.822 0-16 7.177-16 16 0 8.822 7.177 16 16 16s16-7.178 16-16c0-8.823-7.178-16-16-16zm0 30.814c-8.168 0-14.814-6.646-14.814-14.814s6.645-14.815 14.814-14.815 14.816 6.646 14.816 14.815-6.647 14.814-14.816 14.814z"/><g fill="#fff"><path d="M-2.513-1.486l1.674-.218c-.183-1.153-.651-2.058-1.404-2.71-.754-.653-1.68-.979-2.777-.979-1.375 0-2.479.448-3.315 1.349-.835.899-1.253 2.187-1.253 3.864 0 1.084.18 2.032.54 2.847.358.813.905 1.423 1.64 1.83.734.406 1.534.61 2.398.61 1.091 0 1.983-.276 2.677-.828.693-.551 1.138-1.335 1.333-2.35l-1.655-.255c-.158.675-.437 1.183-.837 1.522-.4.341-.884.511-1.452.511-.858 0-1.555-.308-2.091-.923-.536-.614-.804-1.587-.804-2.918 0-1.351.259-2.329.775-2.941.518-.611 1.192-.918 2.025-.918.668 0 1.227.205 1.674.616.449.409.732 1.039.852 1.891zM8.493-1.486l1.674-.218c-.183-1.153-.65-2.058-1.405-2.71-.755-.653-1.679-.98-2.776-.98-1.375 0-2.481.448-3.317 1.349-.835.899-1.253 2.187-1.253 3.864 0 1.084.18 2.032.539 2.847s.906 1.424 1.643 1.831c.733.406 1.532.61 2.397.61 1.091 0 1.981-.276 2.677-.828.694-.553 1.139-1.335 1.333-2.352l-1.655-.253c-.158.675-.436 1.181-.836 1.522-.4.341-.887.511-1.453.511-.856 0-1.554-.308-2.091-.923-.537-.614-.803-1.587-.803-2.918 0-1.351.257-2.329.775-2.941.516-.611 1.192-.918 2.023-.918.669 0 1.227.205 1.676.616.447.409.732 1.039.852 1.891z"/></g></symbol><use xlink:href="#a" width="32" height="32" x="-16" y="-16" transform="matrix(1 0 0 -1 16 16)" overflow="visible"/></svg>