<svg xmlns="http://www.w3.org/2000/svg" xmlns:xlink="http://www.w3.org/1999/xlink" width="32" height="32" viewBox="0 0 32 32"><symbol id="a" viewBox="-14.107 -16 28.215 32"><path fill="#0070BA" d="M-11.541-12.801l-2.566 28.801h28.214l-2.571-28.796-11.554-3.204z"/><path fill="#28A9E0" d="M0-13.552l9.336 2.589 2.198 24.607h-11.534z"/><path fill="#EBEBEB" d="M0-6.21l-.016-.004-3.934 1.062-.251 2.815h-3.5469999999999997l.497-5.543 7.234-2.01.017.003z"/><path fill="#fff" d="M-.013 2.964v-3.532h4.349l-.407-4.583-3.942-1.062v-3.676l7.242 2.009.052.594.828 9.302.091.948h-.955zM-.013 10.113v-3.498l-.065-.031v-3.642l8.588 3.635.011.002v.002l.01.236-.008-.197.067.755.16 1.791.086.947z"/><path fill="#EBEBEB" d="M0 10.113h-8.856l.084-.947.232-2.605 8.519.018-8.105-3.615h-.103l.326-3.532h7.903v3.532z"/></symbol><use xlink:href="#a" width="28.215" height="32" x="-14.107" y="-16" transform="matrix(1 0 0 -1 16 16)" overflow="visible"/></svg>