<?xml version="1.0" encoding="utf-8"?>
<!-- Generator: Adobe Illustrator 14.0.0, SVG Export Plug-In . SVG Version: 6.00 Build 43363)  -->
<!DOCTYPE svg PUBLIC "-//W3C//DTD SVG 1.1//EN" "http://www.w3.org/Graphics/SVG/1.1/DTD/svg11.dtd">
<svg version="1.1" id="Layer_1" xmlns="http://www.w3.org/2000/svg" xmlns:xlink="http://www.w3.org/1999/xlink" x="0px" y="0px"
	 width="32px" height="32px" viewBox="0 0 32 32" enable-background="new 0 0 32 32" xml:space="preserve">
<g>
	<path fill="#CCCCC8" d="M22.21,30.062H9.792l3.153-5.528h6.11L22.21,30.062z"/>
	<path fill="#B4B4B4" d="M21.189,29.47H10.81l2.48-4.348h5.42L21.189,29.47z"/>
	<path fill="#CCCCC8" d="M28.363,25.524H3.635c-1.746,0-3.246-1.246-3.568-2.965l-0.064-0.618L0,5.578l0.06-0.625
		C0.39,3.184,1.89,1.94,3.636,1.94h24.727c1.746,0,3.248,1.238,3.57,2.96L32,5.52v16.365l-0.059,0.622
		c-0.332,1.77-1.832,3.014-3.58,3.014L28.363,25.524z"/>
	<path fill="#B4B4B4" d="M31.354,5.012c-0.268-1.41-1.5-2.478-2.99-2.478H3.636c-1.486,0-2.72,1.065-2.986,2.479L0.593,5.578v16.31
		l0.057,0.563c0.265,1.41,1.5,2.479,2.986,2.479h24.727c1.49,0,2.724-1.066,2.99-2.479l0.055-0.564V5.577L31.354,5.012L31.354,5.012
		z"/>
	<path fill="#FFFFFF" d="M29.635,23.144H2.367V4.323h27.268V23.144z"/>
	<path fill="#CCCCC8" d="M29.93,23.44H2.07V4.026h27.86V23.44z M2.664,22.847h26.674V4.619H2.664V22.847z"/>
	<path fill="#C8C8C8" d="M20.768,13.032c0.59,3.068-4.962,6.688-4.962,6.688s3.28-4.441,2.542-7.708
		c-0.736-3.265,1.459-7.268,1.459-7.268h4.389C24.193,4.744,20.176,9.959,20.768,13.032L20.768,13.032z"/>
	<path fill="none" d="M20.768,13.032c0.59,3.068-4.962,6.688-4.962,6.688s3.28-4.441,2.542-7.708
		c-0.736-3.265,1.459-7.268,1.459-7.268h4.389C24.193,4.744,20.176,9.959,20.768,13.032L20.768,13.032z"/>
</g>
</svg>
