<?xml version="1.0" encoding="utf-8"?>
<!-- Generator: Adobe Illustrator 14.0.0, SVG Export Plug-In . SVG Version: 6.00 Build 43363)  -->
<!DOCTYPE svg PUBLIC "-//W3C//DTD SVG 1.1//EN" "http://www.w3.org/Graphics/SVG/1.1/DTD/svg11.dtd">
<svg version="1.1" id="Layer_1" xmlns="http://www.w3.org/2000/svg" xmlns:xlink="http://www.w3.org/1999/xlink" x="0px" y="0px"
	 width="32px" height="32px" viewBox="0 0 32 32" enable-background="new 0 0 32 32" xml:space="preserve">
<symbol  id="_x5F_button_x5F_base" viewBox="-16.001 -16 32 32">
	<g id="button_x5F_base_3_">
		<g id="button_6_">
			<g>
				
					<use xlink:href="#_x5F_button_x5F_shape"  width="32" height="32" x="-16" y="-16" transform="matrix(1 0 0 1 -9.765625e-004 0)" overflow="visible"/>
			</g>
			<g>
				<g>
					<g>
						<g>
							<path fill="#999999" d="M15.999-12c0-2.209-1.791-4-4-4h-24c-2.209,0-4,1.791-4,4v24c0,2.209,1.791,4,4,4h24
								c2.209,0,4-1.791,4-4V-12z"/>
						</g>
					</g>
				</g>
			</g>
		</g>
	</g>
	<g id="button_3_">
		<g>
			
				<use xlink:href="#_x5F_button_x5F_shape"  width="32" height="32" x="-16" y="-16" transform="matrix(0.9375 0 0 0.9375 -9.765625e-004 0)" overflow="visible"/>
		</g>
		<g>
			<g>
				<g>
					<g>
						<g>
							<path fill="#F2F2F2" d="M14.999-11.25c0-2.071-1.679-3.75-3.75-3.75h-22.5c-2.071,0-3.75,1.679-3.75,3.75v22.5
								c0,2.071,1.679,3.75,3.75,3.75h22.5c2.071,0,3.75-1.679,3.75-3.75V-11.25z"/>
						</g>
					</g>
				</g>
			</g>
		</g>
	</g>
</symbol>
<symbol  id="_x5F_button_x5F_overlay" viewBox="-16.5 -16.5 33 33">
	<g id="_x5F_button_x5F_overlay_1_" opacity="0">
		<g id="button_x5F_overlay_3_">
			<g>
				<use xlink:href="#_x5F_button_x5F_shape"  width="32" height="32" x="-16" y="-16" overflow="visible"/>
			</g>
			<g>
				<g>
					<g>
						<g>
							<path fill="none" stroke="#808080" d="M16-12c0-2.209-1.791-4-4-4h-24c-2.209,0-4,1.791-4,4v24c0,2.209,1.791,4,4,4h24
								c2.209,0,4-1.791,4-4V-12z"/>
						</g>
					</g>
				</g>
			</g>
			<g>
				<g>
					<g>
						<g>
							<path fill="#0000FF" d="M16-12c0-2.209-1.791-4-4-4h-24c-2.209,0-4,1.791-4,4v24c0,2.209,1.791,4,4,4h24c2.209,0,4-1.791,4-4
								V-12z"/>
						</g>
					</g>
				</g>
			</g>
			<g>
				<g>
					<g>
						<g>
							<radialGradient id="SVGID_1_" cx="-9.1748" cy="11.5107" r="24.9406" gradientUnits="userSpaceOnUse">
								<stop  offset="0" style="stop-color:#E6E6E6"/>
								<stop  offset="1" style="stop-color:#000000"/>
							</radialGradient>
							<path fill="url(#SVGID_1_)" d="M16-12c0-2.209-1.791-4-4-4h-24c-2.209,0-4,1.791-4,4v24c0,2.209,1.791,4,4,4h24
								c2.209,0,4-1.791,4-4V-12z"/>
						</g>
					</g>
				</g>
			</g>
		</g>
	</g>
</symbol>
<symbol  id="_x5F_button_x5F_shape" viewBox="-16 -16 32 32">
	<g id="button_x5F_shape_2_">
		<g>
			<g opacity="0">
				<path fill="#FFFFFF" d="M16-12c0-2.209-1.791-4-4-4h-24c-2.209,0-4,1.791-4,4v24c0,2.209,1.791,4,4,4h24c2.209,0,4-1.791,4-4
					V-12z"/>
			</g>
		</g>
	</g>
</symbol>
<symbol  id="deviantArt" viewBox="-16 -16 32 32">
	
		<use xlink:href="#_x5F_button_x5F_base"  width="32" height="32" x="-16.001" y="-16" transform="matrix(1 0 0 1 9.765625e-004 0)" overflow="visible"/>
	<path fill="#D0DE21" d="M-3.854,3.137C2.484,4.958,7.777,1.234,7.777,1.234L3.414,0.056L2.158,2.39
		C0.976,2.607-0.371,2.675-1.803,2.436l2.97-6.037l12.835,3.696c0,0-4.654,7.311-18.537,4.947C-4.617,5.03-4.688,5.011-4.77,4.996
		l-1.347,2.737h-4.144l1.777-3.785c-8.424-3.479-4.691-11.682-4.691-11.682l12.852,3.701L-3.854,3.137z M-9.697-3.483
		c0,0-1.238,2.734,2.365,5.076l1.916-3.921L-9.697-3.483z"/>
</symbol>
<g id="XMLID_1_">
	<g>
		<g>
			<g>
				<g>
					<g>
						
							<use xlink:href="#_x5F_button_x5F_shape"  width="32" height="32" x="-16" y="-16" transform="matrix(1 0 0 -1 16 16)" overflow="visible"/>
					</g>
					<g>
						<g>
							<g>
								<g>
									<path fill="#999999" d="M32,28c0,2.209-1.791,4-4,4H4c-2.209,0-4-1.791-4-4V4c0-2.209,1.791-4,4-4h24c2.209,0,4,1.791,4,4
										V28z"/>
								</g>
							</g>
						</g>
					</g>
				</g>
			</g>
		</g>
		<g>
			<g>
				<g>
					<g>
						<g>
							<g>
								<g>
									<path fill="#3C4C48" d="M32,28c0,2.209-1.791,4-4,4H4c-2.209,0-4-1.791-4-4V4c0-2.209,1.791-4,4-4h24c2.209,0,4,1.791,4,4
										V28z"/>
								</g>
							</g>
						</g>
					</g>
					<g>
						<g>
							<g>
								<g>
									<path fill="#3C4C48" d="M32,28c0,2.209-1.791,4-4,4H4c-2.209,0-4-1.791-4-4V4c0-2.209,1.791-4,4-4h24c2.209,0,4,1.791,4,4
										V28z"/>
								</g>
							</g>
						</g>
					</g>
					<g>
						<g>
							<g>
								<g>
									<path fill="#3C4C48" d="M32,28c0,2.209-1.791,4-4,4H4c-2.209,0-4-1.791-4-4V4c0-2.209,1.791-4,4-4h24c2.209,0,4,1.791,4,4
										V28z"/>
								</g>
							</g>
						</g>
					</g>
				</g>
			</g>
		</g>
	</g>
	<path fill="#D0DE21" d="M12.146,12.863c6.338-1.821,11.631,1.902,11.631,1.902l-4.363,1.179l-1.256-2.334
		c-1.183-0.218-2.529-0.285-3.961-0.046l2.97,6.037l12.835-3.696c0,0-4.654-7.311-18.537-4.947
		c-0.082,0.012-0.153,0.031-0.234,0.046L9.884,8.267H5.74l1.777,3.785c-8.424,3.479-4.691,11.682-4.691,11.682l12.852-3.701
		L12.146,12.863z M6.303,19.483c0,0-1.238-2.734,2.365-5.076l1.916,3.921L6.303,19.483z"/>
</g>
</svg>
