<svg xmlns="http://www.w3.org/2000/svg" xmlns:xlink="http://www.w3.org/1999/xlink" width="32" height="32"><use xlink:href="#a" width="32" height="32" x="-16" y="-16" transform="matrix(1 0 0 -1 16 16)" overflow="visible"/><path fill="#999" d="M32 28a4 4 0 01-4 4H4a4 4 0 01-4-4V4a4 4 0 014-4h24a4 4 0 014 4v24z"/><g fill="#3C4C48"><path d="M32 28a4 4 0 01-4 4H4a4 4 0 01-4-4V4a4 4 0 014-4h24a4 4 0 014 4v24z"/><path d="M32 28a4 4 0 01-4 4H4a4 4 0 01-4-4V4a4 4 0 014-4h24a4 4 0 014 4v24z"/><path d="M32 28a4 4 0 01-4 4H4a4 4 0 01-4-4V4a4 4 0 014-4h24a4 4 0 014 4v24z"/></g><path fill="#D0DE21" d="M12.146 12.863c6.338-1.821 11.631 1.902 11.631 1.902l-4.363 1.179-1.256-2.334a11.437 11.437 0 00-3.961-.046l2.97 6.037 12.835-3.696s-4.654-7.311-18.537-4.947c-.082.012-.153.031-.234.046L9.884 8.267H5.74l1.777 3.785c-8.424 3.479-4.691 11.682-4.691 11.682l12.852-3.701-3.532-7.17zm-5.843 6.62s-1.238-2.734 2.365-5.076l1.916 3.921-4.281 1.155z"/></svg>