<svg xmlns="http://www.w3.org/2000/svg" width="32" height="32" viewBox="0 0 32 32"><path fill="#fff" d="M28.833 16.62h-2.333v10.463h-4.083v-5.833h-1.75v5.833h-4.667v-10.5h-3.536l.036-5.882h16.333z"/><path fill="#2A5F91" d="M13.667 9.583v-.167s-3.334-3.333-5.835-3.333c-2.498 0-5.832 3.333-5.832 3.333v8.334h4.667v3.522c-1.944.115-3.5 1.627-3.5 3.478v2.625c0 .481.42.875.934.875h7.465c.514 0 .935-.394.935-.875v-2.625c0-1.851-1.557-3.362-3.5-3.478v-3.522h4.667v-.036h1.166v10.536h12.834v-10.536h2.332v-8.131h-16.333zm15.166 7.037h-2.333v10.463h-4.083v-5.833h-1.75v5.833h-4.667v-10.5h-2.333v-5.882h15.166v5.919zM16 3.75v10.5h10.5v-10.5h-10.5zm9.333 9.333h-8.166v-8.166h8.166v8.166z"/><path fill="#fff" d="M17.167 4.917h8.166v8.166h-8.166zM11.319 27.23h-7v-2.333c0-1.286 1.151-2.333 2.566-2.333h1.868c1.415 0 2.565 1.047 2.565 2.333v2.333zM12.485 16.613h-9.333v-6.668c1.241-1.146 3.336-2.665 4.665-2.665 1.332 0 3.427 1.519 4.667 2.665v6.668z"/></svg>