<svg xmlns="http://www.w3.org/2000/svg" width="32" height="32" viewBox="0 0 32 32"><path fill="#FFF" d="M28.833 16.62H26.5v10.463h-4.083V21.25h-1.75v5.833H16v-10.5h-3.536L12.5 10.7h16.333v5.92z"/><path fill="#2A5F91" d="M13.667 9.583v-.167s-3.334-3.333-5.835-3.333C5.334 6.083 2 9.416 2 9.416v8.334h4.667v3.521c-1.944.115-3.5 1.627-3.5 3.479v2.625c0 .48.42.875.934.875h7.47c.515 0 .936-.395.936-.875V24.75c0-1.85-1.556-3.362-3.5-3.479V17.75h4.668v-.036h1.167V28.25h12.83V17.714H30v-8.13l-16.333-.001zm15.166 7.037H26.5v10.463h-4.083V21.25h-1.75v5.833H16v-10.5h-2.333V10.7h15.166v5.92zM16 3.75v10.5h10.5V3.75H16zm9.333 9.333h-8.166V4.917h8.166v8.166z"/><path fill="#FFF" d="M17.167 4.917h8.166v8.166h-8.166V4.917zM11.32 27.23h-7v-2.334c0-1.285 1.15-2.332 2.565-2.332h1.868c1.415 0 2.565 1.047 2.565 2.332v2.334h.002zm1.165-10.617H3.152V9.945C4.392 8.8 6.488 7.28 7.817 7.28c1.332 0 3.427 1.52 4.667 2.665l.001 6.668z"/></svg>