<svg xmlns="http://www.w3.org/2000/svg" xmlns:xlink="http://www.w3.org/1999/xlink" width="32" height="32" viewBox="0 0 32 32"><symbol id="a" viewBox="-16 -9.881 32 19.762"><path d="M7.585 1.444c0-4.188-3.396-7.585-7.585-7.585s-7.585 3.396-7.585 7.585 3.396 7.586 7.585 7.586c4.188 0 7.585-3.397 7.585-7.586z"/><path fill="#fff" d="M5.189 2.919c0-1.279-1.038-2.316-2.316-2.316-1.279 0-2.316 1.037-2.316 2.316 0 1.278 1.037 2.315 2.316 2.315 1.278 0 2.316-1.037 2.316-2.315z"/><path d="M0-9.881c-6.417 0-12.373 3.479-15.544 9.078l-.456.803.456.803c3.171 5.599 9.127 9.078 15.544 9.078 6.416 0 12.371-3.479 15.545-9.077l.455-.804-.455-.803c-3.172-5.599-9.129-9.078-15.545-9.078zm-12.219 9.881c2.689-4.105 7.288-6.62 12.219-6.62s9.529 2.515 12.219 6.62c-2.69 4.106-7.288 6.62-12.219 6.62-4.93 0-9.53-2.514-12.219-6.62z"/></symbol><use xlink:href="#a" width="32" height="19.762" x="-16" y="-9.881" transform="matrix(1 0 0 -1 16 16)" overflow="visible"/></svg>