<svg xmlns="http://www.w3.org/2000/svg" xmlns:xlink="http://www.w3.org/1999/xlink" width="32" height="32" viewBox="0 0 32 32"><symbol id="c" viewBox="-16.001 -16 32.002 32"><g><use xlink:href="#_x5F_button_x5F_shape" width="32" height="32" x="-16" y="-16" transform="translate(-.001)" overflow="visible"/><path fill="#999" d="M15.999-12c0-2.209-1.791-4-4-4h-24c-2.209 0-4 1.791-4 4v24c0 2.209 1.791 4 4 4h24c2.209 0 4-1.791 4-4v-24z"/></g><g><use xlink:href="#_x5F_button_x5F_shape" width="32" height="32" x="-16" y="-16" transform="matrix(.938 0 0 .938 -.001 0)" overflow="visible"/><path fill="#F2F2F2" d="M14.999-11.25c0-2.071-1.679-3.75-3.75-3.75h-22.5c-2.071 0-3.75 1.679-3.75 3.75v22.5c0 2.071 1.679 3.75 3.75 3.75h22.5c2.071 0 3.75-1.679 3.75-3.75v-22.5z"/></g><path fill="#fff" d="M15.999-12c0-2.209-1.791-4-4-4h-24c-2.209 0-4 1.791-4 4v24c0 2.209 1.791 4 4 4h24c2.209 0 4-1.791 4-4v-24zM15.999-12c0-2.209-1.791-4-4-4h-24c-2.209 0-4 1.791-4 4v24c0 2.209 1.791 4 4 4h24c2.209 0 4-1.791 4-4v-24zM14.999-11.25c0-2.071-1.679-3.75-3.75-3.75h-22.5c-2.071 0-3.75 1.679-3.75 3.75v22.5c0 2.07 1.679 3.75 3.75 3.75h22.5c2.071 0 3.75-1.68 3.75-3.75v-22.5zM14.999-11.25c0-2.071-1.679-3.75-3.75-3.75h-22.5c-2.071 0-3.75 1.679-3.75 3.75v22.5c0 2.07 1.679 3.75 3.75 3.75h22.5c2.071 0 3.75-1.68 3.75-3.75v-22.5z"/><defs><path id="a" d="M16.001-16h-32v9h32z"/></defs><clipPath id="b"><use xlink:href="#a" overflow="visible"/></clipPath><g clip-path="url(#b)"><g><use xlink:href="#_x5F_button_x5F_shape" width="32" height="32" x="-16" y="-16" transform="translate(-.001)" overflow="visible"/><path fill="#999" d="M15.999-12c0-2.209-1.791-4-4-4h-24c-2.209 0-4 1.791-4 4v24c0 2.209 1.791 4 4 4h24c2.209 0 4-1.791 4-4v-24z"/></g><g><use xlink:href="#_x5F_button_x5F_shape" width="32" height="32" x="-16" y="-16" transform="matrix(.938 0 0 .938 -.001 0)" overflow="visible"/><path fill="#F2F2F2" d="M14.999-11.25c0-2.071-1.679-3.75-3.75-3.75h-22.5c-2.071 0-3.75 1.679-3.75 3.75v22.5c0 2.071 1.679 3.75 3.75 3.75h22.5c2.071 0 3.75-1.679 3.75-3.75v-22.5z"/></g><path fill="#8B9DC3" d="M15.999-12c0-2.209-1.791-4-4-4h-24c-2.209 0-4 1.791-4 4v24c0 2.209 1.791 4 4 4h24c2.209 0 4-1.791 4-4v-24zM15.999-12c0-2.209-1.791-4-4-4h-24c-2.209 0-4 1.791-4 4v24c0 2.209 1.791 4 4 4h24c2.209 0 4-1.791 4-4v-24zM14.999-11.25c0-2.071-1.679-3.75-3.75-3.75h-22.5c-2.071 0-3.75 1.679-3.75 3.75v22.5c0 2.07 1.679 3.75 3.75 3.75h22.5c2.071 0 3.75-1.68 3.75-3.75v-22.5zM14.999-11.25c0-2.071-1.679-3.75-3.75-3.75h-22.5c-2.071 0-3.75 1.679-3.75 3.75v22.5c0 2.07 1.679 3.75 3.75 3.75h22.5c2.071 0 3.75-1.68 3.75-3.75v-22.5z"/></g><path fill="#3B5998" d="M5.273 7.037h4.029v4.979h-4.029c-3.332 0-6.044-2.931-6.044-6.534v-2.513h-4.029v-4.994h4.029v-12.094h5.037v12.094h5.036v4.994h-5.035v2.561c0 .863.532 1.507 1.006 1.507z"/><path fill="#fff" d="M4.77-14.623h-6.043v12.095h-4.029v6h4.029v2.01c0 3.881 2.938 7.037 6.547 7.037h4.533v-5.984h-4.534c-.125 0-.504-.357-.504-1.006v-2.057h5.037v-6h-5.036v-12.095zm-5.037 1.006h4.029v12.094h5.036v3.99h-5.035v3.063c0 1.09.692 2.011 1.511 2.011h3.525v3.974h-3.526c-3.055 0-5.54-2.705-5.54-6.032v-3.016h-4.029v-3.99h4.029v-12.094z"/></symbol><use xlink:href="#c" width="32.002" height="32" x="-16.001" y="-16" transform="matrix(1 0 0 -1 16 16)" overflow="visible"/></svg>