<svg xmlns="http://www.w3.org/2000/svg" width="32" height="32" viewBox="0 0 32 32"><path fill="#C8C8C8" d="M2 2v28h28V2H2z"/><path fill="#FFF" d="M29.252 4.787h-2.039V2.748h2.039v2.039zm0 4.078h-2.039V6.826h2.039v2.039zm0 4.077h-2.039v-2.039h2.039v2.039zm0 4.078h-2.039v-2.04h2.039v2.04zm0 4.077h-2.039v-2.038h2.039v2.038zm0 4.077h-2.039v-2.039h2.039v2.039zm0 4.078h-2.039v-2.039h2.039v2.039zM4.787 4.787H2.748V2.748h2.039v2.039zm0 4.078H2.748V6.826h2.039v2.039zm0 4.077H2.748v-2.039h2.039v2.039zm0 4.078H2.748v-2.04h2.039v2.04zm0 4.077H2.748v-2.038h2.039v2.038zm0 4.077H2.748v-2.039h2.039v2.039zm0 4.078H2.748v-2.039h2.039v2.039z"/><path fill="none" d="M25.813 2v3.62c0 .668-.539 1.206-1.204 1.206H7.508A1.205 1.205 0 0 1 6.303 5.62V2H2v28h4.303v-3.211c0-.665.54-1.205 1.205-1.205h17.101c.665 0 1.204.54 1.204 1.206V30H30V2h-4.187zm0 19.312c0 .665-.539 1.205-1.204 1.205H7.508a1.205 1.205 0 0 1-1.205-1.205V11.098c0-.667.54-1.205 1.205-1.205h17.101c.665 0 1.204.542 1.204 1.207v10.212z"/><path fill="#FFF" d="M24.608 9.893h-17.1c-.665 0-1.205.538-1.205 1.206v10.213c0 .665.54 1.205 1.205 1.205h17.101c.665 0 1.204-.539 1.204-1.205V11.098c0-.664-.54-1.204-1.205-1.205zm0 15.691h-17.1c-.665 0-1.205.54-1.205 1.206V30h19.509v-3.211a1.204 1.204 0 0 0-1.204-1.205zM7.508 6.826h17.101c.665 0 1.204-.538 1.204-1.206V2H6.303v3.62c0 .665.54 1.206 1.205 1.206z"/></svg>