<svg xmlns="http://www.w3.org/2000/svg" xmlns:xlink="http://www.w3.org/1999/xlink" width="32" height="32" viewBox="0 0 32 32"><symbol id="a" viewBox="-16 -16 32 32"><path d="M-16 16v-32h32v32z"/><g fill="#fff"><path d="M15.145 12.815h-2.331v2.331h2.331zM15.145 8.155h-2.331v2.33h2.331zM15.145 3.495h-2.331v2.33h2.331zM15.145-1.165h-2.331v2.33h2.331zM15.145-5.825h-2.331v2.33h2.331zM15.145-10.485h-2.331v2.33h2.331zM15.145-15.146h-2.331v2.331h2.331zM-12.816 12.815h-2.33v2.331h2.33zM-12.816 8.155h-2.33v2.33h2.33zM-12.816 3.495h-2.33v2.33h2.33zM-12.816-1.165h-2.33v2.33h2.33zM-12.816-5.825h-2.33v2.33h2.33zM-12.816-10.485h-2.33v2.33h2.33zM-12.816-15.146h-2.33v2.331h2.33z"/></g><path fill="none" d="M11.215 16v-4.137c0-.763-.617-1.378-1.377-1.378h-19.543c-.76 0-1.377.615-1.377 1.378v4.137h-4.918v-32h4.918v3.669c0 .761.617 1.378 1.377 1.378h19.543c.76 0 1.377-.617 1.377-1.378v-3.669h4.785v32h-4.785zm0-22.07c0-.761-.617-1.377-1.377-1.377h-19.543c-.76 0-1.377.616-1.377 1.377v11.672c0 .762.617 1.377 1.377 1.377h19.543c.76 0 1.377-.615 1.377-1.377v-11.672z"/><path fill="#999" d="M9.838 6.979h-19.543c-.76 0-1.377-.615-1.377-1.377v-11.672c0-.761.617-1.377 1.377-1.377h19.543c.76 0 1.377.616 1.377 1.377v11.672c0 .76-.617 1.377-1.377 1.377zM9.838-10.953h-19.543c-.76 0-1.377-.617-1.377-1.378v-3.669h22.297v3.669c0 .761-.617 1.378-1.377 1.378zM-9.705 10.485h19.543c.76 0 1.377.615 1.377 1.378v4.137h-22.297v-4.137c0-.761.617-1.378 1.377-1.378z"/></symbol><use xlink:href="#a" width="32" height="32" x="-16" y="-16" transform="matrix(1 0 0 -1 16 16)" overflow="visible"/></svg>