<?xml version="1.0" encoding="utf-8"?>
<!-- Generator: Adobe Illustrator 14.0.0, SVG Export Plug-In . SVG Version: 6.00 Build 43363)  -->
<!DOCTYPE svg PUBLIC "-//W3C//DTD SVG 1.1//EN" "http://www.w3.org/Graphics/SVG/1.1/DTD/svg11.dtd">
<svg version="1.1" id="Layer_1" xmlns="http://www.w3.org/2000/svg" xmlns:xlink="http://www.w3.org/1999/xlink" x="0px" y="0px"
	 width="32px" height="32px" viewBox="0 0 32 32" enable-background="new 0 0 32 32" xml:space="preserve">
<path d="M0,0v32h32V0H0z"/>
<path fill="#FFFFFF" d="M31.145,3.185h-2.33v-2.33h2.33V3.185z M31.145,7.845h-2.33v-2.33h2.33V7.845z M31.145,12.505h-2.33v-2.33
	h2.33V12.505z M31.145,17.165h-2.33v-2.33h2.33V17.165z M31.145,21.825h-2.33v-2.33h2.33V21.825z M31.145,26.484h-2.33v-2.329h2.33
	V26.484z M31.145,31.145h-2.33v-2.33h2.33V31.145z M3.185,3.185h-2.33v-2.33h2.33V3.185z M3.185,7.845h-2.33v-2.33h2.33V7.845z
	 M3.185,12.505h-2.33v-2.33h2.33V12.505z M3.185,17.165h-2.33v-2.33h2.33V17.165z M3.185,21.825h-2.33v-2.33h2.33V21.825z
	 M3.185,26.484h-2.33v-2.329h2.33V26.484z M3.185,31.145h-2.33v-2.33h2.33V31.145z"/>
<path fill="none" d="M27.215,0v4.137c0,0.764-0.617,1.378-1.377,1.378H6.295c-0.76,0-1.377-0.614-1.377-1.378V0H0v32h4.918v-3.67
	c0-0.76,0.617-1.377,1.377-1.377h19.543c0.76,0,1.377,0.617,1.377,1.378V32H32V0H27.215z M27.215,22.07
	c0,0.76-0.617,1.377-1.377,1.377H6.295c-0.76,0-1.377-0.616-1.377-1.377V10.398c0-0.763,0.617-1.377,1.377-1.377h19.543
	c0.76,0,1.377,0.62,1.377,1.38V22.07L27.215,22.07z"/>
<path fill="#777777" d="M25.838,9.02H6.295c-0.76,0-1.377,0.615-1.377,1.378V22.07c0,0.76,0.617,1.377,1.377,1.377h19.543
	c0.76,0,1.377-0.616,1.377-1.377V10.398C27.215,9.638,26.598,9.021,25.838,9.02L25.838,9.02z M25.838,26.953H6.295
	c-0.76,0-1.377,0.617-1.377,1.378V32h22.297v-3.67C27.215,27.57,26.598,26.953,25.838,26.953z M6.295,5.515h19.543
	c0.76,0,1.377-0.614,1.377-1.378V0H4.918v4.137C4.918,4.897,5.535,5.515,6.295,5.515z"/>
</svg>
