<svg xmlns="http://www.w3.org/2000/svg" xmlns:xlink="http://www.w3.org/1999/xlink" width="32" height="32" viewBox="0 0 32 32"><symbol id="a" viewBox="-16 -15.428 32 30.836"><path fill="#2173BB" d="M15.492.251c0-8.371-6.786-15.157-15.157-15.157-8.372 0-15.157 6.786-15.157 15.157 0 8.37 6.785 15.157 15.157 15.157 8.371 0 15.157-6.787 15.157-15.157z"/><g opacity=".3"><path d="M.633-6.564c.692.119 1.703.338 2.553.331 0-.37.379-.201 1.448-.229 1.311.32-.41-1.238-.458-1.307-.279.001-2.581-.262-2.861-.261-.141.01-.269.093-.303-.001-.775.11-1.377.396-2.01.647.175.196.461.358.871.229.331.205.151.485.76.591z"/></g><path fill="#E24406" d="M-12.24 12.773s-.098-1.846 1.834-3.164l-.96-2.005-2.706-.677c0 .001.028 4.761 1.832 5.846z"/><path fill="#F07B14" d="M15.644 4.327s-.16-1.106-.441-1.687c.096-1.03.139-1.711-.007-2.69-.361-.534-.717-.815-.976-1.037.03.482.027.402.334 1.432.273.918 1.969 7.054-2.419 10.695 0 0 .035-.26.021-.482 0 0-.445 1.112-2.269 1.952-.119.054.079-.342.141-.658.294-.274 3.492-3.422 3.62-5.046-.472.783-1.547 2.874-3.651 4.503-1.6 1.239-2.596 1.66-4.576 2.342 0 0 1.004-.617 2.04-1.535 1.177-1.042 2.416-2.513 2.743-3.422 0 0-1.689 1.59-3.05 1.656 0 0 3.577-2.129 3.208-7.952 0 0-.346 1.237-1.229 1.611 0 0 .677-3.368-.141-6.494 0 0-.179.498-.444 1.141 0 0-.145-1.699-.649-2.864-.842-1.949-2.237-3.4-2.132-1.963-.675-.22-1.641-1.58-1.992-1.576.1.296.135.295.38.638 0 0-.773-.725-2.831-.725-1.17 0-2.211.267-3.123.715-.197.097-.936.547-1.109.674-.46.336-.879.72-1.256 1.135.417-.064.909-.094 1.49-.065 2.331.112 4.338 1.826 4.532 1.979.322.252.707.105 1.047.112.338.008.689.438.327.896-.95 1.21-2.32 1.021-2.32 1.021-1.435.071-2.062-1.06-3.802-.789-2.632.407-3.038 1.981-3.08 2.797.125 1.186.991 1.383 2.045.526.167 1.252.157 1.586.025 2.195.89.735 2.268 1.398 2.796 1.778.313.225 1.335 1.718.363 1.92-1.03.214-1.292.008-2.878.152-.402.021-.696.497-1.146 1.038.277 1.155.889 2.509 2.228 3.305 0 0-1.97.613-4.429-1.838-.01.002-.02.005-.028.008-1.63.38-3.258.103-3.676-.078-1.235-.531-4.488-2.183-5.33-8.145 0 0 .162.828.796 1.388 0 0-.796-2.674-.502-5.43.046.445.178 1.011.284 1.425.282-3.181 1.756-7.547 5.789-10.634 1.354-1.035 3.82-2.901 7.111-3.538-.507.26-.713.356-1.072.692.591-.253 3.124-.815 4.588-.833 0 0-.617.239-.79.453.322.013 2.116-.118 3.374.061 1.396.199 2.756.325 4.64 1.449.67.399 1.503 1.139 1.854 1.973 1.023.952 2.854 1.755 3.753 3.313.56.971 1.118 2.258.689 3.679 1.174 2.64 1.987 5.056 1.13 8.827zm-8.112-17.31c-.685-.417-1.61-.417-1.496-.316.258.229.821.557 1.505.858.984.437 1.313.422 1.5.466-.252-.197-.505-.398-1.509-1.008zm5.28 5.046c-.533-.361-.89-.578-1.212-.688.205.437.788 1.218 1.446 2.065.951 1.224 1.05 1.413 1.244 1.605-.297-1.013-.928-2.036-1.478-2.982zM15.644 4.327s-.16-1.106-.441-1.687c.096-1.03.139-1.711-.007-2.69-.361-.534-.717-.815-.976-1.037.03.482.027.402.334 1.432.273.918 1.969 7.054-2.419 10.695 0 0 .035-.26.021-.482 0 0-.445 1.112-2.269 1.952-.119.054.079-.342.141-.658.294-.274 3.492-3.422 3.62-5.046-.472.783-1.547 2.874-3.651 4.503-1.6 1.239-2.596 1.66-4.576 2.342 0 0 1.004-.617 2.04-1.535 1.177-1.042 2.416-2.513 2.743-3.422 0 0-1.689 1.59-3.05 1.656 0 0 3.577-2.129 3.208-7.952 0 0-.346 1.237-1.229 1.611 0 0 .677-3.368-.141-6.494 0 0-.179.498-.444 1.141 0 0-.145-1.699-.649-2.864-.842-1.949-2.237-3.4-2.132-1.963-.675-.22-1.641-1.58-1.992-1.576.1.296.135.295.38.638 0 0-.773-.725-2.831-.725-1.17 0-2.211.267-3.123.715-.198.097-1.292.808-1.379.879-.354.285-.683.598-.986.93.417-.064.909-.094 1.49-.065 2.331.112 4.338 1.826 4.532 1.979.322.252.707.105 1.047.112.338.008.689.438.327.896-.95 1.21-2.32 1.021-2.32 1.021-1.435.071-2.062-1.06-3.802-.789-2.632.407-3.038 1.981-3.08 2.797.125 1.186.991 1.383 2.045.526.167 1.252.157 1.586.025 2.195.89.735 2.268 1.398 2.796 1.778.313.225 1.335 1.718.363 1.92-1.03.214-1.292.008-2.878.152-.402.021-.696.497-1.146 1.038.277 1.155.889 2.509 2.228 3.305 0 0-1.97.613-4.429-1.838-.01.002-.02.005-.028.008-1.63.38-3.258.103-3.676-.078-1.235-.531-4.488-2.183-5.33-8.145 0 0 .162.828.796 1.388 0 0-.796-2.674-.502-5.43.046.445.178 1.011.284 1.425.282-3.181 1.756-7.547 5.789-10.634 1.354-1.035 3.82-2.901 7.111-3.538-.507.26-.713.356-1.072.692.591-.253 3.124-.815 4.588-.833 0 0-.617.239-.79.453.322.013 2.116-.118 3.374.061 1.396.199 2.756.325 4.64 1.449.67.399 1.503 1.139 1.854 1.973 1.023.952 2.854 1.755 3.753 3.313.56.971 1.118 2.258.689 3.679 1.174 2.64 1.987 5.056 1.13 8.827zm-8.112-17.31c-.685-.417-1.61-.417-1.496-.316.258.229.821.557 1.505.858.984.437 1.313.422 1.5.466-.252-.197-.505-.398-1.509-1.008zm5.28 5.046c-.533-.361-.89-.578-1.212-.688.205.437.788 1.218 1.446 2.065.951 1.224 1.05 1.413 1.244 1.605-.297-1.013-.928-2.036-1.478-2.982z"/><g fill="#E24406"><path d="M15.249-.067c.118.225 1.06 2.023.344 4.086-.069-.37-.203-.99-.391-1.378.082-.884.125-1.513.043-2.291.003-.144.004-.285.004-.417zM12.149 10.89c.004-.034.006-.071.008-.112.123-.411.141-.754.194-1.264.269-.435.549-.934.81-1.427.098-.17.185-.336.258-.495.115-.229.228-.452.328-.657.008.259.08 2.394-1.598 3.955zM9.854 12.504c0-.001-.001-.003-.002-.005.179-.29.276-.544.377-.843.387-.383 1.21-1.233 1.953-2.166-.172.652-.708 2.078-2.328 3.014zM14.581-5.859c.029.212.055.464.067.688-.021.195-.056.393-.111.593-.02-.018-.04-.048-.065-.093-.072-.127-.143-.259-.216-.392-.309-.979-.913-1.962-1.444-2.873-.024-.018-.051-.034-.076-.051.591.24 1.751 1.468 1.845 2.128z"/></g><path fill="#E24406" d="M-3.618 7.212c-.403.021-.697.497-1.147 1.038 0 0-.762-1.094-.37-6.208.313.336.647.629.962.968.609.988 2.129 1.456 3.069 2.13.313.225 1.335 1.718.363 1.92-1.03.213-1.291.007-2.877.152zM-6.165-2.222c-.195 1.152-.329 3.785 1.043 3.946-.399.165-2.901.909-3.146.673-.427-.409-2.138-2.195-2.138-4.698.556.926 2.849 2.603 4.241.079z"/><path fill="#fff" d="M-5.126 4.442s.723.748 1.471.904c.509.107 1.109-.248 1.605-.098.626.188 1.121.649 1.399.879l-.056-.537c-.127-.147-.306-.51-1.056-.885-.643-.322-1.496-.707-2.245-1.48 0 0-.727.555-1.118 1.217z"/><path fill="#F07B14" d="M-3.854 3.44c.329-.346.211-1.526-.07-2.273-1.12.747-3.522.875-5.406.18l4.579 7.028c-.687-2.896.053-3.933.897-4.935z"/><path fill="#231F20" d="M-1.572 7.148s.776.061 1.062-.17c.114-.093.539-.461-.195-1.388-.001.001.26.958-.867 1.558z"/><path fill="#E24406" d="M-6.075-2.211c-.044-.634.949-2.677 1.911-3.099.624-.273 2.853-.094 3.9.436 1.144.578 1.999 1.334 2.175 1.57-1.103-.245-1.515-.619-3.904-.683-3.194-.089-4.082 1.776-4.082 1.776z"/><path fill="#fff" d="M-.591-1.893c1.449.197 2.636-.731 2.827-1.017-.011.095-.011.168-.035.264.088-.017.179-.047.485-.408.012.141-.021.235-.148.466.276-.148.461-.55.503-.538 0 .257-.035.479.005.5.066.035.228-.252.258-.146-.001.001-.977 2.184-3.895.879z"/><path fill="#E24406" d="M9.211-11.681c3.135 1.885 3.896 3.598 4.153 4.182 0 0-6.914-5.121-12.192-5.121-4.398 0-7.377 1.68-8.521 2.445-2.324 1.558-3.729 4.365-4.454 6.362-.131-.999.177-1.898.824-3.51-1.382 1.25-2.491 4.88-2.819 6.986-.429-1.897.219-3.982.8-5.375-1.194 1.108-2.16 5.386-2.192 6.758-.229-.661-.361-2.142-.422-2.991.058.293.127.587.19.829.282-3.181 1.756-7.547 5.789-10.634 1.354-1.035 3.82-2.901 7.111-3.538-.507.26-.713.356-1.072.692.591-.253 3.124-.815 4.588-.833 0 0-.617.239-.79.453.322.013 2.116-.118 3.374.061 1.396.199 2.756.325 4.64 1.449.664.396 1.488 1.128 1.846 1.953-.313-.309-.642-.327-1.12-.48-.253-.197-.407-.381-1.411-.991-.686-.416-1.611-.416-1.497-.315 0 0 .001 0 .001.001-.25-.047-.29.951 3.174 1.617z"/><g fill="#FEE750"><path d="M9.573 11.865c-.021.018-.043.035-.065.053.022-.018.044-.035.065-.053zM9.72 11.74c-.02.018-.042.035-.063.053.021-.018.043-.035.063-.053zM9.869 11.609c-.019.017-.038.032-.056.049.018-.016.038-.032.056-.049zM9.429 11.983c-.021.018-.044.035-.066.052.022-.016.044-.034.066-.052zM9.146 12.204c-.022.016-.043.031-.065.047.023-.016.043-.031.065-.047zM9.287 12.096c-.022.017-.045.035-.066.051.021-.016.044-.035.066-.051zM10.049 11.445c-.01.01-.021.02-.031.029.01-.009.021-.019.031-.029zM13.084 7.834c-.021.03-.042.059-.063.089.021-.03.042-.059.063-.089zM12.631 8.472c.025-.035.051-.07.077-.105-.026.034-.052.07-.077.105zM12.444 8.726c.025-.035.053-.07.078-.106-.025.035-.052.07-.078.106zM12.261 8.968c.026-.034.052-.067.077-.102-.025.034-.051.068-.077.102zM9.007 12.307c-.021.016-.041.03-.062.045.021-.015.04-.03.062-.045zM10.231 11.274c-.021.019-.041.039-.061.057.02-.018.041-.038.061-.057zM10.555 10.956c-.024.022-.047.047-.07.069.023-.022.045-.046.07-.069zM12.821 8.207c.024-.034.049-.067.074-.104-.025.037-.049.07-.074.104zM8.721 12.507c-.016.01-.032.021-.048.032.015-.012.032-.022.048-.032zM7.704 13.081c-.016.008-.033.016-.05.023.017-.007.034-.015.05-.023zM7.439 13.195c-.016.007-.031.012-.047.018.016-.006.032-.011.047-.018zM7.82 13.026c-.018.009-.036.019-.054.026.018-.007.037-.017.054-.026zM7.334 13.236c-.016.006-.032.013-.05.018.018-.005.034-.012.05-.018zM7.937 12.97c-.018.009-.037.018-.056.026.018-.009.038-.017.056-.026zM8.867 12.406c-.018.014-.038.026-.056.039.018-.012.039-.025.056-.039zM8.553 12.617c-.019.011-.036.022-.054.033.018-.01.035-.022.054-.033zM8.425 12.696c-.02.013-.039.023-.058.034.019-.01.038-.021.058-.034zM12.08 9.202c.026-.032.051-.065.075-.097-.024.032-.049.065-.075.097zM8.3 12.771c-.02.011-.04.021-.059.033.019-.011.039-.022.059-.033zM8.177 12.842c-.02.011-.039.021-.059.032.02-.012.039-.021.059-.032zM8.056 12.907c-.019.01-.039.021-.057.03.018-.009.038-.02.057-.03zM7.587 13.134c-.016.007-.032.014-.047.021.015-.008.031-.014.047-.021zM6.116 13.522c.012-.001.023-.003.034-.004-.01.002-.022.003-.034.004zM6.188 13.515c.013-.001.023-.003.037-.004-.014.001-.025.003-.037.004zM6.048 13.527c.012-.001.022-.002.033-.003-.011.001-.021.002-.033.003zM6.501 13.47c.014-.002.024-.005.038-.007-.014.002-.024.005-.038.007zM6.263 13.507c.011-.001.024-.004.036-.006-.012.002-.026.005-.036.006zM6.419 13.484c.012-.002.024-.005.037-.007-.013.002-.025.005-.037.007zM5.981 13.532c.011-.001.021-.002.031-.002-.01 0-.02.001-.031.002zM6.338 13.496c.013-.002.026-.004.038-.005-.012.001-.025.003-.038.005zM5.694 13.539c-.025 0-.051 0-.072 0 .022 0 .047 0 .072 0zM5.423 13.537c-.007 0-.012 0-.018 0 .004 0 .009 0 .014 0 .001 0 .002 0 .004 0zM5.554 13.538c.019.001.038.001.057.001-.019 0-.039 0-.057-.001zM5.909 13.535c.014-.001.025-.001.038-.002-.012.001-.024.001-.038.002zM5.829 13.538c.012 0 .021-.001.03-.001-.009 0-.018.001-.03.001zM5.771 13.539c.01 0 .02 0 .029 0-.01 0-.02 0-.029 0zM5.713 13.539c.012 0 .021 0 .031 0-.01 0-.019 0-.031 0zM6.798 13.405c.015-.004.029-.007.045-.012-.016.005-.03.008-.045.012zM11.146 10.324c.021-.025.045-.05.067-.075-.023.025-.046.05-.067.075zM10.975 10.514c.023-.026.047-.052.071-.077-.025.025-.048.05-.071.077zM10.808 10.691c.023-.025.049-.05.073-.076-.025.027-.05.051-.073.076zM6.62 13.446c.013-.002.025-.006.037-.008-.011.002-.024.006-.037.008zM11.325 10.12c.019-.021.037-.043.058-.065-.021.022-.039.045-.058.065zM11.727 9.644c.021-.023.04-.049.061-.073-.021.024-.041.049-.061.073zM10.646 10.862c.023-.024.048-.049.071-.073-.024.024-.048.049-.071.073zM11.553 9.854c.004-.004.009-.01.013-.016-.004.005-.009.012-.013.016zM11.903 9.428c.021-.029.047-.06.07-.09-.023.03-.048.06-.07.09zM6.709 13.428c.013-.004.026-.007.041-.011-.015.004-.028.007-.041.011zM6.89 13.381c.016-.004.031-.008.047-.013-.016.005-.032.009-.047.013zM7.081 13.324c.018-.005.034-.011.05-.017-.016.006-.032.012-.05.017zM6.985 13.354c.016-.004.031-.009.047-.015-.015.006-.031.011-.047.015zM7.182 13.291c.016-.006.034-.011.05-.018-.016.007-.035.012-.05.018zM10.393 11.117c-.021.022-.043.043-.065.064.022-.021.044-.041.065-.064z"/></g><path fill="#FEE750" d="M14.322 6.958c-.06.209-.127.408-.198.595.049-.91-.133-2.058-.76-3.565.295-1.204.529-2.379.762-3.704.661 2.599.728 4.838.196 6.674zM10.095 2.057c-.063.137-.123.274-.186.421-.111.258-.223.522-.356.77.113-1.278.169-3.356-.458-5.665.134-.638.046-1.286-.031-1.862-.063-.458-.134-.979.001-1.134.016-.019.041-.033.066-.046.768 1.046 1.195 2.263 1.432 3.295.146 1.639-.002 3.217-.468 4.221zM15.665-.12c-.275-.489-.69-.964-1.32-1.348-.107-.75-.407-2.017-.698-3.244-.058-.238-.112-.471-.165-.696 1.36 1.89 1.899 3.585 2.106 4.76.031.182.058.359.077.528zM13.294 2.591c-.147-1.576-.344-2.686-1.295-5.05.365-1.79-1.111-5.688-1.588-6.63 1.486 1.05 2.463 2.742 2.906 5.036.456 2.365.255 4.856-.023 6.644zM11.019-1.019c-.024-.248-.057-.515-.1-.791-.19-1.199-.64-2.903-1.708-4.271.526.383.28.241.844.802.562-.781-.646-4.281-.625-4.257 1.26 1.593 2.916 5.978 1.589 8.517zM6.689-6.731c.753.656 1.164 1.05 1.46 1.272s.332-.618.343-.823c.149.823.295 1.704.221 2.977-.005.085-.023.172-.036.264-.256-1.091-.966-2.623-1.988-3.69z"/><g fill="#FEE750"><path d="M11.695-1.663s.406 1.313.526 1.863h.002c.013.064.027.129.041.196.029.14.056.275.081.407-.052.058-.104.117-.152.175-.004.005-.007.009-.009.013-.047.056-.093.112-.137.17-.007.008-.014.017-.02.025-.041.053-.081.105-.119.16-.008.014-.016.028-.026.042-.035.05-.068.1-.102.15-.013.02-.024.04-.037.061-.027.044-.057.09-.084.136-.016.028-.031.055-.047.083-.021.039-.043.079-.064.118-.02.039-.038.077-.057.116-.015.029-.03.059-.044.089-.033.07-.063.14-.091.21-.014-.063-.025-.13-.036-.196-.003-.017-.007-.035-.009-.053-.001-.007-.002-.014-.002-.019-.003-.013-.005-.026-.007-.039 0-.008-.001-.016-.003-.022-.002-.014-.003-.027-.004-.042-.001-.008-.002-.016-.004-.023-.001-.014-.003-.029-.005-.045 0-.007-.001-.015-.003-.021-.001-.021-.003-.039-.004-.06-.001-.004-.001-.009-.002-.013-.003-.025-.005-.051-.007-.076 0-.006 0-.012 0-.017-.003-.021-.005-.042-.006-.063-.001-.008-.001-.018-.001-.026-.002-.019-.004-.038-.005-.058 0-.009-.001-.02-.002-.029 0-.019-.002-.039-.002-.058-.001-.011-.003-.021-.003-.03-.001-.021-.002-.044-.003-.066 0-.008-.001-.016-.001-.024-.001-.031-.002-.062-.005-.094 0-.002 0-.003 0-.005 0-.029-.002-.06-.002-.09 0-.01-.001-.021-.001-.032-.001-.021-.001-.042-.002-.064 0-.014-.002-.026-.002-.038 0-.021 0-.043-.001-.063 0-.013 0-.026-.001-.039 0-.022 0-.044 0-.066 0-.012 0-.024 0-.036-.001-.027-.001-.054-.001-.082 0-.008 0-.016 0-.023-.001-.034-.001-.069 0-.104 0-.012 0-.022 0-.034 0-.023 0-.048.001-.072 0-.015 0-.029 0-.043 0-.021 0-.044 0-.065.001-.016.001-.031.002-.046 0-.021 0-.042 0-.063.002-.016.002-.031.003-.047 0-.023 0-.047.001-.069.001-.013.001-.026.001-.04.001-.035.002-.072.005-.108 0-.01 0-.021.001-.032.001-.025.002-.051.003-.078 0-.015.001-.03.002-.044.002-.022.003-.045.004-.067.001-.016.001-.031.002-.047.001-.021.004-.042.004-.063.002-.017.002-.032.003-.049.001-.021.003-.043.005-.064.001-.016.002-.031.003-.047.002-.025.005-.051.006-.075.001-.012.002-.022.003-.034.05-.154.372-.958.414-1.111zM10.881 1.796c0 .004.001.01.001.016.002.023.004.047.007.069.001.012.002.024.003.038.002.018.005.036.006.055.001.016.003.029.006.045.001.015.002.029.004.043.002.019.005.035.007.054.002.01.003.02.005.03.004.025.008.051.011.074.076.443.179.875.561 1.24 0 0 0-.001 0-.004 0-.001 0-.002 0-.002 0-.002 0-.004 0-.008 0-.002 0-.003.001-.006 0-.003 0-.006 0-.011.001-.002.001-.006.001-.009 0-.005 0-.009 0-.014.001-.004.001-.008.001-.011.001-.007.001-.013.001-.019.001-.004.003-.009.003-.013 0-.008.001-.016.002-.023 0-.005.001-.009.002-.015 0-.012.002-.024.005-.038 0-.002 0-.006 0-.008.002-.015.004-.028.007-.044.001-.006.002-.012.003-.018.002-.011.003-.023.006-.034.002-.008.003-.016.004-.023.003-.012.005-.023.007-.035.002-.009.005-.018.006-.026.002-.013.006-.024.008-.037.002-.009.004-.019.007-.027.002-.014.007-.027.009-.042.002-.009.004-.019.008-.028.003-.015.008-.03.012-.047.003-.01.005-.019.007-.027.007-.023.014-.047.021-.072.001-.004.003-.008.003-.013.008-.023.016-.048.023-.073.004-.009.008-.021.011-.03.007-.018.013-.037.02-.055.004-.013.008-.024.013-.036.007-.018.014-.035.02-.053.006-.013.011-.026.015-.039.008-.019.016-.036.022-.054.006-.014.012-.027.017-.042.008-.018.017-.036.024-.056.006-.013.013-.026.019-.04.01-.021.019-.042.03-.064.005-.012.011-.023.017-.036.016-.032.032-.064.049-.097.002-.006.006-.01.008-.015.016-.031.032-.063.05-.095.007-.013.015-.025.021-.038.014-.023.027-.046.04-.069.009-.015.019-.029.027-.043.013-.022.025-.045.04-.066.009-.016.019-.031.029-.047.013-.021.028-.043.042-.065.011-.016.022-.031.032-.047.016-.022.031-.046.048-.069.011-.015.021-.03.031-.046.02-.024.038-.05.058-.075.01-.013.019-.026.029-.04.029-.038.288-.313.288-.313.233.966.328 1.824-.169 3.479l.169-.368-.006.006c-1.034 2.286-2.165 3.932-3.359 4.894-.106.086-.21.163-.311.233.875-1.145 1.739-3.193 1.795-7.329.034-.15.068-.331.102-.532.005.11.013.214.021.31zM13.506 5.323c-.029 1.094-.243 1.582-.55 1.998l-.004.006-.005.007c-1.635 2.415-3.223 4.104-4.719 5.02-.347.212-.666.368-.956.483.619-.468 1.337-1.101 2.043-1.928.807-.944 1.229-1.897 1.701-2.986.311-.717.533-.891.773-1.292 1.187-1.815 1.202-2.585 1.231-2.714.157.497.344.98.486 1.406z"/></g><path fill="#FEE750" d="M10.234-9.536c.976.202 1.11-.043.894-.356-.263-.38-.889-1.103-1.917-1.788 1.929.831 3.397 2.592 4.153 4.182-.716-.577-2.018-1.44-3.13-2.038z"/></symbol><use xlink:href="#a" width="32" height="30.836" x="-16" y="-15.428" transform="matrix(1 0 0 -1 16 15.99)" overflow="visible"/></svg>