<svg xmlns="http://www.w3.org/2000/svg" xmlns:xlink="http://www.w3.org/1999/xlink" width="32" height="32" viewBox="0 0 32 32"><symbol id="a" viewBox="-16 -13 32 26"><path fill="#999" d="M-15.5 12.5h8.293l4-4h12.707v-3h-21.9l-3.1-13.945z"/><path d="M-7.414 12l3.707-3.707.293-.293h12.414v-2h-21.802l-.174-.783-2.024-9.109v15.892h7.586m.414 1h-9v-26l4 18h22v4h-13l-4 4z"/><path fill="#999" d="M-15.278-12.5l5.625 15h24.931l-5.625-15z"/><path d="M14.557 2l-5.25-14h-23.864l5.25 14h23.864m1.443 1h-26l-6-16h26l6 16z"/></symbol><use xlink:href="#a" width="32" height="26" x="-16" y="-13" transform="matrix(1 0 0 -1 16 16)" overflow="visible"/></svg>