<svg xmlns="http://www.w3.org/2000/svg" width="32" height="32" viewBox="0 0 32 32"><path fill="#FFF" d="M2.438 5.063h7.256l3.5 3.5h11.119v2.625H5.15L2.438 23.39V5.063z"/><path fill="#C8C8C8" d="M9.513 5.5l3.244 3.244.256.256h10.862v1.75H4.798l-.152.686-1.771 7.971V5.5h6.638m.362-.875H2v22.75l3.5-15.75h19.25v-3.5H13.375l-3.5-3.5z"/><path fill="#FFF" d="M2.632 26.938l4.922-13.125h21.813l-4.922 13.125H2.632z"/><path fill="#C8C8C8" d="M28.737 14.25L24.144 26.5H3.263l4.594-12.25h20.88M30 13.375H7.25l-5.25 14h22.75l5.25-14z"/></svg>