<?xml version="1.0" encoding="utf-8"?>
<!-- Generator: Adobe Illustrator 14.0.0, SVG Export Plug-In . SVG Version: 6.00 Build 43363)  -->
<!DOCTYPE svg PUBLIC "-//W3C//DTD SVG 1.1//EN" "http://www.w3.org/Graphics/SVG/1.1/DTD/svg11.dtd">
<svg version="1.1" id="Layer_1" xmlns="http://www.w3.org/2000/svg" xmlns:xlink="http://www.w3.org/1999/xlink" x="0px" y="0px"
	 width="32px" height="32px" viewBox="0 0 32 32" enable-background="new 0 0 32 32" xml:space="preserve">
<g>
	<path fill="#FFFFFF" d="M14.425,29.5l-0.52-3.514l-0.328-0.08c-1.006-0.243-1.972-0.643-2.869-1.188l-0.287-0.174l-2.851,2.114
		l-2.229-2.229l2.117-2.854L7.283,21.29c-0.542-0.89-0.942-1.854-1.188-2.867l-0.08-0.327l-3.513-0.521v-3.153l3.512-0.52
		l0.08-0.327c0.247-1.011,0.647-1.976,1.19-2.867l0.176-0.288L5.341,7.57L7.571,5.34l2.85,2.116l0.288-0.175
		c0.89-0.542,1.855-0.941,2.869-1.188l0.327-0.08l0.52-3.514h3.151l0.528,3.513l0.326,0.08c1.007,0.246,1.972,0.646,2.867,1.188
		l0.287,0.174l2.852-2.114l2.228,2.228l-2.122,2.855l0.176,0.288c0.541,0.885,0.94,1.85,1.189,2.865l0.079,0.327l3.513,0.52v3.158
		L25.991,18.1l-0.08,0.327c-0.245,1.011-0.646,1.976-1.188,2.868l-0.176,0.287l2.117,2.854l-2.232,2.229l-2.854-2.123l-0.288,0.176
		c-0.888,0.541-1.853,0.941-2.866,1.188l-0.327,0.079L17.577,29.5H14.425z M16,11.748c-2.344,0-4.251,1.907-4.251,4.252
		s1.907,4.252,4.251,4.252c2.344,0,4.251-1.907,4.251-4.252S18.344,11.748,16,11.748L16,11.748z"/>
	<path fill="#C8C8C8" d="M17.145,3l0.414,2.755l0.101,0.664l0.651,0.159c0.958,0.233,1.875,0.613,2.727,1.13l0.574,0.349l0.54-0.4
		l2.235-1.658l1.618,1.618l-1.664,2.238l-0.402,0.542l0.352,0.576c0.514,0.842,0.894,1.758,1.13,2.724l0.16,0.653l0.665,0.099
		l2.753,0.407v2.295l-2.747,0.406l-0.666,0.099l-0.159,0.654c-0.233,0.961-0.613,1.878-1.131,2.726l-0.35,0.575l0.4,0.541
		l1.659,2.237l-1.621,1.619l-2.237-1.665l-0.541-0.402l-0.576,0.352c-0.844,0.515-1.761,0.895-2.725,1.129l-0.654,0.159
		l-0.099,0.667L17.146,29h-2.289l-0.407-2.754l-0.099-0.667l-0.655-0.158c-0.957-0.231-1.874-0.612-2.727-1.13l-0.575-0.348
		l-0.54,0.4l-2.235,1.657L6,24.382l1.659-2.236l0.401-0.541L7.71,21.029c-0.515-0.846-0.896-1.762-1.13-2.725L6.421,17.65
		l-0.666-0.099l-2.753-0.407v-2.291l2.753-0.407l0.666-0.099l0.16-0.653c0.234-0.961,0.615-1.878,1.131-2.725l0.351-0.576
		L7.66,9.853L6,7.618l1.619-1.619l2.233,1.658l0.541,0.401l0.575-0.35c0.846-0.515,1.764-0.895,2.728-1.129l0.654-0.16l0.099-0.666
		L14.855,3H17.145 M16,20.752c2.62,0,4.751-2.132,4.751-4.752S18.62,11.248,16,11.248S11.249,13.38,11.249,16
		S13.38,20.752,16,20.752 M18.006,2h-4.014l-0.533,3.607c-1.076,0.262-2.089,0.686-3.01,1.247L7.522,4.682l-2.84,2.84l2.175,2.927
		c-0.562,0.922-0.987,1.934-1.249,3.008l-3.606,0.534v4.016l3.606,0.534c0.262,1.076,0.687,2.089,1.248,3.009l-2.173,2.93
		l2.84,2.838l2.927-2.171c0.922,0.56,1.934,0.985,3.01,1.246L13.993,30h4.016l0.532-3.608c1.075-0.262,2.088-0.686,3.009-1.247
		l2.93,2.18l2.843-2.839l-2.173-2.931c0.562-0.922,0.986-1.933,1.248-3.01l3.604-0.533l-0.004-0.004v-4.016l-3.606-0.534
		c-0.263-1.074-0.687-2.087-1.248-3.007l2.179-2.931l-2.838-2.838l-2.929,2.171c-0.923-0.56-1.935-0.985-3.008-1.247L18.006,2
		L18.006,2z M16,19.752c-2.073,0-3.751-1.681-3.751-3.752c0-2.074,1.68-3.752,3.751-3.752c2.072,0,3.751,1.68,3.751,3.752
		S18.071,19.752,16,19.752L16,19.752z"/>
</g>
</svg>
