<svg xmlns="http://www.w3.org/2000/svg" width="32" height="32" viewBox="0 0 32 32"><path fill="#FFF" d="M14.425 29.5l-.52-3.514-.328-.08a10.082 10.082 0 0 1-2.869-1.188l-.287-.174-2.851 2.114-2.229-2.229 2.117-2.854-.175-.285a10.076 10.076 0 0 1-1.188-2.867l-.08-.327-3.513-.521v-3.153l3.512-.52.08-.327a10.116 10.116 0 0 1 1.19-2.867l.176-.288-2.119-2.85 2.23-2.23 2.85 2.116.288-.175c.89-.542 1.855-.941 2.869-1.188l.327-.08.52-3.514h3.151l.528 3.513.326.08c1.007.246 1.972.646 2.867 1.188l.287.174 2.852-2.114 2.228 2.228-2.122 2.855.176.288c.541.885.94 1.85 1.189 2.865l.079.327 3.513.52v3.158l-3.508.519-.08.327a10.1 10.1 0 0 1-1.188 2.868l-.176.287 2.117 2.854-2.232 2.229-2.854-2.123-.288.176c-.888.541-1.853.941-2.866 1.188l-.327.079-.52 3.515h-3.152zM16 11.748c-2.344 0-4.251 1.907-4.251 4.252s1.907 4.252 4.251 4.252c2.344 0 4.251-1.907 4.251-4.252S18.344 11.748 16 11.748z"/><path fill="#C8C8C8" d="M17.145 3l.414 2.755.101.664.651.159a9.644 9.644 0 0 1 2.727 1.13l.574.349.54-.4 2.235-1.658 1.618 1.618-1.664 2.238-.402.542.352.576a9.584 9.584 0 0 1 1.13 2.724l.16.653.665.099 2.753.407v2.295l-2.747.406-.666.099-.159.654a9.529 9.529 0 0 1-1.131 2.726l-.35.575.4.541 1.659 2.237-1.621 1.619-2.237-1.665-.541-.402-.576.352a9.55 9.55 0 0 1-2.725 1.129l-.654.159-.099.667L17.146 29h-2.289l-.407-2.754-.099-.667-.655-.158a9.581 9.581 0 0 1-2.727-1.13l-.575-.348-.54.4L7.619 26 6 24.382l1.659-2.236.401-.541-.35-.576a9.587 9.587 0 0 1-1.13-2.725l-.159-.654-.666-.099-2.753-.407v-2.291l2.753-.407.666-.099.16-.653a9.597 9.597 0 0 1 1.131-2.725l.351-.576-.403-.54L6 7.618l1.619-1.619 2.233 1.658.541.401.575-.35a9.59 9.59 0 0 1 2.728-1.129l.654-.16.099-.666L14.855 3h2.29M16 20.752c2.62 0 4.751-2.132 4.751-4.752S18.62 11.248 16 11.248 11.249 13.38 11.249 16 13.38 20.752 16 20.752M18.006 2h-4.014l-.533 3.607a10.607 10.607 0 0 0-3.01 1.247L7.522 4.682l-2.84 2.84 2.175 2.927a10.607 10.607 0 0 0-1.249 3.008l-3.606.534v4.016l3.606.534a10.591 10.591 0 0 0 1.248 3.009l-2.173 2.93 2.84 2.838 2.927-2.171c.922.56 1.934.985 3.01 1.246L13.993 30h4.016l.532-3.608a10.613 10.613 0 0 0 3.009-1.247l2.93 2.18 2.843-2.839-2.173-2.931a10.58 10.58 0 0 0 1.248-3.01l3.604-.533-.004-.004v-4.016l-3.606-.534a10.632 10.632 0 0 0-1.248-3.007l2.179-2.931-2.838-2.838-2.929 2.171a10.684 10.684 0 0 0-3.008-1.247L18.006 2zM16 19.752a3.751 3.751 0 1 1 0-7.503 3.751 3.751 0 0 1 0 7.503z"/></svg>