<svg xmlns="http://www.w3.org/2000/svg" xmlns:xlink="http://www.w3.org/1999/xlink" width="32" height="32" viewBox="0 0 32 32"><symbol id="a" viewBox="-16 -16 32 32"><path d="M16-2.295v4.589l-4.123.61c-.3 1.229-.784 2.387-1.426 3.438l2.485 3.349-3.245 3.244-3.348-2.483c-1.054.641-2.209 1.126-3.439 1.425l-.609 4.123h-4.589l-.609-4.123c-1.232-.299-2.388-.784-3.441-1.425l-3.346 2.483-3.246-3.244 2.486-3.348c-.643-1.054-1.128-2.21-1.428-3.439l-4.122-.61v-4.589l4.122-.609c.3-1.23.785-2.387 1.426-3.439l-2.484-3.348 3.246-3.244 3.346 2.483c1.054-.641 2.209-1.126 3.441-1.425l.609-4.123h4.589l.609 4.123c1.231.3 2.387.784 3.44 1.426l3.347-2.484 3.245 3.244-2.485 3.349c.642 1.053 1.127 2.209 1.426 3.438l4.123.609zm-16-1.992c-2.369 0-4.288 1.919-4.288 4.287 0 2.369 1.919 4.288 4.288 4.288 2.368 0 4.287-1.919 4.287-4.288 0-2.368-1.919-4.287-4.287-4.287z"/></symbol><use xlink:href="#a" width="32" height="32" x="-16" y="-16" transform="matrix(1 0 0 -1 16 16)" overflow="visible"/></svg>