<svg xmlns="http://www.w3.org/2000/svg" width="32" height="32" viewBox="0 0 32 32"><circle fill="#fff" cx="16" cy="16" r="14"/><path fill="#808080" d="M16 2c-7.732 0-14 6.268-14 14 0 7.731 6.268 14 14 14s14-6.269 14-14c0-7.732-6.268-14-14-14zm-.686 26.19c-.219-.012-.436-.03-.652-.054 0-2.031 0-4.71 0-5.216 0-.689.345-1.196.345-1.196s.308.507.308 1.196c-.001.425-.001 3.2-.001 5.27zm1.634-.019c-.216.016-.435.027-.653.032 0-2.056 0-4.97 0-5.5 0-.689.343-1.196.343-1.196s.311.507.311 1.196c-.001.439-.001 3.381-.001 5.468zm1.631-.235c-.215.046-.434.087-.652.122 0-2.021 0-4.637 0-5.137 0-.689.345-1.196.345-1.196s.308.507.308 1.196c-.001.407-.001 2.978-.001 5.015zm1.2-.325v-5.529c0-1.188-.711-2.209-1.73-2.663h1.569c1.385 0 2.619-.604 3.486-1.553 1.712.282 3.502.644 4.411 1.039l.215-.494c-.903-.393-2.582-.746-4.229-1.026.027-.039.054-.077.08-.117 1.579.131 3.156.324 4.013.609l.171-.512c-.86-.286-2.371-.482-3.903-.616.308-.627.494-1.323.494-2.068v-1.442c0-1.289-.515-2.458-1.351-3.312v-3.4l-2.816 2.009c-.188-.023-.377-.036-.571-.036h-6.319c-.191 0-.383.013-.569.036l-2.817-2.009v3.4c-.835.854-1.351 2.023-1.351 3.312v1.442c0 .716.17 1.388.455 1.997-1.809.132-3.755.346-4.78.687l.17.512c1.016-.339 3.048-.549 4.895-.677.01.016.016.033.026.049-1.887.296-4.002.704-5.059 1.162l.215.494c1.056-.458 3.296-.873 5.224-1.168.869 1.021 2.147 1.682 3.591 1.682h1.894c-1.019.454-1.731 1.475-1.731 2.663v.02c-.135 0-.372 0-.848 0-1.377 0-2.357-2.372-4.97-2.372 2.141.943 2.612 3.569 4.534 3.569 1.035 0 1.09 0 1.283 0v4.646c-5.523-1.169-9.671-6.072-9.671-11.945 0-6.743 5.467-12.21 12.21-12.21 6.745 0 12.21 5.467 12.21 12.21 0 5.425-3.536 10.02-8.431 11.611z"/></svg>