<?xml version="1.0" encoding="utf-8"?>
<!-- Generator: Adobe Illustrator 14.0.0, SVG Export Plug-In . SVG Version: 6.00 Build 43363)  -->
<!DOCTYPE svg PUBLIC "-//W3C//DTD SVG 1.1//EN" "http://www.w3.org/Graphics/SVG/1.1/DTD/svg11.dtd">
<svg version="1.1" id="Layer_1" xmlns="http://www.w3.org/2000/svg" xmlns:xlink="http://www.w3.org/1999/xlink" x="0px" y="0px"
	 width="32px" height="32px" viewBox="0 0 32 32" enable-background="new 0 0 32 32" xml:space="preserve">
<circle fill="#FFFFFF" cx="16" cy="16" r="14"/>
<path fill="#808080" d="M16,2C8.268,2,2,8.269,2,16c0,7.73,6.269,14,14,14c7.732,0,14-6.27,14-14C30,8.269,23.732,2,16,2z
	 M15.314,28.19c-0.221-0.013-0.436-0.029-0.651-0.055c0-2.03,0-4.71,0-5.216c0-0.689,0.345-1.195,0.345-1.195
	s0.308,0.506,0.308,1.195C15.314,23.346,15.314,26.119,15.314,28.19L15.314,28.19z M16.948,28.17
	c-0.216,0.019-0.435,0.027-0.653,0.032c0-2.057,0-4.97,0-5.499c0-0.69,0.344-1.196,0.344-1.196s0.31,0.507,0.31,1.196
	C16.948,23.143,16.948,26.083,16.948,28.17L16.948,28.17z M18.578,27.936c-0.214,0.048-0.434,0.089-0.65,0.124
	c0-2.021,0-4.638,0-5.138c0-0.683,0.345-1.19,0.345-1.19s0.308,0.508,0.308,1.196c0,0.408,0,2.98,0,5.017L18.578,27.936z
	 M19.777,27.612v-5.524c0-1.187-0.71-2.21-1.73-2.663h1.57c1.385,0,2.621-0.604,3.485-1.552c1.713,0.279,3.502,0.643,4.41,1.039
	l0.217-0.494c-0.903-0.39-2.582-0.745-4.23-1.025c0.027-0.039,0.055-0.076,0.08-0.115c1.58,0.129,3.157,0.324,4.014,0.609
	l0.17-0.513c-0.859-0.285-2.369-0.48-3.902-0.615c0.309-0.627,0.493-1.323,0.493-2.069v-1.44c0-1.29-0.515-2.46-1.35-3.312V6.538
	l-2.816,2.01c-0.188-0.024-0.378-0.038-0.576-0.038h-6.319c-0.189,0-0.383,0.014-0.568,0.037L9.91,6.527v3.399
	c-0.835,0.855-1.35,2.024-1.35,3.313v1.44c0,0.711,0.17,1.391,0.455,1.992c-1.811,0.132-3.756,0.347-4.78,0.688l0.169,0.513
	c1.016-0.341,3.049-0.551,4.895-0.677c0.011,0.015,0.014,0.03,0.023,0.05c-1.887,0.294-4.002,0.702-5.06,1.16l0.216,0.492
	c1.056-0.456,3.296-0.87,5.224-1.166c0.87,1.021,2.147,1.682,3.59,1.682h1.896c-1.021,0.454-1.731,1.475-1.731,2.663v0.019
	c-0.136,0-0.373,0-0.85,0c-1.375,0-2.355-2.371-4.97-2.371c2.142,0.942,2.612,3.569,4.535,3.569c1.036,0,1.09,0,1.283,0v4.646
	C7.94,26.775,3.79,21.874,3.79,16C3.79,9.256,9.256,3.79,16,3.79c6.745,0,12.21,5.467,12.21,12.21c0,5.425-3.536,10.02-8.431,11.609
	L19.777,27.612z"/>
</svg>
