<?xml version="1.0" encoding="utf-8"?>
<!-- Generator: Adobe Illustrator 14.0.0, SVG Export Plug-In . SVG Version: 6.00 Build 43363)  -->
<!DOCTYPE svg PUBLIC "-//W3C//DTD SVG 1.1//EN" "http://www.w3.org/Graphics/SVG/1.1/DTD/svg11.dtd">
<svg version="1.1" id="Layer_1" xmlns="http://www.w3.org/2000/svg" xmlns:xlink="http://www.w3.org/1999/xlink" x="0px" y="0px"
	 width="32px" height="32px" viewBox="0 0 32 32" enable-background="new 0 0 32 32" xml:space="preserve">
<path fill="#00A7BF" d="M31.01,15.987c0,8.283-6.717,14.997-15,14.997c-8.283,0-15-6.714-15-14.997c0-8.283,6.717-14.997,15-14.997
	C24.293,0.99,31.01,7.704,31.01,15.987z"/>
<path fill="none" d="M15.991,1.038c-8.272,0-14.976,6.704-14.976,14.973S7.72,30.985,15.991,30.985
	c8.27,0,14.974-6.703,14.974-14.97C30.966,7.74,24.261,1.037,15.991,1.038L15.991,1.038z M14.246,13.031
	c-0.103,0.114-0.227,0.205-0.365,0.256c-0.056,0.056-0.116,0.075-0.174,0.078c-0.002,0.01-0.003,0.019-0.005,0.025
	c0.028,0.051,0.048,0.104,0.038,0.165c-0.004,0.033-0.023,0.162-0.009,0.059c-0.004,0.028-0.009,0.056-0.016,0.08
	c0.003,0.002,0.004,0.004,0.007,0.009c0.301,0.248-0.127,0.67-0.422,0.422c-0.256-0.216-0.281-0.668-0.184-0.966
	c0.113-0.347,0.426-0.537,0.766-0.635c0.053-0.015,0.1-0.016,0.141-0.009c0.244-0.006,0.412,0.296,0.223,0.51L14.246,13.031z
	 M18.602,13.359c-0.083,0.143-0.268,0.191-0.411,0.108c-0.113-0.065-0.188-0.167-0.229-0.289c-0.05-0.156,0.058-0.326,0.214-0.37
	c0.145-0.04,0.281,0.033,0.346,0.16C18.64,13.059,18.679,13.23,18.602,13.359L18.602,13.359z M19.705,10.149
	c-0.122,0.061-0.232,0.061-0.347,0c-0.146-0.075-0.188-0.274-0.109-0.411c0.061-0.104,0.17-0.15,0.281-0.144
	c0.107-0.007,0.217,0.041,0.276,0.144c0.079,0.137,0.039,0.335-0.107,0.411H19.705z M15.991,1.038
	c-8.272,0-14.976,6.704-14.976,14.973S7.72,30.985,15.991,30.985c8.27,0,14.974-6.703,14.974-14.97
	C30.966,7.74,24.262,1.037,15.991,1.038L15.991,1.038z M14.246,13.031c-0.103,0.114-0.227,0.205-0.365,0.256
	c-0.056,0.056-0.116,0.075-0.174,0.078c-0.002,0.01-0.003,0.019-0.005,0.025c0.028,0.051,0.048,0.104,0.038,0.165
	c-0.004,0.033-0.023,0.162-0.009,0.059c-0.004,0.028-0.009,0.056-0.016,0.08c0.003,0.002,0.004,0.004,0.007,0.009
	c0.301,0.248-0.127,0.67-0.422,0.422c-0.256-0.216-0.281-0.668-0.184-0.966c0.113-0.347,0.426-0.537,0.766-0.635
	c0.053-0.015,0.1-0.016,0.141-0.009c0.244-0.006,0.412,0.296,0.223,0.51L14.246,13.031z M18.602,13.359
	c-0.083,0.143-0.268,0.191-0.411,0.108c-0.113-0.065-0.188-0.167-0.229-0.289c-0.05-0.156,0.058-0.326,0.214-0.37
	c0.145-0.04,0.281,0.033,0.346,0.16C18.64,13.059,18.679,13.23,18.602,13.359L18.602,13.359z M19.705,10.149
	c-0.122,0.061-0.232,0.061-0.347,0c-0.146-0.075-0.188-0.274-0.109-0.411c0.061-0.104,0.17-0.15,0.281-0.144
	c0.107-0.007,0.217,0.041,0.276,0.144c0.079,0.137,0.039,0.335-0.107,0.411H19.705z"/>
<g>
	<path fill="#DCDDDE" d="M25.48,5.091C25.393,5.102,25.516,5.091,25.48,5.091"/>
	<path fill="#DCDDDE" d="M24.117,5.506c0.137,0.303,0.262,0.571,0.621,0.406c0.086-0.028,0.569,0.884,0.636,0.774
		c0.061-0.122-0.072-0.053,0.097-0.053c0.066,0-0.066-0.326-0.053-0.344c0.031-0.041,0.076,0.014,0.1,0.011
		c-0.021,0.004-0.273-0.466-0.246-0.551c0.041-0.108,0.155-0.207,0.174-0.263c0.058,0.039,0.226,0.161,0.245,0.242
		c-0.045-0.086-0.145,0.146-0.068,0.333c0.079,0.245,0.452,0.357,0.673,0.401c0.358,0-0.869-1.087-0.907-1.12
		c0.108-0.035,0.204-0.012,0.284,0.071c-0.06-0.036-0.073-0.063-0.044-0.085c0.01,0-0.221-0.193-0.256-0.213
		c0.154-0.038-0.096-0.122-0.119-0.109c0.009-0.009-0.146-0.151-0.15-0.134c-0.011,0.029-0.327-0.072-0.415,0.054
		c0.019-0.017-0.207,0.311-0.131,0.262c-0.08,0.049-0.441,0.117-0.473,0.195C24.093,5.424,24.105,5.465,24.117,5.506 M24.732,5.328
		c0,0.026,0.063,0.074,0.071,0.102c-0.169,0.026-0.354,0.065-0.646,0.142C24.347,5.486,24.538,5.402,24.732,5.328"/>
	<path fill="#DCDDDE" d="M19.644,18.145c0.036-0.151-0.404-0.399-0.587-0.58c-0.214-0.177-0.169-0.094-0.432-0.112
		c-0.045-0.007-0.503-0.052-0.47-0.033c0.098,0.041-0.245-0.346-0.292-0.379c-0.202-0.121-0.559,0.196-0.546,0.213
		c0.014-0.052,0.011-0.066-0.008-0.048c0.113-0.158,0.385-0.412-0.027-0.372c-0.277,0-0.098,0.331-0.408,0.331
		c0.063,0,0.267-0.371,0.29-0.415c0.254-0.229-0.022-0.281-0.037-0.45c-0.064-0.435-0.253-0.709-0.683-0.796
		c-0.248-0.057-0.304,0.015-0.485-0.186c-0.084-0.113-0.194-0.34-0.339-0.428c-0.06-0.036-0.106,0.022-0.158-0.003
		c-0.135-0.061,0.104-0.195-0.071-0.287c-0.293-0.144-0.057,0.043-0.101-0.179c-0.026-0.134-0.31,0.014-0.365,0.038
		c-0.178,0.113-0.132,0.091-0.333-0.018c-0.121-0.071-0.708-0.138-0.69-0.305c0.002-0.013-0.135,0.392-0.218,0.303
		c-0.144-0.165,0.17-0.252,0.099-0.362c-0.035-0.047-0.502,0.284-0.591,0.31c-0.243,0.083-0.216,0.461-0.406,0.596
		c-0.019,0.015-0.236-0.278-0.301-0.297c-0.176-0.061-0.232,0.074-0.387,0.114c-0.244,0.098-0.404-0.421-0.345-0.639
		c0.087-0.314,0.125-0.575-0.022-0.806c-0.077-0.117-0.735,0.061-0.735-0.041c-0.018-0.167,0.31-0.856,0.431-1.007
		c0.266-0.303-0.258-0.098-0.367-0.085c-0.193,0.05-0.208,0.332-0.292,0.478c-0.151-0.012-0.048,0.048-0.095,0.111
		c-0.082,0.105-0.7,0.089-0.7-0.223c0-0.235-0.169-0.399-0.087-0.677c0.06-0.167,0.244-0.483,0.244-0.644
		c0-0.294,0.536-0.625,0.511-0.737c0.157-0.025,0.838,0.063,0.84,0.06c0.038-0.096-0.071-0.178-0.067-0.236
		c0.021-0.128,0.305-0.036,0.332-0.052c0.112-0.048,0.564,0.039,0.595,0.083c0.138,0.383,0.158,1.466,0.401,0.475
		c0.069-0.331-0.192-0.728,0.124-0.995c0.207-0.156,0.341-0.312,0.543-0.438c0.193-0.159,0.313-0.312,0.399-0.469
		c0.015-0.07,0.005-0.702,0.15-0.632c0.041,0.019-0.173,0.446-0.113,0.476c0.097,0.121,0.262-0.48,0.225-0.459
		c0.113-0.064,0.279-0.266,0.374-0.277c0.093-0.008,0.578-0.282,0.559-0.313c-0.054-0.089-0.048,0.071-0.107-0.003
		c-0.218-0.248,0.991-0.699,0.997-0.685c0.006,0.011-0.469,0.398-0.176,0.398c0.049,0,0.712-0.335,0.718-0.358
		c0.033-0.09-0.3-0.125-0.362-0.175c-0.147-0.123,0.018-0.258-0.042-0.329C16,6.553,15.875,6.671,15.875,6.578
		c0,0.069,0.673-0.413,0.012-0.24c-0.084,0.021-0.461,0.265-0.5,0.21c-0.068-0.099,0.843-0.416,0.918-0.409
		c0.361,0.012,1.088-0.074,1.184-0.499c0.043-0.218-0.338-0.408-0.434-0.564c-0.104-0.217-0.06-0.055-0.06-0.222
		c0-0.072-0.108-0.565-0.163-0.588c-0.126-0.044-0.246,0.45-0.479,0.346c-0.294-0.173,0.132-0.43-0.172-0.474
		c-0.189-0.04-0.305-0.214-0.624-0.182c-0.141,0.014-0.209,0.463-0.371,0.583c-0.045,0.03,0.12,0.506-0.042,0.506
		c-0.15,0-0.525,0.295-0.533,0.418c-0.008,0.09-0.171,0.668-0.366,0.505c-0.237-0.212,0.16-0.547,0.09-0.714
		c-0.003-0.008-0.983-0.404-1.007-0.272c0.045-0.237,0.094-0.193-0.028-0.335c-0.07-0.07,0.839-0.898,0.841-0.848
		c0,0.089,0.966-0.515,0.963-0.515c0.194,0.085,0.744-0.309,0.664-0.435c-0.122-0.274-0.471,0.148-0.563,0.204
		c-0.438,0.256-0.101-0.111-0.178-0.167c-0.087-0.075-0.157,0.163-0.212,0.13c-0.06-0.026,0.113-0.158,0.064-0.198
		c-0.02-0.02-0.103,0.036-0.106,0.022c-0.016-0.041,0.247-0.336-0.033-0.336c-0.072,0.018-0.364,0.212-0.349,0.299
		c0.004,0.018,0.136,0.032,0.136,0.064c0,0.091-0.117,0.026-0.133,0.093c-0.008,0.047,0.117,0.02,0.095,0.048
		c-0.005,0.01-0.461,0.175-0.376,0.242c-0.072-0.034,0.073-0.15,0.065-0.172c0.028,0.124-1.241,0.098-1.197,0.152
		c0.012,0.02,0.251-0.064,0.248-0.027c0.002-0.019-0.269,0.165-0.304,0.21c0.119-0.123-0.612-0.003-0.596,0.009
		c-0.082-0.149,0.247-0.07,0.187-0.205c-0.057-0.112-0.791,0.061-0.78,0.069c0.005-0.034,0.001-0.066-0.011-0.097
		c-0.048-0.039-0.141,0.196-0.193,0.108c-0.002-0.041,0.005-0.081,0.02-0.12c0.017,0.036-0.772,0.428-0.772,0.428
		c-0.026-0.086,0.412-0.269,0.477-0.321c-0.234,0-0.531,0.26-0.713,0.369c-0.097,0.063-0.521-0.013-0.65,0.021
		C9.604,3.741,9.332,3.706,9.11,3.864c-0.315,0.206-0.668,0.438-1.007,0.62c0.004-0.003-0.321,0.124-0.321,0.2
		C7.791,4.618,7.851,4.88,7.786,4.821c0,0.032,0.085-0.084,0.066-0.022C7.845,4.85,7.66,5.04,7.608,5.014
		C7.579,5.001,7.681,4.922,7.682,4.919C7.663,5.034,7.108,5.133,7.09,5.307c0,0.016,0.084-0.018,0.084-0.017
		c-0.028,0.035-0.098,0.056-0.122,0.1c0.006-0.016,0.325-0.096,0.369-0.149C7.325,5.359,6.166,6.104,6.293,6.274
		C6.3,6.285,6.509,6.157,6.509,6.159C6.502,6.232,6.223,6.39,6.242,6.448c0.004,0.012,0.247-0.149,0.261-0.12
		C6.504,6.351,6.495,6.371,6.475,6.39C6.446,6.382,6.74,6.226,6.735,6.237c0,0.272-1.113,0.771-1.318,0.973
		c0.201,0.025,2.46-1.535,2.429-1.698c0.028,0.075-0.524,0.315-0.53,0.445c0-0.335,1.476-0.647,1.393-0.278
		c0.007-0.035-0.27,0.357-0.188,0.336C8.614,6.001,8.878,5.62,8.869,5.61c0.038,0.077-0.21,0.867-0.284,0.871
		c0.024,0,0.071-0.109,0.089-0.059C8.695,6.494,8.519,6.84,8.53,6.85c0.112,0.069,0.245,0.099,0.22,0.302
		c0,0.244-0.305,0.118-0.334,0.141C8.289,7.381,8.102,7.944,7.963,8.106c-0.189,0.207-0.312,0.462-0.46,0.705
		c-0.101,0.168-0.18,1.077-0.076,1.14c0.279,0.161,0.216,0.163,0.259,0.573c0.01,0.162,0.012,0.283,0.067,0.422
		c0.078,0.229-0.077,0.088-0.168,0.219c0.079-0.132,0.515,0.92,0.475,0.922c0.105,0-0.2-1.743-0.125-1.729
		c0.253,0.038,0.318,0.922,0.349,1.134c0.046,0.289,0.394,0.395,0.378,0.729c-0.012,0.208-0.022,0.377,0.019,0.565
		c0.023,0.167,0.991,0.766,1.216,0.673c0.359-0.146,0.302-0.07,0.564,0.269c0.098,0.121,0.689,0.18,0.691,0.183
		c0.116,0.164,0.256,0.852,0.366,0.68c0.014-0.028,0.171,0.386,0.167,0.379c0.08,0.042,0.109,0.029,0.084-0.041
		c0.081,0.034,0.249,0.104,0.335,0.195c0.16,0.178,0.111-0.067,0.163-0.121c0.291-0.292,0.311,0.036,0.418,0.337
		c0.104,0.297-0.083,1.075-0.322,1.236c-0.086,0.049-0.283,0.274-0.319,0.396c-0.121,0.302,0.18,0.324,0.188,0.45
		c0,0.13-0.274,0.226-0.231,0.396c0.066,0.262,0.253,0.349,0.313,0.548c0.207,0.532,0.484,1.319,0.839,1.759
		c0.258,0.395,0.834,0.444,0.941,0.917c0.162,0.504,0.021,1.111,0.103,1.637c0.135,0.835-0.001,1.797,0.167,2.664
		c0.06,0.246,0.436,0.39,0.33,0.685c0.01-0.03,0.052,0.367,0.048,0.357c0.021,0.216,0.149,0.363,0.169,0.469
		c0,0.168-0.038,0.41,0.153,0.567c0.096,0.125,0.409,0.395,0.442,0.379c-0.057,0.026-0.132-0.159-0.172-0.075
		c-0.04,0.078,0.083,0.093,0.084,0.114c-0.02,0.006-0.04,0.012-0.059,0.021c0,0.238,0.467-0.229,0.459-0.214
		c0.038-0.082-0.258-0.21-0.09-0.428c0.117-0.149,0.164-0.476,0.027-0.542c-0.308-0.104,0.024-0.724,0.042-0.88
		c0-0.032-0.303-0.218-0.21-0.326c-0.003,0.004,0.353-0.029,0.374-0.052c-0.071-0.377,0.135-0.276,0.413-0.371
		c0.544-0.238-0.101-0.901-0.067-0.919c0.083-0.052,0.417,0.228,0.597,0.109c0.168-0.139,0.426-0.633,0.468-0.84
		c0.044-0.192,0.177-0.328,0.229-0.509c0.07-0.237-0.133-0.439,0.073-0.638c0.206-0.215,0.497-0.472,0.813-0.46
		c0.421,0.017,0.563-1.495,0.521-1.772C18.906,19.36,19.772,18.927,19.644,18.145"/>
	<path fill="#DCDDDE" d="M30.864,15.954c-0.028,0.01-0.784-0.022-0.699-0.106c-0.013,0.009-0.466-0.653-0.436-0.678
		c0.042-0.031,0.327-0.675,0.327-0.825c0-0.12,0.012-0.881,0.201-0.739c-0.118-0.204-0.372-0.822-0.59-0.862
		c0.012-0.099-0.652-1.214-0.66-1.21c0.018-0.011,0.21,0.374,0.257,0.386c0.088,0.022,0.017-0.237,0.024-0.28
		c0,0.11,0.29,0.006,0.294,0c0.063-0.094-0.129-0.168-0.139-0.223c-0.019-0.079,0.179-0.044,0.204-0.111
		c-0.234-0.324,0.186-0.141,0.037-0.432c-0.167-0.342,0.143-0.167,0.262-0.159c-0.063-0.08-0.143-0.308-0.229-0.342
		c0.038,0.023,0.119,0.071,0.144,0.1c-0.006-0.014-0.215-0.364-0.243-0.378c0.035,0.023,0.039,0.025,0.011,0.005
		c0.044,0.01,0.087,0.023,0.128,0.042c0.061-0.035-0.6-0.553-0.762-0.553c0.457,0.172,0.122,0.291-0.202,0.162
		c-0.114,0.051-0.654-0.354-0.852-0.255c-0.05,0.02,0.055,0.1,0.053,0.097c0.019,0.051-0.304-0.057-0.314-0.019
		c-0.023,0.118,0.216,0.203,0.151,0.283c-0.029,0.029-0.136-0.045-0.14-0.033c-0.022,0.076,0.521,0.489,0.609,0.521
		c0.149,0.045,0.477,0.075,0.723,0.104c-0.045,0.184,0.346,0.96-0.075,0.813c-0.466-0.18-0.927-0.133-1.356-0.536
		c-0.333-0.324-0.082,0.521-0.404,0.276c-0.233-0.195-0.525-0.324-0.734-0.529c-0.137-0.109-0.454-0.104-0.488-0.304
		c-0.018-0.094,0.115-0.342,0.021-0.493c-0.067-0.12-0.705-0.118-0.878-0.15c-0.517-0.122-0.759,0.342-1.27-0.021
		c0.051-0.051,0.558-0.165,0.589-0.165c0.169,0,0.104-0.294,0.104-0.382c0-0.275,0.319-0.213,0.252-0.462
		c-0.018-0.065,0.446,0.021,0.553-0.138c0.007-0.021,0.644,0.617,0.725,0.664c0.245,0.119,0.426,0.637,0.521,0.671
		c0.112-0.169-0.103-0.369-0.032-0.432c0.011-0.012,0.167,0.12,0.198,0.12c-0.125-0.232-1.132-0.771-0.989-1.101
		c0.037,0.009,0.059-0.005,0.068-0.042c0.226,0.054,1.475,1.897,1.729,1.72c0.069-0.031-0.112-0.157-0.119-0.162
		c0.033,0.038,0.065,0.045,0.097,0.024c-0.008,0.04-0.354-0.418-0.3-0.408c0.032,0.007,0.074,0.101,0.103,0.119
		c0.021,0.007,0.406-0.059,0.597,0.026c0-0.105-0.463-0.497-0.302-0.651c0.028,0.002,0.058,0.005,0.086,0.01
		C27.699,8.835,27.68,8.77,27.74,8.705c-0.014,0.01,0.326,0.175,0.325,0.173c0.024,0.035,0.156,0.391,0.369,0.273
		c-0.012,0-0.254-0.192-0.286-0.239c0.012,0.018,0.315-0.024,0.339-0.046c0.156-0.164-0.257-0.26-0.35-0.368
		c-0.079-0.074-1.098-0.789-1.058-0.802c0.02,0.023,0.041,0.03,0.066,0.02c-0.068-0.353-0.64-0.518-0.744-0.871
		c0.153-0.221-0.404-0.363-0.399-0.389c-0.02,0.101,0.224,0.196,0.224,0.316c0-0.015-0.362-0.311-0.194,0.12
		c0.13,0.287-0.291,0.001-0.369,0.007c-0.214,0.022-0.868-0.152-0.697-0.451c0.006-0.019-0.113-0.234-0.137-0.247
		c-0.262-0.162,0.042,0.598,0.045,0.599c-0.117-0.027-0.244-0.134-0.385-0.024c-0.057,0.059,0.034,0.195,0.036,0.248
		c-0.028-0.259-0.354,0.301-0.304,0.244c-0.044,0.053-0.255-0.153-0.281-0.141c-0.072,0.02,0.078,0.14,0.049,0.186
		c0.001-0.003-0.371-0.081-0.359-0.043c0,0.164,0.489,0.447,0.556,0.709c0,0.628-0.686-0.116-0.955,0.131
		c-0.067,0.082,0.137,1.279,0.347,1.148c0.25-0.083,0.227,0.466,0.124,0.587c-0.138,0.2-0.364,0.015-0.328,0.3
		c0.012,0.076,0.041,0.37,0.024,0.43c-0.081,0.311-0.47,0.417-0.62,0.699c-0.099,0.163-0.339,0.742-0.339,0.944
		c0.107,0.241,0.225,0.531,0.208,0.779c-0.015,0.308-0.347,0.671-0.031,0.848c-0.309,0.105,0.441,0.811,0.441,1.021
		c0,0.438,0.765,0.984,1.063,0.84c0.31-0.184,0.59,0.142,0.835-0.059c0.205-0.131,0.395-0.202,0.643-0.202
		c0.332,0,0.209,0.3,0.431,0.424c0.096,0.051,0.259-0.183,0.371-0.024c0.202,0.228-0.009,0.48,0.097,0.663
		c-0.011,0.002-0.014-0.004-0.012-0.017c-0.108,0.581,0.24,1.151,0.379,1.64c0.216,0.777-0.365,1.195-0.365,1.973
		c0,0.156,0.136,0.597,0.211,0.751c0.147,0.295-0.228,0.813-0.009,1.109c0.362,0.45-0.354,1.016,0.359,0.866
		c0.577-0.323,1.037-0.485,1.465-1.089c0.15-0.215,0.293-0.586,0.478-0.763c0.158-0.172,0.628-0.483,0.431-0.812
		c-0.022-0.102,0.389-0.543,0.535-0.616c0.398-0.28,0.483-0.627,0.578-1.09c-0.014,0.049-0.082-0.7-0.074-0.682
		c-0.069-0.176,0.066-0.28,0.09-0.448c0.058-0.179,0.16-0.29,0.26-0.447C30.673,16.912,30.759,15.954,30.864,15.954 M26.549,8.926
		C26.579,8.927,26.543,8.961,26.549,8.926"/>
	<path fill="#DCDDDE" d="M23.619,9.26C23.605,9.233,23.624,9.265,23.619,9.26"/>
	<path fill="#DCDDDE" d="M27.708,8.877C27.708,8.879,27.71,8.884,27.708,8.877"/>
</g>
</svg>
