<svg xmlns="http://www.w3.org/2000/svg" width="32" height="32" viewBox="0 0 32 32"><path fill="#00A7BF" d="M31.01 15.987c0 8.283-6.717 14.997-15 14.997-8.283 0-15-6.714-15-14.997S7.727.99 16.01.99c8.283 0 15 6.714 15 14.997z"/><path fill="none" d="M15.991 1.038c-8.272 0-14.976 6.704-14.976 14.973S7.72 30.985 15.991 30.985c8.27 0 14.974-6.703 14.974-14.97.001-8.275-6.704-14.978-14.974-14.977zm-1.745 11.993a.938.938 0 0 1-.365.256.254.254 0 0 1-.174.078l-.005.025a.25.25 0 0 1 .038.165.863.863 0 0 1-.009.059.596.596 0 0 1-.016.08c.003.002.004.004.007.009.301.248-.127.67-.422.422-.256-.216-.281-.668-.184-.966.113-.347.426-.537.766-.635a.316.316 0 0 1 .141-.009.304.304 0 0 1 .223.51v.006zm4.356.328a.301.301 0 0 1-.411.108.51.51 0 0 1-.229-.289c-.05-.156.058-.326.214-.37a.296.296 0 0 1 .346.16.305.305 0 0 1 .08.391zm1.103-3.21a.352.352 0 0 1-.347 0c-.146-.075-.188-.274-.109-.411a.298.298 0 0 1 .281-.144.292.292 0 0 1 .276.144c.079.137.039.335-.107.411h.006zm-3.714-9.111c-8.272 0-14.976 6.704-14.976 14.973S7.72 30.985 15.991 30.985c8.27 0 14.974-6.703 14.974-14.97.001-8.275-6.703-14.978-14.974-14.977zm-1.745 11.993a.938.938 0 0 1-.365.256.254.254 0 0 1-.174.078l-.005.025a.25.25 0 0 1 .038.165.863.863 0 0 1-.009.059.596.596 0 0 1-.016.08c.003.002.004.004.007.009.301.248-.127.67-.422.422-.256-.216-.281-.668-.184-.966.113-.347.426-.537.766-.635a.316.316 0 0 1 .141-.009.304.304 0 0 1 .223.51v.006zm4.356.328a.301.301 0 0 1-.411.108.51.51 0 0 1-.229-.289c-.05-.156.058-.326.214-.37a.296.296 0 0 1 .346.16.305.305 0 0 1 .08.391zm1.103-3.21a.352.352 0 0 1-.347 0c-.146-.075-.188-.274-.109-.411a.298.298 0 0 1 .281-.144.292.292 0 0 1 .276.144c.079.137.039.335-.107.411h.006z"/><g fill="#DCDDDE"><path d="M25.48 5.091c-.087.011.036 0 0 0M24.117 5.506c.137.303.262.571.621.406.086-.028.569.884.636.774.061-.122-.072-.053.097-.053.066 0-.066-.326-.053-.344.031-.041.076.014.1.011-.021.004-.273-.466-.246-.551.041-.108.155-.207.174-.263.058.039.226.161.245.242-.045-.086-.145.146-.068.333.079.245.452.357.673.401.358 0-.869-1.087-.907-1.12a.258.258 0 0 1 .284.071c-.06-.036-.073-.063-.044-.085.01 0-.221-.193-.256-.213.154-.038-.096-.122-.119-.109.009-.009-.146-.151-.15-.134-.011.029-.327-.072-.415.054.019-.017-.207.311-.131.262-.08.049-.441.117-.473.195.008.041.02.082.032.123m.615-.178c0 .026.063.074.071.102a6.098 6.098 0 0 0-.646.142c.19-.086.381-.17.575-.244M19.644 18.145c.036-.151-.404-.399-.587-.58-.214-.177-.169-.094-.432-.112-.045-.007-.503-.052-.47-.033.098.041-.245-.346-.292-.379-.202-.121-.559.196-.546.213.014-.052.011-.066-.008-.048.113-.158.385-.412-.027-.372-.277 0-.098.331-.408.331.063 0 .267-.371.29-.415.254-.229-.022-.281-.037-.45-.064-.435-.253-.709-.683-.796-.248-.057-.304.015-.485-.186-.084-.113-.194-.34-.339-.428-.06-.036-.106.022-.158-.003-.135-.061.104-.195-.071-.287-.293-.144-.057.043-.101-.179-.026-.134-.31.014-.365.038-.178.113-.132.091-.333-.018-.121-.071-.708-.138-.69-.305.002-.013-.135.392-.218.303-.144-.165.17-.252.099-.362-.035-.047-.502.284-.591.31-.243.083-.216.461-.406.596-.019.015-.236-.278-.301-.297-.176-.061-.232.074-.387.114-.244.098-.404-.421-.345-.639.087-.314.125-.575-.022-.806-.077-.117-.735.061-.735-.041-.018-.167.31-.856.431-1.007.266-.303-.258-.098-.367-.085-.193.05-.208.332-.292.478-.151-.012-.048.048-.095.111-.082.105-.7.089-.7-.223 0-.235-.169-.399-.087-.677.06-.167.244-.483.244-.644 0-.294.536-.625.511-.737.157-.025.838.063.84.06.038-.096-.071-.178-.067-.236.021-.128.305-.036.332-.052.112-.048.564.039.595.083.138.383.158 1.466.401.475.069-.331-.192-.728.124-.995.207-.156.341-.312.543-.438a1.58 1.58 0 0 0 .399-.469c.015-.07.005-.702.15-.632.041.019-.173.446-.113.476.097.121.262-.48.225-.459.113-.064.279-.266.374-.277.093-.008.578-.282.559-.313-.054-.089-.048.071-.107-.003-.218-.248.991-.699.997-.685.006.011-.469.398-.176.398.049 0 .712-.335.718-.358.033-.09-.3-.125-.362-.175-.147-.123.018-.258-.042-.329-.031-.048-.156.07-.156-.023 0 .069.673-.413.012-.24-.084.021-.461.265-.5.21-.068-.099.843-.416.918-.409.361.012 1.088-.074 1.184-.499.043-.218-.338-.408-.434-.564-.104-.217-.06-.055-.06-.222 0-.072-.108-.565-.163-.588-.126-.044-.246.45-.479.346-.294-.173.132-.43-.172-.474-.189-.04-.305-.214-.624-.182-.141.014-.209.463-.371.583-.045.03.12.506-.042.506-.15 0-.525.295-.533.418-.008.09-.171.668-.366.505-.237-.212.16-.547.09-.714-.003-.008-.983-.404-1.007-.272.045-.237.094-.193-.028-.335-.07-.07.839-.898.841-.848 0 .089.966-.515.963-.515.194.085.744-.309.664-.435-.122-.274-.471.148-.563.204-.438.256-.101-.111-.178-.167-.087-.075-.157.163-.212.13-.06-.026.113-.158.064-.198-.02-.02-.103.036-.106.022-.016-.041.247-.336-.033-.336-.072.018-.364.212-.349.299.004.018.136.032.136.064 0 .091-.117.026-.133.093-.008.047.117.02.095.048-.005.01-.461.175-.376.242-.072-.034.073-.15.065-.172.028.124-1.241.098-1.197.152.012.02.251-.064.248-.027.002-.019-.269.165-.304.21.119-.123-.612-.003-.596.009-.082-.149.247-.07.187-.205-.057-.112-.791.061-.78.069a.188.188 0 0 0-.011-.097c-.048-.039-.141.196-.193.108a.292.292 0 0 1 .02-.12c.017.036-.772.428-.772.428-.026-.086.412-.269.477-.321-.234 0-.531.26-.713.369-.097.063-.521-.013-.65.021-.29.067-.562.032-.784.19-.315.206-.668.438-1.007.62.004-.003-.321.124-.321.2.009-.066.069.196.004.137 0 .032.085-.084.066-.022-.007.051-.192.241-.244.215-.029-.013.073-.092.074-.095-.019.115-.574.214-.592.388 0 .016.084-.018.084-.017-.028.035-.098.056-.122.1.006-.016.325-.096.369-.149-.096.118-1.255.863-1.128 1.033.007.011.216-.117.216-.115-.007.073-.286.231-.267.289.004.012.247-.149.261-.12.001.023-.008.043-.028.062-.029-.008.265-.164.26-.153 0 .272-1.113.771-1.318.973.201.025 2.46-1.535 2.429-1.698.028.075-.524.315-.53.445 0-.335 1.476-.647 1.393-.278.007-.035-.27.357-.188.336.093-.014.357-.395.348-.405.038.077-.21.867-.284.871.024 0 .071-.109.089-.059.021.072-.155.418-.144.428.112.069.245.099.22.302 0 .244-.305.118-.334.141-.127.088-.314.651-.453.813-.189.207-.312.462-.46.705-.101.168-.18 1.077-.076 1.14.279.161.216.163.259.573.01.162.012.283.067.422.078.229-.077.088-.168.219.079-.132.515.92.475.922.105 0-.2-1.743-.125-1.729.253.038.318.922.349 1.134.046.289.394.395.378.729-.012.208-.022.377.019.565.023.167.991.766 1.216.673.359-.146.302-.07.564.269.098.121.689.18.691.183.116.164.256.852.366.68.014-.028.171.386.167.379.08.042.109.029.084-.041.081.034.249.104.335.195.16.178.111-.067.163-.121.291-.292.311.036.418.337.104.297-.083 1.075-.322 1.236-.086.049-.283.274-.319.396-.121.302.18.324.188.45 0 .13-.274.226-.231.396.066.262.253.349.313.548.207.532.484 1.319.839 1.759.258.395.834.444.941.917.162.504.021 1.111.103 1.637.135.835-.001 1.797.167 2.664.06.246.436.39.33.685.01-.03.052.367.048.357.021.216.149.363.169.469 0 .168-.038.41.153.567.096.125.409.395.442.379-.057.026-.132-.159-.172-.075-.04.078.083.093.084.114-.02.006-.04.012-.059.021 0 .238.467-.229.459-.214.038-.082-.258-.21-.09-.428.117-.149.164-.476.027-.542-.308-.104.024-.724.042-.88 0-.032-.303-.218-.21-.326-.003.004.353-.029.374-.052-.071-.377.135-.276.413-.371.544-.238-.101-.901-.067-.919.083-.052.417.228.597.109.168-.139.426-.633.468-.84.044-.192.177-.328.229-.509.07-.237-.133-.439.073-.638.206-.215.497-.472.813-.46.421.017.563-1.495.521-1.772-.102-.658.764-1.091.636-1.873"/><path d="M30.864 15.954c-.028.01-.784-.022-.699-.106-.013.009-.466-.653-.436-.678.042-.031.327-.675.327-.825 0-.12.012-.881.201-.739-.118-.204-.372-.822-.59-.862.012-.099-.652-1.214-.66-1.21.018-.011.21.374.257.386.088.022.017-.237.024-.28 0 .11.29.006.294 0 .063-.094-.129-.168-.139-.223-.019-.079.179-.044.204-.111-.234-.324.186-.141.037-.432-.167-.342.143-.167.262-.159-.063-.08-.143-.308-.229-.342.038.023.119.071.144.1-.006-.014-.215-.364-.243-.378.035.023.039.025.011.005a.64.64 0 0 1 .128.042c.061-.035-.6-.553-.762-.553.457.172.122.291-.202.162-.114.051-.654-.354-.852-.255-.05.02.055.1.053.097.019.051-.304-.057-.314-.019-.023.118.216.203.151.283-.029.029-.136-.045-.14-.033-.022.076.521.489.609.521.149.045.477.075.723.104-.045.184.346.96-.075.813-.466-.18-.927-.133-1.356-.536-.333-.324-.082.521-.404.276-.233-.195-.525-.324-.734-.529-.137-.109-.454-.104-.488-.304-.018-.094.115-.342.021-.493-.067-.12-.705-.118-.878-.15-.517-.122-.759.342-1.27-.021.051-.051.558-.165.589-.165.169 0 .104-.294.104-.382 0-.275.319-.213.252-.462-.018-.065.446.021.553-.138.007-.021.644.617.725.664.245.119.426.637.521.671.112-.169-.103-.369-.032-.432.011-.012.167.12.198.12-.125-.232-1.132-.771-.989-1.101.037.009.059-.005.068-.042.226.054 1.475 1.897 1.729 1.72.069-.031-.112-.157-.119-.162.033.038.065.045.097.024-.008.04-.354-.418-.3-.408.032.007.074.101.103.119.021.007.406-.059.597.026 0-.105-.463-.497-.302-.651a.84.84 0 0 1 .086.01c-.02-.081-.039-.146.021-.211-.014.01.326.175.325.173.024.035.156.391.369.273a1.98 1.98 0 0 1-.286-.239c.012.018.315-.024.339-.046.156-.164-.257-.26-.35-.368-.079-.074-1.098-.789-1.058-.802.02.023.041.03.066.02-.068-.353-.64-.518-.744-.871.153-.221-.404-.363-.399-.389-.02.101.224.196.224.316 0-.015-.362-.311-.194.12.13.287-.291.001-.369.007-.214.022-.868-.152-.697-.451a.917.917 0 0 0-.137-.247c-.262-.162.042.598.045.599-.117-.027-.244-.134-.385-.024-.057.059.034.195.036.248-.028-.259-.354.301-.304.244-.044.053-.255-.153-.281-.141-.072.02.078.14.049.186.001-.003-.371-.081-.359-.043 0 .164.489.447.556.709 0 .628-.686-.116-.955.131-.067.082.137 1.279.347 1.148.25-.083.227.466.124.587-.138.2-.364.015-.328.3.012.076.041.37.024.43-.081.311-.47.417-.62.699-.099.163-.339.742-.339.944.107.241.225.531.208.779-.015.308-.347.671-.031.848-.309.105.441.811.441 1.021 0 .438.765.984 1.063.84.31-.184.59.142.835-.059.205-.131.395-.202.643-.202.332 0 .209.3.431.424.096.051.259-.183.371-.024.202.228-.009.48.097.663-.011.002-.014-.004-.012-.017-.108.581.24 1.151.379 1.64.216.777-.365 1.195-.365 1.973 0 .156.136.597.211.751.147.295-.228.813-.009 1.109.362.45-.354 1.016.359.866.577-.323 1.037-.485 1.465-1.089.15-.215.293-.586.478-.763.158-.172.628-.483.431-.812-.022-.102.389-.543.535-.616.398-.28.483-.627.578-1.09-.014.049-.082-.7-.074-.682-.069-.176.066-.28.09-.448.058-.179.16-.29.26-.447-.15.029-.064-.929.041-.929m-4.315-7.028c.03.001-.006.035 0 0M23.619 9.26c-.014-.027.005.005 0 0M27.708 8.877c0 .002.002.007 0 0"/></g></svg>