<svg xmlns="http://www.w3.org/2000/svg" xmlns:xlink="http://www.w3.org/1999/xlink" width="32" height="32" viewBox="0 0 32 32"><symbol id="a" viewBox="-13.568 -14 27.136 28"><g fill="#CF3E2B"><path d="M4.62 14.001h-8.583c-5.268 0-7.764-3.078-7.764-6.587 0-3.793 2.547-6.342 6.337-6.342.15 0 .307.004.481.011-.129-.725-.098-1.203.023-1.873.057-.317.401-.945.885-1.446-.089-.001-.492 0-.583-.001-.246-.004-.495-.008-.757-.008-4.922 0-8.228-3.396-8.228-6.568 0-3.006 3.103-5.187 8.266-5.187 4.977 0 9.268 3.757 9.268 6.673 0 2.399-1.098 4.139-2.962 5.479-1.865 1.34-2.323 1.729-2.323 2.358 0 .828.204 1.229 1.564 2.289 1.62 1.268 2.477 2.823 2.477 4.5 0 1.867-.405 3.699-2.678 5.289h2.896l1.681 1.413zm-3.283-21.997c0-2.724-2.015-3.978-6.103-3.978-3.174 0-5.632 1.737-5.632 4.144 0 2.295 2.493 4.192 5.826 4.192 2.824 0 5.909-2.482 5.909-4.358zm-3.251 11.017c-.574-.542-1.336-.782-2.198-.699l-.111.013c-2.303.292-4.109 2.649-4.207 5.482-.058 1.64.438 3.079 1.362 3.945.639.601 1.425.874 2.275.792l.093-.011c2.147-.274 3.848-2.778 3.952-5.828.057-1.622-.357-2.936-1.166-3.694zM10.316 2.354v3.25h-1.87v-3.25h-3.25v-1.87h3.251v-3.251h1.869v3.251h3.251v1.87z"/></g></symbol><use xlink:href="#a" width="27.136" height="28" x="-13.568" y="-14" transform="matrix(1 0 0 -1 16 16)" overflow="visible"/></svg>