<?xml version="1.0" encoding="utf-8"?>
<!-- Generator: Adobe Illustrator 14.0.0, SVG Export Plug-In . SVG Version: 6.00 Build 43363)  -->
<!DOCTYPE svg PUBLIC "-//W3C//DTD SVG 1.1//EN" "http://www.w3.org/Graphics/SVG/1.1/DTD/svg11.dtd">
<svg version="1.1" id="Layer_1" xmlns="http://www.w3.org/2000/svg" xmlns:xlink="http://www.w3.org/1999/xlink" x="0px" y="0px"
	 width="32px" height="32px" viewBox="0 0 32 32" enable-background="new 0 0 32 32" xml:space="preserve">
<g>
	<path fill="#CF3E2B" d="M20.622,2.001H12.04c-5.268,0-7.764,3.077-7.764,6.585c0,3.792,2.547,6.341,6.337,6.341
		c0.15,0,0.307-0.004,0.48-0.01c-0.127,0.722-0.096,1.202,0.025,1.872c0.057,0.317,0.4,0.945,0.885,1.446c-0.09,0-0.493,0-0.584,0
		c-0.246,0.005-0.495,0.01-0.757,0.01c-4.928,0-8.229,3.395-8.229,6.566c0,3.007,3.099,5.187,8.261,5.187
		c4.979,0,9.269-3.757,9.269-6.672c0-2.4-1.098-4.141-2.96-5.48c-1.86-1.34-2.32-1.727-2.32-2.356c0-0.828,0.204-1.23,1.564-2.29
		c1.619-1.266,2.476-2.82,2.476-4.5c0-1.866-0.404-3.698-2.677-5.288h2.896L20.622,2.001z M17.339,23.994
		c0,2.724-2.015,3.978-6.103,3.978c-3.174,0-5.632-1.736-5.632-4.144c0-2.299,2.493-4.196,5.826-4.196
		c2.823,0,5.909,2.482,5.909,4.357L17.339,23.994z M14.089,12.98c-0.575,0.539-1.337,0.779-2.199,0.697l-0.11-0.013
		c-2.303-0.292-4.11-2.65-4.207-5.482c-0.058-1.64,0.438-3.08,1.362-3.944c0.64-0.601,1.425-0.874,2.275-0.792l0.093,0.01
		c2.146,0.275,3.848,2.78,3.952,5.83c0.057,1.62-0.357,2.934-1.166,3.692L14.089,12.98z M26.318,13.646v-3.25h-1.87v3.25h-3.25
		v1.869h3.25v3.25h1.87v-3.25h3.25v-1.869H26.318z"/>
</g>
</svg>
