<?xml version="1.0" encoding="utf-8"?>
<!-- Generator: Adobe Illustrator 14.0.0, SVG Export Plug-In . SVG Version: 6.00 Build 43363)  -->
<!DOCTYPE svg PUBLIC "-//W3C//DTD SVG 1.1//EN" "http://www.w3.org/Graphics/SVG/1.1/DTD/svg11.dtd">
<svg version="1.1" id="Layer_1" xmlns="http://www.w3.org/2000/svg" xmlns:xlink="http://www.w3.org/1999/xlink" x="0px" y="0px"
	 width="32px" height="32px" viewBox="0 0 32 32" enable-background="new 0 0 32 32" xml:space="preserve">
<g>
	<path fill="#FFFFFF" d="M19.125,27.75v-7.875h-6.25v7.875H7.75v-9.604L16,9.896l8.25,8.25v9.604H19.125z M26.288,17.25
		L16.125,7.084l-0.109-0.119l-0.38,0.357L5.709,17.25H3.207L16,4.457L28.793,17.25H26.288z"/>
	<path fill="#C8C8C8" d="M16,5.164L27.586,16.75h-1.091l-9.777-9.78l-0.174-0.169L16.021,6.23l-0.738,0.739l-9.78,9.781H4.414
		L16,5.164 M16,10.604l7.75,7.75v8.896h-4.125v-6.875v-1h-1h-5.25h-1v1v6.875H8.25v-8.896L16,10.604 M16,3.75l-14,14h3.917
		L15.989,7.676L16,7.688l0.011-0.011l10.07,10.073H30L16,3.75L16,3.75z M16,9.189l-8.75,8.75V28.25h6.125v-7.875h5.25v7.875h6.125
		V17.939L16,9.189L16,9.189z"/>
</g>
</svg>
