<svg xmlns="http://www.w3.org/2000/svg" width="32" height="32" viewBox="0 0 32 32"><path fill="#E44D26" d="M5.904 27.2L3.656 2h24.688l-2.25 25.196L15.988 30 5.904 27.2z"/><path fill="#F16529" d="M16.002 27.856l8.17-2.264 1.922-21.534H16.002v23.798z"/><path fill="#EBEBEB" d="M16.002 13.407h-4.091l-.283-3.164h4.374V7.155h-7.75l.073.831.761 8.516h6.915v-3.095zm0 8.027l-.014.004-3.443-.931-.219-2.463H9.22l.434 4.852 6.33 1.759.018-.004v-3.217z"/><path fill="#FFF" d="M15.99 13.407v3.09h3.806l-.354 4.01-3.452.929v3.219l6.339-1.76.046-.521.724-8.138.077-.828H15.99zm0-6.257v3.094h7.467l.061-.695.141-1.566.074-.83-7.743-.003z"/></svg>