<?xml version="1.0" encoding="utf-8"?>
<!-- Generator: Adobe Illustrator 14.0.0, SVG Export Plug-In . SVG Version: 6.00 Build 43363)  -->
<!DOCTYPE svg PUBLIC "-//W3C//DTD SVG 1.1//EN" "http://www.w3.org/Graphics/SVG/1.1/DTD/svg11.dtd">
<svg version="1.1" id="Layer_1" xmlns="http://www.w3.org/2000/svg" xmlns:xlink="http://www.w3.org/1999/xlink" x="0px" y="0px"
	 width="32px" height="32px" viewBox="0 0 32 32" enable-background="new 0 0 32 32" xml:space="preserve">
<g>
	<path fill="#37A5E2" d="M31.145,7.216c0.662-2.532,0.46-4.646-0.754-5.941c-2.178-2.33-7.064-1.344-12.367,1.962
		c-0.423-0.035-0.85-0.057-1.279-0.057c-7.901,0-14.605,5.338-14.605,13.035c1.197-1.896,4.995-7.677,11.392-9.64
		c-4.15,2.808-9.76,10.772-10.96,13.29c-2.4,4.836-2.843,9.045-0.734,11.016c2.26,2.11,6.886,1.13,11.953-2.09
		c0.96,0.164,1.942,0.248,2.95,0.248C22.213,29.038,28,25.448,30,19.828h-9.357c-0.512,1.538-2.202,2.988-4.092,2.988
		c-2.876,0-4.541-2.087-4.541-4.857c1.945,0,18.59,0,18.59,0c0.047-0.479,0.073-0.85,0.073-1.36c0-6.29-4.043-11.05-9.473-12.739
		c3.963-2.13,7.252-2.767,8.766-1.147c0.881,0.943,1.162,2.586,0.677,4.508h0.5L31.145,7.216z M12.931,28.621
		c-4.033,2.37-7.506,3.068-9.195,1.49c-1.456-1.36-1.313-4.158,0.095-7.582c0.043-0.061,0.085-0.141,0.125-0.08
		c2.1,3.275,5.305,5.34,8.976,6.178L12.931,28.621z M12.01,13.821c0,0,0.18-4.207,4.388-4.207c4.148,0,4.387,4.208,4.387,4.208
		L12.01,13.821L12.01,13.821z"/>
</g>
</svg>
