<svg xmlns="http://www.w3.org/2000/svg" xmlns:xlink="http://www.w3.org/1999/xlink" width="32" height="32" viewBox="0 0 32 32"><symbol id="a" viewBox="-16 -12.995 32 25.99"><path fill="#ccc" d="M16-12.995h-32v4.018h32v-4.018zm-31.03.97h30.06v2.077h-30.06v-2.077z"/><path d="M15.516-12.511h-31.031v3.048h31.031z"/><path fill="#ccc" d="M14.117-8.888h-28.235v18.705c0 1.753 1.425 3.178 3.177 3.178h21.879c1.753 0 3.179-1.425 3.179-3.178v-18.705zm-27.265.97h26.296v17.735c0 1.218-.991 2.208-2.209 2.208h-21.879c-1.217 0-2.208-.99-2.208-2.208v-17.735z"/><path d="M13.633-8.402v18.22c0 1.486-1.207 2.692-2.694 2.692h-21.879c-1.486 0-2.692-1.206-2.692-2.692v-18.22h27.265z"/><path fill="#fff" d="M12.062-7.104h-24.125v17.373h24.125z"/><path fill="#ccc" d="M12.304-7.347h-24.609v17.857h24.609v-17.857zm-24.124.486h23.64v16.888h-23.64v-16.888zM4.217 2.416c.521-2.718-4.391-5.916-4.391-5.916s2.903 3.93 2.251 6.82c-.652 2.889 1.288 6.43 1.288 6.43h3.886s-3.556-4.614-3.034-7.334z"/><path fill="none" d="M4.217 2.416c.521-2.718-4.391-5.916-4.391-5.916s2.903 3.93 2.251 6.82c-.652 2.889 1.288 6.43 1.288 6.43h3.886s-3.556-4.614-3.034-7.334z"/></symbol><use xlink:href="#a" width="32" height="25.99" x="-16" y="-12.995" transform="matrix(1 0 0 -1 16 16)" overflow="visible"/></svg>