<svg xmlns="http://www.w3.org/2000/svg" xmlns:xlink="http://www.w3.org/1999/xlink" width="32" height="32" viewBox="0 0 32 32"><symbol id="a" viewBox="-10.473 -16 20.946 32"><path d="M10.473-14.724c0-.705-.586-1.276-1.31-1.276h-18.328c-.723 0-1.308.571-1.308 1.276v17.856c0 .706.585 1.276 1.308 1.276h18.328c.724 0 1.31-.57 1.31-1.276v-17.856zM-.001-7.132c-4.941 0-8.962 5.188-8.962 11.564 0 6.38 4.021 11.568 8.962 11.568 4.942 0 8.963-5.188 8.963-11.566 0-6.376-4.021-11.566-8.963-11.566zm0 19.642c-2.966 0-5.472-3.698-5.472-8.076 0-4.376 2.506-8.073 5.472-8.073s5.472 3.697 5.472 8.073c0 4.378-2.506 8.076-5.472 8.076z"/><path fill="#fff" d="M1.818-9.34h-3.638l.791 3.854c-.479.318-.791.854-.791 1.462 0 .979.815 1.772 1.819 1.772 1.006 0 1.819-.794 1.819-1.772 0-.606-.313-1.144-.792-1.461l.792-3.855z"/></symbol><use xlink:href="#a" width="20.946" height="32" x="-10.473" y="-16" transform="matrix(1 0 0 -1 16 16)" overflow="visible"/></svg>