<svg xmlns="http://www.w3.org/2000/svg" xmlns:xlink="http://www.w3.org/1999/xlink" width="32" height="32" viewBox="0 0 32 32"><symbol id="a" viewBox="-14.276 -16 28.552 32"><path fill="#BBCFE5" d="M2.962 12.215c-.993-1.487-2.12-3.439-2.843-5.543-1.126-3.276-1.575-6.182-1.738-7.545h6.66l-.689-1.162c-.014-.024-1.432-2.479-1.432-5.863 0-1.684.206-3.056.475-4.138h10.881v24.251h-11.314z"/><path fill="#3B90CB" d="M2.469-2.413h-5.762v.006l.054.814c.011.164.283 4.061 1.901 8.766.644 1.872 1.568 3.608 2.46 5.042h-15.398v-24.251h16.085c-.25 1.13-.429 2.503-.429 4.138 0 2.378.611 4.326 1.089 5.485z"/><path d="M.333-7.898c-7.414 0-10.194 2.403-10.309 2.506l1.02 1.152c.025-.021 2.543-2.118 9.289-2.118 6.733 0 9.167 2.091 9.191 2.11l1.039-1.136c-.111-.103-2.808-2.514-10.23-2.514zM-5.806 4.934h-1.54v3.4h1.54zM6.834 4.934h-1.54v3.4h1.54zM3.398-16c-.083.107-2.018 2.706-2.018 8.102 0 2.38.611 4.326 1.089 5.485h-5.761l.054.82c.011.164.282 4.061 1.901 8.766 1.636 4.753 5.074 8.663 5.221 8.827l1.151-1.022c-.033-.037-3.383-3.851-4.916-8.306-1.126-3.276-1.576-6.182-1.738-7.545h6.66l-.689-1.162c-.014-.024-1.432-2.479-1.432-5.863 0-4.826 1.688-7.147 1.705-7.171l-1.227-.931z"/></symbol><use xlink:href="#a" width="28.552" height="32" x="-14.276" y="-16" transform="matrix(1 0 0 -1 16 16)" overflow="visible"/></svg>