<?xml version="1.0" encoding="utf-8"?>
<!-- Generator: Adobe Illustrator 14.0.0, SVG Export Plug-In . SVG Version: 6.00 Build 43363)  -->
<!DOCTYPE svg PUBLIC "-//W3C//DTD SVG 1.1//EN" "http://www.w3.org/Graphics/SVG/1.1/DTD/svg11.dtd">
<svg version="1.1" id="Layer_1" xmlns="http://www.w3.org/2000/svg" xmlns:xlink="http://www.w3.org/1999/xlink" x="0px" y="0px"
	 width="32px" height="32px" viewBox="0 0 32 32" enable-background="new 0 0 32 32" xml:space="preserve">
<g>
	<path fill="#BBCFE5" d="M18.959,3.785c-0.991,1.487-2.119,3.439-2.841,5.543c-1.128,3.275-1.577,6.182-1.74,7.545h6.66
		l-0.688,1.162c-0.014,0.024-1.432,2.479-1.432,5.863c0,1.684,0.205,3.056,0.475,4.138h10.88V3.786H18.961L18.959,3.785z"/>
	<path fill="#3B90CB" d="M18.468,18.413h-5.763v-0.006l0.054-0.814c0.017-0.164,0.29-4.06,1.907-8.766
		c0.644-1.872,1.568-3.608,2.459-5.042H1.728v24.25h16.08c-0.25-1.13-0.431-2.502-0.431-4.137
		C17.377,21.52,17.988,19.572,18.468,18.413z"/>
	<path d="M16.331,23.898c-7.414,0-10.194-2.403-10.31-2.507l1.02-1.151c0.026,0.02,2.544,2.118,9.29,2.118
		c6.733,0,9.167-2.091,9.19-2.11l1.04,1.136C26.451,21.487,23.752,23.898,16.331,23.898z M10.19,11.066H8.65v-3.4h1.54V11.066z
		 M22.83,11.066h-1.539v-3.4h1.539V11.066z M19.397,32c-0.083-0.107-2.019-2.706-2.019-8.102c0-2.381,0.611-4.326,1.091-5.485
		h-5.762l0.054-0.82c0.01-0.164,0.282-4.06,1.9-8.766C16.297,4.074,19.735,0.164,19.881,0l1.15,1.022
		c-0.029,0.036-3.38,3.85-4.914,8.306c-1.128,3.275-1.578,6.182-1.74,7.545h6.66l-0.688,1.162c-0.014,0.024-1.432,2.479-1.432,5.863
		c0,4.825,1.688,7.146,1.705,7.17L19.396,32H19.397z"/>
</g>
</svg>
