<svg xmlns="http://www.w3.org/2000/svg" xmlns:xlink="http://www.w3.org/1999/xlink" width="32" height="32" viewBox="0 0 32 32">
    <symbol id="a" viewBox="-15.465 -16 30.93 32">
        <path d="M4.478 12.459c4.564-4.719 4.564-12.373.001-17.093-4.562-4.719-11.959-4.719-16.522.002-4.563 4.718-4.563 12.372 0 17.091 4.563 4.722 11.957 4.721 16.521 0zM15.465-13.238s-.04-.689-.964-1.645c-.923-.954-1.706-1.117-1.706-1.117l-11.904 12.314 2.671 2.763 11.903-12.315z"/>
        <path fill="#B3B3B3" d="M3.518 11.468c4.034-4.172 4.036-10.938.003-15.11-4.034-4.171-10.572-4.171-14.606 0-4.031 4.173-4.031 10.938 0 15.109 4.033 4.174 10.571 4.174 14.603.001z"/>
        <path fill="#999" d="M1.917 12.24c3.058-3.163 3.056-8.295-.002-11.459-3.059-3.163-8.018-3.163-11.075 0-3.061 3.164-3.061 8.296-.003 11.459 3.06 3.164 8.019 3.164 11.08 0z"/>
    </symbol>
    <use xlink:href="#a" width="30.93" height="32" x="-15.465" y="-16" transform="matrix(1 0 0 -1 16 16)" overflow="visible"/>
</svg>