<?xml version="1.0" encoding="utf-8"?>
<!-- Generator: Adobe Illustrator 14.0.0, SVG Export Plug-In . SVG Version: 6.00 Build 43363)  -->
<!DOCTYPE svg PUBLIC "-//W3C//DTD SVG 1.1//EN" "http://www.w3.org/Graphics/SVG/1.1/DTD/svg11.dtd">
<svg version="1.1" id="Layer_1" xmlns="http://www.w3.org/2000/svg" xmlns:xlink="http://www.w3.org/1999/xlink" x="0px" y="0px"
	 width="32px" height="32px" viewBox="0 0 32 32" enable-background="new 0 0 32 32" xml:space="preserve">
<path fill="#FFFFFF" d="M16.085,14.527L31.407,9.71V4.147H0.593v5.547L16.085,14.527z"/>
<path fill="#777777" d="M16.086,15.15L0,10.13V3.554h32v6.59L16.086,15.15z M1.186,9.258l14.9,4.648l14.729-4.63V4.74H1.184v4.518
	H1.186z"/>
<path fill="#FFFFFF" d="M16.085,16.994l-15.492-4.83v15.688h30.814V12.18L16.085,16.994z"/>
<path fill="#777777" d="M32,28.443H0V11.36l16.085,5.015L32,11.373V28.443z M1.185,27.258h29.629v-14.27l-14.729,4.627l-14.9-4.646
	v14.283V27.258z"/>
</svg>
