<?xml version="1.0" encoding="utf-8"?>
<!-- Generator: Adobe Illustrator 14.0.0, SVG Export Plug-In . SVG Version: 6.00 Build 43363)  -->
<!DOCTYPE svg PUBLIC "-//W3C//DTD SVG 1.1//EN" "http://www.w3.org/Graphics/SVG/1.1/DTD/svg11.dtd">
<svg version="1.1" id="Layer_1" xmlns="http://www.w3.org/2000/svg" xmlns:xlink="http://www.w3.org/1999/xlink" x="0px" y="0px"
	 width="32px" height="32px" viewBox="0 0 32 32" enable-background="new 0 0 32 32" xml:space="preserve">
<path fill="#FFFFFF" d="M28.8,1C30.013,1,31,1.987,31,3.2v25.6c0,1.213-0.987,2.2-2.2,2.2H3.2C1.987,31,1,30.013,1,28.8V3.2
	C1,1.987,1.987,1,3.2,1H28.8"/>
<path fill="#5B5B5B" d="M28.8,1C30.013,1,31,1.987,31,3.2v25.6c0,1.213-0.987,2.2-2.2,2.2H3.2C1.987,31,1,30.013,1,28.8V3.2
	C1,1.987,1.987,1,3.2,1H28.8 M28.8,0H3.2C1.433,0,0,1.433,0,3.2v25.6C0,30.566,1.433,32,3.2,32h25.6c1.767,0,3.2-1.434,3.2-3.2V3.2
	C32,1.433,30.566,0,28.8,0L28.8,0z"/>
<g id="XMLID_1_">
	<g>
		<path fill="#5B5B5B" d="M28.123,3.854c0,1.118-0.903,2.02-2.02,2.02H5.897c-1.116,0-2.02-0.904-2.02-2.02
			c0-1.116,0.904-2.021,2.021-2.021h20.206C27.22,1.833,28.123,2.738,28.123,3.854z M28.123,18.979c0,1.116-0.903,2.021-2.02,2.021
			H5.897c-1.116,0-2.021-0.905-2.021-2.021c0-1.117,0.905-2.021,2.021-2.021h20.207C27.22,16.958,28.123,17.863,28.123,18.979z
			 M28.123,11.417c0,1.116-0.903,2.021-2.02,2.021H5.897c-1.116,0-2.02-0.905-2.02-2.021s0.904-2.021,2.021-2.021h20.206
			C27.22,9.396,28.123,10.301,28.123,11.417z"/>
	</g>
</g>
<g>
	<path fill="#5B5B5B" d="M10.705,29.833v-4.834c0-0.247,0.02-0.646,0.059-1.196h-0.02c-0.045,0.146-0.087,0.273-0.125,0.381
		s-0.072,0.195-0.105,0.264l-2.441,5.386H7.794l-2.446-5.352c-0.072-0.163-0.145-0.393-0.22-0.688h-0.02
		c0.013,0.149,0.022,0.32,0.027,0.513s0.007,0.405,0.007,0.64v4.888H4.508v-7.002h0.767l2.378,5.264
		c0.049,0.11,0.097,0.224,0.144,0.34c0.047,0.115,0.09,0.238,0.129,0.368h0.029c0.045-0.13,0.087-0.249,0.125-0.356
		s0.084-0.223,0.139-0.347l2.397-5.269h0.728v7.002H10.705z"/>
	<path fill="#5B5B5B" d="M13.356,27.445c0.003,0.306,0.044,0.581,0.122,0.825s0.19,0.451,0.337,0.62s0.325,0.299,0.535,0.388
		c0.21,0.09,0.447,0.135,0.71,0.135c0.563,0,1.095-0.197,1.596-0.591v0.615c-0.478,0.342-1.058,0.513-1.738,0.513
		c-0.335,0-0.64-0.059-0.913-0.176s-0.506-0.287-0.698-0.51c-0.192-0.224-0.34-0.498-0.444-0.823s-0.156-0.696-0.156-1.113
		c0-0.374,0.057-0.721,0.171-1.04s0.272-0.595,0.474-0.828c0.202-0.232,0.441-0.414,0.718-0.547c0.277-0.131,0.58-0.197,0.908-0.197
		c0.322,0,0.607,0.057,0.854,0.168c0.248,0.113,0.455,0.273,0.623,0.481c0.167,0.208,0.295,0.462,0.383,0.762
		s0.132,0.635,0.132,1.006v0.313H13.356z M16.325,26.898c-0.01-0.521-0.133-0.925-0.371-1.211s-0.568-0.43-0.991-0.43
		c-0.211,0-0.408,0.037-0.588,0.112s-0.339,0.184-0.476,0.324c-0.137,0.143-0.25,0.314-0.339,0.518
		c-0.089,0.204-0.152,0.433-0.188,0.687H16.325z"/>
	<path fill="#5B5B5B" d="M21.568,29.833v-2.881c0-1.13-0.41-1.694-1.23-1.694c-0.218,0-0.42,0.043-0.605,0.13
		c-0.186,0.086-0.346,0.205-0.48,0.358c-0.136,0.153-0.241,0.335-0.318,0.544c-0.076,0.211-0.114,0.438-0.114,0.682v2.861h-0.625v-5
		h0.625v0.869h0.02c0.371-0.657,0.93-0.986,1.675-0.986c0.547,0,0.964,0.178,1.25,0.532s0.43,0.867,0.43,1.538v3.047H21.568z"/>
	<path fill="#5B5B5B" d="M26.969,29.833v-0.85h-0.02c-0.339,0.645-0.864,0.967-1.577,0.967c-1.188,0-1.782-0.726-1.782-2.178v-2.939
		h0.625v2.822c0,0.599,0.106,1.042,0.32,1.328c0.213,0.286,0.539,0.43,0.979,0.43c0.215,0,0.411-0.041,0.588-0.125
		c0.178-0.082,0.331-0.199,0.459-0.352c0.129-0.15,0.229-0.332,0.301-0.544s0.107-0.446,0.107-0.703v-2.856h0.625v5H26.969z"/>
</g>
</svg>
