<svg xmlns="http://www.w3.org/2000/svg" width="32" height="32" viewBox="0 0 32 32"><path fill="#FFF93F" d="M29.639 25.799c.48.48.482 1.26 0 1.74h-27.278c-.48-.48-.482-1.26 0-1.74l12.768-20.977c.48-.481 1.262-.481 1.742 0l12.768 20.977z"/><path d="M16 5.461c.028 0 .066.005.104.024l12.68 20.833.063.102.085.085c.011.012.021.022.028.034h-25.92c.008-.011.017-.021.027-.033l.085-.084.063-.104 12.68-20.833c.039-.019.077-.024.105-.024m0-1c-.315 0-.631.12-.871.361l-12.768 20.977c-.482.48-.48 1.26 0 1.74h27.277c.482-.48.48-1.26 0-1.74l-12.767-20.977c-.24-.241-.556-.361-.871-.361zM14.635 24.185c0-.833.578-1.435 1.391-1.435.809 0 1.34.602 1.34 1.435 0 .81-.531 1.435-1.389 1.435-.788-.001-1.342-.626-1.342-1.435zm.578-3.285l-.322-11.126h2.221l-.325 11.126h-1.574z"/></svg>