<?xml version="1.0" encoding="utf-8"?>
<!-- Generator: Adobe Illustrator 14.0.0, SVG Export Plug-In . SVG Version: 6.00 Build 43363)  -->
<!DOCTYPE svg PUBLIC "-//W3C//DTD SVG 1.1//EN" "http://www.w3.org/Graphics/SVG/1.1/DTD/svg11.dtd">
<svg version="1.1" id="Layer_1" xmlns="http://www.w3.org/2000/svg" xmlns:xlink="http://www.w3.org/1999/xlink" x="0px" y="0px"
	 width="32px" height="32px" viewBox="0 0 32 32" enable-background="new 0 0 32 32" xml:space="preserve">
<path fill="#FF2100" d="M10.2,30L2,21.8V10.2L10.2,2h11.6l8.2,8.2v11.6L21.8,30H10.2z"/>
<path fill="#FFFFFF" d="M21.386,3L29,10.615v10.77L21.386,29h-10.77L3,21.385v-10.77L10.615,3H21.386 M21.8,2H10.2L2,10.2v11.6
	l8.2,8.2h11.6l8.2-8.2V10.2L21.8,2z M4.852,18.887c0.423,0.271,1.03,0.478,1.682,0.478c0.966,0,1.53-0.511,1.53-1.247
	c0-0.674-0.39-1.073-1.378-1.442c-1.193-0.435-1.932-1.063-1.932-2.084c0-1.133,0.944-1.98,2.365-1.98c0.73,0,1.29,0.176,1.6,0.36
	l-0.26,0.771c-0.23-0.14-0.718-0.347-1.38-0.347c-0.997,0-1.377,0.596-1.377,1.096c0,0.683,0.444,1.02,1.453,1.41
	c1.237,0.476,1.855,1.073,1.855,2.147c0,1.128-0.823,2.115-2.55,2.115c-0.704,0-1.474-0.217-1.864-0.48l0.253-0.789L4.852,18.887z
	 M11.708,13.527H9.484v-0.803h5.413v0.803h-2.234v6.51h-0.955V13.527z M21.668,16.305c0,2.505-1.529,3.852-3.396,3.852
	c-1.941,0-3.287-1.509-3.287-3.722c0-2.32,1.432-3.84,3.385-3.84C20.377,12.595,21.668,14.125,21.668,16.305z M15.983,16.413
	c0,1.573,0.847,2.973,2.344,2.973s2.343-1.378,2.343-3.038c0-1.465-0.76-2.983-2.332-2.983S15.983,14.818,15.983,16.413z
	 M22.895,12.811c0.457-0.07,1.054-0.14,1.813-0.14c0.933,0,1.616,0.22,2.05,0.61c0.391,0.35,0.641,0.88,0.641,1.53
	c0,0.66-0.194,1.185-0.563,1.56c-0.51,0.529-1.313,0.806-2.235,0.806c-0.279,0-0.541-0.01-0.76-0.063v2.93h-0.943v-7.23
	L22.895,12.811z M23.839,16.341c0.2,0.057,0.46,0.078,0.78,0.078c1.14,0,1.83-0.563,1.83-1.552c0-0.976-0.696-1.44-1.727-1.44
	c-0.412,0-0.729,0.03-0.891,0.074v2.842L23.839,16.341z"/>
</svg>
