<?xml version="1.0" encoding="utf-8"?>
<!-- Generator: Adobe Illustrator 14.0.0, SVG Export Plug-In . SVG Version: 6.00 Build 43363)  -->
<!DOCTYPE svg PUBLIC "-//W3C//DTD SVG 1.1//EN" "http://www.w3.org/Graphics/SVG/1.1/DTD/svg11.dtd">
<svg version="1.1" id="Layer_1" xmlns="http://www.w3.org/2000/svg" xmlns:xlink="http://www.w3.org/1999/xlink" x="0px" y="0px"
	 width="32px" height="32px" viewBox="0 0 32 32" enable-background="new 0 0 32 32" xml:space="preserve">
<symbol  id="_x5F_button_x5F_base" viewBox="-16.001 -16 32 32">
	<g id="button_x5F_base_3_">
		<g id="button_6_">
			<g>
				
					<use xlink:href="#_x5F_button_x5F_shape"  width="32" height="32" x="-16" y="-16" transform="matrix(1 0 0 1 -9.765625e-004 0)" overflow="visible"/>
			</g>
			<g>
				<g>
					<g>
						<g>
							<path fill="#999999" d="M15.999-12c0-2.209-1.791-4-4-4h-24c-2.209,0-4,1.791-4,4v24c0,2.209,1.791,4,4,4h24
								c2.209,0,4-1.791,4-4V-12z"/>
						</g>
					</g>
				</g>
			</g>
		</g>
	</g>
	<g id="button_3_">
		<g>
			
				<use xlink:href="#_x5F_button_x5F_shape"  width="32" height="32" x="-16" y="-16" transform="matrix(0.9375 0 0 0.9375 -9.765625e-004 0)" overflow="visible"/>
		</g>
		<g>
			<g>
				<g>
					<g>
						<g>
							<path fill="#F2F2F2" d="M14.999-11.25c0-2.071-1.679-3.75-3.75-3.75h-22.5c-2.071,0-3.75,1.679-3.75,3.75v22.5
								c0,2.071,1.679,3.75,3.75,3.75h22.5c2.071,0,3.75-1.679,3.75-3.75V-11.25z"/>
						</g>
					</g>
				</g>
			</g>
		</g>
	</g>
</symbol>
<symbol  id="_x5F_button_x5F_overlay" viewBox="-16.5 -16.5 33 33">
	<g id="_x5F_button_x5F_overlay_1_" opacity="0">
		<g id="button_x5F_overlay_3_">
			<g>
				<use xlink:href="#_x5F_button_x5F_shape"  width="32" height="32" x="-16" y="-16" overflow="visible"/>
			</g>
			<g>
				<g>
					<g>
						<g>
							<path fill="none" stroke="#808080" d="M16-12c0-2.209-1.791-4-4-4h-24c-2.209,0-4,1.791-4,4v24c0,2.209,1.791,4,4,4h24
								c2.209,0,4-1.791,4-4V-12z"/>
						</g>
					</g>
				</g>
			</g>
			<g>
				<g>
					<g>
						<g>
							<path fill="#0000FF" d="M16-12c0-2.209-1.791-4-4-4h-24c-2.209,0-4,1.791-4,4v24c0,2.209,1.791,4,4,4h24c2.209,0,4-1.791,4-4
								V-12z"/>
						</g>
					</g>
				</g>
			</g>
			<g>
				<g>
					<g>
						<g>
							<radialGradient id="SVGID_1_" cx="-9.1748" cy="11.5107" r="24.9406" gradientUnits="userSpaceOnUse">
								<stop  offset="0" style="stop-color:#E6E6E6"/>
								<stop  offset="1" style="stop-color:#000000"/>
							</radialGradient>
							<path fill="url(#SVGID_1_)" d="M16-12c0-2.209-1.791-4-4-4h-24c-2.209,0-4,1.791-4,4v24c0,2.209,1.791,4,4,4h24
								c2.209,0,4-1.791,4-4V-12z"/>
						</g>
					</g>
				</g>
			</g>
		</g>
	</g>
</symbol>
<symbol  id="_x5F_button_x5F_shape" viewBox="-16 -16 32 32">
	<g id="button_x5F_shape_2_">
		<g>
			<g opacity="0">
				<path fill="#FFFFFF" d="M16-12c0-2.209-1.791-4-4-4h-24c-2.209,0-4,1.791-4,4v24c0,2.209,1.791,4,4,4h24c2.209,0,4-1.791,4-4
					V-12z"/>
			</g>
		</g>
	</g>
</symbol>
<symbol  id="myspace" viewBox="-12.992 -14 25.984 28">
	<g>
		<g>
			<g>
				<path fill="#003399" d="M11.256,9.365c0-2.56-2.074-4.634-4.634-4.634c-2.561,0-4.635,2.074-4.635,4.634
					C1.987,11.926,4.062,14,6.622,14C9.182,14,11.256,11.926,11.256,9.365z"/>
			</g>
			<path fill="#003399" d="M12.991-2.42c-0.002,3.517-2.854,6.367-6.369,6.367c-3.518,0-6.369-2.851-6.371-6.367l0,0V-14h12.741
				L12.991-2.42L12.991-2.42z"/>
		</g>
		<g>
			<g>
				<path fill="#003399" d="M1.431,9.278c0-1.971-1.599-3.569-3.568-3.569c-1.973,0-3.571,1.599-3.571,3.569
					c0,1.972,1.599,3.569,3.571,3.569C-0.168,12.848,1.431,11.25,1.431,9.278z"/>
			</g>
			<path fill="#003399" d="M2.768,0.201C2.766,2.909,0.569,5.104-2.139,5.104c-2.709,0-4.905-2.195-4.907-4.903l0,0v-8.495h9.813
				V0.201L2.768,0.201z"/>
		</g>
		<g>
			<g>
				<path fill="#003399" d="M-5.991,8.979c0-1.628-1.319-2.947-2.947-2.947c-1.629,0-2.949,1.319-2.949,2.947
					s1.32,2.948,2.949,2.948C-7.311,11.928-5.991,10.607-5.991,8.979z"/>
			</g>
			<path fill="#003399" d="M-4.887,1.482c-0.002,2.237-1.815,4.05-4.053,4.05s-4.052-1.813-4.053-4.05l0,0v-7.015h8.105V1.482
				L-4.887,1.482z"/>
		</g>
	</g>
</symbol>
<g>
	<g id="XMLID_1_">
		<g>
			<g>
				<g>
					<circle fill="#003399" cx="22.621" cy="6.634" r="4.635"/>
				</g>
				<path fill="#003399" d="M28.99,18.42c-0.001-3.517-2.853-6.367-6.369-6.367c-3.518,0-6.368,2.85-6.37,6.367l0,0V30h12.741V18.42
					H28.99z"/>
			</g>
			<g>
				<g>
					<circle fill="#003399" cx="13.86" cy="6.722" r="3.569"/>
				</g>
				<path fill="#003399" d="M18.768,15.799c-0.002-2.708-2.198-4.904-4.906-4.904c-2.709,0-4.905,2.196-4.907,4.904l0,0v8.495h9.813
					V15.799L18.768,15.799z"/>
			</g>
			<g>
				<g>
					<circle fill="#003399" cx="7.061" cy="7.021" r="2.948"/>
				</g>
				<path fill="#003399" d="M11.113,14.517c-0.002-2.237-1.815-4.05-4.053-4.05s-4.052,1.813-4.053,4.05l0,0v7.015h8.105V14.517
					L11.113,14.517z"/>
			</g>
		</g>
	</g>
</g>
</svg>
