<svg xmlns="http://www.w3.org/2000/svg" width="32" height="32" viewBox="0 0 32 32"><path fill="#E41414" d="M15.955 27.006c7.285 0 7.452-22.354 0-22.354-7.256 0-7.216 22.354 0 22.354m0-24.561c16.789 0 16.534 27.111 0 27.111-16.381 0-16.699-27.111 0-27.111"/><path fill="#AB0000" d="M15.955 30c-8.436 0-12.85-7.092-12.85-14.098 0-3.64 1.132-7.027 3.188-9.54 2.333-2.853 5.675-4.362 9.662-4.362 8.891 0 12.941 7.217 12.941 13.922 0 3.664-1.149 7.09-3.236 9.648-2.365 2.899-5.721 4.43-9.705 4.43zm0-27.111c-3.711 0-6.814 1.396-8.974 4.037-1.926 2.354-2.986 5.542-2.986 8.977 0 6.361 3.743 13.208 11.96 13.208 3.708 0 6.827-1.418 9.015-4.102 1.958-2.399 3.036-5.627 3.036-9.086 0-6.277-3.771-13.034-12.051-13.034zm0 24.562c-4.034 0-5.872-6.037-5.872-11.646 0-2.984.494-5.771 1.391-7.846 1.062-2.455 2.61-3.752 4.48-3.752 4.102 0 5.971 5.976 5.971 11.527 0 3-.507 5.815-1.427 7.921-1.083 2.484-2.655 3.796-4.543 3.796zm0-22.354c-1.879 0-3.03 1.749-3.664 3.216-.85 1.967-1.318 4.628-1.318 7.493 0 5.346 1.711 10.756 4.982 10.756 1.905 0 3.079-1.773 3.729-3.262.859-1.968 1.353-4.727 1.353-7.566-.001-5.286-1.746-10.637-5.082-10.637z"/></svg>