<?xml version="1.0" encoding="utf-8"?>
<!-- Generator: Adobe Illustrator 14.0.0, SVG Export Plug-In . SVG Version: 6.00 Build 43363)  -->
<!DOCTYPE svg PUBLIC "-//W3C//DTD SVG 1.1//EN" "http://www.w3.org/Graphics/SVG/1.1/DTD/svg11.dtd">
<svg version="1.1" id="Layer_1" xmlns="http://www.w3.org/2000/svg" xmlns:xlink="http://www.w3.org/1999/xlink" x="0px" y="0px"
	 width="32px" height="32px" viewBox="0 0 32 32" enable-background="new 0 0 32 32" xml:space="preserve">
<g>
	<g>
		<path fill="#777777" d="M0.46,10.797L0.46,10.797l8.494,0.009c0.022-0.833,0.692-1.831,3.467-2.249v4.527l2.111-0.444V8.374
			c0.322-0.011,0.659-0.018,1.017-0.017c1.109,0.001,2.056,0.055,2.872,0.147v4.136l2.111,0.444V8.9
			c1.75,0.501,2.395,1.263,2.586,1.92l8.207,0.012c0.228-1.164,0.035-2.819-2.418-3.642C22.514,5.044,5.463,5.598,2.264,7.268
			C0.382,8.249,0.203,9.74,0.375,10.803C0.4,10.8,0.433,10.797,0.46,10.797z"/>
		<path fill="#777777" d="M31.547,11.314l-8.795-0.011c-0.25,0-0.451,0.13-0.451,0.29l-0.01,2.122v0.001
			c-0.002,0.16,0.203,0.29,0.455,0.29l8.793,0.01c0.252,0.002,0.455-0.13,0.455-0.29L32,11.602
			C32,11.445,31.797,11.315,31.547,11.314z"/>
		<path fill="#777777" d="M9.7,13.704l0.004-2.123c0-0.16-0.203-0.29-0.454-0.29l-8.793-0.01c-0.253,0-0.457,0.13-0.457,0.29v2.127
			L0,13.694c0,0.159,0.202,0.29,0.452,0.29l8.797,0.01C9.5,13.994,9.7,13.864,9.7,13.704z"/>
		<path fill="#777777" d="M16.807,13.114c-4.89-0.076-12.72,1.492-12.72,6.485c0.02-0.005,0.044-0.006,0.068-0.006v6.618h23.762
			v-6.588C27.916,15.22,20.404,13.169,16.807,13.114z"/>
	</g>
	<path fill="#FFFFFF" d="M20.435,19.674c0,2.355-1.907,4.263-4.263,4.263c-2.35,0-4.26-1.905-4.26-4.263
		c-0.001-2.354,1.909-4.264,4.259-4.264C18.526,15.41,20.435,17.32,20.435,19.674z"/>
	<path fill="#777777" d="M20.094,19.674c0,0.521-0.422,0.94-0.94,0.94c-0.522,0-0.942-0.42-0.942-0.94
		c0-0.52,0.422-0.939,0.941-0.939c0.52-0.002,0.939,0.42,0.939,0.939H20.094z M14.133,19.674c0,0.521-0.422,0.94-0.942,0.94
		s-0.94-0.42-0.94-0.94c0-0.52,0.42-0.939,0.94-0.939c0.52-0.002,0.948,0.42,0.948,0.939H14.133z M18.943,16.902
		c0.37,0.367,0.37,0.963,0,1.33c-0.365,0.367-0.963,0.367-1.33,0s-0.367-0.965,0-1.33C17.98,16.532,18.578,16.532,18.943,16.902z
		 M14.73,21.115c0.37,0.367,0.37,0.964,0,1.33c-0.366,0.37-0.962,0.37-1.33,0c-0.37-0.366-0.37-0.963,0-1.33
		S14.364,20.748,14.73,21.115z M18.944,22.445c-0.366,0.37-0.963,0.37-1.33,0c-0.368-0.366-0.368-0.963,0-1.33
		c0.367-0.367,0.964-0.367,1.33,0C19.314,21.482,19.314,22.079,18.944,22.445z M14.73,18.235c-0.367,0.364-0.963,0.364-1.33,0
		c-0.37-0.37-0.37-0.967,0-1.33c0.367-0.37,0.963-0.37,1.33-0.003C15.098,17.269,15.101,17.867,14.73,18.235z M16.17,17.637
		c-0.52,0-0.94-0.422-0.94-0.939c0-0.521,0.422-0.942,0.94-0.942c0.522,0,0.943,0.422,0.943,0.942
		C17.113,17.215,16.693,17.637,16.17,17.637L16.17,17.637z"/>
</g>
</svg>
