<?xml version="1.0" encoding="utf-8"?>
<!-- Generator: Adobe Illustrator 14.0.0, SVG Export Plug-In . SVG Version: 6.00 Build 43363)  -->
<!DOCTYPE svg PUBLIC "-//W3C//DTD SVG 1.1//EN" "http://www.w3.org/Graphics/SVG/1.1/DTD/svg11.dtd">
<svg version="1.1" id="Layer_1" xmlns="http://www.w3.org/2000/svg" xmlns:xlink="http://www.w3.org/1999/xlink" x="0px" y="0px"
	 width="32px" height="32px" viewBox="0 0 32 32" enable-background="new 0 0 32 32" xml:space="preserve">
<g>
	<path fill="#FFFFFF" d="M8.926,8.622L8.902,8.708l2.734,4.736c0.014,0.023,0.038,0.032,0.055,0.032l0.032-0.011l1.794-1.031
		c0.032-0.018,0.043-0.058,0.026-0.087l-2.735-4.736l-0.084-0.022l-0.329,0.186L8.926,8.622z"/>
	<path fill="#FFFFFF" d="M17.705,19.679l-0.053-0.092l-1.796,1.036c-0.032,0.019-0.043,0.058-0.026,0.089l2.734,4.732
		c0.018,0.031,0.05,0.034,0.058,0.034l0.03-0.008l1.796-1.04l0.024-0.084l-2.681-4.65L17.705,19.679z"/>
	<path fill="#FFFFFF" d="M21.086,23.597c0.088-0.043,0.956-0.579,0.956-0.579c0.74-0.592,1.099-1.334,1.063-2.208
		c-0.18-4.446-5.976-13.256-8.231-14.102c-0.328-0.123-0.67-0.185-1.017-0.185c-0.861,0-1.641,0.386-2.185,0.752l2.463,4.271
		c0.3-0.138,0.608-0.207,0.919-0.207c1.146,0,2.258,0.919,3.305,2.731c1.738,3.021,1.198,4.612,0.362,5.432L21.086,23.597z"/>
	<path fill="#C8C8C8" d="M13.856,6.74c0.321,0,0.637,0.058,0.941,0.173c2.217,0.83,7.912,9.516,8.09,13.905
		c0.032,0.801-0.299,1.483-0.98,2.028l-0.258,0.205V23.05l-0.402,0.219c-0.024,0.014-0.049,0.026-0.074,0.039l-2.179-3.773
		c0.824-0.905,1.284-2.572-0.445-5.574c-1.089-1.885-2.263-2.84-3.494-2.84c-0.279,0-0.556,0.051-0.826,0.149l-2.264-3.924
		C12.467,7.033,13.134,6.74,13.856,6.74 M10.698,7.856l2.579,4.465L11.748,13.2L9.17,8.734l1.007-0.581V8.16L10.698,7.856
		 M17.631,19.852l0.027,0.048l2.549,4.419l-1.528,0.887l-2.581-4.467L17.631,19.852 M16,2C8.28,2,2,8.28,2,16s6.28,14,14,14
		c0.9,0,1.801-0.086,2.667-0.254l-0.163-0.834c-0.813,0.16-1.654,0.238-2.503,0.238C8.752,29.15,2.849,23.252,2.849,16
		S8.748,2.849,16,2.849S29.15,8.746,29.15,16c0,3.432-1.313,6.679-3.7,9.144c-1.02,1.052-1.433,1.21-1.612,1.21
		c-0.009,0-0.017,0-0.023,0c-0.015-0.002-0.045-0.007-0.088-0.09c-0.412-0.762-1.307-2.582-1.549-3.076
		c0.662-0.529,1.188-1.295,1.146-2.389c-0.183-4.492-5.963-13.394-8.375-14.297c-0.374-0.141-0.741-0.2-1.094-0.2
		c-0.983,0-1.859,0.46-2.481,0.912c0.012,0.008,0.023,0.026,0.034,0.043l2.64,4.576c0.283-0.159,0.622-0.276,1.005-0.276
		c0.86,0,1.942,0.59,3.116,2.622c1.774,3.083,1.094,4.575,0.274,5.279l2.551,4.419c0.151-0.065,0.307-0.141,0.46-0.224
		c0.296,0.602,1.115,2.266,1.515,3.008c0.204,0.383,0.503,0.493,0.719,0.527c0.048,0.006,0.098,0.01,0.147,0.01
		c0.709,0,1.477-0.702,2.214-1.468C28.6,23.109,30,19.653,30,16C30,8.28,23.72,2,16,2L16,2z M10.755,7.361
		c-0.048,0-0.096,0.012-0.141,0.038V7.396L8.816,8.433C8.682,8.51,8.635,8.684,8.713,8.818l2.734,4.737
		c0.053,0.09,0.147,0.141,0.244,0.141c0.048,0,0.097-0.013,0.142-0.04l1.796-1.032c0.135-0.079,0.182-0.251,0.105-0.385
		l-2.735-4.736C10.946,7.412,10.852,7.361,10.755,7.361L10.755,7.361z M17.683,19.359c-0.047,0-0.095,0.013-0.14,0.039l-1.798,1.036
		c-0.134,0.081-0.181,0.25-0.105,0.387l2.735,4.733c0.054,0.091,0.15,0.143,0.248,0.143c0.048,0,0.096-0.013,0.14-0.037l1.796-1.04
		c0.14-0.079,0.184-0.249,0.105-0.383l-2.73-4.733h-0.006v-0.001C17.877,19.411,17.781,19.359,17.683,19.359L17.683,19.359z"/>
</g>
</svg>
