<svg xmlns="http://www.w3.org/2000/svg" width="32" height="32" viewBox="0 0 32 32"><g fill="#999"><path d="M29.603 11.899l-7.695-.01c-.219 0-.395.114-.395.254L21.505 14v.001c-.002.14.178.253.397.253l7.694.009c.221.001.398-.114.398-.254L30 12.152c0-.138-.178-.252-.397-.253zM10.488 13.991l.003-1.858c0-.14-.178-.254-.397-.254L2.4 11.871c-.221 0-.4.114-.4.253v1.861-.004c0 .139.177.254.396.254l7.697.009c.219.001.395-.113.395-.253zM27.836 8.359C26.315 7.565 21.21 7.06 15.97 7.066c-5.241-.005-10.345.499-11.867 1.293-1.647.858-1.579 3.088-1.579 3.088l7.433.008c.019-.708.021-2.056 6.013-2.133 5.991.077 5.994 1.426 6.013 2.133l7.433-.008c-.001 0 .067-2.229-1.58-3.088z"/></g><g fill="#C8C8C8"><path d="M17.054 10.067h1.822v4.777h-1.822zM13.123 10.067h1.822v4.777h-1.822z"/></g><path fill="#B4B4B4" d="M5.998 20.169v4.765h20.428v-4.765c0-4.46-4.918-6.694-10.428-6.694-5.509 0-10 2.233-10 6.694z"/><path fill="#FFF" d="M19.882 19.215a3.73 3.73 0 1 1-7.459 0 3.73 3.73 0 0 1 3.727-3.731 3.733 3.733 0 0 1 3.732 3.731z"/><path fill="#999" d="M19.583 19.215a.822.822 0 1 1-.824-.822.819.819 0 0 1 .821.822h.003zm-5.217 0a.822.822 0 0 1-.824.822.822.822 0 1 1 0-1.644.827.827 0 0 1 .83.822h-.006zm4.209-2.426a.823.823 0 1 1-1.163 1.164.823.823 0 0 1 1.163-1.164zm-3.686 3.687a.818.818 0 0 1 0 1.164.82.82 0 0 1-1.164 0 .818.818 0 0 1 0-1.164.822.822 0 0 1 1.164 0zm3.686 1.164a.819.819 0 0 1-1.163 0 .822.822 0 1 1 1.163-1.164.817.817 0 0 1 0 1.164zm-3.686-3.685a.828.828 0 0 1-1.164 0 .818.818 0 0 1 0-1.164.822.822 0 0 1 1.164-.002.822.822 0 0 1 0 1.166zm1.259-.523a.822.822 0 0 1 0-1.644c.457 0 .826.37.826.824 0 .451-.368.82-.826.82z"/></svg>