<svg xmlns="http://www.w3.org/2000/svg" xmlns:xlink="http://www.w3.org/1999/xlink" width="32" height="32" viewBox="0 0 32 32"><symbol id="a" viewBox="-16 -16 32 32"><path d="M-6.156 9.834l-2.053-1.186c-.155-.088-.208-.287-.119-.441l3.125-5.412c.089-.154.287-.207.441-.116l2.052 1.186c.154.088.208.286.119.438l-3.125 5.413c-.089.156-.286.208-.44.118zM2.204-4.002c-.089.155-.286.209-.441.118l-2.053-1.183c-.154-.089-.207-.287-.119-.443l3.125-5.41c.091-.156.289-.207.442-.119l2.053 1.186c.154.089.208.287.119.44l-3.126 5.411zM0 16c-8.823 0-16-7.178-16-16s7.177-16 16-16c1.031 0 2.056.098 3.048.29l-.187.953c-.929-.181-1.892-.273-2.861-.273-8.288 0-15.03 6.742-15.03 15.03s6.742 15.031 15.03 15.031 15.03-6.743 15.03-15.031c0-3.922-1.501-7.633-4.228-10.451-1.22-1.26-1.682-1.398-1.871-1.381-.016.002-.049.007-.099.102-.47.87-1.494 2.949-1.77 3.513.756.603 1.359 1.478 1.308 2.732-.207 5.132-6.815 15.305-9.568 16.339-1.617.608-3.122-.113-4.087-.814.013-.015.026-.033.038-.052l3.017-5.228c1.055.588 2.776.672 4.715-2.686 2.033-3.524 1.252-5.23.317-6.032l2.916-5.049c.172.073.348.159.527.255.337-.688 1.276-2.589 1.733-3.438.233-.437.575-.567.82-.603.856-.123 1.797.732 2.701 1.667 2.902 3.001 4.501 6.952 4.501 11.126 0 8.822-7.177 16-16 16z"/></symbol><use xlink:href="#a" width="32" height="32" x="-16" y="-16" transform="matrix(1 0 0 -1 16 16)" overflow="visible"/></svg>