<svg xmlns="http://www.w3.org/2000/svg" xmlns:xlink="http://www.w3.org/1999/xlink" width="32" height="32" viewBox="0 0 32 32"><symbol id="a" viewBox="-16 -10.212 32 20.424"><path d="M-15.539 5.203c-.029 0-.06-.003-.086-.006-.173 1.063.007 2.554 1.888 3.535 3.2 1.671 20.249 2.224 26.645.078 2.453-.823 2.645-2.478 2.418-3.642l-8.208.012c-.315 1.083-1.842 2.456-7.568 2.464-5.454.004-6.567-1.366-6.596-2.449l-8.493.008zM-16 2.306c-.001-.159.202-.29.452-.29l8.797-.01c.251.001.453.13.455.29l.005 2.123c0 .16-.202.292-.453.292l-8.794.009c-.252 0-.456-.13-.456-.289l-.006-2.125zM6.29 2.283c-.002-.16.203-.29.455-.291l8.793-.008c.252-.003.456.128.456.289l.006 2.125c-.001.157-.204.287-.454.288l-8.795.009c-.253 0-.455-.129-.455-.288l-.006-2.124zM11.916-3.624c0 4.404-7.512 6.455-11.11 6.51-4.89.076-12.719-1.492-12.719-6.486.02.005.043.006.067.006v-6.618h23.762v6.588zM4.532.36h-2.11v7.947h2.11zM-2.421.36h-2.11v7.947h2.11z"/><path fill="#fff" d="M4.434-3.674c0-2.355-1.907-4.263-4.263-4.263-2.354 0-4.262 1.906-4.262 4.263 0 2.354 1.909 4.263 4.262 4.263 2.355 0 4.263-1.908 4.263-4.263z"/><g fill="#808080"><path d="M4.093-3.674c0-.521-.422-.941-.941-.941-.521 0-.942.421-.942.941s.422.94.942.94c.519.002.941-.42.941-.94zM-1.867-3.674c0-.521-.422-.941-.942-.941s-.941.421-.941.941.421.94.941.94c.52.002.942-.42.942-.94z"/></g><g fill="#808080"><path d="M2.944-.902c.369-.368.369-.963-.001-1.331-.366-.367-.963-.367-1.33 0-.368.368-.368.965 0 1.331.367.369.964.369 1.331 0zM-1.269-5.115c.368-.367.368-.964 0-1.331-.368-.368-.964-.368-1.332 0-.368.367-.368.964 0 1.331s.964.367 1.332 0z"/></g><g fill="#808080"><path d="M2.943-6.446c-.366-.368-.963-.368-1.33 0-.368.367-.368.964 0 1.331.367.367.964.367 1.33 0 .37-.367.37-.964 0-1.331zM-1.269-2.233c-.368-.366-.964-.366-1.332 0-.368.368-.368.965 0 1.331.368.369.964.369 1.332.001s.368-.964 0-1.332z"/></g><path fill="#808080" d="M.171-1.636c-.52 0-.941.422-.941.94 0 .521.422.942.941.942.521 0 .942-.422.942-.942 0-.518-.421-.94-.942-.94z"/></symbol><use xlink:href="#a" width="32" height="20.424" x="-16" y="-10.212" transform="matrix(1 0 0 -1 16 16)" overflow="visible"/></svg>