<svg xmlns="http://www.w3.org/2000/svg" width="32" height="32" viewBox="0 0 32 32"><circle fill="#CD1D1F" cx="16" cy="16" r="14"/><path fill="#fff" d="M10.906 26.36c-5.245-2.325-7.867-8.879-5.74-14.375 2.259-5.84 8.762-8.815 14.618-6.688 5.95 2.164 8.987 8.544 6.935 14.577-1.912 5.627-8.393 8.967-13.836 7.212.6-1.815 1.199-3.63 1.788-5.415 1.747 1.594 4.067 1.648 6.1.093 2.512-1.925 3.626-6.393 2.286-9.267-1.079-2.313-2.97-3.615-5.447-3.94-3.271-.428-6.161.399-8.188 3.176-1.458 2.001-1.763 4.22-.741 6.537.324.736.878 1.285 1.6 1.65.422.216.688.117.839-.358.2-.641.189-1.162-.221-1.791-.858-1.308-.62-2.741-.053-4.1 1.347-3.214 5.972-4.349 8.561-2.128.852.732 1.279 1.685 1.349 2.769.109 1.644-.146 3.235-.937 4.707-.471.873-1.114 1.556-2.12 1.799-1.529.369-2.66-.735-2.288-2.26.246-1.022.565-2.027.837-3.044.071-.262.107-.538.12-.809.033-.78-.335-1.44-.917-1.696-.631-.274-1.456-.095-1.986.484-.967 1.056-1.016 2.3-.731 3.629.093.434.107.921.013 1.354-.434 2.022-.938 4.028-1.371 6.051-.138.619-.37 1.878-.47 1.833z"/></svg>