<?xml version="1.0" encoding="utf-8"?>
<!-- Generator: Adobe Illustrator 14.0.0, SVG Export Plug-In . SVG Version: 6.00 Build 43363)  -->
<!DOCTYPE svg PUBLIC "-//W3C//DTD SVG 1.1//EN" "http://www.w3.org/Graphics/SVG/1.1/DTD/svg11.dtd">
<svg version="1.1" id="Layer_1" xmlns="http://www.w3.org/2000/svg" xmlns:xlink="http://www.w3.org/1999/xlink" x="0px" y="0px"
	 width="32px" height="32px" viewBox="0 0 32 32" enable-background="new 0 0 32 32" xml:space="preserve">
<g>
	<path fill="#FFFFFF" d="M16,3c7.168,0,13,5.832,13,13s-5.832,13-13,13S3,23.168,3,16S8.832,3,16,3 M16,2C8.268,2,2,8.269,2,16
		c0,7.732,6.268,14,14,14c7.731,0,14-6.268,14-14C30,8.269,23.731,2,16,2L16,2z"/>
</g>
<g>
	<rect x="7" y="14.5" fill="#FFFFFF" width="18" height="3"/>
	<rect x="14.5" y="7" fill="#FFFFFF" width="3" height="18"/>
</g>
</svg>
