<?xml version="1.0" encoding="utf-8"?>
<!-- Generator: Adobe Illustrator 14.0.0, SVG Export Plug-In . SVG Version: 6.00 Build 43363)  -->
<!DOCTYPE svg PUBLIC "-//W3C//DTD SVG 1.1//EN" "http://www.w3.org/Graphics/SVG/1.1/DTD/svg11.dtd">
<svg version="1.1" id="Layer_1" xmlns="http://www.w3.org/2000/svg" xmlns:xlink="http://www.w3.org/1999/xlink" x="0px" y="0px"
	 width="32px" height="32px" viewBox="0 0 32 32" enable-background="new 0 0 32 32" xml:space="preserve">
<circle fill="#0D7F0D" cx="16" cy="16" r="14"/>
<g>
	<path fill="#00CF00" d="M27.527,14.532c0,6.14-5.16,11.116-11.53,11.116c-6.365,0-11.524-4.976-11.524-11.116
		c0-6.139,5.159-11.114,11.524-11.114C22.367,3.418,27.527,8.393,27.527,14.532z"/>
	<radialGradient id="SVGID_1_" cx="15.9998" cy="14.5327" r="10.0824" gradientUnits="userSpaceOnUse">
		<stop  offset="0.8909" style="stop-color:#000000;stop-opacity:0"/>
		<stop  offset="1" style="stop-color:#000000"/>
	</radialGradient>
	<path fill="url(#SVGID_1_)" d="M27.527,14.532c0,6.14-5.16,11.116-11.53,11.116c-6.365,0-11.524-4.976-11.524-11.116
		c0-6.139,5.159-11.114,11.524-11.114C22.367,3.418,27.527,8.393,27.527,14.532z"/>
</g>
</svg>
