<?xml version="1.0" encoding="utf-8"?>
<!-- Generator: Adobe Illustrator 14.0.0, SVG Export Plug-In . SVG Version: 6.00 Build 43363)  -->
<!DOCTYPE svg PUBLIC "-//W3C//DTD SVG 1.1//EN" "http://www.w3.org/Graphics/SVG/1.1/DTD/svg11.dtd">
<svg version="1.1" id="Layer_1" xmlns="http://www.w3.org/2000/svg" xmlns:xlink="http://www.w3.org/1999/xlink" x="0px" y="0px"
	 width="32px" height="32px" viewBox="0 0 32 32" enable-background="new 0 0 32 32" xml:space="preserve">
<g>
	<path fill="#4E4E4E" d="M15.856,10.741c-0.06,0-0.118-0.009-0.177-0.029c-0.289-0.097-0.444-0.408-0.348-0.698l2.45-7.313
		c0.091-0.268,0.371-0.424,0.644-0.364l9.996,2.222c0.298,0.066,0.486,0.361,0.421,0.659c-0.067,0.291-0.358,0.478-0.658,0.419
		l-9.513-2.119l-2.295,6.842c-0.077,0.231-0.291,0.375-0.521,0.375L15.856,10.741z"/>
	<path fill="#FFFFFF" d="M26.765,7.429c-1.304,0-2.366-1.06-2.366-2.365s1.063-2.373,2.366-2.373c1.302,0,2.364,1.059,2.364,2.366
		s-1.06,2.364-2.364,2.364V7.429z"/>
	<path fill="#232323" d="M26.765,3.252c1,0,1.813,0.811,1.813,1.813c0,1-0.812,1.813-1.813,1.813c-1.002,0-1.814-0.812-1.814-1.813
		C24.95,4.064,25.763,3.252,26.765,3.252 M26.765,2.149c-1.608,0-2.918,1.308-2.918,2.916c0,1.607,1.31,2.917,2.918,2.917
		s2.916-1.309,2.916-2.917C29.681,3.457,28.373,2.149,26.765,2.149z"/>
	<circle fill="#FFFFFF" cx="3.443" cy="15.078" r="2.891"/>
	<path fill="#232323" d="M3.443,18.521C1.545,18.521,0,16.975,0,15.078c0-1.898,1.545-3.443,3.443-3.443
		c1.897,0,3.443,1.545,3.443,3.443C6.886,16.975,5.34,18.521,3.443,18.521z M3.443,12.738c-1.291,0-2.339,1.048-2.339,2.339
		s1.048,2.34,2.339,2.34s2.339-1.049,2.339-2.34S4.734,12.738,3.443,12.738z"/>
	<circle fill="#FFFFFF" cx="28.557" cy="15.078" r="2.891"/>
	<path fill="#232323" d="M28.557,18.521c-1.897,0-3.442-1.547-3.442-3.444c0-1.898,1.545-3.443,3.442-3.443
		c1.898,0,3.443,1.545,3.443,3.443C32,16.975,30.455,18.521,28.557,18.521z M28.557,12.738c-1.291,0-2.339,1.048-2.339,2.339
		s1.048,2.34,2.339,2.34s2.34-1.049,2.34-2.34S29.848,12.738,28.557,12.738z"/>
	<ellipse fill="#FFFFFF" cx="16" cy="20.098" rx="14.525" ry="9.201"/>
	<path fill="#232323" d="M16,29.852c-8.313,0-15.078-4.375-15.078-9.754S7.687,10.343,16,10.343s15.077,4.376,15.077,9.755
		S24.313,29.852,16,29.852z M16,11.446c-7.705,0-13.974,3.882-13.974,8.651c0,4.77,6.268,8.65,13.974,8.65
		c7.707,0,13.975-3.881,13.975-8.65C29.975,15.329,23.707,11.446,16,11.446z M16,26.482c-2.474,0-5.296-0.529-6.02-1.717
		c-0.159-0.26-0.077-0.6,0.185-0.76c0.258-0.158,0.599-0.076,0.758,0.184c0.287,0.482,2.108,1.191,5.076,1.191
		c2.969,0,4.78-0.711,5.076-1.191c0.156-0.258,0.496-0.342,0.761-0.182c0.257,0.158,0.343,0.496,0.18,0.76
		C21.296,25.953,18.476,26.482,16,26.482z"/>
	<circle fill="#FF4500" cx="21.313" cy="17.685" r="2.426"/>
	<circle fill="#FF4500" cx="10.688" cy="17.685" r="2.426"/>
</g>
</svg>
