<svg xmlns="http://www.w3.org/2000/svg" xmlns:xlink="http://www.w3.org/1999/xlink" width="32" height="32" viewBox="0 0 32 32"><symbol id="a" viewBox="-16 -16 32 32"><g><path fill="#fff" d="M-11.74-7.468c-2.351 0-4.26-1.915-4.26-4.252 0-2.349 1.91-4.243 4.26-4.243 2.358 0 4.265 1.896 4.265 4.243 0 2.337-1.907 4.252-4.265 4.252zM-15.996 5.128v-6.135c3.995 0 7.75-1.561 10.577-4.391 2.826-2.82 4.385-6.593 4.385-10.602h6.16c0 11.65-9.479 21.128-21.122 21.128zM-15.988 16v-6.137c14.242 0 25.837-11.604 25.837-25.863h6.151c0 17.641-14.352 32-31.988 32z"/><g fill="#4D4D4D"><path d="M-14.424 3.493c9.53-.761 17.155-8.39 17.917-17.922l1.633-1.571c0 11.65-9.479 21.128-21.122 21.128"/><path d="M16-16c0 17.641-14.352 32-31.988 32l1.571-1.61c15.525-.795 28.013-13.288 28.806-28.819l1.611-1.571zM-7.972-9.719c-1.097 2.063-3.681 2.858-5.763 1.752 0 0 .077.012.19.022.307.069.624.112.951.112 2.399 0 4.345-1.944 4.345-4.344 0-1.256-.54-2.379-1.392-3.17-.064-.078-.105-.123-.105-.123 1.021.543 1.733 1.438 2.063 2.453.342 1.057.273 2.241-.289 3.298z"/></g></g></symbol><use xlink:href="#a" width="32" height="32" x="-16" y="-16" transform="matrix(1 0 0 -1 16 16)" overflow="visible"/></svg>