<?xml version="1.0" encoding="utf-8"?>
<!-- Generator: Adobe Illustrator 14.0.0, SVG Export Plug-In . SVG Version: 6.00 Build 43363)  -->
<!DOCTYPE svg PUBLIC "-//W3C//DTD SVG 1.1//EN" "http://www.w3.org/Graphics/SVG/1.1/DTD/svg11.dtd">
<svg version="1.1" id="Layer_1" xmlns="http://www.w3.org/2000/svg" xmlns:xlink="http://www.w3.org/1999/xlink" x="0px" y="0px"
	 width="32px" height="32px" viewBox="0 0 32 32" enable-background="new 0 0 32 32" xml:space="preserve">
<g>
	<path fill="#808184" d="M30.475,15.89c0,7.947-6.443,14.393-14.394,14.393S1.69,23.837,1.69,15.89
		c0-7.949,6.443-14.393,14.393-14.393S30.475,7.94,30.475,15.89L30.475,15.89z"/>
	<path fill="#B3B3B3" d="M30.737,16c0,8.137-6.598,14.737-14.737,14.737S1.263,24.138,1.263,16C1.263,7.863,7.86,1.263,16,1.263
		S30.737,7.861,30.737,16z"/>
	<path fill="#4D4D4D" d="M29.83,16c0,7.636-6.191,13.828-13.83,13.828c-7.638,0-13.828-6.192-13.828-13.83S8.362,2.17,16,2.17
		C23.639,2.17,29.83,8.36,29.83,16z"/>
	<path fill="#FFFFFF" stroke="#595959" d="M28.99,16c0,7.174-5.815,12.99-12.99,12.99S3.01,23.173,3.01,16
		C3.01,8.825,8.825,3.01,16,3.01S28.99,8.824,28.99,16z"/>
	<path fill="#231F20" d="M28.672,16C28.672,22.997,23,28.67,16,28.67S3.327,22.998,3.327,16S9,3.326,16,3.326S28.672,9,28.672,16z"
		/>
	<path fill="#FFFFFF" d="M28.672,16.04c0,7-5.672,12.67-12.672,12.67S3.327,23.04,3.327,16.04C3.327,9.042,9,3.37,16,3.37
		S28.672,9.04,28.672,16.04z M4.084,16.08c0-6.66,5.344-12.061,11.933-12.061c6.59,0,11.933,5.4,11.933,12.061
		c0,6.662-5.343,12.06-11.933,12.06S4.084,22.743,4.084,16.08z"/>
	<linearGradient id="SVGID_1_" gradientUnits="userSpaceOnUse" x1="18.3896" y1="26.5449" x2="13.3104" y2="3.819">
		<stop  offset="0" style="stop-color:#6ECBF3"/>
		<stop  offset="0.1" style="stop-color:#5DC0E8"/>
		<stop  offset="0.297" style="stop-color:#33A4CC"/>
		<stop  offset="0.382" style="stop-color:#1E96BF"/>
		<stop  offset="0.64" style="stop-color:#22689D"/>
		<stop  offset="0.874" style="stop-color:#254583"/>
		<stop  offset="1" style="stop-color:#263879"/>
	</linearGradient>
	<path fill="url(#SVGID_1_)" d="M27.645,15.855c0,6.409-5.215,11.604-11.645,11.604c-6.43,0-11.644-5.194-11.644-11.604
		C4.356,9.446,9.57,4.25,16,4.25c6.43,0,11.645,5.194,11.645,11.604V15.855z"/>
	<path fill="#1E96BF" d="M27.645,15.855c0,6.409-5.215,11.604-11.645,11.604c-6.43,0-11.644-5.194-11.644-11.604
		C4.356,9.446,9.57,4.25,16,4.25c6.43,0,11.645,5.194,11.645,11.604V15.855z"/>
	<path fill="#305DAA" d="M12.33,7.245c0-1.127,0.905-2.043,2.02-2.043c1.115,0,2.023,0.916,2.023,2.043
		c0,1.13-0.905,2.043-2.02,2.043C13.238,9.288,12.331,8.374,12.33,7.245L12.33,7.245z M5.238,17.615c0-1.13,0.904-2.044,2.02-2.044
		c1.116,0,2.022,0.919,2.022,2.049c0,1.128-0.903,2.042-2.02,2.042c-1.116,0-2.02-0.915-2.02-2.043L5.238,17.615z M15.853,24.62
		c0-1.13,0.906-2.043,2.022-2.043s2.02,0.914,2.02,2.042s-0.902,2.04-2.02,2.04s-2.022-0.918-2.022-2.046V24.62z M22.617,13.85
		c0-1.127,0.904-2.042,2.02-2.042c1.118,0,2.023,0.915,2.023,2.042c0,1.131-0.905,2.044-2.021,2.044
		C23.521,15.894,22.618,14.979,22.617,13.85L22.617,13.85z"/>
	<path fill="#FFFFFF" d="M16.01,4.212c-0.63,0-1.246,0.05-1.85,0.146l-0.024,0.004c-0.196,0.029-0.393,0.066-0.587,0.109
		l-0.02,0.002c-5.36,1.146-9.386,5.935-9.386,11.67c0,6.591,5.31,11.933,11.858,11.933c6.55,0,11.862-5.34,11.862-11.93
		C27.87,9.553,22.561,4.21,16.01,4.21V4.212z M18.77,27.15l-0.662-1.147l-0.131,1.317c-0.656,0.115-1.33,0.176-2.021,0.176
		c-5.45,0-10.017-3.79-11.21-8.884l1.14-0.638L4.6,17.891c-0.104-0.619-0.16-1.27-0.16-1.922c0-5.565,3.938-10.212,9.18-11.294
		l0.51,1.207l0.027-1.307c0.587-0.093,1.188-0.141,1.8-0.141c5.443,0,10.007,3.783,11.208,8.87l-1.056,0.58h1.175
		c0.124,0.674,0.188,1.37,0.188,2.082c0,5.398-3.703,9.931-8.703,11.187V27.15z M13.58,8.737l-0.555-2.37l0.337-0.078L14.4,7.31
		c0.235,0.236,0.435,0.454,0.6,0.671l0.01-0.006c-0.102-0.308-0.176-0.595-0.262-0.964l-0.233-0.989l0.29-0.063l0.555,2.368
		l-0.31,0.074l-1.034-1.027c-0.228-0.224-0.45-0.46-0.625-0.688l-0.003,0.007c0.087,0.294,0.157,0.578,0.25,0.973l0.236,1.01
		l-0.29,0.07L13.58,8.737z M8.925,18.147l-2.027,1.17l-0.083-0.301l1.032-0.569c0.254-0.143,0.508-0.276,0.707-0.376
		c-0.23,0.024-0.508,0.029-0.81,0.035l-1.184,0.02l-0.084-0.293l1.034-0.58c0.242-0.133,0.484-0.265,0.705-0.362v-0.006
		C7.96,16.9,7.7,16.91,7.41,16.918L6.228,16.94l-0.08-0.287l2.356,0.002l0.084,0.293l-1.06,0.598
		c-0.26,0.146-0.46,0.252-0.673,0.344l0.002,0.007c0.23-0.025,0.455-0.034,0.76-0.033l1.227-0.011L8.925,18.147L8.925,18.147z
		 M18.545,23.567c-0.154-0.063-0.365-0.091-0.578-0.048c-0.316,0.064-0.467,0.268-0.42,0.508c0.045,0.22,0.198,0.324,0.545,0.38
		c0.417,0.064,0.698,0.223,0.766,0.556c0.072,0.372-0.181,0.71-0.645,0.802c-0.24,0.049-0.434,0.027-0.548-0.013l0.035-0.27
		c0.084,0.032,0.258,0.067,0.473,0.025c0.326-0.064,0.412-0.284,0.38-0.448c-0.045-0.223-0.212-0.303-0.566-0.365
		c-0.435-0.075-0.674-0.23-0.745-0.58c-0.07-0.368,0.138-0.745,0.7-0.856c0.229-0.046,0.496-0.023,0.64,0.034l-0.03,0.276
		L18.545,23.567z M24.652,14.35l-0.114-0.934l-0.87,0.106l0.13,1.046L23.534,14.6l-0.166-1.361l2.416-0.296l0.159,1.307l-0.262,0.03
		l-0.119-0.99l-0.765,0.092l0.113,0.935l-0.252,0.029L24.652,14.35z M19.716,16.047l3.87-1.993l-4.26-0.165
		c-0.543-1.049-1.563-1.807-2.77-1.979L14.69,8.007l-0.16,4.174c-0.463,0.2-0.875,0.497-1.216,0.851l-2.155-0.79l1.553,1.625
		c-0.242,0.46-0.394,0.977-0.425,1.523l-3.718,1.7l4.1,0.16c0.577,1.17,1.746,1.99,3.116,2.074l1.747,3.403l0.17-3.802
		c0.476-0.24,0.894-0.582,1.224-0.995l1.85,0.641l-1.359-1.44c0.15-0.335,0.252-0.7,0.298-1.08L19.716,16.047z M16.014,18.892
		c-1.817,0-3.292-1.473-3.292-3.29c0-1.816,1.475-3.294,3.292-3.294c1.82,0,3.292,1.474,3.292,3.29
		C19.307,17.415,17.833,18.893,16.014,18.892L16.014,18.892z M8.851,23.612l8.279-6.952l-2.093-1.97L8.851,23.612z"/>
	<path fill="#D2D2D2" d="M8.85,23.613l8.28-6.953l-1.08-1.019L8.85,23.613z"/>
	<path fill="#D34527" d="M17.13,16.66l-2.093-1.97l8.273-6.987L17.13,16.66z"/>
	<path fill="#F16722" d="M15.103,14.754l0.947,0.89l6.69-7.394L15.103,14.754z"/>
	<linearGradient id="SVGID_2_" gradientUnits="userSpaceOnUse" x1="16.0835" y1="16.5732" x2="16.0405" y2="14.6606">
		<stop  offset="0" style="stop-color:#FFFFFF"/>
		<stop  offset="0.158" style="stop-color:#EEEFEF"/>
		<stop  offset="0.469" style="stop-color:#C3C4C4"/>
		<stop  offset="0.9" style="stop-color:#7E7F81"/>
		<stop  offset="1" style="stop-color:#6D6E70"/>
	</linearGradient>
	<path fill="url(#SVGID_2_)" d="M17.018,15.643c0,0.53-0.43,0.957-0.958,0.957s-0.957-0.428-0.957-0.957
		c0-0.527,0.43-0.957,0.958-0.957c0.53,0,0.96,0.429,0.96,0.957H17.018z"/>
	<path fill="#6D6E70" d="M16.813,15.643c0,0.417-0.337,0.755-0.752,0.755c-0.417,0-0.754-0.338-0.754-0.755
		c0-0.416,0.337-0.753,0.754-0.753C16.476,14.89,16.813,15.227,16.813,15.643z"/>
	
		<radialGradient id="SVGID_3_" cx="-1777.7261" cy="-5753.5342" r="0.8271" gradientTransform="matrix(0.578 0.578 -0.144 0.144 214.174 1872.5079)" gradientUnits="userSpaceOnUse">
		<stop  offset="0.012" style="stop-color:#929497"/>
		<stop  offset="1" style="stop-color:#FFFFFF"/>
	</radialGradient>
	<path fill="url(#SVGID_3_)" d="M16.736,15.643c0,0.374-0.304,0.678-0.676,0.678c-0.374,0-0.677-0.304-0.677-0.678
		c0-0.373,0.303-0.675,0.677-0.675C16.433,14.968,16.736,15.27,16.736,15.643z"/>
</g>
</svg>
