<svg xmlns="http://www.w3.org/2000/svg" xmlns:xlink="http://www.w3.org/1999/xlink" width="32" height="32" viewBox="0 0 32 32"><symbol id="d" viewBox="-16 -16 32 32"><path fill="#808184" d="M14.474.11c0-7.947-6.443-14.392-14.393-14.392s-14.393 6.445-14.393 14.392c0 7.949 6.443 14.393 14.393 14.393s14.393-6.443 14.393-14.393z"/><path fill="#B3B3B3" d="M16 .001c0-8.836-7.163-16.001-16-16.001s-16 7.165-16 16.001 7.163 15.999 16 15.999 16-7.163 16-15.999z"/><path fill="#4D4D4D" d="M13.83.001c0-7.637-6.192-13.829-13.83-13.829s-13.828 6.192-13.828 13.829c0 7.638 6.19 13.829 13.828 13.829s13.83-6.191 13.83-13.829z"/><path fill="#fff" stroke="#595959" d="M12.991.001c0-7.175-5.816-12.99-12.991-12.99s-12.991 5.815-12.991 12.99c0 7.174 5.816 12.99 12.991 12.99s12.991-5.816 12.991-12.99z"/><path fill="#231F20" d="M12.672.001c0-6.999-5.673-12.673-12.672-12.673s-12.673 5.674-12.673 12.673 5.674 12.672 12.673 12.672 12.672-5.673 12.672-12.672z"/><path fill="#fff" d="M12.672-.04c0-6.999-5.673-12.671-12.672-12.671s-12.673 5.672-12.673 12.671c0 6.998 5.674 12.671 12.673 12.671s12.672-5.673 12.672-12.671zM-11.916-.08c0 6.66 5.344 12.06 11.933 12.06 6.59 0 11.933-5.399 11.933-12.06 0-6.662-5.343-12.061-11.933-12.061-6.589 0-11.933 5.399-11.933 12.061z"/><linearGradient id="a" gradientUnits="userSpaceOnUse" x1="2.389" y1="-10.544" x2="-2.69" y2="12.181"><stop offset="0" stop-color="#6ECBF3"/><stop offset=".1" stop-color="#5DC0E8"/><stop offset=".297" stop-color="#33A4CC"/><stop offset=".382" stop-color="#1E96BF"/><stop offset=".64" stop-color="#22689D"/><stop offset=".874" stop-color="#254583"/><stop offset="1" stop-color="#263879"/></linearGradient><path fill="url(#a)" d="M11.644.145c0-6.409-5.213-11.606-11.644-11.606s-11.644 5.196-11.644 11.606 5.213 11.606 11.644 11.606 11.644-5.196 11.644-11.606z"/><path fill="#1E96BF" d="M11.644.145c0-6.409-5.213-11.606-11.644-11.606s-11.644 5.196-11.644 11.606 5.213 11.606 11.644 11.606 11.644-5.196 11.644-11.606z"/><path opacity=".89" fill="#76B2E1" d="M-5.887 1.901l.343-.452 1.537-.09.396.182 1.25.091.541-.398h.886l.218.253h.18v.082l-.307.081-.217-.29-.453.127-.379.65-.253.126-.56-.325-.507.109-.163.216-.433-.307h-.344l-.416.307-.342.489.017.271-.199.288.254.451.759.381.868.47.487-.397.235-.109s.182.037 0 .289c-.181.254-.542.507-.56.633-.018.127.018.471.181.669.163.2.234.38.217.543-.019.162-.182.579-.163.885.018.308.633 1.699.669 2.025s0 1.012.073 1.374c.071.361-.037.704-.037.704s-.615-.143-.831 0l-.145.102s-1.845-.607-2.008-.751l.183-.235-.2-.507c-.126-.145.307-.614.307-.614.074-.307-.161-.38-.505-.234-.344.145-.363.595-.363.595l-.632-.161h-.65s-2.578-1.62-3.79-4.965c0 0 1.349-1.472 1.564-1.508.218-.035.472.217.688 0l.506-.614h.363v-.254h.396l.614-.398-.673.543-.629.506.65-.217.651-.47.726-.146 2.275-.252"/><path fill="#8BC6EC" d="M-.589-2.353l.939-.578.604-.724 1.157-.121s1.036-1.204 1.783-4.193l.169-.313.241-.096.193-.482v-.7250000000000001l.588-.714.821.439-.083.036.145.794-.41.17-.096.264.167.241-.071.53-.242.314.266.072-.049.507s.7.168.651.675c-.048.506-.579.458-.579.458s.844-.313.771 1.324c0 0 .227.579.005.868 0 0-.246.459.623 1.061 0 0 .217 1.013-.387 1.76 0 0 .531 1.277-.217 1.688 0 0-1.374.603-2.338.458-.962-.146-1.734-.024-2.241-.579-.507-.553-2.482-2.385-2.41-3.134z"/><path fill="#898583" d="M5.698-9.159l.255-.653.22.139zM7.12-8.11l.344-.598.205.181zM8.472-6.701l.425-.531.175.22zM9.617-5.146l.45-.341.092.17zM6.711-8.87l.12-.329.17.112zM8.181-7.543l.172-.314.119.156zM9.4-6.049l.217-.195.087.137zM10.268-4.303l.282-.191.08.191zM10.448-3.422l.419-.241.079.241zM10.946-2.565l.204-.117.04.171zM10.798-1.711l.52-.14.037.236zM11.19-.698l.255-.062v.169zM10.946.253l.499-.083v.204zM11.014 1.182l.412-.108-.015.158zM10.984 3.369l-.283-.054.239.196zM10.152 3.933l.549.163-.064.259zM9.927 5.063l.359.077-.063.126zM9.275 5.695l.587.226-.103.172zM8.878 6.762l.319.156-.099.133zM8.146 7.296l.492.316-.141.159zM7.612 8.19l.268.214-.135.125zM6.626 8.57l.516.48-.258.2zM5.993 9.42l.278.262-.138.089zM5.103 9.623l.392.527-.191.103zM4.321 10.253l.252.352-.197.084zM3.318 10.521l.285.458-.218.071zM2.514 11.05l.111.209-.183.042.091-.291zM1.438 10.947l.174.504h-.228zM.524 11.199l.119.351h-.199zM-.397 11.05l.037.515-.201-.015zM-1.084 11.301l.035.225h-.208zM-3.072 10.839v.328l-.224-.063zM-3.968 10.323l-.09.516-.261-.091zM-4.88 10.17l-.07.303-.219-.107zM-5.513 9.573l-.226.49-.186-.108zM-6.604 9.517l-.161-.115.33-.217zM-7.022 8.434l-.284.555-.236-.199zM-7.8 7.847l-.336.398-.162-.164zM-8.253 7.024l-.486.576-.17-.201zM-9.048 6.314l-.393.392-.123-.178zM-9.446 5.388l-.556.448-.127-.224zM-10.178 4.7l-.314.198-.073-.162zM-10.328 3.726l-.528.292-.086-.241zM-10.855 2.901l-.31.147-.053-.204zM-10.652 1.917l-.717.231-.049-.285zM-11.06 1.022l-.451.11v-.2zM-10.942-.108l-.617-.109.048.302zM-11.251-1.036l-.251-.1-.009.256zM-10.754-3.085l-.282-.204-.099.204zM-10.754-4.072l.615.409-.784-.094zM-10.391-5.036l.397.288h-.483zM-9.889-5.951l.496.43-.652-.165zM-9.393-6.652l.339.205-.277-.34zM-8.741-7.399l.592.374-.454-.656zM-7.997-8.305l.277.351-.429-.175zM-7.3-8.922l.584.489-.351-.671zM-6.473-9.533l.309.25-.082-.4zM-5.685-10.021l.48.658-.24-.789z"/><path fill="#305DAA" d="M-3.67 8.755c0 1.127.905 2.043 2.021 2.043s2.021-.916 2.021-2.043c0-1.129-.905-2.043-2.021-2.043s-2.021.914-2.021 2.043zM-10.762-1.615c0 1.129.904 2.044 2.021 2.044s2.022-.915 2.022-2.044c0-1.128-.905-2.042-2.022-2.042-1.116 0-2.021.914-2.021 2.042zM-.147-8.619c0 1.128.906 2.042 2.022 2.042s2.02-.914 2.02-2.042-.903-2.044-2.02-2.044-2.022.916-2.022 2.044zM6.617 2.148c0 1.127.905 2.042 2.021 2.042 1.117 0 2.022-.915 2.022-2.042 0-1.13-.905-2.044-2.022-2.044-1.116 0-2.021.915-2.021 2.044z"/><path fill="#fff" d="M.009 11.788c-.628 0-1.245-.05-1.848-.146v.001l-.025-.005c-.196-.031-.393-.067-.587-.109l-.015-.003c-5.361-1.146-9.385-5.934-9.385-11.671 0-6.59 5.311-11.931 11.859-11.931 6.55 0 11.862 5.341 11.862 11.931.001 6.591-5.311 11.933-11.861 11.933zm2.76-22.937l-.661 1.146-.132-1.317c-.656-.116-1.33-.176-2.021-.176-5.45 0-10.016 3.791-11.21 8.884l1.141.637-1.286.084c-.104.627-.16 1.271-.16 1.928 0 5.566 3.938 10.212 9.179 11.294l.512-1.207.026 1.307c.587.091 1.188.139 1.799.139 5.445 0 10.008-3.784 11.209-8.87l-1.055-.579h1.174c.124-.676.188-1.372.188-2.084.001-5.398-3.703-9.93-8.703-11.186zM-2.42 7.262l-.555 2.369.337.079 1.037-1.021c.236-.235.436-.453.602-.67l.01.006c-.103.308-.177.595-.263.964l-.233.991.289.067.556-2.368-.311-.073-1.033 1.026c-.228.225-.449.459-.625.688l-.009-.006c.087-.294.157-.578.25-.973l.236-1.012-.288-.067zM-7.075-2.147l-2.027-1.171-.083.3 1.032.57c.254.142.508.276.707.376v.005c-.229-.025-.508-.031-.809-.035l-1.185-.021-.084.295 1.034.579c.242.134.484.266.705.363l-.001.006c-.252-.02-.514-.029-.803-.037l-1.184-.023-.081.287 2.357-.002.084-.293-1.059-.598c-.26-.146-.461-.252-.674-.344l.002-.006c.229.025.455.034.76.033l1.227.01.082-.294zM2.546-7.568c-.155.062-.367.09-.579.047-.317-.063-.467-.266-.419-.506.044-.219.197-.325.544-.381.417-.064.698-.222.765-.555.073-.372-.18-.71-.644-.802-.24-.048-.433-.027-.548.013l.035.269c.084-.032.258-.067.473-.025.326.065.412.284.38.448-.045.223-.212.303-.567.366-.434.075-.674.229-.745.581-.072.367.132.744.695.855.229.046.495.024.641-.034l-.031-.276zM8.653 1.648l-.115.935-.871-.106.131-1.046-.264-.033-.166 1.362 2.416.296.159-1.307-.261-.033-.121.992-.763-.094.113-.934-.258-.032zM3.716-.046l3.869 1.993-4.259.165c-.543 1.046-1.562 1.802-2.771 1.976l-1.866 3.905-.16-4.174c-.461-.2-.873-.491-1.214-.85l-2.155.797 1.558-1.626c-.242-.46-.394-.976-.425-1.523l-3.719-1.704 4.097-.161c.577-1.168 1.746-1.989 3.116-2.073l1.747-3.403.17 3.802c.476.241.893.582 1.224.995l1.849-.638-1.36 1.44c.15.336.253.698.299 1.079zm-3.702-2.846c-1.817 0-3.292 1.473-3.292 3.291s1.475 3.292 3.292 3.292c1.819 0 3.292-1.474 3.292-3.292s-1.473-3.291-3.292-3.291zM-7.149-7.613l8.28 6.954-2.095 1.967z"/><path fill="#D2D2D2" d="M-7.149-7.613l8.28 6.954-1.082 1.016z"/><path fill="#D34527" d="M1.131-.659l-2.095 1.967 8.272 6.987z"/><path fill="#F16722" d="M-.897 1.246l.946-.889 6.692 7.394z"/><linearGradient id="b" gradientUnits="userSpaceOnUse" x1=".081" y1="-.574" x2=".038" y2="1.34"><stop offset="0" stop-color="#fff"/><stop offset=".158" stop-color="#EEEFEF"/><stop offset=".469" stop-color="#C3C4C4"/><stop offset=".9" stop-color="#7E7F81"/><stop offset="1" stop-color="#6D6E70"/></linearGradient><path fill="url(#b)" d="M1.018.357c0-.529-.429-.958-.957-.958-.529 0-.958.429-.958.958 0 .528.429.957.958.957.528 0 .957-.428.957-.957z"/><path fill="#6D6E70" d="M.813.357c0-.417-.338-.754-.753-.754-.417 0-.754.337-.754.754 0 .416.337.753.754.753.416 0 .753-.337.753-.753z"/><radialGradient id="c" cx="-1093.726" cy="1608.424" r=".827" gradientTransform="matrix(.578 -.578 .144 .144 399.718 -864.26)" gradientUnits="userSpaceOnUse"><stop offset=".012" stop-color="#929497"/><stop offset="1" stop-color="#fff"/></radialGradient><path fill="url(#c)" d="M.736.357c0-.374-.304-.677-.676-.677-.374 0-.677.303-.677.677 0 .373.303.675.677.675.373 0 .676-.302.676-.675z"/></symbol><use xlink:href="#d" width="32" height="32" x="-16" y="-16" transform="matrix(1 0 0 -1 16 16)" overflow="visible"/></svg>