<svg xmlns="http://www.w3.org/2000/svg" width="32" height="32" viewBox="0 0 32 32"><path fill="#73CFEF" d="M28.668 17.803c.078-.568.122-1.146.122-1.735 0-7.064-5.757-12.791-12.856-12.791-.706 0-1.396.058-2.071.169A7.672 7.672 0 0 0 3.236 14.051c-.105.657-.16 1.331-.16 2.016 0 7.063 5.755 12.791 12.855 12.791.803 0 1.582-.077 2.34-.215a7.681 7.681 0 0 0 4.056 1.155 7.673 7.673 0 0 0 7.672-7.674 7.612 7.612 0 0 0-1.331-4.321z"/><path opacity=".3" d="M28.668 17.803c.078-.568.122-1.146.122-1.735 0-3.662-1.554-6.954-4.034-9.286 2.162 2.29 3.496 5.359 3.496 8.747 0 .589-.045 1.167-.123 1.735a7.608 7.608 0 0 1 1.331 4.322 7.673 7.673 0 0 1-7.672 7.675 7.685 7.685 0 0 1-4.055-1.155 12.827 12.827 0 0 1-11.161-3.289 12.844 12.844 0 0 0 11.701 3.828 7.681 7.681 0 0 0 4.056 1.155 7.673 7.673 0 0 0 7.672-7.674 7.63 7.63 0 0 0-1.333-4.323z"/><path opacity=".3" d="M3.886 16.605c0-.686.055-1.358.159-2.016A7.67 7.67 0 0 1 14.67 3.984a12.823 12.823 0 0 1 8.811 1.746 12.837 12.837 0 0 0-9.621-2.285A7.673 7.673 0 0 0 3.236 14.051c-.105.657-.16 1.331-.16 2.016 0 4.601 2.449 8.625 6.114 10.875-3.208-2.323-5.304-6.083-5.304-10.337z"/><path opacity=".3" d="M16.008 26.602c-3.215 0-5.348-.771-7.358-2.656-1.304-1.227-1.798-2.752-1.322-4.082a2.713 2.713 0 0 1 2.41-1.814c1.616-.107 2.653 1.044 3.407 1.871.229.251.489.536.635.627.348.219 1.487.694 2.603.694.798 0 1.387-.23 1.801-.703.255-.292.317-.487.298-.542-.122-.332-1.206-.954-3.146-1.238-3.894-.576-8.303-2.716-7.923-6.847.33-3.576 2.942-6.105 6.655-6.441 3.587-.329 6.143.411 8.386 2.324 1.825 1.557 1.59 3.163 1.403 3.781-.328 1.087-1.271 1.905-2.347 2.035l-.229.014c-.928 0-1.669-.641-2.454-1.321-.887-.768-1.891-1.637-3.192-1.658h-.001c-1.375 0-2.189.785-2.238 1.189-.025.21.372.526 1.182.723.516.125 1.038.24 1.558.355 3.373.744 6.863 1.512 8.313 4.943.672 1.593.498 3.338-.489 4.914-1.357 2.166-4.013 3.657-6.765 3.801-.418.019-.812.031-1.187.031z"/><path fill="#FFF" d="M14.163 6.003c3.503-.319 5.786.531 7.59 2.071 2.085 1.778.957 3.767-.373 3.928-1.321.159-2.81-2.927-5.729-2.973-3.011-.047-5.044 3.132-1.329 4.036 3.717.902 7.697 1.273 9.131 4.671 1.436 3.396-2.229 7.007-6.316 7.22-4.088.212-5.998-.69-7.75-2.335-1.955-1.836-1.17-3.93.423-4.036 1.592-.106 2.549 1.806 3.399 2.337.85.53 4.078 1.737 5.784-.214 1.858-2.123-1.234-3.222-3.503-3.556-3.237-.479-7.324-2.229-7.006-5.681.318-3.45 2.93-5.219 5.679-5.468z"/></svg>