<svg xmlns="http://www.w3.org/2000/svg" xmlns:xlink="http://www.w3.org/1999/xlink" width="32" height="32" viewBox="0 0 32 32"><use xlink:href="#a" width="32" height="32" x="-16" y="-16" transform="matrix(1 0 0 -1 16 16)" overflow="visible"/><path fill="#999" d="M32 28a4 4 0 0 1-4 4H4a4 4 0 0 1-4-4V4a4 4 0 0 1 4-4h24a4 4 0 0 1 4 4v24z"/><g><path fill="#165D59" d="M32 28a4 4 0 0 1-4 4H4a4 4 0 0 1-4-4V4a4 4 0 0 1 4-4h24a4 4 0 0 1 4 4v24z"/><path fill="#165D59" d="M32 28a4 4 0 0 1-4 4H4a4 4 0 0 1-4-4V4a4 4 0 0 1 4-4h24a4 4 0 0 1 4 4v24z"/><path fill="#165D59" d="M32 28a4 4 0 0 1-4 4H4a4 4 0 0 1-4-4V4a4 4 0 0 1 4-4h24a4 4 0 0 1 4 4v24z"/></g><g fill="#FFF"><path d="M10.317 29.063H2.002l14.75-26.125h8.314z"/><circle cx="25.843" cy="24.903" r="4.159"/></g></svg>