<svg xmlns="http://www.w3.org/2000/svg" xmlns:xlink="http://www.w3.org/1999/xlink" width="32" height="32" viewBox="0 0 32 32"><symbol id="a" viewBox="-15.975 -16.594 31.949 33.188"><path fill="#fff" stroke="#333" d="M-11.231-13.353h26.706v26.706h-26.706z"/><g fill="#999"><path d="M12.972 7.354h-5.294v3.176h5.294zM12.972 1.441h-5.294v3.177h5.294zM12.972-4.47h-5.294v3.177h5.294zM12.972-10.381h-5.294v3.176h5.294zM5.03 7.354h-5.294v3.176h5.294zM5.03 1.441h-5.294v3.177h5.294zM5.03-4.47h-5.294v3.177h5.294zM5.03-10.381h-5.294v3.176h5.294z"/></g><path fill="#fff" stroke="#333" d="M-15.475-13.353l15.326-2.647v32l-15.326-2.647z"/><path fill="#00BF16" d="M-1.855 6.271h-3.178l-2.78-4.978-2.778 4.978h-3.178l4.634-6.969-4.634-6.971h3.178l2.778 4.98 2.78-4.98h3.178l-4.633 6.971z"/></symbol><use xlink:href="#a" width="31.949" height="33.188" x="-15.975" y="-16.594" transform="matrix(1 0 0 -1 16 16)" overflow="visible"/></svg>