<?xml version="1.0" encoding="utf-8"?>
<!-- Generator: Adobe Illustrator 14.0.0, SVG Export Plug-In . SVG Version: 6.00 Build 43363)  -->
<!DOCTYPE svg PUBLIC "-//W3C//DTD SVG 1.1//EN" "http://www.w3.org/Graphics/SVG/1.1/DTD/svg11.dtd">
<svg version="1.1" id="Layer_1" xmlns="http://www.w3.org/2000/svg" xmlns:xlink="http://www.w3.org/1999/xlink" x="0px" y="0px"
	 width="32px" height="32px" viewBox="0 0 32 32" enable-background="new 0 0 32 32" xml:space="preserve">
<g>
	<g>
		<path fill="#FFFFFF" d="M4.77,29.352h26.704V2.648H4.77V29.352z"/>
		<path fill="#777777" d="M31.974,29.852H4.27V2.148h27.704V29.852L31.974,29.852z M5.27,28.852h25.704V3.148H5.27V28.852
			L5.27,28.852z"/>
	</g>
	<g>
		<path fill="#999999" d="M28.972,8.647h-5.294V5.47h5.294V8.647z M28.972,14.559h-5.294v-3.18h5.294V14.559z M28.972,20.469h-5.294
			v-3.18h5.294V20.469z M28.972,26.379h-5.294v-3.18h5.294V26.379z M21.029,8.642h-5.294V5.466h5.294V8.642z M21.029,14.555h-5.294
			v-3.18h5.294V14.555z M21.029,20.465h-5.294v-3.178h5.294V20.465z M21.029,26.375h-5.294V23.2h5.294V26.375z"/>
	</g>
	<g>
		<path fill="#FFFFFF" d="M0.525,29.352l15.325,2.647V0L0.525,2.648V29.352z"/>
		<path fill="#777777" d="M16.35,32.593l-16.325-2.82V2.227l16.325-2.82V32.593L16.35,32.593z M1.025,28.931l14.325,2.475V0.594
			L1.025,3.069V28.931L1.025,28.931z"/>
	</g>
	<g>
		<path fill="#00BF16" d="M14.145,9.73h-3.178l-2.779,4.977L5.409,9.729h-3.18l4.63,6.964l-4.635,6.97h3.18l2.776-4.98l2.779,4.98
			h3.18L9.509,16.7L14.145,9.73z"/>
	</g>
</g>
</svg>
