<?xml version="1.0" encoding="utf-8"?>
<!-- Generator: Adobe Illustrator 14.0.0, SVG Export Plug-In . SVG Version: 6.00 Build 43363)  -->
<!DOCTYPE svg PUBLIC "-//W3C//DTD SVG 1.1//EN" "http://www.w3.org/Graphics/SVG/1.1/DTD/svg11.dtd">
<svg version="1.1" id="Layer_1" xmlns="http://www.w3.org/2000/svg" xmlns:xlink="http://www.w3.org/1999/xlink" x="0px" y="0px"
	 width="32px" height="32px" viewBox="0 0 32 32" enable-background="new 0 0 32 32" xml:space="preserve">
<g>
	<path fill="#818185" d="M20.946,18.833v9.426H7.201v-9.43H5.423V30h17.3V18.833H20.946z M19.619,26.268H8.528v-2.31h11.091V26.268z
		"/>
	<path fill="#A68A6E" d="M19.424,23.158L8.373,22.226l0.194-2.303l11.053,0.934L19.424,23.158z"/>
	<path fill="#C09553" d="M19.526,20.144L8.82,17.25l0.6-2.23l10.71,2.895L19.526,20.144z"/>
	<path fill="#D38B28" d="M20.438,17.36l-9.576-5.594l1.165-1.995l9.577,5.599L20.438,17.36z"/>
	<path fill="#FD8A07" d="M22.133,14.803l-6.481-9l1.88-1.35l6.48,9L22.133,14.803z"/>
	<path fill="#FE7A15" d="M24.305,13.323L22.342,2.407L24.617,2l1.959,10.916L24.305,13.323z"/>
</g>
</svg>
