<svg xmlns="http://www.w3.org/2000/svg" xmlns:xlink="http://www.w3.org/1999/xlink" width="32" height="32" viewBox="0 0 32 32"><symbol viewBox="-16.001 -16 32 32"><g><use xlink:href="#_x5F_button_x5F_shape" width="32" height="32" x="-16" y="-16" transform="translate(-.001)" overflow="visible"/><path fill="#999" d="M15.999-12c0-2.209-1.791-4-4-4h-24c-2.209 0-4 1.791-4 4v24c0 2.209 1.791 4 4 4h24c2.209 0 4-1.791 4-4v-24z"/></g><g><use xlink:href="#_x5F_button_x5F_shape" width="32" height="32" x="-16" y="-16" transform="matrix(.938 0 0 .938 -.001 0)" overflow="visible"/><path fill="#F2F2F2" d="M14.999-11.25c0-2.071-1.679-3.75-3.75-3.75h-22.5c-2.071 0-3.75 1.679-3.75 3.75v22.5c0 2.071 1.679 3.75 3.75 3.75h22.5c2.071 0 3.75-1.679 3.75-3.75v-22.5z"/></g></symbol><g><use xlink:href="#_x5F_button_x5F_shape" width="32" height="32" x="-16" y="-16" transform="matrix(1 0 0 -1 15.999 16.143)" overflow="visible"/><path fill="#999" d="M31.999 28.143c0 2.209-1.791 4-4 4h-24c-2.209 0-4-1.791-4-4v-24c0-2.209 1.791-4 4-4h24c2.209 0 4 1.791 4 4v24z"/></g><g><use xlink:href="#_x5F_button_x5F_shape" width="32" height="32" x="-16" y="-16" transform="matrix(.938 0 0 -.938 15.999 16.143)" overflow="visible"/><path fill="#F2F2F2" d="M30.999 27.393c0 2.071-1.679 3.75-3.75 3.75h-22.5c-2.071 0-3.75-1.679-3.75-3.75v-22.5c0-2.071 1.679-3.75 3.75-3.75h22.5c2.071 0 3.75 1.679 3.75 3.75v22.5z"/></g><path fill="#58B632" d="M31.999 28.143c0 2.209-1.791 4-4 4h-24c-2.209 0-4-1.791-4-4v-24c0-2.209 1.791-4 4-4h24c2.209 0 4 1.791 4 4v24zM31.999 28.143c0 2.209-1.791 4-4 4h-24c-2.209 0-4-1.791-4-4v-24c0-2.209 1.791-4 4-4h24c2.209 0 4 1.791 4 4v24zM30.999 27.393c0 2.071-1.679 3.75-3.75 3.75h-22.5c-2.071 0-3.75-1.679-3.75-3.75v-22.5c0-2.071 1.679-3.75 3.75-3.75h22.5c2.071 0 3.75 1.679 3.75 3.75v22.5zM30.999 27.393c0 2.071-1.679 3.75-3.75 3.75h-22.5c-2.071 0-3.75-1.679-3.75-3.75v-22.5c0-2.071 1.679-3.75 3.75-3.75h22.5c2.071 0 3.75 1.679 3.75 3.75v22.5z"/><path fill="none" d="M32.001 28.002c0 2.141-1.735 3.875-3.875 3.875h-23.25c-2.14 0-3.875-1.734-3.875-3.875v-23.251c0-2.14 1.735-3.875 3.875-3.875h23.25c2.14 0 3.875 1.735 3.875 3.875v23.251z"/><defs><path id="a" d="M31.501 27.768c0 2.14-1.735 3.875-3.875 3.875h-23.25c-2.14 0-3.875-1.735-3.875-3.875v-23.251c0-2.141 1.735-3.875 3.875-3.875h23.25c2.14 0 3.875 1.734 3.875 3.875v23.251z"/></defs><clipPath id="b"><use xlink:href="#a" overflow="visible"/></clipPath><path fill="#fff" d="M28.001-.142h-18.478c-.091.059-.192.111-.282.171-2.934 2.26-5.26 5.365-5.623 8.848-.09.573-.149 1.152-.149 1.744 0 3.632 1.748 6.923 4.578 9.378l.002 7.803 6.578-4.286c1.783.521 3.699.82 5.704.82 4.533 0 8.64-1.463 11.67-3.831v-16.647c0-2.209-1.791-4-4-4zm2.691 12.442c-1.359 3.277-5.554 5.742-10.361 5.742s-8.998-2.458-10.356-5.73c-.136-.546-.208-1.111-.208-1.691 0-4.092 3.523-7.51 8.231-8.375.756-.127 1.533-.2 2.333-.2.805 0 1.588.075 2.346.204 4.703.869 8.218 4.283 8.218 8.371 0 .574-.073 1.134-.203 1.679z" clip-path="url(#b)"/></svg>