<?xml version="1.0" encoding="utf-8"?>
<!-- Generator: Adobe Illustrator 14.0.0, SVG Export Plug-In . SVG Version: 6.00 Build 43363)  -->
<!DOCTYPE svg PUBLIC "-//W3C//DTD SVG 1.1//EN" "http://www.w3.org/Graphics/SVG/1.1/DTD/svg11.dtd">
<svg version="1.1" id="Layer_1" xmlns="http://www.w3.org/2000/svg" xmlns:xlink="http://www.w3.org/1999/xlink" x="0px" y="0px"
	 width="32px" height="32px" viewBox="0 0 32 32" enable-background="new 0 0 32 32" xml:space="preserve">
<path fill="#2AA9E0" d="M23.786,23.02h-7.7c-2.268,0-4.378-2.361-4.378-5.055v-1.953h11.99c1.94,0,3.513-1.568,3.513-3.502
	c0-1.935-1.57-3.503-3.51-3.503H11.71v-3.46C11.707,3.59,10.24,2,8.3,2C6.36,2,4.79,3.59,4.79,5.547v12.418
	c0,6.65,5,12.035,11.18,12.035h7.7c1.939,0,3.54-1.563,3.54-3.52C27.21,24.52,25.729,23.02,23.786,23.02z"/>
</svg>
