<svg xmlns="http://www.w3.org/2000/svg" xmlns:xlink="http://www.w3.org/1999/xlink" width="32" height="32" viewBox="0 0 32 32"><symbol id="a" viewBox="-16 -14.511 32 29.021"><path d="M-.801 2.189c0-3.093 2.509-5.601 5.602-5.601 3.092 0 5.6 2.508 5.6 5.601 0 3.094-2.508 5.6-5.6 5.6-3.093 0-5.602-2.506-5.602-5.6m11.201-7h-11.201c-3.092 0-5.6-2.508-5.6-5.601v-4.1h22.401v4.1c0 3.095-2.507 5.601-5.6 5.601"/><path fill="#999" d="M-5.6 4.11c2.871 0 5.199 2.328 5.199 5.199 0 2.872-2.328 5.2-5.199 5.2-2.872 0-5.201-2.327-5.201-5.199 0-2.871 2.33-5.2 5.201-5.2z"/><path fill="#1A1A1A" d="M-5.6 13.51c2.315 0 4.199-1.884 4.199-4.199 0-2.314-1.884-4.199-4.199-4.199-2.316 0-4.201 1.885-4.201 4.199 0 2.315 1.885 4.199 4.201 4.199m0 1c-2.872 0-5.201-2.327-5.201-5.199 0-2.871 2.329-5.199 5.201-5.199 2.871 0 5.199 2.328 5.199 5.199 0 2.872-2.328 5.199-5.199 5.199z"/><path fill="#999" d="M-7.521-10.41c0 3.706 3.015 6.721 6.72 6.721h2.35c-2.066 1.147-3.47 3.354-3.47 5.88 0 .209.014.416.032.62h-8.911c-2.873 0-5.2-2.327-5.2-5.199v-10.262h8.48l-.001 2.24z"/><path fill="#1A1A1A" d="M-2.912 1.811c.083-1.669.706-3.244 1.74-4.509-4.085-.193-7.349-3.579-7.349-7.712v-1.24h-6.479v9.262c0 2.315 1.884 4.199 4.2 4.199h7.888m1.023 1h-8.911c-2.873 0-5.2-2.327-5.2-5.199v-10.262h8.48v2.24c0 3.706 3.015 6.721 6.72 6.721h2.35c-2.066 1.147-3.47 3.354-3.47 5.88-.001.207.013.414.031.62z"/></symbol><use xlink:href="#a" width="32" height="29.021" x="-16" y="-14.511" transform="matrix(1 0 0 -1 16 15.999)" overflow="visible"/></svg>