<svg xmlns="http://www.w3.org/2000/svg" width="32" height="32" viewBox="0 0 32 32"><path fill="#B4B4B4" d="M24.039 26.721a3.072 3.072 0 0 1-3.075 3.073H5.074a3.074 3.074 0 0 1-3.075-3.073V17.29a3.074 3.074 0 0 1 3.075-3.072h15.89a3.079 3.079 0 0 1 3.075 3.078v9.425z"/><path fill="#FFF" d="M9.829 17.865v8.343l6.379-4.261-6.379-4.082z"/><path fill="#C8C8C8" d="M16.97 2.21a5.27 5.27 0 1 0 5.268 5.263 5.259 5.259 0 0 0-5.268-5.268v.005zm0 8.781a3.513 3.513 0 1 1 3.509-3.515 3.514 3.514 0 0 1-3.516 3.515h.007zM7.311 5.722a3.513 3.513 0 1 0-.001 7.028 3.514 3.514 0 0 0-.005-7.028h.006z"/><path fill="#999" d="M16.97 10.991a3.513 3.513 0 1 1 3.509-3.515 3.514 3.514 0 0 1-3.516 3.515h.007z"/><path fill="#B4B4B4" d="M30 28.287l-4.558-3.61v-5.344L30 15.724v12.563z"/></svg>