<svg xmlns="http://www.w3.org/2000/svg" xmlns:xlink="http://www.w3.org/1999/xlink" width="32" height="32" viewBox="0 0 32 32"><symbol id="a" viewBox="-16 -15.763 32 31.525"><path d="M9.186-12.25c0-1.939-1.571-3.513-3.513-3.513h-18.16c-1.94 0-3.513 1.572-3.513 3.513v10.777c0 1.939 1.572 3.512 3.513 3.512h18.16c1.941 0 3.513-1.571 3.513-3.512v-10.777z"/><path fill="#fff" d="M-7.052-2.13v-9.535l7.29 4.871z"/><path d="M1.109 15.763c-3.325 0-6.021-2.694-6.021-6.021 0-3.325 2.696-6.021 6.021-6.021 3.326 0 6.022 2.696 6.022 6.021.001 3.325-2.695 6.021-6.022 6.021zm0-10.037c-2.217 0-4.015 1.799-4.015 4.016 0 2.219 1.798 4.016 4.015 4.016 2.218 0 4.015-1.797 4.015-4.016 0-2.219-1.797-4.016-4.015-4.016zM-9.931 11.748c-2.218 0-4.015-1.797-4.015-4.015s1.797-4.016 4.015-4.016c2.217 0 4.015 1.798 4.015 4.016s-1.798 4.015-4.015 4.015z"/><path fill="#999" d="M1.109 5.726c-2.217 0-4.015 1.799-4.015 4.016 0 2.219 1.798 4.016 4.015 4.016 2.218 0 4.015-1.797 4.015-4.016 0-2.219-1.797-4.016-4.015-4.016z"/><path d="M16-14.04l-5.208 4.125v6.108l5.208 4.124z"/></symbol><use xlink:href="#a" width="32" height="31.525" x="-16" y="-15.763" transform="matrix(1 0 0 -1 16 16)" overflow="visible"/></svg>