<?xml version="1.0" encoding="utf-8"?>
<!-- Generator: Adobe Illustrator 14.0.0, SVG Export Plug-In . SVG Version: 6.00 Build 43363)  -->
<!DOCTYPE svg PUBLIC "-//W3C//DTD SVG 1.1//EN" "http://www.w3.org/Graphics/SVG/1.1/DTD/svg11.dtd">
<svg version="1.1" id="Layer_1" xmlns="http://www.w3.org/2000/svg" xmlns:xlink="http://www.w3.org/1999/xlink" x="0px" y="0px"
	 width="32px" height="32px" viewBox="0 0 32 32" enable-background="new 0 0 32 32" xml:space="preserve">
<g>
	<path fill="#FFFFFF" d="M18.146,24.543c-1.004,0-1.895-0.33-2.647-0.98c-0.732-0.63-1.282-1.499-1.632-2.58l-0.1-0.311l2.267-0.945
		l0.13,0.336c0.22,0.57,0.508,1.011,0.856,1.33c0.327,0.296,0.703,0.44,1.147,0.44c0.43,0,0.796-0.254,1.114-0.775
		c0.35-0.569,0.526-1.272,0.526-2.089c0-0.979-0.22-1.925-0.55-2.351c-0.379-0.507-1.028-1.106-1.969-1.106H15.56v-0.83l3.064-4.628
		h-2.629l-4.099,13.643h-0.725l-2.723-9.203l-2.724,9.2H5.004L0.006,7.527h2.833l2.624,9.017l1.58-5.421l-1.06-3.597h2.829
		l2.619,8.997l2.629-8.997h7.667v1.453l-2.418,4.845c1.056,0.416,1.881,1.061,2.354,1.847c0.626,1.042,0.945,2.149,0.945,3.296
		c0,1.609-0.39,2.896-1.192,3.936C20.572,23.991,19.473,24.543,18.146,24.543L18.146,24.543z M14.645,21.072
		c0.31,0.819,0.743,1.463,1.314,1.959c0.63,0.542,1.339,0.807,2.18,0.807c1.113,0,2.002-0.45,2.715-1.37
		c0.704-0.909,1.044-2.056,1.044-3.502c0-1.016-0.282-2.002-0.844-2.933c-0.439-0.738-1.275-1.33-2.349-1.68l-0.39-0.13l2.702-5.407
		V8.232h-6.432l-3.153,10.816L8.283,8.232H6.929l0.852,2.892l-2.319,7.94L2.311,8.232H0.963l4.395,14.225L8.45,12.011l3.089,10.432
		l3.918-13.057l0.43-0.037l4.048-0.003l-3.605,5.458h0.964c0.96,0,1.859,0.49,2.531,1.379c0.51,0.664,0.69,1.872,0.69,2.781
		c0,0.944-0.21,1.77-0.63,2.456c-0.452,0.732-1.03,1.109-1.717,1.109c-0.62,0-1.166-0.21-1.621-0.626
		c-0.356-0.322-0.657-0.745-0.897-1.259l-1,0.421L14.645,21.072z"/>
	<path fill="#2B76AD" d="M8.549,7.88l2.887,9.908l2.889-9.908h7.049v1.016l-2.558,5.125c1.035,0.336,2.014,0.948,2.543,1.832
		c0.532,0.885,0.895,1.925,0.895,3.113c0,1.477-0.339,2.713-1.119,3.718c-0.774,1.007-1.756,1.507-2.988,1.507
		c-0.932,0-1.728-0.301-2.417-0.896c-0.696-0.597-1.2-1.401-1.529-2.423l1.629-0.684c0.24,0.618,0.558,1.104,0.949,1.461
		c0.391,0.353,0.854,0.529,1.385,0.529c0.56,0,1.029-0.313,1.415-0.941c0.384-0.63,0.576-1.389,0.576-2.272
		c0-0.977-0.207-2.032-0.617-2.567c-0.48-0.63-1.229-1.239-2.25-1.239h-1.37v-0.374l3.367-5.086H15.92l-0.19,0.017L11.635,23.34
		h-0.2L8.45,13.248L5.461,23.336h-0.2L0.483,7.875h2.089l2.889,9.922l1.95-6.68L6.457,7.875h2.092V7.88z"/>
	<path fill="#FFFFFF" d="M27.755,24.565c-3.262,0-4.899-3.097-4.899-5.047c0-0.724,0.109-1.482,0.109-1.482s1.097,4.361,4.738,4.361
		c2.039,0,4.291-4.146,4.291-4.146v3.441l-0.05,0.076C31.872,21.884,30.145,24.565,27.755,24.565z M24.173,21.572
		c0.687,1.238,1.889,2.353,3.582,2.353c1.836,0,3.313-2.009,3.601-2.427v-1.074c-0.723,1.076-2.035,2.612-3.651,2.612
		c-1.399,0.002-2.629-0.522-3.538-1.464H24.173z"/>
	<path fill="#2B76AD" d="M31.674,19.258v2.341c0,0-1.68,2.646-3.919,2.646c-3.004,0-4.577-3.207-4.577-4.988
		c0.674,2.064,2.263,3.462,4.525,3.462C29.97,22.719,31.675,19.258,31.674,19.258L31.674,19.258z"/>
	<path fill="#FFFFFF" d="M24.068,16.43c-1.02-2.277-1.059-7.147,2.502-8.744c0.359-0.167,0.717-0.25,1.066-0.25
		c1.499,0,2.419,1.456,2.829,2.287l1.419-2.148v3.171l-1.212,1.996l-0.264-0.496c-0.013-0.022-1.189-2.197-2.594-2.197
		c-0.174,0-0.35,0.035-0.521,0.104c-1.499,0.609-2.966,3.41-2.608,6.104l0.233,1.779l-0.849-1.607L24.068,16.43z M27.638,8.083
		c-0.261,0-0.53,0.062-0.806,0.187c-2.209,0.99-2.833,3.523-2.691,5.634c0.42-2.076,1.64-3.827,2.909-4.344
		c0.246-0.1,0.503-0.149,0.76-0.149c0.996,0,1.845,0.754,2.411,1.439l-0.12-0.343C30.091,10.483,29.23,8.082,27.638,8.083
		L27.638,8.083z M30.366,11.036c0.125,0.16,0.23,0.312,0.318,0.441l0.557-0.913V9.706l-0.875,1.324V11.036z"/>
	<path fill="#2B76AD" d="M30.685,12.095l0.874-1.439V8.643l-1.154,1.762c0,0-1.233-3.533-3.703-2.428
		c-3.312,1.486-3.309,6.16-2.337,8.323c-0.375-2.841,1.179-5.778,2.808-6.443C29.078,9.085,30.685,12.096,30.685,12.095
		L30.685,12.095z"/>
</g>
</svg>
