<svg xmlns="http://www.w3.org/2000/svg" xmlns:xlink="http://www.w3.org/1999/xlink" width="32" height="32" viewBox="0 0 32 32"><symbol id="a" viewBox="-16 -8.564 32 17.129"><path fill="#fff" d="M2.146-8.542c-1.004 0-1.895.329-2.648.979-.733.632-1.282 1.5-1.633 2.583l-.101.31 2.269.945.13-.336c.22-.563.508-1.009.857-1.323.327-.297.703-.44 1.148-.44.431 0 .796.253 1.114.774.35.572.527 1.274.527 2.089 0 .982-.22 1.928-.546 2.354-.38.504-1.031 1.103-1.97 1.103h-1.729v.83l3.063 4.629h-2.633l-4.1-13.647h-.724l-2.724 9.202-2.725-9.203h-.724l-4.997 16.173h2.834l2.625-9.021 1.584 5.424-1.06 3.598h2.828l2.624-9.006 2.625 9.005h7.669v-1.453l-2.417-4.845c1.054-.416 1.88-1.062 2.352-1.848.627-1.042.946-2.151.946-3.297 0-1.609-.391-2.897-1.193-3.937-.843-1.09-1.943-1.642-3.271-1.642zm-3.502 3.473c.311-.822.743-1.465 1.315-1.96.63-.543 1.345-.808 2.187-.808 1.113 0 2.002.449 2.715 1.37.702.91 1.044 2.056 1.044 3.504 0 1.016-.284 2.003-.845 2.934-.44.732-1.275 1.328-2.35 1.677l-.391.126 2.704 5.417v.583h-6.435l-3.154-10.82-3.153 10.82h-1.355l.852-2.892-2.32-7.944-3.153 10.836h-1.348l4.396-14.229 3.093 10.45 3.089-10.437 3.924 13.062.43.037 4.052.003-3.613-5.459h.965c.959 0 1.859-.491 2.532-1.382.51-.663.689-1.872.689-2.781 0-.945-.21-1.771-.629-2.457-.452-.738-1.03-1.112-1.717-1.112-.62 0-1.167.21-1.622.623-.356.322-.657.745-.897 1.258l-1.005-.419z"/><path fill="#2B76AD" d="M-7.454 8.127l2.888-9.912 2.89 9.912h7.0520000000000005v-1.018l-2.558-5.125c1.035-.337 2.014-.948 2.544-1.832.532-.885.895-1.926.895-3.115 0-1.477-.341-2.714-1.119-3.72-.776-1.005-1.757-1.506-2.992-1.506-.931 0-1.727.299-2.417.895-.691.597-1.196 1.402-1.527 2.424l1.634.683c.241-.618.557-1.103.949-1.459.391-.354.854-.531 1.385-.531.559 0 1.03.313 1.416.942.384.631.576 1.388.576 2.273 0 .977-.207 2.033-.618 2.568-.477.631-1.228 1.241-2.25 1.241h-1.376v.373l3.368 5.088h-3.366l-.191-.017-4.096-13.632h-.199l-2.988 10.094-2.988-10.094h-.201l-4.779 15.468h2.09l2.889-9.928 1.952 6.685-.956 3.243h2.093z"/><path fill="#fff" d="M11.76-8.564c-3.264 0-4.902 3.097-4.902 5.048 0 .724.11 1.483.11 1.483s1.097-4.363 4.74-4.363c2.04 0 4.292 4.148 4.292 4.148v-3.443l-.051-.076c-.071-.115-1.799-2.797-4.189-2.797zm-3.584 2.994c.687-1.241 1.891-2.354 3.584-2.354 1.836 0 3.313 2.01 3.602 2.428v1.074c-.724-1.076-2.037-2.613-3.653-2.613-1.399-.002-2.624.522-3.533 1.465z"/><path fill="#2B76AD" d="M15.681-3.255v-2.342s-1.68-2.647-3.921-2.647c-3.005 0-4.581 3.208-4.581 4.989.676-2.064 2.265-3.463 4.529-3.463 2.267 0 3.973 3.463 3.973 3.463z"/><path fill="#fff" d="M8.072-.426c-1.02 2.278-1.059 7.149 2.502 8.747.359.161.718.243 1.067.243 1.493 0 2.418-1.455 2.825-2.287l1.418 2.152v-3.169l-1.212-1.996-.263.496c-.013.022-1.191 2.198-2.595 2.198-.173 0-.349-.035-.52-.104-1.5-.611-2.967-3.412-2.61-6.107l.235-1.779-.847 1.606zm3.57 8.351c-.259 0-.529-.063-.806-.188-2.211-.991-2.834-3.524-2.692-5.635.421 2.076 1.641 3.828 2.91 4.345.247.101.503.151.761.151.996 0 1.845-.755 2.411-1.441l-.121.343c-.008.022-.869 2.425-2.463 2.425zm2.73-2.955c.125-.159.229-.312.318-.442l.557.913v.856l-.875-1.327z"/><path fill="#2B76AD" d="M14.69 3.91l.875 1.439v2.015l-1.156-1.762s-1.233 3.534-3.704 2.428c-3.313-1.486-3.309-6.162-2.338-8.326-.375 2.842 1.179 5.781 2.809 6.445 1.907.779 3.514-2.239 3.514-2.239z"/></symbol><use xlink:href="#a" width="32" height="17.129" x="-16" y="-8.564" transform="matrix(1 0 0 -1 16 16)" overflow="visible"/></svg>