<?xml version="1.0" encoding="utf-8"?>
<!-- Generator: Adobe Illustrator 14.0.0, SVG Export Plug-In . SVG Version: 6.00 Build 43363)  -->
<!DOCTYPE svg PUBLIC "-//W3C//DTD SVG 1.1//EN" "http://www.w3.org/Graphics/SVG/1.1/DTD/svg11.dtd">
<svg version="1.1" id="Layer_1" xmlns="http://www.w3.org/2000/svg" xmlns:xlink="http://www.w3.org/1999/xlink" x="0px" y="0px"
	 width="32px" height="32px" viewBox="0 0 32 32" enable-background="new 0 0 32 32" xml:space="preserve">
<g>
	<path fill="#00ADEF" d="M12.834,14.876V2.736L0,4.526v10.35H12.834z M0,17.126v10.515l12.834,1.726v-12.24H0z M32,14.876V0.056
		L15.084,2.421v12.455H32z M31,1.206v12.67H16.084V3.291L31,1.206 M32,0.055L15.084,2.421v12.455H32V0.055L32,0.055z M15.084,17.125
		v12.546L32,31.945v-14.82H15.084z M31,18.125v12.68l-14.916-2.01v-10.67H31 M32,17.125H15.084v12.546L32,31.945V17.125z
		 M12.834,14.875V2.735L0,4.527v10.35L12.834,14.875z M0,17.125v10.516l12.834,1.726v-12.24L0,17.125z M32,14.875V0.055
		L15.084,2.421v12.455L32,14.875z M15.084,17.125v12.546L32,31.945v-14.82H15.084z"/>
</g>
</svg>
