<svg xmlns="http://www.w3.org/2000/svg" xmlns:xlink="http://www.w3.org/1999/xlink" width="32" height="32" viewBox="0 0 32 32"><symbol id="a" viewBox="-16 -15.945 32 31.89"><g fill="#00ADEF"><path d="M-3.166 1.125v12.141l-12.834-1.793v-10.348zM-16-1.125v-10.516l12.834-1.724v12.24zM16 1.125v14.82l-16.916-2.365v-12.455zM15 14.796v-12.671h-14.916v10.585l14.916 2.086m1 1.149l-16.916-2.365v-12.455h16.916v14.82zM-.916-1.125v-12.544l16.916-2.276v14.82zM15-2.125v-12.677l-14.916 2.007v10.67h14.916m1 1h-16.916v-12.544l16.916-2.276v14.82z"/></g><g fill="#00ADEF"><path d="M-3.166 1.125v12.141l-12.834-1.793v-10.348zM-16-1.125v-10.516l12.834-1.724v12.24z"/></g><path fill="#00ADEF" d="M16 1.125v14.82l-16.916-2.365v-12.455zM-.916-1.125v-12.544l16.916-2.276v14.82z"/></symbol><use xlink:href="#a" width="32" height="31.89" x="-16" y="-15.945" transform="matrix(1 0 0 -1 16 16)" overflow="visible"/></svg>