<?xml version="1.0" encoding="utf-8"?>
<!-- Generator: Adobe Illustrator 14.0.0, SVG Export Plug-In . SVG Version: 6.00 Build 43363)  -->
<!DOCTYPE svg PUBLIC "-//W3C//DTD SVG 1.1//EN" "http://www.w3.org/Graphics/SVG/1.1/DTD/svg11.dtd">
<svg version="1.1" id="Layer_1" xmlns="http://www.w3.org/2000/svg" xmlns:xlink="http://www.w3.org/1999/xlink" x="0px" y="0px"
	 width="32px" height="32px" viewBox="0 0 32 32" enable-background="new 0 0 32 32" xml:space="preserve">
<circle fill="#FFFFFF" cx="16" cy="16" r="16"/>
<path fill="#16638A" d="M16,0C7.164,0,0,7.162,0,16c0,8.834,7.164,16,16,16c8.834,0,16-7.166,16-16C32,7.162,24.834,0,16,0z
	 M1.233,16L1.233,16c-0.001-2.142,0.459-4.176,1.279-6.01l7.043,19.298C4.629,26.895,1.233,21.842,1.233,16z M16,30.767
	c-1.45,0-2.85-0.212-4.173-0.602L16.26,17.29l4.538,12.437c0.029,0.07,0.065,0.139,0.104,0.2C19.37,30.471,17.721,30.767,16,30.767z
	 M18.034,9.076c0.892-0.046,1.69-0.141,1.69-0.141c0.795-0.095,0.701-1.265-0.093-1.22c0,0-2.394,0.19-3.936,0.19
	c-1.452,0-3.89-0.19-3.89-0.19c-0.796-0.046-0.889,1.168-0.094,1.218c0,0,0.752,0.096,1.548,0.141l2.3,6.306l-3.23,9.69L6.952,9.075
	c0.89-0.045,1.69-0.139,1.69-0.139c0.796-0.096,0.699-1.266-0.094-1.22c0,0-2.389,0.188-3.936,0.188
	c-0.278,0-0.602-0.007-0.948-0.021C6.303,3.877,10.84,1.233,16,1.233c3.846,0,7.346,1.47,9.971,3.877
	c-0.063-0.004-0.127-0.015-0.191-0.015c-1.452,0-2.479,1.267-2.479,2.622c0,1.219,0.702,2.247,1.45,3.464
	c0.561,0.983,1.221,2.245,1.221,4.073v0.001c0,1.26-0.379,2.851-1.125,4.771l-1.476,4.92L18.034,9.076z M23.427,28.762l4.511-13.038
	c0.84-2.106,1.119-3.792,1.119-5.29c0-0.544-0.035-1.05-0.1-1.52c1.152,2.105,1.809,4.518,1.809,7.086
	C30.766,21.446,27.813,26.202,23.427,28.762z"/>
</svg>
