<svg xmlns="http://www.w3.org/2000/svg" width="32" height="32" viewBox="0 0 32 32"><path fill="#FFF" d="M4 31.5C2.07 31.5.5 29.93.5 28V4C.5 2.07 2.07.5 4 .5h24c1.93 0 3.5 1.57 3.5 3.5v24c0 1.93-1.57 3.5-3.5 3.5H4z"/><path fill="#333" d="M6.907 3h1.846l1.19 4.317h.115L11.19 3h1.864L10.92 9.32v4.48H9.09V9.52L6.907 3zm6.28 4.655c0-.618.218-1.11.655-1.475.438-.365 1.027-.55 1.768-.55.674 0 1.226.194 1.658.58.428.385.643.882.643 1.49v4.114c0 .682-.21 1.215-.631 1.604-.426.388-1.006.582-1.745.582-.712 0-1.282-.2-1.71-.6-.426-.4-.64-.94-.64-1.617V7.655h.002zm1.673 4.28c0 .218.06.386.174.506s.28.18.496.18c.22 0 .396-.06.525-.18s.194-.29.194-.5V7.6a.516.516 0 0 0-.198-.423c-.133-.107-.307-.16-.521-.16a.715.715 0 0 0-.484.16.535.535 0 0 0-.186.422v4.34-.004zm9.014-6.102V13.8h-1.63v-.88a3.36 3.36 0 0 1-.936.74c-.33.17-.641.255-.949.255-.381 0-.66-.12-.852-.356-.189-.24-.283-.6-.283-1.07V5.83h1.623v6.11c0 .19.036.324.104.41.064.083.177.126.33.126.117 0 .27-.057.453-.168.183-.113.351-.256.5-.43V5.832h1.631l.009.001z"/><path fill="#EE3E3A" d="M27 16H5c-2.75 0-5 2.25-5 5v7c0 2.21 1.79 4 4 4h24a4 4 0 0 0 4-4v-7c0-2.75-2.25-5-5-5z"/><path fill="#FFF" d="M10.524 19.154h-5v1.424H7.21v8.378h1.63v-8.378h1.686l-.002-1.424zm3.32 8.064a2.056 2.056 0 0 1-.45.386c-.162.104-.298.153-.402.153-.136 0-.234-.038-.297-.116-.061-.068-.09-.19-.09-.363v-5.549H11.16v6.049c0 .432.086.75.254.97.17.218.42.321.756.321.271 0 .551-.073.84-.229.29-.152.565-.375.835-.67v.795h1.444V21.73h-1.45v5.494l.005-.006zm6.326-5.12c-.239-.307-.59-.462-1.048-.462-.226 0-.446.058-.667.173a2.223 2.223 0 0 0-.62.5v-3.152h-1.46v9.802h1.46v-.556c.19.222.397.386.62.488.22.11.47.16.755.16.43 0 .757-.132.981-.41.228-.27.341-.662.341-1.18v-4.01c0-.59-.12-1.04-.362-1.35v-.003zm-1.127 5.166c0 .23-.043.396-.125.497-.084.11-.213.16-.391.16a.8.8 0 0 1-.351-.08 1.238 1.238 0 0 1-.343-.254V23.08c.102-.1.197-.175.298-.221a.691.691 0 0 1 .308-.069c.193 0 .346.06.451.187.103.125.15.312.15.559v3.732l.003-.004zm6.502-1.75V23.67c0-.688-.177-1.21-.53-1.578-.355-.367-.865-.55-1.527-.55-.646 0-1.172.197-1.582.592-.409.396-.614.91-.614 1.534v3.248c0 .695.188 1.243.561 1.641.372.398.883.596 1.529.596.721 0 1.262-.186 1.62-.561.366-.375.546-.935.546-1.676v-.37h-1.484v.33c0 .424-.051.698-.146.819-.097.129-.263.189-.503.189-.229 0-.395-.072-.49-.22-.095-.146-.14-.412-.14-.792V25.51h2.763l-.003.004zm-2.766-1.857c0-.304.049-.521.15-.65.1-.133.264-.196.493-.196.222 0 .384.07.48.2.1.13.152.351.152.65v.729h-1.277v-.729l.002-.004z"/><path fill="#C8C8C8" d="M28 1c1.654 0 3 1.346 3 3v24c0 1.654-1.346 3-3 3H4c-1.654 0-3-1.346-3-3V4c0-1.654 1.346-3 3-3h24m0-1H4C1.79 0 0 1.79 0 4v24c0 2.21 1.79 4 4 4h24a4 4 0 0 0 4-4V4a4 4 0 0 0-4-4z"/></svg>