<svg xmlns="http://www.w3.org/2000/svg" xmlns:xlink="http://www.w3.org/1999/xlink" width="32" height="32" viewBox="0 0 32 32"><symbol id="a" viewBox="-12.808 -16 25.615 32"><path fill="#fff" d="M12.308-8.615h-24.617v17.23h24.617z"/><path fill="#999" d="M12.808-9.115h-25.615v18.23h25.615v-18.23zm-24.617 1h23.615v16.23h-23.615v-16.23zM12.308 11.077h-24.617l12.309 4.923z"/><path d="M0 14.923l7.115-2.846h-14.23l7.115 2.846m0 1.077l-12.308-4.923h24.615l-12.307 4.923z"/><path fill="#999" d="M12.308-11.077h-24.617l12.309-4.923z"/><path d="M7.115-12.077l-7.115-2.846-7.115 2.846h14.23m5.193 1h-24.615l12.307-4.923 12.308 4.923zM-9.263-3.242l3.466 4.531c.35.43.667.795 1.018 1.209v.031h-4.166v1.112h5.851v-.873l-3.434-4.467c-.334-.43-.636-.827-.986-1.209v-.031h4.484v-1.112h-6.233v.809zM-.023 5.805c0-.477-.334-.857-.89-.857-.509 0-.843.382-.843.857 0 .479.35.875.875.875.507 0 .858-.382.858-.875zm-1.56-9.858v7.694h1.399v-7.694h-1.399zM2.14 1.131c0 .985-.032 1.78-.064 2.512h1.24l.08-1.318h.031c.557.938 1.479 1.479 2.735 1.479 1.876 0 3.275-1.574 3.275-3.896 0-2.768-1.701-4.134-3.515-4.134-1.018 0-1.907.444-2.368 1.208h-.033v-4.183h-1.381v8.332zm1.381-2.051c0-.207.016-.398.063-.573.255-.97 1.098-1.638 2.099-1.638 1.479 0 2.338 1.209 2.338 2.974 0 1.526-.812 2.847-2.29 2.847-.954 0-1.86-.667-2.114-1.718-.048-.175-.096-.382-.096-.557v-1.335z"/></symbol><use xlink:href="#a" width="25.615" height="32" x="-12.808" y="-16" transform="matrix(1 0 0 -1 16 16)" overflow="visible"/></svg>