<svg xmlns="http://www.w3.org/2000/svg" xmlns:xlink="http://www.w3.org/1999/xlink" width="32" height="32" viewBox="0 0 32 32">
    <symbol id="a" viewBox="-13.522 -16 27.044 32.001">
        <g fill="#98CB02">
            <path d="M4.38 13.3l1.377 2.215c.093.149.047.346-.103.438-.148.093-.345.047-.438-.103l-1.419-2.281c-1.147.481-2.435.753-3.797.753s-2.65-.272-3.798-.755l-1.419 2.281c-.093.149-.289.195-.438.104-.149-.093-.195-.288-.103-.438l1.378-2.214c-2.509-1.267-4.213-3.587-4.292-6.257h17.344c-.079 2.67-1.783 4.99-4.292 6.257zM11.787 5.645c-.959 0-1.735-.775-1.735-1.734v-7.954c0-.959.776-1.735 1.735-1.735.957 0 1.735.776 1.735 1.735v7.953c0 .958-.778 1.735-1.735 1.735zM-11.787 5.645c-.957 0-1.735-.775-1.735-1.734v-7.954c0-.959.778-1.735 1.735-1.735.959 0 1.735.776 1.735 1.735v7.953c0 .958-.776 1.735-1.735 1.735zM-8.678-7.95c0-.928.73-1.688 1.647-1.733h1.728v-4.557c0-.959.777-1.735 1.735-1.735s1.736.776 1.736 1.735v4.557h3.662v-4.58c.001-.96.779-1.737 1.737-1.737s1.735.777 1.735 1.735v4.58h1.64c.958 0 1.735.775 1.735 1.733v13.597h-17.355v-13.595z"/>
        </g>
        <g fill="#fff">
            <path d="M4.7 10.465c0-.559-.453-1.012-1.013-1.012s-1.013.453-1.013 1.012c0 .561.453 1.013 1.013 1.013s1.013-.454 1.013-1.013zM-2.675 10.465c0-.559-.453-1.012-1.013-1.012s-1.012.453-1.012 1.012c0 .561.453 1.013 1.013 1.013s1.012-.454 1.012-1.013z"/>
        </g>
    </symbol>
    <use xlink:href="#a" width="27.044" height="32.001" x="-13.522" y="-16" transform="matrix(1 0 0 -1 15.999 15.999)" overflow="visible"/>
</svg>