<svg xmlns="http://www.w3.org/2000/svg" xmlns:xlink="http://www.w3.org/1999/xlink" width="32" height="32" viewBox="0 0 32 32">
    <symbol id="a" viewBox="-14.857 -16 29.715 32">
        <path fill="#DD1B16" d="M-.118-14.84l-11.763 6.802-1.897 18.065 13.773 4.909 13.775-4.909-2.123-18.065"/>
        <path fill="#fff" d="M4.492-2.936l2.142-4.544h3.201l-9.925 21.077-9.478-21.077h3.438l2.044 4.546 8.578-.002zm-4.574 10.019l3.35-7.11h-6.548l3.198 7.11z"/>
        <path opacity=".2" enable-background="new" d="M-.005 14.936l-.113-.042v-29.734l11.765 6.802 2.123 18.065z"/>
        <path fill="#B3B3B3" d="M-.005 14.936l13.775-4.907-2.123-18.067-11.765-6.802-11.765 6.802-1.896 18.065 13.774 4.909m0 1.064l-.336-.12-13.772-4.906-.744-.266.082-.785 1.896-18.064.054-.51.442-.255 11.765-6.803.5-.291.502.291 11.765 6.803.436.251.061.5 2.117 18.066.094.795-.752.268-13.773 4.906-.337.12z"/>
    </symbol>
    <use xlink:href="#a" width="29.715" height="32" x="-14.857" y="-16" transform="matrix(1 0 0 -1 15.999 16)" overflow="visible"/>
</svg>