<?xml version="1.0" encoding="utf-8"?>
<!-- Generator: Adobe Illustrator 14.0.0, SVG Export Plug-In . SVG Version: 6.00 Build 43363)  -->
<!DOCTYPE svg PUBLIC "-//W3C//DTD SVG 1.1//EN" "http://www.w3.org/Graphics/SVG/1.1/DTD/svg11.dtd">
<svg version="1.1" id="Layer_1" xmlns="http://www.w3.org/2000/svg" xmlns:xlink="http://www.w3.org/1999/xlink" x="0px" y="0px"
	 width="32px" height="32px" viewBox="0 0 32 32" enable-background="new 0 0 32 32" xml:space="preserve">
<path fill="#FFFFFF" d="M29.715,0.4L9.395,6.68v18.85c-0.962-0.466-2.26-0.578-3.583-0.226c-2.354,0.633-3.9,2.506-3.45,4.187
	c0.452,1.688,2.727,2.53,5.08,1.899c2.146-0.569,3.612-2.18,3.52-3.729h0.01V9.928l17.17-5.49V19.42
	c-0.965-0.467-2.261-0.58-3.584-0.227c-2.359,0.63-3.899,2.504-3.449,4.186c0.449,1.682,2.72,2.53,5.072,1.895
	c2.223-0.597,3.721-2.297,3.506-3.896h0.021V0.402L29.715,0.4z"/>
</svg>
