<?xml version="1.0" encoding="utf-8"?>
<!-- Generator: Adobe Illustrator 14.0.0, SVG Export Plug-In . SVG Version: 6.00 Build 43363)  -->
<!DOCTYPE svg PUBLIC "-//W3C//DTD SVG 1.1//EN" "http://www.w3.org/Graphics/SVG/1.1/DTD/svg11.dtd">
<svg version="1.1" id="Layer_1" xmlns="http://www.w3.org/2000/svg" xmlns:xlink="http://www.w3.org/1999/xlink" x="0px" y="0px"
	 width="32px" height="32px" viewBox="0 0 32 32" enable-background="new 0 0 32 32" xml:space="preserve">
<g>
	<path fill="#FFFFFF" d="M28.309,2L10.072,7.636v16.916c-0.863-0.417-2.028-0.518-3.215-0.201c-2.113,0.567-3.5,2.249-3.096,3.757
		c0.406,1.516,2.447,2.271,4.559,1.705c1.926-0.513,3.242-1.957,3.159-3.348h0.009V10.551l15.41-4.927v13.445
		c-0.867-0.419-2.03-0.521-3.217-0.203c-2.117,0.564-3.499,2.247-3.096,3.756s2.441,2.271,4.553,1.7
		c1.994-0.535,3.339-2.062,3.146-3.496h0.019V2.001L28.309,2z"/>
	<path fill="#C8C8C8" d="M28.309,2l-0.007,0.001v0L28.309,2L28.309,2z M28.302,2.002L10.072,7.636v16.916
		c-0.519-0.251-1.147-0.387-1.824-0.387c-0.448,0-0.918,0.06-1.391,0.186c-2.113,0.567-3.5,2.249-3.096,3.757
		C4.075,29.282,5.373,30,6.924,30c0.45,0,0.921-0.061,1.396-0.188c1.926-0.513,3.242-1.957,3.159-3.348h0.009V10.551l15.41-4.927
		v13.445c-0.522-0.252-1.151-0.39-1.828-0.39c-0.448,0-0.916,0.061-1.389,0.187c-2.117,0.564-3.499,2.247-3.096,3.756
		c0.313,1.169,1.606,1.89,3.155,1.89c0.45,0,0.922-0.061,1.397-0.189c1.994-0.535,3.339-2.062,3.146-3.496h0.019V2.002L28.302,2.002
		z"/>
</g>
<polyline fill="#FFFFFF" points="27.302,3.358 27.302,4.445 26.593,4.671 11.183,9.598 11.072,9.634 11.072,8.374 27.302,3.358 "/>
<path fill="#FFFFFF" d="M25.069,19.68c0.519,0,1.001,0.101,1.394,0.29l0.744,0.359l0.085,0.631c0.109,0.812-0.782,1.959-2.415,2.396
	c-0.38,0.104-0.763,0.155-1.137,0.155c-1.108,0-2.009-0.472-2.189-1.147c-0.147-0.554,0.192-1.076,0.409-1.339
	c0.446-0.542,1.167-0.977,1.979-1.193C24.317,19.731,24.697,19.68,25.069,19.68"/>
<path fill="#FFFFFF" d="M8.248,25.165c0.52,0,1,0.099,1.389,0.287l0.802,0.388l0.041,0.685c0.048,0.812-0.843,1.902-2.419,2.322
	C7.681,28.948,7.298,29,6.924,29c-1.13,0-2.013-0.463-2.197-1.151c-0.251-0.939,0.865-2.123,2.388-2.532
	C7.494,25.216,7.875,25.165,8.248,25.165"/>
</svg>
