<svg xmlns="http://www.w3.org/2000/svg" xmlns:xlink="http://www.w3.org/1999/xlink" width="32" height="32" viewBox="0 0 32 32">
    <symbol id="a" viewBox="-15.357 -16 30.714 32">
        <path d="M15.357 16l-23.603-7.081v-18.851c-.963.465-2.26.578-3.584.225-2.354-.632-3.899-2.505-3.449-4.186.451-1.681 2.726-2.53 5.08-1.898 2.145.575 3.611 2.18 3.518 3.73h.01v15.736l20.455 6.294v-12.987c-.963.465-2.26.578-3.583.224-2.355-.631-3.9-2.504-3.45-4.185s2.724-2.529 5.079-1.898c2.222.595 3.719 2.296 3.505 3.896h.022v20.981z"/>
    </symbol>
    <use xlink:href="#a" width="30.714" height="32" x="-15.357" y="-16" transform="matrix(1 0 0 -1 16 16)" overflow="visible"/>
</svg>