<svg xmlns="http://www.w3.org/2000/svg" width="32" height="32" viewBox="0 0 32 32">
  <path fill="#FFF" d="M14.966 9.404c.515.712.769 1.566.769 2.559 0 1.025-.258 1.846-.776 2.468-.289.35-.714.667-1.276.955.854.313 1.502.804 1.935 1.481.438.675.652 1.494.652 2.456 0 .995-.245 1.887-.746 2.675a4.569 4.569 0 0 1-1.187 1.316c-.534.41-1.167.69-1.894.842-.729.15-1.519.228-2.368.228H2.52V7.618h8.102c2.042.033 3.49.625 4.344 1.786zM6.387 10.53v3.697h3.552c.727 0 1.317-.139 1.771-.416s.682-.768.682-1.473c0-.781-.301-1.297-.901-1.546-.517-.174-1.178-.262-1.979-.262H6.387zm0 6.473v4.468h3.546c.727 0 1.292-.096 1.696-.295.734-.365 1.104-1.061 1.104-2.093 0-.871-.357-1.474-1.067-1.796-.397-.184-.959-.277-1.678-.284H6.387z"/>
  <path fill="#2A51E0" d="M10.075 24.9H2V7.1h8.622c2.215.036 3.814.708 4.762 1.997.577.801.869 1.764.869 2.866 0 1.143-.302 2.085-.895 2.8a3.522 3.522 0 0 1-.601.567c.537.329.971.75 1.296 1.258.485.752.732 1.673.732 2.734 0 1.096-.277 2.089-.826 2.953a5.119 5.119 0 0 1-1.313 1.453c-.585.451-1.293.768-2.1.935-.757.157-1.588.237-2.471.237zm-7.038-1.036h7.038c.813 0 1.573-.073 2.262-.218.65-.135 1.217-.385 1.684-.744a4.13 4.13 0 0 0 1.059-1.174c.453-.715.67-1.498.67-2.406 0-.858-.19-1.59-.568-2.174-.372-.582-.919-1-1.678-1.275l-1.116-.409 1.059-.541c.497-.253.872-.53 1.113-.823.441-.532.656-1.231.656-2.138 0-.893-.219-1.63-.669-2.255-.755-1.025-2.042-1.541-3.933-1.571H3.037v15.728zm6.897-1.875H5.869v-5.505h4.12c.812.009 1.43.118 1.896.333.895.406 1.368 1.19 1.368 2.268 0 1.542-.756 2.242-1.391 2.559-.479.231-1.109.345-1.928.345zm-3.028-1.037h3.028c.647 0 1.143-.081 1.469-.241.348-.174.813-.531.813-1.628 0-.667-.242-1.087-.764-1.324-.328-.151-.821-.231-1.468-.237H6.906v3.43zm3.033-6.206h-4.07v-4.734H9.51c.854 0 1.576.097 2.146.29.589.243 1.254.782 1.254 2.038 0 1.115-.505 1.657-.929 1.916-.534.324-1.221.49-2.042.49zm-3.033-1.038h3.033c.628 0 1.133-.114 1.502-.339.106-.065.432-.264.432-1.031 0-.732-.311-.956-.581-1.067-.43-.144-1.04-.223-1.782-.223H6.906v2.66z"/>
  <path fill="#FFF" d="M26.342 12.094c.839.375 1.529.967 2.076 1.778.492.715.811 1.542.957 2.483.083.549.118 1.345.104 2.385H20.73c.048 1.207.466 2.051 1.256 2.533.476.303 1.055.451 1.73.451.715 0 1.298-.182 1.744-.552.244-.196.46-.474.646-.823h3.206c-.083.713-.471 1.437-1.164 2.17-1.075 1.168-2.583 1.754-4.521 1.754-1.602 0-3.01-.493-4.232-1.479-1.222-.986-1.833-2.59-1.833-4.811 0-2.083.552-3.678 1.654-4.789 1.105-1.111 2.535-1.665 4.299-1.665 1.047.003 1.989.19 2.827.565zm-4.699 2.715c-.446.456-.725 1.076-.837 1.859h5.411c-.058-.834-.338-1.466-.839-1.897-.498-.433-1.119-.649-1.861-.649-.808 0-1.432.232-1.874.687z"/>
  <path fill="#2A51E0" d="M23.63 24.793c-1.712 0-3.245-.537-4.559-1.594-1.345-1.086-2.026-2.842-2.026-5.215 0-2.213.607-3.946 1.807-5.153 1.2-1.206 2.771-1.818 4.666-1.818 1.115 0 2.138.204 3.037.607.924.414 1.694 1.074 2.295 1.962.527.768.879 1.676 1.039 2.692.088.583.124 1.416.108 2.473l-.007.511h-8.689c.12.738.437 1.256.955 1.573.395.25.884.374 1.461.374.601 0 1.063-.141 1.414-.432.191-.155.364-.379.52-.668l.146-.274h4.101l-.066.578c-.097.823-.535 1.653-1.303 2.467-1.174 1.27-2.822 1.917-4.899 1.917zm-.113-12.742c-1.633 0-2.918.495-3.932 1.512-.997 1.004-1.504 2.493-1.504 4.421 0 2.045.552 3.527 1.642 4.408 1.14.916 2.418 1.362 3.906 1.362 1.775 0 3.168-.534 4.14-1.586.42-.444.713-.881.881-1.301h-2.244a2.96 2.96 0 0 1-.619.708c-.533.441-1.229.666-2.069.666-.777 0-1.453-.18-2.009-.531-.936-.572-1.441-1.566-1.497-2.951l-.021-.539h8.772c-.001-.757-.034-1.356-.101-1.789-.137-.872-.422-1.614-.871-2.267-.499-.739-1.105-1.261-1.861-1.599-.766-.34-1.645-.514-2.613-.514zm3.256 5.137h-6.566l.085-.594c.13-.893.46-1.615.98-2.146.542-.559 1.297-.843 2.244-.843.867 0 1.608.261 2.201.776.606.521.948 1.279 1.018 2.252l.038.555zm-5.323-1.039h4.167c-.104-.418-.295-.743-.576-.985-.406-.354-.903-.525-1.523-.525-.664 0-1.155.173-1.501.53-.256.26-.443.583-.567.98z"/>
  <g>
    <path fill="#FFF" d="M20.112 8.313h6.757V9.99h-6.757z"/>
    <path fill="#2A51E0" d="M27.387 10.509h-7.793V7.795h7.793v2.714zm-6.756-1.036h5.721v-.641h-5.721v.641z"/>
  </g>
  <g fill="#FFF">
    <path d="M14.966 9.404c.515.712.769 1.566.769 2.559 0 1.025-.258 1.846-.776 2.468-.289.35-.714.667-1.276.955.854.313 1.502.804 1.935 1.481.438.675.652 1.494.652 2.456 0 .995-.245 1.887-.746 2.675a4.569 4.569 0 0 1-1.187 1.316c-.534.41-1.167.69-1.894.842-.729.15-1.519.228-2.368.228H2.52V7.618h8.102c2.042.033 3.49.625 4.344 1.786zM6.387 10.53v3.697h3.552c.727 0 1.317-.139 1.771-.416s.682-.768.682-1.473c0-.781-.301-1.297-.901-1.546-.517-.174-1.178-.262-1.979-.262H6.387zm0 6.473v4.468h3.546c.727 0 1.292-.096 1.696-.295.734-.365 1.104-1.061 1.104-2.093 0-.871-.357-1.474-1.067-1.796-.397-.184-.959-.277-1.678-.284H6.387zM26.342 12.094c.839.375 1.529.967 2.076 1.778.492.715.811 1.542.957 2.483.083.549.118 1.345.104 2.385H20.73c.048 1.207.466 2.051 1.256 2.533.476.303 1.055.451 1.73.451.715 0 1.298-.182 1.744-.552.244-.196.46-.474.646-.823h3.206c-.083.713-.471 1.437-1.164 2.17-1.075 1.168-2.583 1.754-4.521 1.754-1.602 0-3.01-.493-4.232-1.479-1.222-.986-1.833-2.59-1.833-4.811 0-2.083.552-3.678 1.654-4.789 1.105-1.111 2.535-1.665 4.299-1.665 1.047.003 1.989.19 2.827.565zm-4.699 2.715c-.446.456-.725 1.076-.837 1.859h5.411c-.058-.834-.338-1.466-.839-1.897-.498-.433-1.119-.649-1.861-.649-.808 0-1.432.232-1.874.687zM20.112 8.313h6.757V9.99h-6.757z"/>
  </g>
</svg>