<svg xmlns="http://www.w3.org/2000/svg" xmlns:xlink="http://www.w3.org/1999/xlink" width="32" height="32" viewBox="0 0 32 32"><use xlink:href="#a" width="32" height="32" x="-16" y="-16" transform="matrix(1 0 0 -1 16 16)" overflow="visible"/><path fill="#999" d="M32 28a4 4 0 0 1-4 4H4a4 4 0 0 1-4-4V4a4 4 0 0 1 4-4h24a4 4 0 0 1 4 4v24z"/><g><path fill="#FB913F" d="M32 28a4 4 0 0 1-4 4H4a4 4 0 0 1-4-4V4a4 4 0 0 1 4-4h24a4 4 0 0 1 4 4v24z"/><path fill="#FB913F" d="M32 28a4 4 0 0 1-4 4H4a4 4 0 0 1-4-4V4a4 4 0 0 1 4-4h24a4 4 0 0 1 4 4v24z"/><path fill="#FB913F" d="M32 28a4 4 0 0 1-4 4H4a4 4 0 0 1-4-4V4a4 4 0 0 1 4-4h24a4 4 0 0 1 4 4v24z"/></g><path fill="#FFF" d="M28.619 12.907v-.018h-2.291l-.001-.002c-.849-.013-1.511-.158-1.511-1.77V9.8a7.777 7.777 0 0 0-7.777-7.778h-7.26A7.778 7.778 0 0 0 2.001 9.8v12.401a7.775 7.775 0 0 0 7.778 7.775h12.444c4.104 0 7.46-3.183 7.751-7.215h.027v-8.318a1.548 1.548 0 0 0-1.382-1.536zM11.076 9.044h4.666a1.814 1.814 0 1 1 0 3.629h-4.666a1.813 1.813 0 0 1-1.814-1.815 1.813 1.813 0 0 1 1.814-1.814zm4.957 8.462l-.031.043-.04-.054.071.011zm4.894 5.538h-9.851a1.814 1.814 0 0 1 0-3.628h9.851a1.814 1.814 0 1 1 0 3.628z"/></svg>