<svg xmlns="http://www.w3.org/2000/svg" xmlns:xlink="http://www.w3.org/1999/xlink" width="32" height="32" viewBox="0 0 32 32">
    <symbol id="a" viewBox="-16 -13.308 32 26.615">
        <path d="M15.283 8.118v3.96c0 .681-.55 1.229-1.23 1.229h-7.385c-.68 0-1.23-.55-1.23-1.229v-3.233h-18.977c-1.359 0-2.461-1.102-2.461-2.461v-17.23c0-1.359 1.102-2.461 2.461-2.461h27.077c1.359 0 2.462 1.102 2.462 2.461v17.23c0 .677-.274 1.289-.717 1.734z"/>
        <path fill="#fff" d="M13.421 9.415h-6.12v1.798h6.12zM1.334-10.205c-4.453 0-8.077 3.623-8.077 8.076 0 4.454 3.624 8.077 8.077 8.077s8.077-3.623 8.077-8.077c0-4.453-3.624-8.076-8.077-8.076zm0 14.153c-3.352 0-6.077-2.727-6.077-6.077 0-3.352 2.726-6.076 6.077-6.076s6.077 2.727 6.077 6.076c0 3.352-2.725 6.077-6.077 6.077z"/>
    </symbol>
    <use xlink:href="#a" width="32" height="26.615" x="-16" y="-13.308" transform="matrix(1 0 0 -1 16 16)" overflow="visible"/>
</svg>