<svg xmlns="http://www.w3.org/2000/svg" width="32" height="32" viewBox="0 0 32 32">
  <path fill="#FFF" d="M22.978 27.182a1.65 1.65 0 0 1-1.648-1.647 1.65 1.65 0 0 1 1.648-1.648 1.65 1.65 0 0 1 1.647 1.649 1.65 1.65 0 0 1-1.647 1.646zm-11.285 0a1.65 1.65 0 0 1-1.647-1.647c0-.909.739-1.648 1.647-1.648a1.648 1.648 0 0 1 0 3.295zm-1.96-4.976L5.717 5.968H2.445V4.816h4.107l.974 3.839h21.78l-4.702 10.266H9.977l.752 2.868h13.893l-.158.417H9.733z"/>
  <path fill="#B4B4B4" d="M6.206 5.262L7.01 8.43l.17.671H28.612l-4.292 9.376H9.401l.293 1.116.52 1.979.049.19h-.182L6.233 6.199l-.167-.678H2.89v-.26h3.316m16.772 19.07a1.205 1.205 0 0 1 0 2.407 1.204 1.204 0 0 1 0-2.407m-11.285 0a1.204 1.204 0 0 1 0 2.407 1.204 1.204 0 0 1 0-2.407M6.898 4.371H2v2.042h3.369l4.015 16.238H24.77l.498-1.308H11.074l-.519-1.978H24.89L30 8.209H7.873l-.975-3.838zm16.08 19.069a2.095 2.095 0 0 0 0 4.189 2.096 2.096 0 0 0 2.093-2.094 2.098 2.098 0 0 0-2.093-2.095zm-11.285 0a2.096 2.096 0 0 0 0 4.189 2.095 2.095 0 0 0 0-4.189z"/>
  <path fill="#C8C8C8" d="M8.603 10.246l1.801 7.313h12.898l3.297-7.313z"/>
</svg>