<svg xmlns="http://www.w3.org/2000/svg" xmlns:xlink="http://www.w3.org/1999/xlink" width="32" height="32" viewBox="0 0 32 32">
    <symbol id="a" viewBox="-16 -13.306 32 26.61">
        <path d="M13.673 8.999h-22.341c-.019 0-.036-.004-.053-.006-.416 1.783-.793 3.133-1.063 3.607l-.402.704h-5.814v-2.793h4.032c.715-2.478 3.004-15.42 3.338-16.545.502-1.686 2.171-1.686 2.171-1.686h16.447l.93 2.793h-16.903c-.049.277-.104.578-.159.894h16.093c1.161 0 2.127.855 2.299 1.969l3.752 8.439v.297c0 1.284-1.045 2.327-2.327 2.327zm-4.115-10.239h-15.969l-1.656 7.447h20.936l-3.311-7.447zM7.803-8.105c-1.435 0-2.599-1.164-2.599-2.6 0-1.437 1.164-2.601 2.599-2.601 1.436 0 2.599 1.164 2.599 2.601-.001 1.434-1.164 2.6-2.599 2.6zM-4.868-8.105c-1.435 0-2.6-1.164-2.6-2.6 0-1.437 1.165-2.601 2.6-2.601s2.599 1.164 2.599 2.601c0 1.434-1.164 2.6-2.599 2.6z"/>
    </symbol>
    <use xlink:href="#a" width="32" height="26.61" x="-16" y="-13.306" transform="matrix(1 0 0 -1 16 15.999)" overflow="visible"/>
</svg>