<?xml version="1.0" encoding="utf-8"?>
<!-- Generator: Adobe Illustrator 14.0.0, SVG Export Plug-In . SVG Version: 6.00 Build 43363)  -->
<!DOCTYPE svg PUBLIC "-//W3C//DTD SVG 1.1//EN" "http://www.w3.org/Graphics/SVG/1.1/DTD/svg11.dtd">
<svg version="1.1" id="Layer_1" xmlns="http://www.w3.org/2000/svg" xmlns:xlink="http://www.w3.org/1999/xlink" x="0px" y="0px"
	 width="32px" height="32px" viewBox="0 0 32 32" enable-background="new 0 0 32 32" xml:space="preserve">
<symbol  id="a" viewBox="-9.273 -15.997 18.547 31.994">
	<path d="M8.409,9.723c0-0.62-0.503-1.123-1.124-1.123c-0.617,0-1.12,0.503-1.12,1.122v4.854c0,0.617,0.503,1.12,1.12,1.12
		c0.62,0,1.123-0.503,1.123-1.12v-4.86L8.409,9.723z"/>
	<path fill="#999999" d="M7.285,8.298c-0.783,0-1.422,0.64-1.422,1.424v4.854c0,0.783,0.638,1.422,1.422,1.422
		c0.787,0,1.426-0.641,1.426-1.423v-4.86c0-0.784-0.64-1.423-1.426-1.423V8.298z M7.285,15.397c-0.45,0-0.818-0.365-0.818-0.816
		v-4.86c0-0.45,0.367-0.817,0.818-0.817c0.453,0,0.822,0.366,0.822,0.819v4.858c0,0.45-0.37,0.818-0.822,0.818V15.397z"/>
	<path d="M8.969-13.004c0-1.486-1.204-2.69-2.69-2.69h-12.56c-1.487,0-2.69,1.204-2.69,2.69V8.522c0,1.488,1.203,2.69,2.69,2.69
		h12.56c1.486,0,2.69-1.202,2.69-2.69V-13.004z"/>
	<path fill="#999999" d="M6.278-15.997h-12.56c-1.65,0-2.992,1.343-2.992,2.993V8.522c0,1.65,1.343,2.992,2.993,2.992H7.489
		c1.65,0,1.785-1.342,1.785-2.989v-21.53C9.271-14.655,7.927-15.997,6.278-15.997z M-6.281,10.913c-1.316,0-2.388-1.072-2.388-2.391
		v-21.526c0-1.317,1.072-2.391,2.39-2.391H6.278c1.316,0,2.39,1.07,2.39,2.391V8.522c0,1.316-1.073,2.391-2.39,2.391H-6.281z"/>
	<path fill="#FFFFFF" d="M7.398-1.492h-14.8V8.973h14.8V-1.492z"/>
	<path fill="#999999" d="M7.701-1.794H-7.706V9.272H7.701V-1.794L7.701-1.794z M-7.102-1.19H7.097v9.86H-7.102V-1.19z"/>
	<path fill="#CCCCCC" d="M2.481,3.403c0.682-1.917-5.748-4.17-5.748-4.17s3.8,2.77,2.945,4.806c-0.85,2.034,1.69,4.534,1.69,4.534
		h5.084C6.453,8.573,1.798,5.32,2.481,3.403L2.481,3.403z"/>
	<path fill="none" d="M2.481,3.403c0.682-1.917-5.748-4.17-5.748-4.17s3.8,2.77,2.945,4.806c-0.85,2.034,1.69,4.534,1.69,4.534
		h5.084C6.453,8.573,1.798,5.32,2.481,3.403L2.481,3.403z"/>
	<path fill="#808080" d="M-4.299-4.857c0-0.413-0.335-0.748-0.748-0.748h-1.494c-0.414,0-0.75,0.335-0.75,0.747v0.742
		c0,0.413,0.336,0.748,0.75,0.748h1.494c0.413,0,0.748-0.334,0.748-0.747v-0.748V-4.857z"/>
	<path fill="none" d="M-4.299-4.857c0-0.413-0.335-0.748-0.748-0.748h-1.494c-0.414,0-0.75,0.335-0.75,0.747v0.742
		c0,0.413,0.336,0.748,0.75,0.748h1.494c0.413,0,0.748-0.334,0.748-0.747v-0.748V-4.857z"/>
	<path fill="#808080" d="M-4.299-12.707c0-0.413-0.335-0.748-0.748-0.748h-1.494c-0.414,0-0.75,0.335-0.75,0.748v0.748
		c0,0.412,0.336,0.747,0.75,0.747h1.494c0.413,0,0.748-0.335,0.748-0.747V-12.707z"/>
	<path fill="none" d="M-4.299-12.707c0-0.413-0.335-0.748-0.748-0.748h-1.494c-0.414,0-0.75,0.335-0.75,0.748v0.748
		c0,0.412,0.336,0.747,0.75,0.747h1.494c0.413,0,0.748-0.335,0.748-0.747V-12.707z"/>
	<path fill="#808080" d="M-4.299-8.782c0-0.413-0.335-0.748-0.748-0.748h-1.494c-0.414,0-0.75,0.335-0.75,0.748v0.747
		c0,0.413,0.336,0.748,0.75,0.748h1.494c0.413,0,0.748-0.335,0.748-0.748V-8.782z"/>
	<path fill="none" d="M-4.299-8.782c0-0.413-0.335-0.748-0.748-0.748h-1.494c-0.414,0-0.75,0.335-0.75,0.748v0.747
		c0,0.413,0.336,0.748,0.75,0.748h1.494c0.413,0,0.748-0.335,0.748-0.748V-8.782z"/>
	<path fill="#808080" d="M1.307-4.857c0-0.413-0.334-0.748-0.748-0.748h-1.495c-0.413,0-0.748,0.335-0.748,0.747v0.742
		c0,0.413,0.335,0.748,0.748,0.748h1.495c0.413,0,0.748-0.334,0.748-0.747v-0.748V-4.857z"/>
	<path fill="none" d="M1.307-4.857c0-0.413-0.334-0.748-0.748-0.748h-1.495c-0.413,0-0.748,0.335-0.748,0.747v0.742
		c0,0.413,0.335,0.748,0.748,0.748h1.495c0.413,0,0.748-0.334,0.748-0.747v-0.748V-4.857z"/>
	<path fill="#808080" d="M1.307-12.707c0-0.413-0.334-0.748-0.748-0.748h-1.495c-0.413,0-0.748,0.335-0.748,0.748v0.748
		c0,0.412,0.335,0.747,0.748,0.747h1.495c0.413,0,0.748-0.335,0.748-0.747V-12.707z"/>
	<path fill="none" d="M1.307-12.707c0-0.413-0.334-0.748-0.748-0.748h-1.495c-0.413,0-0.748,0.335-0.748,0.748v0.748
		c0,0.412,0.335,0.747,0.748,0.747h1.495c0.413,0,0.748-0.335,0.748-0.747V-12.707z"/>
	<path fill="#808080" d="M1.307-8.782c0-0.413-0.334-0.748-0.748-0.748h-1.495c-0.413,0-0.748,0.335-0.748,0.748v0.747
		c0,0.413,0.335,0.748,0.748,0.748h1.495c0.413,0,0.748-0.335,0.748-0.748V-8.782z"/>
	<path fill="none" d="M1.307-8.782c0-0.413-0.334-0.748-0.748-0.748h-1.495c-0.413,0-0.748,0.335-0.748,0.748v0.747
		c0,0.413,0.335,0.748,0.748,0.748h1.495c0.413,0,0.748-0.335,0.748-0.748V-8.782z"/>
	<path fill="#808080" d="M6.914-4.857c0-0.413-0.336-0.748-0.748-0.748H4.668c-0.412,0-0.748,0.335-0.748,0.747v0.742
		c0,0.413,0.336,0.748,0.748,0.748h1.496c0.412,0,0.748-0.334,0.748-0.747v-0.748L6.914-4.857z"/>
	<path fill="none" d="M6.914-4.857c0-0.413-0.336-0.748-0.748-0.748H4.668c-0.412,0-0.748,0.335-0.748,0.747v0.742
		c0,0.413,0.336,0.748,0.748,0.748h1.496c0.412,0,0.748-0.334,0.748-0.747v-0.748L6.914-4.857z"/>
	<path fill="#808080" d="M6.914-12.707c0-0.413-0.336-0.748-0.748-0.748H4.668c-0.412,0-0.748,0.335-0.748,0.748v0.748
		c0,0.412,0.336,0.747,0.748,0.747h1.496c0.412,0,0.748-0.335,0.748-0.747L6.914-12.707L6.914-12.707z"/>
	<path fill="none" d="M6.914-12.707c0-0.413-0.336-0.748-0.748-0.748H4.668c-0.412,0-0.748,0.335-0.748,0.748v0.748
		c0,0.412,0.336,0.747,0.748,0.747h1.496c0.412,0,0.748-0.335,0.748-0.747L6.914-12.707L6.914-12.707z"/>
	<path fill="#808080" d="M6.914-8.782c0-0.413-0.336-0.748-0.748-0.748H4.668c-0.412,0-0.748,0.335-0.748,0.748v0.747
		c0,0.413,0.336,0.748,0.748,0.748h1.496c0.412,0,0.748-0.335,0.748-0.748L6.914-8.782L6.914-8.782z"/>
	<path fill="none" d="M6.914-8.782c0-0.413-0.336-0.748-0.748-0.748H4.668c-0.412,0-0.748,0.335-0.748,0.748v0.747
		c0,0.413,0.336,0.748,0.748,0.748h1.496c0.412,0,0.748-0.335,0.748-0.748L6.914-8.782L6.914-8.782z"/>
</symbol>
<use xlink:href="#a"  width="18.547" height="31.994" x="-9.273" y="-15.997" transform="matrix(0.9998 0 0 -0.9998 16 16)" overflow="visible"/>
</svg>
