<?xml version="1.0" encoding="utf-8"?>
<!-- Generator: Adobe Illustrator 14.0.0, SVG Export Plug-In . SVG Version: 6.00 Build 43363)  -->
<!DOCTYPE svg PUBLIC "-//W3C//DTD SVG 1.1//EN" "http://www.w3.org/Graphics/SVG/1.1/DTD/svg11.dtd">
<svg version="1.1" id="Layer_1" xmlns="http://www.w3.org/2000/svg" xmlns:xlink="http://www.w3.org/1999/xlink" x="0px" y="0px"
	 width="32px" height="32px" viewBox="0 0 32 32" enable-background="new 0 0 32 32" xml:space="preserve">
<g>
	<path fill="#C8C8C8" d="M7.069,28.135c-0.838,0-1.595-0.115-2.252-0.346l-1.339-0.467l1.304-0.552
		c1.084-0.455,1.934-1.082,2.432-1.497C3.934,23,2,19.538,2,15.904C2,9.265,8.279,3.865,16,3.865c7.718,0,14,5.397,14,12.037
		c0,6.639-6.282,12.042-14,12.042c-1.551,0-3.07-0.219-4.523-0.644C10.893,27.513,9.024,28.136,7.069,28.135L7.069,28.135z"/>
	<path fill="#FFFFFF" d="M16.388,4.411c-7.214,0-13.066,4.995-13.066,11.161c0,3.713,2.133,7.003,5.398,9.029
		c-0.25,1.353-1.488,2.393-3.009,2.483c0.595,0.123,1.225,0.193,1.881,0.193c1.709,0,3.259-0.459,4.389-1.201
		c1.379,0.423,2.865,0.656,4.413,0.656c7.212,0,13.063-4.999,13.063-11.161c0-6.166-5.851-11.161-13.067-11.161H16.388z"/>
</g>
</svg>
