<svg xmlns="http://www.w3.org/2000/svg" xmlns:xlink="http://www.w3.org/1999/xlink" width="32" height="32" viewBox="0 0 32 32">
    <symbol id="a" viewBox="-16 -13.868 32 27.736">
        <path d="M-12.575-12.887c2.178.917 3.546 2.367 3.546 2.367-3.845 2.387-6.349 6.262-6.349 10.631 0 7.255 6.886 13.135 15.378 13.135s15.378-5.88 15.378-13.135-6.886-13.136-15.378-13.136c-1.823 0-3.573.272-5.194.771 0-.001-4.27-1.722-7.381-.633zM-10.207-13.868c-.958 0-1.823.131-2.574.395l-1.526.534 1.491.628c1.241.521 2.21 1.233 2.778 1.711-3.748 2.601-5.962 6.553-5.962 10.711 0 7.586 7.177 13.757 16 13.757 8.822 0 16-6.171 16-13.757 0-7.588-7.178-13.76-16-13.76-1.772 0-3.51.248-5.171.736-.666-.243-2.801-.955-5.036-.955zm-.488 1.256c.159-.009.322-.012.488-.012 2.4 0 4.757.938 4.781.948l.204.08.21-.063c1.604-.493 3.291-.743 5.012-.743 8.136 0 14.756 5.614 14.756 12.515 0 6.899-6.62 12.513-14.756 12.513s-14.755-5.613-14.755-12.514c0-3.972 2.263-7.748 6.054-10.104l.646-.399-.522-.556c-.043-.046-.817-.858-2.118-1.665z"/>
        <path fill="#fff" d="M.444 13.246c-8.246 0-14.933-5.709-14.933-12.756 0-4.243 2.431-8.003 6.166-10.321-.287-1.544-1.699-2.734-3.439-2.837.678-.141 1.4-.219 2.146-.219 1.954 0 3.726.524 5.017 1.371 1.575-.483 3.274-.749 5.043-.749 8.247 0 14.934 5.712 14.934 12.755 0 7.047-6.687 12.756-14.934 12.756z"/>
    </symbol>
    <use xlink:href="#a" width="32" height="27.736" x="-16" y="-13.868" transform="matrix(1 0 0 -1 16 16)" overflow="visible"/>
</svg>