<svg xmlns="http://www.w3.org/2000/svg" width="32" height="32" viewBox="0 0 32 32">
  <path fill="#C8C8C8" d="M7.069 28.135c-.838 0-1.595-.115-2.252-.346l-1.339-.467 1.304-.552a9.821 9.821 0 0 0 2.432-1.497C3.934 23 2 19.538 2 15.904 2 9.265 8.279 3.865 16 3.865c7.718 0 14 5.397 14 12.037 0 6.639-6.282 12.042-14 12.042a16.09 16.09 0 0 1-4.523-.644c-.584.213-2.453.836-4.408.835z"/>
  <path fill="#FFF" d="M16.388 4.411c-7.214 0-13.066 4.995-13.066 11.161 0 3.713 2.133 7.003 5.398 9.029-.25 1.353-1.488 2.393-3.009 2.483a9.29 9.29 0 0 0 1.881.193c1.709 0 3.259-.459 4.389-1.201 1.379.423 2.865.656 4.413.656 7.212 0 13.063-4.999 13.063-11.161 0-6.166-5.851-11.161-13.067-11.161h-.002z"/>
</svg>