<svg xmlns="http://www.w3.org/2000/svg" width="32" height="32" viewBox="0 0 32 32"><path fill="#FFF" d="M23.321 14.957c1.021-4.171-1.909-6.154-3.88-6.154-2.1 0-5.25.642-5.383 4.932-2.783-4.173-8.266-.965-6.758 2.674-3.259-1.481-4.367 1.777-4.367 3.556a3.238 3.238 0 0 0 3.234 3.233h18.552a4.356 4.356 0 0 0 4.348-4.347c-.001-2.069-1.109-5.089-5.746-3.894z"/><path fill="#C8C8C8" d="M19.441 8.803c1.971 0 4.9 1.983 3.88 6.154.727-.188 1.367-.271 1.931-.271 3.026 0 3.814 2.421 3.814 4.166a4.355 4.355 0 0 1-4.348 4.347H6.167a3.238 3.238 0 0 1-3.234-3.233c0-1.464.751-3.932 2.835-3.932.447 0 .957.114 1.532.376-1.002-2.418 1.081-4.646 3.409-4.645 1.176 0 2.416.568 3.35 1.97.132-4.291 3.283-4.932 5.382-4.932m0-.934c-3.195 0-5.272 1.353-6.016 3.854a4.568 4.568 0 0 0-2.717-.893c-1.555 0-3.05.793-3.903 2.07a4.035 4.035 0 0 0-.693 2.216 3.625 3.625 0 0 0-.343-.016h-.001c-1.258 0-2.329.672-3.013 1.894-.473.844-.755 1.954-.755 2.971a4.171 4.171 0 0 0 4.167 4.166h18.552A5.285 5.285 0 0 0 30 18.852c0-2.353-1.243-5.1-4.748-5.1a7.52 7.52 0 0 0-.804.046c.132-1.869-.501-3.157-1.127-3.955-.956-1.217-2.442-1.974-3.88-1.974z"/></svg>