<?xml version="1.0" encoding="utf-8"?>
<!-- Generator: Adobe Illustrator 14.0.0, SVG Export Plug-In . SVG Version: 6.00 Build 43363)  -->
<!DOCTYPE svg PUBLIC "-//W3C//DTD SVG 1.1//EN" "http://www.w3.org/Graphics/SVG/1.1/DTD/svg11.dtd">
<svg version="1.1" id="Layer_1" xmlns="http://www.w3.org/2000/svg" xmlns:xlink="http://www.w3.org/1999/xlink" x="0px" y="0px"
	 width="144px" height="16.695px" viewBox="-204 306 144 16.695" enable-background="new -204 306 144 16.695" xml:space="preserve"
	>
<symbol  id="background" viewBox="-16 -16 32 32">
	<g>
		<path fill="#ADADAD" d="M0-15c-8.271,0-15,6.729-15,15s6.729,15,15,15S15,8.271,15,0S8.271-15,0-15L0-15z"/>
		<path fill="#FFFFFF" d="M0,14c7.72,0,14-6.28,14-14S7.72-14,0-14S-14-7.72-14,0S-7.72,14,0,14 M0,16c-8.836,0-16-7.164-16-16
			s7.164-16,16-16c8.837,0,16,7.164,16,16S8.837,16,0,16L0,16z"/>
	</g>
</symbol>
<g>
	<g>
		<g>
			<g>
				<polygon fill="#FFFFFF" points="-97.174,308 -101.105,308 -97.281,312.438 -108,312.438 -108,315.564 -97.281,315.564 
					-101.105,320 -97.174,320 -92,314 				"/>
			</g>
		</g>
	</g>
	<g>
		<g>
			<g>
				<polygon fill="#FFFFFF" points="-204,306 -204,322.695 -192,314.348 				"/>
			</g>
		</g>
	</g>
	<g>
		<g>
			<g>
				<polygon fill="#FFFFFF" points="-166.826,320 -162.895,320 -166.719,315.564 -156,315.564 -156,312.436 -166.719,312.436 
					-162.895,308 -166.826,308 -172,314 				"/>
			</g>
		</g>
	</g>
	<g>
		<rect x="-140" y="306" fill="#FFFFFF" width="3.199" height="16"/>
		<rect x="-131.199" y="306" fill="#FFFFFF" width="3.199" height="16"/>
	</g>
	<g>
		<polygon fill="#FFFFFF" points="-60,320.348 -64,320.348 -76,308.348 -72,308.348 		"/>
		<polygon fill="#FFFFFF" points="-76,320.348 -72,320.348 -60,308.348 -64,308.348 		"/>
	</g>
</g>
</svg>
