<?xml version="1.0" encoding="utf-8"?>
<!-- Generator: Adobe Illustrator 14.0.0, SVG Export Plug-In . SVG Version: 6.00 Build 43363)  -->
<!DOCTYPE svg PUBLIC "-//W3C//DTD SVG 1.1//EN" "http://www.w3.org/Graphics/SVG/1.1/DTD/svg11.dtd">
<svg version="1.1" id="Layer_1" xmlns="http://www.w3.org/2000/svg" xmlns:xlink="http://www.w3.org/1999/xlink" x="0px" y="0px"
	 width="32px" height="32px" viewBox="0 0 32 32" enable-background="new 0 0 32 32" xml:space="preserve">
<g>
	<path fill="#0070BA" d="M4.461,28.8L1.894,0h28.214l-2.57,28.796L15.981,32L4.461,28.8z"/>
	<path fill="#28A9E0" d="M16.001,29.552l9.336-2.59l2.197-24.605H16.001V29.552z"/>
	<path fill="#EBEBEB" d="M16.001,22.21l-0.016,0.004l-3.934-1.062l-0.25-2.815h-3.55l0.497,5.543l7.233,2.01l0.017-0.003
		L16.001,22.21z"/>
	<path fill="#FFFFFF" d="M15.988,13.036v3.532h4.35l-0.41,4.582l-3.939,1.063v3.676l7.243-2.01l0.05-0.594l0.83-9.302l0.09-0.948
		h-0.955H15.988z M15.988,5.886v3.5l-0.065,0.03v3.642l8.588-3.635l0.01-0.002l0.01-0.231l-0.007,0.196l0.067-0.754l0.16-1.79
		l0.086-0.95L15.988,5.886z"/>
	<path fill="#EBEBEB" d="M16.001,5.887H7.146l0.084,0.947l0.232,2.605l8.52-0.021l-8.106,3.61H7.772l0.33,3.534h7.899v-3.532V5.887z
		"/>
</g>
</svg>
