<svg xmlns="http://www.w3.org/2000/svg" xmlns:xlink="http://www.w3.org/1999/xlink" width="32" height="32" viewBox="0 0 32 32">
    <symbol viewBox="-16 -16 32 32">
        <g>
            <use xlink:href="#_x5F_button_x5F_shape" width="32" height="32" x="-16" y="-16" overflow="visible"/>
            <path fill="#999" d="M16-12c0-2.209-1.791-4-4-4h-24c-2.209 0-4 1.791-4 4v24c0 2.209 1.791 4 4 4h24c2.209 0 4-1.791 4-4v-24z"/>
        </g>
        <g>
            <use xlink:href="#_x5F_button_x5F_shape" width="32" height="32" x="-16" y="-16" transform="scale(.938)" overflow="visible"/>
            <path fill="#F2F2F2" d="M15-11.25c0-2.071-1.679-3.75-3.75-3.75h-22.5c-2.071 0-3.75 1.679-3.75 3.75v22.5c0 2.071 1.679 3.75 3.75 3.75h22.5c2.071 0 3.75-1.679 3.75-3.75v-22.5z"/>
        </g>
    </symbol>
    <symbol viewBox="-16.001 -16 32 32">
        <g>
            <use xlink:href="#_x5F_button_x5F_shape_1" width="32" height="32" x="-16" y="-16" transform="translate(-.001)" overflow="visible"/>
            <path fill="#999" d="M15.999-12c0-2.209-1.791-4-4-4h-24c-2.209 0-4 1.791-4 4v24c0 2.209 1.791 4 4 4h24c2.209 0 4-1.791 4-4v-24z"/>
        </g>
        <g>
            <use xlink:href="#_x5F_button_x5F_shape_1" width="32" height="32" x="-16" y="-16" transform="matrix(.938 0 0 .938 -.001 0)" overflow="visible"/>
            <path fill="#F2F2F2" d="M14.999-11.25c0-2.071-1.679-3.75-3.75-3.75h-22.5c-2.071 0-3.75 1.679-3.75 3.75v22.5c0 2.071 1.679 3.75 3.75 3.75h22.5c2.071 0 3.75-1.679 3.75-3.75v-22.5z"/>
        </g>
    </symbol>
    <g>
        <defs>
            <path id="a" d="M.001 0h16v16h-16z"/>
        </defs>
        <clipPath id="b">
            <use xlink:href="#a" overflow="visible"/>
        </clipPath>
        <g clip-path="url(#b)">
            <g>
                <path fill="#999" d="M32 28c0 2.209-1.791 4-4 4h-24c-2.209 0-4-1.791-4-4v-24c0-2.209 1.791-4 4-4h24c2.209 0 4 1.791 4 4v24z"/>
            </g>
            <g>
                <path fill="#F2F2F2" d="M31 27.25c0 2.071-1.679 3.75-3.75 3.75h-22.5c-2.071 0-3.75-1.679-3.75-3.75v-22.5c0-2.071 1.679-3.75 3.75-3.75h22.5c2.071 0 3.75 1.679 3.75 3.75v22.5z"/>
            </g>
            <path fill="#fff" d="M32 28c0 2.209-1.791 4-4 4h-24c-2.209 0-4-1.791-4-4v-24c0-2.209 1.791-4 4-4h24c2.209 0 4 1.791 4 4v24zM32 28c0 2.209-1.791 4-4 4h-24c-2.209 0-4-1.791-4-4v-24c0-2.209 1.791-4 4-4h24c2.209 0 4 1.791 4 4v24zM31 27.25c0 2.071-1.679 3.75-3.75 3.75h-22.5c-2.071 0-3.75-1.679-3.75-3.75v-22.5c0-2.071 1.679-3.75 3.75-3.75h22.5c2.071 0 3.75 1.679 3.75 3.75v22.5zM31 27.25c0 2.071-1.679 3.75-3.75 3.75h-22.5c-2.071 0-3.75-1.679-3.75-3.75v-22.5c0-2.071 1.679-3.75 3.75-3.75h22.5c2.071 0 3.75 1.679 3.75 3.75v22.5z"/>
        </g>
        <defs>
            <path id="c" d="M16.001 0h16v16h-16z"/>
        </defs>
        <clipPath id="d">
            <use xlink:href="#c" overflow="visible"/>
        </clipPath>
        <g clip-path="url(#d)">
            <g>
                <path fill="#999" d="M32 28c0 2.209-1.791 4-4 4h-24c-2.209 0-4-1.791-4-4v-24c0-2.209 1.791-4 4-4h24c2.209 0 4 1.791 4 4v24z"/>
            </g>
            <g>
                <path fill="#F2F2F2" d="M31 27.25c0 2.071-1.679 3.75-3.75 3.75h-22.5c-2.071 0-3.75-1.679-3.75-3.75v-22.5c0-2.071 1.679-3.75 3.75-3.75h22.5c2.071 0 3.75 1.679 3.75 3.75v22.5z"/>
            </g>
            <path fill="#3274D1" d="M32 28c0 2.209-1.791 4-4 4h-24c-2.209 0-4-1.791-4-4v-24c0-2.209 1.791-4 4-4h24c2.209 0 4 1.791 4 4v24zM32 28c0 2.209-1.791 4-4 4h-24c-2.209 0-4-1.791-4-4v-24c0-2.209 1.791-4 4-4h24c2.209 0 4 1.791 4 4v24zM31 27.25c0 2.071-1.679 3.75-3.75 3.75h-22.5c-2.071 0-3.75-1.679-3.75-3.75v-22.5c0-2.071 1.679-3.75 3.75-3.75h22.5c2.071 0 3.75 1.679 3.75 3.75v22.5zM31 27.25c0 2.071-1.679 3.75-3.75 3.75h-22.5c-2.071 0-3.75-1.679-3.75-3.75v-22.5c0-2.071 1.679-3.75 3.75-3.75h22.5c2.071 0 3.75 1.679 3.75 3.75v22.5z"/>
        </g>
        <defs>
            <path id="e" d="M.001 16h16v16h-16z"/>
        </defs>
        <clipPath id="f">
            <use xlink:href="#e" overflow="visible"/>
        </clipPath>
        <g clip-path="url(#f)">
            <g>
                <path fill="#999" d="M32 28c0 2.209-1.791 4-4 4h-24c-2.209 0-4-1.791-4-4v-24c0-2.209 1.791-4 4-4h24c2.209 0 4 1.791 4 4v24z"/>
            </g>
            <g>
                <path fill="#F2F2F2" d="M31 27.25c0 2.071-1.679 3.75-3.75 3.75h-22.5c-2.071 0-3.75-1.679-3.75-3.75v-22.5c0-2.071 1.679-3.75 3.75-3.75h22.5c2.071 0 3.75 1.679 3.75 3.75v22.5z"/>
            </g>
            <path fill="#020202" d="M32 28c0 2.209-1.791 4-4 4h-24c-2.209 0-4-1.791-4-4v-24c0-2.209 1.791-4 4-4h24c2.209 0 4 1.791 4 4v24zM32 28c0 2.209-1.791 4-4 4h-24c-2.209 0-4-1.791-4-4v-24c0-2.209 1.791-4 4-4h24c2.209 0 4 1.791 4 4v24zM31 27.25c0 2.071-1.679 3.75-3.75 3.75h-22.5c-2.071 0-3.75-1.679-3.75-3.75v-22.5c0-2.071 1.679-3.75 3.75-3.75h22.5c2.071 0 3.75 1.679 3.75 3.75v22.5zM31 27.25c0 2.071-1.679 3.75-3.75 3.75h-22.5c-2.071 0-3.75-1.679-3.75-3.75v-22.5c0-2.071 1.679-3.75 3.75-3.75h22.5c2.071 0 3.75 1.679 3.75 3.75v22.5z"/>
        </g>
        <defs>
            <path id="g" d="M16 16h16v16h-16z"/>
        </defs>
        <clipPath id="h">
            <use xlink:href="#g" overflow="visible"/>
        </clipPath>
        <g clip-path="url(#h)">
            <g>
                <path fill="#999" d="M31.998 28c0 2.209-1.79 4-4 4h-24c-2.209 0-4-1.791-4-4v-24c0-2.209 1.791-4 4-4h24c2.21 0 4 1.791 4 4v24z"/>
            </g>
            <g>
                <path fill="#F2F2F2" d="M30.998 27.25c0 2.071-1.679 3.75-3.75 3.75h-22.5c-2.071 0-3.75-1.679-3.75-3.75v-22.5c.001-2.071 1.68-3.75 3.751-3.75h22.5c2.071 0 3.75 1.679 3.75 3.75v22.5z"/>
            </g>
            <path fill="#ddd" d="M31.998 28c0 2.209-1.79 4-4 4h-24c-2.209 0-4-1.791-4-4v-24c0-2.209 1.791-4 4-4h24c2.21 0 4 1.791 4 4v24zM31.998 28c0 2.209-1.79 4-4 4h-24c-2.209 0-4-1.791-4-4v-24c0-2.209 1.791-4 4-4h24c2.21 0 4 1.791 4 4v24zM30.998 27.25c0 2.071-1.679 3.75-3.75 3.75h-22.5c-2.071 0-3.75-1.679-3.75-3.75v-22.5c.001-2.071 1.68-3.75 3.751-3.75h22.5c2.071 0 3.75 1.679 3.75 3.75v22.5zM30.998 27.25c0 2.071-1.679 3.75-3.75 3.75h-22.5c-2.071 0-3.75-1.679-3.75-3.75v-22.5c.001-2.071 1.68-3.75 3.751-3.75h22.5c2.071 0 3.75 1.679 3.75 3.75v22.5z"/>
        </g>
    </g>
</svg>