<svg xmlns="http://www.w3.org/2000/svg" xmlns:xlink="http://www.w3.org/1999/xlink" width="32" height="32" viewBox="0 0 32 32">
    <symbol id="a" viewBox="-16 -14.061 32 28.121">
        <path fill="#ccc" d="M6.21-14.061h-12.418l3.153 5.531h6.109l3.156-5.531zm-10.378 1.186h8.338l-1.804 3.162h-4.732l-1.802-3.162z"/>
        <path d="M5.189-13.468h-10.377l2.478 4.348h5.421z"/>
        <path fill="#ccc" d="M12.363-9.522h-24.728c-1.746 0-3.246 1.246-3.568 2.963l-.064.615-.003 16.367.06.625c.33 1.768 1.83 3.013 3.576 3.013h24.728c1.746 0 3.247-1.245 3.571-2.962l.063-.617.002-16.368-.058-.622c-.332-1.768-1.833-3.014-3.579-3.014zm-24.727 22.397c-1.175 0-2.187-.84-2.404-1.995l-.049-.516.057-16.756c.21-1.106 1.221-1.945 2.396-1.945h24.728c1.176 0 2.188.839 2.406 1.996l.048.513-.056 16.759c-.211 1.104-1.223 1.944-2.398 1.944h-24.728z"/>
        <path d="M15.353 10.989c-.267 1.41-1.5 2.479-2.989 2.479h-24.728c-1.486 0-2.721-1.067-2.986-2.479l-.057-.566v-16.309l.057-.564c.265-1.411 1.5-2.479 2.986-2.479h24.728c1.489 0 2.723 1.067 2.989 2.479l.055.564v16.309l-.055.566z"/>
        <path fill="#fff" d="M13.635-7.142h-27.268v18.822h27.268z"/>
        <path fill="#999" d="M13.931-7.438h-27.86v19.414h27.86v-19.414zm-27.267.593h26.674v18.228h-26.674v-18.228z"/>
        <path fill="#ccc" d="M4.767 2.97c.59-3.07-4.962-6.688-4.962-6.688s3.281 4.443 2.543 7.708c-.736 3.265 1.458 7.268 1.458 7.268h4.389c-.001 0-4.019-5.215-3.428-8.288z"/>
        <path fill="none" d="M4.767 2.97c.59-3.07-4.962-6.688-4.962-6.688s3.281 4.443 2.543 7.708c-.736 3.265 1.458 7.268 1.458 7.268h4.389c-.001 0-4.019-5.215-3.428-8.288z"/>
    </symbol>
    <use xlink:href="#a" width="32" height="28.121" x="-16" y="-14.061" transform="matrix(1 0 0 -1 16 16)" overflow="visible"/>
</svg>