<?xml version="1.0" encoding="utf-8"?>
<!-- Generator: Adobe Illustrator 14.0.0, SVG Export Plug-In . SVG Version: 6.00 Build 43363)  -->
<!DOCTYPE svg PUBLIC "-//W3C//DTD SVG 1.1//EN" "http://www.w3.org/Graphics/SVG/1.1/DTD/svg11.dtd">
<svg version="1.1" id="Layer_1" xmlns="http://www.w3.org/2000/svg" xmlns:xlink="http://www.w3.org/1999/xlink" x="0px" y="0px"
	 width="32px" height="32px" viewBox="0 0 32 32" enable-background="new 0 0 32 32" xml:space="preserve">
<symbol  id="a" viewBox="-16 -14.061 32 28.121">
	<path fill="#CCCCCC" d="M6.21-14.061H-6.208l3.153,5.529h6.11L6.21-14.061z M-4.168-12.876H4.17L2.366-9.714h-4.732L-4.168-12.876z
		"/>
	<path d="M5.19-13.469H-5.19l2.48,4.348h5.42L5.19-13.469z"/>
	<path fill="#CCCCCC" d="M12.363-9.523h-24.728c-1.746,0-3.246,1.246-3.568,2.964l-0.064,0.619L-16,10.423l0.06,0.625
		c0.33,1.769,1.83,3.013,3.576,3.013h24.728c1.746,0,3.247-1.239,3.57-2.96L16,10.481V-5.884l-0.058-0.622
		c-0.332-1.769-1.833-3.014-3.58-3.014L12.363-9.523z M-12.364,12.874c-1.175,0-2.187-0.84-2.404-1.995l-0.05-0.516l0.058-16.756
		c0.21-1.106,1.22-1.945,2.396-1.945h24.728c1.176,0,2.188,0.84,2.406,1.996l0.048,0.51l-0.056,16.76
		c-0.21,1.101-1.223,1.94-2.398,1.94h-24.728V12.874z"/>
	<path d="M15.353,10.989c-0.267,1.41-1.5,2.478-2.99,2.478h-24.727c-1.486,0-2.72-1.066-2.986-2.479l-0.057-0.565v-16.31
		l0.057-0.563c0.265-1.41,1.5-2.479,2.986-2.479h24.728c1.49,0,2.723,1.067,2.99,2.479l0.054,0.564v16.31L15.353,10.989
		L15.353,10.989z"/>
	<path fill="#FFFFFF" d="M13.635-7.143h-27.268v18.821h27.268V-7.143z"/>
	<path fill="#999999" d="M13.93-7.439h-27.86v19.414h27.86V-7.439z M-13.336-6.846h26.674v18.228h-26.674V-6.846z"/>
	<path fill="#CCCCCC" d="M4.767,2.969c0.59-3.069-4.962-6.688-4.962-6.688s3.28,4.442,2.543,7.708
		c-0.736,3.265,1.458,7.268,1.458,7.268h4.39C8.194,11.257,4.176,6.042,4.767,2.969L4.767,2.969z"/>
	<path fill="none" d="M4.767,2.969c0.59-3.069-4.962-6.688-4.962-6.688s3.28,4.442,2.543,7.708
		c-0.736,3.265,1.458,7.268,1.458,7.268h4.39C8.194,11.257,4.176,6.042,4.767,2.969L4.767,2.969z"/>
</symbol>
<use xlink:href="#a"  width="32" height="28.121" x="-16" y="-14.061" transform="matrix(1 0 0 -1 16 16.0005)" overflow="visible"/>
</svg>
