<svg xmlns="http://www.w3.org/2000/svg" xmlns:xlink="http://www.w3.org/1999/xlink" width="32" height="32" viewBox="0 0 32 32"><symbol id="c" viewBox="-16.001 -16 32 32"><use xlink:href="#a" width="32" height="32" x="-16" y="-16" transform="translate(-.001)" overflow="visible"/><path fill="#999" d="M15.999-12a4 4 0 0 0-4-4h-24a4 4 0 0 0-4 4v24a4 4 0 0 0 4 4h24a4 4 0 0 0 4-4v-24z"/><g><use xlink:href="#a" width="32" height="32" x="-16" y="-16" transform="translate(-.001) scale(.9375)" overflow="visible"/><path fill="#F2F2F2" d="M14.999-11.25a3.75 3.75 0 0 0-3.75-3.75h-22.5a3.75 3.75 0 0 0-3.75 3.75v22.5a3.75 3.75 0 0 0 3.75 3.75h22.5a3.75 3.75 0 0 0 3.75-3.75v-22.5z"/></g></symbol><use xlink:href="#a" width="32" height="32" x="-16" y="-16" transform="matrix(1 0 0 -1 16 16)" overflow="visible"/><path fill="#999" d="M32 28a4 4 0 0 1-4 4H4a4 4 0 0 1-4-4V4a4 4 0 0 1 4-4h24a4 4 0 0 1 4 4v24z"/><g><path fill="#3C4C48" d="M32 28a4 4 0 0 1-4 4H4a4 4 0 0 1-4-4V4a4 4 0 0 1 4-4h24a4 4 0 0 1 4 4v24z"/><path fill="#3C4C48" d="M32 28a4 4 0 0 1-4 4H4a4 4 0 0 1-4-4V4a4 4 0 0 1 4-4h24a4 4 0 0 1 4 4v24z"/><path fill="#3C4C48" d="M32 28a4 4 0 0 1-4 4H4a4 4 0 0 1-4-4V4a4 4 0 0 1 4-4h24a4 4 0 0 1 4 4v24z"/></g><path fill="#D0DE21" d="M12.146 12.863c6.338-1.821 11.631 1.902 11.631 1.902l-4.363 1.179-1.256-2.334a11.437 11.437 0 0 0-3.961-.046l2.97 6.037 12.835-3.696s-4.654-7.311-18.537-4.947c-.082.012-.153.031-.234.046L9.884 8.267H5.74l1.777 3.785c-8.424 3.479-4.691 11.682-4.691 11.682l12.852-3.701-3.532-7.17zm-5.843 6.62s-1.238-2.734 2.365-5.076l1.916 3.921-4.281 1.155z"/></svg>