<?xml version="1.0" encoding="utf-8"?>
<!-- Generator: Adobe Illustrator 14.0.0, SVG Export Plug-In . SVG Version: 6.00 Build 43363)  -->
<!DOCTYPE svg PUBLIC "-//W3C//DTD SVG 1.1//EN" "http://www.w3.org/Graphics/SVG/1.1/DTD/svg11.dtd">
<svg version="1.1" id="Layer_1" xmlns="http://www.w3.org/2000/svg" xmlns:xlink="http://www.w3.org/1999/xlink" x="0px" y="0px"
	 width="32px" height="32px" viewBox="0 0 32 32" enable-background="new 0 0 32 32" xml:space="preserve">
<path fill="#FFFFFF" d="M28.833,16.62H26.5v10.463h-4.083V21.25h-1.75v5.833H16v-10.5h-3.536L12.5,10.7h16.333V16.62z"/>
<path fill="#2A5F91" d="M13.667,9.583V9.416c0,0-3.334-3.333-5.835-3.333C5.334,6.083,2,9.416,2,9.416v8.334h4.667v3.521
	c-1.944,0.115-3.5,1.627-3.5,3.479v2.625c0,0.48,0.42,0.875,0.934,0.875h7.47c0.515,0,0.936-0.395,0.936-0.875V24.75
	c0-1.85-1.556-3.362-3.5-3.479V17.75h4.668v-0.036h1.167V28.25h12.83V17.714H30v-8.13L13.667,9.583L13.667,9.583z M28.833,16.62
	H26.5v10.463h-4.083V21.25h-1.75v5.833H16v-10.5h-2.333V10.7h15.166V16.62z M16,3.75v10.5h10.5V3.75H16z M25.333,13.083h-8.166
	V4.917h8.166V13.083z"/>
<path fill="#FFFFFF" d="M17.167,4.917h8.166v8.166h-8.166V4.917z M11.32,27.23h-7v-2.334c0-1.285,1.15-2.332,2.565-2.332h1.868
	c1.415,0,2.565,1.047,2.565,2.332v2.334H11.32z M12.485,16.613H3.152V9.945C4.392,8.8,6.488,7.28,7.817,7.28
	c1.332,0,3.427,1.52,4.667,2.665L12.485,16.613L12.485,16.613z"/>
</svg>
