<svg xmlns="http://www.w3.org/2000/svg" width="32" height="32"><path fill="#FFF" d="M5.63 9.188v20.294h20.741V2.519H12.113L5.63 9.188z"/><path fill="#C8C8C8" d="M26.889 30H5.11V8.978L11.895 2h14.996v28h-.002zm-20.74-1.038h19.707V3.036H12.335L6.15 9.398v19.566h-.001v-.002z"/><path fill="#B4B4B4" d="M5.63 9.188h6.484V2.519L5.63 9.188zm18.149-2.815H16V5.336h7.779v1.037zm0 2.074H16V7.409h7.779v1.038zm0 2.073H16V9.484h7.779v1.036zm0 3.768H7.875V13.25h15.904v1.038zm0 3.11H7.875V16.36h15.904v1.038zm0 3.113H7.875v-1.038h15.904v1.038zm0 3.11H7.875v-1.038h15.904v1.038zm0 3.109H7.875v-1.037h15.904v1.037z"/></svg>