<svg xmlns="http://www.w3.org/2000/svg" width="32" height="32" viewBox="0 0 32 32"><path fill="#FFF" d="M5.63 9.188v20.294h20.741V2.519H12.113L5.63 9.188z"/><path fill="#C8C8C8" d="M26.889 30H5.11V8.978L11.895 2h14.996v28h-.002zm-20.74-1.038h19.707V3.036H12.335L6.15 9.398v19.566h-.001v-.002z"/><path fill="#B4B4B4" d="M5.63 9.188h6.484V2.519L5.63 9.188z"/><g fill="#B4B4B4"><path d="M23.779 6.373H16V5.336h7.779v1.037zM23.779 8.447H16V7.409h7.779v1.038zM23.779 10.52H16V9.484h7.779v1.036zM23.779 14.288H7.875V13.25h15.904v1.038zM23.779 17.398H7.875V16.36h15.904v1.038zM23.779 20.511H7.875v-1.038h15.904v1.038zM23.779 23.621H7.875v-1.038h15.904v1.038zM23.779 26.73H7.875v-1.037h15.904v1.037z"/></g></svg>