<svg xmlns="http://www.w3.org/2000/svg" xmlns:xlink="http://www.w3.org/1999/xlink" width="32" height="32" viewBox="0 0 32 32">
    <symbol id="a" viewBox="-13.999 -15.999 27.998 31.999">
        <path fill="#005A8D" d="M6.97 10.049c-1.633 1.018-3.176 1.417-4.717 2.435-.954.647-2.281 2.188-3.392 3.516-.215-2.127-.863-2.991-1.603-3.608-1.571-1.233-2.558-1.602-3.915-2.342-1.141-.587-7.337-4.284-7.337-12.239 0-7.953 6.69-13.81 14.119-13.81 7.431 0 13.874 5.396 13.874 13.563.001 8.17-6.042 11.867-7.029 12.485z"/>
        <path fill="#fff" d="M4.467-9.091c.492 0 1.019-.032 1.388-.28.368-.247.586-.801.707-1.107.124-.31 0-.492-.245-.617-.215-.122-.247-.061-.462.338-.217.401-.401.806-1.479.806-1.079 0-1.421-.373-1.941-.806-.525-.431-.71-.583-.896-.338-.187.248-.125.495.215.801.339.31.896.804 1.421 1.019.521.214.797.184 1.292.184zM-.703-12.396c.616-.493 1.541-.893 3.512-.893 1.975 0 3.362.551 3.978 1.016.278.217.4.03.434-.094.029-.123.092-.31-.125-.522-.155-.153-1.571-1.142-3.237-1.297-1.663-.15-3.915-.244-5.271.988-.215.216-.156.521 0 .646.153.122.277.217.463.217.183.001.152.001.246-.061z"/>
        <path fill="#0073BA" d="M-8.205-10.264c2.345.028 2.774.43 4.84 1.357 11.162 4.995 13.225 9.556 13.627 10.604.402 1.048.986 2.741.372 4.625-.12.362-.208.653-.271.888-1.481 1.657-2.956 2.563-3.401 2.842-1.6 1.018-3.174 1.417-4.715 2.435-.954.617-2.282 2.19-3.391 3.513-.218-2.127-.834-3.02-1.603-3.605-1.573-1.23-2.561-1.604-3.916-2.343-1.143-.616-7.336-4.287-7.336-12.238 0-2.541.68-4.863 1.85-6.854l.307.012c.649-.59 1.665-1.268 3.637-1.236z"/>
        <path fill="#054A75" d="M6.962 10.052c-1.6 1.018-3.174 1.417-4.715 2.435-.954.617-2.282 2.19-3.391 3.513-.218-2.127-.834-3.02-1.603-3.605-1.573-1.23-2.561-1.604-3.916-2.343-1.143-.616-7.336-4.287-7.336-12.238 0-2.541.68-4.863 1.85-6.854 2.496-4.241 7.211-6.955 12.27-6.955 7.428 0 13.871 5.396 13.871 13.564 0 4.484-1.823 7.623-3.629 9.643-1.481 1.655-2.956 2.56-3.401 2.84zm3.748-3.609c2.025-2.531 3.049-5.518 3.049-8.876 0-1.949-.37-3.791-1.103-5.475-.692-1.596-1.693-3.013-2.971-4.203-2.529-2.359-5.927-3.657-9.564-3.657-1.804 0-3.569.347-5.257 1.024-1.655.664-3.146 1.62-4.433 2.837-2.709 2.56-4.2 6.012-4.2 9.718 0 3.304 1.071 6.234 3.187 8.724 1.614 1.898 3.356 2.95 4.031 3.313.326.18.634.334.928.487.93.479 1.811.928 3.018 1.875.646.49 1.331 1.267 1.625 3.237 1.017-1.214 2.2-2.571 3.102-3.155.805-.529 1.623-.898 2.423-1.259.746-.337 1.525-.69 2.295-1.178.001-.002.03-.017.03-.017 2.246-1.403 3.447-2.902 3.84-3.395z"/>
        <path fill="#93C4E2" d="M-.834 14.598c.433-1.264.371-1.912.371-2.188 0-.277-.153-1.018-.646-1.388-.217-.153-.279-.277-.279-.309 0-.123.279-.217.279-.494 0-.337-.155-1.017-1.788-2.648-1.635-1.636-3.978-3.084-5.795-3.979-1.821-.896-2.684-.831-2.932-.399-.245.431.094 1.386 1.234 2.65 1.141 1.264 4.75 3.081 4.75 3.081l4.499 3.146.247 1.201"/>
        <path fill="#fff" d="M-.834 14.627c-.275-2.033-.894-2.646-1.727-3.296-1.386-1.049-2.743-1.695-3.05-1.851-.802-.4-3.701-2.005-5.212-4.314-.46-.713 0-.988.094-1.048.091-.063 1.141-.187 3.392 1.17 2.251 1.355 3.235 2.156 4.499 3.484.681.708.772 1.109.772 1.293 0 .217-.154.311-.401.373-.124.026-.153.09 0 .182.153.094.802.401.955.523.153.124.896.619.925 1.417.032.807-.029 1.361-.247 2.067zM-8.084-6.05c.032 2.401 2.28 4.65 5.117 4.681 3.608.033 6.105-3.571 7.924-3.543 1.541.027 4.5 3.051 5.95 3.051 1.541 0 1.972-1.6 1.972-2.558 0-.955-.307-2.681-1.049-3.759-.737-1.082-1.199-1.482-2.065-1.421-1.112.094-3.329 3.549-4.746 3.61-1.787.061-5.672-3.733-8.725-3.733-1.851 0-2.404.276-3.021.68-.924.646-1.387 1.632-1.357 2.992z"/>
        <path fill="none" d="M10.634 6.322c.614-1.884.029-3.577-.372-4.625s-2.465-5.609-13.627-10.602c-2.065-.929-2.495-1.329-4.84-1.357-1.972-.032-2.988.646-3.637 1.232l-.307-.012c2.496-4.241 7.211-6.955 12.27-6.955 7.428 0 13.871 5.396 13.871 13.564 0 4.484-1.823 7.623-3.629 9.643.063-.233.151-.524.271-.888z"/>
    </symbol>
    <use xlink:href="#a" width="27.998" height="31.999" x="-13.999" y="-15.999" transform="matrix(1 0 0 -1 16 16)" overflow="visible"/>
</svg>