<?xml version="1.0" encoding="utf-8"?>
<!-- Generator: Adobe Illustrator 14.0.0, SVG Export Plug-In . SVG Version: 6.00 Build 43363)  -->
<!DOCTYPE svg PUBLIC "-//W3C//DTD SVG 1.1//EN" "http://www.w3.org/Graphics/SVG/1.1/DTD/svg11.dtd">
<svg version="1.1" id="Layer_1" xmlns="http://www.w3.org/2000/svg" xmlns:xlink="http://www.w3.org/1999/xlink" x="0px" y="0px"
	 width="32px" height="32px" viewBox="0 0 32 32" enable-background="new 0 0 32 32" xml:space="preserve">
<g>
	<path fill="#005A8D" d="M22.97,5.95c-1.633-1.017-3.176-1.416-4.717-2.434C17.3,2.871,15.973,1.329,14.86,0
		c-0.214,2.127-0.862,2.99-1.602,3.608C11.688,4.841,10.701,5.21,9.343,5.95c-1.14,0.587-7.336,4.284-7.336,12.239
		c0,7.951,6.689,13.809,14.119,13.809s13.873-5.396,13.873-13.563C29.999,10.266,23.954,6.57,22.97,5.95z"/>
	<path fill="#FFFFFF" d="M20.467,25.089c0.492,0,1.02,0.033,1.388,0.28c0.368,0.248,0.586,0.802,0.707,1.107
		c0.124,0.311,0,0.492-0.245,0.617c-0.215,0.122-0.247,0.061-0.462-0.338c-0.217-0.399-0.399-0.806-1.479-0.806
		c-1.078,0-1.42,0.38-1.94,0.81c-0.524,0.431-0.71,0.585-0.896,0.34c-0.19-0.25-0.13-0.494,0.21-0.8
		c0.34-0.31,0.895-0.805,1.42-1.02c0.52-0.214,0.8-0.185,1.292-0.185L20.467,25.089z M15.297,28.396
		c0.616,0.492,1.54,0.893,3.512,0.893s3.36-0.557,3.972-1.021c0.278-0.22,0.4-0.029,0.434,0.093c0.03,0.123,0.093,0.31-0.125,0.521
		c-0.153,0.152-1.569,1.14-3.235,1.295c-1.665,0.15-3.917,0.245-5.272-0.985c-0.214-0.217-0.155-0.521,0-0.646
		c0.154-0.123,0.278-0.218,0.464-0.218c0.184,0,0.153,0,0.247,0.06L15.297,28.396z"/>
	<path fill="#0073BA" d="M7.795,26.263c2.345-0.027,2.774-0.43,4.839-1.356c11.161-4.995,13.225-9.557,13.627-10.604
		c0.401-1.048,0.985-2.739,0.371-4.625c-0.119-0.361-0.208-0.652-0.27-0.888c-1.484-1.657-2.958-2.563-3.404-2.842
		c-1.6-1.018-3.173-1.417-4.714-2.435C17.291,2.897,15.963,1.324,14.855,0c-0.22,2.127-0.835,3.02-1.604,3.605
		c-1.569,1.229-2.56,1.604-3.91,2.342c-1.144,0.616-7.34,4.287-7.34,12.236c0,2.54,0.68,4.863,1.85,6.854l0.308-0.012
		C4.809,25.617,5.824,26.295,7.795,26.263z"/>
	<path fill="#054A75" d="M22.961,5.948c-1.6-1.018-3.173-1.417-4.714-2.435C17.293,2.897,15.965,1.324,14.857,0
		c-0.22,2.127-0.835,3.02-1.604,3.605c-1.572,1.229-2.56,1.604-3.916,2.342c-1.143,0.616-7.336,4.287-7.336,12.236
		c0,2.54,0.68,4.863,1.85,6.854c2.497,4.24,7.211,6.954,12.269,6.954c7.429,0,13.871-5.396,13.871-13.563
		c0-4.479-1.823-7.619-3.63-9.639c-1.48-1.652-2.955-2.56-3.4-2.84V5.948z M26.709,9.558c2.025,2.53,3.05,5.517,3.05,8.874
		c0,1.95-0.369,3.79-1.104,5.476c-0.692,1.596-1.693,3.013-2.97,4.203c-2.53,2.358-5.93,3.659-9.565,3.659
		c-1.803,0-3.568-0.344-5.256-1.021c-1.655-0.664-3.146-1.619-4.433-2.836c-2.703-2.561-4.2-6.012-4.2-9.72
		c0-3.303,1.077-6.232,3.19-8.723c1.617-1.899,3.359-2.949,4.03-3.313c0.33-0.181,0.638-0.334,0.93-0.487
		c0.93-0.479,1.81-0.93,3.02-1.877c0.646-0.49,1.33-1.265,1.625-3.235c1.018,1.214,2.2,2.57,3.103,3.154
		c0.805,0.53,1.623,0.897,2.423,1.26c0.746,0.335,1.525,0.69,2.295,1.176c0,0.002,0.029,0.017,0.029,0.017
		c2.247,1.403,3.448,2.902,3.84,3.395L26.709,9.558z"/>
	<path fill="#93C4E2" d="M15.166,1.403c0.433,1.264,0.37,1.912,0.37,2.188c0,0.277-0.152,1.019-0.645,1.388
		c-0.21,0.153-0.273,0.277-0.273,0.311c0,0.122,0.28,0.216,0.28,0.493c0,0.34-0.156,1.02-1.79,2.649
		c-1.634,1.639-3.979,3.086-5.794,3.98c-1.819,0.897-2.683,0.83-2.93,0.399c-0.246-0.429,0.093-1.384,1.233-2.649
		c1.139-1.263,4.75-3.08,4.75-3.08l4.5-3.146l0.246-1.199"/>
	<path fill="#FFFFFF" d="M15.166,1.374c-0.275,2.033-0.894,2.646-1.727,3.296c-1.39,1.043-2.75,1.69-3.049,1.849
		c-0.808,0.4-3.707,2-5.218,4.311c-0.46,0.712,0,0.99,0.094,1.05c0.09,0.061,1.139,0.186,3.392-1.17
		c2.25-1.357,3.234-2.158,4.5-3.486c0.68-0.708,0.77-1.109,0.77-1.293c0-0.215-0.154-0.309-0.4-0.372
		c-0.125-0.024-0.154-0.09,0-0.18c0.152-0.095,0.8-0.4,0.954-0.524c0.153-0.123,0.896-0.619,0.925-1.417
		c0.03-0.81-0.03-1.359-0.248-2.069L15.166,1.374z M7.917,22.049c0.032-2.399,2.28-4.649,5.117-4.68
		c3.606-0.035,6.104,3.57,7.924,3.54c1.54-0.027,4.499-3.05,5.949-3.05c1.54,0,1.972,1.6,1.972,2.557c0,0.954-0.31,2.68-1.05,3.758
		c-0.74,1.082-1.2,1.482-2.07,1.42c-1.109-0.093-3.329-3.548-4.745-3.609c-1.783-0.061-5.668,3.734-8.722,3.734
		c-1.85,0-2.403-0.276-3.02-0.68c-0.924-0.647-1.387-1.633-1.357-2.993L7.917,22.049z"/>
	<path fill="none" d="M26.633,9.678c0.614,1.884,0.03,3.577-0.371,4.625c-0.402,1.048-2.466,5.61-13.627,10.602
		c-2.064,0.93-2.494,1.33-4.839,1.356c-1.972,0.032-2.987-0.646-3.636-1.231l-0.307,0.012c2.5,4.24,7.216,6.954,12.269,6.954
		c7.429,0,13.876-5.396,13.876-13.563c0-4.483-1.823-7.622-3.63-9.642c0.064,0.233,0.152,0.524,0.272,0.888H26.633z"/>
</g>
</svg>
