<svg xmlns="http://www.w3.org/2000/svg" width="32" height="32" viewBox="0 0 32 32"><path fill="#005A8D" d="M22.099 7.206c-1.43-.89-2.779-1.239-4.128-2.13-.834-.564-1.995-1.914-2.969-3.077-.187 1.861-.754 2.617-1.402 3.157-1.374 1.079-2.237 1.402-3.426 2.049-.997.514-6.419 3.749-6.419 10.71 0 6.957 5.854 12.083 12.355 12.083 6.502 0 12.14-4.723 12.14-11.868 0-7.148-5.29-10.382-6.151-10.924z"/><path fill="#FFF" d="M19.908 23.953c.432 0 .894.029 1.216.245.322.217.513.702.618.969.109.272 0 .431-.214.54-.188.106-.217.054-.404-.296-.189-.35-.35-.705-1.295-.705-.943 0-1.242.332-1.697.708-.459.377-.621.512-.784.299-.166-.219-.113-.433.184-.701.298-.271.783-.704 1.242-.892.456-.188.701-.163 1.131-.163l.003-.004zm-4.523 2.895c.539.431 1.348.781 3.074.781 1.725 0 2.939-.487 3.475-.895.244-.192.351-.024.38.082.026.108.082.271-.109.456-.134.133-1.372.997-2.83 1.133-1.457.132-3.428.215-4.614-.862-.188-.189-.135-.455 0-.564.135-.108.243-.19.406-.19.162 0 .134 0 .216.053l.002.006z"/><path fill="#0073BA" d="M15.5 23.375c7.313-3.5 10.042-9.524 9.567-13.684-1.299-1.45-2.588-2.243-2.979-2.487-1.4-.891-2.776-1.24-4.125-2.131-.834-.539-1.996-1.916-2.965-3.074-.193 1.861-.731 2.643-1.404 3.155-1.372 1.075-2.24 1.403-3.421 2.049-1 .539-6.423 3.751-6.423 10.707 0 2.223.596 4.255 1.62 5.998-.001 0 3.547 2.617 10.13-.533z"/><path fill="#FFF" d="M15.27 3.201c-.24 1.779-1.247 2.533-1.708 2.861-3.833 2.021-5.715 3.391-7.038 5.414-.403.623 0 .866.083.918 3.163.397 9.27-5.393 7.372-5.639 1.246-.842 1.475-2.938 1.284-3.559l.007.005zM8.927 21.293c.028-2.099 1.996-4.067 4.478-4.095 3.156-.031 5.341 3.124 6.934 3.098 1.348-.024 3.937-2.669 5.205-2.669 1.348 0 1.726 1.399 1.726 2.237 0 .835-.271 2.345-.918 3.288-.648.947-1.051 1.297-1.813 1.242-.97-.081-2.912-3.104-4.151-3.158-1.56-.053-4.959 3.268-7.632 3.268-1.619 0-2.102-.24-2.642-.595-.809-.565-1.214-1.429-1.188-2.619l.001.003z"/></svg>