<svg xmlns="http://www.w3.org/2000/svg" xmlns:xlink="http://www.w3.org/1999/xlink" width="32" height="32" viewBox="0 0 32 32">
    <symbol viewBox="-15.032 -15.031 30.064 30.063">
        <g>
            <use xlink:href="#button_x5F_shape" width="31" height="30.999" x="-15.5" y="-15.499" transform="scale(.969)" overflow="visible"/>
            <path fill="none" stroke="#999" d="M14.532 0c0-8.024-6.506-14.531-14.532-14.531-8.027 0-14.532 6.507-14.532 14.531 0 8.025 6.505 14.532 14.532 14.532 8.026 0 14.532-6.507 14.532-14.532z"/>
        </g>
    </symbol>
    <symbol viewBox="-15.016 -15.015 30.033 30.032">
        <use xlink:href="#button_x5F_shape" width="31" height="30.999" x="-15.5" y="-15.499" transform="scale(.969)" overflow="visible" opacity=".4"/>
    </symbol>
    <path fill="#666" d="M16 3c7.168 0 13 5.832 13 13s-5.832 13-13 13-13-5.832-13-13 5.832-13 13-13m0-1c-7.733 0-14 6.268-14 14 0 7.73 6.267 14 14 14 7.731 0 14-6.27 14-14 0-7.732-6.269-14-14-14z"/>
    <g fill="#fff" stroke="#000">
        <path d="M16.072 14.758l12.928-4.065v-4.693h-26v4.68zM16.072 16.84l-13.072-4.076v13.236h26v-13.223z"/>
    </g>
</svg>