<?xml version="1.0" encoding="utf-8"?>
<!-- Generator: Adobe Illustrator 14.0.0, SVG Export Plug-In . SVG Version: 6.00 Build 43363)  -->
<!DOCTYPE svg PUBLIC "-//W3C//DTD SVG 1.1//EN" "http://www.w3.org/Graphics/SVG/1.1/DTD/svg11.dtd">
<svg version="1.1" id="Layer_1" xmlns="http://www.w3.org/2000/svg" xmlns:xlink="http://www.w3.org/1999/xlink" x="0px" y="0px"
	 width="32px" height="32px" viewBox="0 0 32 32" enable-background="new 0 0 32 32" xml:space="preserve">
<path fill="#FFFFFF" d="M3.557,16c2.354,3.592,6.464,6.668,12.442,6.668c4.315,0,10.088-3.076,12.443-6.668
	C26.088,12.407,20.313,9.333,16,9.333S5.912,12.407,3.557,16z"/>
<path fill="#C8C8C8" d="M16.537,21.72c-3.396,0-6.16-2.763-6.16-6.16s2.764-6.16,6.16-6.16c3.397,0,6.16,2.765,6.16,6.16
	S19.934,21.72,16.537,21.72z"/>
<path fill="#999999" d="M16.537,9.838c3.153,0,5.723,2.567,5.723,5.722s-2.568,5.723-5.723,5.723c-3.155,0-5.722-2.567-5.722-5.723
	C10.815,12.406,13.382,9.838,16.537,9.838 M16.537,8.963c-3.643,0-6.597,2.955-6.597,6.597c0,3.644,2.954,6.598,6.597,6.598
	c3.644,0,6.598-2.954,6.598-6.598C23.135,11.918,20.179,8.963,16.537,8.963z M19.582,15.561c0,1.682-1.362,3.046-3.044,3.046
	c-1.68,0-3.045-1.366-3.045-3.046c0-1.679,1.365-3.045,3.045-3.045C18.219,12.516,19.582,13.879,19.582,15.561z"/>
<path fill="#C8C8C8" d="M16,24.645c-5.615,0-10.826-3.043-13.601-7.941L2,16l0.399-0.703c2.773-4.9,7.985-7.942,13.601-7.942
	c5.614,0,10.824,3.043,13.603,7.941L30,16l-0.397,0.702C26.826,21.602,21.613,24.646,16,24.645L16,24.645z M3.557,16
	c2.354,3.592,6.464,6.668,12.442,6.668c4.315,0,10.088-3.076,12.443-6.668C26.088,12.407,20.313,9.333,16,9.333
	S5.912,12.407,3.557,16z"/>
<ellipse transform="matrix(-0.7978 -0.6029 0.6029 -0.7978 26.7737 34.7086)" fill="#FFFFFF" cx="19.206" cy="12.865" rx="1.167" ry="2.261"/>
<path fill="#B4B4B4" d="M16,23.105c-7.229,0-11.128-4.303-12.809-6.866L3.034,16l0.157-0.24C5.63,12.039,11.496,8.895,16,8.895
	s10.37,3.144,12.81,6.865L28.966,16l-0.156,0.24C26.369,19.961,20.504,23.105,16,23.105L16,23.105z M4.085,16.002
	C5.75,18.438,9.404,22.23,16,22.23c4.077,0,9.557-2.886,11.914-6.23C25.557,12.654,20.078,9.77,16,9.77
	C11.921,9.77,6.441,12.655,4.085,16.002L4.085,16.002z"/>
</svg>
