<svg xmlns="http://www.w3.org/2000/svg" width="32" height="32" viewBox="0 0 32 32">
  <path fill="#3B5998" d="M32 29a3 3 0 0 1-3 3H3a3 3 0 0 1-3-3V3a3 3 0 0 1 3-3h26a3 3 0 0 1 3 3v26z"/>
  <path fill="#EAEEF4" d="M0 23v6a3 3 0 0 0 3 3h26a3 3 0 0 0 3-3v-6H0z"/>
  <g>
    <path fill="#FFF" d="M12.115 30h4.03V17.906h5.035v-3.99h-5.035v-3.063c0-1.09.69-2.011 1.512-2.011h3.523V4.87h-3.523c-3.057 0-5.542 2.705-5.542 6.03v3.016h-4.03v3.99h4.029L12.115 30z"/>
    <path fill="#3B5998" d="M21.182 4.87v3.973h-3.523c-.82 0-1.514.921-1.514 2.011v3.063h5.037v3.99h-5.037V30h-4.028V17.906h-4.03v-3.99h4.029V10.9c0-3.325 2.484-6.03 5.542-6.03h3.524m1-1h-4.523c-3.608 0-6.542 3.153-6.542 7.03v2.016h-4.03v5.99h4.029V31h6.028V18.906h5.037v-5.99h-5.037v-2.063c0-.629.293-1.011 1.043-1.011h3.994l.001-5.972z"/>
  </g>
</svg>