<?xml version="1.0" encoding="utf-8"?>
<!-- Generator: Adobe Illustrator 14.0.0, SVG Export Plug-In . SVG Version: 6.00 Build 43363)  -->
<!DOCTYPE svg PUBLIC "-//W3C//DTD SVG 1.1//EN" "http://www.w3.org/Graphics/SVG/1.1/DTD/svg11.dtd">
<svg version="1.1" id="Layer_1" xmlns="http://www.w3.org/2000/svg" xmlns:xlink="http://www.w3.org/1999/xlink" x="0px" y="0px"
	 width="32px" height="32px" viewBox="0 0 32 32" enable-background="new 0 0 32 32" xml:space="preserve">
<g>
	<path fill="#2173BB" d="M31.492,15.74c0,8.369-6.785,15.154-15.155,15.154c-8.371,0-15.154-6.785-15.154-15.155
		c0-8.369,6.784-15.158,15.154-15.158c8.369,0,15.155,6.783,15.155,15.152V15.74z"/>
	<path opacity="0.3" enable-background="new    " d="M16.635,22.553c0.692-0.12,1.703-0.338,2.553-0.329
		c0,0.368,0.38,0.198,1.448,0.227c1.31-0.319-0.41,1.238-0.458,1.307c-0.28-0.007-2.579,0.261-2.859,0.261
		c-0.143-0.011-0.271-0.099-0.304,0c-0.775-0.11-1.377-0.4-2.01-0.65c0.175-0.197,0.46-0.36,0.87-0.229
		c0.332-0.205,0.152-0.485,0.759-0.591L16.635,22.553z"/>
	<path fill="#E24406" d="M3.764,3.218c0,0-0.098,1.847,1.834,3.164l-0.96,2.01L1.933,9.07c0,0,0.027-4.759,1.831-5.845V3.218z"/>
	<path fill="#F07B14" d="M31.644,11.663c0,0-0.159,1.106-0.439,1.688c0.095,1.029,0.138,1.709-0.008,2.689
		c-0.36,0.534-0.717,0.815-0.976,1.037c0.029-0.481,0.026-0.402,0.334-1.431c0.272-0.918,1.969-7.054-2.42-10.693
		c0,0,0.036,0.259,0.021,0.482c0,0-0.444-1.112-2.27-1.952c-0.118-0.055,0.08,0.342,0.142,0.658c0.294,0.273,3.492,3.421,3.62,5.045
		c-0.473-0.783-1.547-2.874-3.649-4.502c-1.6-1.233-2.597-1.66-4.576-2.341c0,0,1.01,0.62,2.039,1.54
		c1.181,1.04,2.42,2.51,2.75,3.419c0,0-1.689-1.59-3.05-1.656c0,0,3.576,2.13,3.208,7.952c0,0-0.347-1.237-1.229-1.61
		c0,0,0.677,3.367-0.141,6.492c0,0-0.18-0.5-0.443-1.141c0,0-0.146,1.695-0.65,2.86c-0.84,1.95-2.235,3.399-2.13,1.963
		c-0.676,0.219-1.642,1.579-1.992,1.576c0.1-0.296,0.135-0.295,0.38-0.64c0,0-0.773,0.726-2.83,0.726
		c-1.169,0-2.211-0.267-3.123-0.715c-0.196-0.096-0.935-0.546-1.108-0.673c-0.46-0.335-0.88-0.72-1.256-1.134
		c0.417,0.064,0.91,0.095,1.49,0.065c2.33-0.112,4.337-1.826,4.529-1.979c0.324-0.25,0.71-0.104,1.05-0.11
		c0.337-0.01,0.689-0.44,0.326-0.897c-0.95-1.21-2.32-1.02-2.32-1.02c-1.435-0.072-2.062,1.06-3.801,0.788
		c-2.64-0.41-3.043-1.982-3.088-2.799c0.125-1.187,0.99-1.384,2.045-0.527c0.167-1.251,0.157-1.585,0.025-2.195
		c0.89-0.734,2.268-1.397,2.795-1.777c0.313-0.226,1.335-1.719,0.363-1.92c-1.029-0.215-1.297-0.009-2.879-0.152
		c-0.4-0.021-0.7-0.497-1.149-1.038c0.276-1.155,0.89-2.51,2.229-3.304c0,0-1.97-0.613-4.43,1.837
		c-0.01-0.002-0.02-0.005-0.028-0.008C7.375,5.886,5.747,6.163,5.329,6.344C4.093,6.874,0.84,8.527,0,14.488
		c0,0,0.16-0.828,0.795-1.387c0,0-0.795,2.673-0.5,5.429c0.047-0.445,0.18-1.01,0.285-1.425c0.282,3.18,1.755,7.546,5.789,10.633
		c1.353,1.029,3.819,2.899,7.109,3.531c-0.507-0.26-0.713-0.356-1.072-0.692c0.59,0.254,3.124,0.816,4.587,0.834
		c0,0-0.615-0.24-0.79-0.453c0.324-0.01,2.118,0.12,3.375-0.06c1.396-0.2,2.755-0.324,4.639-1.45c0.671-0.4,1.503-1.139,1.854-1.969
		c1.025-0.95,2.855-1.756,3.755-3.314c0.561-0.972,1.118-2.259,0.69-3.679c1.17-2.64,1.983-5.055,1.128-8.825L31.644,11.663z
		 M23.533,28.971c-0.685,0.417-1.609,0.417-1.495,0.315c0.257-0.229,0.819-0.56,1.504-0.858c0.99-0.44,1.32-0.421,1.5-0.471
		c-0.25,0.197-0.5,0.4-1.503,1.009L23.533,28.971z M28.813,23.925c-0.533,0.36-0.89,0.578-1.212,0.688
		c0.205-0.437,0.788-1.218,1.445-2.065c0.95-1.223,1.051-1.411,1.244-1.604C29.993,21.957,29.362,22.979,28.813,23.925z
		 M31.644,11.663c0,0-0.159,1.106-0.439,1.688c0.095,1.029,0.138,1.709-0.008,2.689c-0.36,0.534-0.717,0.815-0.976,1.037
		c0.029-0.481,0.026-0.402,0.334-1.431c0.272-0.918,1.969-7.054-2.42-10.693c0,0,0.036,0.259,0.021,0.482
		c0,0-0.444-1.112-2.27-1.952c-0.118-0.055,0.08,0.342,0.142,0.658c0.294,0.273,3.492,3.421,3.62,5.045
		c-0.473-0.783-1.547-2.874-3.649-4.502c-1.6-1.233-2.597-1.66-4.576-2.341c0,0,1.01,0.62,2.039,1.54
		c1.181,1.04,2.42,2.51,2.75,3.419c0,0-1.689-1.59-3.05-1.656c0,0,3.576,2.13,3.208,7.952c0,0-0.347-1.237-1.229-1.61
		c0,0,0.677,3.367-0.141,6.492c0,0-0.18-0.5-0.443-1.141c0,0-0.146,1.695-0.65,2.86c-0.84,1.95-2.235,3.399-2.13,1.963
		c-0.676,0.219-1.642,1.579-1.992,1.576c0.1-0.296,0.135-0.295,0.38-0.64c0,0-0.773,0.726-2.83,0.726
		c-1.169,0-2.211-0.267-3.123-0.715c-0.197-0.096-1.29-0.811-1.378-0.879c-0.354-0.283-0.683-0.597-0.986-0.931
		c0.417,0.066,0.91,0.097,1.49,0.067c2.33-0.112,4.337-1.826,4.529-1.979c0.324-0.25,0.71-0.104,1.05-0.11
		c0.337-0.01,0.689-0.44,0.326-0.897c-0.95-1.21-2.32-1.02-2.32-1.02c-1.435-0.073-2.062,1.06-3.801,0.787
		c-2.64-0.408-3.043-1.981-3.088-2.797c0.125-1.187,0.99-1.384,2.045-0.527c0.167-1.251,0.157-1.585,0.025-2.195
		c0.89-0.734,2.268-1.397,2.795-1.777c0.313-0.226,1.335-1.719,0.363-1.92c-1.029-0.215-1.297-0.009-2.879-0.152
		c-0.4-0.021-0.7-0.497-1.149-1.038c0.276-1.155,0.89-2.51,2.229-3.304c0,0-1.97-0.613-4.43,1.837
		c-0.01-0.002-0.02-0.005-0.028-0.008C7.375,5.886,5.747,6.163,5.329,6.344C4.093,6.874,0.84,8.527,0,14.488
		c0,0,0.16-0.828,0.795-1.387c0,0-0.795,2.673-0.5,5.429c0.047-0.445,0.18-1.01,0.285-1.425c0.282,3.18,1.755,7.546,5.789,10.633
		c1.353,1.029,3.819,2.899,7.109,3.531c-0.507-0.26-0.713-0.356-1.072-0.692c0.59,0.254,3.124,0.816,4.587,0.834
		c0,0-0.615-0.24-0.79-0.453c0.324-0.01,2.118,0.12,3.375-0.06c1.396-0.2,2.755-0.324,4.639-1.45c0.671-0.4,1.503-1.139,1.854-1.969
		c1.025-0.95,2.855-1.756,3.755-3.314c0.561-0.972,1.118-2.259,0.69-3.679c1.17-2.64,1.983-5.055,1.128-8.825L31.644,11.663z
		 M23.533,28.971c-0.685,0.417-1.609,0.417-1.495,0.315c0.257-0.229,0.819-0.56,1.504-0.858c0.99-0.44,1.32-0.421,1.5-0.471
		c-0.25,0.197-0.5,0.4-1.503,1.009L23.533,28.971z M28.813,23.925c-0.533,0.36-0.89,0.578-1.212,0.688
		c0.205-0.437,0.788-1.218,1.445-2.065c0.95-1.223,1.051-1.411,1.244-1.604C29.993,21.957,29.362,22.979,28.813,23.925z"/>
	<path fill="#E24406" d="M31.25,16.057c0.117-0.226,1.06-2.023,0.343-4.085c-0.069,0.369-0.202,0.989-0.39,1.38
		c0.08,0.888,0.124,1.516,0.042,2.29c0.003,0.149,0.004,0.29,0.004,0.42L31.25,16.057z M28.15,5.102
		c0.003,0.033,0.005,0.069,0.008,0.111c0.122,0.41,0.14,0.754,0.193,1.265c0.27,0.435,0.55,0.934,0.81,1.427
		c0.101,0.17,0.19,0.335,0.26,0.495c0.12,0.229,0.23,0.452,0.33,0.657C29.762,8.795,29.831,6.662,28.15,5.102L28.15,5.102z
		 M25.854,3.488c0,0,0,0.003-0.002,0.005c0.181,0.29,0.276,0.55,0.377,0.85c0.38,0.383,1.21,1.232,1.95,2.165
		c-0.17-0.649-0.71-2.076-2.33-3.012L25.854,3.488z M30.58,21.85c0.03-0.213,0.057-0.466,0.068-0.69
		c-0.021-0.194-0.057-0.392-0.11-0.592c-0.02,0.018-0.04,0.048-0.065,0.093c-0.072,0.13-0.144,0.26-0.217,0.398
		c-0.31,0.979-0.913,1.961-1.443,2.872c-0.024,0.018-0.05,0.033-0.076,0.05c0.59-0.24,1.75-1.467,1.845-2.126L30.58,21.85z
		 M12.386,8.778c-0.403-0.021-0.697-0.497-1.146-1.038c0,0-0.762,1.089-0.37,6.202c0.313-0.336,0.646-0.63,0.961-0.968
		c0.61-0.99,2.13-1.457,3.069-2.13c0.312-0.226,1.334-1.72,0.362-1.92c-1.029-0.214-1.292-0.008-2.877-0.152L12.386,8.778z
		 M9.839,18.209c-0.195-1.149-0.33-3.783,1.043-3.943c-0.4-0.165-2.899-0.91-3.149-0.674c-0.428,0.41-2.14,2.195-2.14,4.697
		c0.557-0.925,2.85-2.601,4.24-0.078L9.839,18.209z"/>
	<path fill="#FFFFFF" d="M10.877,11.548c0,0,0.723-0.748,1.47-0.903c0.51-0.107,1.11,0.248,1.606,0.098
		c0.625-0.188,1.119-0.65,1.399-0.88l-0.057,0.538c-0.127,0.146-0.306,0.51-1.056,0.885c-0.643,0.322-1.496,0.707-2.245,1.48
		C11.995,12.766,11.269,12.21,10.877,11.548z"/>
	<path fill="#F07B14" d="M12.149,12.55c0.33,0.347,0.21,1.526-0.07,2.273c-1.12-0.747-3.521-0.875-5.405-0.18l4.58-7.027
		C10.565,10.512,11.305,11.548,12.149,12.55z"/>
	<path fill="#231F20" d="M14.431,8.842c0,0,0.775-0.06,1.062,0.171c0.114,0.093,0.54,0.46-0.195,1.388
		C15.297,10.401,15.558,9.443,14.431,8.842z"/>
	<path fill="#E24406" d="M9.928,18.199c-0.044,0.635,0.95,2.678,1.91,3.1c0.625,0.273,2.854,0.095,3.899-0.436
		c1.145-0.578,2-1.334,2.176-1.57c-1.1,0.246-1.51,0.62-3.899,0.684c-3.192,0.09-4.08-1.777-4.08-1.777H9.928z"/>
	<path fill="#FFFFFF" d="M15.413,17.882c1.448-0.196,2.634,0.73,2.826,1.018c-0.01-0.095-0.01-0.168-0.035-0.264
		c0.09,0.017,0.18,0.047,0.49,0.407c0.01-0.14-0.021-0.234-0.15-0.466c0.278,0.148,0.46,0.55,0.505,0.538
		c0-0.257-0.033-0.479,0.006-0.5c0.066-0.035,0.228,0.252,0.258,0.146c0,0-0.977-2.185-3.894-0.881L15.413,17.882z"/>
	<path fill="#E24406" d="M25.211,27.668c3.136-1.884,3.896-3.597,4.153-4.18c0,0-6.913,5.119-12.19,5.119
		c-4.397,0-7.375-1.679-8.519-2.444c-2.324-1.558-3.729-4.364-4.454-6.36c-0.13,1,0.177,1.897,0.824,3.509
		c-1.38-1.249-2.49-4.879-2.813-6.985c-0.43,1.897,0.22,3.982,0.8,5.375c-1.193-1.108-2.159-5.385-2.191-6.757
		c-0.23,0.66-0.36,2.141-0.42,2.99c0.057-0.292,0.126-0.586,0.19-0.828c0.28,3.18,1.754,7.546,5.789,10.633
		c1.352,1.034,3.819,2.899,7.109,3.537c-0.508-0.26-0.714-0.356-1.073-0.692c0.587,0.254,3.122,0.814,4.586,0.834
		c0,0-0.617-0.239-0.79-0.458c0.322-0.013,2.116,0.118,3.374-0.06c1.396-0.2,2.756-0.326,4.64-1.45
		c0.665-0.396,1.489-1.127,1.846-1.952c-0.313,0.311-0.642,0.326-1.119,0.48c-0.253,0.195-0.407,0.38-1.41,0.988
		c-0.687,0.416-1.611,0.416-1.499,0.315c0,0,0,0,0-0.002c-0.25,0.047-0.29-0.949,3.175-1.616L25.211,27.668z"/>
	<path fill="#FEE750" d="M25.574,4.126c-0.021-0.018-0.044-0.035-0.065-0.053C25.53,4.091,25.553,4.109,25.574,4.126z M25.721,4.251
		c-0.02-0.018-0.042-0.035-0.063-0.053C25.678,4.216,25.701,4.234,25.721,4.251z M25.871,4.381c-0.021-0.016-0.04-0.029-0.058-0.048
		c0.019,0.017,0.038,0.032,0.057,0.05L25.871,4.381z M25.431,4.008c-0.021-0.018-0.045-0.034-0.066-0.052
		C25.386,3.973,25.408,3.991,25.431,4.008L25.431,4.008z M25.147,3.789c-0.022-0.017-0.043-0.032-0.065-0.048
		c0.03,0.01,0.05,0.03,0.07,0.04L25.147,3.789z M25.287,3.896c-0.02-0.018-0.044-0.035-0.064-0.051
		c0.026,0.016,0.05,0.034,0.069,0.051H25.287z M26.05,4.545c-0.01-0.01-0.027-0.02-0.037-0.027c0.01,0.01,0.021,0.02,0.03,0.029
		L26.05,4.545z M29.079,8.157c-0.02-0.03-0.04-0.06-0.063-0.09C29.035,8.098,29.058,8.127,29.079,8.157L29.079,8.157z M28.625,7.52
		c0.025,0.035,0.05,0.069,0.077,0.104C28.676,7.59,28.65,7.555,28.625,7.52z M28.438,7.266c0.025,0.034,0.054,0.069,0.08,0.105
		C28.493,7.336,28.469,7.301,28.438,7.266z M28.256,7.023c0.028,0.034,0.054,0.066,0.08,0.102c-0.026-0.034-0.05-0.067-0.078-0.102
		H28.256z M25.004,3.684c-0.02-0.016-0.04-0.03-0.062-0.044C24.962,3.655,24.982,3.669,25.004,3.684L25.004,3.684z M26.228,4.717
		c-0.02-0.02-0.04-0.04-0.06-0.057c0.02,0.012,0.04,0.032,0.06,0.05V4.717z M26.552,5.036c-0.024-0.021-0.047-0.047-0.07-0.07
		C26.505,4.989,26.526,5.013,26.552,5.036z M28.817,7.785c0.027,0.033,0.05,0.066,0.077,0.104c-0.025-0.037-0.05-0.07-0.074-0.104
		L28.817,7.785z M24.718,3.486c-0.013-0.01-0.029-0.022-0.045-0.033c0.016,0.018,0.032,0.028,0.049,0.038L24.718,3.486z
		 M23.704,2.911c-0.016-0.01-0.033-0.02-0.05-0.03c0.017,0.009,0.034,0.017,0.05,0.024V2.911z M23.439,2.791
		c-0.016-0.007-0.03-0.01-0.046-0.018C23.409,2.779,23.425,2.783,23.439,2.791L23.439,2.791z M23.819,2.96
		c-0.017-0.01-0.034-0.02-0.052-0.026c0.018,0.007,0.037,0.017,0.054,0.025L23.819,2.96z M23.335,2.75
		c-0.016-0.007-0.032-0.014-0.05-0.02C23.303,2.737,23.319,2.744,23.335,2.75z M23.938,3.016c-0.021-0.011-0.04-0.021-0.061-0.027
		c0.021,0.01,0.04,0.017,0.058,0.026L23.938,3.016z M24.868,3.579c-0.02-0.014-0.04-0.026-0.06-0.04
		c0.02,0.013,0.04,0.026,0.057,0.04H24.868z M24.551,3.369c-0.02-0.01-0.034-0.023-0.053-0.034c0.018,0.01,0.034,0.021,0.053,0.032
		V3.369z M24.424,3.289c-0.02-0.013-0.04-0.022-0.058-0.034C24.386,3.265,24.403,3.275,24.424,3.289L24.424,3.289z M28.079,6.782
		c0.027,0.032,0.05,0.065,0.076,0.097c-0.023-0.029-0.05-0.064-0.074-0.097H28.079z M24.299,3.212c-0.02-0.01-0.04-0.02-0.06-0.031
		C24.259,3.191,24.279,3.203,24.299,3.212L24.299,3.212z M24.18,3.143c-0.021-0.011-0.04-0.021-0.061-0.032
		C24.14,3.123,24.159,3.13,24.18,3.143z M24.06,3.078c-0.021-0.01-0.04-0.02-0.061-0.03c0.018,0.011,0.037,0.021,0.057,0.03H24.06z
		 M23.589,2.85c-0.018-0.009-0.033-0.016-0.05-0.021c0.017,0.006,0.03,0.012,0.048,0.021H23.589z M22.12,2.459
		c0.01,0,0.02,0.004,0.029,0.005c-0.01,0-0.02-0.004-0.032-0.005H22.12z M22.189,2.467c0.013,0,0.022,0.005,0.036,0.006
		C22.212,2.47,22.201,2.468,22.189,2.467L22.189,2.467z M22.05,2.458c0.01,0,0.02,0,0.032,0.002c-0.011,0-0.021-0.002-0.03-0.003
		L22.05,2.458z M22.501,2.514c0.017,0,0.026,0.004,0.04,0.006C22.527,2.518,22.518,2.515,22.501,2.514L22.501,2.514z M22.266,2.476
		c0.01,0,0.023,0.002,0.035,0.004c-0.014-0.003-0.027-0.006-0.037-0.007L22.266,2.476z M22.421,2.496
		c0.011,0.003,0.022,0.006,0.035,0.008c-0.013-0.003-0.024-0.006-0.037-0.008H22.421z M21.981,2.449c0.011,0,0.021,0.002,0.03,0.002
		C22.002,2.451,21.992,2.451,21.981,2.449L21.981,2.449z M22.338,2.485c0.013,0,0.025,0.003,0.037,0.004
		C22.363,2.489,22.351,2.486,22.338,2.485L22.338,2.485z M21.693,2.441c-0.024,0-0.05,0-0.071,0c0.023,0,0.05,0,0.073,0H21.693z
		 M21.424,2.444c-0.008,0-0.013,0-0.021,0c0.006,0,0.011,0,0.016,0c0,0,0,0,0.003,0H21.424z M21.554,2.444
		c0.02-0.003,0.038-0.003,0.057-0.003c-0.017,0-0.037,0-0.055,0.003H21.554z M21.909,2.444c0.013,0,0.023,0,0.036,0.003
		c-0.012,0-0.023,0-0.038-0.003H21.909z M21.829,2.442c0.01,0,0.02,0,0.029,0C21.849,2.442,21.839,2.442,21.829,2.442z
		 M21.769,2.442c0.01,0,0.021,0,0.03,0C21.789,2.442,21.778,2.442,21.769,2.442z M21.712,2.442c0.014,0,0.02,0,0.03,0
		C21.731,2.442,21.726,2.442,21.712,2.442z M22.798,2.574c0.015,0.004,0.03,0.007,0.044,0.012
		C22.827,2.581,22.813,2.578,22.798,2.574z M27.145,5.653c0.021,0.026,0.045,0.05,0.067,0.076c-0.022-0.022-0.045-0.05-0.066-0.072
		L27.145,5.653z M26.975,5.463c0.022,0.027,0.046,0.054,0.07,0.078C27.02,5.517,26.997,5.491,26.975,5.463L26.975,5.463z
		 M26.807,5.287c0.021,0.022,0.05,0.05,0.07,0.073c-0.024-0.027-0.05-0.05-0.072-0.076L26.807,5.287z M22.621,2.532
		c0.012,0,0.024,0.005,0.036,0.007C22.647,2.539,22.633,2.533,22.621,2.532L22.621,2.532z M27.325,5.856
		c0.02,0.02,0.037,0.042,0.06,0.063C27.364,5.898,27.345,5.875,27.325,5.856L27.325,5.856z M27.728,6.331
		c0.021,0.023,0.04,0.05,0.061,0.073C27.768,6.379,27.748,6.354,27.728,6.331L27.728,6.331z M26.647,5.113
		c0.022,0.022,0.047,0.05,0.07,0.072C26.693,5.162,26.67,5.138,26.647,5.113z M27.554,6.12c0.003,0.005,0.01,0.01,0.012,0.018
		c-0.003-0.005-0.01-0.011-0.012-0.016V6.12z M27.903,6.547c0.021,0.03,0.047,0.061,0.07,0.091
		C27.95,6.607,27.924,6.577,27.903,6.547z M22.709,2.547c0.01,0.005,0.024,0.009,0.04,0.011C22.733,2.556,22.719,2.552,22.709,2.547
		z M22.89,2.595c0.015,0.005,0.029,0.009,0.046,0.014C22.92,2.603,22.905,2.599,22.89,2.595L22.89,2.595z M23.079,2.653
		c0.021,0.005,0.034,0.01,0.05,0.017C23.113,2.664,23.1,2.66,23.079,2.653z M22.983,2.623c0.015,0.004,0.03,0.01,0.046,0.016
		C23.016,2.631,22.999,2.627,22.983,2.623z M23.18,2.686c0.017,0.005,0.034,0.01,0.05,0.017C23.214,2.696,23.195,2.691,23.18,2.686
		L23.18,2.686z M26.389,4.859c-0.02-0.023-0.04-0.044-0.063-0.065c0.021,0.021,0.044,0.04,0.064,0.063L26.389,4.859z M30.318,9.018
		c-0.061-0.21-0.126-0.41-0.197-0.598c0.05,0.91-0.133,2.061-0.76,3.566c0.295,1.203,0.53,2.38,0.76,3.703
		c0.66-2.6,0.73-4.837,0.198-6.673L30.318,9.018z M26.093,13.917c-0.063-0.138-0.123-0.274-0.187-0.42
		c-0.111-0.26-0.224-0.523-0.356-0.77c0.113,1.275,0.17,3.353-0.458,5.662c0.136,0.64,0.048,1.286-0.029,1.862
		c-0.063,0.456-0.135,0.978,0,1.132c0.017,0.021,0.04,0.032,0.066,0.046c0.77-1.048,1.193-2.265,1.43-3.297
		c0.145-1.639-0.004-3.216-0.47-4.219L26.093,13.917z M31.662,16.097c-0.274,0.489-0.689,0.963-1.32,1.347
		c-0.106,0.75-0.406,2.018-0.697,3.245c-0.059,0.238-0.112,0.47-0.165,0.696c1.359-1.891,1.899-3.586,2.105-4.761
		C31.615,16.444,31.643,16.266,31.662,16.097L31.662,16.097z M29.29,13.391c-0.147,1.574-0.345,2.684-1.295,5.049
		c0.363,1.79-1.112,5.686-1.591,6.629c1.487-1.05,2.464-2.743,2.907-5.036C29.771,17.667,29.569,15.176,29.29,13.391L29.29,13.391z
		 M27.015,16.999c-0.025,0.247-0.058,0.515-0.1,0.79c-0.19,1.2-0.641,2.903-1.71,4.271c0.526-0.382,0.279-0.24,0.845-0.801
		c0.56,0.78-0.65,4.279-0.628,4.256c1.26-1.595,2.916-5.979,1.59-8.518L27.015,16.999z M22.691,22.719
		c0.752-0.654,1.163-1.05,1.46-1.27s0.33,0.617,0.342,0.821c0.15-0.822,0.295-1.703,0.22-2.977
		c-0.004-0.085-0.021-0.172-0.035-0.264C24.421,20.127,23.711,21.659,22.691,22.719z M27.695,17.652c0,0,0.405-1.313,0.525-1.863
		h0.003c0.013-0.063,0.027-0.13,0.04-0.196c0.03-0.14,0.057-0.274,0.082-0.406c-0.052-0.059-0.104-0.117-0.152-0.175
		c-0.004-0.006-0.007-0.011-0.01-0.014c-0.046-0.06-0.092-0.118-0.136-0.17c-0.007-0.01-0.014-0.02-0.021-0.03
		c-0.04-0.054-0.08-0.105-0.119-0.159c-0.008-0.016-0.016-0.03-0.025-0.04c-0.035-0.051-0.068-0.101-0.103-0.15
		c-0.013-0.019-0.023-0.04-0.036-0.059c-0.027-0.048-0.058-0.091-0.084-0.141c-0.021-0.026-0.037-0.054-0.051-0.082
		c-0.02-0.04-0.046-0.08-0.066-0.117c-0.021-0.04-0.038-0.075-0.058-0.114c-0.015-0.03-0.029-0.061-0.044-0.09
		c-0.032-0.07-0.063-0.141-0.09-0.211c-0.015,0.064-0.025,0.131-0.037,0.197c-0.004,0.018-0.008,0.035-0.01,0.053
		c0,0.008,0,0.015,0,0.021c-0.005,0.012-0.007,0.025-0.01,0.038c0,0.008,0,0.016-0.002,0.021c-0.004,0.015-0.005,0.027-0.006,0.042
		c0,0.007-0.003,0.015-0.006,0.021c0,0.015-0.002,0.03-0.004,0.046c0,0.007,0,0.015-0.003,0.02c0,0.022-0.002,0.04-0.003,0.061
		c-0.003,0.005-0.003,0.01-0.004,0.014c-0.002,0.028-0.004,0.05-0.006,0.08c0,0.005,0,0.01,0,0.017
		c-0.004,0.02-0.006,0.042-0.007,0.063c0,0.006,0,0.016,0,0.024c-0.004,0.02-0.006,0.038-0.007,0.058c0,0.01,0,0.021-0.002,0.03
		c0,0.02,0,0.04,0,0.058c0,0.01-0.004,0.021-0.004,0.03c0,0.02,0,0.044-0.003,0.065c0,0.009,0,0.017,0,0.024
		c-0.002,0.03-0.003,0.06-0.006,0.092c0,0.002,0,0.003,0,0.005c0,0.03-0.002,0.061-0.002,0.091c0,0.01,0,0.02,0,0.031
		c-0.002,0.021-0.002,0.04-0.003,0.061c0,0.016,0,0.027,0,0.04c0,0.02,0,0.043,0,0.063c0,0.014,0,0.026,0,0.04
		c0,0.021,0,0.043,0,0.065c0,0.01,0,0.022,0,0.035c0,0.026,0,0.054,0,0.082c0,0.008,0,0.016,0,0.022
		c-0.004,0.036-0.004,0.07,0,0.106c0,0.01,0,0.02,0,0.032c0,0.022,0,0.048,0,0.07c0,0.016,0,0.03,0,0.044c0,0.021,0,0.045,0,0.066
		c0,0.015,0,0.029,0,0.045c0,0.02,0,0.043,0,0.063c0.002,0.015,0.002,0.03,0.003,0.045c0,0.024,0,0.049,0,0.07
		c0.002,0.013,0.002,0.026,0.002,0.04c0,0.035,0.002,0.07,0.005,0.108c0,0.01,0,0.02,0,0.031c0.005,0.025,0.006,0.051,0.007,0.078
		c0,0.016,0,0.03,0,0.044c0.002,0.021,0.003,0.044,0.004,0.066c0,0.016,0,0.03,0,0.047c0,0.021,0.004,0.043,0.004,0.064
		c0.003,0.017,0.003,0.029,0.004,0.05c0,0.02,0.002,0.04,0.004,0.063c0,0.017,0,0.03,0,0.047c0.003,0.024,0.006,0.051,0.007,0.074
		c0,0.013,0,0.023,0,0.035c0.05,0.156,0.374,0.96,0.416,1.11L27.695,17.652z M26.882,14.193c0-0.003,0.007-0.01,0.007-0.015
		c0.002-0.023,0.004-0.048,0.007-0.07c0-0.01,0-0.023,0.003-0.037c0.002-0.012,0.005-0.03,0.006-0.05
		c0-0.016,0.004-0.03,0.007-0.044c0-0.015,0-0.028,0.003-0.042c0-0.021,0.004-0.034,0.006-0.054c0-0.01,0.002-0.02,0.004-0.029
		c0.006-0.025,0.01-0.051,0.01-0.074c0.08-0.443,0.18-0.875,0.564-1.24c0,0,0,0,0,0.004s0,0.003,0,0.007c0,0.002,0,0.003,0,0.007
		c0,0.003,0,0.006,0,0.01c0.002,0.003,0.002,0.007,0.002,0.01c0,0.005,0,0.01,0,0.014s0,0.009,0,0.011c0,0.008,0,0.014,0,0.02
		c0,0.004,0.004,0.01,0.004,0.013c0,0.009,0,0.017,0,0.023c0,0.005,0,0.01,0.003,0.015c0,0.013,0.002,0.024,0.005,0.038
		c0,0.002,0,0.006,0,0.008c0.002,0.017,0.004,0.03,0.007,0.046c0,0.003,0,0.01,0,0.015c0.003,0.01,0.004,0.022,0.007,0.034
		c0.002,0.01,0.003,0.016,0.004,0.022c0.005,0.013,0.007,0.023,0.009,0.035c0,0.01,0.004,0.016,0.005,0.024
		c0.004,0.014,0.008,0.024,0.01,0.038c0,0.01,0.004,0.02,0.007,0.026c0.002,0.01,0.007,0.024,0.01,0.04
		c0,0.01,0.003,0.021,0.008,0.03c0.002,0.012,0.007,0.03,0.01,0.044c0.004,0.01,0.006,0.02,0.008,0.028
		c0.007,0.022,0.014,0.047,0.02,0.069c0.003,0.006,0.005,0.011,0.005,0.016c0.007,0.022,0.015,0.048,0.021,0.072
		c0,0.011,0.005,0.021,0.01,0.03c0.005,0.017,0.011,0.035,0.021,0.053c0.002,0.014,0.006,0.024,0.01,0.036
		c0.008,0.021,0.015,0.035,0.021,0.054c0.007,0.013,0.01,0.025,0.016,0.039c0.01,0.021,0.017,0.035,0.022,0.054
		c0.007,0.014,0.011,0.026,0.018,0.042c0.007,0.017,0.016,0.035,0.022,0.055c0.008,0.014,0.015,0.027,0.021,0.04
		c0.01,0.021,0.02,0.043,0.03,0.065c0.005,0.01,0.01,0.021,0.017,0.034c0.016,0.032,0.032,0.064,0.05,0.098
		c0,0.005,0.005,0.01,0.007,0.014c0.017,0.03,0.032,0.065,0.051,0.097c0.007,0.014,0.015,0.025,0.02,0.038
		c0.015,0.021,0.028,0.044,0.04,0.07c0.01,0.012,0.021,0.026,0.028,0.04c0.013,0.02,0.024,0.044,0.04,0.065
		c0.01,0.015,0.02,0.029,0.029,0.046c0.013,0.02,0.027,0.043,0.04,0.064c0.013,0.019,0.023,0.03,0.033,0.05
		c0.017,0.021,0.03,0.046,0.048,0.07c0.011,0.013,0.021,0.03,0.03,0.043c0.021,0.022,0.04,0.05,0.06,0.073
		c0.011,0.013,0.021,0.026,0.03,0.04c0.03,0.038,0.29,0.313,0.29,0.313c0.232-0.966,0.328-1.824-0.17-3.479l0.17,0.37l-0.006-0.008
		c-1.034-2.283-2.164-3.93-3.359-4.89c-0.105-0.087-0.21-0.164-0.311-0.233c0.875,1.145,1.74,3.192,1.795,7.328
		c0.03,0.15,0.065,0.33,0.1,0.53c0.005-0.109,0.013-0.212,0.021-0.309V14.193z M29.512,10.667c-0.03-1.094-0.242-1.582-0.551-1.998
		l-0.003-0.01l-0.005-0.01c-1.635-2.414-3.223-4.103-4.719-5.02c-0.346-0.21-0.665-0.366-0.955-0.481
		c0.62,0.47,1.337,1.1,2.043,1.929c0.807,0.943,1.229,1.896,1.699,2.985c0.313,0.716,0.534,0.889,0.774,1.292
		c1.188,1.813,1.199,2.583,1.229,2.711c0.16-0.498,0.346-0.98,0.488-1.407L29.512,10.667z M26.242,25.525
		c0.976-0.203,1.109,0.042,0.894,0.354c-0.263,0.381-0.89,1.104-1.917,1.788c1.93-0.83,3.397-2.592,4.153-4.182
		C28.656,24.063,27.353,24.927,26.242,25.525L26.242,25.525z"/>
</g>
</svg>
