<?xml version="1.0" encoding="utf-8"?>
<!-- Generator: Adobe Illustrator 14.0.0, SVG Export Plug-In . SVG Version: 6.00 Build 43363)  -->
<!DOCTYPE svg PUBLIC "-//W3C//DTD SVG 1.1//EN" "http://www.w3.org/Graphics/SVG/1.1/DTD/svg11.dtd">
<svg version="1.1" id="Layer_1" xmlns="http://www.w3.org/2000/svg" xmlns:xlink="http://www.w3.org/1999/xlink" x="0px" y="0px"
	 width="32px" height="32px" viewBox="0 0 32 32" enable-background="new 0 0 32 32" xml:space="preserve">
<g>
	<path fill="#FFFFFF" d="M2.438,5.063h7.256l3.5,3.5h11.119v2.625H5.15L2.438,23.39V5.063z"/>
	<path fill="#C8C8C8" d="M9.513,5.5l3.244,3.244L13.013,9h10.862v1.75H4.798l-0.152,0.686l-1.771,7.971V5.5H9.513 M9.875,4.625H2
		v22.75l3.5-15.75h19.25v-3.5H13.375L9.875,4.625z"/>
	<path fill="#FFFFFF" d="M2.632,26.938l4.922-13.125h21.813l-4.922,13.125H2.632z"/>
	<path fill="#C8C8C8" d="M28.737,14.25L24.144,26.5H3.263l4.594-12.25H28.737 M30,13.375H7.25l-5.25,14h22.75L30,13.375z"/>
</g>
</svg>
