<?xml version="1.0" encoding="utf-8"?>
<!-- Generator: Adobe Illustrator 14.0.0, SVG Export Plug-In . SVG Version: 6.00 Build 43363)  -->
<!DOCTYPE svg PUBLIC "-//W3C//DTD SVG 1.1//EN" "http://www.w3.org/Graphics/SVG/1.1/DTD/svg11.dtd">
<svg version="1.1" id="Layer_1" xmlns="http://www.w3.org/2000/svg" xmlns:xlink="http://www.w3.org/1999/xlink" x="0px" y="0px"
	 width="32px" height="32px" viewBox="0 0 32 32" enable-background="new 0 0 32 32" xml:space="preserve">
<path fill="#FFFFFF" d="M32,18.295v-4.59l-4.123-0.61c-0.3-1.228-0.784-2.386-1.426-3.437l2.49-3.35l-3.244-3.243L22.35,5.547
	c-1.055-0.64-2.211-1.126-3.438-1.425L18.293,0h-4.588l-0.61,4.123c-1.23,0.3-2.387,0.784-3.44,1.425L6.31,3.065L3.064,6.31
	L5.55,9.656c-0.643,1.054-1.128,2.21-1.428,3.438L0,13.704v4.59l4.122,0.61c0.3,1.229,0.785,2.387,1.426,3.438l-2.484,3.35
	l3.246,3.242l3.346-2.481c1.054,0.64,2.21,1.126,3.44,1.425L13.706,32h4.59l0.608-4.123c1.229-0.3,2.387-0.784,3.439-1.426
	l3.348,2.49l3.25-3.244l-2.484-3.35c0.643-1.053,1.128-2.209,1.427-3.438l4.12-0.61L32,18.295z M16,20.287
	c-2.37,0-4.288-1.92-4.288-4.287c0-2.37,1.92-4.288,4.288-4.288s4.287,1.92,4.287,4.288S18.367,20.287,16,20.287z"/>
</svg>
