<?xml version="1.0" encoding="utf-8"?>
<!-- Generator: Adobe Illustrator 14.0.0, SVG Export Plug-In . SVG Version: 6.00 Build 43363)  -->
<!DOCTYPE svg PUBLIC "-//W3C//DTD SVG 1.1//EN" "http://www.w3.org/Graphics/SVG/1.1/DTD/svg11.dtd">
<svg version="1.1" id="Layer_1" xmlns="http://www.w3.org/2000/svg" xmlns:xlink="http://www.w3.org/1999/xlink" x="0px" y="0px"
	 width="32px" height="32px" viewBox="0 0 32 32" enable-background="new 0 0 32 32" xml:space="preserve">
<circle fill="#FFFFFF" cx="16" cy="16" r="16"/>
<path fill="#808080" d="M16,0C7.164,0,0,7.164,0,16c0,8.835,7.164,16,16,16c8.837,0,16-7.165,16-16C32,7.164,24.837,0,16,0z
	 M15.216,29.931c-0.252-0.014-0.498-0.033-0.745-0.062c0-2.32,0-5.383,0-5.961c0-0.788,0.395-1.366,0.395-1.366
	s0.352,0.578,0.352,1.366C15.217,24.394,15.217,27.565,15.216,29.931L15.216,29.931z M17.084,29.908
	c-0.247,0.021-0.497,0.032-0.747,0.038c0-2.351,0-5.681,0-6.285c0-0.789,0.393-1.367,0.393-1.367s0.354,0.579,0.354,1.367
	C17.084,24.163,17.084,27.523,17.084,29.908L17.084,29.908z M18.946,29.641c-0.244,0.054-0.495,0.101-0.743,0.141
	c0-2.31,0-5.3,0-5.872c0-0.779,0.393-1.36,0.393-1.36s0.353,0.581,0.353,1.367c0,0.467,0,3.406,0,5.733L18.946,29.641z
	 M20.317,29.271v-6.313c0-1.357-0.811-2.526-1.977-3.044h1.794c1.583,0,2.995-0.689,3.983-1.774c1.958,0.32,4.002,0.735,5.04,1.188
	l0.248-0.565c-1.032-0.445-2.951-0.851-4.835-1.171c0.031-0.045,0.063-0.087,0.092-0.132c1.806,0.148,3.607,0.37,4.587,0.696
	l0.194-0.586c-0.982-0.326-2.708-0.548-4.46-0.703c0.353-0.717,0.564-1.512,0.564-2.365v-1.646c0-1.474-0.588-2.811-1.542-3.785
	V5.186l-3.219,2.297C20.57,7.455,20.353,7.44,20.127,7.44h-7.222c-0.217,0-0.437,0.016-0.649,0.042L9.04,5.174v3.885
	c-0.954,0.977-1.543,2.313-1.543,3.786v1.646c0,0.813,0.194,1.589,0.519,2.277c-2.069,0.151-4.292,0.396-5.463,0.786l0.194,0.586
	c1.161-0.389,3.484-0.629,5.594-0.773c0.012,0.017,0.015,0.035,0.026,0.057c-2.156,0.336-4.574,0.803-5.782,1.326l0.247,0.563
	c1.207-0.522,3.767-0.995,5.97-1.333c0.994,1.166,2.454,1.922,4.103,1.922h2.166c-1.166,0.519-1.978,1.685-1.978,3.043v0.022
	c-0.156,0-0.426,0-0.972,0c-1.572,0-2.692-2.71-5.68-2.71c2.448,1.077,2.986,4.079,5.183,4.079c1.183,0,1.246,0,1.466,0v5.31
	C6.789,28.314,2.046,22.713,2.046,16C2.046,8.293,8.293,2.046,16,2.046c7.709,0,13.954,6.248,13.954,13.954
	c0,6.2-4.041,11.451-9.635,13.268L20.317,29.271z"/>
</svg>
