<svg xmlns="http://www.w3.org/2000/svg" width="32" height="32" viewBox="0 0 32 32"><path fill="#CF3E2B" d="M20.623 2H12.04C6.771 2 4.275 5.077 4.275 8.585c0 3.792 2.547 6.342 6.337 6.342.15 0 .307-.004.479-.01-.127.722-.096 1.202.025 1.872.057.316.4.945.885 1.445h-.584c-.246.006-.495.011-.757.011-4.928 0-8.229 3.396-8.229 6.566 0 3.008 3.099 5.188 8.262 5.188 4.979 0 9.269-3.758 9.269-6.673 0-2.4-1.098-4.142-2.96-5.481-1.859-1.34-2.319-1.727-2.319-2.355 0-.828.204-1.23 1.563-2.291 1.619-1.266 2.477-2.82 2.477-4.5 0-1.866-.404-3.698-2.678-5.289h2.896L20.623 2zm-3.284 21.995c0 2.724-2.015 3.979-6.103 3.979-3.174 0-5.632-1.736-5.632-4.145 0-2.299 2.493-4.197 5.827-4.197 2.823 0 5.909 2.483 5.909 4.358v.005zm-3.25-11.016c-.575.539-1.337.779-2.199.697l-.11-.013c-2.303-.292-4.111-2.65-4.208-5.483-.058-1.64.438-3.08 1.362-3.945.64-.601 1.425-.874 2.275-.792l.094.01c2.146.275 3.848 2.78 3.952 5.831.058 1.62-.356 2.934-1.166 3.692v.003zm12.23.667v-3.25h-1.87v3.25h-3.25v1.87h3.25v3.25h1.87v-3.25h3.25v-1.87h-3.25z"/></svg>