<svg xmlns="http://www.w3.org/2000/svg" width="32" height="32" viewBox="0 0 32 32">
  <path fill="#C8C8C8" d="M15.914 29.088c-.327 0-.47-.261-.565-.433-.112-.203-.322-.581-.825-1.146-.576-.645-2.075-1.954-3.273-2.86-3.701-2.795-4.18-3.18-5.687-4.567-2.853-2.626-4.068-5.279-4.064-8.871.002-1.747.132-2.473.634-3.53.848-1.785 2.094-3.104 3.701-3.921 1.109-.563 1.724-.834 3.59-.844h.131c1.874 0 2.368.271 3.45.866 1.248.685 2.481 1.993 3.019 3.137 1.242-2.478 3.756-4.005 6.624-4.005a7.89 7.89 0 0 1 7.09 4.364c.92 1.833 1.023 5.63.214 7.814-1.031 2.782-2.955 4.899-7.353 8.091-2.759 2.006-5.841 4.997-6.108 5.435-.099.195-.241.47-.578.47z"/>
  <path fill="#F00" d="M14.896 27.177c-.604-.675-2.107-1.99-3.344-2.926-3.664-2.768-4.162-3.167-5.65-4.537C3.161 17.19 1.996 14.651 2 11.212c.002-1.68.116-2.326.586-3.316.797-1.679 1.972-2.926 3.476-3.69 1.063-.54 1.588-.78 3.366-.79 1.859-.011 2.25.206 3.346.808 1.33.73 2.699 2.293 2.982 3.403l.176.687.432-.944c2.438-5.336 10.221-5.257 12.93.133.857 1.71.953 5.36.191 7.416-.994 2.683-2.861 4.728-7.178 7.86-2.828 2.056-6.031 5.164-6.254 5.603-.26.504-.014.076-1.157-1.205z"/>
</svg>