<svg xmlns="http://www.w3.org/2000/svg" width="32" height="96" viewBox="306.5 244.5 32 96"><path fill="#C8C8C8" d="M322.414 272.675c-.327 0-.47-.261-.565-.433-.112-.203-.322-.581-.825-1.146-.576-.645-2.075-1.954-3.273-2.86-3.701-2.795-4.18-3.18-5.687-4.567-2.853-2.626-4.068-5.279-4.064-8.871.002-1.747.132-2.473.634-3.53.849-1.785 2.094-3.104 3.702-3.921 1.109-.563 1.724-.834 3.59-.844h.131c1.874 0 2.368.271 3.45.866 1.248.685 2.481 1.993 3.019 3.137 1.242-2.478 3.756-4.005 6.625-4.005a7.892 7.892 0 0 1 7.09 4.364c.92 1.833 1.023 5.63.213 7.814-1.031 2.782-2.955 4.899-7.352 8.091-2.76 2.006-5.842 4.997-6.11 5.435-.1.194-.241.47-.578.47z"/><path fill="#F00" d="M321.396 270.764c-.604-.675-2.107-1.99-3.344-2.926-3.664-2.768-4.162-3.167-5.65-4.537-2.742-2.523-3.907-5.063-3.903-8.502.002-1.68.116-2.326.586-3.316.798-1.679 1.973-2.926 3.477-3.689 1.063-.54 1.588-.78 3.366-.79 1.859-.011 2.25.206 3.346.808 1.33.73 2.699 2.293 2.982 3.403l.176.687.431-.944c2.438-5.336 10.221-5.257 12.93.133.857 1.71.953 5.36.191 7.416-.994 2.683-2.861 4.728-7.178 7.86-2.828 2.056-6.032 5.164-6.254 5.603-.259.503-.013.075-1.156-1.206z"/><g><path fill="#F00" d="M322.414 338.5c-.327 0-.471-.261-.565-.433-.112-.203-.322-.581-.825-1.146-.576-.645-2.075-1.954-3.273-2.86-3.701-2.795-4.18-3.18-5.687-4.567-2.853-2.626-4.068-5.278-4.064-8.87.002-1.747.133-2.473.635-3.531.849-1.785 2.094-3.104 3.701-3.92 1.109-.563 1.725-.834 3.59-.845l.132-.001c1.874 0 2.368.271 3.45.867 1.248.685 2.481 1.992 3.019 3.137 1.242-2.479 3.756-4.006 6.625-4.006a7.892 7.892 0 0 1 7.09 4.364c.92 1.833 1.023 5.63.213 7.814-1.031 2.782-2.955 4.899-7.352 8.091-2.76 2.006-5.842 4.997-6.11 5.435-.102.196-.242.471-.579.471z"/><path fill="#C8C8C8" d="M321.484 335.7c-.556-.62-1.94-1.832-3.078-2.693-3.373-2.547-3.832-2.915-5.202-4.176-2.524-2.322-3.597-4.66-3.593-7.826.002-1.547.107-2.143.539-3.053.734-1.546 1.816-2.693 3.201-3.396.979-.497 1.462-.72 3.099-.728 1.711-.011 2.071.189 3.08.743 1.224.672 2.485 2.111 2.746 3.134l.162.632.396-.87c2.246-4.912 9.41-4.839 11.904.123.789 1.573.877 4.935.176 6.826-.916 2.47-2.635 4.353-6.607 7.235-2.604 1.894-5.553 4.754-5.757 5.157-.241.466-.014.072-1.066-1.108z"/></g></svg>