<?xml version="1.0" encoding="utf-8"?>
<!-- Generator: Adobe Illustrator 14.0.0, SVG Export Plug-In . SVG Version: 6.00 Build 43363)  -->
<!DOCTYPE svg PUBLIC "-//W3C//DTD SVG 1.1//EN" "http://www.w3.org/Graphics/SVG/1.1/DTD/svg11.dtd">
<svg version="1.1" id="Layer_1" xmlns="http://www.w3.org/2000/svg" xmlns:xlink="http://www.w3.org/1999/xlink" x="0px" y="0px"
	 width="32px" height="32px" viewBox="0 0 32 32" enable-background="new 0 0 32 32" xml:space="preserve">
<g>
	<path fill="#E44D26" d="M4.462,28.8L1.892,0h28.215l-2.571,28.796L15.986,32L4.462,28.8z"/>
	<path fill="#F16529" d="M16.002,29.55l9.337-2.587l2.196-24.61H16.002V29.55z"/>
	<path fill="#EBEBEB" d="M16.002,13.036h-4.675l-0.323-3.615h4.998v-3.53H7.145l0.084,0.95l0.87,9.733h7.903V13.036z M16.002,22.21
		l-0.016,0.004l-3.934-1.063l-0.25-2.815h-3.55l0.496,5.545l7.234,2.01l0.02-0.004V22.21z"/>
	<path fill="#FFFFFF" d="M15.988,13.036v3.532h4.35l-0.406,4.582l-3.944,1.062v3.678l7.245-2.01l0.052-0.597l0.827-9.3l0.089-0.947
		h-0.953H15.988z M15.988,5.886v3.536h8.534l0.07-0.795l0.16-1.79l0.085-0.948L15.988,5.886z"/>
</g>
</svg>
