<svg xmlns="http://www.w3.org/2000/svg" xmlns:xlink="http://www.w3.org/1999/xlink" width="32" height="32" viewBox="0 0 32 32">
    <symbol id="a" viewBox="-14.108 -16 28.216 32">
        <path fill="#E44D26" d="M-11.541-12.801l-2.567 28.801h28.216l-2.572-28.796-11.553-3.204z"/>
        <path fill="#F16529" d="M0-13.551l9.337 2.588 2.196 24.609h-11.533z"/>
        <path fill="#EBEBEB" d="M0 2.964h-4.675l-.323 3.615h4.998v3.534h-8.857l.084-.947.869-9.734h7.904zM0-6.21l-.016-.004-3.934 1.063-.251 2.816h-3.5469999999999997l.496-5.545 7.235-2.01.017.004z"/>
        <path fill="#fff" d="M-.014 2.964v-3.532h4.351l-.409-4.582-3.942-1.062v-3.677l7.243 2.009.053.597.828 9.299.088.948h-.953zM-.014 10.113v-3.534h8.534l.07.796.16 1.791.085.947z"/>
    </symbol>
    <use xlink:href="#a" width="28.216" height="32" x="-14.108" y="-16" transform="matrix(1 0 0 -1 16 16)" overflow="visible"/>
</svg>