<svg xmlns="http://www.w3.org/2000/svg" xmlns:xlink="http://www.w3.org/1999/xlink" width="32" height="32" viewBox="0 0 32 32">
    <symbol id="a" viewBox="-15.516 -16 31.033 31.999">
        <path fill="#37A5E2" d="M15.144 8.782c.662 2.532.46 4.646-.754 5.942-2.178 2.33-7.065 1.343-12.367-1.962-.423.035-.85.056-1.28.056-7.901 0-14.605-5.338-14.605-13.035 1.197 1.897 4.995 7.677 11.392 9.639-4.149-2.807-9.76-10.773-10.96-13.288-2.399-4.837-2.843-9.046-.734-11.017 2.259-2.111 6.886-1.129 11.953 2.091.961-.165 1.948-.249 2.953-.249 5.476 0 11.263 3.59 13.259 9.217h-9.357c-.516-1.541-2.204-2.992-4.096-2.992-2.875 0-4.539 2.086-4.539 4.856 1.945 0 18.588 0 18.588 0 .049.481.076.854.076 1.365 0 6.288-4.043 11.048-9.474 12.741 3.965 2.127 7.255 2.764 8.769 1.145.881-.944 1.162-2.587.676-4.509h.5zm-18.213-21.405c-4.034-2.371-7.507-3.068-9.196-1.489-1.456 1.36-1.313 4.157.095 7.581.043.063.085.144.125.083 2.099-3.273 5.305-5.342 8.976-6.175zm-.921 14.799s.179 4.208 4.388 4.208c4.148 0 4.387-4.208 4.387-4.208h-8.775z"/>
    </symbol>
    <use xlink:href="#a" width="31.033" height="31.999" x="-15.516" y="-16" transform="matrix(1 0 0 -1 16 15.999)" overflow="visible"/>
</svg>