<svg xmlns="http://www.w3.org/2000/svg" width="32" height="32" viewBox="0 0 32 32">
  <path fill="#006DBC" d="M7.531 11.217l.667-3.113h3.609l-.667 3.113z"/>
  <path fill="#C8C8C8" d="M11.537 8.323l-.574 2.675H7.802l.573-2.675h3.162m.542-.437H8.021l-.76 3.55h4.057l.761-3.55z"/>
  <path fill="#006DBC" d="M2.264 27.738c.243-1.336.525-2.727.647-3.112 1.256-.005 1.795-.102 2.166-1.438l2.297-10.985h3.592l-2.752 13.41c-.205.989-1.342 2.099-2.646 2.107h-.084l-.021.019H2.264z"/>
  <path fill="#C8C8C8" d="M10.698 12.422l-2.7 13.146c-.188.905-1.268 1.926-2.434 1.933l-.177.019H2.526c.202-1.101.425-2.204.55-2.676 1.197-.018 1.818-.184 2.217-1.623L7.55 12.422h3.148m.538-.442l-.004.004H7.196L4.866 23.13c-.341 1.227-.75 1.276-2.087 1.276-.14 0-.777 3.55-.777 3.55h3.545l.021-.019c1.375-.009 2.63-1.173 2.86-2.281l2.808-13.676z"/>
  <g>
    <path fill="#1A202E" d="M18.695 21.818c-.957 0-1.971-.033-2.917-.416-1.667-.675-2.761-2.538-2.926-4.984-.139-2.064.282-4.287 1.216-6.428 1.014-2.342 2.382-3.972 4.064-4.847 1.132-.587 2.445-.858 4.26-.879h.248c1.582 0 3.392.159 4.834 1.341.914.753 1.324 1.285 1.83 2.371.279.608.515 1.826.475 2.458-.106 1.58-.992 4.355-1.849 7.038l-.448 1.412s2.033-.013 2.181-.011c-.188.877-.55 2.429-.648 2.751 0 0-.04.188-.246.188l-10.074.006zm3.913-14.166c-.34 0-.698.03-1.067.09-1.89.313-3.396 1.725-4.131 3.877-.426 1.24-.669 2.234-.789 3.223-.125 1.029-.135 2.426.516 3.234.647.803 2.181.803 3.006.803h3.8l.049-.151c.012-.032 1-3.144 1.387-4.663l.038-.15c.289-1.133.615-2.418.462-3.623-.129-1.014-.778-1.947-1.614-2.324-.465-.209-1.021-.316-1.657-.316z"/>
    <path fill="#C8C8C8" d="M22.639 4.045v.438c1.543 0 3.307.154 4.694 1.291.896.739 1.276 1.232 1.771 2.294.263.573.492 1.761.455 2.353-.104 1.553-2.378 8.681-2.378 8.681s2.142-.002 2.208 0c-.194.889-.496 2.171-.584 2.451l-.012.043h-.028l-10.069.004c-.935 0-1.925-.03-2.835-.398-2.352-.954-2.73-3.912-2.79-4.796-.137-2.03.279-4.218 1.199-6.327.993-2.293 2.328-3.887 3.964-4.737 1.1-.571 2.384-.834 4.162-.855l.245-.001-.002-.441m-2.498 15.053H24.1l1.525-5.13c.293-1.151.626-2.458.468-3.704-.14-1.086-.839-2.088-1.741-2.496-.492-.222-1.078-.334-1.745-.334-.35 0-.721.031-1.103.094-1.972.324-3.54 1.789-4.302 4.02-.432 1.256-.678 2.264-.801 3.269-.128 1.071-.135 2.529.563 3.396.714.885 2.317.885 3.177.885m2.247-15.052c-1.505.018-3.009.204-4.357.904-1.986 1.031-3.296 2.949-4.163 4.952-.884 2.025-1.383 4.313-1.234 6.531.14 2.068 1.009 4.34 3.063 5.172.959.387 1.981.43 3 .43l10.07-.003c.456 0 .415-.22.456-.343.118-.384.555-2.279.708-3.03-.204-.005-2.148 0-2.148 0 .963-3.044 2.093-6.382 2.215-8.211.044-.681-.203-1.934-.493-2.565-.518-1.111-.943-1.669-1.89-2.449-1.43-1.168-3.722-1.405-5.227-1.388zm-5.082 13.893c-.612-.762-.582-2.125-.469-3.07.137-1.125.431-2.164.78-3.18.637-1.862 1.952-3.399 3.958-3.73a6.32 6.32 0 0 1 1.032-.088c.543 0 1.089.08 1.565.295.814.367 1.375 1.285 1.486 2.152.155 1.217-.2 2.527-.494 3.691-.39 1.531-1.383 4.649-1.383 4.649l-3.642.001c.002.001-2.275-.027-2.833-.72z"/>
  </g>
</svg>