<svg xmlns="http://www.w3.org/2000/svg" xmlns:xlink="http://www.w3.org/1999/xlink" width="32" height="32" viewBox="0 0 32 32">
    <symbol id="a" viewBox="-16 -13.663 32 27.326">
        <path fill="#006DBC" d="M-5.35 5.223h-4.637l.87 4.057h4.637z"/>
        <path fill="#C1272D" d="M-8.659-11.036"/>
        <path fill="#006DBC" d="M-5.447 4.596h-4.612l-2.669-12.739c-.389-1.405-.288-1.46-1.817-1.46-.158 0-.313.015-.465.034v-.034h-.121l-.869-4.06h4.051l.022.02c1.573.009 3.007 1.338 3.268 2.607.261 1.268 3.212 15.632 3.212 15.632z"/>
        <path fill="#1A202E" d="M13.463-3.038c.126.225.234.628.337.9.288.774.56 1.556.814 2.343.641 1.985 1.24 4.055 1.38 6.146.051.771-.233 2.209-.565 2.928-.585 1.268-1.071 1.903-2.159 2.8-1.704 1.399-3.843 1.606-5.966 1.583-1.719-.021-3.439-.233-4.982-1.033-2.27-1.179-3.765-3.369-4.762-5.659-1.01-2.317-1.58-4.929-1.41-7.465.16-2.362 1.156-4.955 3.504-5.907 1.405-.568 2.926-.489 4.41-.489 1.583 0 3.165 0 4.747 0 1.403 0 2.809 0 4.214 0 .521 0 1.044 0 1.567 0 .099 0 .199 0 .301 0 .163 0 .173.248.219.392.134.436.257.875.365 1.318.175.708.322 1.424.444 2.143-.818.015-1.639 0-2.458 0m-4.566 0c-1.326 0-2.485 0-3.882 0-1.026 0-2.821-.04-3.516.824-.705.878-.671 2.438-.539 3.514.157 1.285.492 2.472.89 3.634.727 2.128 2.232 3.885 4.525 4.263.957.157 2.072.167 2.968-.238.929-.419 1.573-1.462 1.699-2.458.177-1.39-.227-2.884-.567-4.219-.445-1.749-1.007-3.465-1.578-5.173"/>
    </symbol>
    <use xlink:href="#a" width="32" height="27.326" x="-16" y="-13.663" transform="matrix(1 0 0 -1 16 16)" overflow="visible"/>
</svg>