<?xml version="1.0" encoding="utf-8"?>
<!-- Generator: Adobe Illustrator 14.0.0, SVG Export Plug-In . SVG Version: 6.00 Build 43363)  -->
<!DOCTYPE svg PUBLIC "-//W3C//DTD SVG 1.1//EN" "http://www.w3.org/Graphics/SVG/1.1/DTD/svg11.dtd">
<svg version="1.1" id="Layer_1" xmlns="http://www.w3.org/2000/svg" xmlns:xlink="http://www.w3.org/1999/xlink" x="0px" y="0px"
	 width="32px" height="32px" viewBox="0 0 32 32" enable-background="new 0 0 32 32" xml:space="preserve">
<g>
	<g>
		<polygon fill="#006DBC" points="7.531,11.217 8.198,8.104 11.807,8.104 11.14,11.217 		"/>
		<path fill="#C8C8C8" d="M11.537,8.323l-0.574,2.675H7.802l0.573-2.675H11.537 M12.079,7.886H8.021l-0.76,3.55h4.057L12.079,7.886
			L12.079,7.886z"/>
	</g>
	<path fill="#C1272D" d="M8.42,25.662"/>
	<g>
		<path fill="#006DBC" d="M2.264,27.738c0.243-1.336,0.525-2.727,0.647-3.112c1.256-0.005,1.795-0.102,2.166-1.438l2.297-10.985
			h3.592l-2.752,13.41c-0.205,0.989-1.342,2.099-2.646,2.107H5.484l-0.021,0.019H2.264z"/>
		<path fill="#C8C8C8" d="M10.698,12.422l-2.7,13.146c-0.188,0.905-1.268,1.926-2.434,1.933L5.387,27.52H2.526
			c0.202-1.101,0.425-2.204,0.55-2.676c1.197-0.018,1.818-0.184,2.217-1.623l2.257-10.799H10.698 M11.236,11.98l-0.004,0.004H7.196
			l-2.33,11.146c-0.341,1.227-0.75,1.276-2.087,1.276c-0.14,0-0.777,3.55-0.777,3.55h3.545l0.021-0.019
			c1.375-0.009,2.63-1.173,2.86-2.281C8.655,24.548,11.236,11.98,11.236,11.98L11.236,11.98z"/>
	</g>
	<g>
		<path fill="#1A202E" d="M18.695,21.818c-0.957,0-1.971-0.033-2.917-0.416c-1.667-0.675-2.761-2.538-2.926-4.984
			c-0.139-2.064,0.282-4.287,1.216-6.428c1.014-2.342,2.382-3.972,4.064-4.847c1.132-0.587,2.445-0.858,4.26-0.879l0.248,0
			c1.582,0,3.392,0.159,4.834,1.341c0.914,0.753,1.324,1.285,1.83,2.371c0.279,0.608,0.515,1.826,0.475,2.458
			c-0.106,1.58-0.992,4.355-1.849,7.038l-0.448,1.412c0,0,2.033-0.013,2.181-0.011c-0.188,0.877-0.55,2.429-0.648,2.751
			c0,0-0.04,0.188-0.246,0.188L18.695,21.818z M22.608,7.652c-0.34,0-0.698,0.03-1.067,0.09c-1.89,0.313-3.396,1.725-4.131,3.877
			c-0.426,1.24-0.669,2.234-0.789,3.223c-0.125,1.029-0.135,2.426,0.516,3.234c0.647,0.803,2.181,0.803,3.006,0.803h3.8l0.049-0.151
			c0.012-0.032,1-3.144,1.387-4.663l0.038-0.15c0.289-1.133,0.615-2.418,0.462-3.623c-0.129-1.014-0.778-1.947-1.614-2.324
			C23.8,7.759,23.244,7.652,22.608,7.652L22.608,7.652z"/>
		<path fill="#C8C8C8" d="M22.639,4.045v0.438c1.543,0,3.307,0.154,4.694,1.291c0.896,0.739,1.276,1.232,1.771,2.294
			c0.263,0.573,0.492,1.761,0.455,2.353c-0.104,1.553-2.378,8.681-2.378,8.681s2.142-0.002,2.208,0
			c-0.194,0.889-0.496,2.171-0.584,2.451c-0.004,0.014-0.008,0.027-0.012,0.043c-0.009,0-0.018,0-0.028,0L18.696,21.6
			c-0.935,0-1.925-0.03-2.835-0.398c-2.352-0.954-2.73-3.912-2.79-4.796c-0.137-2.03,0.279-4.218,1.199-6.327
			c0.993-2.293,2.328-3.887,3.964-4.737c1.1-0.571,2.384-0.834,4.162-0.855l0.245-0.001L22.639,4.045 M20.141,19.098H24.1
			l1.525-5.13c0.293-1.151,0.626-2.458,0.468-3.704c-0.14-1.086-0.839-2.088-1.741-2.496c-0.492-0.222-1.078-0.334-1.745-0.334
			c-0.35,0-0.721,0.031-1.103,0.094c-1.972,0.324-3.54,1.789-4.302,4.02c-0.432,1.256-0.678,2.264-0.801,3.269
			c-0.128,1.071-0.135,2.529,0.563,3.396C17.678,19.098,19.281,19.098,20.141,19.098 M22.388,4.046
			c-1.505,0.018-3.009,0.204-4.357,0.904c-1.986,1.031-3.296,2.949-4.163,4.952c-0.884,2.025-1.383,4.313-1.234,6.531
			c0.14,2.068,1.009,4.34,3.063,5.172c0.959,0.387,1.981,0.43,3,0.43c0.287,0,9.614-0.003,10.07-0.003s0.415-0.22,0.456-0.343
			c0.118-0.384,0.555-2.279,0.708-3.03c-0.204-0.005-2.148,0-2.148,0c0.963-3.044,2.093-6.382,2.215-8.211
			c0.044-0.681-0.203-1.934-0.493-2.565c-0.518-1.111-0.943-1.669-1.89-2.449C26.185,4.266,23.893,4.029,22.388,4.046z
			 M17.306,17.939c-0.612-0.762-0.582-2.125-0.469-3.07c0.137-1.125,0.431-2.164,0.78-3.18c0.637-1.862,1.952-3.399,3.958-3.73
			c0.329-0.055,0.681-0.088,1.032-0.088c0.543,0,1.089,0.08,1.565,0.295c0.814,0.367,1.375,1.285,1.486,2.152
			c0.155,1.217-0.2,2.527-0.494,3.691c-0.39,1.531-1.383,4.649-1.383,4.649c-1.162,0-3.557,0.001-3.642,0.001
			C20.141,18.66,17.864,18.632,17.306,17.939z"/>
	</g>
</g>
</svg>
