<svg xmlns="http://www.w3.org/2000/svg" xmlns:xlink="http://www.w3.org/1999/xlink" width="32" height="32" viewBox="0 0 32 32">
    <symbol id="a" viewBox="-14.108 -16 28.216 32">
        <path fill="#EFC825" d="M-11.541-12.801l-2.567 28.801h28.216l-2.572-28.796-11.553-3.204z"/>
        <path fill="#F9E034" d="M0-13.553l9.336 2.589 2.198 24.609h-11.534z"/>
        <path fill="#EBEBEB" d="M-4.805 10.113v-16.03l-2.837.766-.252 2.814h-3.5460000000000003l.495-5.543 9.849-2.854v20.847z"/>
        <path fill="#fff" d="M9.377 6.579l.315 3.534h-9.024v-11.528h4.349l-.409-4.583-3.94-1.061v-3.675l7.241 2.008.052.594.917 10.25h-4.436l.088 4.461z"/>
    </symbol>
    <use xlink:href="#a" width="28.216" height="32" x="-14.108" y="-16" transform="matrix(1 0 0 -1 16 16)" overflow="visible"/>
</svg>