<?xml version="1.0" encoding="utf-8"?>
<!-- Generator: Adobe Illustrator 14.0.0, SVG Export Plug-In . SVG Version: 6.00 Build 43363)  -->
<!DOCTYPE svg PUBLIC "-//W3C//DTD SVG 1.1//EN" "http://www.w3.org/Graphics/SVG/1.1/DTD/svg11.dtd">
<svg version="1.1" id="Layer_1" xmlns="http://www.w3.org/2000/svg" xmlns:xlink="http://www.w3.org/1999/xlink" x="0px" y="0px"
	 width="32px" height="32px" viewBox="0 0 32 32" enable-background="new 0 0 32 32" xml:space="preserve">
<g>
	<path fill="#EFC825" d="M4.462,28.8L1.892,0h28.215l-2.571,28.796L15.986,32L4.462,28.8z"/>
	<path fill="#F9E034" d="M16.002,29.553l9.336-2.59l2.198-24.607H16.002V29.553z"/>
	<path fill="#EBEBEB" d="M11.197,5.887v16.03L8.36,21.151l-0.252-2.811H4.562l0.495,5.545l9.85,2.855V5.891L11.197,5.887z"/>
	<path fill="#FFFFFF" d="M25.379,9.42l0.314-3.533H16.67v11.528h4.35l-0.41,4.583l-3.939,1.06v3.677l7.24-2.009l0.053-0.594
		l0.92-10.25h-4.441l0.088-4.46L25.379,9.42z"/>
</g>
</svg>
