<svg xmlns="http://www.w3.org/2000/svg" width="32" height="32" viewBox="0 0 32 32">
  <path fill="#FFF" d="M24.506 9.09a2.28 2.28 0 1 1-3.222-3.222 2.28 2.28 0 0 1 3.222 3.222z"/>
  <path fill="#C8C8C8" d="M3.625 29.341s.207.661.59.661c.108 0 .231-.053.367-.188.617-.619 2.774-2.775 2.774-2.775l.28-2.592 2.59-.278.278-2.591 2.591-.276.279-2.59 2.59-.275 1.653-1.658c.975.42 2.019.631 3.062.631a7.66 7.66 0 0 0 5.438-2.253A7.706 7.706 0 0 0 20.67 2.004a7.7 7.7 0 0 0-7.071 10.754l-9.91 9.913-.064 6.67z"/>
  <path fill="#FFF" d="M12.46 17.863l-.079.741-.193 1.787-1.789.191-.737.078 2.798-2.797M9.589 20.732l-.078.737-.193 1.79-1.789.193-.738.079 2.798-2.799M6.722 23.603l-.08.736-.242 2.24c-.387.387-1.151 1.15-1.766 1.768l.024-2.683 2.064-2.061M25.41 4.964A6.657 6.657 0 0 0 20.67 3a6.662 6.662 0 0 0-4.741 1.964 6.665 6.665 0 0 0-1.412 7.394l.269.624-.479.48-.048.047.148.148.423.422.709.707-.708.708-2.302 2.302.74-.079 2.237-.239 1.403-1.407.479-.481.625.269a6.683 6.683 0 0 0 2.663.549 6.643 6.643 0 0 0 4.731-1.96c2.615-2.616 2.615-6.87.003-9.484zm-.904 4.126a2.273 2.273 0 0 1-3.222 0 2.28 2.28 0 0 1 1.613-3.889c.583 0 1.166.223 1.609.667a2.281 2.281 0 0 1 0 3.222z"/>
  <path fill="#FFF" d="M3.672 24.392l10.029-10.028.423.422-10.462 10.46z"/>
</svg>