<?xml version="1.0" encoding="utf-8"?>
<!-- Generator: Adobe Illustrator 14.0.0, SVG Export Plug-In . SVG Version: 6.00 Build 43363)  -->
<!DOCTYPE svg PUBLIC "-//W3C//DTD SVG 1.1//EN" "http://www.w3.org/Graphics/SVG/1.1/DTD/svg11.dtd">
<svg version="1.1" id="Layer_1" xmlns="http://www.w3.org/2000/svg" xmlns:xlink="http://www.w3.org/1999/xlink" x="0px" y="0px"
	 width="32px" height="32px" viewBox="0 0 32 32" enable-background="new 0 0 32 32" xml:space="preserve">
<g>
	<path fill="#FFFFFF" d="M24.505,9.091c-0.89,0.893-2.331,0.893-3.223,0c-0.889-0.89-0.889-2.33,0-3.222
		c0.892-0.89,2.333-0.89,3.223,0C25.394,6.76,25.392,8.202,24.505,9.091z"/>
	<path fill="#C8C8C8" d="M3.626,29.34c0,0,0.207,0.661,0.59,0.661c0.108,0,0.231-0.053,0.367-0.188
		c0.617-0.619,2.773-2.776,2.773-2.776l0.28-2.591l2.59-0.279l0.279-2.59l2.59-0.276l0.28-2.59l2.59-0.276l1.653-1.658
		c0.975,0.42,2.018,0.631,3.061,0.631c1.968,0,3.936-0.75,5.438-2.253c3.008-3.01,3.008-7.887,0-10.895
		c-1.503-1.505-3.475-2.257-5.446-2.257l0,0c-1.972,0-3.944,0.752-5.449,2.257c-2.298,2.297-2.835,5.686-1.623,8.496l-9.909,9.913
		L3.626,29.34z"/>
	<polyline fill="#FFFFFF" points="12.46,17.863 12.381,18.603 12.188,20.391 10.399,20.582 9.663,20.66 12.46,17.863 	"/>
	<polyline fill="#FFFFFF" points="9.59,20.733 9.511,21.469 9.318,23.258 7.529,23.451 6.792,23.53 9.59,20.733 	"/>
	<path fill="#FFFFFF" d="M6.722,23.601l-0.08,0.737L6.4,26.578c-0.387,0.387-1.15,1.151-1.765,1.768l0.024-2.683L6.722,23.601"/>
	<path fill="#FFFFFF" d="M25.409,4.965c-1.266-1.267-2.949-1.964-4.739-1.964c-1.791,0-3.475,0.698-4.742,1.964
		c-1.953,1.952-2.507,4.854-1.412,7.393l0.269,0.623l-0.48,0.48l-0.047,0.047l0.148,0.148l0.423,0.422l0.709,0.707l-0.708,0.708
		l-2.302,2.302l0.74-0.079l2.238-0.239l1.403-1.407l0.479-0.481l0.625,0.269c0.844,0.364,1.74,0.549,2.664,0.549
		c1.787,0,3.467-0.696,4.73-1.96C28.021,11.832,28.021,7.578,25.409,4.965z M24.505,9.091c-0.444,0.446-1.027,0.669-1.61,0.669
		s-1.166-0.223-1.612-0.669c-0.889-0.89-0.889-2.33,0-3.222c0.446-0.445,1.029-0.667,1.612-0.667s1.166,0.223,1.61,0.667
		C25.394,6.76,25.392,8.202,24.505,9.091z"/>
	<polygon fill="#FFFFFF" points="3.673,24.391 13.701,14.364 14.124,14.786 3.663,25.245 	"/>
</g>
</svg>
