<?xml version="1.0" encoding="utf-8"?>
<!-- Generator: Adobe Illustrator 14.0.0, SVG Export Plug-In . SVG Version: 6.00 Build 43363)  -->
<!DOCTYPE svg PUBLIC "-//W3C//DTD SVG 1.1//EN" "http://www.w3.org/Graphics/SVG/1.1/DTD/svg11.dtd">
<svg version="1.1" id="Layer_1" xmlns="http://www.w3.org/2000/svg" xmlns:xlink="http://www.w3.org/1999/xlink" x="0px" y="0px"
	 width="32px" height="32px" viewBox="0 0 32 32" enable-background="new 0 0 32 32" xml:space="preserve">
<g>
	<path fill="#FFFFFF" d="M24.506,9.09c-0.89,0.893-2.332,0.893-3.224,0c-0.889-0.89-0.889-2.33,0-3.222
		c0.892-0.891,2.334-0.891,3.224,0S25.393,8.202,24.506,9.09z"/>
	<path fill="#C8C8C8" d="M3.625,29.341c0,0,0.207,0.661,0.59,0.661c0.108,0,0.231-0.053,0.367-0.188
		c0.617-0.619,2.774-2.775,2.774-2.775l0.28-2.592l2.59-0.278l0.278-2.591l2.591-0.276l0.279-2.59l2.59-0.275l1.653-1.658
		c0.975,0.42,2.019,0.631,3.062,0.631c1.968,0,3.937-0.75,5.438-2.253c3.008-3.011,3.008-7.888,0-10.896
		c-1.503-1.505-3.476-2.257-5.447-2.257l0,0c-1.972,0-3.943,0.752-5.448,2.257c-2.299,2.298-2.835,5.687-1.623,8.497l-9.91,9.913
		L3.625,29.341z"/>
	<polyline fill="#FFFFFF" points="12.46,17.863 12.381,18.604 12.188,20.391 10.399,20.582 9.662,20.66 12.46,17.863 	"/>
	<polyline fill="#FFFFFF" points="9.589,20.732 9.511,21.469 9.318,23.259 7.529,23.452 6.791,23.531 9.589,20.732 	"/>
	<path fill="#FFFFFF" d="M6.722,23.603l-0.08,0.736L6.4,26.579c-0.387,0.387-1.151,1.15-1.766,1.768l0.024-2.683L6.722,23.603"/>
	<path fill="#FFFFFF" d="M25.41,4.964C24.144,3.697,22.46,3,20.67,3c-1.791,0-3.475,0.698-4.741,1.964
		c-1.953,1.953-2.508,4.854-1.412,7.394l0.269,0.624l-0.479,0.48l-0.048,0.047l0.148,0.148l0.423,0.422l0.709,0.707l-0.708,0.708
		l-2.302,2.302l0.74-0.079l2.237-0.239l1.403-1.407l0.479-0.481l0.625,0.269c0.844,0.364,1.739,0.549,2.663,0.549
		c1.787,0,3.469-0.696,4.731-1.96C28.022,11.832,28.022,7.578,25.41,4.964z M24.506,9.09c-0.443,0.446-1.026,0.669-1.609,0.669
		c-0.584,0-1.167-0.223-1.613-0.669c-0.889-0.89-0.889-2.33,0-3.222c0.446-0.446,1.029-0.667,1.613-0.667
		c0.583,0,1.166,0.223,1.609,0.667C25.395,6.759,25.393,8.202,24.506,9.09z"/>
	<polygon fill="#FFFFFF" points="3.672,24.392 13.701,14.364 14.124,14.786 3.662,25.246 	"/>
</g>
</svg>
