<svg xmlns="http://www.w3.org/2000/svg" xmlns:xlink="http://www.w3.org/1999/xlink" width="32" height="32" viewBox="0 0 32 32">
    <symbol id="a" viewBox="-14.141 -16 28.283 32">
        <path d="M11.563 13.42c-3.438 3.44-9.014 3.44-12.453 0-2.626-2.626-3.24-6.498-1.854-9.711l-11.326-11.327-.018-1.971 11.461 11.461.483-.483-11.955-11.954-.042-4.68s.388-1.243 1.094-.539c.705.706 3.171 3.172 3.171 3.172l.319 2.961 2.959.318.319 2.96 2.959.317.32 2.96 2.96.318 1.89 1.892c3.217-1.387 7.087-.773 9.713 1.854 3.438 3.439 3.438 9.014 0 12.452zm-1.843-5.524c-1.017-1.018-2.664-1.018-3.682 0-1.016 1.017-1.016 2.664 0 3.682 1.018 1.017 2.665 1.017 3.682 0s1.016-2.665 0-3.682z"/>
    </symbol>
    <use xlink:href="#a" width="28.283" height="32" x="-14.141" y="-16" transform="matrix(1 0 0 -1 15.999 16)" overflow="visible"/>
</svg>