<?xml version="1.0" encoding="utf-8"?>
<!-- Generator: Adobe Illustrator 14.0.0, SVG Export Plug-In . SVG Version: 6.00 Build 43363)  -->
<!DOCTYPE svg PUBLIC "-//W3C//DTD SVG 1.1//EN" "http://www.w3.org/Graphics/SVG/1.1/DTD/svg11.dtd">
<svg version="1.1" id="Layer_1" xmlns="http://www.w3.org/2000/svg" xmlns:xlink="http://www.w3.org/1999/xlink" x="0px" y="0px"
	 width="32px" height="32px" viewBox="0 0 32 32" enable-background="new 0 0 32 32" xml:space="preserve">
<g id="XMLID_1_">
	<path fill="#B4B4B4" d="M32,28.995H0v-4.02h32V28.995z"/>
	<path fill="#C8C8C8" d="M31.516,28.51H0.486v-3.047h31.03V28.51z"/>
	<path fill="#B4B4B4" d="M30.117,24.888H1.882V6.183c0-1.753,1.425-3.178,3.177-3.178h21.873c1.754,0,3.18,1.425,3.18,3.178v18.705
		H30.117z M2.852,23.918h26.296V6.183c0-1.218-0.99-2.208-2.211-2.208H5.06c-1.217,0-2.208,0.99-2.208,2.208V23.918z"/>
	<path fill="#C8C8C8" d="M29.633,24.402V6.182c0-1.484-1.207-2.69-2.693-2.69H5.059c-1.49,0-2.697,1.206-2.697,2.69v18.221H29.63
		H29.633z"/>
	<path fill="#FFFFFF" d="M28.063,23.104H3.937V5.73h24.125V23.104z"/>
	<path fill="#B4B4B4" d="M28.305,23.347H3.694V5.49h24.611V23.347z M4.18,22.861h23.64V5.98H4.18V22.861L4.18,22.861z M20.217,13.59
		c0.52,2.712-4.39,5.91-4.39,5.91s2.899-3.93,2.25-6.82c-0.653-2.89,1.286-6.43,1.286-6.43h3.887c0,0-3.555,4.614-3.032,7.334
		L20.217,13.59z"/>
	<path fill="none" d="M20.217,13.584c0.52,2.718-4.39,5.916-4.39,5.916s2.899-3.93,2.25-6.82c-0.653-2.89,1.286-6.43,1.286-6.43
		h3.887C23.25,6.25,19.695,10.864,20.217,13.584L20.217,13.584z"/>
</g>
</svg>
