<svg xmlns="http://www.w3.org/2000/svg" width="32" height="32" viewBox="0 0 32 32"><path d="M32.1 30.107a16.343 16.343 0 0 0-1.266-2.328c-2.44-3.728-6.002-6.44-5.951-11.224.063-5.665.646-16.372-10.202-15.506-10.708.862-7.87 12.174-8.027 15.963C6.42 20.334 4.422 24.922.1 30.107h32z"/><path fill="#ECECE8" d="M24.31 30.107c-1.397-2.77-3.353-7.669-4.158-11.015-.87-3.606-11.69-2.743-11.69.868-.046 3.171-1.587 6.991-3.017 10.146H24.31zM12.026 13.222c.106 1.848-.78 3.404-1.976 3.473-1.198.07-2.255-1.373-2.361-3.222-.106-1.849.778-3.404 1.977-3.474 1.197-.069 2.254 1.374 2.36 3.223z"/><path fill="#ECECE8" d="M14.2 13.363c.044 2.14 1.427 3.837 3.09 3.791 1.663-.045 2.976-1.816 2.93-3.955-.043-2.14-1.426-3.836-3.088-3.79-1.664.044-2.975 1.814-2.931 3.954z"/><path d="M15.578 13.847c-.025 1.173.567 2.127 1.324 2.13.754 0 1.387-.95 1.412-2.125.025-1.173-.566-2.127-1.322-2.129-.757 0-1.39.951-1.414 2.124zM10.788 13.86c.094.972-.272 1.814-.817 1.88-.546.066-1.066-.668-1.161-1.64-.095-.972.27-1.814.817-1.88.546-.067 1.064.667 1.16 1.64z"/><path fill="#FFDD5F" d="M9.676 15.784c.82-.778 2.85-3.109 6.659-.66.708.46 1.282.502 2.646 1.085 2.725 1.12 1.422 3.821-1.465 4.723-1.235.401-2.36 1.902-4.61 1.773-1.923-.112-2.426-1.363-3.607-2.057-2.1-1.186-2.41-2.788-1.275-3.636 1.132-.85 1.576-1.156 1.652-1.228z"/><path fill="#DF9000" d="M13.174 22.884c-.092 0-.186-.002-.28-.009-1.355-.077-2.04-.7-2.701-1.304-.315-.288-.613-.558-.982-.775-1.216-.688-1.947-1.584-2.005-2.46-.036-.572.218-1.09.714-1.462a94.781 94.781 0 0 1 1.27-.94c.199-.146.34-.249.367-.275.046-.042.094-.09.146-.14.595-.579 1.705-1.658 3.447-1.658 1.022 0 2.125.375 3.279 1.117.394.257.75.38 1.24.548.358.125.8.277 1.378.523 1.069.44 1.639 1.16 1.6 2.03-.053 1.227-1.318 2.467-3.078 3.017-.39.124-.785.378-1.202.646-.838.534-1.788 1.142-3.193 1.142zm-.025-8.679c-1.602 0-2.606.977-3.207 1.561l-.148.143a5.364 5.364 0 0 1-.4.302c-.266.193-.667.487-1.27.938-.405.305-.605.707-.575 1.164.049.758.717 1.555 1.833 2.185.403.236.729.533 1.042.82.645.588 1.254 1.143 2.49 1.215.087.005.175.007.259.007 1.305 0 2.209-.578 3.006-1.088.437-.28.85-.545 1.28-.685 1.626-.508 2.794-1.619 2.84-2.704.032-.713-.46-1.314-1.388-1.695a18.33 18.33 0 0 0-1.357-.516c-.513-.176-.886-.306-1.314-.585-1.095-.705-2.136-1.062-3.091-1.062z"/><g><path fill="#DF9000" d="M12.804 20.666c-1.94 0-3.314-1.29-4.051-1.986-.201-.188-.427-.398-.501-.419 0 0 .004.002.01.002v-.344c.182 0 .376.181.725.511.754.71 2.014 1.894 3.817 1.894 1.553 0 3.067-.91 4.283-1.645.804-.483 1.437-.866 1.919-.895l.019.344c-.396.025-1.026.405-1.76.846-1.252.754-2.812 1.692-4.461 1.692z"/></g></svg>