<?xml version="1.0" encoding="utf-8"?>
<!-- Generator: Adobe Illustrator 14.0.0, SVG Export Plug-In . SVG Version: 6.00 Build 43363)  -->
<!DOCTYPE svg PUBLIC "-//W3C//DTD SVG 1.1//EN" "http://www.w3.org/Graphics/SVG/1.1/DTD/svg11.dtd">
<svg version="1.1" id="Layer_1" xmlns="http://www.w3.org/2000/svg" xmlns:xlink="http://www.w3.org/1999/xlink" x="0px" y="0px"
	 width="32px" height="32px" viewBox="0 0 32 32" enable-background="new 0 0 32 32" xml:space="preserve">
<path fill="#FFFFFF" d="M25.163,11.592h-0.202c0-0.01,0.007-0.017,0.007-0.025C24.967,5.187,20.947,0,16,0
	c-4.94,0-8.963,5.188-8.963,11.568c0,0.008,0,0.016,0,0.023H6.835c-0.723,0-1.308,0.57-1.308,1.28v17.857
	c0,0.707,0.585,1.277,1.308,1.277h18.328c0.724,0,1.31-0.57,1.31-1.275V12.87c0-0.706-0.586-1.276-1.31-1.276V11.592z M17.818,25.34
	H14.18l0.79-3.854c-0.478-0.318-0.79-0.854-0.79-1.463c0-0.979,0.814-1.771,1.818-1.771c1.006,0,1.82,0.794,1.82,1.771
	c0,0.605-0.314,1.145-0.795,1.461L17.818,25.34z M21.471,11.592H10.528c0-0.01,0-0.017,0-0.025c0-4.378,2.505-8.076,5.47-8.076
	s5.473,3.7,5.473,8.08c0,0.01,0,0.018,0,0.027V11.592z"/>
</svg>
