<?xml version="1.0" encoding="utf-8"?>
<!-- Generator: Adobe Illustrator 14.0.0, SVG Export Plug-In . SVG Version: 6.00 Build 43363)  -->
<!DOCTYPE svg PUBLIC "-//W3C//DTD SVG 1.1//EN" "http://www.w3.org/Graphics/SVG/1.1/DTD/svg11.dtd">
<svg version="1.1" id="Layer_1" xmlns="http://www.w3.org/2000/svg" xmlns:xlink="http://www.w3.org/1999/xlink" x="0px" y="0px"
	 width="32px" height="32px" viewBox="0 0 32 32" enable-background="new 0 0 32 32" xml:space="preserve">
<path fill="#FFFFFF" d="M29.652,0C30.948,0,32,1.053,32,2.347v27.307C32,30.948,30.948,32,29.652,32H2.347
	C1.053,32,0,30.948,0,29.652V2.347C0,1.053,1.053,0,2.347,0H29.652"/>
<path fill="#777777" d="M28.123,3.854c0,1.118-0.902,2.02-2.02,2.02H5.897c-1.116,0-2.02-0.904-2.02-2.02s0.904-2.02,2.02-2.02
	h20.207C27.221,1.834,28.124,2.738,28.123,3.854L28.123,3.854z M28.123,18.979c0,1.11-0.902,2.021-2.02,2.021H5.897
	c-1.116,0-2.02-0.91-2.02-2.021c0-1.119,0.904-2.026,2.02-2.026h20.207c1.117,0,2.021,0.905,2.021,2.021L28.123,18.979z
	 M28.123,11.411c0,1.116-0.902,2.02-2.02,2.02H5.897c-1.116,0-2.02-0.904-2.02-2.02c0-1.116,0.904-2.02,2.02-2.02h20.207
	C27.221,9.391,28.124,10.295,28.123,11.411L28.123,11.411z"/>
<path fill="#5B5B5B" d="M10.705,29.833V25c0-0.248,0.02-0.646,0.06-1.197h-0.02c-0.046,0.146-0.088,0.273-0.126,0.381
	c-0.04,0.109-0.078,0.195-0.11,0.266l-2.44,5.38h-0.28l-2.444-5.351c-0.072-0.164-0.145-0.394-0.22-0.688h-0.02
	c0.013,0.15,0.022,0.32,0.027,0.513c0.005,0.193,0.007,0.405,0.007,0.64v4.891h-0.63v-7.003h0.767l2.38,5.267
	c0.05,0.109,0.096,0.219,0.143,0.34c0.047,0.109,0.09,0.233,0.13,0.363h0.028c0.045-0.132,0.087-0.25,0.125-0.357
	c0.038-0.108,0.085-0.226,0.14-0.351l2.397-5.27h0.728v7.003h-0.64L10.705,29.833z M13.355,27.445
	c0.004,0.306,0.045,0.58,0.123,0.824c0.078,0.243,0.19,0.449,0.337,0.619c0.147,0.163,0.325,0.301,0.535,0.383
	c0.21,0.09,0.447,0.136,0.71,0.136c0.563,0,1.095-0.197,1.596-0.591v0.615c-0.478,0.342-1.058,0.512-1.738,0.512
	c-0.335,0-0.64-0.06-0.913-0.178c-0.273-0.117-0.506-0.287-0.698-0.51c-0.192-0.225-0.34-0.5-0.444-0.822
	c-0.104-0.324-0.156-0.695-0.156-1.112c0-0.374,0.057-0.72,0.17-1.04c0.115-0.32,0.273-0.596,0.475-0.828
	c0.202-0.23,0.44-0.414,0.718-0.547c0.277-0.131,0.58-0.195,0.908-0.195c0.322,0,0.607,0.059,0.854,0.168
	c0.248,0.113,0.455,0.273,0.623,0.48c0.167,0.209,0.295,0.463,0.383,0.763s0.133,0.635,0.133,1.006v0.313h-3.61L13.355,27.445z
	 M16.325,26.898c-0.01-0.521-0.133-0.926-0.37-1.211c-0.24-0.287-0.57-0.432-0.992-0.432c-0.21,0-0.408,0.037-0.588,0.112
	c-0.18,0.073-0.34,0.184-0.476,0.323c-0.14,0.144-0.25,0.313-0.34,0.519c-0.09,0.205-0.157,0.435-0.19,0.688h2.95H16.325z
	 M21.568,29.833v-2.88c0-1.13-0.41-1.695-1.23-1.695c-0.218,0-0.42,0.043-0.605,0.13s-0.346,0.205-0.479,0.358
	c-0.135,0.152-0.239,0.335-0.315,0.544c-0.076,0.21-0.115,0.438-0.115,0.683v2.86h-0.625v-5h0.625v0.87h0.02
	c0.372-0.658,0.932-0.987,1.676-0.987c0.547,0,0.965,0.181,1.25,0.532c0.287,0.354,0.431,0.867,0.431,1.538v3.047H21.568z
	 M26.968,29.833v-0.851h-0.02c-0.341,0.646-0.863,0.968-1.576,0.968c-1.188,0-1.782-0.726-1.782-2.181v-2.937h0.625v2.822
	c0,0.6,0.105,1.042,0.32,1.327c0.213,0.287,0.54,0.43,0.98,0.43c0.213,0,0.409-0.04,0.586-0.124c0.178-0.082,0.332-0.2,0.461-0.353
	c0.127-0.15,0.228-0.332,0.299-0.543c0.072-0.214,0.107-0.447,0.107-0.703v-2.86h0.62v5h-0.626L26.968,29.833z"/>
</svg>
