<svg xmlns="http://www.w3.org/2000/svg" width="32" height="32" viewBox="0 0 32 32">
  <path fill="#FFF" d="M21.8 2H10.2L2 10.2v11.6l8.2 8.2h11.6l8.2-8.2V10.2z"/>
  <path fill="#DF3800" d="M21.386 3L29 10.615v10.77L21.386 29h-10.77L3 21.385v-10.77L10.615 3h10.771"/>
  <g fill="#FFF">
    <path d="M4.036 18.354c.397.256.966.449 1.579.449.907 0 1.437-.48 1.437-1.17 0-.635-.367-1.008-1.294-1.354-1.12-.408-1.814-.998-1.814-1.957 0-1.063.887-1.859 2.221-1.859.686 0 1.211.166 1.503.338l-.245.724c-.215-.131-.674-.326-1.295-.326-.936 0-1.292.56-1.292 1.029 0 .641.417.958 1.364 1.324 1.162.447 1.741 1.007 1.741 2.015 0 1.061-.772 1.986-2.394 1.986-.661 0-1.384-.203-1.75-.451l.237-.74.002-.008zM11.472 13.322H9.385v-.754h5.082v.754h-2.098v6.112h-.897zM18.726 12.447c-1.832 0-3.177 1.428-3.177 3.605 0 2.079 1.263 3.495 3.087 3.495 1.752 0 3.188-1.264 3.188-3.617 0-2.047-1.213-3.483-3.098-3.483zm-.039 6.375c-1.406 0-2.202-1.314-2.202-2.791 0-1.498.737-2.861 2.211-2.861 1.477 0 2.189 1.424 2.189 2.8.001 1.559-.793 2.852-2.198 2.852zM27.601 13.091c-.406-.366-1.047-.573-1.924-.573-.713 0-1.273.066-1.701.132l.002.003v6.787h.885v-2.75c.207.051.453.059.715.059.865 0 1.619-.259 2.098-.756.346-.352.529-.845.529-1.465 0-.611-.235-1.109-.604-1.437zm-2.007 2.946c-.301 0-.545-.02-.732-.073l-.006.002v-2.668c.15-.041.449-.069.836-.069.967 0 1.621.436 1.621 1.352-.001.927-.649 1.456-1.719 1.456z"/>
  </g>
</svg>