<svg xmlns="http://www.w3.org/2000/svg" width="32" height="32" viewBox="0 0 32 32">
    <path fill="#FF2100" d="M10.201 30l-8.201-8.201v-11.598l8.201-8.201h11.599l8.2 8.201v11.598l-8.2 8.201z"/>
    <path fill="#fff" d="M21.386 3l7.614 7.615v10.77l-7.614 7.615h-10.771l-7.615-7.615v-10.77l7.615-7.615h10.771m.414-1h-11.599l-8.201 8.201v11.598l8.201 8.201h11.599l8.2-8.201v-11.598l-8.2-8.201z"/>
    <g fill="#fff">
        <path d="M4.852 18.887c.423.271 1.031.477 1.682.477.966 0 1.529-.51 1.529-1.247 0-.673-.39-1.073-1.377-1.442-1.193-.435-1.932-1.063-1.932-2.084 0-1.139.944-1.984 2.365-1.984.737 0 1.291.174 1.605.357l-.26.771c-.229-.142-.717-.347-1.378-.347-.998 0-1.378.596-1.378 1.096 0 .684.444 1.02 1.453 1.41 1.237.477 1.855 1.074 1.855 2.148 0 1.128-.824 2.115-2.55 2.115-.705 0-1.475-.217-1.865-.478l.251-.792zM11.708 13.527h-2.224v-.803h5.413v.803h-2.234v6.51h-.955v-6.51zM21.668 16.305c0 2.506-1.529 3.852-3.396 3.852-1.942 0-3.287-1.508-3.287-3.722 0-2.321 1.432-3.841 3.385-3.841 2.007 0 3.298 1.53 3.298 3.711zm-5.685.108c0 1.573.847 2.973 2.344 2.973s2.343-1.378 2.343-3.038c0-1.465-.759-2.983-2.332-2.983s-2.355 1.453-2.355 3.048zM22.895 12.811c.456-.075 1.053-.141 1.813-.141.933 0 1.616.217 2.05.607.391.348.641.879.641 1.53 0 .661-.195 1.183-.564 1.562-.51.532-1.313.803-2.235.803-.281 0-.542-.01-.759-.064v2.93h-.944v-7.227zm.944 3.526c.206.055.467.076.781.076 1.139 0 1.833-.563 1.833-1.552 0-.977-.694-1.442-1.725-1.442-.412 0-.728.032-.89.075v2.843z"/>
    </g>
</svg>