<?xml version="1.0" encoding="utf-8"?>
<!-- Generator: Adobe Illustrator 14.0.0, SVG Export Plug-In . SVG Version: 6.00 Build 43363)  -->
<!DOCTYPE svg PUBLIC "-//W3C//DTD SVG 1.1//EN" "http://www.w3.org/Graphics/SVG/1.1/DTD/svg11.dtd">
<svg version="1.1" id="Layer_1" xmlns="http://www.w3.org/2000/svg" xmlns:xlink="http://www.w3.org/1999/xlink" x="0px" y="0px"
	 width="32px" height="32px" viewBox="0 0 32 32" enable-background="new 0 0 32 32" xml:space="preserve">
<polygon fill="#FFFFFF" points="21.8,2 10.2,2 2,10.2 2,21.8 10.2,30 21.8,30 30,21.8 30,10.2 "/>
<polyline fill="#DF3800" points="21.386,3 29,10.615 29,21.385 21.386,29 10.616,29 3,21.385 3,10.615 10.615,3 21.386,3 "/>
<g>
	<path fill="#FFFFFF" d="M4.036,18.354c0.397,0.256,0.966,0.449,1.579,0.449c0.907,0,1.437-0.48,1.437-1.17
		c0-0.635-0.367-1.008-1.294-1.354c-1.12-0.408-1.814-0.998-1.814-1.957c0-1.063,0.887-1.859,2.221-1.859
		c0.686,0,1.211,0.166,1.503,0.338l-0.245,0.724c-0.215-0.131-0.674-0.326-1.295-0.326c-0.936,0-1.292,0.56-1.292,1.029
		c0,0.641,0.417,0.958,1.364,1.324c1.162,0.447,1.741,1.007,1.741,2.015c0,1.061-0.772,1.986-2.394,1.986
		c-0.661,0-1.384-0.203-1.75-0.451l0.237-0.74L4.036,18.354z"/>
	<polygon fill="#FFFFFF" points="11.472,13.322 9.385,13.322 9.385,12.568 14.467,12.568 14.467,13.322 12.369,13.322 
		12.369,19.434 11.472,19.434 	"/>
	<path fill="#FFFFFF" d="M18.726,12.447c-1.832,0-3.177,1.428-3.177,3.605c0,2.079,1.263,3.495,3.087,3.495
		c1.752,0,3.188-1.264,3.188-3.617C21.824,13.883,20.611,12.447,18.726,12.447z M18.687,18.822c-1.406,0-2.202-1.314-2.202-2.791
		c0-1.498,0.737-2.861,2.211-2.861c1.477,0,2.189,1.424,2.189,2.8C20.886,17.529,20.092,18.822,18.687,18.822z"/>
	<path fill="#FFFFFF" d="M27.601,13.091c-0.406-0.366-1.047-0.573-1.924-0.573c-0.713,0-1.273,0.066-1.701,0.132l0.002,0.003v6.787
		h0.885v-2.75c0.207,0.051,0.453,0.059,0.715,0.059c0.865,0,1.619-0.259,2.098-0.756c0.346-0.352,0.529-0.845,0.529-1.465
		C28.205,13.917,27.97,13.419,27.601,13.091z M25.594,16.037c-0.301,0-0.545-0.02-0.732-0.073l-0.006,0.002v-2.668
		c0.15-0.041,0.449-0.069,0.836-0.069c0.967,0,1.621,0.436,1.621,1.352C27.312,15.508,26.664,16.037,25.594,16.037z"/>
</g>
</svg>
