<svg xmlns="http://www.w3.org/2000/svg" width="32" height="32" viewBox="0 0 32 32"><path fill="#C8C8C8" d="M25.333 28.109c0 1.544-.345 1.891-1.894 1.891H8.557c-1.547 0-1.891-.347-1.891-1.891V3.893C6.667 2.346 7.01 2 8.557 2h14.882c1.549 0 1.894.346 1.894 1.893v24.216z"/><path fill="#FFF" d="M23.701 24.557H8.298V4.333h15.403v20.224z"/><path fill="#999" d="M15.997 29.064a1.689 1.689 0 0 1 0-3.376 1.687 1.687 0 1 1 0 3.373v.003z"/><path fill="#C8C8C8" d="M18.028 10.091c.409 2.436-2.958 5.798-2.958 5.798s2.278-3.526 1.767-6.119c-.512-2.591.903-5.437.903-5.437h2.561c-.004 0-2.196 3.808-1.784 6.247l-.489-.489z"/></svg>