<svg xmlns="http://www.w3.org/2000/svg" width="32" height="32" viewBox="0 0 32 32"><path fill="#E41414" d="M15.955 27.006c7.285 0 7.452-22.354 0-22.354-7.256 0-7.216 22.354 0 22.354m0-24.56c16.79 0 16.534 27.11 0 27.11-16.38.001-16.7-27.11 0-27.11"/><path fill="#AB0000" d="M15.955 30c-8.436 0-12.85-7.092-12.85-14.098 0-3.64 1.132-7.027 3.188-9.54C8.626 3.51 11.968 2 15.955 2c8.891 0 12.939 7.217 12.939 13.922 0 3.664-1.147 7.09-3.234 9.648-2.365 2.9-5.721 4.43-9.705 4.43zm0-27.11c-3.71 0-6.814 1.395-8.974 4.036C5.06 9.28 4 12.468 4 15.903c0 6.36 3.743 13.208 11.96 13.208 3.708 0 6.827-1.412 9.015-4.101 1.961-2.399 3.037-5.623 3.037-9.082 0-6.277-3.77-13.034-12.05-13.034l-.007-.004zm0 24.56c-4.034 0-5.872-6.036-5.872-11.645 0-2.984.494-5.77 1.39-7.846 1.063-2.46 2.61-3.758 4.48-3.758 4.104 0 5.972 5.976 5.972 11.527 0 3-.507 5.815-1.427 7.92-1.083 2.484-2.655 3.797-4.543 3.797v.005zm0-22.353c-1.88 0-3.03 1.75-3.664 3.216-.85 1.967-1.312 4.628-1.312 7.493 0 5.346 1.71 10.756 4.982 10.756 1.904 0 3.08-1.773 3.73-3.263.856-1.968 1.35-4.727 1.35-7.566 0-5.286-1.746-10.637-5.082-10.637h-.004z"/></svg>