<svg xmlns="http://www.w3.org/2000/svg" xmlns:xlink="http://www.w3.org/1999/xlink" width="32" height="32" viewBox="0 0 32 32">
    <symbol id="a" viewBox="-12.439 -16 24.879 32">
        <path d="M12.439-16h-24.879v32h24.879v-32zm-23.693 1.186h22.509v29.347h-22.509v-29.347z"/>
        <path fill="#fff" d="M-11.253-14.673h22.508v29.346h-22.508z"/>
        <g fill="#f00">
            <path d="M-9.351-9.346c-.229 0-.403.071-.529.155-.489.326-.56.708-.535.973.118 1.183 2.677 2.29 3.188 2.5l.287-.698c1.988 2.674 4.216 7.3 4.216 11.01h.764c0-5.145-4.205-12.419-6.646-13.725-.291-.157-.54-.215-.745-.215zm2.401 2.915c-1.272-.524-2.658-1.396-2.704-1.863-.003-.029-.012-.12.199-.261.123-.083.383.039.489.097.549.294 1.265 1.021 2.016 2.027zM-4.773-5.94l-.401.649c4.377 2.701 12.776 2.94 15.17 1.548.613-.354.729-.769.72-1.052-.022-.59-.31-.852-.547-.967-1.069-.518-3.356 1.075-3.803 1.402l.443.609c-3.321.289-8.427-.242-11.582-2.189zm11.601 2.187c1.113-.806 2.581-1.527 3.005-1.322.026.013.107.053.118.306.005.149-.236.306-.341.367-.536.311-1.531.54-2.782.649zM4.941-2.907c-4.471 2.539-8.723 9.786-8.653 12.553.017.707.323 1.01.577 1.138.525.264.894.138 1.109-.016.971-.688.671-3.458.601-4.007l-.749.098c1.344-3.052 4.267-7.272 7.492-9.104l-.377-.662zm-7.5 13.08c-.051 0-.124-.017-.234-.071-.134-.065-.154-.354-.158-.474-.015-.621.265-1.604.77-2.753.172 1.363.099 2.999-.286 3.271-.012.009-.038.027-.092.027z"/>
        </g>
    </symbol>
    <use xlink:href="#a" width="24.879" height="32" x="-12.439" y="-16" transform="matrix(1 0 0 -1 16 16)" overflow="visible"/>
</svg>