<?xml version="1.0" encoding="utf-8"?>
<!-- Generator: Adobe Illustrator 14.0.0, SVG Export Plug-In . SVG Version: 6.00 Build 43363)  -->
<!DOCTYPE svg PUBLIC "-//W3C//DTD SVG 1.1//EN" "http://www.w3.org/Graphics/SVG/1.1/DTD/svg11.dtd">
<svg version="1.1" id="Layer_1" xmlns="http://www.w3.org/2000/svg" xmlns:xlink="http://www.w3.org/1999/xlink" x="0px" y="0px"
	 width="32px" height="32px" viewBox="0 0 32 32" enable-background="new 0 0 32 32" xml:space="preserve">
<g>
	<path fill="#777777" d="M28.44,31.999H3.561V0H28.44V31.999z M4.747,30.813h22.509V1.467H4.747V30.813z"/>
	<path fill="#FFFFFF" d="M4.748,30.672h22.507V1.328H4.748V30.672z"/>
	<path fill="#FF0000" d="M6.651,25.346c-0.23,0-0.404-0.069-0.53-0.154c-0.49-0.32-0.56-0.702-0.535-0.971
		c0.118-1.18,2.677-2.29,3.188-2.5l0.287,0.7c1.987-2.675,4.215-7.301,4.215-11.011h0.764c0,5.144-4.205,12.42-6.646,13.724
		c-0.29,0.158-0.54,0.216-0.745,0.216L6.651,25.346z M9.051,22.431c-1.272,0.53-2.658,1.4-2.704,1.87
		c-0.003,0.03-0.012,0.12,0.2,0.26c0.122,0.083,0.382-0.039,0.488-0.097c0.55-0.294,1.265-1.02,2.016-2.027V22.431z M11.228,21.941
		l-0.4-0.65c4.375-2.701,12.773-2.941,15.169-1.541c0.61,0.354,0.728,0.77,0.72,1.052c-0.023,0.59-0.31,0.851-0.55,0.966
		c-1.066,0.515-3.354-1.079-3.8-1.405l0.442-0.61c-3.326-0.288-8.43,0.243-11.587,2.19L11.228,21.941z M22.827,19.759
		c1.115,0.801,2.583,1.521,3.007,1.319c0.026-0.017,0.107-0.056,0.118-0.311c0.006-0.149-0.235-0.31-0.34-0.369
		c-0.536-0.311-1.53-0.54-2.782-0.65L22.827,19.759z M20.94,18.91c-4.47-2.543-8.72-9.79-8.65-12.557
		c0.017-0.706,0.323-1.01,0.577-1.138c0.525-0.264,0.894-0.138,1.11,0.017c0.97,0.689,0.67,3.46,0.6,4.009l-0.75-0.101
		c1.343,3.05,4.267,7.27,7.493,9.104l-0.377,0.662L20.94,18.91z M13.44,5.831c-0.05,0-0.12,0.016-0.23,0.07
		c-0.135,0.064-0.155,0.354-0.16,0.474c-0.015,0.62,0.265,1.604,0.77,2.753c0.17-1.363,0.1-3-0.286-3.27
		c-0.012-0.011-0.038-0.028-0.092-0.028L13.44,5.831z"/>
</g>
</svg>
