<?xml version="1.0" encoding="utf-8"?>
<!-- Generator: Adobe Illustrator 14.0.0, SVG Export Plug-In . SVG Version: 6.00 Build 43363)  -->
<!DOCTYPE svg PUBLIC "-//W3C//DTD SVG 1.1//EN" "http://www.w3.org/Graphics/SVG/1.1/DTD/svg11.dtd">
<svg version="1.1" id="Layer_1" xmlns="http://www.w3.org/2000/svg" xmlns:xlink="http://www.w3.org/1999/xlink" x="0px" y="0px"
	 width="32px" height="32px" viewBox="0 0 32 32" enable-background="new 0 0 32 32" xml:space="preserve">
<g>
	<g>
		<g>
			<path fill="#999999" d="M29.603,11.899l-7.695-0.01c-0.219,0-0.395,0.114-0.395,0.254L21.505,14v0.001
				c-0.002,0.14,0.178,0.253,0.397,0.253l7.694,0.009c0.221,0.001,0.398-0.114,0.398-0.254L30,12.152
				C30,12.014,29.822,11.9,29.603,11.899z"/>
			<path fill="#999999" d="M10.488,13.991l0.003-1.858c0-0.14-0.178-0.254-0.397-0.254L2.4,11.871c-0.221,0-0.4,0.114-0.4,0.253
				v1.861v-0.004c0,0.139,0.177,0.254,0.396,0.254l7.697,0.009C10.312,14.245,10.488,14.131,10.488,13.991z"/>
		</g>
		<path fill="#999999" d="M27.836,8.359c-1.521-0.794-6.626-1.299-11.866-1.293C10.729,7.061,5.625,7.565,4.103,8.359
			c-1.647,0.858-1.579,3.088-1.579,3.088l7.433,0.008c0.019-0.708,0.021-2.056,6.013-2.133c5.991,0.077,5.994,1.426,6.013,2.133
			l7.433-0.008C29.415,11.447,29.483,9.218,27.836,8.359z"/>
	</g>
	<g>
		<rect x="17.054" y="10.067" fill="#C8C8C8" width="1.822" height="4.777"/>
		<rect x="13.123" y="10.067" fill="#C8C8C8" width="1.822" height="4.777"/>
	</g>
	<path fill="#B4B4B4" d="M5.998,20.169v4.765h20.428v-4.765c0-4.46-4.918-6.694-10.428-6.694
		C10.489,13.475,5.998,15.708,5.998,20.169z"/>
	<path fill="#FFFFFF" d="M19.882,19.215c0,2.061-1.67,3.73-3.731,3.73c-2.056,0-3.728-1.666-3.728-3.73
		c0-2.06,1.671-3.731,3.727-3.731C18.21,15.484,19.882,17.155,19.882,19.215z"/>
	<path fill="#999999" d="M19.583,19.215c0,0.456-0.37,0.822-0.822,0.822c-0.457,0-0.824-0.368-0.824-0.822s0.369-0.822,0.822-0.822
		c0.456-0.002,0.821,0.368,0.821,0.822H19.583z M14.366,19.215c0,0.456-0.369,0.822-0.824,0.822c-0.456,0-0.823-0.368-0.823-0.822
		s0.367-0.822,0.823-0.822c0.455-0.002,0.83,0.368,0.83,0.822H14.366z M18.575,16.789c0.323,0.321,0.323,0.843,0,1.164
		c-0.319,0.321-0.843,0.321-1.163,0c-0.322-0.321-0.322-0.844,0-1.164C17.732,16.466,18.256,16.466,18.575,16.789z M14.889,20.476
		c0.324,0.321,0.324,0.844,0,1.164c-0.32,0.323-0.842,0.323-1.164,0c-0.324-0.32-0.324-0.843,0-1.164
		C14.049,20.154,14.569,20.154,14.889,20.476z M18.575,21.64c-0.319,0.323-0.843,0.323-1.163,0c-0.322-0.32-0.322-0.843,0-1.164
		c0.32-0.321,0.844-0.321,1.163,0C18.9,20.797,18.9,21.319,18.575,21.64z M14.889,17.955c-0.321,0.319-0.842,0.319-1.164,0
		c-0.324-0.323-0.324-0.846,0-1.164c0.321-0.323,0.842-0.323,1.164-0.002C15.211,17.11,15.214,17.634,14.889,17.955z M16.148,17.432
		c-0.454,0-0.822-0.369-0.822-0.82c0-0.456,0.369-0.824,0.822-0.824c0.457,0,0.826,0.37,0.826,0.824
		C16.974,17.063,16.606,17.432,16.148,17.432L16.148,17.432z"/>
</g>
</svg>
