<?xml version="1.0" encoding="utf-8"?>
<!-- Generator: Adobe Illustrator 14.0.0, SVG Export Plug-In . SVG Version: 6.00 Build 43363)  -->
<!DOCTYPE svg PUBLIC "-//W3C//DTD SVG 1.1//EN" "http://www.w3.org/Graphics/SVG/1.1/DTD/svg11.dtd">
<svg version="1.1" id="Layer_1" xmlns="http://www.w3.org/2000/svg" xmlns:xlink="http://www.w3.org/1999/xlink" x="0px" y="0px"
	 width="32px" height="32px" viewBox="0 0 32 32" enable-background="new 0 0 32 32" xml:space="preserve">
<g>
	<polygon fill="#FFFFFF" points="14.104,29.563 14.104,17.896 2.437,17.896 2.437,14.104 14.104,14.104 14.104,2.438 17.896,2.438 
		17.896,14.104 29.562,14.104 29.562,17.896 17.896,17.896 17.896,29.563 	"/>
	<path fill="#C8C8C8" d="M17.459,2.875v10.792v0.875h0.875h10.791v2.917H18.334h-0.875v0.875v10.791h-2.917V18.334v-0.875h-0.875
		H2.875v-2.917h10.792h0.875v-0.875V2.875H17.459 M18.334,2h-4.667v11.667H2v4.667h11.667V30h4.667V18.334H30v-4.667H18.334V2
		L18.334,2z"/>
</g>
</svg>
