<?xml version="1.0" encoding="utf-8"?>
<!-- Generator: Adobe Illustrator 14.0.0, SVG Export Plug-In . SVG Version: 6.00 Build 43363)  -->
<!DOCTYPE svg PUBLIC "-//W3C//DTD SVG 1.1//EN" "http://www.w3.org/Graphics/SVG/1.1/DTD/svg11.dtd">
<svg version="1.1" id="Layer_1" xmlns="http://www.w3.org/2000/svg" xmlns:xlink="http://www.w3.org/1999/xlink" x="0px" y="0px"
	 width="32px" height="32px" viewBox="0 0 32 32" enable-background="new 0 0 32 32" xml:space="preserve">
<g>
	<path fill="#FFFFFF" d="M22,28H10V18h12V28z"/>
	<path fill="#777777" d="M8,2h16v4H8V2z M30,8H2c-1.1,0-2,0.9-2,2v10c0,1.1,0.9,2,2,2h6v8h16v-8h6c1.1,0,2-0.9,2-2V10
		C32,8.9,31.1,8,30,8 M22,28H10V18h12V28z"/>
	<path fill="none" d="M11.488,25.897h9.028"/>
	<path fill="#808080" d="M20.516,26.514h-9.028v-1.231h9.028V26.514z"/>
	<path fill="none" d="M11.488,23.437h9.028"/>
	<path fill="#808080" d="M20.516,24.052h-9.028v-1.229h9.028V24.052z"/>
	<path fill="none" d="M11.488,20.975h9.028"/>
	<path fill="#808080" d="M20.516,21.59h-9.028V20.36h9.028V21.59z"/>
</g>
</svg>
