<svg xmlns="http://www.w3.org/2000/svg" width="32" height="32" viewBox="0 0 32 32"><path fill="#C8C8C8" d="M28.156 7.946H3.844a1.74 1.74 0 0 0-1.736 1.736v8.681c0 .955.782 1.736 1.736 1.736h5.21v6.947h13.892V20.1h5.209a1.74 1.74 0 0 0 1.736-1.736V9.683a1.74 1.74 0 0 0-1.735-1.737"/><path fill="#FFF" d="M10.751 16.629h10.418v8.682H10.751z"/><path fill="#B4B4B4" d="M19.881 24.02h-7.837v-1.068h7.837v1.068zM19.881 21.883h-7.837v-1.066h7.837v1.066zM19.881 19.744h-7.837v-1.068h7.837v1.068zM9.271 4.953h13.457v3.039H9.271z"/></svg>