<svg xmlns="http://www.w3.org/2000/svg" xmlns:xlink="http://www.w3.org/1999/xlink" width="32" height="32" viewBox="0 0 32 32">
    <symbol id="a" viewBox="-16 -14 32 28">
        <path fill="#fff" d="M6-12h-12v10h12z"/>
        <path fill="#1A1A1A" d="M-8 14h16v-4h-16v4zm22-6h-28c-1.099 0-2-.9-2-2v-10c0-1.1.901-2 2-2h6v-8h16v8h6c1.101 0 2 .9 2 2v10c0 1.1-.899 2-2 2m-8-20h-12v10h12v-10z"/>
        <path fill="none" d="M-4.512-9.897h9.027"/>
        <path fill="#808080" d="M4.515-10.514h-9.027v1.232h9.027z"/>
        <path fill="none" d="M-4.512-7.437h9.027"/>
        <path fill="#808080" d="M4.515-8.052h-9.027v1.231h9.027z"/>
        <path fill="none" d="M-4.512-4.975h9.027"/>
        <path fill="#808080" d="M4.515-5.59h-9.027v1.231h9.027z"/>
    </symbol>
    <use xlink:href="#a" width="32" height="28" x="-16" y="-14" transform="matrix(1 0 0 -1 16 16)" overflow="visible"/>
</svg>