<svg xmlns="http://www.w3.org/2000/svg" width="32" height="32" viewBox="0 0 32 32"><circle fill="#0D7F0D" cx="16" cy="16" r="14"/><path fill="#00CF00" d="M27.527 14.532c0 6.14-5.16 11.116-11.53 11.116-6.365 0-11.524-4.976-11.524-11.116 0-6.139 5.159-11.114 11.524-11.114 6.37 0 11.53 4.975 11.53 11.114z"/><radialGradient id="a" cx="16" cy="14.533" r="10.082" gradientUnits="userSpaceOnUse"><stop offset=".891" stop-opacity="0"/><stop offset="1"/></radialGradient><path fill="url(#a)" d="M27.527 14.532c0 6.14-5.16 11.116-11.53 11.116-6.365 0-11.524-4.976-11.524-11.116 0-6.139 5.159-11.114 11.524-11.114 6.37 0 11.53 4.975 11.53 11.114z"/></svg>