<svg xmlns="http://www.w3.org/2000/svg" width="32" height="32" viewBox="0 0 32 32">
    <g>
        <path fill="#4E4E4E" d="M15.869 11.234c-.053 0-.106-.008-.159-.026-.262-.088-.403-.371-.315-.633l2.221-6.627c.081-.243.335-.384.582-.33l9.061 2.014c.27.06.439.327.38.597-.06.269-.324.439-.597.38l-8.621-1.916-2.078 6.2c-.07.21-.265.341-.474.341z"/>
        <path fill="#fff" d="M25.756 8.232c-1.182 0-2.144-.961-2.144-2.143s.962-2.143 2.144-2.143c1.181 0 2.142.961 2.142 2.143s-.961 2.143-2.142 2.143z"/>
        <path fill="#232323" d="M25.756 4.447c.906 0 1.642.735 1.642 1.643 0 .906-.735 1.643-1.642 1.643-.908 0-1.644-.736-1.644-1.643s.736-1.643 1.644-1.643m0-1c-1.458 0-2.644 1.186-2.644 2.643s1.186 2.643 2.644 2.643c1.457 0 2.642-1.186 2.642-2.643s-1.185-2.643-2.642-2.643z"/>
        <circle fill="#fff" cx="4.62" cy="15.164" r="2.62"/>
        <path fill="#232323" d="M4.62 18.284c-1.72 0-3.12-1.4-3.12-3.12s1.4-3.12 3.12-3.12 3.12 1.4 3.12 3.12-1.4 3.12-3.12 3.12zm0-5.24c-1.169 0-2.12.951-2.12 2.12s.951 2.12 2.12 2.12 2.12-.951 2.12-2.12-.951-2.12-2.12-2.12z"/>
        <circle fill="#fff" cx="27.38" cy="15.164" r="2.62"/>
        <path fill="#232323" d="M27.38 18.284c-1.721 0-3.12-1.4-3.12-3.12s1.399-3.12 3.12-3.12 3.12 1.4 3.12 3.12-1.399 3.12-3.12 3.12zm0-5.24c-1.169 0-2.12.951-2.12 2.12s.951 2.12 2.12 2.12 2.12-.951 2.12-2.12-.951-2.12-2.12-2.12z"/>
        <ellipse fill="#fff" cx="16" cy="19.714" rx="13.164" ry="8.339"/>
        <path fill="#232323" d="M16 28.553c-7.534 0-13.664-3.965-13.664-8.839 0-4.875 6.13-8.84 13.664-8.84s13.664 3.965 13.664 8.84c0 4.874-6.13 8.839-13.664 8.839zm0-16.679c-6.983 0-12.664 3.517-12.664 7.84 0 4.322 5.681 7.839 12.664 7.839s12.664-3.517 12.664-7.839c0-4.323-5.681-7.84-12.664-7.84zM16 25.501c-2.242 0-4.799-.481-5.455-1.558-.144-.236-.069-.544.167-.688.234-.144.543-.069.687.166.266.436 1.911 1.079 4.602 1.079s4.336-.644 4.602-1.079c.144-.236.449-.311.688-.166.235.144.31.451.166.688-.658 1.077-3.215 1.558-5.457 1.558z"/>
        <circle fill="#FF4500" cx="20.814" cy="17.527" r="2.199"/>
        <circle fill="#FF4500" cx="11.186" cy="17.527" r="2.199"/>
    </g>
</svg>