<?xml version="1.0" encoding="utf-8"?>
<!-- Generator: Adobe Illustrator 14.0.0, SVG Export Plug-In . SVG Version: 6.00 Build 43363)  -->
<!DOCTYPE svg PUBLIC "-//W3C//DTD SVG 1.1//EN" "http://www.w3.org/Graphics/SVG/1.1/DTD/svg11.dtd">
<svg version="1.1" id="Layer_1" xmlns="http://www.w3.org/2000/svg" xmlns:xlink="http://www.w3.org/1999/xlink" x="0px" y="0px"
	 width="32px" height="32px" viewBox="0 0 32 32" enable-background="new 0 0 32 32" xml:space="preserve">
<g>
	<path fill="#4E4E4E" d="M15.874,11.398c-0.053,0-0.104-0.008-0.155-0.025c-0.253-0.084-0.389-0.357-0.305-0.611l2.144-6.398
		c0.079-0.235,0.324-0.372,0.563-0.319l8.746,1.944c0.262,0.058,0.426,0.316,0.368,0.576c-0.058,0.255-0.313,0.418-0.575,0.367
		l-8.324-1.854l-2.008,5.987c-0.067,0.202-0.255,0.328-0.456,0.328L15.874,11.398z"/>
	<path fill="#FFFFFF" d="M25.42,8.5c-1.142,0-2.07-0.927-2.07-2.069s0.93-2.077,2.07-2.077c1.139,0,2.068,0.927,2.068,2.07
		c0,1.144-0.928,2.068-2.068,2.068V8.5z"/>
	<path fill="#232323" d="M25.42,4.846c0.875,0,1.586,0.709,1.586,1.586c0,0.875-0.71,1.586-1.586,1.586
		c-0.877,0-1.588-0.71-1.588-1.586C23.831,5.556,24.543,4.846,25.42,4.846 M25.42,3.88c-1.407,0-2.553,1.145-2.553,2.551
		c0,1.406,1.146,2.553,2.553,2.553c1.406,0,2.552-1.146,2.552-2.553C27.971,5.025,26.826,3.88,25.42,3.88z"/>
	<circle fill="#FFFFFF" cx="5.012" cy="15.193" r="2.53"/>
	<path fill="#232323" d="M5.012,18.206C3.351,18.206,2,16.853,2,15.193c0-1.661,1.352-3.013,3.013-3.013
		c1.66,0,3.013,1.352,3.013,3.013C8.026,16.853,6.672,18.206,5.012,18.206z M5.012,13.146c-1.129,0-2.046,0.917-2.046,2.047
		c0,1.13,0.917,2.048,2.046,2.048c1.13,0,2.047-0.918,2.047-2.048C7.059,14.063,6.142,13.146,5.012,13.146z"/>
	<circle fill="#FFFFFF" cx="26.988" cy="15.193" r="2.53"/>
	<path fill="#232323" d="M26.988,18.206c-1.66,0-3.013-1.354-3.013-3.014c0-1.661,1.353-3.013,3.013-3.013S30,13.532,30,15.192
		C30,16.853,28.648,18.206,26.988,18.206z M26.988,13.146c-1.13,0-2.048,0.917-2.048,2.047c0,1.13,0.918,2.048,2.048,2.048
		c1.129,0,2.047-0.918,2.047-2.048C29.035,14.063,28.117,13.146,26.988,13.146z"/>
	<ellipse fill="#FFFFFF" cx="16" cy="19.586" rx="12.71" ry="8.051"/>
	<path fill="#232323" d="M16,28.12c-7.273,0-13.193-3.828-13.193-8.534c0-4.707,5.92-8.536,13.193-8.536
		c7.274,0,13.192,3.829,13.192,8.536C29.192,24.292,23.274,28.12,16,28.12z M16,12.015c-6.742,0-12.227,3.397-12.227,7.571
		c0,4.173,5.484,7.567,12.227,7.567c6.744,0,12.229-3.396,12.229-7.567C28.228,15.413,22.744,12.015,16,12.015z M16,25.172
		c-2.165,0-4.634-0.463-5.267-1.502c-0.139-0.229-0.067-0.525,0.162-0.666c0.226-0.137,0.524-0.065,0.663,0.162
		c0.251,0.421,1.845,1.041,4.441,1.041c2.598,0,4.183-0.622,4.441-1.041c0.137-0.226,0.435-0.299,0.666-0.16
		c0.225,0.139,0.301,0.435,0.158,0.666C20.634,24.709,18.167,25.172,16,25.172z"/>
	<circle fill="#FF4500" cx="20.649" cy="17.475" r="2.123"/>
	<circle fill="#FF4500" cx="11.352" cy="17.475" r="2.123"/>
</g>
</svg>
