<svg xmlns="http://www.w3.org/2000/svg" width="32" height="32" viewBox="0 0 32 32"><path fill="#FFF" d="M4.26 23.468A4.265 4.265 0 0 0 0 27.721c0 2.35 1.91 4.242 4.26 4.242 2.358 0 4.265-1.896 4.265-4.242a4.264 4.264 0 0 0-4.265-4.253zM.004 10.872v6.135c3.995 0 7.75 1.562 10.577 4.392C13.41 24.217 14.97 27.992 14.97 32h6.16c0-11.65-9.48-21.128-21.122-21.128H.004zM.012 0v6.137C14.254 6.137 25.85 17.74 25.85 32H32C32 14.36 17.648 0 .012 0z"/><g fill="#B4B4B4"><path d="M1.576 12.507c9.53.76 17.154 8.392 17.917 17.923L21.126 32c0-11.65-9.48-21.128-21.122-21.128"/><path d="M32 32C32 14.36 17.648 0 .012 0l1.57 1.61c15.527.795 28.016 13.288 28.809 28.82L32 32zM8.028 25.721c-1.097-2.063-3.68-2.859-5.763-1.754 0 0 .077-.012.19-.021.307-.069.624-.111.95-.111 2.4 0 4.346 1.943 4.346 4.344 0 1.256-.54 2.381-1.39 3.17-.06.078-.1.123-.1.123a4.27 4.27 0 0 0 2.062-2.453 4.227 4.227 0 0 0-.29-3.297h-.005z"/></g></svg>