<svg xmlns="http://www.w3.org/2000/svg" width="32" height="32" viewBox="0 0 32 32"><path fill="#231F20" d="M28.694 15.767c0 6.997-5.672 12.669-12.672 12.669S3.35 22.765 3.35 15.767 9.023 3.093 16.023 3.093s12.671 5.674 12.671 12.674z"/><path fill="#B3B3B3" d="M30.758 15.765c0 8.137-6.598 14.737-14.736 14.737-8.139 0-14.737-6.598-14.737-14.737 0-8.137 6.597-14.737 14.737-14.737s14.736 6.598 14.736 14.737z"/><path fill="#4D4D4D" d="M29.851 15.766c0 7.635-6.191 13.828-13.83 13.828-7.638 0-13.828-6.192-13.828-13.83S8.383 1.936 16.021 1.936c7.638 0 13.83 6.19 13.83 13.83z"/><path fill="#FFF" d="M28.694 15.765c0 7-5.672 12.669-12.672 12.669S3.35 22.765 3.35 15.765c0-6.998 5.673-12.67 12.673-12.67s12.671 5.67 12.671 12.67z"/><linearGradient id="a" gradientUnits="userSpaceOnUse" x1="14.828" y1="4.287" x2="17.237" y2="27.449"><stop offset=".34" stop-color="#003fe7"/><stop offset=".755" stop-color="#5fbae1"/></linearGradient><path fill="url(#a)" d="M27.666 15.766c0 6.408-5.215 11.604-11.645 11.604S4.377 22.177 4.377 15.766c0-6.409 5.214-11.605 11.644-11.605s11.645 5.193 11.645 11.605z"/><path fill="#FFF" d="M14.736 14.536l-6.94 9.454 9.456-6.938z"/><path fill="#E53A00" d="M17.252 17.052l.033-.025 6.963-9.487-9.488 6.963-.024.033z"/><path opacity=".2" d="M7.832 23.942l-.036.048 9.489-6.963 6.963-9.487-.049.035z"/><g fill="#FFF"><path d="M12.365 15.403l-5.238.974 5.323.248zM19.678 16.126l5.238-.974-5.322-.247zM16.384 12.108L15.41 6.87l-.247 5.323zM15.661 19.422l.974 5.238.248-5.322z"/></g></svg>