<svg xmlns="http://www.w3.org/2000/svg" width="32" height="32" viewBox="0 0 32 32"><path fill="#777" d="M20.983 18.738c2.877-4.132 2.529-9.922-1.064-13.641-3.994-4.13-10.463-4.13-14.456 0-3.993 4.13-3.993 10.826 0 14.955 3.593 3.719 9.189 4.078 13.184 1.104L27.196 30s.685-.143 1.492-.978c.815-.838.85-1.439.85-1.439l-8.55-8.845h-.005z"/><path fill="#FFF" d="M19.079 5.966c3.529 3.65 3.532 9.57.003 13.222-3.53 3.65-9.25 3.65-12.779 0-3.525-3.654-3.525-9.573 0-13.22 3.527-3.653 9.248-3.653 12.776-.002z"/><path fill="#E6E6E6" d="M17.677 5.29c2.676 2.768 2.675 7.258-.002 10.027a6.693 6.693 0 0 1-9.69 0C5.308 12.548 5.308 8.058 7.983 5.29a6.695 6.695 0 0 1 9.694 0z"/></svg>