<svg xmlns="http://www.w3.org/2000/svg" xmlns:xlink="http://www.w3.org/1999/xlink" width="32" height="32" viewBox="0 0 32 32"><symbol id="c" viewBox="-13.852 -5.808 27.703 11.617"><path fill="#ED1C24" d="M-2.396 3.433a4.428 4.428 0 0 1-.482.168l-.582.122a5.18 5.18 0 0 1-1.162.034l-1.16-.238a4.94 4.94 0 0 1-1.164-.565l-1.16-1.08C-8.563 1.282-9.06.806-9.06.806s-2.1.172-3.325-.806-1.467-1.828-1.467-2.76c0-.93.427-1.76 1.098-2.32 0 0 .744-.552 2.025-.729h21.208v.014c2.323.148 3.372 1.579 3.372 3.327 0 1.845-1.404 3.339-3.294 3.339-.485 0-.886-.1-1.309-.279-.301 2.93-2.804 5.217-5.884 5.217A5.948 5.948 0 0 1-.392 4.477c-.313-.321-.998-1.15-1.213-1.483l-.791.439z"/><path fill="#FFF" d="M-11.746-2.868c0-.801.367-1.517.945-1.999v3.999a2.6 2.6 0 0 1-.945-2m1.945 2.524v-5.049c.236-.063.485-.101.742-.101h.258v5.238a2.742 2.742 0 0 1-1-.088m2.209-.328a2.413 2.413 0 0 1-.209.121v-4.942h1v6.611a4.055 4.055 0 0 1-.791-1.79m1.791 2.719v-7.54h1v8.028a4.216 4.216 0 0 1-1-.488m2 .693v-8.233h1v8.205a4.663 4.663 0 0 1-.631.045c-.125 0-.248-.006-.369-.017m2.551-.58a4.351 4.351 0 0 1-1.051.446v-8.1h1.5v8.251a5.034 5.034 0 0 1-.449-.597m.949 1.097v-8.75h9.5v.012c2 .127 2.902 1.358 2.902 2.863 0 1.588-1.209 2.875-2.836 2.875-.418 0-.762-.087-1.125-.241-.26 2.522-2.414 4.491-5.066 4.491a5.136 5.136 0 0 1-3.375-1.25"/></symbol><use xlink:href="#c" width="27.703" height="11.617" x="-13.852" y="-5.808" transform="matrix(1.0107 0 0 -1.0107 16 16)" overflow="visible"/></svg>