<svg xmlns="http://www.w3.org/2000/svg" width="32" height="32" viewBox="0 0 32 32"><path fill="#FFF" d="M6.525 27.266h22.532V4.734H6.525v22.532z"/><path fill="#B4B4B4" d="M29.479 27.688H6.103V4.313h23.376v23.375zm-22.532-.844h21.688V5.156H6.947v21.688z"/><path fill="#999" d="M26.946 9.796h-4.468V7.115h4.468v2.681zm0 4.988h-4.468v-2.683h4.468v2.683zm0 4.987h-4.468v-2.683h4.468v2.683zm0 4.986h-4.468v-2.683h4.468v2.683zM20.243 9.792h-4.466v-2.68h4.466v2.68zm0 4.989h-4.466v-2.683h4.466v2.683zm0 4.987h-4.466v-2.682h4.466v2.682zm0 4.986h-4.466v-2.679h4.466v2.679z"/><path fill="#FFF" d="M2.943 27.266l12.931 2.233V2.5L2.943 4.734v22.532z"/><path fill="#B4B4B4" d="M16.296 30L2.521 27.621V4.379L16.296 2v28zM3.365 26.911L15.452 29V3.001L3.365 5.089v21.822z"/><g><path fill="#00BF16" d="M14.435 10.71h-2.682l-2.344 4.199-2.345-4.2H4.381l3.906 5.876-3.91 5.881H7.06l2.342-4.201 2.344 4.201h2.684l-3.908-5.875 3.913-5.881z"/></g></svg>