<svg xmlns="http://www.w3.org/2000/svg" xmlns:xlink="http://www.w3.org/1999/xlink" width="32" height="32" viewBox="0 0 32 32">
    <symbol id="a" viewBox="-10.577 -14 21.154 28">
        <path fill="#818185" d="M4.946-2.833v-9.426h-13.747v9.426h-1.776v-11.167h17.3v11.167zM3.618-10.268h-11.091v2.31h11.091z"/>
        <path fill="#A68A6E" d="M3.424-7.158l-11.052.932.194 2.303 11.052-.933z"/>
        <path fill="#C09553" d="M3.526-4.144l-10.707 2.893.603 2.23 10.707-2.892z"/>
        <path fill="#D38B28" d="M4.438-1.36l-9.576 5.593 1.165 1.996 9.577-5.595z"/>
        <path fill="#FD8A07" d="M6.133 1.197l-6.482 9 1.875 1.351 6.482-9z"/>
        <path fill="#FE7A15" d="M8.304 2.677l-1.962 10.916 2.274.407 1.961-10.916z"/>
    </symbol>
    <use xlink:href="#a" width="21.154" height="28" x="-10.577" y="-14" transform="matrix(1 0 0 -1 16 16)" overflow="visible"/>
</svg>