<svg xmlns="http://www.w3.org/2000/svg" width="32" height="96" viewBox="0 0 32 96">
  <path fill="#C8C8C8" d="M24.565 28.545L16 22.56l-8.566 5.985 3.048-10.083L2 12.1h10.594L16 2l3.406 10.1H30l-8.481 6.362 3.046 10.083z"/>
  <path fill="#F5EB16" d="M16 3.413l3.082 9.138h9.564l-7.652 5.739 2.763 9.138L16 22.009l-7.757 5.419 2.763-9.138-7.651-5.739h9.563z"/>
  <path fill="#C8C8C8" d="M24.565 94L16 88.015 7.434 94l3.048-10.083L2 77.555h10.594L16 67.455l3.406 10.1H30l-8.481 6.362L24.565 94z"/>
</svg>