<svg xmlns="http://www.w3.org/2000/svg" width="32" height="32" viewBox="0 0 32 32">
    <path fill="#00f" d="M14.052 20.864c.076-2.275-1.844-4.229-4.28-4.355l-.917-.049c-.885-.045-1.634-.778-1.634-1.602 0-.796.737-1.48 1.599-1.48h6.023c.861 0 1.526.737 1.526 1.599v5.543c0 2.454 1.997 4.45 4.451 4.45h.728c2.454 0 4.451-1.996 4.451-4.45v-18.63c-.108-.006-.211-.032-.32-.032h-2.569v18.661c0 .861-.7 1.561-1.562 1.561h-.728c-.861 0-1.562-.699-1.562-1.561v-5.543c0-2.454-1.997-4.452-4.453-4.452h-6.02c-2.454 0-4.452 1.945-4.452 4.333 0 2.35 1.962 4.363 4.372 4.487l.917.049c.861.046 1.567.674 1.544 1.376-.023.711-.781 1.31-1.654 1.31h-9.512v2.89h9.511c2.428 0 4.465-1.842 4.541-4.105z"/>
    <path fill="#84C341" d="M14.052 19.008c.076-2.276-1.844-4.23-4.28-4.356l-.917-.049c-.884-.045-1.633-.779-1.633-1.603 0-.795.737-1.48 1.599-1.48h6.023c.861 0 1.526.737 1.526 1.599v5.543c0 2.454 1.997 4.449 4.451 4.449h.728c2.454 0 4.451-1.995 4.451-4.449v-18.63c-.108-.006-.211-.032-.32-.032h-2.57v18.662c0 .86-.7 1.561-1.562 1.561h-.728c-.861 0-1.562-.7-1.562-1.561v-5.543c0-2.455-1.997-4.452-4.453-4.452h-6.02c-2.454 0-4.452 1.945-4.452 4.333 0 2.349 1.962 4.363 4.372 4.488l.917.049c.861.045 1.567.673 1.544 1.375-.023.71-.781 1.311-1.654 1.311h-9.512v2.889h9.511c2.428-.001 4.465-1.842 4.541-4.104z"/>
    <path fill="#fff" d="M20.821 23.79c-2.316 0-4.201-1.885-4.201-4.2v-5.542c0-1.02-.797-1.849-1.776-1.849h-6.023c-1.002 0-1.849.792-1.849 1.73 0 .953.857 1.801 1.871 1.852l.916.049c2.301.119 4.115 1.958 4.043 4.098-.072 2.129-1.997 3.862-4.291 3.862h-9.261v-2.39h9.261c1.005 0 1.876-.711 1.904-1.552.028-.833-.788-1.581-1.781-1.633l-.916-.05c-2.281-.116-4.135-2.018-4.135-4.237 0-2.251 1.885-4.083 4.202-4.083h6.022c2.317 0 4.203 1.885 4.203 4.202v5.542c0 .999.813 1.811 1.812 1.811h.728c.999 0 1.812-.812 1.812-1.811v-18.41h2.319c.023 0 .047.001.07.004v18.407c0 2.315-1.885 4.2-4.201 4.2h-.729z"/>
    <path fill="#666" d="M25.5 1.429v18.161c0 2.178-1.772 3.95-3.951 3.95h-.728c-2.179 0-3.951-1.772-3.951-3.95v-5.542c0-1.158-.909-2.1-2.026-2.1h-6.023c-1.138 0-2.099.907-2.099 1.98 0 1.081.965 2.044 2.107 2.102l.917.049c2.166.112 3.873 1.835 3.806 3.84-.067 1.996-1.88 3.621-4.042 3.621h-9.01v-1.89h9.011c1.155 0 2.122-.805 2.153-1.793.033-.982-.872-1.831-2.016-1.891l-.918-.05c-2.149-.11-3.897-1.899-3.897-3.988 0-2.113 1.773-3.833 3.952-3.833h6.022c2.179 0 3.953 1.772 3.953 3.952v5.542c0 1.136.924 2.061 2.062 2.061h.728c1.137 0 2.063-.925 2.063-2.061v-18.16h1.887m.18-.5h-2.568v18.661c0 .862-.701 1.561-1.563 1.561h-.728c-.861 0-1.562-.698-1.562-1.561v-5.542c0-2.455-1.997-4.452-4.453-4.452h-6.021c-2.454 0-4.452 1.944-4.452 4.333 0 2.35 1.962 4.364 4.372 4.487l.917.05c.861.045 1.567.673 1.544 1.375-.023.71-.781 1.31-1.654 1.31h-9.512v2.89h9.511c2.428 0 4.465-1.842 4.541-4.104.076-2.275-1.844-4.229-4.28-4.355l-.917-.049c-.885-.045-1.634-.778-1.634-1.603 0-.795.737-1.48 1.599-1.48h6.023c.861 0 1.526.737 1.526 1.6v5.542c0 2.455 1.997 4.45 4.451 4.45h.728c2.455 0 4.451-1.995 4.451-4.45v-18.631c-.107-.006-.21-.032-.319-.032z"/>
</svg>