<?xml version="1.0" encoding="utf-8"?>
<!-- Generator: Adobe Illustrator 14.0.0, SVG Export Plug-In . SVG Version: 6.00 Build 43363)  -->
<!DOCTYPE svg PUBLIC "-//W3C//DTD SVG 1.1//EN" "http://www.w3.org/Graphics/SVG/1.1/DTD/svg11.dtd">
<svg version="1.1" id="Layer_1" xmlns="http://www.w3.org/2000/svg" xmlns:xlink="http://www.w3.org/1999/xlink" x="0px" y="0px"
	 width="32px" height="32px" viewBox="0 0 32 32" enable-background="new 0 0 32 32" xml:space="preserve">
<g transform="matrix(1 0 0 -1 15.999 16.143)">
</g>
<path fill="#999999" d="M32,28.143c0,2.211-1.792,4-4,4H4c-2.21,0-4-1.789-4-4v-24c0-2.21,1.79-4,4-4h24c2.208,0,4,1.79,4,4V28.143z
	"/>
<g transform="matrix(.938 0 0 -.938 15.999 16.143)">
</g>
<path fill="#F2F2F2" d="M31,27.393c0,2.07-1.68,3.75-3.75,3.75H4.75c-2.072,0-3.75-1.68-3.75-3.75v-22.5
	c0-2.07,1.678-3.75,3.75-3.75h22.5c2.07,0,3.75,1.68,3.75,3.75V27.393z"/>
<path fill="#58B632" d="M32,28.143c0,2.211-1.792,4-4,4H4c-2.21,0-4-1.789-4-4v-24c0-2.21,1.79-4,4-4h24c2.208,0,4,1.79,4,4V28.143z
	 M32,28.143c0,2.211-1.792,4-4,4H4c-2.21,0-4-1.789-4-4v-24c0-2.21,1.79-4,4-4h24c2.208,0,4,1.79,4,4V28.143z M31,27.393
	c0,2.07-1.68,3.75-3.75,3.75H4.75c-2.072,0-3.75-1.68-3.75-3.75v-22.5c0-2.07,1.678-3.75,3.75-3.75h22.5c2.07,0,3.75,1.68,3.75,3.75
	V27.393z M31,27.393c0,2.07-1.68,3.75-3.75,3.75H4.75c-2.072,0-3.75-1.68-3.75-3.75v-22.5c0-2.07,1.678-3.75,3.75-3.75h22.5
	c2.07,0,3.75,1.68,3.75,3.75V27.393z"/>
<path fill="none" d="M32,28.002c0,2.141-1.734,3.875-3.874,3.875H4.876C2.736,31.877,1,30.143,1,28.002V4.752
	C1,2.61,2.737,0.875,4.877,0.875h23.25C30.268,0.875,32,2.61,32,4.75V28.002z"/>
<g>
	<defs>
		<path id="SVGID_1_" d="M31.5,27.768c0,2.141-1.734,3.875-3.874,3.875H4.376c-2.14,0-3.876-1.734-3.876-3.875V4.518
			c0-2.143,1.737-3.878,3.877-3.878h23.25c2.141,0,3.875,1.734,3.875,3.875v23.25L31.5,27.768z"/>
	</defs>
	<clipPath id="SVGID_2_">
		<use xlink:href="#SVGID_1_"  overflow="visible"/>
	</clipPath>
	<path clip-path="url(#SVGID_2_)" fill="#FFFFFF" d="M28-0.142H9.524c-0.09,0.06-0.192,0.11-0.282,0.17
		C6.308,2.29,3.98,5.395,3.62,8.88c-0.09,0.572-0.15,1.15-0.15,1.743c0,3.633,1.75,6.924,4.58,9.38V27.8l6.58-4.286
		c1.782,0.521,3.698,0.82,5.703,0.82c4.534,0,8.64-1.463,11.67-3.83V3.857c0-2.21-1.79-4-4-4L28-0.142z M30.693,12.3
		c-1.36,3.277-5.555,5.742-10.36,5.742c-4.806,0-9-2.458-10.357-5.73c-0.136-0.546-0.208-1.11-0.208-1.69
		c0-4.093,3.523-7.51,8.23-8.376c0.757-0.127,1.534-0.2,2.334-0.2c0.807,0,1.59,0.075,2.348,0.204
		c4.699,0.87,8.213,4.283,8.213,8.37c0,0.575-0.074,1.135-0.203,1.68H30.693z"/>
</g>
</svg>
