<svg xmlns="http://www.w3.org/2000/svg" width="32" height="32" viewBox="0 0 32 32"><path fill="#999" d="M32 28.143a4 4 0 0 1-4 4H4c-2.21 0-4-1.789-4-4v-24c0-2.21 1.79-4 4-4h24a4 4 0 0 1 4 4v24z"/><path fill="#58B632" d="M32 28.143a4 4 0 0 1-4 4H4c-2.21 0-4-1.789-4-4v-24c0-2.21 1.79-4 4-4h24a4 4 0 0 1 4 4v24z"/><path fill="#58B632" d="M32 28.143a4 4 0 0 1-4 4H4c-2.21 0-4-1.789-4-4v-24c0-2.21 1.79-4 4-4h24a4 4 0 0 1 4 4v24z"/><path fill="#FFF" d="M28 .143H9.286a.728.728 0 0 0-.047.028C6.305 2.434 3.977 5.539 3.617 9.023a11.17 11.17 0 0 0-.149 1.743c0 3.633 1.75 6.924 4.579 9.38v7.797l6.58-4.286c1.782.521 3.698.82 5.703.82 4.534 0 8.641-1.463 11.67-3.83V4.143a4 4 0 0 0-4-4zm2.69 12.3c-1.36 3.277-5.555 5.742-10.36 5.742s-9-2.458-10.356-5.73a6.923 6.923 0 0 1-.208-1.69c0-4.093 3.522-7.51 8.229-8.376.757-.127 1.534-.2 2.334-.2.808 0 1.59.075 2.349.204 4.698.87 8.213 4.283 8.213 8.37 0 .575-.074 1.135-.203 1.68h.002z"/></svg>