<svg xmlns="http://www.w3.org/2000/svg" width="32" height="32" viewBox="0 0 32 32"><path fill="#324F6D" d="M21.266 25.395c-.956.204-4.533.583-4.533-3.397v-8.434h6.994V9.42h-6.994V2.483h-3.297a8.508 8.508 0 0 1-5.854 7.569v3.513h3.561v11.211s-.067 4.741 6.412 4.741c4.211 0 6.866-1.058 6.866-1.058v-4.232c0 .001-.131.521-3.155 1.168z"/><path fill="#FFF" d="M17.554 30c-2.397 0-4.227-.623-5.439-1.853-1.464-1.485-1.456-3.302-1.455-3.378V14.048H7.099V9.702l.333-.108c3.107-1.011 5.326-3.88 5.522-7.139L12.982 2h4.235v6.938h6.994v5.108h-6.994v7.951c0 2.011.98 3.03 2.916 3.03.491 0 .887-.073 1.033-.104 2.436-.521 2.834-.932 2.85-.949l.182.166.706.088v4.56l-.304.122c-.112.043-2.791 1.09-7.046 1.09zM8.065 13.082h3.561v11.694c0 .02.005 1.515 1.188 2.705 1.025 1.03 2.62 1.553 4.74 1.553 3.26 0 5.584-.654 6.384-.916v-2.997c-.515.224-1.317.478-2.57.746a6.156 6.156 0 0 1-1.235.126c-2.468 0-3.882-1.457-3.882-3.996V13.08h6.994V9.903h-6.994V2.965h-2.372a9.053 9.053 0 0 1-5.814 7.43v2.687z"/></svg>