<?xml version="1.0" encoding="utf-8"?>
<!-- Generator: Adobe Illustrator 14.0.0, SVG Export Plug-In . SVG Version: 6.00 Build 43363)  -->
<!DOCTYPE svg PUBLIC "-//W3C//DTD SVG 1.1//EN" "http://www.w3.org/Graphics/SVG/1.1/DTD/svg11.dtd">
<svg version="1.1" id="Layer_1" xmlns="http://www.w3.org/2000/svg" xmlns:xlink="http://www.w3.org/1999/xlink" x="0px" y="0px"
	 width="32px" height="32px" viewBox="0 0 32 32" enable-background="new 0 0 32 32" xml:space="preserve">
<path fill="#2AA9E0" d="M30,7.316c-1.029,0.457-2.137,0.766-3.3,0.905c1.187-0.71,2.098-1.83,2.526-3.172
	c-1.11,0.658-2.341,1.136-3.648,1.394c-1.049-1.117-2.54-1.814-4.193-1.814c-3.172,0-5.744,2.572-5.744,5.744
	c0,0.45,0.057,0.89,0.15,1.31c-4.77-0.24-9.003-2.53-11.84-6.005c-0.49,0.848-0.78,1.835-0.78,2.888c0,1.993,1.02,3.75,2.56,4.78
	c-0.94-0.03-1.83-0.287-2.6-0.717c0,0.024,0,0.048,0,0.072c0,2.782,1.98,5.104,4.608,5.632c-0.482,0.13-0.99,0.2-1.514,0.2
	c-0.37,0-0.73-0.034-1.08-0.102c0.73,2.282,2.85,3.942,5.365,3.989c-1.967,1.54-4.444,2.46-7.136,2.46
	c-0.465,0-0.923-0.027-1.37-0.08c2.54,1.631,5.56,2.58,8.804,2.58c10.566,0,16.344-8.754,16.344-16.345
	c0-0.25-0.006-0.497-0.02-0.743c1.127-0.812,2.1-1.825,2.87-2.977H30z"/>
</svg>
