<svg xmlns="http://www.w3.org/2000/svg" width="32" height="32" viewBox="0 0 32 32"><path fill="#2AA9E0" d="M11.151 27.084c-3.014 0-5.942-.857-8.47-2.482a.467.467 0 1 1 .307-.856c.395.049.806.072 1.223.072 1.936 0 3.782-.523 5.403-1.521a5.825 5.825 0 0 1-4.194-3.889.468.468 0 0 1 .532-.601c.098.02.198.035.298.049a5.85 5.85 0 0 1-2.733-4.938c0-.166.087-.353.23-.437a.571.571 0 0 1 .283-.084c.063 0 .124.014.18.045.212.119.434.22.662.305a5.816 5.816 0 0 1-.528-6.619.467.467 0 0 1 .367-.232l.038-.001a.47.47 0 0 1 .361.171 14.835 14.835 0 0 0 10.129 5.394 5.834 5.834 0 0 1 5.782-6.544c1.516 0 2.984.598 4.068 1.651a10.267 10.267 0 0 0 3.014-1.194.463.463 0 0 1 .528.037.47.47 0 0 1 .154.507 5.788 5.788 0 0 1-1.109 1.991c.408-.123.808-.271 1.196-.444a.464.464 0 0 1 .547.126.467.467 0 0 1 .032.56 11.3 11.3 0 0 1-2.59 2.747c.006.154.009.31.009.466.004 7.727-5.878 15.721-15.719 15.721z"/><path fill="#FFF" d="M21.023 5.382c1.543 0 2.935.65 3.914 1.693a10.772 10.772 0 0 0 3.405-1.301 5.356 5.356 0 0 1-2.358 2.961 10.684 10.684 0 0 0 3.08-.845v-.001h.002a10.872 10.872 0 0 1-2.679 2.779c.014.23.02.46.02.694 0 7.085-5.394 15.255-15.256 15.255-3.028 0-5.847-.885-8.218-2.408a10.766 10.766 0 0 0 7.94-2.221 5.364 5.364 0 0 1-5.007-3.723 5.406 5.406 0 0 0 2.421-.092 5.367 5.367 0 0 1-4.301-5.257v-.068a5.32 5.32 0 0 0 2.427.67 5.365 5.365 0 0 1-2.39-4.462c0-.983.271-1.904.729-2.696 2.648 3.244 6.599 5.381 11.051 5.605a5.36 5.36 0 0 1 5.22-6.583m0-.933a6.302 6.302 0 0 0-6.291 6.485 14.378 14.378 0 0 1-9.259-5.163.93.93 0 0 0-1.53.123 6.283 6.283 0 0 0-.156 6.043.93.93 0 0 0-.735.912v.068a6.31 6.31 0 0 0 2.129 4.716c-.004.004-.009.008-.013.014a.931.931 0 0 0-.191.904 6.288 6.288 0 0 0 3.478 3.848 9.802 9.802 0 0 1-4.243.953c-.398 0-.791-.023-1.167-.068a.933.933 0 0 0-.615 1.713 16.11 16.11 0 0 0 8.723 2.555c10.134 0 16.188-8.23 16.188-16.189l-.001-.242a11.755 11.755 0 0 0 2.504-2.712.934.934 0 0 0-.989-1.428c.15-.295.277-.604.378-.922a.931.931 0 0 0-.889-1.217.927.927 0 0 0-.476.13 9.797 9.797 0 0 1-2.641 1.083 6.328 6.328 0 0 0-4.204-1.606z"/></svg>