<svg xmlns="http://www.w3.org/2000/svg" width="32" height="32" viewBox="0 0 32 32">
    <path fill="#2AA9E0" d="M30 7.316c-1.03.457-2.137.766-3.299.905 1.186-.711 2.097-1.837 2.525-3.178-1.11.658-2.34 1.136-3.648 1.394-1.048-1.117-2.54-1.814-4.193-1.814-3.172 0-5.744 2.572-5.744 5.744 0 .45.051.889.148 1.309-4.774-.239-9.007-2.526-11.84-6.002-.494.848-.778 1.835-.778 2.888 0 1.993 1.014 3.751 2.556 4.781-.941-.03-1.828-.288-2.602-.718 0 .024 0 .048 0 .072 0 2.783 1.98 5.105 4.608 5.633-.482.131-.99.201-1.514.201-.37 0-.73-.036-1.081-.104.731 2.283 2.852 3.943 5.366 3.989-1.966 1.542-4.443 2.46-7.135 2.46-.463 0-.921-.027-1.37-.08 2.542 1.63 5.562 2.58 8.806 2.58 10.566 0 16.345-8.753 16.345-16.344 0-.249-.006-.497-.017-.743 1.123-.809 2.097-1.821 2.867-2.973z"/>
</svg>