<svg xmlns="http://www.w3.org/2000/svg" width="32" height="32" viewBox="0 0 32 32"><path fill="#FFF" d="M15.095 13.899a4.826 4.826 0 1 0 9.648-.002 4.826 4.826 0 0 0-9.648.002m9.65 6.031h-9.65a4.826 4.826 0 0 0-4.825 4.824v3.533h19.298v-3.533a4.822 4.822 0 0 0-4.823-4.824"/><path fill="#C8C8C8" d="M30 28.718H9.84v-3.964a5.261 5.261 0 0 1 5.255-5.256h9.65A5.26 5.26 0 0 1 30 24.754v3.964zm-19.298-.862H29.14v-3.103a4.4 4.4 0 0 0-4.394-4.393h-9.651a4.398 4.398 0 0 0-4.393 4.393v3.103zm9.218-8.703a5.26 5.26 0 0 1-5.255-5.255c0-2.899 2.356-5.256 5.255-5.256s5.256 2.357 5.256 5.256a5.26 5.26 0 0 1-5.256 5.255zm0-9.649c-2.423 0-4.394 1.972-4.394 4.395s1.971 4.394 4.394 4.394 4.394-1.972 4.394-4.394a4.4 4.4 0 0 0-4.394-4.395z"/><path fill="#FFF" d="M10.96 12.243a4.48 4.48 0 1 0 0-8.96 4.48 4.48 0 0 0 0 8.96z"/><path fill="#B4B4B4" d="M10.96 4.146a3.623 3.623 0 0 1 3.619 3.617 3.623 3.623 0 0 1-3.619 3.616 3.622 3.622 0 0 1-3.618-3.616 3.623 3.623 0 0 1 3.618-3.619m0-.861a4.479 4.479 0 1 0 0 8.958 4.48 4.48 0 1 0 0-8.958z"/><path fill="#FFF" d="M9.306 24.752a5.797 5.797 0 0 1 5.789-5.79h2.025a5.793 5.793 0 0 1-2.965-5.599H6.48A4.479 4.479 0 0 0 2 17.844v8.839h7.307v-1.931z"/><path fill="#B4B4B4" d="M13.277 14.225a6.662 6.662 0 0 0 1.499 3.885 6.657 6.657 0 0 0-6.333 6.643v1.069H2.861v-7.98a3.624 3.624 0 0 1 3.619-3.619h6.797m.88-.861H6.48A4.478 4.478 0 0 0 2 17.842v8.84h7.307v-1.929a5.8 5.8 0 0 1 5.789-5.791h2.025a5.792 5.792 0 0 1-2.964-5.6z"/></svg>