<svg xmlns="http://www.w3.org/2000/svg" width="32" height="32" viewBox="0 0 32 32"><path fill="#2B76AD" d="M17.344 23.31a3.434 3.434 0 0 1-2.308-.856c-.645-.553-1.107-1.281-1.411-2.227a.42.42 0 0 1 .237-.517l1.37-.575a.42.42 0 0 1 .556.235c.176.452.408.813.689 1.07.249.225.538.335.881.335.201 0 .507-.062.832-.592.28-.459.422-1.028.422-1.689 0-.801-.174-1.565-.433-1.903-.305-.4-.822-.877-1.558-.877h-1.152a.42.42 0 0 1-.42-.42v-.314c0-.083.024-.164.07-.232l2.399-3.625h-1.89L12.27 22.294a.42.42 0 0 1-.403.3H11.7a.42.42 0 0 1-.403-.302L9.19 15.167l-2.11 7.122a.42.42 0 0 1-.403.301h-.169a.42.42 0 0 1-.402-.296L2.088 9.292a.42.42 0 0 1 .401-.545h1.757a.42.42 0 0 1 .403.303l2.026 6.959 1.202-4.115-.768-2.607a.418.418 0 0 1 .067-.37.417.417 0 0 1 .336-.169h1.759a.42.42 0 0 1 .411.334l2.017 6.92 2.025-6.947a.42.42 0 0 1 .404-.303h5.927a.42.42 0 0 1 .421.42v.854a.426.426 0 0 1-.045.188l-1.942 3.892c.854.361 1.524.902 1.915 1.555.538.896.812 1.85.812 2.834 0 1.386-.337 2.493-1.029 3.384-.727.948-1.685 1.431-2.843 1.431z"/><path fill="#FFF" d="M9.272 9.168v.004l2.428 8.332 2.429-8.332h5.927v.854l-2.15 4.31c.87.283 1.693.797 2.138 1.541.448.744.753 1.618.753 2.618 0 1.242-.285 2.281-.941 3.126-.65.848-1.477 1.268-2.512 1.268a2.998 2.998 0 0 1-2.033-.754c-.585-.501-1.009-1.178-1.286-2.037l1.37-.575c.202.521.47.929.798 1.229a1.68 1.68 0 0 0 1.165.444c.472 0 .865-.263 1.189-.791.323-.529.485-1.168.485-1.91 0-.821-.175-1.708-.52-2.159-.403-.53-1.033-1.042-1.892-1.042h-1.152v-.314l2.831-4.277h-2.83l-.159.014-3.444 11.457h-.167l-2.51-8.486-2.514 8.482h-.167L2.489 9.168h1.757l2.429 8.344 1.64-5.617-.803-2.727h1.76m0-.841h-1.76a.84.84 0 0 0-.806 1.079l.733 2.49-.763 2.612-1.623-5.574a.84.84 0 0 0-.807-.607H2.489a.842.842 0 0 0-.803 1.09l4.018 13.001a.842.842 0 0 0 .804.593h.167a.84.84 0 0 0 .806-.603l1.707-5.76 1.705 5.763a.841.841 0 0 0 .807.603h.167a.84.84 0 0 0 .805-.599l.588-1.953c.326.958.831 1.735 1.504 2.313a3.843 3.843 0 0 0 2.58.955c1.296 0 2.365-.537 3.179-1.597.75-.964 1.115-2.155 1.115-3.638 0-1.063-.293-2.088-.872-3.051-.371-.62-.962-1.147-1.707-1.535l1.75-3.507a.834.834 0 0 0 .089-.375v-.855a.841.841 0 0 0-.841-.841H14.13a.842.842 0 0 0-.808.605L11.7 14.5l-1.615-5.542a.844.844 0 0 0-.813-.631zm6.668 3.216h.795l-1.456 2.198.661-2.198zm-2.356 7.839l1.122-3.733a.842.842 0 0 0 .763.486h1.152c.563 0 .977.386 1.223.71.169.221.347.872.347 1.649 0 .584-.121 1.079-.361 1.472-.237.389-.407.389-.472.389a.837.837 0 0 1-.601-.228c-.23-.211-.426-.518-.578-.909a.842.842 0 0 0-1.111-.471l-1.37.575a.881.881 0 0 0-.114.06z"/><g><path fill="#2B76AD" d="M25.511 23.354c-2.842 0-4.269-2.959-4.269-4.615a.42.42 0 0 1 .819-.131c.544 1.667 1.785 2.622 3.405 2.622 1.584 0 2.905-2.565 2.959-2.669a.42.42 0 0 1 .8.179v1.969c0 .08-.022.158-.065.226-.061.099-1.559 2.419-3.649 2.419z"/><path fill="#FFF" d="M21.664 18.739c.566 1.735 1.902 2.911 3.805 2.911 1.905 0 3.338-2.907 3.339-2.91v1.969s-1.413 2.226-3.296 2.226c-2.526 0-3.848-2.698-3.848-4.196M21.665 17.898a.84.84 0 0 0-.842.841c0 1.808 1.566 5.036 4.688 5.036 2.318 0 3.938-2.509 4.005-2.615a.83.83 0 0 0 .132-.451V18.74a.84.84 0 0 0-.842-.841.842.842 0 0 0-.76.481c-.318.641-1.457 2.429-2.578 2.429-1.953 0-2.721-1.461-3.006-2.331a.841.841 0 0 0-.797-.58z"/><g><path fill="#2B76AD" d="M22.661 16.673a.42.42 0 0 1-.383-.248c-.481-1.072-.639-2.626-.398-3.959.307-1.711 1.222-2.988 2.574-3.595.322-.144.644-.217.958-.217 1.203 0 1.986 1.037 2.393 1.777l.556-.847a.417.417 0 0 1 .471-.172.42.42 0 0 1 .301.403v1.693a.426.426 0 0 1-.061.219l-.735 1.209a.422.422 0 0 1-.359.202.424.424 0 0 1-.37-.221c-.335-.611-1.194-1.767-2.05-1.767a.979.979 0 0 0-.376.076c-1.21.494-2.393 2.774-2.102 4.973a.422.422 0 0 1-.419.474z"/><path fill="#FFF" d="M25.412 9.074c1.553 0 2.328 2.222 2.328 2.222l.971-1.482v1.693l-.734 1.21c-.001 0-1.063-1.989-2.42-1.988-.174 0-.352.032-.534.106-1.37.559-2.677 3.029-2.361 5.418-.816-1.819-.819-5.75 1.966-6.999.279-.126.542-.18.784-.18m0-.841v.841-.841c-.373 0-.753.085-1.129.253-1.484.666-2.484 2.052-2.817 3.905-.258 1.433-.093 3.044.429 4.206a.84.84 0 0 0 1.601-.455c-.274-2.078.911-4.148 1.845-4.529a.58.58 0 0 1 .217-.044c.573 0 1.328.906 1.681 1.549a.844.844 0 0 0 1.458.035l.734-1.21a.83.83 0 0 0 .123-.437V9.814a.84.84 0 0 0-1.545-.461l-.199.303c-.509-.706-1.298-1.423-2.398-1.423z"/></g></g></svg>