<svg xmlns="http://www.w3.org/2000/svg" width="32" height="32" viewBox="0 0 32 32">
  <circle fill="#FFF" cx="16" cy="16" r="14"/>
  <path fill="#16638A" d="M16 2.933C8.784 2.933 2.933 8.782 2.933 16c0 7.214 5.851 13.066 13.066 13.066 7.214 0 13.066-5.853 13.066-13.066C29.066 8.782 23.214 2.933 16 2.933zM3.94 16c-.001-1.75.375-3.41 1.045-4.908l5.752 15.76C6.714 24.897 3.94 20.771 3.94 16zM16 28.061a12.05 12.05 0 0 1-3.408-.492l3.62-10.515 3.706 10.156c.024.058.054.114.085.163-1.25.445-2.597.688-4.003.688zm1.661-17.716a22.878 22.878 0 0 0 1.381-.115c.649-.078.572-1.034-.077-.997 0 0-1.954.155-3.214.155-1.186 0-3.176-.155-3.176-.155-.651-.038-.727.954-.078.995 0 0 .615.079 1.265.115l1.879 5.15-2.638 7.914-4.392-13.062c.727-.037 1.381-.114 1.381-.114.65-.079.57-1.034-.078-.996 0 0-1.951.153-3.214.153-.228 0-.492-.006-.774-.017A12.042 12.042 0 0 1 16 3.94c3.142 0 6 1.201 8.144 3.167-.052-.003-.104-.012-.156-.012-1.186 0-2.024 1.034-2.024 2.141 0 .996.573 1.835 1.184 2.83.459.802.998 1.833.998 3.326v.001c0 1.029-.311 2.327-.919 3.896l-1.206 4.018-4.36-12.962zm4.403 16.077l3.686-10.647c.686-1.72.914-3.097.914-4.32a9.06 9.06 0 0 0-.082-1.241 12.022 12.022 0 0 1 1.478 5.787c-.001 4.446-2.413 8.331-5.996 10.421z"/>
</svg>