<svg xmlns="http://www.w3.org/2000/svg" xmlns:xlink="http://www.w3.org/1999/xlink" width="32" height="32" viewBox="0 0 32 32">
    <symbol id="a" viewBox="-16 -16 32 32">
        <path fill="#16638A" d="M16 0c0-8.834-7.166-16-16-16-8.836 0-16 7.166-16 16 0 8.838 7.164 16 16 16 8.834 0 16-7.162 16-16z"/>
        <path fill="#fff" d="M-14.767 0c0-5.842 3.396-10.895 8.322-13.288l-7.043 19.298c-.82-1.834-1.279-3.868-1.279-6.01zm24.736.745c0 1.828-.658 3.091-1.219 4.073-.748 1.217-1.449 2.245-1.449 3.464 0 1.356 1.026 2.622 2.48 2.622.063 0 .127-.011.189-.014-2.625 2.407-6.125 3.877-9.97 3.877-5.159 0-9.697-2.644-12.336-6.652.346-.013.67-.021.948-.021 1.547 0 3.936.189 3.936.189.793.046.89-1.124.094-1.219 0 0-.8-.094-1.689-.139l5.377-15.995 3.23 9.69-2.299 6.306c-.797.045-1.549.139-1.549.139-.795.05-.702 1.265.094 1.219 0 0 2.438-.189 3.89-.189 1.543 0 3.936.189 3.936.189.794.045.888-1.125.092-1.22 0 0-.798-.094-1.69-.139l5.337-15.873 1.474 4.922c.747 1.918 1.124 3.509 1.124 4.771zm-9.709-2.036l-4.433-12.874c1.323-.391 2.723-.602 4.173-.602 1.719 0 3.369.296 4.902.84-.038.062-.075.129-.104.201l-4.538 12.435zm12.697 8.377c.064-.471.101-.976.101-1.52 0-1.498-.281-3.183-1.122-5.29l-4.51-13.038c4.387 2.559 7.339 7.316 7.339 12.762 0 2.568-.656 4.98-1.808 7.086z"/>
    </symbol>
    <use xlink:href="#a" width="32" height="32" x="-16" y="-16" transform="matrix(1 0 0 -1 16 16)" overflow="visible"/>
</svg>