<svg xmlns="http://www.w3.org/2000/svg" width="32" height="32" viewBox="0 0 32 32"><path fill="#FFF" d="M26.831 29.366a.385.385 0 0 1-.276-.115L13.009 15.708l-.285.15a7.055 7.055 0 0 1-3.269.804 6.955 6.955 0 0 1-4.96-2.057A6.977 6.977 0 0 1 2.986 6.92l4.208 4.208c.24.238.558.369.895.369.337 0 .655-.13.895-.368l2.344-2.344c.239-.239.371-.557.371-.895 0-.339-.131-.657-.371-.896L7.304 2.972a6.994 6.994 0 0 1 2.161-.338 6.96 6.96 0 0 1 4.952 2.05 6.973 6.973 0 0 1 1.482 7.729l-.117.271L29.45 26.356c.073.073.113.17.113.274a.381.381 0 0 1-.114.276l-2.341 2.345a.39.39 0 0 1-.277.115z"/><path fill="#C8C8C8" d="M9.465 3.071c1.753 0 3.402.682 4.643 1.921a6.539 6.539 0 0 1 1.389 7.247l-.234.545.419.419 13.425 13.428-2.276 2.277-13.285-13.281-.456-.457-.569.3c-.939.493-2 .753-3.066.753a6.53 6.53 0 0 1-4.652-1.929 6.539 6.539 0 0 1-1.642-6.58l3.726 3.726a1.7 1.7 0 0 0 1.202.494c.455 0 .88-.175 1.205-.497l2.343-2.342c.321-.322.498-.75.498-1.205s-.178-.883-.498-1.205L8.152 3.202a6.526 6.526 0 0 1 1.313-.131m0-.875c-1.005 0-2.01.202-2.95.605l4.503 4.502a.83.83 0 0 1 0 1.172L8.674 10.82a.831.831 0 0 1-1.172 0L2.857 6.174a7.449 7.449 0 0 0 1.327 8.74 7.42 7.42 0 0 0 5.27 2.186 7.465 7.465 0 0 0 3.473-.854l13.317 13.315a.832.832 0 0 0 1.173 0l2.342-2.346a.83.83 0 0 0 0-1.171l-13.457-13.46a7.449 7.449 0 0 0-1.576-8.211 7.42 7.42 0 0 0-5.261-2.177z"/></svg>