<svg xmlns="http://www.w3.org/2000/svg" xmlns:xlink="http://www.w3.org/1999/xlink" width="32" height="32" viewBox="0 0 32 32">
    <symbol id="a" viewBox="-16 -15.776 32.001 31.552">
        <path d="M-10.842 15.084l5.146-5.146c.37-.369.37-.97 0-1.339l-2.676-2.678c-.371-.369-.97-.369-1.34 0l-5.309 5.309c-1.695-3.216-1.19-7.287 1.516-9.991 2.705-2.707 6.777-3.21 9.993-1.518l15.22-15.22c.369-.369.969-.369 1.339 0l2.676 2.678c.37.37.37.971 0 1.339l-15.381 15.384c1.336 3.107.739 6.846-1.799 9.384s-6.276 3.134-9.385 1.798z"/>
    </symbol>
    <use xlink:href="#a" width="32.001" height="31.552" x="-16" y="-15.776" transform="matrix(1 0 0 -1 16 16)" overflow="visible"/>
</svg>