<svg xmlns="http://www.w3.org/2000/svg" width="32" height="32" viewBox="0 0 32 32"><g fill="#C8C8C8"><path d="M6.83 22.048l-.027-.001c-1.173 0-1.439-1.563-1.527-2.077-.144-1.373-.031-3.817.538-4.728.289-.452.731-.709 1.215-.709.152.002.355.004 6.272 2.427.639.239 1.051.911 1.01 1.666-.042.742-.491 1.33-1.145 1.497l-.002-.008c-.862.284-5.999 1.933-6.334 1.933zM14.939 30c-1.345 0-4.248-1.042-5.263-2.068-1.054-1.042 1.565-4.188 3.948-6.645.381-.481 1.181-.684 1.871-.419.69.265 1.11.874 1.067 1.551v.147c-.039 6.231-.088 6.376-.128 6.49-.178.487-.591.818-1.138.916a2.164 2.164 0 0 1-.357.028zM22.45 27.985c-.309 0-.601-.102-.843-.292-.084-.065-.241-.188-3.594-5.613-.381-.578-.319-1.366.159-1.948.451-.558 1.183-.779 1.8-.538l.499.166c5.572 1.854 5.667 1.924 5.776 2.006.411.33.594.827.516 1.374-.182 1.255-2.543 4.257-3.715 4.725-.198.078-.4.12-.598.12zM19.161 18.191c-.548 0-1.071-.3-1.4-.803-.406-.619-.389-1.357.042-1.88l.187-.254c3.601-4.895 3.711-4.967 3.827-5.043.413-.276.954-.306 1.452-.069 1.119.548 3.215 3.639 3.35 4.939l.005.042-.003.07c.035.5-.187.979-.607 1.263-.093.06-.257.168-6.474 1.685-.113.033-.245.05-.379.05zM15.022 15.914c-.654 0-1.264-.452-1.813-1.342-1.307-2.056-5.593-8.805-5.726-9.078a1.477 1.477 0 0 1 .372-1.474C8.719 3.128 12.571 2 14.263 2c.224 0 .408.019.563.057.557.141.955.514 1.093 1.024.082.469.632 8.632.71 10.443.062 1.281-.325 2.061-1.152 2.314-.074.023-.239.076-.455.076z"/></g><g fill="#BE2826"><path d="M6.222 15.499c-.439.703-.624 2.919-.471 4.39.173 1.02.482 1.676 1.077 1.676.215.012 6.212-1.905 6.218-1.909.45-.114.752-.527.782-1.056.029-.541-.25-1.021-.711-1.192 0 0-5.831-2.388-6.051-2.391-.337-.014-.635.156-.844.482M15.978 28.899c.07-.204.102-6.491.103-6.511.029-.462-.27-.882-.759-1.07-.504-.193-1.047-.074-1.351.305 0 0-4.891 5.04-3.952 5.969.949.959 4.106 2.092 5.191 1.905.377-.067.651-.28.768-.598M22.87 27.416c1.023-.409 3.258-3.252 3.416-4.346.055-.38-.065-.708-.327-.918-.173-.129-6.138-2.098-6.161-2.109-.43-.167-.922-.012-1.252.396-.345.418-.396.971-.121 1.388 0 0 3.307 5.352 3.48 5.487.268.21.61.245.965.102M25.743 16.056c.278-.188.419-.502.395-.885 0-.012.003-.025 0-.039-.117-1.132-2.101-4.075-3.077-4.553-.348-.166-.693-.155-.98.038-.179.116-3.892 5.185-3.905 5.2-.294.357-.299.869-.011 1.309.298.454.801.677 1.261.549-.001-.002 6.135-1.5 6.317-1.619zM16.147 13.545c-.079-1.827-.63-9.96-.694-10.337-.092-.341-.36-.585-.743-.682-1.177-.292-5.674.968-6.507 1.828-.267.279-.367.623-.286.928.131.27 5.703 9.036 5.703 9.036.823 1.335 1.496 1.128 1.716 1.059.219-.067.887-.275.811-1.832"/></g></svg>