<?xml version="1.0" encoding="utf-8"?>
<!-- Generator: Adobe Illustrator 14.0.0, SVG Export Plug-In . SVG Version: 6.00 Build 43363)  -->
<!DOCTYPE svg PUBLIC "-//W3C//DTD SVG 1.1//EN" "http://www.w3.org/Graphics/SVG/1.1/DTD/svg11.dtd">
<svg version="1.1" id="Layer_1" xmlns="http://www.w3.org/2000/svg" xmlns:xlink="http://www.w3.org/1999/xlink" x="0px" y="0px"
	 width="32px" height="32px" viewBox="0 0 32 32" enable-background="new 0 0 32 32" xml:space="preserve">
<path fill="#9CACB4" d="M26.668,0.25c2.803,0,5.083,2.28,5.083,5.084v21.332c0,2.804-2.28,5.085-5.08,5.085H5.338
	C2.53,31.75,0.25,29.47,0.25,26.67V5.334c0-2.804,2.28-5.084,5.086-5.084H26.67 M26.67,0H5.334C2.4,0,0,2.4,0,5.334v21.332
	C0,29.604,2.4,32,5.336,32H26.67C29.6,32,32,29.604,32,26.667V5.334C32,2.4,29.604,0,26.67,0z"/>
<path fill="#999999" d="M32,28c0,2.21-1.792,4-4,4H4c-2.21,0-4-1.79-4-4V4c0-2.21,1.79-4,4-4h24c2.208,0,4,1.79,4,4V28z"/>
<path fill="#F2F2F2" d="M31,27.25c0,2.07-1.68,3.75-3.75,3.75H4.75C2.677,31,1,29.32,1,27.25V4.75C1,2.68,2.677,1,4.75,1h22.5
	C29.32,1,31,2.68,31,4.75V27.25z"/>
<path fill="#FFFFFF" d="M32,28c0,2.21-1.792,4-4,4H4c-2.21,0-4-1.79-4-4V4c0-2.21,1.79-4,4-4h24c2.208,0,4,1.79,4,4V28z M32,28
	c0,2.21-1.792,4-4,4H4c-2.21,0-4-1.79-4-4V4c0-2.21,1.79-4,4-4h24c2.208,0,4,1.79,4,4V28z M31,27.25c0,2.07-1.68,3.75-3.75,3.75
	H4.75C2.677,31,1,29.32,1,27.25V4.75C1,2.68,2.677,1,4.75,1h22.5C29.32,1,31,2.68,31,4.75V27.25z M31,27.25
	c0,2.07-1.68,3.75-3.75,3.75H4.75C2.677,31,1,29.32,1,27.25V4.75C1,2.68,2.677,1,4.75,1h22.5C29.32,1,31,2.68,31,4.75V27.25z"/>
<g>
	<defs>
		<path id="SVGID_1_" d="M27,16H5c-2.75,0-5,2.25-5,5v5.665C0,29.602,2.4,32,5.336,32H26.67C29.6,32,32,29.602,32,26.665V21
			C32,18.25,29.75,16,27,16z"/>
	</defs>
	<clipPath id="SVGID_2_">
		<use xlink:href="#SVGID_1_"  overflow="visible"/>
	</clipPath>
	<g clip-path="url(#SVGID_2_)">
		<path fill="#999999" d="M32,28c0,2.21-1.792,4-4,4H4c-2.21,0-4-1.79-4-4V4c0-2.21,1.79-4,4-4h24c2.208,0,4,1.79,4,4V28z"/>
		<path fill="#F2F2F2" d="M31,27.25c0,2.07-1.68,3.75-3.75,3.75H4.75C2.677,31,1,29.32,1,27.25V4.75C1,2.68,2.677,1,4.75,1h22.5
			C29.32,1,31,2.68,31,4.75V27.25z"/>
		<path fill="#EE3E3A" d="M32,28c0,2.21-1.792,4-4,4H4c-2.21,0-4-1.79-4-4V4c0-2.21,1.79-4,4-4h24c2.208,0,4,1.79,4,4V28z M32,28
			c0,2.21-1.792,4-4,4H4c-2.21,0-4-1.79-4-4V4c0-2.21,1.79-4,4-4h24c2.208,0,4,1.79,4,4V28z M31,27.25c0,2.07-1.68,3.75-3.75,3.75
			H4.75C2.677,31,1,29.32,1,27.25V4.75C1,2.68,2.677,1,4.75,1h22.5C29.32,1,31,2.68,31,4.75V27.25z M31,27.25
			c0,2.07-1.68,3.75-3.75,3.75H4.75C2.677,31,1,29.32,1,27.25V4.75C1,2.68,2.677,1,4.75,1h22.5C29.32,1,31,2.68,31,4.75V27.25z"/>
	</g>
</g>
<path fill="#333333" d="M6.907,3h1.846l1.19,4.317h0.115L11.19,3h1.864L10.92,9.32v4.48H9.09V9.52L6.907,3z M13.187,7.655
	c0-0.618,0.218-1.11,0.656-1.475c0.438-0.365,1.027-0.55,1.767-0.55c0.674,0,1.226,0.194,1.658,0.58
	c0.428,0.385,0.643,0.882,0.643,1.49v4.114c0,0.682-0.21,1.215-0.631,1.604C16.854,13.806,16.274,14,15.535,14
	c-0.712,0-1.282-0.2-1.71-0.6c-0.426-0.4-0.64-0.94-0.64-1.617V7.655H13.187z M14.86,11.935c0,0.218,0.06,0.386,0.174,0.506
	c0.114,0.12,0.28,0.18,0.496,0.18c0.22,0,0.396-0.06,0.525-0.18c0.13-0.12,0.195-0.29,0.195-0.5V7.6
	c0-0.175-0.066-0.315-0.198-0.423c-0.133-0.107-0.307-0.16-0.522-0.16c-0.198,0-0.36,0.053-0.484,0.16
	c-0.123,0.108-0.186,0.248-0.186,0.422v4.34V11.935z M23.874,5.833V13.8h-1.63v-0.88c-0.296,0.323-0.608,0.572-0.936,0.74
	c-0.33,0.17-0.64,0.255-0.949,0.255c-0.381,0-0.66-0.12-0.851-0.356c-0.19-0.24-0.284-0.6-0.284-1.07V5.83h1.623v6.11
	c0,0.19,0.037,0.324,0.105,0.41c0.064,0.083,0.177,0.126,0.33,0.126c0.117,0,0.27-0.057,0.453-0.168
	c0.183-0.113,0.351-0.256,0.5-0.43V5.832h1.631L23.874,5.833z"/>
<path fill="#FFFFFF" d="M10.524,19.154h-5v1.424H7.21v8.378h1.63v-8.378h1.685L10.524,19.154L10.524,19.154z M13.844,27.218
	c-0.138,0.155-0.286,0.285-0.45,0.386c-0.162,0.104-0.298,0.153-0.402,0.153c-0.136,0-0.234-0.038-0.297-0.116
	c-0.06-0.069-0.09-0.191-0.09-0.363v-5.549H11.16v6.049c0,0.431,0.086,0.75,0.254,0.969c0.17,0.218,0.42,0.322,0.756,0.322
	c0.27,0,0.55-0.074,0.84-0.229c0.29-0.153,0.565-0.375,0.834-0.67v0.795h1.445V21.73h-1.45v5.494L13.844,27.218z M20.17,22.098
	c-0.24-0.307-0.59-0.462-1.048-0.462c-0.226,0-0.446,0.058-0.667,0.173c-0.217,0.111-0.424,0.283-0.62,0.5v-3.153h-1.46v9.802h1.46
	v-0.555c0.19,0.221,0.397,0.385,0.62,0.488c0.22,0.11,0.47,0.16,0.755,0.16c0.429,0,0.757-0.132,0.981-0.41
	c0.228-0.27,0.341-0.662,0.341-1.18v-4.01c0-0.59-0.12-1.04-0.362-1.35V22.098z M19.043,27.264c0,0.23-0.043,0.396-0.125,0.497
	c-0.084,0.11-0.213,0.16-0.391,0.16c-0.123,0-0.237-0.026-0.35-0.08c-0.109-0.05-0.227-0.137-0.343-0.254V23.08
	c0.101-0.1,0.197-0.175,0.298-0.221c0.1-0.049,0.203-0.069,0.307-0.069c0.194,0,0.346,0.06,0.451,0.187
	c0.103,0.125,0.151,0.311,0.151,0.558v3.733L19.043,27.264z M25.545,25.514V23.67c0-0.688-0.177-1.21-0.531-1.578
	c-0.355-0.367-0.865-0.55-1.527-0.55c-0.646,0-1.172,0.197-1.582,0.592c-0.409,0.396-0.614,0.91-0.614,1.534v3.248
	c0,0.696,0.188,1.243,0.56,1.641s0.883,0.596,1.53,0.596c0.72,0,1.261-0.186,1.62-0.561c0.366-0.375,0.546-0.935,0.546-1.676v-0.37
	h-1.485v0.33c0,0.424-0.051,0.698-0.146,0.82c-0.097,0.128-0.263,0.189-0.503,0.189c-0.23,0-0.395-0.073-0.49-0.22
	c-0.095-0.146-0.14-0.412-0.14-0.792V25.51h2.763V25.514z M22.779,23.657c0-0.304,0.049-0.521,0.15-0.65
	c0.1-0.133,0.264-0.196,0.494-0.196c0.221,0,0.383,0.07,0.48,0.2c0.1,0.13,0.152,0.351,0.152,0.65v0.729h-1.277v-0.729V23.657z"/>
</svg>
