<svg xmlns="http://www.w3.org/2000/svg" xmlns:xlink="http://www.w3.org/1999/xlink" width="32" height="32" viewBox="0 0 32 32">
    <symbol viewBox="-16.001 -16 32 32">
        <g>
            <use xlink:href="#_x5F_button_x5F_shape" width="32" height="32" x="-16" y="-16" transform="translate(-.001)" overflow="visible"/>
            <path fill="#999" d="M15.999-12c0-2.209-1.791-4-4-4h-24c-2.209 0-4 1.791-4 4v24c0 2.209 1.791 4 4 4h24c2.209 0 4-1.791 4-4v-24z"/>
        </g>
        <g>
            <use xlink:href="#_x5F_button_x5F_shape" width="32" height="32" x="-16" y="-16" transform="matrix(.938 0 0 .938 -.001 0)" overflow="visible"/>
            <path fill="#F2F2F2" d="M14.999-11.25c0-2.071-1.679-3.75-3.75-3.75h-22.5c-2.071 0-3.75 1.679-3.75 3.75v22.5c0 2.071 1.679 3.75 3.75 3.75h22.5c2.071 0 3.75-1.679 3.75-3.75v-22.5z"/>
        </g>
    </symbol>
    <g>
        <path fill="#9CACB4" d="M26.668.25c2.803 0 5.083 2.281 5.083 5.084v21.332c0 2.804-2.28 5.085-5.083 5.085h-21.333c-2.804 0-5.084-2.281-5.084-5.085v-21.332c0-2.803 2.28-5.084 5.084-5.084h21.333m0-.25h-21.333c-2.934 0-5.334 2.4-5.334 5.334v21.332c0 2.937 2.4 5.335 5.334 5.335h21.333c2.934 0 5.333-2.398 5.333-5.335v-21.332c0-2.933-2.399-5.334-5.333-5.334z"/>
        <g>
            <path fill="#999" d="M31.999 28c0 2.21-1.791 4-4 4h-24c-2.209 0-4-1.79-4-4v-24c0-2.209 1.791-4 4-4h24c2.209 0 4 1.791 4 4v24z"/>
        </g>
        <g>
            <path fill="#F2F2F2" d="M30.999 27.25c0 2.071-1.679 3.75-3.75 3.75h-22.5c-2.071 0-3.75-1.679-3.75-3.75v-22.5c0-2.07 1.679-3.75 3.75-3.75h22.5c2.071 0 3.75 1.679 3.75 3.75v22.5z"/>
        </g>
        <path fill="#fff" d="M31.999 28c0 2.21-1.791 4-4 4h-24c-2.209 0-4-1.79-4-4v-24c0-2.209 1.791-4 4-4h24c2.209 0 4 1.791 4 4v24zM31.999 28c0 2.21-1.791 4-4 4h-24c-2.209 0-4-1.79-4-4v-24c0-2.209 1.791-4 4-4h24c2.209 0 4 1.791 4 4v24zM30.999 27.25c0 2.071-1.679 3.75-3.75 3.75h-22.5c-2.071 0-3.75-1.679-3.75-3.75v-22.5c0-2.07 1.679-3.75 3.75-3.75h22.5c2.071 0 3.75 1.679 3.75 3.75v22.5zM30.999 27.25c0 2.071-1.679 3.75-3.75 3.75h-22.5c-2.071 0-3.75-1.679-3.75-3.75v-22.5c0-2.07 1.679-3.75 3.75-3.75h22.5c2.071 0 3.75 1.679 3.75 3.75v22.5z"/>
        <defs>
            <path id="a" d="M27.001 16h-22c-2.75 0-5 2.25-5 5v5.665c0 2.937 2.4 5.335 5.334 5.335h21.333c2.934 0 5.333-2.398 5.333-5.335v-5.665c0-2.749-2.25-5-5-5z"/>
        </defs>
        <clipPath id="b">
            <use xlink:href="#a" overflow="visible"/>
        </clipPath>
        <g clip-path="url(#b)">
            <g>
                <path fill="#999" d="M31.999 28c0 2.209-1.791 4-4 4h-24c-2.209 0-4-1.791-4-4v-24c0-2.209 1.791-4 4-4h24c2.209 0 4 1.791 4 4v24z"/>
            </g>
            <g>
                <path fill="#F2F2F2" d="M30.999 27.25c0 2.07-1.679 3.75-3.75 3.75h-22.5c-2.071 0-3.75-1.68-3.75-3.75v-22.5c0-2.071 1.679-3.75 3.75-3.75h22.5c2.071 0 3.75 1.679 3.75 3.75v22.5z"/>
            </g>
            <path fill="#EE3E3A" d="M31.999 28c0 2.209-1.791 4-4 4h-24c-2.209 0-4-1.791-4-4v-24c0-2.209 1.791-4 4-4h24c2.209 0 4 1.791 4 4v24zM31.999 28c0 2.209-1.791 4-4 4h-24c-2.209 0-4-1.791-4-4v-24c0-2.209 1.791-4 4-4h24c2.209 0 4 1.791 4 4v24zM30.999 27.25c0 2.07-1.679 3.75-3.75 3.75h-22.5c-2.071 0-3.75-1.68-3.75-3.75v-22.5c0-2.071 1.679-3.75 3.75-3.75h22.5c2.071 0 3.75 1.679 3.75 3.75v22.5zM30.999 27.25c0 2.07-1.679 3.75-3.75 3.75h-22.5c-2.071 0-3.75-1.68-3.75-3.75v-22.5c0-2.071 1.679-3.75 3.75-3.75h22.5c2.071 0 3.75 1.679 3.75 3.75v22.5z"/>
        </g>
        <path fill="#333" d="M6.907 3h1.846l1.189 4.317h.116l1.133-4.317h1.863l-2.133 6.319v4.48h-1.832v-4.278zM13.186 7.655c0-.618.219-1.109.657-1.475.438-.365 1.027-.549 1.767-.549.674 0 1.226.193 1.657.579.428.385.643.882.643 1.489v4.115c0 .682-.211 1.215-.631 1.604-.425.388-1.005.582-1.744.582-.712 0-1.282-.201-1.709-.601-.427-.4-.641-.939-.641-1.616v-4.128zm1.674 4.279c0 .219.059.387.174.507s.281.18.496.18c.221 0 .396-.062.525-.183.131-.123.195-.291.195-.504v-4.34c0-.174-.066-.314-.198-.422-.133-.107-.307-.16-.522-.16-.198 0-.359.053-.484.16-.123.108-.186.248-.186.422v4.34zM23.874 5.833v7.967h-1.629v-.88c-.297.323-.609.572-.936.741-.324.169-.639.254-.943.254-.379 0-.66-.119-.852-.356-.189-.237-.285-.593-.285-1.067v-6.659h1.625v6.107c0 .189.037.325.105.409.066.085.178.128.33.128.119 0 .271-.057.455-.168.182-.112.35-.255.5-.43v-6.046h1.63z"/>
        <path fill="#fff" d="M10.524 19.154h-5v1.424h1.686v8.378h1.629v-8.378h1.686v-1.424zM13.843 27.218c-.137.155-.285.285-.449.386-.162.103-.298.153-.402.153-.136 0-.234-.038-.297-.116-.059-.075-.09-.198-.09-.369v-5.549h-1.445v6.049c0 .431.086.751.254.968.171.217.42.322.756.322.271 0 .551-.075.839-.23.29-.153.566-.375.835-.67v.795h1.445v-7.233h-1.445v5.494zM20.17 22.098c-.24-.307-.59-.462-1.048-.462-.225 0-.446.057-.667.172-.217.112-.424.284-.619.501v-3.154h-1.461v9.802h1.461v-.554c.188.221.396.384.618.488.22.107.472.157.756.157.428 0 .757-.135.982-.408.227-.272.34-.667.34-1.179v-4.014c0-.591-.12-1.042-.362-1.349zm-1.127 5.166c0 .231-.043.396-.125.497-.084.104-.213.154-.391.154-.122 0-.237-.026-.349-.079-.111-.051-.227-.138-.343-.255v-4.506c.099-.1.197-.174.298-.221.101-.049.203-.069.307-.069.194 0 .345.061.45.188.103.125.152.311.152.557v3.734zM25.545 25.513v-1.844c0-.685-.177-1.21-.532-1.576s-.864-.549-1.526-.549c-.647 0-1.173.196-1.582.591-.409.396-.615.909-.615 1.534v3.249c0 .696.188 1.243.56 1.64.371.398.882.596 1.529.596.721 0 1.262-.185 1.622-.56.365-.375.545-.935.545-1.676v-.371h-1.487v.33c0 .425-.05.699-.144.822-.096.127-.263.189-.503.189-.23 0-.394-.073-.49-.22-.095-.147-.141-.412-.141-.792v-1.364h2.764zm-2.765-1.856c0-.303.048-.521.149-.649.101-.134.265-.197.495-.197.22 0 .383.063.48.197.101.128.152.347.152.649v.73h-1.276v-.73z"/>
    </g>
</svg>