<svg xmlns="http://www.w3.org/2000/svg" width="32" height="32" viewBox="0 0 32 32"><path fill="#FFF" d="M28.225 24.335H3.775V7.665h24.45v16.67z"/><path fill="#C8C8C8" d="M28.725 24.835H3.275V7.165h25.45v17.67zm-24.45-1h23.45V8.165H4.275v15.67z"/><path fill="#777" d="M6.558 19.782l3.5-4.576c.354-.434.674-.803 1.028-1.22v-.033H6.88V12.83h5.908v.883l-3.468 4.51c-.338.438-.644.838-.997 1.226v.028h4.53V20.6H6.557l.001-.818zm9.33-9.136c0 .48-.336.865-.897.865-.51 0-.85-.38-.85-.86 0-.483.358-.883.888-.883.51 0 .866.385.866.884l-.007-.006zM14.314 20.6v-7.77h1.413v7.77h-1.413zm3.76-5.234c0-.995-.03-1.798-.064-2.537h1.25l.08 1.33h.033c.563-.95 1.493-1.498 2.762-1.498 1.896 0 3.309 1.59 3.309 3.935 0 2.797-1.719 4.174-3.551 4.174-1.025 0-1.926-.443-2.392-1.22h-.03v4.228H18.08V15.36l-.006.006zm1.394 2.07c0 .211.019.404.065.58.257.98 1.107 1.655 2.119 1.655 1.494 0 2.361-1.22 2.361-3 0-1.54-.82-2.874-2.313-2.874-.966 0-1.88.675-2.136 1.736a2.193 2.193 0 0 0-.103.563v1.347l.007-.007z"/><path fill="#B4B4B4" d="M16 32l12.43-6H3.57zM3.57 6h24.86L16 0z"/></svg>