<?xml version="1.0" encoding="utf-8"?>
<!-- Generator: Adobe Illustrator 14.0.0, SVG Export Plug-In . SVG Version: 6.00 Build 43363)  -->
<!DOCTYPE svg PUBLIC "-//W3C//DTD SVG 1.1//EN" "http://www.w3.org/Graphics/SVG/1.1/DTD/svg11.dtd">
<svg version="1.1" id="Layer_1" xmlns="http://www.w3.org/2000/svg" xmlns:xlink="http://www.w3.org/1999/xlink" x="0px" y="0px"
     width="32px" height="32px" viewBox="0 0 32 32" enable-background="new 0 0 32 32" xml:space="preserve">
<symbol  id="button_x5F_base" viewBox="-15.032 -15.031 30.064 30.063">
	<g id="button_4_">
		<g>
			
				<use xlink:href="#button_x5F_shape"  width="31" height="30.999" x="-15.5" y="-15.499" transform="matrix(0.9688 0 0 0.9688 0 0)" overflow="visible"/>
		</g>
		<g>
			<g>
				<path fill="none" stroke="#999999" d="M14.532,0c0-8.024-6.506-14.531-14.532-14.531c-8.027,0-14.532,6.507-14.532,14.531
					c0,8.025,6.505,14.532,14.532,14.532C8.026,14.532,14.532,8.025,14.532,0z"/>
			</g>
		</g>
	</g>
</symbol>
<symbol  id="button_x5F_overlay" viewBox="-15.016 -15.015 30.033 30.032">
	<g id="button_x5F_overlay_8_" opacity="0.4">
		<g id="button_x5F_overlay_9_">
			<g id="button_x5F_overlay_11_">
				<g id="button_x5F_overlay_12_">
					<g>
						
							<use xlink:href="#button_x5F_shape"  width="31" height="30.999" x="-15.5" y="-15.499" transform="matrix(0.9688 0 0 0.9688 0 0)" overflow="visible"/>
					</g>
				</g>
			</g>
		</g>
	</g>
</symbol>
<symbol  id="button_x5F_shape" viewBox="-15.5 -15.499 31 30.999">
	<path opacity="0" fill="#FFFFFF" stroke="#4D4D4D" d="M15,0c0-8.283-6.716-14.999-15-14.999c-8.285,0-15,6.716-15,14.999
		c0,8.284,6.715,15,15,15C8.284,15,15,8.284,15,0z"/>
</symbol>
<g>
	<path fill="#666666" d="M16,3c7.168,0,13,5.832,13,13c0,7.168-5.832,13-13,13C8.832,29,3,23.168,3,16C3,8.832,8.832,3,16,3 M16,2
		C8.267,2,2,8.268,2,16c0,7.73,6.267,14,14,14c7.731,0,14-6.27,14-14C30,8.268,23.731,2,16,2L16,2z"/>
</g>
<g>
	<polygon fill="#FFFFFF" stroke="#000000" points="16.072,14.758 29,10.693 29,6 3,6 3,10.68 	"/>
	<polygon fill="#FFFFFF" stroke="#000000" points="16.072,16.84 3,12.764 3,26 29,26 29,12.777 	"/>
</g>
</svg>
