<?xml version="1.0" encoding="utf-8"?>
<!-- Generator: Adobe Illustrator 14.0.0, SVG Export Plug-In . SVG Version: 6.00 Build 43363)  -->
<!DOCTYPE svg PUBLIC "-//W3C//DTD SVG 1.1//EN" "http://www.w3.org/Graphics/SVG/1.1/DTD/svg11.dtd">
<svg version="1.1" id="Layer_1" xmlns="http://www.w3.org/2000/svg" xmlns:xlink="http://www.w3.org/1999/xlink" x="0px" y="0px"
     width="32px" height="32px" viewBox="0 0 32 32" enable-background="new 0 0 32 32" xml:space="preserve">
<symbol  id="_x5F_button_x5F_shape" viewBox="-16 -16 32 32">
	<g id="button_x5F_shape_1_">
		<g>
			<g opacity="0">
				<path fill="#FFFFFF" d="M16-12c0-2.209-1.792-4-4-4h-24c-2.208,0-4,1.791-4,4v24c0,2.209,1.792,4,4,4h24c2.208,0,4-1.791,4-4
					V-12z"/>
			</g>
		</g>
	</g>
</symbol>
<symbol  id="lock" viewBox="-10.473 -16 20.946 32">
	<g>
		<path d="M10.473-14.724c0-0.705-0.586-1.276-1.31-1.276H-9.165c-0.723,0-1.308,0.571-1.308,1.276V3.132
			c0,0.706,0.585,1.276,1.308,1.276H9.163c0.724,0,1.31-0.57,1.31-1.276V-14.724z"/>
		<path d="M-0.001-7.132c-4.941,0-8.962,5.188-8.962,11.564C-8.963,10.812-4.942,16-0.001,16c4.942,0,8.963-5.188,8.963-11.566
			C8.962-1.942,4.941-7.132-0.001-7.132L-0.001-7.132z M-0.001,12.51c-2.966,0-5.472-3.698-5.472-8.076
			c0-4.376,2.506-8.073,5.472-8.073s5.472,3.697,5.472,8.073C5.471,8.812,2.965,12.51-0.001,12.51L-0.001,12.51z"/>
		<path fill="#FFFFFF" d="M1.818-9.34H-1.82l0.791,3.854C-1.508-5.168-1.82-4.632-1.82-4.024c0,0.979,0.815,1.772,1.819,1.772
			c1.006,0,1.819-0.794,1.819-1.772c0-0.606-0.313-1.144-0.792-1.461L1.818-9.34z"/>
	</g>
</symbol>
<use xlink:href="#lock"  width="20.946" height="32" x="-10.473" y="-16" transform="matrix(1 0 0 -1 16 16)" overflow="visible"/>
</svg>
