<?xml version="1.0" encoding="utf-8"?>
<!-- Generator: Adobe Illustrator 22.0.0, SVG Export Plug-In . SVG Version: 6.00 Build 0)  -->
<svg version="1.1" id="Layer_1" xmlns="http://www.w3.org/2000/svg" xmlns:xlink="http://www.w3.org/1999/xlink" x="0px" y="0px"
	 viewBox="0 0 311.3 135.6" style="enable-background:new 0 0 311.3 135.6;" xml:space="preserve">
<title>browserAsset 1</title>
<g id="Layer_1-2">
	<path d="M28.8,128c-3.6-14-9-27.5-16-40.1c-5.4-9.8-10-20-10.9-31.3C-0.2,30.8,13,11.1,37.4,2c7.5-2.8,13.9-3.7,19.2,3.6
		c1.2,1.7,3.2,2.9,4.7,4.3C79.7,2.2,90,4.6,104.4,20L70.9,57.3C56,46.6,47.4,31.1,56.3,16.5c-2.7-2.5-5.4-5.1-8.3-7.5
		c-1.2-0.7-2.7-0.8-4.1-0.5C17.1,15.4,3.3,40.9,12.3,67.1c1.8,5.2,4.4,10.1,6.5,15.1c5.5,13,11.3,25.9,16.3,39.1
		c1.9,5,3.9,7.7,9.3,6.7c1.7-0.2,3.4-0.3,5.1-0.2l0.5-7.1h7.6c0.2,2.2,0.4,4.4,0.7,7.3h12v7.7H0V128H28.8z M93.3,20.4
		c-7-4.9-13.4-9.9-21.9-6.4c-6,2.5-10.2,7.1-10.7,13.9c-0.5,7.8,4.2,13.1,9.4,18.3L93.3,20.4z"/>
	<path d="M115.8,131c-6.4,1.5-11.8,3.8-17.2,3.7c-8.7-0.2-13.3-5-15.4-13.7c-2-8.5,0.8-17.1,7-21.4c9.9-6.9,22.4-1.8,24.6,9.9
		c0.4,2.4,0.7,4.8,1.1,7.8H91.5c-1.1,9.5,6.8,12.3,20.2,7.2L115.8,131z M106.6,110.7c0-5.1-2.9-6.8-6.9-7c-4.5-0.3-7.2,2.2-7.7,7
		H106.6z"/>
	<path d="M153,117c0.4,10.3,8.2,12.8,20.4,7.2l3.3,5.5c-5.6,3.5-11.2,6.2-17.9,4.9c-10.6-2.1-16.1-11.1-14.1-23.1
		c1.7-10.2,9.6-16,20.2-14.5c5.1,0.5,9.4,4.1,10.8,9.1c1,3.3,1.2,6.8,1.9,10.8L153,117z M168.7,110.7c-0.6-5.4-3.6-7.3-7.9-7
		c-3.9,0.3-7.2,2-7.2,7H168.7z"/>
	<path d="M299.2,112c-0.1-8.4-5-10-16.4-5.5l-2.8-5.3c6.7-4.5,13.8-6.1,20.8-2.6c2.8,1.4,5.1,5.6,5.9,8.9c1,4.1,0.3,8.6,0.5,12.9
		c0.1,2.6-1.3,5.7,2.9,6.9c0.8,0.2,0.7,3.9,1.1,7.1c-4.4-0.5-8.1-1.1-11.8-1.4c-1.5,0.1-3,0.4-4.4,1c-5.3,1.7-10.2,1-14.2-3.1
		c-3.2-3.3-3.7-7.3-2-11.5c2.1-5,6.4-7,11.4-7.4C293.3,111.8,296.2,112,299.2,112z M299,118c-3.4,0.3-6.7,0-9.5,1
		c-1.6,0.6-3.4,3.3-3.4,5c0,1.3,2.5,3.4,4.2,3.8C296.5,129.2,300,125.3,299,118L299,118z"/>
	<path d="M216.8,100.5v7.5c-3.7,0.8-7.1,1.4-9.9-2.2c-0.7-0.9-2.3-1.4-3.5-1.6c-5.3-1-9.3,1.5-11,6.9c-2,6,0.3,13.1,4.9,15.5
		c4.4,2.3,9,0.6,13.2-5.2l6.1,2.9c-3.7,9-12,12.7-21.2,9.7c-8.5-2.8-13.5-13.2-11.1-22.9c1.8-7.2,5.9-13.1,13.3-13.6
		C203.8,96.9,210.2,99.3,216.8,100.5z"/>
	<path d="M246.9,104.7v-6.6h25.8v8.3c-2,0.2-4.1,0.1-6.1-0.1c-4.5-0.8-6.6,0.5-6.8,5.1c-0.2,4.8,0,9.6,0,14.7l5.7,1v6.7H247v-6.7
		l4.3-1v-20.4L246.9,104.7z"/>
	<path d="M127.1,88l-4.5-1v-6.6h12.3v45.3l5,1.6v6.4h-17.4v-6.4l4.6-1.4V88z"/>
	<path d="M224.5,104.5l-4.6-0.5V98l5.1-0.7c-0.2-5.2,0.2-10.4,7.8-10.4v10.4l7.8,0.8v6.1l-7.7,0.5c0,6.8-0.6,13.7,0.2,20.3
		c0.6,5.7,5.3,2.4,8.7,2.5l2,6.1c-3.8,0.4-7.2,1.1-10.5,1.1c-4.5,0-7.2-2.8-7.6-7.1C225,119.9,224.9,112.5,224.5,104.5z"/>
	<path d="M112.7,56.6l-5.3,6L93.3,49.8l5.2-6L112.7,56.6z"/>
	<path d="M120.3,43.2l-18.2-5.3c0.7-2.6,1.3-4.9,2-7.7l18.3,5.2C121.7,38,121.1,40.4,120.3,43.2z"/>
	<path d="M87.2,74.2c-2.3-5.9-4.5-11.6-6.9-17.7l7.4-2.9l6.9,17.7L87.2,74.2z"/>
</g>
</svg>
