<?xml version="1.0" encoding="utf-8"?>
<!-- Generator: Adobe Illustrator 14.0.0, SVG Export Plug-In . SVG Version: 6.00 Build 43363)  -->
<!DOCTYPE svg PUBLIC "-//W3C//DTD SVG 1.1//EN" "http://www.w3.org/Graphics/SVG/1.1/DTD/svg11.dtd">
<svg version="1.1" id="Layer_1" xmlns="http://www.w3.org/2000/svg" xmlns:xlink="http://www.w3.org/1999/xlink" x="0px" y="0px"
     width="32px" height="32px" viewBox="0 0 32 32" enable-background="new 0 0 32 32" xml:space="preserve">
<symbol  id="Arrow" viewBox="-8.988 -16 17.977 32">
	<polygon points="0.144,16 0.1,15.956 0.055,16 -8.988,6.893 -8.988,0.154 -8.777,-0.058 -2.424,6.295 -2.424,-16 2.622,-16 
		2.622,6.295 8.975,-0.058 8.988,-0.042 8.988,7.09 	"/>
</symbol>
<symbol  id="_x5F_button_x5F_shape" viewBox="-16 -16 32 32">
	<g id="button_x5F_shape_1_">
		<g>
			<g opacity="0">
				<path fill="#FFFFFF" d="M16-12c0-2.209-1.792-4-4-4h-24c-2.208,0-4,1.791-4,4v24c0,2.209,1.792,4,4,4h24c2.208,0,4-1.791,4-4
					V-12z"/>
			</g>
		</g>
	</g>
</symbol>
<use xlink:href="#Arrow"  width="17.977" height="32" x="-8.988" y="-16" transform="matrix(1 0 0 -1 16 16)" overflow="visible"/>
</svg>
