<?xml version="1.0" encoding="utf-8"?>
<!-- Generator: Adobe Illustrator 14.0.0, SVG Export Plug-In . SVG Version: 6.00 Build 43363)  -->
<!DOCTYPE svg PUBLIC "-//W3C//DTD SVG 1.1//EN" "http://www.w3.org/Graphics/SVG/1.1/DTD/svg11.dtd">
<svg version="1.1" id="Layer_1" xmlns="http://www.w3.org/2000/svg" xmlns:xlink="http://www.w3.org/1999/xlink" x="0px" y="0px"
	 width="32px" height="32px" viewBox="0 0 32 32" enable-background="new 0 0 32 32" xml:space="preserve">
<symbol  id="_x5F_button_x5F_shape" viewBox="-16 -16 32 32">
	<g id="button_x5F_shape_1_">
		<g>
			<g opacity="0">
				<path fill="#FFFFFF" d="M16-12c0-2.209-1.792-4-4-4h-24c-2.208,0-4,1.791-4,4v24c0,2.209,1.792,4,4,4h24c2.208,0,4-1.791,4-4
					V-12z"/>
			</g>
		</g>
	</g>
</symbol>
<symbol  id="octave" viewBox="-15.357 -16 30.714 32">
	<path d="M15.357,16L-8.246,8.919V-9.932c-0.963,0.465-2.26,0.578-3.584,0.225c-2.354-0.632-3.899-2.505-3.449-4.186
		c0.451-1.681,2.726-2.53,5.08-1.898c2.145,0.575,3.611,2.18,3.518,3.73h0.01V3.675l20.455,6.294V-3.018
		c-0.963,0.465-2.26,0.578-3.583,0.224c-2.355-0.631-3.9-2.504-3.45-4.185s2.724-2.529,5.079-1.898
		c2.222,0.595,3.719,2.296,3.505,3.896h0.022V16z"/>
</symbol>
<use xlink:href="#octave"  width="30.714" height="32" x="-15.357" y="-16" transform="matrix(1 0 0 -1 16 16)" overflow="visible"/>
</svg>
