<?xml version="1.0" encoding="utf-8"?>
<!-- Generator: Adobe Illustrator 14.0.0, SVG Export Plug-In . SVG Version: 6.00 Build 43363)  -->
<!DOCTYPE svg PUBLIC "-//W3C//DTD SVG 1.1//EN" "http://www.w3.org/Graphics/SVG/1.1/DTD/svg11.dtd">
<svg version="1.1" id="Layer_1" xmlns="http://www.w3.org/2000/svg" xmlns:xlink="http://www.w3.org/1999/xlink" x="0px" y="0px"
	 width="32px" height="32px" viewBox="0 0 32 32" enable-background="new 0 0 32 32" xml:space="preserve">
<symbol  id="_x5F_button_x5F_shape" viewBox="-16 -16 32 32">
	<g id="button_x5F_shape_1_">
		<g>
			<g opacity="0">
				<path fill="#FFFFFF" d="M16-12c0-2.209-1.792-4-4-4h-24c-2.208,0-4,1.791-4,4v24c0,2.209,1.792,4,4,4h24c2.208,0,4-1.791,4-4
					V-12z"/>
			</g>
		</g>
	</g>
</symbol>
<symbol  id="camera" viewBox="-16 -13.308 32 26.615">
	<g>
		<path d="M15.283,8.118v3.96c0,0.681-0.55,1.229-1.23,1.229H6.668c-0.68,0-1.23-0.55-1.23-1.229V8.845h-18.977
			C-14.898,8.845-16,7.743-16,6.384v-17.23c0-1.359,1.102-2.461,2.461-2.461h27.077c1.359,0,2.462,1.102,2.462,2.461v17.23
			C16,7.061,15.726,7.673,15.283,8.118z"/>
		<polygon fill="#FFFFFF" points="13.421,9.415 7.301,9.415 7.301,11.213 13.421,11.213 		"/>
		<path fill="#FFFFFF" d="M1.334-10.205c-4.453,0-8.077,3.623-8.077,8.076c0,4.454,3.624,8.077,8.077,8.077s8.077-3.623,8.077-8.077
			C9.411-6.582,5.787-10.205,1.334-10.205L1.334-10.205z M1.334,3.948c-3.352,0-6.077-2.727-6.077-6.077
			c0-3.352,2.726-6.076,6.077-6.076s6.077,2.727,6.077,6.076C7.411,1.223,4.686,3.948,1.334,3.948L1.334,3.948z"/>
	</g>
</symbol>
<use xlink:href="#camera"  width="32" height="26.615" x="-16" y="-13.308" transform="matrix(1 0 0 -1 16 16)" overflow="visible"/>
</svg>
