<?xml version="1.0" encoding="utf-8"?>
<!-- Generator: Adobe Illustrator 14.0.0, SVG Export Plug-In . SVG Version: 6.00 Build 43363)  -->
<!DOCTYPE svg PUBLIC "-//W3C//DTD SVG 1.1//EN" "http://www.w3.org/Graphics/SVG/1.1/DTD/svg11.dtd">
<svg version="1.1" id="Layer_1" xmlns="http://www.w3.org/2000/svg" xmlns:xlink="http://www.w3.org/1999/xlink" x="0px" y="0px"
	 width="32px" height="32px" viewBox="0 0 32 32" enable-background="new 0 0 32 32" xml:space="preserve">
<symbol  id="_x5F_button_x5F_shape" viewBox="-16 -16 32 32">
	<g id="button_x5F_shape_1_">
		<g>
			<g opacity="0">
				<path fill="#FFFFFF" d="M16-12c0-2.209-1.792-4-4-4h-24c-2.208,0-4,1.791-4,4v24c0,2.209,1.792,4,4,4h24c2.208,0,4-1.791,4-4
					V-12z"/>
			</g>
		</g>
	</g>
</symbol>
<symbol  id="cart" viewBox="-16 -13.306 32 26.61">
	<g>
		<path d="M13.673,8.999H-8.668c-0.019,0-0.036-0.004-0.053-0.006c-0.416,1.783-0.793,3.133-1.063,3.607l-0.402,0.704H-16v-2.793
			h4.032c0.715-2.478,3.004-15.42,3.338-16.545c0.502-1.686,2.171-1.686,2.171-1.686H9.988l0.93,2.793H-5.985
			C-6.034-4.65-6.089-4.349-6.144-4.033H9.949c1.161,0,2.127,0.855,2.299,1.969L16,6.375v0.297C16,7.956,14.955,8.999,13.673,8.999z
			 M9.558-1.24H-6.411l-1.656,7.447h20.936L9.558-1.24z"/>
		<path d="M7.803-8.105c-1.435,0-2.599-1.164-2.599-2.6c0-1.437,1.164-2.601,2.599-2.601c1.436,0,2.599,1.164,2.599,2.601
			C10.401-9.271,9.238-8.105,7.803-8.105z"/>
		<path d="M-4.868-8.105c-1.435,0-2.6-1.164-2.6-2.6c0-1.437,1.165-2.601,2.6-2.601s2.599,1.164,2.599,2.601
			C-2.269-9.271-3.433-8.105-4.868-8.105z"/>
	</g>
</symbol>
<use xlink:href="#cart"  width="32" height="26.61" x="-16" y="-13.306" transform="matrix(1 0 0 -1 16 15.9995)" overflow="visible"/>
</svg>
