<?xml version="1.0" encoding="utf-8"?>
<!-- Generator: Adobe Illustrator 14.0.0, SVG Export Plug-In . SVG Version: 6.00 Build 43363)  -->
<!DOCTYPE svg PUBLIC "-//W3C//DTD SVG 1.1//EN" "http://www.w3.org/Graphics/SVG/1.1/DTD/svg11.dtd">
<svg version="1.1" id="Layer_1" xmlns="http://www.w3.org/2000/svg" xmlns:xlink="http://www.w3.org/1999/xlink" x="0px" y="0px"
     width="32px" height="32px" viewBox="0 0 32 32" enable-background="new 0 0 32 32" xml:space="preserve">
<symbol  id="_x5F_button_x5F_shape" viewBox="-16 -16 32 32">
	<g id="button_x5F_shape_1_">
		<g>
			<g opacity="0">
				<path fill="#FFFFFF" d="M16-12c0-2.209-1.792-4-4-4h-24c-2.208,0-4,1.791-4,4v24c0,2.209,1.792,4,4,4h24c2.208,0,4-1.791,4-4
					V-12z"/>
			</g>
		</g>
	</g>
</symbol>
<symbol  id="chat" viewBox="-16 -13.868 32 27.736">
	<g>
		<g>
			<path d="M-12.575-12.887c2.178,0.917,3.546,2.367,3.546,2.367c-3.845,2.387-6.349,6.262-6.349,10.631
				c0,7.255,6.886,13.135,15.378,13.135s15.378-5.88,15.378-13.135S8.492-13.025,0-13.025c-1.823,0-3.573,0.272-5.194,0.771
				C-5.194-12.255-9.464-13.976-12.575-12.887z"/>
			<path d="M-10.207-13.868c-0.958,0-1.823,0.131-2.574,0.395l-1.526,0.534l1.491,0.628c1.241,0.521,2.21,1.233,2.778,1.711
				C-13.786-7.999-16-4.047-16,0.111c0,7.586,7.177,13.757,16,13.757c8.822,0,16-6.171,16-13.757c0-7.588-7.178-13.76-16-13.76
				c-1.772,0-3.51,0.248-5.171,0.736C-5.837-13.156-7.972-13.868-10.207-13.868L-10.207-13.868z M-10.695-12.612
				c0.159-0.009,0.322-0.012,0.488-0.012c2.4,0,4.757,0.938,4.781,0.948l0.204,0.08l0.21-0.063c1.604-0.493,3.291-0.743,5.012-0.743
				c8.136,0,14.756,5.614,14.756,12.515c0,6.899-6.62,12.513-14.756,12.513S-14.755,7.013-14.755,0.112
				c0-3.972,2.263-7.748,6.054-10.104l0.646-0.399l-0.522-0.556C-8.62-10.993-9.394-11.805-10.695-12.612L-10.695-12.612z"/>
		</g>
		<g>
			<path fill="#FFFFFF" d="M0.444,13.246c-8.246,0-14.933-5.709-14.933-12.756c0-4.243,2.431-8.003,6.166-10.321
				c-0.287-1.544-1.699-2.734-3.439-2.837c0.678-0.141,1.4-0.219,2.146-0.219c1.954,0,3.726,0.524,5.017,1.371
				c1.575-0.483,3.274-0.749,5.043-0.749c8.247,0,14.934,5.712,14.934,12.755C15.378,7.537,8.691,13.246,0.444,13.246z"/>
		</g>
	</g>
</symbol>
<use xlink:href="#chat"  width="32" height="27.736" x="-16" y="-13.868" transform="matrix(1 0 0 -1 16 16)" overflow="visible"/>
</svg>
