<?xml version="1.0" encoding="utf-8"?>
<!-- Generator: Adobe Illustrator 14.0.0, SVG Export Plug-In . SVG Version: 6.00 Build 43363)  -->
<!DOCTYPE svg PUBLIC "-//W3C//DTD SVG 1.1//EN" "http://www.w3.org/Graphics/SVG/1.1/DTD/svg11.dtd">
<svg version="1.1" id="Layer_1" xmlns="http://www.w3.org/2000/svg" xmlns:xlink="http://www.w3.org/1999/xlink" x="0px" y="0px"
	 width="32px" height="32px" viewBox="0 0 32 32" enable-background="new 0 0 32 32" xml:space="preserve">
<symbol  id="_x5F_button_x5F_shape" viewBox="-16 -16 32 32">
	<g id="button_x5F_shape_1_">
		<g>
			<g opacity="0">
				<path fill="#FFFFFF" d="M16-12c0-2.209-1.792-4-4-4h-24c-2.208,0-4,1.791-4,4v24c0,2.209,1.792,4,4,4h24c2.208,0,4-1.791,4-4
					V-12z"/>
			</g>
		</g>
	</g>
</symbol>
<symbol  id="cloud" viewBox="-16 -9.735 32 19.47">
	<g>
		<path fill="#FFFFFF" d="M-10.535-8.734C-12.997-8.734-15-6.731-15-4.27c0,2.456,1.999,4.46,4.456,4.464l0.71,0.002l0.232,0.672
			c0.789,2.276,2.937,3.808,5.347,3.808c0.29,0,0.582-0.021,0.868-0.065l0.729-0.112l0.323,0.663c1.072,2.205,3.26,3.574,5.71,3.574
			c3.13,0,5.83-2.332,6.28-5.426L9.758,2.61l0.693-0.139C13.087,1.949,15-0.385,15-3.076c0-3.12-2.538-5.658-5.658-5.658H-10.535z"
			/>
		<path fill="#4798ED" d="M3.376,7.734c2.637,0,4.912-1.965,5.291-4.569L8.87,1.767l1.387-0.274C12.426,1.062,14-0.859,14-3.076
			c0-2.567-2.09-4.658-4.658-4.658h-19.877C-12.446-7.734-14-6.18-14-4.27c0,1.906,1.551,3.461,3.458,3.465l1.421,0.003l0.465,1.343
			c0.649,1.875,2.418,3.135,4.402,3.135c0.237,0,0.479-0.019,0.719-0.056l1.456-0.222l0.644,1.323
			C-0.531,6.58,1.312,7.734,3.376,7.734 M3.376,9.734c-2.906,0-5.418-1.688-6.609-4.138c-0.333,0.052-0.674,0.078-1.021,0.078
			c-2.914,0-5.39-1.873-6.292-4.479C-13.56,1.189-16-1.255-16-4.27c0-3.019,2.447-5.466,5.465-5.466H9.342
			C13.02-9.734,16-6.754,16-3.076c0,3.23-2.302,5.924-5.354,6.529C10.129,7.006,7.071,9.734,3.376,9.734L3.376,9.734z"/>
	</g>
</symbol>
<use xlink:href="#cloud"  width="32" height="19.47" x="-16" y="-9.735" transform="matrix(1 0 0 -1 16 15.9995)" overflow="visible"/>
</svg>
