<?xml version="1.0" encoding="utf-8"?>
<!-- Generator: Adobe Illustrator 14.0.0, SVG Export Plug-In . SVG Version: 6.00 Build 43363)  -->
<!DOCTYPE svg PUBLIC "-//W3C//DTD SVG 1.1//EN" "http://www.w3.org/Graphics/SVG/1.1/DTD/svg11.dtd">
<svg version="1.1" id="Layer_1" xmlns="http://www.w3.org/2000/svg" xmlns:xlink="http://www.w3.org/1999/xlink" x="0px" y="0px"
     width="32px" height="32px" viewBox="0 0 32 32" enable-background="new 0 0 32 32" xml:space="preserve">
<symbol  id="_x5F_button_x5F_shape" viewBox="-16 -16 32 32">
	<g id="button_x5F_shape_1_">
		<g>
			<g opacity="0">
				<path fill="#FFFFFF" d="M16-12c0-2.209-1.792-4-4-4h-24c-2.208,0-4,1.791-4,4v24c0,2.209,1.792,4,4,4h24c2.208,0,4-1.791,4-4
					V-12z"/>
			</g>
		</g>
	</g>
</symbol>
<symbol  id="doc" viewBox="-12.445 -16 24.89 32">
	<g>
		<g>
			<polygon fill="#FFFFFF" points="-11.852,7.785 -11.852,-15.407 11.852,-15.407 11.852,15.407 -4.443,15.407 			"/>
			<path d="M12.444-16h-24.889V8.025L-4.693,16h17.138L12.444-16L12.444-16z M-11.259-14.814h22.518v29.63H-4.192l-7.067-7.271
				V-14.814L-11.259-14.814z"/>
		</g>
		<g>
			<polygon fill="#999999" points="-11.852,7.785 -4.443,7.785 -4.443,15.407 			"/>
		</g>
		<g>
			<line fill="none" x1="0" y1="11.597" x2="8.889" y2="11.597"/>
			<polygon fill="#808080" points="8.889,11.003 0,11.003 0,12.188 8.889,12.188 			"/>
		</g>
		<g>
			<line fill="none" x1="0" y1="9.226" x2="8.889" y2="9.226"/>
			<polygon fill="#808080" points="8.889,8.633 0,8.633 0,9.818 8.889,9.818 			"/>
		</g>
		<g>
			<line fill="none" x1="0" y1="6.855" x2="8.889" y2="6.855"/>
			<polygon fill="#808080" points="8.889,6.263 0,6.263 0,7.447 8.889,7.447 			"/>
		</g>
		<g>
			<line fill="none" x1="-9.284" y1="2.55" x2="8.889" y2="2.55"/>
			<polygon fill="#808080" points="8.889,1.957 -9.284,1.957 -9.284,3.143 8.889,3.143 			"/>
		</g>
		<g>
			<line fill="none" x1="-9.284" y1="-1.006" x2="8.889" y2="-1.006"/>
			<polygon fill="#808080" points="8.889,-1.599 -9.284,-1.599 -9.284,-0.413 8.889,-0.413 			"/>
		</g>
		<g>
			<line fill="none" x1="-9.284" y1="-4.562" x2="8.889" y2="-4.562"/>
			<polygon fill="#808080" points="8.889,-5.154 -9.284,-5.154 -9.284,-3.969 8.889,-3.969 			"/>
		</g>
		<g>
			<line fill="none" x1="-9.284" y1="-8.117" x2="8.889" y2="-8.117"/>
			<polygon fill="#808080" points="8.889,-8.71 -9.284,-8.71 -9.284,-7.524 8.889,-7.524 			"/>
		</g>
		<g>
			<line fill="none" x1="-9.284" y1="-11.673" x2="8.889" y2="-11.673"/>
			<polygon fill="#808080" points="8.889,-12.265 -9.284,-12.265 -9.284,-11.08 8.889,-11.08 			"/>
		</g>
	</g>
</symbol>
<use xlink:href="#doc"  width="24.89" height="32" x="-12.445" y="-16" transform="matrix(1 0 0 -1 16 16)" overflow="visible"/>
</svg>
