<?xml version="1.0" encoding="utf-8"?>
<!-- Generator: Adobe Illustrator 14.0.0, SVG Export Plug-In . SVG Version: 6.00 Build 43363)  -->
<!DOCTYPE svg PUBLIC "-//W3C//DTD SVG 1.1//EN" "http://www.w3.org/Graphics/SVG/1.1/DTD/svg11.dtd">
<svg version="1.1" id="Layer_1" xmlns="http://www.w3.org/2000/svg" xmlns:xlink="http://www.w3.org/1999/xlink" x="0px" y="0px"
	 width="32px" height="32px" viewBox="0 0 32 32" enable-background="new 0 0 32 32" xml:space="preserve">
<symbol  id="_x5F_button_x5F_shape" viewBox="-16 -16 32 32">
	<g id="button_x5F_shape_1_">
		<g>
			<g opacity="0">
				<path fill="#FFFFFF" d="M16-12c0-2.209-1.792-4-4-4h-24c-2.208,0-4,1.791-4,4v24c0,2.209,1.792,4,4,4h24c2.208,0,4-1.791,4-4
					V-12z"/>
			</g>
		</g>
	</g>
</symbol>
<symbol  id="film" viewBox="-16 -16 32 32">
	<polygon points="-16,16 -16,-16 16,-16 16,16 	"/>
	<g>
	</g>
	<g>
		<g>
			<polygon fill="#FFFFFF" points="15.145,12.815 12.814,12.815 12.814,15.146 15.145,15.146 			"/>
			<polygon fill="#FFFFFF" points="15.145,8.155 12.814,8.155 12.814,10.485 15.145,10.485 			"/>
			<polygon fill="#FFFFFF" points="15.145,3.495 12.814,3.495 12.814,5.825 15.145,5.825 			"/>
			<polygon fill="#FFFFFF" points="15.145,-1.165 12.814,-1.165 12.814,1.165 15.145,1.165 			"/>
			<polygon fill="#FFFFFF" points="15.145,-5.825 12.814,-5.825 12.814,-3.495 15.145,-3.495 			"/>
			<polygon fill="#FFFFFF" points="15.145,-10.485 12.814,-10.485 12.814,-8.155 15.145,-8.155 			"/>
			<polygon fill="#FFFFFF" points="15.145,-15.146 12.814,-15.146 12.814,-12.815 15.145,-12.815 			"/>
		</g>
		<g>
			<polygon fill="#FFFFFF" points="-12.816,12.815 -15.146,12.815 -15.146,15.146 -12.816,15.146 			"/>
			<polygon fill="#FFFFFF" points="-12.816,8.155 -15.146,8.155 -15.146,10.485 -12.816,10.485 			"/>
			<polygon fill="#FFFFFF" points="-12.816,3.495 -15.146,3.495 -15.146,5.825 -12.816,5.825 			"/>
			<polygon fill="#FFFFFF" points="-12.816,-1.165 -15.146,-1.165 -15.146,1.165 -12.816,1.165 			"/>
			<polygon fill="#FFFFFF" points="-12.816,-5.825 -15.146,-5.825 -15.146,-3.495 -12.816,-3.495 			"/>
			<polygon fill="#FFFFFF" points="-12.816,-10.485 -15.146,-10.485 -15.146,-8.155 -12.816,-8.155 			"/>
			<polygon fill="#FFFFFF" points="-12.816,-15.146 -15.146,-15.146 -15.146,-12.815 -12.816,-12.815 			"/>
		</g>
	</g>
	<g>
		<path fill="none" d="M11.215,16v-4.137c0-0.763-0.617-1.378-1.377-1.378H-9.705c-0.76,0-1.377,0.615-1.377,1.378V16H-16v-32h4.918
			v3.669c0,0.761,0.617,1.378,1.377,1.378H9.838c0.76,0,1.377-0.617,1.377-1.378V-16H16v32H11.215z M11.215-6.07
			c0-0.761-0.617-1.377-1.377-1.377H-9.705c-0.76,0-1.377,0.616-1.377,1.377V5.602c0,0.762,0.617,1.377,1.377,1.377H9.838
			c0.76,0,1.377-0.615,1.377-1.377V-6.07z"/>
		<path fill="#999999" d="M9.838,6.979H-9.705c-0.76,0-1.377-0.615-1.377-1.377V-6.07c0-0.761,0.617-1.377,1.377-1.377H9.838
			c0.76,0,1.377,0.616,1.377,1.377V5.602C11.215,6.362,10.598,6.979,9.838,6.979z"/>
		<path fill="#999999" d="M9.838-10.953H-9.705c-0.76,0-1.377-0.617-1.377-1.378V-16h22.297v3.669
			C11.215-11.57,10.598-10.953,9.838-10.953z"/>
		<path fill="#999999" d="M-9.705,10.485H9.838c0.76,0,1.377,0.615,1.377,1.378V16h-22.297v-4.137
			C-11.082,11.102-10.465,10.485-9.705,10.485z"/>
	</g>
</symbol>
<use xlink:href="#film"  width="32" height="32" x="-16" y="-16" transform="matrix(1 0 0 -1 16 16)" overflow="visible"/>
</svg>
