<?xml version="1.0" encoding="utf-8"?>
<!-- Generator: Adobe Illustrator 14.0.0, SVG Export Plug-In . SVG Version: 6.00 Build 43363)  -->
<!DOCTYPE svg PUBLIC "-//W3C//DTD SVG 1.1//EN" "http://www.w3.org/Graphics/SVG/1.1/DTD/svg11.dtd">
<svg version="1.1" id="Layer_1" xmlns="http://www.w3.org/2000/svg" xmlns:xlink="http://www.w3.org/1999/xlink" x="0px" y="0px"
	 width="32px" height="32px" viewBox="0 0 32 32" enable-background="new 0 0 32 32" xml:space="preserve">
<symbol  id="_x5F_button_x5F_shape" viewBox="-16 -16 32 32">
	<g id="button_x5F_shape_1_">
		<g>
			<g opacity="0">
				<path fill="#FFFFFF" d="M16-12c0-2.209-1.792-4-4-4h-24c-2.208,0-4,1.791-4,4v24c0,2.209,1.792,4,4,4h24c2.208,0,4-1.791,4-4
					V-12z"/>
			</g>
		</g>
	</g>
</symbol>
<symbol  id="folder" viewBox="-16 -13 32 26">
	<g>
		<g>
			<polygon fill="#999999" points="-15.5,12.5 -7.207,12.5 -3.207,8.5 9.5,8.5 9.5,5.5 -12.4,5.5 -15.5,-8.445 			"/>
			<path d="M-7.414,12l3.707-3.707L-3.414,8H-3H9V6h-21h-0.802l-0.174-0.783L-15-3.892V12H-7.414 M-7,13h-9v-26l4,18h22v4H-3L-7,13
				L-7,13z"/>
		</g>
		<g>
			<polygon fill="#999999" points="-15.278,-12.5 -9.653,2.5 15.278,2.5 9.653,-12.5 			"/>
			<path d="M14.557,2l-5.25-14h-23.864l5.25,14H14.557 M16,3h-26l-6-16h26L16,3L16,3z"/>
		</g>
	</g>
</symbol>
<use xlink:href="#folder"  width="32" height="26" x="-16" y="-13" transform="matrix(1 0 0 -1 16 16)" overflow="visible"/>
</svg>
