<?xml version="1.0" encoding="utf-8"?>
<!-- Generator: Adobe Illustrator 14.0.0, SVG Export Plug-In . SVG Version: 6.00 Build 43363)  -->
<!DOCTYPE svg PUBLIC "-//W3C//DTD SVG 1.1//EN" "http://www.w3.org/Graphics/SVG/1.1/DTD/svg11.dtd">
<svg version="1.1" id="Layer_1" xmlns="http://www.w3.org/2000/svg" xmlns:xlink="http://www.w3.org/1999/xlink" x="0px" y="0px"
	 width="32px" height="32px" viewBox="0 0 32 32" enable-background="new 0 0 32 32" xml:space="preserve">
<symbol  id="_x5F_button_x5F_shape" viewBox="-16 -16 32 32">
	<g id="button_x5F_shape_1_">
		<g>
			<g opacity="0">
				<path fill="#FFFFFF" d="M16-12c0-2.209-1.792-4-4-4h-24c-2.208,0-4,1.791-4,4v24c0,2.209,1.792,4,4,4h24c2.208,0,4-1.791,4-4
					V-12z"/>
			</g>
		</g>
	</g>
</symbol>
<symbol  id="gear" viewBox="-16 -16 32 32">
	<path d="M16-2.295v4.589l-4.123,0.61c-0.3,1.229-0.784,2.387-1.426,3.438l2.485,3.349l-3.245,3.244l-3.348-2.483
		c-1.054,0.641-2.209,1.126-3.439,1.425L2.295,16h-4.589l-0.609-4.123c-1.232-0.299-2.388-0.784-3.441-1.425l-3.346,2.483
		l-3.246-3.244l2.486-3.348c-0.643-1.054-1.128-2.21-1.428-3.439L-16,2.294v-4.589l4.122-0.609c0.3-1.23,0.785-2.387,1.426-3.439
		l-2.484-3.348l3.246-3.244l3.346,2.483c1.054-0.641,2.209-1.126,3.441-1.425L-2.294-16h4.589l0.609,4.123
		c1.231,0.3,2.387,0.784,3.44,1.426l3.347-2.484l3.245,3.244l-2.485,3.349c0.642,1.053,1.127,2.209,1.426,3.438L16-2.295z M0-4.287
		c-2.369,0-4.288,1.919-4.288,4.287c0,2.369,1.919,4.288,4.288,4.288c2.368,0,4.287-1.919,4.287-4.288
		C4.287-2.368,2.368-4.287,0-4.287z"/>
</symbol>
<use xlink:href="#gear"  width="32" height="32" x="-16" y="-16" transform="matrix(1 0 0 -1 16 16)" overflow="visible"/>
</svg>
