<?xml version="1.0" encoding="utf-8"?>
<!-- Generator: Adobe Illustrator 14.0.0, SVG Export Plug-In . SVG Version: 6.00 Build 43363)  -->
<!DOCTYPE svg PUBLIC "-//W3C//DTD SVG 1.1//EN" "http://www.w3.org/Graphics/SVG/1.1/DTD/svg11.dtd">
<svg version="1.1" id="Layer_1" xmlns="http://www.w3.org/2000/svg" xmlns:xlink="http://www.w3.org/1999/xlink" x="0px" y="0px"
	 width="32px" height="32px" viewBox="0 0 32 32" enable-background="new 0 0 32 32" xml:space="preserve">
<symbol  id="_x5F_button_x5F_shape" viewBox="-16 -16 32 32">
	<g id="button_x5F_shape_1_">
		<g>
			<g opacity="0">
				<path fill="#FFFFFF" d="M16-12c0-2.209-1.792-4-4-4h-24c-2.208,0-4,1.791-4,4v24c0,2.209,1.792,4,4,4h24c2.208,0,4-1.791,4-4
					V-12z"/>
			</g>
		</g>
	</g>
</symbol>
<symbol  id="home" viewBox="-16 -14 32 28">
	<g>
		<polygon points="0,7.783 -10,-2.217 -10,-14 -3,-14 -3,-5 3,-5 3,-14 10,-14 10,-2.217 		"/>
		<polygon points="-0.012,9.512 0,9.5 0.012,9.512 11.523,-2 16,-2 0,14 -16,-2 -11.524,-2 		"/>
	</g>
</symbol>
<use xlink:href="#home"  width="32" height="28" x="-16" y="-14" transform="matrix(1 0 0 -1 16 16)" overflow="visible"/>
</svg>
