<?xml version="1.0" encoding="utf-8"?>
<!-- Generator: Adobe Illustrator 14.0.0, SVG Export Plug-In . SVG Version: 6.00 Build 43363)  -->
<!DOCTYPE svg PUBLIC "-//W3C//DTD SVG 1.1//EN" "http://www.w3.org/Graphics/SVG/1.1/DTD/svg11.dtd">
<svg version="1.1" id="Layer_1" xmlns="http://www.w3.org/2000/svg" xmlns:xlink="http://www.w3.org/1999/xlink" x="0px" y="0px"
	 width="32px" height="32px" viewBox="0 0 32 32" enable-background="new 0 0 32 32" xml:space="preserve">
<symbol  id="_x5F_button_x5F_shape" viewBox="-16 -16 32 32">
	<g id="button_x5F_shape_1_">
		<g>
			<g opacity="0">
				<path fill="#FFFFFF" d="M16-12c0-2.209-1.792-4-4-4h-24c-2.208,0-4,1.791-4,4v24c0,2.209,1.792,4,4,4h24c2.208,0,4-1.791,4-4
					V-12z"/>
			</g>
		</g>
	</g>
</symbol>
<symbol  id="email" viewBox="-16 -11.26 32 22.52">
	<polygon fill="#FFFFFF" points="-14.853,-10.073 14.853,-10.073 14.853,10.073 -14.853,10.073 	"/>
	<path d="M-16,11.26v-22.52h32v22.52H-16z M-14.814,10.074h29.63V8.949L0.084-2.519L-14.814,8.968V10.074z M14.815-9.738
		L4.598-0.605l10.218,7.953L14.815-9.738L14.815-9.738z M14.3-10.074h-28.599L-4.058-0.92l4.146-3.196l4.033,3.142L14.3-10.074z
		 M-14.814-9.74V7.372l10.279-7.924L-14.814-9.74z"/>
</symbol>
<use xlink:href="#email"  width="32" height="22.52" x="-16" y="-11.26" transform="matrix(1 0 0 -1 16 16)" overflow="visible"/>
</svg>
