<?xml version="1.0" encoding="utf-8"?>
<!-- Generator: Adobe Illustrator 14.0.0, SVG Export Plug-In . SVG Version: 6.00 Build 43363)  -->
<!DOCTYPE svg PUBLIC "-//W3C//DTD SVG 1.1//EN" "http://www.w3.org/Graphics/SVG/1.1/DTD/svg11.dtd">
<svg version="1.1" id="Layer_1" xmlns="http://www.w3.org/2000/svg" xmlns:xlink="http://www.w3.org/1999/xlink" x="0px" y="0px"
     width="32px" height="32px" viewBox="0 0 32 32" enable-background="new 0 0 32 32" xml:space="preserve">
<symbol  id="_x5F_button_x5F_shape" viewBox="-16 -16 32 32">
	<g id="button_x5F_shape_1_">
		<g>
			<g opacity="0">
				<path fill="#FFFFFF" d="M16-12c0-2.209-1.792-4-4-4h-24c-2.208,0-4,1.791-4,4v24c0,2.209,1.792,4,4,4h24c2.208,0,4-1.791,4-4
					V-12z"/>
			</g>
		</g>
	</g>
</symbol>
<symbol  id="menu-mini" viewBox="-16 -12.647 32.001 25.295">
	<g>
		<path fill="#222222" d="M16,9.98c0-1.474-1.194-2.666-2.667-2.666h-26.667C-14.806,7.314-16,8.508-16,9.98l0,0
			c0,1.473,1.194,2.667,2.667,2.667h26.667C14.807,12.647,16,11.453,16,9.98L16,9.98z"/>
		<path fill="#222222" d="M16-9.98c0-1.473-1.194-2.667-2.667-2.667h-26.667c-1.473,0-2.667,1.194-2.667,2.667l0,0
			c0,1.474,1.194,2.667,2.667,2.667h26.667C14.807-7.313,16-8.508,16-9.98L16-9.98z"/>
		<path fill="#222222" d="M16,0c0-1.473-1.194-2.667-2.667-2.667h-26.667C-14.806-2.667-16-1.473-16,0l0,0
			c0,1.473,1.194,2.667,2.667,2.667h26.667C14.807,2.667,16,1.473,16,0L16,0z"/>
	</g>
</symbol>
<use xlink:href="#menu-mini"  width="32.001" height="25.295" x="-16" y="-12.647" transform="matrix(1 0 0 -1 16 16)" overflow="visible"/>
</svg>
