<?xml version="1.0" encoding="utf-8"?>
<!-- Generator: Adobe Illustrator 14.0.0, SVG Export Plug-In . SVG Version: 6.00 Build 43363)  -->
<!DOCTYPE svg PUBLIC "-//W3C//DTD SVG 1.1//EN" "http://www.w3.org/Graphics/SVG/1.1/DTD/svg11.dtd">
<svg version="1.1" id="Layer_1" xmlns="http://www.w3.org/2000/svg" xmlns:xlink="http://www.w3.org/1999/xlink" x="0px" y="0px"
     width="32px" height="32px" viewBox="0 0 32 32" enable-background="new 0 0 32 32" xml:space="preserve">
<g>
	<g>
		<path fill="#FFF93F" d="M29.639,25.799c0.48,0.48,0.482,1.26,0,1.74H2.361c-0.48-0.48-0.482-1.26,0-1.74L15.129,4.822
			c0.48-0.481,1.262-0.481,1.742,0L29.639,25.799z"/>
		<path d="M16,5.461c0.028,0,0.066,0.005,0.104,0.024l12.68,20.833l0.063,0.102l0.085,0.085c0.011,0.012,0.021,0.022,0.028,0.034
			H3.04c0.008-0.011,0.017-0.021,0.027-0.033l0.085-0.084l0.063-0.104l12.68-20.833C15.934,5.466,15.972,5.461,16,5.461 M16,4.461
			c-0.315,0-0.631,0.12-0.871,0.361L2.361,25.799c-0.482,0.48-0.48,1.26,0,1.74h27.277c0.482-0.48,0.48-1.26,0-1.74L16.871,4.822
			C16.631,4.581,16.315,4.461,16,4.461L16,4.461z"/>
	</g>
	<g>
		<path d="M14.635,24.185c0-0.833,0.578-1.435,1.391-1.435c0.809,0,1.34,0.602,1.34,1.435c0,0.81-0.531,1.435-1.389,1.435
			C15.189,25.619,14.635,24.994,14.635,24.185z M15.213,20.9L14.891,9.774h2.221L16.787,20.9H15.213z"/>
	</g>
</g>
</svg>
