<?xml version="1.0" encoding="utf-8"?>
<!-- Generator: Adobe Illustrator 14.0.0, SVG Export Plug-In . SVG Version: 6.00 Build 43363)  -->
<!DOCTYPE svg PUBLIC "-//W3C//DTD SVG 1.1//EN" "http://www.w3.org/Graphics/SVG/1.1/DTD/svg11.dtd">
<svg version="1.1" id="Layer_1" xmlns="http://www.w3.org/2000/svg" xmlns:xlink="http://www.w3.org/1999/xlink" x="0px" y="0px"
     width="32px" height="32px" viewBox="0 0 32 32" enable-background="new 0 0 32 32" xml:space="preserve">
<g>
	<g>
		<polygon fill="#FF2100" points="10.201,30 2,21.799 2,10.201 10.201,2 21.8,2 30,10.201 30,21.799 21.8,30 		"/>
		<path fill="#FFFFFF" d="M21.386,3L29,10.615v10.77L21.386,29H10.615L3,21.385v-10.77L10.615,3H21.386 M21.8,2H10.201L2,10.201
			v11.598L10.201,30H21.8l8.2-8.201V10.201L21.8,2L21.8,2z"/>
	</g>
	<g>
		<path fill="#FFFFFF" d="M4.852,18.887c0.423,0.271,1.031,0.477,1.682,0.477c0.966,0,1.529-0.51,1.529-1.247
			c0-0.673-0.39-1.073-1.377-1.442c-1.193-0.435-1.932-1.063-1.932-2.084c0-1.139,0.944-1.984,2.365-1.984
			c0.737,0,1.291,0.174,1.605,0.357l-0.26,0.771c-0.229-0.142-0.717-0.347-1.378-0.347c-0.998,0-1.378,0.596-1.378,1.096
			c0,0.684,0.444,1.02,1.453,1.41c1.237,0.477,1.855,1.074,1.855,2.148c0,1.128-0.824,2.115-2.55,2.115
			c-0.705,0-1.475-0.217-1.865-0.478L4.852,18.887z"/>
		<path fill="#FFFFFF" d="M11.708,13.527H9.484v-0.803h5.413v0.803h-2.234v6.51h-0.955V13.527z"/>
		<path fill="#FFFFFF" d="M21.668,16.305c0,2.506-1.529,3.852-3.396,3.852c-1.942,0-3.287-1.508-3.287-3.722
			c0-2.321,1.432-3.841,3.385-3.841C20.377,12.594,21.668,14.124,21.668,16.305z M15.983,16.413c0,1.573,0.847,2.973,2.344,2.973
			s2.343-1.378,2.343-3.038c0-1.465-0.759-2.983-2.332-2.983S15.983,14.818,15.983,16.413z"/>
		<path fill="#FFFFFF" d="M22.895,12.811c0.456-0.075,1.053-0.141,1.813-0.141c0.933,0,1.616,0.217,2.05,0.607
			c0.391,0.348,0.641,0.879,0.641,1.53c0,0.661-0.195,1.183-0.564,1.562c-0.51,0.532-1.313,0.803-2.235,0.803
			c-0.281,0-0.542-0.01-0.759-0.064v2.93h-0.944V12.811z M23.839,16.337c0.206,0.055,0.467,0.076,0.781,0.076
			c1.139,0,1.833-0.563,1.833-1.552c0-0.977-0.694-1.442-1.725-1.442c-0.412,0-0.728,0.032-0.89,0.075V16.337z"/>
	</g>
</g>
</svg>
