<?xml version="1.0" encoding="utf-8"?>
<!-- Generator: Adobe Illustrator 14.0.0, SVG Export Plug-In . SVG Version: 6.00 Build 43363)  -->
<!DOCTYPE svg PUBLIC "-//W3C//DTD SVG 1.1//EN" "http://www.w3.org/Graphics/SVG/1.1/DTD/svg11.dtd">
<svg version="1.1" id="Layer_1" xmlns="http://www.w3.org/2000/svg" xmlns:xlink="http://www.w3.org/1999/xlink" x="0px" y="0px"
     width="32px" height="32px" viewBox="0 0 32 32" enable-background="new 0 0 32 32" xml:space="preserve">
<symbol  id="_x5F_button_x5F_shape" viewBox="-16 -16 32 32">
	<g id="button_x5F_shape_1_">
		<g>
			<g opacity="0">
				<path fill="#FFFFFF" d="M16-12c0-2.209-1.792-4-4-4h-24c-2.208,0-4,1.791-4,4v24c0,2.209,1.792,4,4,4h24c2.208,0,4-1.791,4-4
					V-12z"/>
			</g>
		</g>
	</g>
</symbol>
<symbol  id="acrobat" viewBox="-12.439 -16 24.879 32">
	<g>
		<g>
			<g>
				<path d="M12.439-16h-24.879v32h24.879V-16L12.439-16z M-11.254-14.814h22.509v29.347h-22.509V-14.814L-11.254-14.814z"/>
			</g>
		</g>
	</g>
	<polygon fill="#FFFFFF" points="-11.253,-14.673 11.255,-14.673 11.255,14.673 -11.253,14.673 	"/>
	<g>
		<path fill="#FF0000" d="M-9.351-9.346c-0.229,0-0.403,0.071-0.529,0.155c-0.489,0.326-0.56,0.708-0.535,0.973
			c0.118,1.183,2.677,2.29,3.188,2.5l0.287-0.698c1.988,2.674,4.216,7.3,4.216,11.01h0.764c0-5.145-4.205-12.419-6.646-13.725
			C-8.897-9.288-9.146-9.346-9.351-9.346L-9.351-9.346z M-6.95-6.431c-1.272-0.524-2.658-1.396-2.704-1.863
			c-0.003-0.029-0.012-0.12,0.199-0.261c0.123-0.083,0.383,0.039,0.489,0.097C-8.417-8.164-7.701-7.437-6.95-6.431L-6.95-6.431z"/>
		<path fill="#FF0000" d="M-4.773-5.94l-0.401,0.649c4.377,2.701,12.776,2.94,15.17,1.548c0.613-0.354,0.729-0.769,0.72-1.052
			c-0.022-0.59-0.31-0.852-0.547-0.967C9.1-6.28,6.813-4.687,6.366-4.36l0.443,0.609C3.488-3.462-1.618-3.993-4.773-5.94
			L-4.773-5.94z M6.828-3.753C7.941-4.559,9.409-5.28,9.833-5.075C9.859-5.062,9.94-5.022,9.951-4.769
			C9.956-4.62,9.715-4.463,9.61-4.402C9.074-4.091,8.079-3.862,6.828-3.753L6.828-3.753z"/>
		<path fill="#FF0000" d="M4.941-2.907C0.47-0.368-3.782,6.879-3.712,9.646c0.017,0.707,0.323,1.01,0.577,1.138
			c0.525,0.264,0.894,0.138,1.109-0.016c0.971-0.688,0.671-3.458,0.601-4.007l-0.749,0.098c1.344-3.052,4.267-7.272,7.492-9.104
			L4.941-2.907L4.941-2.907z M-2.559,10.173c-0.051,0-0.124-0.017-0.234-0.071c-0.134-0.065-0.154-0.354-0.158-0.474
			c-0.015-0.621,0.265-1.604,0.77-2.753c0.172,1.363,0.099,2.999-0.286,3.271C-2.479,10.155-2.505,10.173-2.559,10.173
			L-2.559,10.173z"/>
	</g>
</symbol>
<use xlink:href="#acrobat"  width="24.879" height="32" x="-12.439" y="-16" transform="matrix(1 0 0 -1 16 16)" overflow="visible"/>
</svg>
