<?xml version="1.0" encoding="utf-8"?>
<!-- Generator: Adobe Illustrator 14.0.0, SVG Export Plug-In . SVG Version: 6.00 Build 43363)  -->
<!DOCTYPE svg PUBLIC "-//W3C//DTD SVG 1.1//EN" "http://www.w3.org/Graphics/SVG/1.1/DTD/svg11.dtd">
<svg version="1.1" id="Layer_1" xmlns="http://www.w3.org/2000/svg" xmlns:xlink="http://www.w3.org/1999/xlink" x="0px" y="0px"
	 width="32px" height="32px" viewBox="0 0 32 32" enable-background="new 0 0 32 32" xml:space="preserve">
<symbol  id="_x5F_button_x5F_shape" viewBox="-16 -16 32 32">
	<g id="button_x5F_shape_1_">
		<g>
			<g opacity="0">
				<path fill="#FFFFFF" d="M16-12c0-2.209-1.792-4-4-4h-24c-2.208,0-4,1.791-4,4v24c0,2.209,1.792,4,4,4h24c2.208,0,4-1.791,4-4
					V-12z"/>
			</g>
		</g>
	</g>
</symbol>
<symbol  id="phone-receiver" viewBox="-16 -16 32 32">
	<g>
		<path d="M-6.156,9.834l-2.053-1.186C-8.364,8.56-8.417,8.361-8.328,8.207l3.125-5.412c0.089-0.154,0.287-0.207,0.441-0.116
			l2.052,1.186c0.154,0.088,0.208,0.286,0.119,0.438l-3.125,5.413C-5.805,9.872-6.002,9.924-6.156,9.834z"/>
		<path d="M2.204-4.002C2.115-3.847,1.918-3.793,1.763-3.884L-0.29-5.067C-0.444-5.156-0.497-5.354-0.409-5.51l3.125-5.41
			c0.091-0.156,0.289-0.207,0.442-0.119l2.053,1.186c0.154,0.089,0.208,0.287,0.119,0.44L2.204-4.002z"/>
		<path d="M0,16c-8.823,0-16-7.178-16-16s7.177-16,16-16c1.031,0,2.056,0.098,3.048,0.29l-0.187,0.953
			C1.932-14.938,0.969-15.03,0-15.03c-8.288,0-15.03,6.742-15.03,15.03S-8.288,15.031,0,15.031S15.03,8.288,15.03,0
			c0-3.922-1.501-7.633-4.228-10.451c-1.22-1.26-1.682-1.398-1.871-1.381c-0.016,0.002-0.049,0.007-0.099,0.102
			c-0.47,0.87-1.494,2.949-1.77,3.513C7.818-7.614,8.421-6.739,8.37-5.485C8.163-0.353,1.555,9.82-1.198,10.854
			c-1.617,0.608-3.122-0.113-4.087-0.814c0.013-0.015,0.026-0.033,0.038-0.052L-2.23,4.76c1.055,0.588,2.776,0.672,4.715-2.686
			c2.033-3.524,1.252-5.23,0.317-6.032l2.916-5.049C5.89-8.934,6.066-8.848,6.245-8.752c0.337-0.688,1.276-2.589,1.733-3.438
			c0.233-0.437,0.575-0.567,0.82-0.603c0.856-0.123,1.797,0.732,2.701,1.667C14.401-8.125,16-4.174,16,0C16,8.822,8.823,16,0,16z"/>
	</g>
</symbol>
<use xlink:href="#phone-receiver"  width="32" height="32" x="-16" y="-16" transform="matrix(1 0 0 -1 16 16)" overflow="visible"/>
</svg>
