<?xml version="1.0" encoding="utf-8"?>
<!-- Generator: Adobe Illustrator 14.0.0, SVG Export Plug-In . SVG Version: 6.00 Build 43363)  -->
<!DOCTYPE svg PUBLIC "-//W3C//DTD SVG 1.1//EN" "http://www.w3.org/Graphics/SVG/1.1/DTD/svg11.dtd">
<svg version="1.1" id="Layer_1" xmlns="http://www.w3.org/2000/svg" xmlns:xlink="http://www.w3.org/1999/xlink" x="0px" y="0px"
     width="32px" height="32px" viewBox="0 0 32 32" enable-background="new 0 0 32 32" xml:space="preserve">
<symbol  id="_x5F_button_x5F_shape" viewBox="-16 -16 32 32">
	<g id="button_x5F_shape_1_">
		<g>
			<g opacity="0">
				<path fill="#FFFFFF" d="M16-12c0-2.209-1.792-4-4-4h-24c-2.208,0-4,1.791-4,4v24c0,2.209,1.792,4,4,4h24c2.208,0,4-1.791,4-4
					V-12z"/>
			</g>
		</g>
	</g>
</symbol>
<symbol  id="phone-rotary" viewBox="-16 -10.212 32 20.424">
	<g>
		<g>
			<path d="M-15.539,5.203c-0.029,0-0.06-0.003-0.086-0.006c-0.173,1.063,0.007,2.554,1.888,3.535
				c3.2,1.671,20.249,2.224,26.645,0.078c2.453-0.823,2.645-2.478,2.418-3.642L7.118,5.18C6.803,6.263,5.276,7.636-0.45,7.644
				c-5.454,0.004-6.567-1.366-6.596-2.449L-15.539,5.203z"/>
			<path d="M-16,2.306c-0.001-0.159,0.202-0.29,0.452-0.29l8.797-0.01c0.251,0.001,0.453,0.13,0.455,0.29l0.005,2.123
				c0,0.16-0.202,0.292-0.453,0.292l-8.794,0.009c-0.252,0-0.456-0.13-0.456-0.289L-16,2.306z"/>
			<path d="M6.29,2.283c-0.002-0.16,0.203-0.29,0.455-0.291l8.793-0.008c0.252-0.003,0.456,0.128,0.456,0.289L16,4.398
				c-0.001,0.157-0.204,0.287-0.454,0.288L6.751,4.695c-0.253,0-0.455-0.129-0.455-0.288L6.29,2.283z"/>
		</g>
		<g>
			<path d="M11.916-3.624c0,4.404-7.512,6.455-11.11,6.51C-4.084,2.962-11.913,1.394-11.913-3.6c0.02,0.005,0.043,0.006,0.067,0.006
				v-6.618h23.762V-3.624z"/>
		</g>
		<g>
			<polygon points="4.532,0.36 2.422,0.36 2.422,8.307 4.532,8.307 			"/>
			<polygon points="-2.421,0.36 -4.531,0.36 -4.531,8.307 -2.421,8.307 			"/>
		</g>
		<path fill="#FFFFFF" d="M4.434-3.674c0-2.355-1.907-4.263-4.263-4.263c-2.354,0-4.262,1.906-4.262,4.263
			c0,2.354,1.909,4.263,4.262,4.263C2.526,0.589,4.434-1.319,4.434-3.674z"/>
		<g>
			<path fill="#808080" d="M4.093-3.674c0-0.521-0.422-0.941-0.941-0.941c-0.521,0-0.942,0.421-0.942,0.941
				c0,0.52,0.422,0.94,0.942,0.94C3.671-2.732,4.093-3.154,4.093-3.674z"/>
			<path fill="#808080" d="M-1.867-3.674c0-0.521-0.422-0.941-0.942-0.941S-3.75-4.194-3.75-3.674c0,0.52,0.421,0.94,0.941,0.94
				C-2.289-2.732-1.867-3.154-1.867-3.674z"/>
		</g>
		<g>
			<path fill="#808080" d="M2.944-0.902C3.313-1.27,3.313-1.865,2.943-2.233C2.577-2.6,1.98-2.6,1.613-2.233
				c-0.368,0.368-0.368,0.965,0,1.331C1.98-0.533,2.577-0.533,2.944-0.902z"/>
			<path fill="#808080" d="M-1.269-5.115c0.368-0.367,0.368-0.964,0-1.331c-0.368-0.368-0.964-0.368-1.332,0
				c-0.368,0.367-0.368,0.964,0,1.331S-1.637-4.748-1.269-5.115z"/>
		</g>
		<g>
			<path fill="#808080" d="M2.943-6.446c-0.366-0.368-0.963-0.368-1.33,0c-0.368,0.367-0.368,0.964,0,1.331
				c0.367,0.367,0.964,0.367,1.33,0C3.313-5.482,3.313-6.079,2.943-6.446z"/>
			<path fill="#808080" d="M-1.269-2.233c-0.368-0.366-0.964-0.366-1.332,0c-0.368,0.368-0.368,0.965,0,1.331
				c0.368,0.369,0.964,0.369,1.332,0.001S-0.901-1.865-1.269-2.233z"/>
		</g>
		<g>
			<path fill="#808080" d="M0.171-1.636c-0.52,0-0.941,0.422-0.941,0.94c0,0.521,0.422,0.942,0.941,0.942
				c0.521,0,0.942-0.422,0.942-0.942C1.113-1.214,0.692-1.636,0.171-1.636z"/>
		</g>
	</g>
</symbol>
<use xlink:href="#phone-rotary"  width="32" height="20.424" x="-16" y="-10.212" transform="matrix(1 0 0 -1 16 16)" overflow="visible"/>
</svg>
