<?xml version="1.0" encoding="utf-8"?>
<!-- Generator: Adobe Illustrator 14.0.0, SVG Export Plug-In . SVG Version: 6.00 Build 43363)  -->
<!DOCTYPE svg PUBLIC "-//W3C//DTD SVG 1.1//EN" "http://www.w3.org/Graphics/SVG/1.1/DTD/svg11.dtd">
<svg version="1.1" id="Layer_1" xmlns="http://www.w3.org/2000/svg" xmlns:xlink="http://www.w3.org/1999/xlink" x="0px" y="0px"
	 width="32px" height="32px" viewBox="0 0 32 32" enable-background="new 0 0 32 32" xml:space="preserve">
<symbol  id="_x5F_button_x5F_shape" viewBox="-16 -16 32 32">
	<g id="button_x5F_shape_1_">
		<g>
			<g opacity="0">
				<path fill="#FFFFFF" d="M16-12c0-2.209-1.792-4-4-4h-24c-2.208,0-4,1.791-4,4v24c0,2.209,1.792,4,4,4h24c2.208,0,4-1.791,4-4
					V-12z"/>
			</g>
		</g>
	</g>
</symbol>
<symbol  id="panorama" viewBox="-16 -13 32 26">
	<g>
		<path fill="#999999" d="M-16-13h32v26h-32V-13z M14-11h-28v22h28V-11z"/>
		<path d="M6,6c0-1.656,1.344-3,3-3c1.657,0,3,1.344,3,3c0,1.657-1.343,3-3,3C7.344,9,6,7.657,6,6"/>
		<polygon points="12,-9 -12,-9 -6,7 2,-3 6,0 		"/>
	</g>
</symbol>
<use xlink:href="#panorama"  width="32" height="26" x="-16" y="-13" transform="matrix(1 0 0 -1 16 16)" overflow="visible"/>
</svg>
