<?xml version="1.0" encoding="utf-8"?>
<!-- Generator: Adobe Illustrator 14.0.0, SVG Export Plug-In . SVG Version: 6.00 Build 43363)  -->
<!DOCTYPE svg PUBLIC "-//W3C//DTD SVG 1.1//EN" "http://www.w3.org/Graphics/SVG/1.1/DTD/svg11.dtd">
<svg version="1.1" id="Layer_1" xmlns="http://www.w3.org/2000/svg" xmlns:xlink="http://www.w3.org/1999/xlink" x="0px" y="0px"
	 width="32px" height="32px" viewBox="0 0 32 32" enable-background="new 0 0 32 32" xml:space="preserve">
<symbol  id="_x5F_button_x5F_shape" viewBox="-16 -16 32 32">
	<g id="button_x5F_shape_1_">
		<g>
			<g opacity="0">
				<path fill="#FFFFFF" d="M16-12c0-2.209-1.792-4-4-4h-24c-2.208,0-4,1.791-4,4v24c0,2.209,1.792,4,4,4h24c2.208,0,4-1.791,4-4
					V-12z"/>
			</g>
		</g>
	</g>
</symbol>
<symbol  id="printer" viewBox="-16 -14 32 28">
	<g>
		<polygon fill="#FFFFFF" points="6,-12 -6,-12 -6,-2 6,-2 		"/>
		<path fill="#1A1A1A" d="M-8,14H8v-4H-8V14z M14,8h-28c-1.099,0-2-0.9-2-2V-4c0-1.1,0.901-2,2-2h6v-8H8v8h6c1.101,0,2,0.9,2,2V6
			C16,7.1,15.101,8,14,8 M6-12H-6v10H6V-12z"/>
		<g>
			<line fill="none" x1="-4.512" y1="-9.897" x2="4.515" y2="-9.897"/>
			<polygon fill="#808080" points="4.515,-10.514 -4.512,-10.514 -4.512,-9.282 4.515,-9.282 			"/>
		</g>
		<g>
			<line fill="none" x1="-4.512" y1="-7.437" x2="4.515" y2="-7.437"/>
			<polygon fill="#808080" points="4.515,-8.052 -4.512,-8.052 -4.512,-6.821 4.515,-6.821 			"/>
		</g>
		<g>
			<line fill="none" x1="-4.512" y1="-4.975" x2="4.515" y2="-4.975"/>
			<polygon fill="#808080" points="4.515,-5.59 -4.512,-5.59 -4.512,-4.359 4.515,-4.359 			"/>
		</g>
	</g>
</symbol>
<use xlink:href="#printer"  width="32" height="28" x="-16" y="-14" transform="matrix(1 0 0 -1 16 16)" overflow="visible"/>
</svg>
