<?xml version="1.0" encoding="utf-8"?>
<!-- Generator: Adobe Illustrator 14.0.0, SVG Export Plug-In . SVG Version: 6.00 Build 43363)  -->
<!DOCTYPE svg PUBLIC "-//W3C//DTD SVG 1.1//EN" "http://www.w3.org/Graphics/SVG/1.1/DTD/svg11.dtd">
<svg version="1.1" id="Layer_1" xmlns="http://www.w3.org/2000/svg" xmlns:xlink="http://www.w3.org/1999/xlink" x="0px" y="0px"
	 width="32px" height="32px" viewBox="0 0 32 32" enable-background="new 0 0 32 32" xml:space="preserve">
<symbol  id="_x5F_button_x5F_shape" viewBox="-16 -16 32 32">
	<g id="button_x5F_shape_1_">
		<g>
			<g opacity="0">
				<path fill="#FFFFFF" d="M16-12c0-2.209-1.792-4-4-4h-24c-2.208,0-4,1.791-4,4v24c0,2.209,1.792,4,4,4h24c2.208,0,4-1.791,4-4
					V-12z"/>
			</g>
		</g>
	</g>
</symbol>
<symbol  id="magnifyingGlass" viewBox="-15.465 -16 30.93 32">
	<g>
		<g>
			<path d="M4.478,12.46C9.042,7.74,9.042,0.087,4.479-4.634C-0.083-9.353-7.48-9.353-12.043-4.632
				c-4.563,4.719-4.563,12.372,0,17.092C-7.48,17.181-0.086,17.18,4.478,12.46z"/>
			<path d="M15.465-13.238c0,0-0.04-0.688-0.964-1.645C13.578-15.837,12.795-16,12.795-16L0.891-3.686l2.671,2.763L15.465-13.238z"
				/>
		</g>
		<path fill="#FFFFFF" d="M3.518,11.468C7.552,7.296,7.554,0.53,3.521-3.642c-4.034-4.172-10.572-4.172-14.606,0
			c-4.031,4.173-4.031,10.938,0,15.108C-7.052,15.641-0.514,15.641,3.518,11.468z"/>
		<path fill="#E6E6E6" d="M1.917,12.24C4.975,9.077,4.973,3.945,1.915,0.781c-3.059-3.163-8.018-3.163-11.075,0
			c-3.061,3.164-3.061,8.296-0.003,11.459C-6.103,15.404-1.144,15.404,1.917,12.24z"/>
	</g>
</symbol>
<use xlink:href="#magnifyingGlass"  width="30.93" height="32" x="-15.465" y="-16" transform="matrix(1 0 0 -1 16 16)" overflow="visible"/>
</svg>
