<?xml version="1.0" encoding="utf-8"?>
<!-- Generator: Adobe Illustrator 14.0.0, SVG Export Plug-In . SVG Version: 6.00 Build 43363)  -->
<!DOCTYPE svg PUBLIC "-//W3C//DTD SVG 1.1//EN" "http://www.w3.org/Graphics/SVG/1.1/DTD/svg11.dtd">
<svg version="1.1" id="Layer_1" xmlns="http://www.w3.org/2000/svg" xmlns:xlink="http://www.w3.org/1999/xlink" x="0px" y="0px"
	 width="32px" height="32px" viewBox="0 0 32 32" enable-background="new 0 0 32 32" xml:space="preserve">
<symbol  id="_x5F_button_x5F_shape" viewBox="-16 -16 32 32">
	<g id="button_x5F_shape_1_">
		<g>
			<g opacity="0">
				<path fill="#FFFFFF" d="M16-12c0-2.209-1.792-4-4-4h-24c-2.208,0-4,1.791-4,4v24c0,2.209,1.792,4,4,4h24c2.208,0,4-1.791,4-4
					V-12z"/>
			</g>
		</g>
	</g>
</symbol>
<symbol  id="user" viewBox="-16 -15 32 30">
	<path d="M-8,7c0-4.419,3.582-8,8-8s8,3.581,8,8s-3.582,8-8,8S-8,11.419-8,7 M8-3H-8c-4.418,0-8-3.582-8-8v-4h0.252h31.496H16v4
		C16-6.582,12.418-3,8-3"/>
</symbol>
<use xlink:href="#user"  width="32" height="30" x="-16" y="-15" transform="matrix(1 0 0 -1 16 16)" overflow="visible"/>
</svg>
