<?xml version="1.0" encoding="utf-8"?>
<!-- Generator: Adobe Illustrator 14.0.0, SVG Export Plug-In . SVG Version: 6.00 Build 43363)  -->
<!DOCTYPE svg PUBLIC "-//W3C//DTD SVG 1.1//EN" "http://www.w3.org/Graphics/SVG/1.1/DTD/svg11.dtd">
<svg version="1.1" id="Layer_1" xmlns="http://www.w3.org/2000/svg" xmlns:xlink="http://www.w3.org/1999/xlink" x="0px" y="0px"
     width="32px" height="32px" viewBox="0 0 32 32" enable-background="new 0 0 32 32" xml:space="preserve">
<symbol  id="_x5F_button_x5F_shape" viewBox="-16 -16 32 32">
	<g id="button_x5F_shape_1_">
		<g>
			<g opacity="0">
				<path fill="#FFFFFF" d="M16-12c0-2.209-1.792-4-4-4h-24c-2.208,0-4,1.791-4,4v24c0,2.209,1.792,4,4,4h24c2.208,0,4-1.791,4-4
					V-12z"/>
			</g>
		</g>
	</g>
</symbol>
<symbol  id="user-social" viewBox="-16 -14.511 32 29.021">
	<g>
		<path d="M-0.801,2.189c0-3.093,2.509-5.601,5.602-5.601c3.092,0,5.6,2.508,5.6,5.601c0,3.094-2.508,5.6-5.6,5.6
			C1.708,7.789-0.801,5.283-0.801,2.189 M10.4-4.811H-0.801c-3.092,0-5.6-2.508-5.6-5.601v-4.1h0.177h22.047H16v4.1
			C16-7.317,13.493-4.811,10.4-4.811"/>
		<g>
			<g>
				<path fill="#999999" d="M-5.6,4.11c2.871,0,5.199,2.328,5.199,5.199c0,2.872-2.328,5.2-5.199,5.2
					c-2.872,0-5.201-2.327-5.201-5.199C-10.801,6.439-8.471,4.11-5.6,4.11z"/>
				<path fill="#1A1A1A" d="M-5.6,13.51c2.315,0,4.199-1.884,4.199-4.199c0-2.314-1.884-4.199-4.199-4.199
					c-2.316,0-4.201,1.885-4.201,4.199C-9.801,11.626-7.916,13.51-5.6,13.51 M-5.6,14.51c-2.872,0-5.201-2.327-5.201-5.199
					c0-2.871,2.329-5.199,5.201-5.199c2.871,0,5.199,2.328,5.199,5.199C-0.401,12.183-2.729,14.51-5.6,14.51L-5.6,14.51z"/>
			</g>
			<g>
				<path fill="#999999" d="M-7.521-10.41c0,3.706,3.015,6.721,6.72,6.721h2.35c-2.066,1.147-3.47,3.354-3.47,5.88
					c0,0.209,0.014,0.416,0.032,0.62H-10.8c-2.873,0-5.2-2.327-5.2-5.199V-12.65h0.164h8.316L-7.521-10.41L-7.521-10.41z"/>
				<path fill="#1A1A1A" d="M-2.912,1.811c0.083-1.669,0.706-3.244,1.74-4.509c-4.085-0.193-7.349-3.579-7.349-7.712v-1.24H-15
					v9.262c0,2.315,1.884,4.199,4.2,4.199H-2.912 M-1.889,2.811H-10.8c-2.873,0-5.2-2.327-5.2-5.199V-12.65h0.164h8.316v2.24
					c0,3.706,3.015,6.721,6.72,6.721h2.35c-2.066,1.147-3.47,3.354-3.47,5.88C-1.921,2.398-1.907,2.605-1.889,2.811L-1.889,2.811z"
					/>
			</g>
		</g>
	</g>
</symbol>
<use xlink:href="#user-social"  width="32" height="29.021" x="-16" y="-14.511" transform="matrix(1 0 0 -1 16 15.9995)" overflow="visible"/>
</svg>
