<?xml version="1.0" encoding="utf-8"?>
<!-- Generator: Adobe Illustrator 14.0.0, SVG Export Plug-In . SVG Version: 6.00 Build 43363)  -->
<!DOCTYPE svg PUBLIC "-//W3C//DTD SVG 1.1//EN" "http://www.w3.org/Graphics/SVG/1.1/DTD/svg11.dtd">
<svg version="1.1" id="Layer_1" xmlns="http://www.w3.org/2000/svg" xmlns:xlink="http://www.w3.org/1999/xlink" x="0px" y="0px"
	 width="32px" height="32px" viewBox="0 0 32 32" enable-background="new 0 0 32 32" xml:space="preserve">
<symbol  id="_x5F_button_x5F_shape" viewBox="-16 -16 32 32">
	<g id="button_x5F_shape_1_">
		<g>
			<g opacity="0">
				<path fill="#FFFFFF" d="M16-12c0-2.209-1.792-4-4-4h-24c-2.208,0-4,1.791-4,4v24c0,2.209,1.792,4,4,4h24c2.208,0,4-1.791,4-4
					V-12z"/>
			</g>
		</g>
	</g>
</symbol>
<symbol  id="video" viewBox="-16 -15.763 32 31.525">
	<path d="M9.186-12.25c0-1.939-1.571-3.513-3.513-3.513h-18.16c-1.94,0-3.513,1.572-3.513,3.513v10.777
		c0,1.939,1.572,3.512,3.513,3.512h18.16c1.941,0,3.513-1.571,3.513-3.512V-12.25z"/>
	<polygon fill="#FFFFFF" points="-7.052,-2.13 -7.052,-11.665 0.238,-6.794 	"/>
	<g>
		<path d="M1.109,15.763c-3.325,0-6.021-2.694-6.021-6.021c0-3.325,2.696-6.021,6.021-6.021c3.326,0,6.022,2.696,6.022,6.021
			C7.132,13.067,4.436,15.763,1.109,15.763z M1.109,5.726c-2.217,0-4.015,1.799-4.015,4.016c0,2.219,1.798,4.016,4.015,4.016
			c2.218,0,4.015-1.797,4.015-4.016C5.124,7.523,3.327,5.726,1.109,5.726z"/>
		<path d="M-9.931,11.748c-2.218,0-4.015-1.797-4.015-4.015s1.797-4.016,4.015-4.016c2.217,0,4.015,1.798,4.015,4.016
			S-7.714,11.748-9.931,11.748z"/>
		<path fill="#999999" d="M1.109,5.726c-2.217,0-4.015,1.799-4.015,4.016c0,2.219,1.798,4.016,4.015,4.016
			c2.218,0,4.015-1.797,4.015-4.016C5.124,7.523,3.327,5.726,1.109,5.726z"/>
	</g>
	<polygon points="16,-14.04 10.792,-9.915 10.792,-3.807 16,0.317 	"/>
</symbol>
<use xlink:href="#video"  width="32" height="31.525" x="-16" y="-15.763" transform="matrix(1 0 0 -1 16 16)" overflow="visible"/>
</svg>
