<?xml version="1.0" encoding="utf-8"?>
<!-- Generator: Adobe Illustrator 14.0.0, SVG Export Plug-In . SVG Version: 6.00 Build 43363)  -->
<!DOCTYPE svg PUBLIC "-//W3C//DTD SVG 1.1//EN" "http://www.w3.org/Graphics/SVG/1.1/DTD/svg11.dtd">
<svg version="1.1" id="Layer_1" xmlns="http://www.w3.org/2000/svg" xmlns:xlink="http://www.w3.org/1999/xlink" x="0px" y="0px"
	 width="32px" height="32px" viewBox="0 0 32 32" enable-background="new 0 0 32 32" xml:space="preserve">
<symbol  id="_x5F_button_x5F_shape" viewBox="-16 -16 32 32">
	<g id="button_x5F_shape_1_">
		<g>
			<g opacity="0">
				<path fill="#FFFFFF" d="M16-12c0-2.209-1.792-4-4-4h-24c-2.208,0-4,1.791-4,4v24c0,2.209,1.792,4,4,4h24c2.208,0,4-1.791,4-4
					V-12z"/>
			</g>
		</g>
	</g>
</symbol>
<symbol  id="wrench" viewBox="-16 -15.776 32.001 31.552">
	<path d="M-10.842,15.084l5.146-5.146c0.37-0.369,0.37-0.97,0-1.339l-2.676-2.678c-0.371-0.369-0.97-0.369-1.34,0l-5.309,5.309
		c-1.695-3.216-1.19-7.287,1.516-9.991c2.705-2.707,6.777-3.21,9.993-1.518l15.22-15.22c0.369-0.369,0.969-0.369,1.339,0
		l2.676,2.678c0.37,0.37,0.37,0.971,0,1.339L0.342,3.902c1.336,3.107,0.739,6.846-1.799,9.384S-7.733,16.42-10.842,15.084z"/>
</symbol>
<use xlink:href="#wrench"  width="32.001" height="31.552" x="-16" y="-15.776" transform="matrix(1 0 0 -1 16 16)" overflow="visible"/>
</svg>
