<?xml version="1.0" encoding="utf-8"?>
<!-- Generator: Adobe Illustrator 14.0.0, SVG Export Plug-In . SVG Version: 6.00 Build 43363)  -->
<!DOCTYPE svg PUBLIC "-//W3C//DTD SVG 1.1//EN" "http://www.w3.org/Graphics/SVG/1.1/DTD/svg11.dtd">
<svg version="1.1" id="Layer_1" xmlns="http://www.w3.org/2000/svg" xmlns:xlink="http://www.w3.org/1999/xlink" x="0px" y="0px"
	 width="32px" height="32px" viewBox="0 0 32 32" enable-background="new 0 0 32 32" xml:space="preserve">
<symbol  id="_x5F_button_x5F_shape" viewBox="-16 -16 32 32">
	<g id="button_x5F_shape_1_">
		<g>
			<g opacity="0">
				<path fill="#FFFFFF" d="M16-12c0-2.209-1.792-4-4-4h-24c-2.208,0-4,1.791-4,4v24c0,2.209,1.792,4,4,4h24c2.208,0,4-1.791,4-4
					V-12z"/>
			</g>
		</g>
	</g>
</symbol>
<symbol  id="zip" viewBox="-12.808 -16 25.615 32">
	<g>
		<g>
			<polygon fill="#FFFFFF" points="12.308,-8.615 -12.309,-8.615 -12.309,8.615 12.308,8.615 			"/>
			<path fill="#999999" d="M12.808-9.115h-25.615v18.23h25.615V-9.115L12.808-9.115z M-11.809-8.115h23.615v16.23h-23.615V-8.115
				L-11.809-8.115z"/>
		</g>
		<g>
			<polygon fill="#999999" points="12.308,11.077 -12.309,11.077 0,16 			"/>
			<path d="M0,14.923l7.115-2.846h-14.23L0,14.923 M0,16l-12.308-4.923h24.615L0,16L0,16z"/>
		</g>
		<g>
			<polygon fill="#999999" points="12.308,-11.077 -12.309,-11.077 0,-16 			"/>
			<path d="M7.115-12.077L0-14.923l-7.115,2.846H7.115 M12.308-11.077h-24.615L0-16L12.308-11.077L12.308-11.077z"/>
		</g>
		<g>
			<path d="M-9.263-3.242l3.466,4.531c0.35,0.43,0.667,0.795,1.018,1.209v0.031h-4.166v1.112h5.851V2.768l-3.434-4.467
				c-0.334-0.43-0.636-0.827-0.986-1.209v-0.031h4.484v-1.112h-6.233V-3.242z"/>
			<path d="M-0.023,5.805c0-0.477-0.334-0.857-0.89-0.857c-0.509,0-0.843,0.382-0.843,0.857c0,0.479,0.35,0.875,0.875,0.875
				C-0.374,6.68-0.023,6.298-0.023,5.805z M-1.583-4.053v7.694h1.399v-7.694H-1.583z"/>
			<path d="M2.14,1.131c0,0.985-0.032,1.78-0.064,2.512h1.24l0.08-1.318h0.031c0.557,0.938,1.479,1.479,2.735,1.479
				c1.876,0,3.275-1.574,3.275-3.896c0-2.768-1.701-4.134-3.515-4.134c-1.018,0-1.907,0.444-2.368,1.208H3.521v-4.183H2.14V1.131z
				 M3.521-0.92c0-0.207,0.016-0.398,0.063-0.573c0.255-0.97,1.098-1.638,2.099-1.638c1.479,0,2.338,1.209,2.338,2.974
				c0,1.526-0.812,2.847-2.29,2.847c-0.954,0-1.86-0.667-2.114-1.718C3.569,0.797,3.521,0.59,3.521,0.415V-0.92z"/>
		</g>
	</g>
</symbol>
<use xlink:href="#zip"  width="25.615" height="32" x="-12.808" y="-16" transform="matrix(1 0 0 -1 16 16)" overflow="visible"/>
</svg>
