<svg xmlns="http://www.w3.org/2000/svg" width="32" height="32" viewBox="0 0 32 32">
  <path fill="#DD1B16" d="M15.894 28.984L5.603 23.032 3.943 7.227l12.05-4.295 12.054 4.295-1.858 15.806"/>
  <path fill="#FFF" d="M19.927 18.568l1.874 3.977h2.801L15.919 4.103 7.626 22.545h3.008l1.788-3.979 7.505.002zm-4.001-8.767l2.933 6.221h-5.73l2.797-6.221z"/>
  <path opacity=".2" d="M15.993 2.931l-.099.037v26.017l10.295-5.952 1.857-15.806-12.053-4.296z"/>
  <path fill="#B3B3B3" d="M15.993 2.931l12.054 4.292-1.857 15.811-10.295 5.95L5.6 23.032 3.941 7.227l12.057-4.295M15.997 2l-.294.105L3.654 6.397l-.651.233.072.687 1.653 15.805.048.446.387.225 10.294 5.953.437.254.439-.254 10.295-5.954.381-.219.054-.438 1.852-15.809.082-.696-.657-.234-12.052-4.291L15.993 2h.004z"/>
</svg>