<svg xmlns="http://www.w3.org/2000/svg" width="32" height="32" viewBox="0 0 32 32"><path fill="#FFF" d="M23.639 16.878c-.035-3.546 2.892-5.246 3.022-5.332-1.646-2.407-4.207-2.736-5.119-2.773-2.18-.221-4.254 1.284-5.362 1.284-1.103 0-2.811-1.251-4.619-1.22-2.378.034-4.568 1.379-5.793 3.51-2.467 4.284-.631 10.63 1.775 14.103 1.176 1.702 2.578 3.615 4.419 3.547 1.77-.071 2.442-1.148 4.584-1.148 2.144 0 2.749 1.148 4.623 1.112 1.907-.035 3.117-1.732 4.284-3.44 1.348-1.974 1.908-3.884 1.937-3.983-.045-.017-3.722-1.426-3.758-5.66h.007zM20.115 6.472c.978-1.185 1.636-2.831 1.458-4.471-1.41.058-3.115.937-4.124 2.12-.908 1.05-1.701 2.725-1.489 4.333 1.573.123 3.176-.8 4.155-1.982z"/><path fill="#B3B3B3" d="M19.527 6.743c.842-1.025 1.407-2.448 1.254-3.868-1.212.051-2.678.812-3.546 1.834-.782.906-1.462 2.355-1.281 3.747 1.353.105 2.732-.691 3.573-1.713z"/><path fill="#999" d="M20.45 3.333a5.473 5.473 0 0 1-1.165 2.453c-.601.727-1.415 1.258-2.223 1.484.173-.965.702-1.871 1.207-2.453.541-.632 1.365-1.179 2.181-1.484M21.573 2c-1.41.058-3.115.937-4.124 2.12-.908 1.05-1.701 2.725-1.489 4.334.094.009.188.011.282.011 1.48 0 2.95-.884 3.868-1.995.981-1.189 1.637-2.833 1.463-4.47z"/><path fill="#B3B3B3" d="M23.639 16.878c-.035-3.546 2.892-5.246 3.022-5.332-1.646-2.407-4.207-2.736-5.119-2.773-2.18-.221-4.254 1.284-5.362 1.284-1.103 0-2.811-1.251-4.619-1.22-2.378.034-4.568 1.379-5.793 3.51-2.467 4.284-.631 10.63 1.775 14.103 1.176 1.702 2.578 3.615 4.419 3.547 1.77-.071 2.442-1.148 4.584-1.148 2.144 0 2.749 1.148 4.623 1.112 1.907-.035 3.117-1.732 4.284-3.44 1.348-1.974 1.908-3.884 1.937-3.983-.045-.017-3.722-1.426-3.758-5.66h.007z"/><path fill="#999" d="M21.098 9.828c.111 0 .224.005.337.017l.03.002.033.002c.71.029 2.316.245 3.611 1.514-1.106.962-2.573 2.766-2.547 5.525.029 3.519 2.223 5.384 3.51 6.176a14.781 14.781 0 0 1-1.504 2.853c-1.182 1.724-2.118 2.947-3.414 2.973h-.064c-.646 0-1.092-.193-1.652-.438-.699-.307-1.565-.679-2.885-.679-1.369 0-2.271.383-2.996.693-.568.236-1.016.428-1.637.455h-.054c-1.207 0-2.361-1.522-3.438-3.08-2.083-3.01-3.996-9.018-1.727-12.959 1.036-1.803 2.902-2.939 4.925-2.971.796 0 1.622.329 2.421.646.743.294 1.445.571 2.129.571.636 0 1.301-.265 2.074-.566.877-.35 1.872-.743 2.841-.743m.001-1.076c-2.01.003-3.883 1.308-4.915 1.308-1.085 0-2.766-1.222-4.546-1.222h-.069c-2.377.038-4.568 1.382-5.791 3.513-2.467 4.283-.636 10.63 1.77 14.104C8.701 28.128 10.076 30 11.87 30c.032 0 .063 0 .095-.002 1.771-.071 2.443-1.149 4.587-1.149 2.11 0 2.727 1.113 4.537 1.113h.086c1.908-.036 3.116-1.731 4.284-3.441 1.356-1.974 1.907-3.884 1.942-3.982-.045-.02-3.721-1.429-3.758-5.663-.035-3.544 2.892-5.245 3.021-5.33-1.645-2.407-4.208-2.735-5.119-2.773a3.866 3.866 0 0 0-.445-.023l-.008-.007z"/></svg>