<svg xmlns="http://www.w3.org/2000/svg" width="32" height="32" viewBox="0 0 32 32">
  <path fill="#C8C8C8" d="M29.373 8.896V5.432c0-.595-.481-1.076-1.076-1.076h-6.463c-.596 0-1.076.481-1.076 1.076V8.26H4.153A2.154 2.154 0 0 0 2 10.415v15.076c0 1.187.964 2.151 2.152 2.151h23.694a2.155 2.155 0 0 0 2.153-2.151V10.415a2.125 2.125 0 0 0-.626-1.519zm-1.631-1.134h-5.354V6.189h5.354v1.573z"/>
  <path fill="#C8C8C8" d="M28.297 4.355h-6.463c-.596 0-1.076.481-1.076 1.076V8.26H4.153A2.154 2.154 0 0 0 2 10.415v15.076c0 1.187.964 2.151 2.152 2.151h23.694a2.155 2.155 0 0 0 2.153-2.151V10.415c0-.593-.236-1.128-.627-1.519V5.432a1.074 1.074 0 0 0-1.075-1.077z"/>
  <path fill="#FFF" d="M22.387 7.762V6.189h5.355v1.573z"/>
  <path fill="#B4B4B4" d="M27.932 9.261H4.153C3.518 9.261 3 9.777 3 10.415v15.076c0 .634.518 1.151 1.152 1.151h23.78c.634 0 1.15-.519 1.15-1.151V10.415a1.152 1.152 0 0 0-1.15-1.154z"/>
  <path fill="#FFF" d="M16.771 24.93c-3.896 0-7.067-3.171-7.067-7.065a7.074 7.074 0 0 1 7.067-7.069c3.896 0 7.066 3.167 7.066 7.063s-3.168 7.065-7.063 7.065l-.003.006z"/>
</svg>