<svg xmlns="http://www.w3.org/2000/svg" width="32" height="32" viewBox="0 0 32 32">
  <path fill="#C8C8C8" d="M24.406 5.852V1.427a1.122 1.122 0 0 0-2.242 0v3.364H8.721c-1.487 0-1.689.202-1.689 1.688V30c0 1.484.203 1.689 1.689 1.689h14.556c1.486 0 1.689-.205 1.689-1.689V6.479c.002-.615-.212-.174-.56-.627z"/>
  <path fill="#FFF" d="M23.396 17.492H8.601V7.03h14.796l-.001 10.462z"/>
  <path fill="#999" d="M23.7 17.794H8.296V6.73H23.7v11.064zm-14.8-.605h14.195V7.332H8.9v9.857z"/>
  <path fill="#C8C8C8" d="M18.481 12.598c.682 1.917-5.747 4.169-5.747 4.169s5.799-2.77 4.944-4.806c-.851-2.034 1.688-4.533 1.688-4.533h3.083c.003.001-4.651 3.253-3.968 5.17z"/>
  <path fill="none" d="M18.481 12.598c.682 1.917-5.747 4.169-5.747 4.169s3.799-2.77 2.944-4.806c-.851-2.034 1.688-4.533 1.688-4.533h5.083c.003.001-4.651 3.253-3.968 5.17z"/>
  <g fill="#999">
    <path d="M9.328 19.272h3v2h-3zM9.328 25.651h3v2h-3zM9.328 22.462h3v2h-3zM14.5 19.272h3v2h-3zM14.5 25.651h3v2h-3zM14.5 22.462h3v2h-3zM19.672 19.272h3v2h-3zM19.672 25.651h3v2h-3zM9.328 29h3v2h-3zM14.5 29h3v2h-3zM19.672 29h3v2h-3zM19.672 22.462h3v2h-3z"/>
  </g>
</svg>