<svg xmlns="http://www.w3.org/2000/svg" width="32" height="32" viewBox="0 0 32 32">
  <path d="M31.407 16c0 8.51-6.897 15.407-15.407 15.407S.593 24.51.593 16 7.49.593 16 .593 31.407 7.49 31.407 16z"/>
  <path fill="#FFF" d="M16 32C7.178 32 0 24.823 0 16 0 7.178 7.177 0 16 0s16 7.178 16 16c0 8.823-7.178 16-16 16zm0-30.814C7.832 1.186 1.186 7.832 1.186 16S7.83 30.815 16 30.815 30.816 24.17 30.816 16 24.17 1.186 16 1.186zm-2.513 16.3l1.674.218c-.18 1.153-.65 2.058-1.4 2.71-.752.653-1.68.979-2.775.979-1.374 0-2.48-.449-3.314-1.35-.835-.9-1.253-2.187-1.253-3.864 0-1.084.18-2.031.54-2.847.358-.813.905-1.423 1.64-1.83a4.876 4.876 0 0 1 2.398-.61c1.09 0 1.984.276 2.678.828.69.558 1.135 1.34 1.33 2.351l-1.655.26c-.158-.676-.437-1.184-.837-1.523-.4-.34-.883-.51-1.45-.51-.86 0-1.556.308-2.09.922-.538.613-.806 1.586-.806 2.917 0 1.351.26 2.33.778 2.94.52.612 1.194.92 2.027.92.67 0 1.227-.206 1.674-.617.45-.41.733-1.04.853-1.89l-.012-.004zm11.006 0l1.674.218c-.183 1.153-.649 2.058-1.405 2.71-.755.653-1.68.979-2.775.979-1.375 0-2.48-.447-3.317-1.35-.84-.897-1.26-2.186-1.26-3.864 0-1.08.18-2.029.54-2.842.359-.812.904-1.424 1.642-1.83a4.855 4.855 0 0 1 2.397-.609c1.09 0 1.979.274 2.677.826.696.556 1.142 1.335 1.335 2.354l-1.652.25c-.16-.674-.438-1.18-.838-1.521-.4-.34-.887-.51-1.453-.51-.853 0-1.55.306-2.09.92-.535.615-.8 1.588-.8 2.92 0 1.351.256 2.33.774 2.94.518.61 1.193.92 2.024.92.671 0 1.228-.207 1.677-.618.449-.41.733-1.04.854-1.89l-.004-.003z"/>
</svg>