<svg xmlns="http://www.w3.org/2000/svg" width="32" height="32" viewBox="0 0 32 32">
  <path fill="#0070BA" d="M5.902 27.2L3.656 2h24.688l-2.249 25.196L15.982 30l-10.08-2.8z"/>
  <path fill="#28A9E0" d="M16 27.857l8.169-2.266 1.923-21.529H16v23.795z"/>
  <path fill="#EBEBEB" d="M16 21.434l-.014.004-3.443-.93-.219-2.463H9.219l.435 4.85 6.329 1.76.015-.004.002-3.217z"/>
  <path fill="#FFF" d="M15.988 13.407v3.09h3.807l-.358 4.01-3.447.93v3.216l6.338-1.758.044-.52.727-8.14.078-.829h-.835l-6.354.001zm0-6.257v3.063l-.057.027v3.187l7.516-3.181.008-.002.009-.202-.006.171.059-.66.14-1.566.075-.831-7.744-.006z"/>
  <path fill="#EBEBEB" d="M16 7.151H8.252l.073.828.203 2.28 7.455-.019-7.093 3.159H8.8l.289 3.093H16V7.151z"/>
</svg>