<svg xmlns="http://www.w3.org/2000/svg" width="32" height="32" viewBox="-281.661 436.945 32 32">
  <path fill="#999" d="M-261.12 467.765h-9.082l2.17-4.349h4.742l2.17 4.349z"/>
  <path fill="#B4B4B4" d="M-254.659 439.92h-22.005c-2.042 0-2.997.979-2.997 2.854v18.342c0 1.875.955 2.854 2.997 2.854h22.005c2.043 0 2.998-.979 2.998-2.854v-18.342c0-1.875-.955-2.854-2.998-2.854z"/>
  <path fill="#FFF" d="M-253.661 459.945h-24v-18h24v18z"/>
  <path fill="#C8C8C8" d="M-266.73 454.945s2.801-3.854 2.172-6.69c-.63-2.833 1.243-6.31 1.243-6.31h3.747c.002.003-3.131 3.594-3.004 6.145.193 3.864-4.158 6.855-4.158 6.855z"/>
</svg>