<svg xmlns="http://www.w3.org/2000/svg" width="32" height="32" viewBox="0 0 32 32">
  <path fill="#FFF" d="M3.557 16c2.354 3.592 6.464 6.668 12.442 6.668 4.315 0 10.088-3.076 12.443-6.668C26.088 12.407 20.313 9.333 16 9.333S5.912 12.407 3.557 16z"/>
  <path fill="#C8C8C8" d="M16.537 21.72c-3.396 0-6.16-2.763-6.16-6.16s2.764-6.16 6.16-6.16c3.397 0 6.16 2.765 6.16 6.16s-2.763 6.16-6.16 6.16z"/>
  <path fill="#999" d="M16.537 9.838c3.153 0 5.723 2.567 5.723 5.722s-2.568 5.723-5.723 5.723a5.729 5.729 0 0 1-5.722-5.723 5.73 5.73 0 0 1 5.722-5.722m0-.875a6.598 6.598 0 1 0 .002 13.196 6.598 6.598 0 0 0-.002-13.196zm3.045 6.598a3.045 3.045 0 1 1-3.044-3.045 3.044 3.044 0 0 1 3.044 3.045z"/>
  <path fill="#C8C8C8" d="M16 24.645a15.665 15.665 0 0 1-13.601-7.941L2 16l.399-.703A15.658 15.658 0 0 1 16 7.355c5.614 0 10.824 3.043 13.603 7.941L30 16l-.397.702c-2.777 4.9-7.99 7.944-13.603 7.943zM3.557 16c2.354 3.592 6.464 6.668 12.442 6.668 4.315 0 10.088-3.076 12.443-6.668C26.088 12.407 20.313 9.333 16 9.333S5.912 12.407 3.557 16z"/>
  <ellipse transform="rotate(-142.921 19.207 12.865)" fill="#FFF" cx="19.206" cy="12.865" rx="1.167" ry="2.261"/>
  <path fill="#B4B4B4" d="M16 23.105c-7.229 0-11.128-4.303-12.809-6.866L3.034 16l.157-.24C5.63 12.039 11.496 8.895 16 8.895s10.37 3.144 12.81 6.865l.156.24-.156.24c-2.441 3.721-8.306 6.865-12.81 6.865zM4.085 16.002C5.75 18.438 9.404 22.23 16 22.23c4.077 0 9.557-2.886 11.914-6.23C25.557 12.654 20.078 9.77 16 9.77c-4.079 0-9.559 2.885-11.915 6.232z"/>
</svg>