<svg xmlns="http://www.w3.org/2000/svg" width="32" height="32" viewBox="0 0 32 32">
  <radialGradient id="a" cx="319.387" cy="-197.365" r="29.886" gradientTransform="matrix(.8232 0 0 -.7755 -246.942 -148.983)" gradientUnits="userSpaceOnUse">
    <stop offset="0" stop-color="#52c4f1"/>
    <stop offset=".077" stop-color="#45bbec"/>
    <stop offset=".182" stop-color="#00a9dc"/>
    <stop offset=".376" stop-color="#2276b8"/>
    <stop offset=".501" stop-color="#035495"/>
    <stop offset=".75" stop-color="#1d204e"/>
  </radialGradient>
  <path fill="url(#a)" d="M15.974 29.228c7.411 0 13.417-6.013 13.417-13.425 0-7.412-6.006-13.425-13.417-13.425-7.413 0-13.417 6.013-13.417 13.425 0 7.412 6.004 13.425 13.417 13.425z"/>
  <radialGradient id="b" cx="310.212" cy="-126.019" r="29.289" gradientTransform="matrix(.875 0 0 -.8585 -249.03 -100.611)" gradientUnits="userSpaceOnUse">
    <stop offset=".119" stop-color="#fff"/>
    <stop offset=".122" stop-color="#fffffa"/>
    <stop offset=".25" stop-color="#ffe560"/>
    <stop offset=".287" stop-color="#ffdf56"/>
    <stop offset=".347" stop-color="#f8d03b"/>
    <stop offset=".406" stop-color="#f0be1b"/>
    <stop offset=".473" stop-color="#eb9d23"/>
    <stop offset=".548" stop-color="#e57c27"/>
    <stop offset=".765" stop-color="#dd5626"/>
    <stop offset=".903" stop-color="#c33a28"/>
    <stop offset="1" stop-color="#b02228"/>
  </radialGradient>
  <path fill="url(#b)" d="M26.137 23.764c.771-1.447 1.813-2.299 2.379-3.3.747-1.336 2.17-5.082 1.097-8.112.492 1.893.334 3.817-1.225 4.787.509-1.335.82-4.262.302-6.902-.342-1.717-1.414-3.252-2.105-3.73.643.486 1.16 2.211 1.145 3.007-1.343-2.266-3.546-4.437-6.872-5.353 2.585 1.702 3.548 3.15 4.151 4.438-.691-.708-1.869-1.439-2.672-1.503 1.192.891 3.197 3.531 2.982 7.531-.311-.644-.867-1.654-1.265-2.004.43 3.927.056 4.771-.206 5.814-.056-.478-.231-.843-.326-1.059 0 0-.048 1.226-.844 2.976-.604 1.328-1.224 1.732-1.503 1.685-.071-.008-.111-.039-.111-.039.017-.175.04-.351-.008-.47 0 0-.255.088-.422.317-.063.096-.15.184-.262.272-.017.015.183-.255.166-.247a3.402 3.402 0 0 0-.311.286c-.389.405-.747.859-.93.731.166-.055.31-.271.342-.485-.15.111-.541.398-1.416.532-.357.056-1.876.334-3.904-.683.294-.032.74-.135 1.074.063-.334-.366-1.153-.294-1.733-.477-.509-.159-1.169-.875-1.55-1.233 1.559.383 3.213.104 4.167-.549.969-.66 1.542-1.145 2.051-1.026.51.111.852-.396.455-.858-.398-.461-1.369-1.074-2.681-.747-1.01.255-1.861 1.059-3.277.501a1.844 1.844 0 0 1-.263-.119c-.087-.048.294.055.198 0-.27-.103-.764-.325-.89-.414-.024-.017.207.041.183.024-1.344-.796-1.256-1.432-1.256-1.821 0-.319.19-.74.548-.938.191.072.31.135.31.135s-.087-.135-.144-.207c.017-.007.024-.007.04-.015.16.055.517.182.692.278.247.119.326.246.326.246s.056-.039 0-.159c-.023-.055-.111-.207-.35-.351h.008c.127.047.262.111.405.199.048-.214.136-.438.079-.827-.048-.278-.039-.342-.103-.445-.055-.087.016-.119.103-.048-.024-.072-.055-.135-.087-.207.072-.342 2.092-1.4 2.242-1.511.207-.151.421-.39.557-.667.095-.175.166-.422.151-.788-.017-.263-.167-.422-2.323-.398-.589.008-.971-.334-1.201-.66-.048-.072-.087-.135-.127-.198a2.067 2.067 0 0 1-.112-.238 4.631 4.631 0 0 1 1.576-2.402c.047-.04-.191.023-.144-.016.055-.048.398-.215.46-.247.08-.048-.374-.167-.754-.088-.39.08-.461.127-.669.231.081-.088.343-.215.279-.207-.422.095-.923.374-1.344.668 0-.04 0-.072.008-.127-.198.104-.684.477-.803.755 0-.063 0-.095-.008-.159a3.47 3.47 0 0 0-.391.438s0 .007-.007.007c-1.254-.31-2.32-.238-3.218.049-.215-.152-.556-.39-1.097-1.225-.032-.048-.032.111-.064.064-.215-.383-.391-1.035-.414-1.496 0 0-.351.2-.573.915-.04.127-.072.199-.096.271-.006.022.018-.232.009-.208-.039.088-.167.231-.206.39-.032.119-.079.191-.096.342 0 0 0 .008-.007.008 0-.039-.008-.175-.016-.15a6.618 6.618 0 0 0-.271.906 7.762 7.762 0 0 0-.152 2.218c0 .08.008.151.008.215a6.276 6.276 0 0 0-.644 1.066c-.413.803-.834 2.044-1.177 3.968 0 0 .232-.723.685-1.543-.334 1.034-.605 2.641-.445 5.051.008-.081.08-.691.255-1.512.087 1.606.47 3.57 1.717 5.709.955 1.631 3.46 5.416 9.75 6.832-.692-.199-1.121-.598-1.121-.598s2.354.757 4.064.692c-.541-.095-.645-.349-.645-.349s6.101.342 8.208-2.529c-.723.843-2.545 1.081-3.236 1.089 1.05-.963 3.371-.947 5.893-3.42 1.383-1.36 1.526-2.394 1.678-3.356-.201 1.259-1.409 2.021-2.666 2.714z"/>
</svg>