<svg xmlns="http://www.w3.org/2000/svg" width="32" height="32" viewBox="0 0 32 32"><circle fill="#FFF" cx="16" cy="16" r="14"/><path fill="gray" d="M16 2C8.268 2 2 8.269 2 16c0 7.73 6.269 14 14 14 7.732 0 14-6.27 14-14 0-7.731-6.268-14-14-14zm-.686 26.19a10.573 10.573 0 0 1-.651-.055v-5.216c0-.689.345-1.195.345-1.195s.308.506.308 1.195c-.002.427-.002 3.2-.002 5.271zm1.634-.02c-.216.019-.435.027-.653.032v-5.499c0-.69.344-1.196.344-1.196s.31.507.31 1.196l-.001 5.467zm1.63-.234c-.214.048-.434.089-.65.124v-5.138c0-.683.345-1.19.345-1.19s.308.508.308 1.196v5.017l-.003-.009zm1.199-.324v-5.524c0-1.187-.71-2.21-1.73-2.663h1.57a4.701 4.701 0 0 0 3.485-1.552c1.713.279 3.502.643 4.41 1.039l.217-.494c-.903-.39-2.582-.745-4.23-1.025.027-.039.055-.076.08-.115 1.58.129 3.157.324 4.014.609l.17-.513c-.859-.285-2.369-.48-3.902-.615a4.655 4.655 0 0 0 .493-2.069v-1.44c0-1.29-.515-2.46-1.35-3.312v-3.4l-2.816 2.01a4.518 4.518 0 0 0-.576-.038h-6.319c-.189 0-.383.014-.568.037L9.91 6.527v3.399a4.727 4.727 0 0 0-1.35 3.313v1.44c0 .711.17 1.391.455 1.992-1.811.132-3.756.347-4.78.688l.169.513c1.016-.341 3.049-.551 4.895-.677.011.015.014.03.023.05-1.887.294-4.002.702-5.06 1.16l.216.492c1.056-.456 3.296-.87 5.224-1.166.87 1.021 2.147 1.682 3.59 1.682h1.896a2.912 2.912 0 0 0-1.731 2.663v.019h-.85c-1.375 0-2.355-2.371-4.97-2.371 2.142.942 2.612 3.569 4.535 3.569h1.283v4.646C7.94 26.775 3.79 21.874 3.79 16 3.79 9.256 9.256 3.79 16 3.79c6.745 0 12.21 5.467 12.21 12.21 0 5.425-3.536 10.02-8.431 11.609l-.002.003z"/></svg>