<svg xmlns="http://www.w3.org/2000/svg" xmlns:xlink="http://www.w3.org/1999/xlink" width="32" height="32" viewBox="0 0 32 32"><symbol id="c" viewBox="-14 -14 28 28"><path fill="#FFF" d="M13.481 0c0-7.445-6.036-13.481-13.481-13.481S-13.481-7.445-13.481 0-7.445 13.481 0 13.481 13.481 7.445 13.481 0z"/><path d="M14 0c0 7.72-6.28 14-14 14S-14 7.72-14 0c0-.915.094-1.809.264-2.675l-.028.01.253-.95.01-.031a13.949 13.949 0 0 1 2.156-4.523l.021-.028c.313-.431.65-.842 1.009-1.234.023-.024.04-.053.063-.077l.029-.025a13.948 13.948 0 0 1 9.97-4.452h.001l.106-.007C-.098-13.997-.049-14 0-14c.438 0 .871.026 1.302.065.11.011.221.025.331.038.348.04.693.093 1.035.158.077.016.155.028.233.045a13.864 13.864 0 0 1 8.684 5.843c.039.059.073.121.113.181a13.816 13.816 0 0 1 .772 1.339c.075.15.147.301.219.454.108.233.214.468.31.708.007.016.015.031.021.047l.19.484-.014.005A13.92 13.92 0 0 1 14 0zM0 12.963c7.147 0 12.963-5.814 12.963-12.963a12.89 12.89 0 0 0-.719-4.221C10.125-3.197 8.712-1.22 7.103 1.062c-2.499 3.539-5.328 7.55-11.764 9.216l-.63.164-.019-.651a62.022 62.022 0 0 1-.007-2.439c.033-3.327.063-6.469-2.2-8.508-1.493-1.346-3.968-2.053-5.072-1.881A12.932 12.932 0 0 0-12.963 0c0 7.148 5.816 12.963 12.963 12.963zM10.827-7.109c-.057-.086-.114-.172-.173-.256a12.974 12.974 0 0 0-7.998-5.321c-.053-.012-.106-.02-.159-.029a12.257 12.257 0 0 0-1.001-.153c-.1-.012-.199-.024-.299-.033A12.788 12.788 0 0 0 0-12.963c-.054 0-.104.007-.158.008-3.321.315-6.815 1.879-9.329 4.151a12.534 12.534 0 0 0-.955 1.154 13.016 13.016 0 0 0-1.836 3.533c1.688-.03 4.049.921 5.457 2.189C-4.211.425-4.244 3.794-4.279 7.36a77.175 77.175 0 0 0-.006 1.736C1.34 7.429 3.945 3.735 6.255.462c1.643-2.329 3.2-4.536 5.607-5.67a12.924 12.924 0 0 0-.646-1.263c-.124-.215-.251-.43-.389-.638z"/><path fill="#666" d="M-4.791 9.777c-.122-4.29.626-8.613-2.378-11.318-1.712-1.542-4.598-2.381-5.842-1.94l.001-.006C-11.47-9.24-6.237-13.481 0-13.481c5.464 0 10.159 3.257 12.275 7.93.089.207.182.413.261.618l.002.001C6.418-2.537 5.91 7.007-4.791 9.777z"/></symbol><use xlink:href="#c" width="28" height="28" x="-14" y="-14" transform="matrix(1 0 0 -1 16 16)" overflow="visible"/></svg>