<svg xmlns="http://www.w3.org/2000/svg" width="32" height="32" viewBox="0 0 32 32"><path fill="#999" d="M32 28c0 2.21-1.79 4-4 4H4c-2.21 0-4-1.79-4-4V4c0-2.21 1.79-4 4-4h24c2.21 0 4 1.79 4 4v24z"/><path fill="#F2F2F2" d="M31 27.25c0 2.07-1.68 3.75-3.75 3.75H4.75C2.68 31 1 29.32 1 27.25V4.75C1 2.68 2.68 1 4.75 1h22.5C29.32 1 31 2.68 31 4.75v22.5z"/><path fill="#999" d="M32 28c0 2.21-1.79 4-4 4H4c-2.21 0-4-1.79-4-4V4c0-2.21 1.79-4 4-4h24c2.21 0 4 1.79 4 4v24z"/><path fill="#F2F2F2" d="M31 27.25c0 2.07-1.68 3.75-3.75 3.75H4.75C2.68 31 1 29.32 1 27.25V4.75C1 2.68 2.68 1 4.75 1h22.5C29.32 1 31 2.68 31 4.75v22.5z"/><path d="M32 28c0 2.21-1.79 4-4 4H4c-2.21 0-4-1.79-4-4V4c0-2.21 1.79-4 4-4h24c2.21 0 4 1.79 4 4v24zm0 0c0 2.21-1.79 4-4 4H4c-2.21 0-4-1.79-4-4V4c0-2.21 1.79-4 4-4h24c2.21 0 4 1.79 4 4v24z"/><path fill="#FDA600" d="M12.168 15.74c0-1.693-1.33-2.038-2.642-2.038-1.2 0-2.585 1.15-2.585 1.15v-4.424H2.008v1.723h.862v7.07h-.863v2.355H7.23V19.22h-.46v-2.127c0-.917 1.867-2.152 1.867-.545 0 .92.027 2.672.027 2.672h-.516v2.354h4.939V19.22h-.92v-3.48zm2.93-5.254h3.33v2.297H15.1l-.002-2.297zm3.245 8.787v-5.57H13.49V16h.89v3.273h-.89v2.297h5.57v-2.29l-.717-.007z"/><path fill="#FFF" d="M29.055 10.43h-7.928l-.976 4.913 3.087.628s.42-.59 1.013-.57c.525.017 1.12.397 1.12 1.65 0 1.12-.562 1.956-1.58 1.956-1.377 0-.859-.86-.859-1.636 0-1.093-.861-1.19-1.916-.963-.851.186-1.457.888-1.457 1.736 0 1.606 1.967 3.431 4.836 3.431 2.875 0 5.601-1.534 5.601-4.464 0-2.541-1.765-3.76-3.716-3.791-1.305-.021-2.096.229-2.713.644.095-.324.148-.6.199-1.177h5.228l.057-2.353.004-.004z"/></svg>