<svg xmlns="http://www.w3.org/2000/svg" width="159.083" height="32" viewBox="0 0 159.083 32">
  <circle fill="#188040" cx="16" cy="16" r="14"/>
  <circle fill="#18B24B" cx="15.999" cy="14.717" r="12.449"/>
  <path fill="#188040" d="M79.158 30L94 2h-2.768L77.115 23.352l-3.573-5.846H66L73.788 30z"/>
  <path fill="#18B24B" d="M79.186 29.5L93.563 2.375h-2.682L77.205 23.059l-3.462-5.663h-7.305L73.982 29.5z"/>
  <g>
    <path fill="#96281F" d="M158 4.478l-3.98-1.795-9.706 10.442-8.732-9.891L130 4.577l11.11 11.995L130 28.526l5.582 1.343 8.708-9.864 8.627 9.312 5.083-.691-10.66-12.074z"/>
    <path fill="#DA2626" d="M158 3.926l-3.98-1.795-9.706 10.442-8.732-9.89L130 4.025l11.11 11.996L130 27.975l5.582 1.342 8.708-9.864 8.627 9.313 5.083-.692L147.34 16z"/>
  </g>
</svg>