<svg xmlns="http://www.w3.org/2000/svg" width="32" height="32" viewBox="0 0 32 32">
  <path fill="#37A5E2" d="M29.254 8.313c.578-2.216.402-4.066-.66-5.199-1.906-2.039-6.182-1.176-10.821 1.717-.371-.03-.745-.05-1.12-.05-6.914 0-12.78 4.671-12.78 11.406 1.047-1.659 4.37-6.718 9.968-8.435-3.632 2.457-8.541 9.426-9.59 11.629-2.101 4.231-2.488 7.915-.643 9.64 1.978 1.847 6.026.989 10.459-1.829.84.145 1.7.217 2.582.217 4.789-.001 9.852-3.142 11.603-8.06h-8.187c-.449 1.346-1.928 2.615-3.583 2.615-2.516 0-3.973-1.827-3.973-4.251h16.268c.042-.418.063-.743.063-1.189 0-5.504-3.537-9.67-8.289-11.148 3.468-1.863 6.346-2.421 7.671-1.003.771.825 1.016 2.263.593 3.945h.438l.001-.005zM13.315 27.044c-3.529 2.074-6.568 2.685-8.046 1.304-1.274-1.19-1.149-3.639.083-6.634.037-.054.074-.123.109-.07 1.838 2.866 4.643 4.672 7.854 5.405v-.005zm-.806-12.951s.158-3.681 3.84-3.681c3.628 0 3.838 3.682 3.838 3.682l-7.678-.001z"/>
</svg>