<svg xmlns="http://www.w3.org/2000/svg" width="32" height="32" viewBox="0 0 32 32">
  <path fill="#FFF" d="M4.629 31.5c-.63 0-1.162-.354-1.162-.773V12.868c0-.261 0-.803 1.409-.803h.5v-.5C5.376 5.688 9.903.841 15.683.531l.427-.023.207.023c5.779.31 10.305 5.157 10.305 11.034v.5h.5c1.41 0 1.41.542 1.41.803v17.856c0 .42-.532.774-1.162.774L4.629 31.5zM16 4.006c-4.096 0-7.185 3.251-7.185 7.563v.5l.5.027h13.871v-.5c0-4.339-3.089-7.59-7.186-7.59z"/>
  <path fill="#C8C8C8" d="M15.939 1.011l.351.02c5.515.296 9.832 4.923 9.832 10.535v1h1c.91 0 .91.205.91.303v17.856c-.011.064-.242.275-.662.275H4.629c-.419 0-.648-.211-.662-.273V12.868c0-.099 0-.303.909-.303h1v-1c0-5.612 4.319-10.239 9.833-10.535l.23-.019M8.315 12.596h14.371l1-.027v-1c0-4.596-3.305-8.063-7.687-8.063-4.381 0-7.685 3.466-7.685 8.063v1.027M16.257 0h-.514c-.029 0-.058.004-.087.004v.027C9.659.353 4.877 5.423 4.877 11.565c-.596 0-1.909.058-1.909 1.303v17.856c0 .708.743 1.276 1.661 1.276H27.37c.919 0 1.662-.568 1.662-1.273V12.868c0-1.245-1.313-1.303-1.91-1.303 0-6.142-4.78-11.212-10.777-11.534V.004c-.032 0-.06-.004-.088-.004zM9.315 11.596v-.027c0-4.277 3.038-7.063 6.685-7.063s6.687 2.785 6.687 7.063v.027H9.315z"/>
  <path fill="#999" d="M18.053 26h-4.105l.892-4.35a1.98 1.98 0 0 1-.892-1.651c0-1.104.919-1.999 2.052-1.999 1.135 0 2.055.896 2.055 1.999 0 .683-.354 1.292-.896 1.649L18.053 26z"/>
</svg>