<svg xmlns="http://www.w3.org/2000/svg" width="32" height="32" viewBox="0 0 32 32">
  <path fill="#BBCFE5" d="M18.589 5.312c-.867 1.301-1.854 3.009-2.485 4.85a32.89 32.89 0 0 0-1.522 6.602h5.827l-.602 1.018c-.013.02-1.253 2.168-1.253 5.13 0 1.474.179 2.674.416 3.62h9.52V5.313h-9.898l-.003-.001z"/>
  <path fill="#3B90CB" d="M18.159 18.111h-5.042v-.005l.047-.713c.016-.143.254-3.552 1.669-7.67.564-1.638 1.372-3.157 2.151-4.412H3.512V26.53h14.07a16.67 16.67 0 0 1-.378-3.62c.001-2.08.536-3.784.955-4.799z"/>
  <path d="M16.29 22.911c-6.487 0-8.919-2.103-9.021-2.194l.892-1.007c.023.018 2.226 1.853 8.129 1.853 5.892 0 8.021-1.828 8.041-1.846l.91.994c-.097.09-2.458 2.2-8.951 2.2zm-5.373-11.228H9.569V8.708h1.348v2.975zm11.059 0H20.63V8.708h1.347v2.975zM18.972 30c-.072-.094-1.767-2.368-1.767-7.089 0-2.083.534-3.785.955-4.8h-5.042l.048-.718c.009-.143.246-3.552 1.662-7.67 1.431-4.159 4.44-7.58 4.567-7.724l1.007.894c-.025.032-2.957 3.369-4.3 7.268a32.818 32.818 0 0 0-1.522 6.602h5.827l-.602 1.018c-.013.02-1.253 2.168-1.253 5.13 0 4.222 1.478 6.252 1.492 6.273L18.972 30z"/>
</svg>