<svg xmlns="http://www.w3.org/2000/svg" width="32" height="32" viewBox="0 0 32 32">
  <circle fill="#CD1D1F" cx="16" cy="16" r="14"/>
  <path fill="#FFF" d="M10.907 26.359c-5.246-2.324-7.867-8.878-5.741-14.375 2.26-5.84 8.762-8.815 14.618-6.688 5.95 2.164 8.988 8.544 6.935 14.577-1.918 5.628-8.4 8.967-13.839 7.212l1.79-5.414c1.744 1.6 4.063 1.65 6.101.1 2.51-1.926 3.623-6.395 2.282-9.268-1.079-2.313-2.97-3.615-5.446-3.941-3.27-.431-6.161.4-8.19 3.176-1.457 2-1.763 4.219-.741 6.536.325.738.878 1.287 1.601 1.651.42.217.688.118.84-.357.2-.639.19-1.161-.22-1.789-.859-1.31-.62-2.743-.055-4.101 1.348-3.215 5.973-4.35 8.56-2.13.854.733 1.28 1.686 1.351 2.771.109 1.644-.145 3.234-.936 4.706-.474.873-1.116 1.555-2.121 1.799-1.529.369-2.659-.734-2.29-2.259.246-1.021.565-2.026.838-3.045.07-.262.108-.537.119-.811.034-.779-.334-1.439-.916-1.695-.629-.274-1.454-.095-1.984.484-.967 1.055-1.017 2.299-.73 3.629.092.434.105.92.012 1.353-.434 2.021-.938 4.026-1.371 6.05-.14.62-.37 1.88-.471 1.833l.004-.004z"/>
</svg>