<svg xmlns="http://www.w3.org/2000/svg" width="32" height="32" viewBox="0 0 32 32">
  <path fill="#00F" d="M15.13 22.465c.082-2.449-1.985-4.555-4.608-4.689l-.987-.054c-.953-.054-1.759-.84-1.759-1.73 0-.857.796-1.593 1.722-1.593h6.491c.926 0 1.643.793 1.643 1.723v5.967a4.797 4.797 0 0 0 4.793 4.791h.785a4.797 4.797 0 0 0 4.791-4.791V2.035c-.118-.007-.228-.035-.345-.035h-2.768v20.091c0 .929-.754 1.683-1.682 1.683h-.783a1.684 1.684 0 0 1-1.682-1.681v-5.969a4.8 4.8 0 0 0-4.794-4.793H9.464c-2.641 0-4.792 2.094-4.792 4.666 0 2.53 2.11 4.697 4.706 4.831l.988.055c.926.048 1.687.724 1.662 1.48-.025.764-.839 1.41-1.782 1.41H0v3.111h10.239c2.617 0 4.809-1.989 4.891-4.425v.006z"/>
  <path fill="#84C341" d="M15.13 20.466c.082-2.449-1.985-4.554-4.608-4.689l-.987-.054c-.953-.045-1.758-.836-1.758-1.725 0-.856.793-1.593 1.722-1.593h6.484c.926 0 1.645.793 1.645 1.723v5.967a4.796 4.796 0 0 0 4.791 4.792h.785a4.797 4.797 0 0 0 4.791-4.792V.035C27.879.028 27.77 0 27.65 0h-2.768v20.094c0 .926-.754 1.681-1.682 1.681h-.783a1.687 1.687 0 0 1-1.684-1.681v-5.967a4.797 4.797 0 0 0-4.793-4.795H9.459c-2.642 0-4.793 2.095-4.793 4.666 0 2.53 2.112 4.698 4.708 4.833l.987.054c.926.047 1.687.724 1.663 1.479-.025.765-.84 1.411-1.781 1.411H0v3.11h10.239c2.617 0 4.809-1.984 4.891-4.419z"/>
  <path fill="#FFF" d="M22.418 25.615a4.528 4.528 0 0 1-4.523-4.522v-5.967c0-1.099-.857-1.992-1.912-1.992H9.497c-1.077 0-1.989.854-1.989 1.862 0 1.027.922 1.941 2.013 1.996l.987.054c2.477.13 4.426 2.11 4.35 4.415-.075 2.292-2.153 4.155-4.619 4.155H.269v-2.574h9.97c1.083 0 2.021-.765 2.052-1.672.03-.896-.849-1.701-1.917-1.758l-.987-.054c-2.455-.125-4.452-2.173-4.452-4.562 0-2.423 2.029-4.396 4.524-4.396h6.484a4.531 4.531 0 0 1 4.526 4.525v5.967c0 1.069.875 1.948 1.951 1.948h.783a1.955 1.955 0 0 0 1.951-1.948V1.271h2.498c.023 0 .051 0 .076.003v19.819a4.53 4.53 0 0 1-4.525 4.522h-.785z"/>
  <path fill="#666" d="M27.457 1.54v19.553a4.259 4.259 0 0 1-4.254 4.254h-.785a4.259 4.259 0 0 1-4.254-4.254v-5.967c0-1.247-.979-2.261-2.182-2.261H9.497c-1.224 0-2.259.976-2.259 2.131 0 1.163 1.039 2.201 2.269 2.263l.98.055c2.333.117 4.171 1.975 4.099 4.134-.072 2.148-2.024 3.898-4.35 3.898H.539v-2.035h9.701c1.245 0 2.286-.867 2.32-1.931.035-1.058-.939-1.971-2.171-2.035l-.989-.053c-2.315-.119-4.196-2.046-4.196-4.296 0-2.274 1.909-4.126 4.255-4.126h6.484a4.261 4.261 0 0 1 4.256 4.256v5.967c0 1.217.994 2.218 2.221 2.218h.783a2.227 2.227 0 0 0 2.223-2.218V1.54h2.031m.193-.538h-2.766v20.091c0 .929-.754 1.681-1.684 1.681h-.785a1.68 1.68 0 0 1-1.68-1.681v-5.967a4.803 4.803 0 0 0-4.802-4.794h-6.48c-2.642 0-4.793 2.094-4.793 4.666 0 2.531 2.112 4.695 4.708 4.824l.987.054c.926.05 1.687.726 1.663 1.481-.024.765-.84 1.41-1.78 1.41H0v3.112h10.239c2.617 0 4.809-1.98 4.891-4.418.082-2.45-1.985-4.555-4.608-4.689l-.987-.055c-.953-.047-1.759-.836-1.759-1.723 0-.858.796-1.593 1.722-1.593h6.491c.926 0 1.643.791 1.643 1.722v5.965a4.796 4.796 0 0 0 4.793 4.791h.785a4.794 4.794 0 0 0 4.791-4.791V1.036c-.116-.008-.228-.036-.345-.036l-.006.002z"/>
</svg>