<svg xmlns="http://www.w3.org/2000/svg" width="32" height="32" viewBox="0 0 32 32">
  <path fill="#FFF" d="M9.212 10.061a6.788 6.788 0 1 0 13.576 0 6.788 6.788 0 0 0-13.576 0m13.576 8.485H9.212a6.787 6.787 0 0 0-6.787 6.788v3.394h27.152v-3.394a6.789 6.789 0 0 0-6.789-6.788"/>
  <path fill="#C8C8C8" d="M30 29.151H2v-3.817c0-3.978 3.235-7.213 7.212-7.213h13.576c3.976 0 7.212 3.235 7.212 7.213v3.817zm-27.151-.848h26.302v-2.969a6.369 6.369 0 0 0-6.363-6.363H9.212a6.369 6.369 0 0 0-6.362 6.363v2.969h-.001zM16 17.272a7.22 7.22 0 0 1-7.212-7.212c0-3.977 3.235-7.212 7.212-7.212s7.212 3.235 7.212 7.212-3.236 7.212-7.212 7.212zm0-13.575a6.37 6.37 0 0 0-6.363 6.363A6.37 6.37 0 0 0 16 16.424a6.37 6.37 0 0 0 6.363-6.364A6.37 6.37 0 0 0 16 3.697z"/>
</svg>