<?xml version="1.0" encoding="utf-8"?>
<!-- Generator: Adobe Illustrator 14.0.0, SVG Export Plug-In . SVG Version: 6.00 Build 43363)  -->
<!DOCTYPE svg PUBLIC "-//W3C//DTD SVG 1.1//EN" "http://www.w3.org/Graphics/SVG/1.1/DTD/svg11.dtd">
<svg version="1.1" id="Layer_1" xmlns="http://www.w3.org/2000/svg" xmlns:xlink="http://www.w3.org/1999/xlink" x="0px" y="0px"
     width="32px" height="32px" viewBox="0 0 32 32" enable-background="new 0 0 32 32" xml:space="preserve">
<symbol  id="_x5F_button_x5F_shape" viewBox="-16 -16 32 32">
	<g id="button_x5F_shape_1_">
		<g>
			<g opacity="0">
				<path fill="#FFFFFF" d="M16-12c0-2.209-1.792-4-4-4h-24c-2.208,0-4,1.791-4,4v24c0,2.209,1.792,4,4,4h24c2.208,0,4-1.791,4-4
					V-12z"/>
			</g>
		</g>
	</g>
</symbol>
<symbol  id="android" viewBox="-13.522 -16 27.044 32.001">
	<g>
		<g>
			<path fill="#98CB02" d="M4.38,13.3l1.377,2.215c0.093,0.149,0.047,0.346-0.103,0.438C5.506,16.046,5.309,16,5.216,15.85
				l-1.419-2.281C2.65,14.05,1.362,14.322,0,14.322s-2.65-0.272-3.798-0.755l-1.419,2.281c-0.093,0.149-0.289,0.195-0.438,0.104
				c-0.149-0.093-0.195-0.288-0.103-0.438L-4.38,13.3c-2.509-1.267-4.213-3.587-4.292-6.257H8.672
				C8.593,9.713,6.889,12.033,4.38,13.3z"/>
			<path fill="#98CB02" d="M11.787,5.645c-0.959,0-1.735-0.775-1.735-1.734v-7.954c0-0.959,0.776-1.735,1.735-1.735
				c0.957,0,1.735,0.776,1.735,1.735V3.91C13.522,4.868,12.744,5.645,11.787,5.645z"/>
			<path fill="#98CB02" d="M-11.787,5.645c-0.957,0-1.735-0.775-1.735-1.734v-7.954c0-0.959,0.778-1.735,1.735-1.735
				c0.959,0,1.735,0.776,1.735,1.735V3.91C-10.052,4.868-10.828,5.645-11.787,5.645z"/>
			<path fill="#98CB02" d="M-8.678-7.95c0-0.928,0.73-1.688,1.647-1.733h1.728v-4.557c0-0.959,0.777-1.735,1.735-1.735
				s1.736,0.776,1.736,1.735v4.557H1.83v-4.58C1.831-15.223,2.609-16,3.567-16s1.735,0.777,1.735,1.735v4.58h1.64
				c0.958,0,1.735,0.775,1.735,1.733V5.645H-8.678V-7.95z"/>
		</g>
		<g>
			<path fill="#FFFFFF" d="M4.7,10.465c0-0.559-0.453-1.012-1.013-1.012s-1.013,0.453-1.013,1.012c0,0.561,0.453,1.013,1.013,1.013
				S4.7,11.024,4.7,10.465z"/>
			<path fill="#FFFFFF" d="M-2.675,10.465c0-0.559-0.453-1.012-1.013-1.012S-4.7,9.906-4.7,10.465c0,0.561,0.453,1.013,1.013,1.013
				S-2.675,11.024-2.675,10.465z"/>
		</g>
	</g>
</symbol>
<use xlink:href="#android"  width="27.044" height="32.001" x="-13.522" y="-16" transform="matrix(1 0 0 -1 15.9995 15.9995)" overflow="visible"/>
</svg>
