<?xml version="1.0" encoding="utf-8"?>
<!-- Generator: Adobe Illustrator 14.0.0, SVG Export Plug-In . SVG Version: 6.00 Build 43363)  -->
<!DOCTYPE svg PUBLIC "-//W3C//DTD SVG 1.1//EN" "http://www.w3.org/Graphics/SVG/1.1/DTD/svg11.dtd">
<svg version="1.1" id="Layer_1" xmlns="http://www.w3.org/2000/svg" xmlns:xlink="http://www.w3.org/1999/xlink" x="0px" y="0px"
     width="32px" height="32px" viewBox="0 0 32 32" enable-background="new 0 0 32 32" xml:space="preserve">
<symbol  id="angular" viewBox="-14.857 -16 29.715 32">
	<g>
		<polyline fill="#DD1B16" points="-0.118,-14.84 -11.881,-8.038 -13.778,10.027 -0.005,14.936 13.77,10.027 11.647,-8.038 		"/>
		<g>
			<path fill="#FFFFFF" d="M4.492-2.936L6.634-7.48h3.201l-9.925,21.077L-9.568-7.48h3.438l2.044,4.546L4.492-2.936L4.492-2.936z
				 M-0.082,7.083l3.35-7.11h-6.548L-0.082,7.083z"/>
		</g>
		<polygon opacity="0.2" enable-background="new    " points="-0.005,14.936 -0.118,14.894 -0.118,-14.84 11.647,-8.038 
			13.77,10.027 		"/>
		<path fill="#B3B3B3" d="M-0.005,14.936l13.775-4.907L11.647-8.038L-0.118-14.84l-11.765,6.802l-1.896,18.065L-0.005,14.936
			 M-0.005,16l-0.336-0.12l-13.772-4.906l-0.744-0.266l0.082-0.785l1.896-18.064l0.054-0.51l0.442-0.255l11.765-6.803L-0.118-16
			l0.502,0.291l11.765,6.803l0.436,0.251l0.061,0.5l2.117,18.066l0.094,0.795l-0.752,0.268L0.332,15.88L-0.005,16L-0.005,16z"/>
	</g>
</symbol>
<use xlink:href="#angular"  width="29.715" height="32" x="-14.857" y="-16" transform="matrix(1 0 0 -1 15.9995 16)" overflow="visible"/>
</svg>
