<?xml version="1.0" encoding="utf-8"?>
<!-- Generator: Adobe Illustrator 14.0.0, SVG Export Plug-In . SVG Version: 6.00 Build 43363)  -->
<!DOCTYPE svg PUBLIC "-//W3C//DTD SVG 1.1//EN" "http://www.w3.org/Graphics/SVG/1.1/DTD/svg11.dtd">
<svg version="1.1" id="Layer_1" xmlns="http://www.w3.org/2000/svg" xmlns:xlink="http://www.w3.org/1999/xlink" x="0px" y="0px"
	 width="32px" height="32px" viewBox="0 0 32 32" enable-background="new 0 0 32 32" xml:space="preserve">
<symbol  id="_x5F_button_x5F_shape" viewBox="-16 -16 32 32">
	<g id="button_x5F_shape_1_">
		<g>
			<g opacity="0">
				<path fill="#FFFFFF" d="M16-12c0-2.209-1.792-4-4-4h-24c-2.208,0-4,1.791-4,4v24c0,2.209,1.792,4,4,4h24c2.208,0,4-1.791,4-4
					V-12z"/>
			</g>
		</g>
	</g>
</symbol>
<symbol  id="macintosh" viewBox="-13.027 -16 26.055 32">
	<g>
		<g>
			<path fill="#FFFFFF" d="M8.732-1.003C8.693,3.05,12.038,4.992,12.187,5.09C10.308,7.84,7.38,8.217,6.336,8.26
				C3.845,8.513,1.475,6.792,0.209,6.792c-1.259,0-3.211,1.431-5.278,1.394c-2.716-0.041-5.22-1.577-6.619-4.012
				C-14.509-0.722-12.41-7.976-9.66-11.947c1.344-1.944,2.946-4.128,5.049-4.051c2.026,0.082,2.793,1.313,5.243,1.313
				c2.45,0,3.138-1.313,5.282-1.271c2.181,0.041,3.562,1.98,4.896,3.932c1.543,2.255,2.179,4.438,2.217,4.551
				C12.978-7.453,8.774-5.844,8.732-1.003z"/>
			<path fill="#FFFFFF" d="M4.704,10.889C5.822,12.244,6.574,14.125,6.37,16c-1.609-0.066-3.561-1.071-4.713-2.423
				c-1.037-1.199-1.943-3.114-1.701-4.953C1.754,8.484,3.586,9.538,4.704,10.889z"/>
			<g>
				<path fill="#B3B3B3" d="M4.033,10.58c0.962,1.172,1.608,2.798,1.433,4.419c-1.385-0.057-3.061-0.926-4.053-2.095
					c-0.892-1.036-1.671-2.692-1.462-4.282C1.496,8.502,3.072,9.411,4.033,10.58z"/>
				<path fill="#999999" d="M5.088,14.477c-0.181-0.979-0.643-1.967-1.332-2.804c-0.686-0.829-1.618-1.438-2.541-1.696
					c0.198,1.103,0.803,2.138,1.379,2.803C3.213,13.504,4.155,14.128,5.088,14.477 M6.37,16c-1.609-0.066-3.561-1.071-4.713-2.423
					c-1.037-1.199-1.943-3.114-1.701-4.953c0.108-0.009,0.215-0.013,0.323-0.013c1.69,0,3.374,1.007,4.425,2.276
					C5.822,12.244,6.574,14.125,6.37,16L6.37,16z"/>
			</g>
		</g>
		<g>
			<path fill="#B3B3B3" d="M8.732-1.003C8.693,3.05,12.038,4.992,12.187,5.09C10.308,7.84,7.38,8.217,6.336,8.26
				C3.845,8.513,1.475,6.792,0.209,6.792c-1.259,0-3.211,1.431-5.278,1.394c-2.716-0.041-5.22-1.577-6.619-4.012
				C-14.509-0.722-12.41-7.976-9.66-11.947c1.344-1.944,2.946-4.128,5.049-4.051c2.026,0.082,2.793,1.313,5.243,1.313
				c2.45,0,3.138-1.313,5.282-1.271c2.181,0.041,3.562,1.98,4.896,3.932c1.543,2.255,2.179,4.438,2.217,4.551
				C12.978-7.453,8.774-5.844,8.732-1.003z"/>
			<path fill="#999999" d="M5.828,7.055c0.127,0,0.256-0.006,0.385-0.02l0.035-0.003L6.286,7.03c0.809-0.034,2.646-0.279,4.127-1.73
				C9.148,4.199,7.471,2.141,7.502-1.014c0.035-4.022,2.542-6.154,4.01-7.058c-0.328-0.831-0.883-2.042-1.717-3.261
				c-1.35-1.97-2.419-3.367-3.903-3.396l-0.074-0.001c-0.739,0-1.248,0.22-1.89,0.498c-0.797,0.346-1.788,0.773-3.295,0.773
				c-1.564,0-2.596-0.439-3.424-0.793c-0.645-0.273-1.153-0.491-1.863-0.521l-0.063-0.001c-1.379,0-2.698,1.74-3.93,3.522
				c-2.381,3.438-4.567,10.306-1.973,14.808c1.184,2.061,3.318,3.36,5.631,3.396c0.908,0,1.853-0.375,2.766-0.737
				C-1.373,5.878-0.571,5.56,0.21,5.56c0.726,0,1.488,0.302,2.37,0.648C3.583,6.606,4.72,7.055,5.828,7.055 M5.828,8.285
				c-2.302,0-4.44-1.493-5.619-1.493c-1.243,0-3.161,1.395-5.198,1.395c-0.027,0-0.054,0-0.08-0.001
				c-2.716-0.041-5.22-1.577-6.619-4.012C-14.509-0.722-12.41-7.976-9.66-11.947C-8.339-13.858-6.768-16-4.718-16
				c0.036,0,0.072,0.001,0.108,0.002c2.026,0.082,2.793,1.313,5.243,1.313c2.412,0,3.117-1.272,5.185-1.272
				c0.032,0,0.064,0,0.097,0.001c2.181,0.041,3.562,1.98,4.896,3.932c1.543,2.255,2.179,4.438,2.217,4.551
				c-0.05,0.021-4.253,1.632-4.295,6.473c-0.04,4.051,3.305,5.993,3.454,6.091C10.308,7.84,7.38,8.217,6.336,8.26
				C6.166,8.277,5.996,8.285,5.828,8.285L5.828,8.285z"/>
		</g>
	</g>
</symbol>
<use xlink:href="#macintosh"  width="26.055" height="32" x="-13.027" y="-16" transform="matrix(1 0 0 -1 16 16)" overflow="visible"/>
</svg>
