<?xml version="1.0" encoding="utf-8"?>
<!-- Generator: Adobe Illustrator 14.0.0, SVG Export Plug-In . SVG Version: 6.00 Build 43363)  -->
<!DOCTYPE svg PUBLIC "-//W3C//DTD SVG 1.1//EN" "http://www.w3.org/Graphics/SVG/1.1/DTD/svg11.dtd">
<svg version="1.1" id="Layer_1" xmlns="http://www.w3.org/2000/svg" xmlns:xlink="http://www.w3.org/1999/xlink" x="0px" y="0px"
	 width="32px" height="32px" viewBox="0 0 32 32" enable-background="new 0 0 32 32" xml:space="preserve">
<g>
	<path fill="#E12E2F" d="M15.959,0.003c0,0,9.434-0.423,14.434,9.04H15.156c0,0-2.878-0.094-5.33,3.391
		c-0.706,1.458-1.461,2.965-0.612,5.932C7.987,16.294,2.703,7.112,2.703,7.112S6.429,0.38,15.959,0.003"/>
	<path fill="#FCD209" d="M29.9,24.03c0,0-4.352,8.364-15.061,7.954c1.32-2.282,7.617-13.169,7.617-13.169s1.521-2.439-0.273-6.303
		c-0.912-1.341-1.841-2.747-4.838-3.497c2.41-0.022,13.016,0.003,13.016,0.003S34.339,15.606,29.9,24.03"/>
	<path fill="#43A445" d="M2.083,24.095c0,0-5.082-7.945,0.63-16.997c1.318,2.284,7.615,13.171,7.615,13.171s1.356,2.535,5.606,2.914
		c1.618-0.117,3.302-0.219,5.453-2.434C20.202,22.844,14.876,32,14.876,32S7.173,32.143,2.083,24.095"/>
	<path fill="#FFFFFF" d="M8.78,16.131c0-3.935,3.196-7.125,7.139-7.125c3.94,0,7.138,3.19,7.138,7.125
		c0,3.938-3.195,7.125-7.138,7.125C11.977,23.256,8.78,20.067,8.78,16.131"/>
	<g>
		<g>
			<defs>
				<path id="SVGID_1_" d="M9.976,16.131c0,3.276,2.66,5.934,5.943,5.934c3.282,0,5.942-2.656,5.942-5.934
					c0-3.274-2.66-5.932-5.942-5.932C12.636,10.199,9.976,12.855,9.976,16.131"/>
			</defs>
			<clipPath id="SVGID_2_">
				<use xlink:href="#SVGID_1_"  overflow="visible"/>
			</clipPath>
			<polygon clip-path="url(#SVGID_2_)" fill="#0C5A94" points="21.861,10.199 21.861,22.063 9.976,22.063 9.976,10.199 			"/>
		</g>
	</g>
</g>
</svg>
