<?xml version="1.0" encoding="utf-8"?>
<!-- Generator: Adobe Illustrator 14.0.0, SVG Export Plug-In . SVG Version: 6.00 Build 43363)  -->
<!DOCTYPE svg PUBLIC "-//W3C//DTD SVG 1.1//EN" "http://www.w3.org/Graphics/SVG/1.1/DTD/svg11.dtd">
<svg version="1.1" id="Layer_1" xmlns="http://www.w3.org/2000/svg" xmlns:xlink="http://www.w3.org/1999/xlink" x="0px" y="0px"
	 width="32px" height="32px" viewBox="0 0 32 32" enable-background="new 0 0 32 32" xml:space="preserve">
<symbol  id="_x5F_button_x5F_shape" viewBox="-16 -16 32 32">
	<g id="button_x5F_shape_1_">
		<g>
			<g opacity="0">
				<path fill="#FFFFFF" d="M16-12c0-2.209-1.792-4-4-4h-24c-2.208,0-4,1.791-4,4v24c0,2.209,1.792,4,4,4h24c2.208,0,4-1.791,4-4
					V-12z"/>
			</g>
		</g>
	</g>
</symbol>
<symbol  id="creativecommons" viewBox="-16 -16 32 32">
	<g>
		<g>
			<path d="M15.407,0C15.407-8.51,8.51-15.407,0-15.407C-8.509-15.407-15.407-8.51-15.407,0c0,8.509,6.898,15.407,15.407,15.407
				C8.51,15.407,15.407,8.509,15.407,0z"/>
			<path fill="#FFFFFF" d="M0-16c-8.822,0-16,7.177-16,16c0,8.822,7.177,16,16,16S16,8.822,16,0C16-8.823,8.822-16,0-16L0-16z
				 M0,14.814c-8.168,0-14.814-6.646-14.814-14.814S-8.169-14.815,0-14.815S14.816-8.169,14.816,0S8.169,14.814,0,14.814L0,14.814z"
				/>
		</g>
		<g>
			<path fill="#FFFFFF" d="M-2.513-1.486l1.674-0.218c-0.183-1.153-0.651-2.058-1.404-2.71c-0.754-0.653-1.68-0.979-2.777-0.979
				c-1.375,0-2.479,0.448-3.315,1.349C-9.17-3.145-9.588-1.857-9.588-0.18c0,1.084,0.18,2.032,0.54,2.847
				c0.358,0.813,0.905,1.423,1.64,1.83c0.734,0.406,1.534,0.61,2.398,0.61c1.091,0,1.983-0.276,2.677-0.828
				C-1.64,3.728-1.195,2.944-1,1.929l-1.655-0.255c-0.158,0.675-0.437,1.183-0.837,1.522c-0.4,0.341-0.884,0.511-1.452,0.511
				c-0.858,0-1.555-0.308-2.091-0.923C-7.571,2.17-7.839,1.197-7.839-0.134c0-1.351,0.259-2.329,0.775-2.941
				c0.518-0.611,1.192-0.918,2.025-0.918c0.668,0,1.227,0.205,1.674,0.616C-2.916-2.968-2.633-2.338-2.513-1.486z"/>
			<path fill="#FFFFFF" d="M8.493-1.486l1.674-0.218c-0.183-1.153-0.65-2.058-1.405-2.71C8.007-5.067,7.083-5.394,5.986-5.394
				c-1.375,0-2.481,0.448-3.317,1.349C1.834-3.146,1.416-1.858,1.416-0.181c0,1.084,0.18,2.032,0.539,2.847S2.861,4.09,3.598,4.497
				c0.733,0.406,1.532,0.61,2.397,0.61c1.091,0,1.981-0.276,2.677-0.828c0.694-0.553,1.139-1.335,1.333-2.352L8.35,1.674
				C8.192,2.349,7.914,2.855,7.514,3.196c-0.4,0.341-0.887,0.511-1.453,0.511c-0.856,0-1.554-0.308-2.091-0.923
				C3.433,2.17,3.167,1.197,3.167-0.134c0-1.351,0.257-2.329,0.775-2.941c0.516-0.611,1.192-0.918,2.023-0.918
				c0.669,0,1.227,0.205,1.676,0.616C8.088-2.968,8.373-2.338,8.493-1.486z"/>
		</g>
	</g>
</symbol>
<use xlink:href="#creativecommons"  width="32" height="32" x="-16" y="-16" transform="matrix(1 0 0 -1 16 16)" overflow="visible"/>
</svg>
