<?xml version="1.0" encoding="utf-8"?>
<!-- Generator: Adobe Illustrator 14.0.0, SVG Export Plug-In . SVG Version: 6.00 Build 43363)  -->
<!DOCTYPE svg PUBLIC "-//W3C//DTD SVG 1.1//EN" "http://www.w3.org/Graphics/SVG/1.1/DTD/svg11.dtd">
<svg version="1.1" id="Layer_1" xmlns="http://www.w3.org/2000/svg" xmlns:xlink="http://www.w3.org/1999/xlink" x="0px" y="0px"
     width="32px" height="32px" viewBox="0 0 32 32" enable-background="new 0 0 32 32" xml:space="preserve">
<symbol  id="_x5F_button_x5F_shape" viewBox="-16 -16 32 32">
	<g id="button_x5F_shape_1_">
		<g>
			<g opacity="0">
				<path fill="#FFFFFF" d="M16-12c0-2.209-1.792-4-4-4h-24c-2.208,0-4,1.791-4,4v24c0,2.209,1.792,4,4,4h24c2.208,0,4-1.791,4-4
					V-12z"/>
			</g>
		</g>
	</g>
</symbol>
<symbol  id="desktop" viewBox="-16 -14.061 32 28.121">
	<g>
		<g>
			<g>
				<path fill="#CCCCCC" d="M6.21-14.061H-6.208l3.153,5.531h6.109L6.21-14.061L6.21-14.061z M-4.168-12.875H4.17L2.366-9.713
					h-4.732L-4.168-12.875L-4.168-12.875z"/>
				<polygon points="5.189,-13.468 -5.188,-13.468 -2.71,-9.12 2.711,-9.12 				"/>
			</g>
			<g>
				<path fill="#CCCCCC" d="M12.363-9.522h-24.728c-1.746,0-3.246,1.246-3.568,2.963l-0.064,0.615L-16,10.423l0.06,0.625
					c0.33,1.768,1.83,3.013,3.576,3.013h24.728c1.746,0,3.247-1.245,3.571-2.962l0.063-0.617L16-5.886l-0.058-0.622
					C15.61-8.276,14.109-9.522,12.363-9.522L12.363-9.522z M-12.364,12.875c-1.175,0-2.187-0.84-2.404-1.995l-0.049-0.516
					l0.057-16.756c0.21-1.106,1.221-1.945,2.396-1.945h24.728c1.176,0,2.188,0.839,2.406,1.996l0.048,0.513l-0.056,16.759
					c-0.211,1.104-1.223,1.944-2.398,1.944H-12.364L-12.364,12.875z"/>
				<path d="M15.353,10.989c-0.267,1.41-1.5,2.479-2.989,2.479h-24.728c-1.486,0-2.721-1.067-2.986-2.479l-0.057-0.566V-5.886
					l0.057-0.564c0.265-1.411,1.5-2.479,2.986-2.479h24.728c1.489,0,2.723,1.067,2.989,2.479l0.055,0.564v16.309L15.353,10.989z"/>
			</g>
			<g>
				<polygon fill="#FFFFFF" points="13.635,-7.142 -13.633,-7.142 -13.633,11.68 13.635,11.68 				"/>
				<path fill="#999999" d="M13.931-7.438h-27.86v19.414h27.86V-7.438L13.931-7.438z M-13.336-6.845h26.674v18.228h-26.674V-6.845
					L-13.336-6.845z"/>
			</g>
			<g>
				<path fill="#CCCCCC" d="M4.767,2.97c0.59-3.07-4.962-6.688-4.962-6.688S3.086,0.725,2.348,3.99
					c-0.736,3.265,1.458,7.268,1.458,7.268h4.389C8.194,11.258,4.176,6.043,4.767,2.97z"/>
				<path fill="none" d="M4.767,2.97c0.59-3.07-4.962-6.688-4.962-6.688S3.086,0.725,2.348,3.99
					c-0.736,3.265,1.458,7.268,1.458,7.268h4.389C8.194,11.258,4.176,6.043,4.767,2.97z"/>
			</g>
		</g>
	</g>
</symbol>
<use xlink:href="#desktop"  width="32" height="28.121" x="-16" y="-14.061" transform="matrix(1 0 0 -1 16 16)" overflow="visible"/>
</svg>
