<?xml version="1.0" encoding="utf-8"?>
<!-- Generator: Adobe Illustrator 14.0.0, SVG Export Plug-In . SVG Version: 6.00 Build 43363)  -->
<!DOCTYPE svg PUBLIC "-//W3C//DTD SVG 1.1//EN" "http://www.w3.org/Graphics/SVG/1.1/DTD/svg11.dtd">
<svg version="1.1" id="Layer_1" xmlns="http://www.w3.org/2000/svg" xmlns:xlink="http://www.w3.org/1999/xlink" x="0px" y="0px"
	 width="32px" height="32px" viewBox="0 0 32 32" enable-background="new 0 0 32 32" xml:space="preserve">
<symbol  id="_x5F_button_x5F_shape" viewBox="-16 -16 32 32">
	<g id="button_x5F_shape_1_">
		<g>
			<g opacity="0">
				<path fill="#FFFFFF" d="M16-12c0-2.209-1.792-4-4-4h-24c-2.208,0-4,1.791-4,4v24c0,2.209,1.792,4,4,4h24c2.208,0,4-1.791,4-4
					V-12z"/>
			</g>
		</g>
	</g>
</symbol>
<symbol  id="drupal" viewBox="-13.999 -15.999 27.998 31.999">
	<g>
		<g>
			<path fill="#005A8D" d="M6.97,10.049c-1.633,1.018-3.176,1.417-4.717,2.435c-0.954,0.647-2.281,2.188-3.392,3.516
				c-0.215-2.127-0.863-2.991-1.603-3.608C-4.313,11.159-5.3,10.79-6.657,10.05c-1.141-0.587-7.337-4.284-7.337-12.239
				c0-7.953,6.69-13.81,14.119-13.81c7.431,0,13.874,5.396,13.874,13.563C14,5.734,7.957,9.431,6.97,10.049z"/>
			<path fill="#FFFFFF" d="M4.467-9.091c0.492,0,1.019-0.032,1.388-0.28c0.368-0.247,0.586-0.801,0.707-1.107
				c0.124-0.31,0-0.492-0.245-0.617c-0.215-0.122-0.247-0.061-0.462,0.338c-0.217,0.401-0.401,0.806-1.479,0.806
				c-1.079,0-1.421-0.373-1.941-0.806c-0.525-0.431-0.71-0.583-0.896-0.338c-0.187,0.248-0.125,0.495,0.215,0.801
				c0.339,0.31,0.896,0.804,1.421,1.019C3.696-9.061,3.972-9.091,4.467-9.091L4.467-9.091z"/>
			<path fill="#FFFFFF" d="M-0.703-12.396c0.616-0.493,1.541-0.893,3.512-0.893c1.975,0,3.362,0.551,3.978,1.016
				c0.278,0.217,0.4,0.03,0.434-0.094c0.029-0.123,0.092-0.31-0.125-0.522c-0.155-0.153-1.571-1.142-3.237-1.297
				c-1.663-0.15-3.915-0.244-5.271,0.988c-0.215,0.216-0.156,0.521,0,0.646c0.153,0.122,0.277,0.217,0.463,0.217
				C-0.766-12.334-0.797-12.334-0.703-12.396L-0.703-12.396z"/>
			<path fill="#0073BA" d="M-8.205-10.264c2.345,0.028,2.774,0.43,4.84,1.357C7.797-3.912,9.86,0.649,10.262,1.697
				c0.402,1.048,0.986,2.741,0.372,4.625c-0.12,0.362-0.208,0.653-0.271,0.888c-1.481,1.657-2.956,2.563-3.401,2.842
				c-1.6,1.018-3.174,1.417-4.715,2.435C1.293,13.104-0.035,14.677-1.144,16c-0.218-2.127-0.834-3.02-1.603-3.605
				c-1.573-1.23-2.561-1.604-3.916-2.343c-1.143-0.616-7.336-4.287-7.336-12.238c0-2.541,0.68-4.863,1.85-6.854l0.307,0.012
				C-11.193-9.618-10.177-10.296-8.205-10.264z"/>
			<path fill="#054A75" d="M6.962,10.052c-1.6,1.018-3.174,1.417-4.715,2.435C1.293,13.104-0.035,14.677-1.144,16
				c-0.218-2.127-0.834-3.02-1.603-3.605c-1.573-1.23-2.561-1.604-3.916-2.343c-1.143-0.616-7.336-4.287-7.336-12.238
				c0-2.541,0.68-4.863,1.85-6.854c2.496-4.241,7.211-6.955,12.27-6.955c7.428,0,13.871,5.396,13.871,13.564
				c0,4.484-1.823,7.623-3.629,9.643C8.882,8.867,7.407,9.772,6.962,10.052z M10.71,6.443c2.025-2.531,3.049-5.518,3.049-8.876
				c0-1.949-0.37-3.791-1.103-5.475c-0.692-1.596-1.693-3.013-2.971-4.203c-2.529-2.359-5.927-3.657-9.564-3.657
				c-1.804,0-3.569,0.347-5.257,1.024c-1.655,0.664-3.146,1.62-4.433,2.837c-2.709,2.56-4.2,6.012-4.2,9.718
				c0,3.304,1.071,6.234,3.187,8.724c1.614,1.898,3.356,2.95,4.031,3.313c0.326,0.18,0.634,0.334,0.928,0.487
				c0.93,0.479,1.811,0.928,3.018,1.875c0.646,0.49,1.331,1.267,1.625,3.237c1.017-1.214,2.2-2.571,3.102-3.155
				c0.805-0.529,1.623-0.898,2.423-1.259c0.746-0.337,1.525-0.69,2.295-1.178c0.001-0.002,0.03-0.017,0.03-0.017
				C9.116,8.435,10.317,6.936,10.71,6.443z"/>
			<path fill="#93C4E2" d="M-0.834,14.598c0.433-1.264,0.371-1.912,0.371-2.188c0-0.277-0.153-1.018-0.646-1.388
				c-0.217-0.153-0.279-0.277-0.279-0.309c0-0.123,0.279-0.217,0.279-0.494c0-0.337-0.155-1.017-1.788-2.648
				c-1.635-1.636-3.978-3.084-5.795-3.979c-1.821-0.896-2.684-0.831-2.932-0.399c-0.245,0.431,0.094,1.386,1.234,2.65
				c1.141,1.264,4.75,3.081,4.75,3.081l4.499,3.146l0.247,1.201"/>
			<path fill="#FFFFFF" d="M-0.834,14.627c-0.275-2.033-0.894-2.646-1.727-3.296c-1.386-1.049-2.743-1.695-3.05-1.851
				c-0.802-0.4-3.701-2.005-5.212-4.314c-0.46-0.713,0-0.988,0.094-1.048c0.091-0.063,1.141-0.187,3.392,1.17
				c2.251,1.355,3.235,2.156,4.499,3.484c0.681,0.708,0.772,1.109,0.772,1.293c0,0.217-0.154,0.311-0.401,0.373
				c-0.124,0.026-0.153,0.09,0,0.182c0.153,0.094,0.802,0.401,0.955,0.523c0.153,0.124,0.896,0.619,0.925,1.417
				C-0.555,13.367-0.616,13.921-0.834,14.627L-0.834,14.627z"/>
			<path fill="#FFFFFF" d="M-8.084-6.05c0.032,2.401,2.28,4.65,5.117,4.681C0.641-1.336,3.138-4.94,4.957-4.912
				c1.541,0.027,4.5,3.051,5.95,3.051c1.541,0,1.972-1.6,1.972-2.558c0-0.955-0.307-2.681-1.049-3.759
				C11.093-9.26,10.631-9.66,9.765-9.599C8.653-9.505,6.436-6.05,5.019-5.989C3.232-5.928-0.653-9.722-3.706-9.722
				c-1.851,0-2.404,0.276-3.021,0.68C-7.651-8.396-8.114-7.41-8.084-6.05L-8.084-6.05z"/>
			<path fill="none" d="M10.634,6.322c0.614-1.884,0.029-3.577-0.372-4.625C9.861,0.649,7.797-3.912-3.365-8.905
				c-2.065-0.929-2.495-1.329-4.84-1.357c-1.972-0.032-2.988,0.646-3.637,1.232l-0.307-0.012c2.496-4.241,7.211-6.955,12.27-6.955
				c7.428,0,13.871,5.396,13.871,13.564c0,4.484-1.823,7.623-3.629,9.643C10.426,6.977,10.514,6.686,10.634,6.322z"/>
		</g>
	</g>
</symbol>
<use xlink:href="#drupal"  width="27.998" height="31.999" x="-13.999" y="-15.999" transform="matrix(1 0 0 -1 16 16.0005)" overflow="visible"/>
</svg>
