<?xml version="1.0" encoding="utf-8"?>
<!-- Generator: Adobe Illustrator 14.0.0, SVG Export Plug-In . SVG Version: 6.00 Build 43363)  -->
<!DOCTYPE svg PUBLIC "-//W3C//DTD SVG 1.1//EN" "http://www.w3.org/Graphics/SVG/1.1/DTD/svg11.dtd">
<svg version="1.1" id="Layer_1" xmlns="http://www.w3.org/2000/svg" xmlns:xlink="http://www.w3.org/1999/xlink" x="0px" y="0px"
	 width="32px" height="32px" viewBox="0 0 32 32" enable-background="new 0 0 32 32" xml:space="preserve">
<symbol  id="_x5F_button_x5F_shape" viewBox="-16 -16 32 32">
	<g id="button_x5F_shape_1_">
		<g>
			<g opacity="0">
				<path fill="#FFFFFF" d="M16-12c0-2.209-1.792-4-4-4h-24c-2.208,0-4,1.791-4,4v24c0,2.209,1.792,4,4,4h24c2.208,0,4-1.791,4-4
					V-12z"/>
			</g>
		</g>
	</g>
</symbol>
<symbol  id="firefox" viewBox="-16 -15.428 32 30.836">
	<g>
		<path fill="#2173BB" d="M15.492,0.251c0-8.371-6.786-15.157-15.157-15.157c-8.372,0-15.157,6.786-15.157,15.157
			c0,8.37,6.785,15.157,15.157,15.157C8.706,15.408,15.492,8.621,15.492,0.251z"/>
		<g id="XMLID_17_" opacity="0.3">
			<g>
				<path d="M0.633-6.564c0.692,0.119,1.703,0.338,2.553,0.331c0-0.37,0.379-0.201,1.448-0.229C5.945-6.142,4.224-7.7,4.176-7.769
					C3.897-7.768,1.595-8.031,1.315-8.03c-0.141,0.01-0.269,0.093-0.303-0.001c-0.775,0.11-1.377,0.396-2.01,0.647
					c0.175,0.196,0.461,0.358,0.871,0.229C0.204-6.95,0.024-6.67,0.633-6.564z"/>
			</g>
			<g>
			</g>
		</g>
	</g>
	<path fill="#E24406" d="M-12.24,12.773c0,0-0.098-1.846,1.834-3.164l-0.96-2.005l-2.706-0.677
		C-14.072,6.928-14.044,11.688-12.24,12.773z"/>
	<path fill="#F07B14" d="M15.644,4.327c0,0-0.16-1.106-0.441-1.687c0.096-1.03,0.139-1.711-0.007-2.69
		c-0.361-0.534-0.717-0.815-0.976-1.037c0.03,0.482,0.027,0.402,0.334,1.432c0.273,0.918,1.969,7.054-2.419,10.695
		c0,0,0.035-0.26,0.021-0.482c0,0-0.445,1.112-2.269,1.952c-0.119,0.054,0.079-0.342,0.141-0.658
		c0.294-0.274,3.492-3.422,3.62-5.046c-0.472,0.783-1.547,2.874-3.651,4.503c-1.6,1.239-2.596,1.66-4.576,2.342
		c0,0,1.004-0.617,2.04-1.535c1.177-1.042,2.416-2.513,2.743-3.422c0,0-1.689,1.59-3.05,1.656c0,0,3.577-2.129,3.208-7.952
		c0,0-0.346,1.237-1.229,1.611c0,0,0.677-3.368-0.141-6.494c0,0-0.179,0.498-0.444,1.141c0,0-0.145-1.699-0.649-2.864
		C7.057-6.157,5.662-7.608,5.767-6.171c-0.675-0.22-1.641-1.58-1.992-1.576c0.1,0.296,0.135,0.295,0.38,0.638
		c0,0-0.773-0.725-2.831-0.725c-1.17,0-2.211,0.267-3.123,0.715c-0.197,0.097-0.936,0.547-1.109,0.674
		C-3.368-6.109-3.787-5.725-4.164-5.31c0.417-0.064,0.909-0.094,1.49-0.065c2.331,0.112,4.338,1.826,4.532,1.979
		C2.18-3.144,2.565-3.291,2.905-3.284c0.338,0.008,0.689,0.438,0.327,0.896c-0.95,1.21-2.32,1.021-2.32,1.021
		C-0.523-1.296-1.15-2.427-2.89-2.156c-2.632,0.407-3.038,1.981-3.08,2.797c0.125,1.186,0.991,1.383,2.045,0.526
		c0.167,1.252,0.157,1.586,0.025,2.195C-3.01,4.097-1.632,4.76-1.104,5.14c0.313,0.225,1.335,1.718,0.363,1.92
		c-1.03,0.214-1.292,0.008-2.878,0.152C-4.021,7.233-4.315,7.709-4.765,8.25c0.277,1.155,0.889,2.509,2.228,3.305
		c0,0-1.97,0.613-4.429-1.838c-0.01,0.002-0.02,0.005-0.028,0.008c-1.63,0.38-3.258,0.103-3.676-0.078
		c-1.235-0.531-4.488-2.183-5.33-8.145c0,0,0.162,0.828,0.796,1.388c0,0-0.796-2.674-0.502-5.43
		c0.046,0.445,0.178,1.011,0.284,1.425c0.282-3.181,1.756-7.547,5.789-10.634c1.354-1.035,3.82-2.901,7.111-3.538
		c-0.507,0.26-0.713,0.356-1.072,0.692c0.591-0.253,3.124-0.815,4.588-0.833c0,0-0.617,0.239-0.79,0.453
		c0.322,0.013,2.116-0.118,3.374,0.061c1.396,0.199,2.756,0.325,4.64,1.449c0.67,0.399,1.503,1.139,1.854,1.973
		c1.023,0.952,2.854,1.755,3.753,3.313c0.56,0.971,1.118,2.258,0.689,3.679C15.688-1.86,16.501,0.556,15.644,4.327z M7.532-12.983
		C6.847-13.4,5.922-13.4,6.036-13.299c0.258,0.229,0.821,0.557,1.505,0.858c0.984,0.437,1.313,0.422,1.5,0.466
		C8.789-12.172,8.536-12.373,7.532-12.983z M12.812-7.937c-0.533-0.361-0.89-0.578-1.212-0.688c0.205,0.437,0.788,1.218,1.446,2.065
		c0.951,1.224,1.05,1.413,1.244,1.605C13.993-5.968,13.362-6.991,12.812-7.937z"/>
	<path fill="#F07B14" d="M15.644,4.327c0,0-0.16-1.106-0.441-1.687c0.096-1.03,0.139-1.711-0.007-2.69
		c-0.361-0.534-0.717-0.815-0.976-1.037c0.03,0.482,0.027,0.402,0.334,1.432c0.273,0.918,1.969,7.054-2.419,10.695
		c0,0,0.035-0.26,0.021-0.482c0,0-0.445,1.112-2.269,1.952c-0.119,0.054,0.079-0.342,0.141-0.658
		c0.294-0.274,3.492-3.422,3.62-5.046c-0.472,0.783-1.547,2.874-3.651,4.503c-1.6,1.239-2.596,1.66-4.576,2.342
		c0,0,1.004-0.617,2.04-1.535c1.177-1.042,2.416-2.513,2.743-3.422c0,0-1.689,1.59-3.05,1.656c0,0,3.577-2.129,3.208-7.952
		c0,0-0.346,1.237-1.229,1.611c0,0,0.677-3.368-0.141-6.494c0,0-0.179,0.498-0.444,1.141c0,0-0.145-1.699-0.649-2.864
		C7.057-6.157,5.662-7.608,5.767-6.171c-0.675-0.22-1.641-1.58-1.992-1.576c0.1,0.296,0.135,0.295,0.38,0.638
		c0,0-0.773-0.725-2.831-0.725c-1.17,0-2.211,0.267-3.123,0.715C-1.997-7.022-3.091-6.311-3.178-6.24
		C-3.532-5.955-3.861-5.642-4.164-5.31c0.417-0.064,0.909-0.094,1.49-0.065c2.331,0.112,4.338,1.826,4.532,1.979
		C2.18-3.144,2.565-3.291,2.905-3.284c0.338,0.008,0.689,0.438,0.327,0.896c-0.95,1.21-2.32,1.021-2.32,1.021
		C-0.523-1.296-1.15-2.427-2.89-2.156c-2.632,0.407-3.038,1.981-3.08,2.797c0.125,1.186,0.991,1.383,2.045,0.526
		c0.167,1.252,0.157,1.586,0.025,2.195C-3.01,4.097-1.632,4.76-1.104,5.14c0.313,0.225,1.335,1.718,0.363,1.92
		c-1.03,0.214-1.292,0.008-2.878,0.152C-4.021,7.233-4.315,7.709-4.765,8.25c0.277,1.155,0.889,2.509,2.228,3.305
		c0,0-1.97,0.613-4.429-1.838c-0.01,0.002-0.02,0.005-0.028,0.008c-1.63,0.38-3.258,0.103-3.676-0.078
		c-1.235-0.531-4.488-2.183-5.33-8.145c0,0,0.162,0.828,0.796,1.388c0,0-0.796-2.674-0.502-5.43
		c0.046,0.445,0.178,1.011,0.284,1.425c0.282-3.181,1.756-7.547,5.789-10.634c1.354-1.035,3.82-2.901,7.111-3.538
		c-0.507,0.26-0.713,0.356-1.072,0.692c0.591-0.253,3.124-0.815,4.588-0.833c0,0-0.617,0.239-0.79,0.453
		c0.322,0.013,2.116-0.118,3.374,0.061c1.396,0.199,2.756,0.325,4.64,1.449c0.67,0.399,1.503,1.139,1.854,1.973
		c1.023,0.952,2.854,1.755,3.753,3.313c0.56,0.971,1.118,2.258,0.689,3.679C15.688-1.86,16.501,0.556,15.644,4.327z M7.532-12.983
		C6.847-13.4,5.922-13.4,6.036-13.299c0.258,0.229,0.821,0.557,1.505,0.858c0.984,0.437,1.313,0.422,1.5,0.466
		C8.789-12.172,8.536-12.373,7.532-12.983z M12.812-7.937c-0.533-0.361-0.89-0.578-1.212-0.688c0.205,0.437,0.788,1.218,1.446,2.065
		c0.951,1.224,1.05,1.413,1.244,1.605C13.993-5.968,13.362-6.991,12.812-7.937z"/>
	<g>
		<path fill="#E24406" d="M15.249-0.067c0.118,0.225,1.06,2.023,0.344,4.086c-0.069-0.37-0.203-0.99-0.391-1.378
			c0.082-0.884,0.125-1.513,0.043-2.291C15.248,0.206,15.249,0.065,15.249-0.067z"/>
		<path fill="#E24406" d="M12.149,10.89c0.004-0.034,0.006-0.071,0.008-0.112c0.123-0.411,0.141-0.754,0.194-1.264
			c0.269-0.435,0.549-0.934,0.81-1.427c0.098-0.17,0.185-0.336,0.258-0.495c0.115-0.229,0.228-0.452,0.328-0.657
			C13.755,7.194,13.827,9.329,12.149,10.89z"/>
		<path fill="#E24406" d="M9.854,12.504c0-0.001-0.001-0.003-0.002-0.005c0.179-0.29,0.276-0.544,0.377-0.843
			c0.387-0.383,1.21-1.233,1.953-2.166C12.01,10.142,11.474,11.568,9.854,12.504z"/>
		<path fill="#E24406" d="M14.581-5.859c0.029,0.212,0.055,0.464,0.067,0.688c-0.021,0.195-0.056,0.393-0.111,0.593
			c-0.02-0.018-0.04-0.048-0.065-0.093C14.4-4.798,14.329-4.93,14.256-5.063c-0.309-0.979-0.913-1.962-1.444-2.873
			c-0.024-0.018-0.051-0.034-0.076-0.051l0,0C13.327-7.747,14.487-6.519,14.581-5.859z"/>
	</g>
	<g>
		<path fill="#E24406" d="M-3.618,7.212C-4.021,7.233-4.315,7.709-4.765,8.25c0,0-0.762-1.094-0.37-6.208
			c0.313,0.336,0.647,0.629,0.962,0.968c0.609,0.988,2.129,1.456,3.069,2.13c0.313,0.225,1.335,1.718,0.363,1.92
			C-1.771,7.273-2.032,7.067-3.618,7.212z"/>
		<path fill="#E24406" d="M-6.165-2.222C-6.36-1.07-6.494,1.563-5.122,1.724c-0.399,0.165-2.901,0.909-3.146,0.673
			c-0.427-0.409-2.138-2.195-2.138-4.698C-9.85-1.375-7.557,0.302-6.165-2.222z"/>
		<path fill="#FFFFFF" d="M-5.126,4.442c0,0,0.723,0.748,1.471,0.904c0.509,0.107,1.109-0.248,1.605-0.098
			c0.626,0.188,1.121,0.649,1.399,0.879l-0.056-0.537C-0.834,5.443-1.013,5.08-1.763,4.705c-0.643-0.322-1.496-0.707-2.245-1.48
			C-4.008,3.225-4.735,3.78-5.126,4.442z"/>
		<path fill="#F07B14" d="M-3.854,3.44c0.329-0.346,0.211-1.526-0.07-2.273c-1.12,0.747-3.522,0.875-5.406,0.18l4.579,7.028
			C-5.438,5.479-4.698,4.442-3.854,3.44z"/>
		<path fill="#231F20" d="M-1.572,7.148c0,0,0.776,0.061,1.062-0.17c0.114-0.093,0.539-0.461-0.195-1.388
			C-0.706,5.591-0.445,6.548-1.572,7.148z"/>
		<path fill="#E24406" d="M-6.075-2.211C-6.119-2.845-5.126-4.888-4.164-5.31c0.624-0.273,2.853-0.094,3.9,0.436
			C0.88-4.296,1.735-3.54,1.911-3.304C0.808-3.549,0.396-3.923-1.993-3.987C-5.187-4.076-6.075-2.211-6.075-2.211z"/>
		<path fill="#FFFFFF" d="M-0.591-1.893c1.449,0.197,2.636-0.731,2.827-1.017C2.225-2.815,2.225-2.742,2.201-2.646
			C2.289-2.663,2.38-2.693,2.686-3.054c0.012,0.141-0.021,0.235-0.148,0.466c0.276-0.148,0.461-0.55,0.503-0.538
			c0,0.257-0.035,0.479,0.005,0.5c0.066,0.035,0.228-0.252,0.258-0.146C3.303-2.771,2.327-0.588-0.591-1.893z"/>
	</g>
	<g>
		<path fill="#E24406" d="M9.211-11.681c3.135,1.885,3.896,3.598,4.153,4.182c0,0-6.914-5.121-12.192-5.121
			c-4.398,0-7.377,1.68-8.521,2.445c-2.324,1.558-3.729,4.365-4.454,6.362c-0.131-0.999,0.177-1.898,0.824-3.51
			c-1.382,1.25-2.491,4.88-2.819,6.986c-0.429-1.897,0.219-3.982,0.8-5.375c-1.194,1.108-2.16,5.386-2.192,6.758
			c-0.229-0.661-0.361-2.142-0.422-2.991c0.058,0.293,0.127,0.587,0.19,0.829c0.282-3.181,1.756-7.547,5.789-10.634
			c1.354-1.035,3.82-2.901,7.111-3.538c-0.507,0.26-0.713,0.356-1.072,0.692c0.591-0.253,3.124-0.815,4.588-0.833
			c0,0-0.617,0.239-0.79,0.453c0.322,0.013,2.116-0.118,3.374,0.061c1.396,0.199,2.756,0.325,4.64,1.449
			c0.664,0.396,1.488,1.128,1.846,1.953c-0.313-0.309-0.642-0.327-1.12-0.48c-0.253-0.197-0.407-0.381-1.411-0.991
			C6.847-13.4,5.922-13.4,6.036-13.299c0,0,0.001,0,0.001,0.001C5.787-13.345,5.747-12.347,9.211-11.681z"/>
	</g>
	<g>
		<g>
			<path fill="#FEE750" d="M9.573,11.865C9.552,11.883,9.53,11.9,9.508,11.918C9.53,11.9,9.552,11.883,9.573,11.865z"/>
			<path fill="#FEE750" d="M9.72,11.74c-0.02,0.018-0.042,0.035-0.063,0.053C9.678,11.775,9.7,11.758,9.72,11.74z"/>
			<path fill="#FEE750" d="M9.869,11.609c-0.019,0.017-0.038,0.032-0.056,0.049C9.831,11.642,9.851,11.626,9.869,11.609z"/>
			<path fill="#FEE750" d="M9.429,11.983c-0.021,0.018-0.044,0.035-0.066,0.052C9.385,12.019,9.407,12.001,9.429,11.983z"/>
			<path fill="#FEE750" d="M9.146,12.204c-0.022,0.016-0.043,0.031-0.065,0.047C9.104,12.235,9.124,12.22,9.146,12.204z"/>
			<path fill="#FEE750" d="M9.287,12.096c-0.022,0.017-0.045,0.035-0.066,0.051C9.242,12.131,9.265,12.112,9.287,12.096z"/>
			<path fill="#FEE750" d="M10.049,11.445c-0.01,0.01-0.021,0.02-0.031,0.029C10.028,11.465,10.039,11.455,10.049,11.445z"/>
			<path fill="#FEE750" d="M13.084,7.834c-0.021,0.03-0.042,0.059-0.063,0.089C13.042,7.893,13.063,7.864,13.084,7.834z"/>
			<path fill="#FEE750" d="M12.631,8.472c0.025-0.035,0.051-0.07,0.077-0.105C12.682,8.401,12.656,8.437,12.631,8.472z"/>
			<path fill="#FEE750" d="M12.444,8.726c0.025-0.035,0.053-0.07,0.078-0.106C12.497,8.655,12.47,8.69,12.444,8.726z"/>
			<path fill="#FEE750" d="M12.261,8.968c0.026-0.034,0.052-0.067,0.077-0.102C12.313,8.9,12.287,8.934,12.261,8.968z"/>
			<path fill="#FEE750" d="M9.007,12.307c-0.021,0.016-0.041,0.03-0.062,0.045C8.966,12.337,8.985,12.322,9.007,12.307z"/>
			<path fill="#FEE750" d="M10.231,11.274c-0.021,0.019-0.041,0.039-0.061,0.057C10.19,11.313,10.211,11.293,10.231,11.274z"/>
			<path fill="#FEE750" d="M10.555,10.956c-0.024,0.022-0.047,0.047-0.07,0.069C10.508,11.003,10.53,10.979,10.555,10.956z"/>
			<path fill="#FEE750" d="M12.821,8.207c0.024-0.034,0.049-0.067,0.074-0.104C12.87,8.14,12.846,8.173,12.821,8.207z"/>
			<path fill="#FEE750" d="M8.721,12.507c-0.016,0.01-0.032,0.021-0.048,0.032C8.688,12.527,8.705,12.517,8.721,12.507z"/>
			<path fill="#FEE750" d="M7.704,13.081c-0.016,0.008-0.033,0.016-0.05,0.023C7.671,13.097,7.688,13.089,7.704,13.081z"/>
			<path fill="#FEE750" d="M7.439,13.195c-0.016,0.007-0.031,0.012-0.047,0.018C7.408,13.207,7.424,13.202,7.439,13.195z"/>
			<path fill="#FEE750" d="M7.82,13.026c-0.018,0.009-0.036,0.019-0.054,0.026C7.784,13.045,7.803,13.035,7.82,13.026z"/>
			<path fill="#FEE750" d="M7.334,13.236c-0.016,0.006-0.032,0.013-0.05,0.018C7.302,13.249,7.318,13.242,7.334,13.236z"/>
			<path fill="#FEE750" d="M7.937,12.97c-0.018,0.009-0.037,0.018-0.056,0.026C7.899,12.987,7.919,12.979,7.937,12.97z"/>
			<path fill="#FEE750" d="M8.867,12.406c-0.018,0.014-0.038,0.026-0.056,0.039C8.829,12.433,8.85,12.42,8.867,12.406z"/>
			<path fill="#FEE750" d="M8.553,12.617c-0.019,0.011-0.036,0.022-0.054,0.033C8.517,12.64,8.534,12.628,8.553,12.617z"/>
			<path fill="#FEE750" d="M8.425,12.696c-0.02,0.013-0.039,0.023-0.058,0.034C8.386,12.72,8.405,12.709,8.425,12.696z"/>
			<path fill="#FEE750" d="M12.08,9.202c0.026-0.032,0.051-0.065,0.075-0.097C12.131,9.137,12.106,9.17,12.08,9.202z"/>
			<path fill="#FEE750" d="M8.3,12.771c-0.02,0.011-0.04,0.021-0.059,0.033C8.26,12.793,8.28,12.782,8.3,12.771z"/>
			<path fill="#FEE750" d="M8.177,12.842c-0.02,0.011-0.039,0.021-0.059,0.032C8.138,12.862,8.157,12.853,8.177,12.842z"/>
			<path fill="#FEE750" d="M8.056,12.907c-0.019,0.01-0.039,0.021-0.057,0.03C8.017,12.928,8.037,12.917,8.056,12.907z"/>
			<path fill="#FEE750" d="M7.587,13.134c-0.016,0.007-0.032,0.014-0.047,0.021C7.555,13.147,7.571,13.141,7.587,13.134z"/>
			<path fill="#FEE750" d="M6.116,13.522c0.012-0.001,0.023-0.003,0.034-0.004C6.14,13.52,6.128,13.521,6.116,13.522z"/>
			<path fill="#FEE750" d="M6.188,13.515c0.013-0.001,0.023-0.003,0.037-0.004C6.211,13.512,6.2,13.514,6.188,13.515z"/>
			<path fill="#FEE750" d="M6.048,13.527c0.012-0.001,0.022-0.002,0.033-0.003C6.07,13.525,6.06,13.526,6.048,13.527z"/>
			<path fill="#FEE750" d="M6.501,13.47c0.014-0.002,0.024-0.005,0.038-0.007C6.525,13.465,6.515,13.468,6.501,13.47z"/>
			<path fill="#FEE750" d="M6.263,13.507c0.011-0.001,0.024-0.004,0.036-0.006C6.287,13.503,6.273,13.506,6.263,13.507z"/>
			<path fill="#FEE750" d="M6.419,13.484c0.012-0.002,0.024-0.005,0.037-0.007C6.443,13.479,6.431,13.482,6.419,13.484z"/>
			<path fill="#FEE750" d="M5.981,13.532c0.011-0.001,0.021-0.002,0.031-0.002C6.002,13.53,5.992,13.531,5.981,13.532z"/>
			<path fill="#FEE750" d="M6.338,13.496c0.013-0.002,0.026-0.004,0.038-0.005C6.364,13.492,6.351,13.494,6.338,13.496z"/>
			<path fill="#FEE750" d="M5.694,13.539c-0.025,0-0.051,0-0.072,0C5.644,13.539,5.669,13.539,5.694,13.539z"/>
			<path fill="#FEE750" d="M5.423,13.537c-0.007,0-0.012,0-0.018,0c0.004,0,0.009,0,0.014,0C5.42,13.537,5.421,13.537,5.423,13.537z
				"/>
			<path fill="#FEE750" d="M5.554,13.538c0.019,0.001,0.038,0.001,0.057,0.001C5.592,13.539,5.572,13.539,5.554,13.538z"/>
			<path fill="#FEE750" d="M5.909,13.535c0.014-0.001,0.025-0.001,0.038-0.002C5.935,13.534,5.923,13.534,5.909,13.535z"/>
			<path fill="#FEE750" d="M5.829,13.538c0.012,0,0.021-0.001,0.03-0.001C5.85,13.537,5.841,13.538,5.829,13.538z"/>
			<path fill="#FEE750" d="M5.771,13.539c0.01,0,0.02,0,0.029,0C5.79,13.539,5.78,13.539,5.771,13.539z"/>
			<path fill="#FEE750" d="M5.713,13.539c0.012,0,0.021,0,0.031,0C5.734,13.539,5.725,13.539,5.713,13.539z"/>
			<path fill="#FEE750" d="M6.798,13.405c0.015-0.004,0.029-0.007,0.045-0.012C6.827,13.398,6.813,13.401,6.798,13.405z"/>
			<path fill="#FEE750" d="M11.146,10.324c0.021-0.025,0.045-0.05,0.067-0.075C11.19,10.274,11.167,10.299,11.146,10.324z"/>
			<path fill="#FEE750" d="M10.975,10.514c0.023-0.026,0.047-0.052,0.071-0.077C11.021,10.462,10.998,10.487,10.975,10.514z"/>
			<path fill="#FEE750" d="M10.808,10.691c0.023-0.025,0.049-0.05,0.073-0.076C10.856,10.642,10.831,10.666,10.808,10.691z"/>
			<path fill="#FEE750" d="M6.62,13.446c0.013-0.002,0.025-0.006,0.037-0.008C6.646,13.44,6.633,13.444,6.62,13.446z"/>
			<path fill="#FEE750" d="M11.325,10.12c0.019-0.021,0.037-0.043,0.058-0.065C11.362,10.077,11.344,10.1,11.325,10.12z"/>
			<path fill="#FEE750" d="M11.727,9.644c0.021-0.023,0.04-0.049,0.061-0.073C11.767,9.595,11.747,9.62,11.727,9.644z"/>
			<path fill="#FEE750" d="M10.646,10.862c0.023-0.024,0.048-0.049,0.071-0.073C10.693,10.813,10.669,10.838,10.646,10.862z"/>
			<path fill="#FEE750" d="M11.553,9.854c0.004-0.004,0.009-0.01,0.013-0.016C11.562,9.843,11.557,9.85,11.553,9.854z"/>
			<path fill="#FEE750" d="M11.903,9.428c0.021-0.029,0.047-0.06,0.07-0.09C11.95,9.368,11.925,9.398,11.903,9.428z"/>
			<path fill="#FEE750" d="M6.709,13.428c0.013-0.004,0.026-0.007,0.041-0.011C6.735,13.421,6.722,13.424,6.709,13.428z"/>
			<path fill="#FEE750" d="M6.89,13.381c0.016-0.004,0.031-0.008,0.047-0.013C6.921,13.373,6.905,13.377,6.89,13.381z"/>
			<path fill="#FEE750" d="M7.081,13.324c0.018-0.005,0.034-0.011,0.05-0.017C7.115,13.313,7.099,13.319,7.081,13.324z"/>
			<path fill="#FEE750" d="M6.985,13.354c0.016-0.004,0.031-0.009,0.047-0.015C7.017,13.345,7.001,13.35,6.985,13.354z"/>
			<path fill="#FEE750" d="M7.182,13.291c0.016-0.006,0.034-0.011,0.05-0.018C7.216,13.28,7.197,13.285,7.182,13.291z"/>
			<path fill="#FEE750" d="M10.393,11.117c-0.021,0.022-0.043,0.043-0.065,0.064C10.35,11.16,10.372,11.14,10.393,11.117z"/>
		</g>
		<path fill="#FEE750" d="M14.322,6.958c-0.06,0.209-0.127,0.408-0.198,0.595c0.049-0.91-0.133-2.058-0.76-3.565
			c0.295-1.204,0.529-2.379,0.762-3.704C14.787,2.883,14.854,5.122,14.322,6.958z"/>
		<g>
			<path fill="#FEE750" d="M10.095,2.057c-0.063,0.137-0.123,0.274-0.186,0.421C9.798,2.736,9.686,3,9.553,3.248
				C9.666,1.97,9.722-0.108,9.095-2.417c0.134-0.638,0.046-1.286-0.031-1.862C9.001-4.737,8.93-5.258,9.065-5.413
				c0.016-0.019,0.041-0.033,0.066-0.046c0.768,1.046,1.195,2.263,1.432,3.295C10.709-0.525,10.561,1.053,10.095,2.057z"/>
		</g>
		<path fill="#FEE750" d="M15.665-0.12c-0.275-0.489-0.69-0.964-1.32-1.348c-0.107-0.75-0.407-2.017-0.698-3.244
			c-0.058-0.238-0.112-0.471-0.165-0.696c1.36,1.89,1.899,3.585,2.106,4.76C15.619-0.466,15.646-0.289,15.665-0.12z"/>
		<path fill="#FEE750" d="M13.294,2.591c-0.147-1.576-0.344-2.686-1.295-5.05c0.365-1.79-1.111-5.688-1.588-6.63
			c1.486,1.05,2.463,2.742,2.906,5.036C13.773-1.688,13.572,0.803,13.294,2.591z"/>
		<path fill="#FEE750" d="M11.019-1.019c-0.024-0.248-0.057-0.515-0.1-0.791c-0.19-1.199-0.64-2.903-1.708-4.271
			c0.526,0.383,0.28,0.241,0.844,0.802C10.617-6.06,9.409-9.56,9.43-9.536C10.69-7.943,12.346-3.558,11.019-1.019z"/>
		<path fill="#FEE750" d="M6.689-6.731c0.753,0.656,1.164,1.05,1.46,1.272s0.332-0.618,0.343-0.823
			c0.149,0.823,0.295,1.704,0.221,2.977C8.708-3.22,8.69-3.133,8.677-3.041C8.421-4.132,7.711-5.664,6.689-6.731z"/>
		<g>
			<path fill="#FEE750" d="M11.695-1.663c0,0,0.406,1.313,0.526,1.863h0.002c0.013,0.064,0.027,0.129,0.041,0.196
				c0.029,0.14,0.056,0.275,0.081,0.407l0,0c-0.052,0.058-0.104,0.117-0.152,0.175c-0.004,0.005-0.007,0.009-0.009,0.013
				c-0.047,0.056-0.093,0.112-0.137,0.17c-0.007,0.008-0.014,0.017-0.02,0.025c-0.041,0.053-0.081,0.105-0.119,0.16
				C11.9,1.36,11.892,1.374,11.882,1.388c-0.035,0.05-0.068,0.1-0.102,0.15c-0.013,0.02-0.024,0.04-0.037,0.061
				c-0.027,0.044-0.057,0.09-0.084,0.136c-0.016,0.028-0.031,0.055-0.047,0.083c-0.021,0.039-0.043,0.079-0.064,0.118
				c-0.02,0.039-0.038,0.077-0.057,0.116c-0.015,0.029-0.03,0.059-0.044,0.089c-0.033,0.07-0.063,0.14-0.091,0.21
				c-0.014-0.063-0.025-0.13-0.036-0.196c-0.003-0.017-0.007-0.035-0.009-0.053c-0.001-0.007-0.002-0.014-0.002-0.019
				c-0.003-0.013-0.005-0.026-0.007-0.039c0-0.008-0.001-0.016-0.003-0.022c-0.002-0.014-0.003-0.027-0.004-0.042
				c-0.001-0.008-0.002-0.016-0.004-0.023c-0.001-0.014-0.003-0.029-0.005-0.045c0-0.007-0.001-0.015-0.003-0.021
				c-0.001-0.021-0.003-0.039-0.004-0.06c-0.001-0.004-0.001-0.009-0.002-0.013c-0.003-0.025-0.005-0.051-0.007-0.076
				c0-0.006,0-0.012,0-0.017c-0.003-0.021-0.005-0.042-0.006-0.063c-0.001-0.008-0.001-0.018-0.001-0.026
				c-0.002-0.019-0.004-0.038-0.005-0.058c0-0.009-0.001-0.02-0.002-0.029c0-0.019-0.002-0.039-0.002-0.058
				c-0.001-0.011-0.003-0.021-0.003-0.03c-0.001-0.021-0.002-0.044-0.003-0.066c0-0.008-0.001-0.016-0.001-0.024
				c-0.001-0.031-0.002-0.062-0.005-0.094c0-0.002,0-0.003,0-0.005c0-0.029-0.002-0.06-0.002-0.09c0-0.01-0.001-0.021-0.001-0.032
				c-0.001-0.021-0.001-0.042-0.002-0.064c0-0.014-0.002-0.026-0.002-0.038c0-0.021,0-0.043-0.001-0.063
				c0-0.013,0-0.026-0.001-0.039c0-0.022,0-0.044,0-0.066c0-0.012,0-0.024,0-0.036c-0.001-0.027-0.001-0.054-0.001-0.082
				c0-0.008,0-0.016,0-0.023c-0.001-0.034-0.001-0.069,0-0.104c0-0.012,0-0.022,0-0.034c0-0.023,0-0.048,0.001-0.072
				c0-0.015,0-0.029,0-0.043c0-0.021,0-0.044,0-0.065c0.001-0.016,0.001-0.031,0.002-0.046c0-0.021,0-0.042,0-0.063
				c0.002-0.016,0.002-0.031,0.003-0.047c0-0.023,0-0.047,0.001-0.069c0.001-0.013,0.001-0.026,0.001-0.04
				c0.001-0.035,0.002-0.072,0.005-0.108c0-0.01,0-0.021,0.001-0.032c0.001-0.025,0.002-0.051,0.003-0.078
				c0-0.015,0.001-0.03,0.002-0.044c0.002-0.022,0.003-0.045,0.004-0.067c0.001-0.016,0.001-0.031,0.002-0.047
				c0.001-0.021,0.004-0.042,0.004-0.063c0.002-0.017,0.002-0.032,0.003-0.049c0.001-0.021,0.003-0.043,0.005-0.064
				c0.001-0.016,0.002-0.031,0.003-0.047c0.002-0.025,0.005-0.051,0.006-0.075c0.001-0.012,0.002-0.022,0.003-0.034l0,0
				C11.331-0.706,11.653-1.51,11.695-1.663z"/>
			<path fill="#FEE750" d="M10.881,1.796c0,0.004,0.001,0.01,0.001,0.016c0.002,0.023,0.004,0.047,0.007,0.069
				c0.001,0.012,0.002,0.024,0.003,0.038c0.002,0.018,0.005,0.036,0.006,0.055c0.001,0.016,0.003,0.029,0.006,0.045
				c0.001,0.015,0.002,0.029,0.004,0.043c0.002,0.019,0.005,0.035,0.007,0.054c0.002,0.01,0.003,0.02,0.005,0.03
				c0.004,0.025,0.008,0.051,0.011,0.074c0.076,0.443,0.179,0.875,0.561,1.24c0,0,0-0.001,0-0.004c0-0.001,0-0.002,0-0.002
				c0-0.002,0-0.004,0-0.008c0-0.002,0-0.003,0.001-0.006c0-0.003,0-0.006,0-0.011c0.001-0.002,0.001-0.006,0.001-0.009
				c0-0.005,0-0.009,0-0.014c0.001-0.004,0.001-0.008,0.001-0.011c0.001-0.007,0.001-0.013,0.001-0.019
				c0.001-0.004,0.003-0.009,0.003-0.013c0-0.008,0.001-0.016,0.002-0.023c0-0.005,0.001-0.009,0.002-0.015
				c0-0.012,0.002-0.024,0.005-0.038c0-0.002,0-0.006,0-0.008c0.002-0.015,0.004-0.028,0.007-0.044
				c0.001-0.006,0.002-0.012,0.003-0.018c0.002-0.011,0.003-0.023,0.006-0.034c0.002-0.008,0.003-0.016,0.004-0.023
				c0.003-0.012,0.005-0.023,0.007-0.035c0.002-0.009,0.005-0.018,0.006-0.026c0.002-0.013,0.006-0.024,0.008-0.037
				c0.002-0.009,0.004-0.019,0.007-0.027c0.002-0.014,0.007-0.027,0.009-0.042c0.002-0.009,0.004-0.019,0.008-0.028
				c0.003-0.015,0.008-0.03,0.012-0.047c0.003-0.01,0.005-0.019,0.007-0.027c0.007-0.023,0.014-0.047,0.021-0.072
				c0.001-0.004,0.003-0.008,0.003-0.013c0.008-0.023,0.016-0.048,0.023-0.073c0.004-0.009,0.008-0.021,0.011-0.03
				c0.007-0.018,0.013-0.037,0.02-0.055c0.004-0.013,0.008-0.024,0.013-0.036c0.007-0.018,0.014-0.035,0.02-0.053
				c0.006-0.013,0.011-0.026,0.015-0.039c0.008-0.019,0.016-0.036,0.022-0.054c0.006-0.014,0.012-0.027,0.017-0.042
				c0.008-0.018,0.017-0.036,0.024-0.056c0.006-0.013,0.013-0.026,0.019-0.04c0.01-0.021,0.019-0.042,0.03-0.064
				c0.005-0.012,0.011-0.023,0.017-0.036c0.016-0.032,0.032-0.064,0.049-0.097c0.002-0.006,0.006-0.01,0.008-0.015
				c0.016-0.031,0.032-0.063,0.05-0.095c0.007-0.013,0.015-0.025,0.021-0.038c0.014-0.023,0.027-0.046,0.04-0.069
				c0.009-0.015,0.019-0.029,0.027-0.043c0.013-0.022,0.025-0.045,0.04-0.066c0.009-0.016,0.019-0.031,0.029-0.047
				c0.013-0.021,0.028-0.043,0.042-0.065c0.011-0.016,0.022-0.031,0.032-0.047c0.016-0.022,0.031-0.046,0.048-0.069
				c0.011-0.015,0.021-0.03,0.031-0.046c0.02-0.024,0.038-0.05,0.058-0.075c0.01-0.013,0.019-0.026,0.029-0.04
				c0.029-0.038,0.288-0.313,0.288-0.313c0.233,0.966,0.328,1.824-0.169,3.479l0.169-0.368L12.633,4.22
				c-1.034,2.286-2.165,3.932-3.359,4.894c-0.106,0.086-0.21,0.163-0.311,0.233c0.875-1.145,1.739-3.193,1.795-7.329
				c0.034-0.15,0.068-0.331,0.102-0.532C10.865,1.596,10.873,1.7,10.881,1.796z"/>
			<path fill="#FEE750" d="M13.506,5.323c-0.029,1.094-0.243,1.582-0.55,1.998l-0.004,0.006l-0.005,0.007
				c-1.635,2.415-3.223,4.104-4.719,5.02c-0.347,0.212-0.666,0.368-0.956,0.483c0.619-0.468,1.337-1.101,2.043-1.928
				c0.807-0.944,1.229-1.897,1.701-2.986c0.311-0.717,0.533-0.891,0.773-1.292c1.187-1.815,1.202-2.585,1.231-2.714
				C13.177,4.414,13.364,4.897,13.506,5.323z"/>
		</g>
		<path fill="#FEE750" d="M10.234-9.536c0.976,0.202,1.11-0.043,0.894-0.356c-0.263-0.38-0.889-1.103-1.917-1.788
			c1.929,0.831,3.397,2.592,4.153,4.182C12.648-8.075,11.346-8.938,10.234-9.536z"/>
	</g>
</symbol>
<use xlink:href="#firefox"  width="32" height="30.836" x="-16" y="-15.428" transform="matrix(1 0 0 -1 16 15.9902)" overflow="visible"/>
</svg>
