<?xml version="1.0" encoding="utf-8"?>
<!-- Generator: Adobe Illustrator 14.0.0, SVG Export Plug-In . SVG Version: 6.00 Build 43363)  -->
<!DOCTYPE svg PUBLIC "-//W3C//DTD SVG 1.1//EN" "http://www.w3.org/Graphics/SVG/1.1/DTD/svg11.dtd">
<svg version="1.1" id="Layer_1" xmlns="http://www.w3.org/2000/svg" xmlns:xlink="http://www.w3.org/1999/xlink" x="0px" y="0px"
	 width="32px" height="32px" viewBox="0 0 32 32" enable-background="new 0 0 32 32" xml:space="preserve">
<symbol  id="_x5F_button_x5F_shape" viewBox="-16 -16 32 32">
	<g id="button_x5F_shape_1_">
		<g>
			<g opacity="0">
				<path fill="#FFFFFF" d="M16-12c0-2.209-1.792-4-4-4h-24c-2.208,0-4,1.791-4,4v24c0,2.209,1.792,4,4,4h24c2.208,0,4-1.791,4-4
					V-12z"/>
			</g>
		</g>
	</g>
</symbol>
<symbol  id="internetExplorer" viewBox="-15.516 -16 31.033 31.999">
	<path fill="#37A5E2" d="M15.144,8.782c0.662,2.532,0.46,4.646-0.754,5.942c-2.178,2.33-7.065,1.343-12.367-1.962
		c-0.423,0.035-0.85,0.056-1.28,0.056c-7.901,0-14.605-5.338-14.605-13.035C-12.665,1.68-8.867,7.46-2.47,9.422
		C-6.619,6.615-12.23-1.351-13.43-3.866c-2.399-4.837-2.843-9.046-0.734-11.017c2.259-2.111,6.886-1.129,11.953,2.091
		c0.961-0.165,1.948-0.249,2.953-0.249c5.476,0,11.263,3.59,13.259,9.217H4.644C4.128-5.365,2.44-6.816,0.548-6.816
		c-2.875,0-4.539,2.086-4.539,4.856c1.945,0,18.588,0,18.588,0c0.049,0.481,0.076,0.854,0.076,1.365
		c0,6.288-4.043,11.048-9.474,12.741c3.965,2.127,7.255,2.764,8.769,1.145c0.881-0.944,1.162-2.587,0.676-4.509H15.144z
		 M-3.069-12.623c-4.034-2.371-7.507-3.068-9.196-1.489c-1.456,1.36-1.313,4.157,0.095,7.581c0.043,0.063,0.085,0.144,0.125,0.083
		C-9.946-9.721-6.74-11.79-3.069-12.623z M-3.99,2.176c0,0,0.179,4.208,4.388,4.208c4.148,0,4.387-4.208,4.387-4.208H-3.99z"/>
</symbol>
<use xlink:href="#internetExplorer"  width="31.033" height="31.999" x="-15.516" y="-16" transform="matrix(1 0 0 -1 16 15.9995)" overflow="visible"/>
</svg>
