<?xml version="1.0" encoding="utf-8"?>
<!-- Generator: Adobe Illustrator 14.0.0, SVG Export Plug-In . SVG Version: 6.00 Build 43363)  -->
<!DOCTYPE svg PUBLIC "-//W3C//DTD SVG 1.1//EN" "http://www.w3.org/Graphics/SVG/1.1/DTD/svg11.dtd">
<svg version="1.1" id="Layer_1" xmlns="http://www.w3.org/2000/svg" xmlns:xlink="http://www.w3.org/1999/xlink" x="0px" y="0px"
	 width="32px" height="32px" viewBox="0 0 32 32" enable-background="new 0 0 32 32" xml:space="preserve">
<symbol  id="_x5F_button_x5F_shape" viewBox="-16 -16 32 32">
	<g id="button_x5F_shape_1_">
		<g>
			<g opacity="0">
				<path fill="#FFFFFF" d="M16-12c0-2.209-1.792-4-4-4h-24c-2.208,0-4,1.791-4,4v24c0,2.209,1.792,4,4,4h24c2.208,0,4-1.791,4-4
					V-12z"/>
			</g>
		</g>
	</g>
</symbol>
<symbol  id="jquery" viewBox="-16 -13.663 32 27.326">
	<g>
		<polygon fill="#006DBC" points="-5.35,5.223 -9.987,5.223 -9.117,9.28 -4.48,9.28 		"/>
		<path fill="#C1272D" d="M-8.659-11.036"/>
		<path fill="#006DBC" d="M-5.447,4.596h-4.612l-2.669-12.739c-0.389-1.405-0.288-1.46-1.817-1.46c-0.158,0-0.313,0.015-0.465,0.034
			v-0.034h-0.121L-16-13.663h4.051l0.022,0.02c1.573,0.009,3.007,1.338,3.268,2.607C-8.398-9.768-5.447,4.596-5.447,4.596z"/>
		<path fill="#1A202E" d="M13.463-3.038c0.126,0.225,0.234,0.628,0.337,0.9c0.288,0.774,0.56,1.556,0.814,2.343
			c0.641,1.985,1.24,4.055,1.38,6.146c0.051,0.771-0.233,2.209-0.565,2.928c-0.585,1.268-1.071,1.903-2.159,2.8
			c-1.704,1.399-3.843,1.606-5.966,1.583c-1.719-0.021-3.439-0.233-4.982-1.033C0.052,11.45-1.443,9.26-2.44,6.97
			c-1.01-2.317-1.58-4.929-1.41-7.465c0.16-2.362,1.156-4.955,3.504-5.907C1.059-6.97,2.58-6.891,4.064-6.891
			c1.583,0,3.165,0,4.747,0c1.403,0,2.809,0,4.214,0c0.521,0,1.044,0,1.567,0c0.099,0,0.199,0,0.301,0
			c0.163,0,0.173,0.248,0.219,0.392c0.134,0.436,0.257,0.875,0.365,1.318c0.175,0.708,0.322,1.424,0.444,2.143
			C15.103-3.023,14.282-3.038,13.463-3.038 M8.897-3.038c-1.326,0-2.485,0-3.882,0c-1.026,0-2.821-0.04-3.516,0.824
			C0.794-1.336,0.828,0.224,0.96,1.3c0.157,1.285,0.492,2.472,0.89,3.634c0.727,2.128,2.232,3.885,4.525,4.263
			c0.957,0.157,2.072,0.167,2.968-0.238c0.929-0.419,1.573-1.462,1.699-2.458c0.177-1.39-0.227-2.884-0.567-4.219
			C10.03,0.533,9.468-1.183,8.897-2.891"/>
	</g>
</symbol>
<use xlink:href="#jquery"  width="32" height="27.326" x="-16" y="-13.663" transform="matrix(1 0 0 -1 16 16)" overflow="visible"/>
</svg>
