<?xml version="1.0" encoding="utf-8"?>
<!-- Generator: Adobe Illustrator 14.0.0, SVG Export Plug-In . SVG Version: 6.00 Build 43363)  -->
<!DOCTYPE svg PUBLIC "-//W3C//DTD SVG 1.1//EN" "http://www.w3.org/Graphics/SVG/1.1/DTD/svg11.dtd">
<svg version="1.1" id="Layer_1" xmlns="http://www.w3.org/2000/svg" xmlns:xlink="http://www.w3.org/1999/xlink" x="0px" y="0px"
	 width="32px" height="32px" viewBox="0 0 32 32" enable-background="new 0 0 32 32" xml:space="preserve">
<symbol  id="_x5F_button_x5F_shape" viewBox="-16 -16 32 32">
	<g id="button_x5F_shape_1_">
		<g>
			<g opacity="0">
				<path fill="#FFFFFF" d="M16-12c0-2.209-1.792-4-4-4h-24c-2.208,0-4,1.791-4,4v24c0,2.209,1.792,4,4,4h24c2.208,0,4-1.791,4-4
					V-12z"/>
			</g>
		</g>
	</g>
</symbol>
<symbol  id="laptop" viewBox="-16 -12.995 32 25.99">
	<g>
		<g>
			<path fill="#CCCCCC" d="M16-12.995h-32v4.018h32V-12.995L16-12.995z M-15.03-12.025h30.06v2.077h-30.06V-12.025L-15.03-12.025z"
				/>
			<polygon points="15.516,-12.511 -15.515,-12.511 -15.515,-9.463 15.516,-9.463 			"/>
		</g>
		<g>
			<g>
				<path fill="#CCCCCC" d="M14.117-8.888h-28.235V9.817c0,1.753,1.425,3.178,3.177,3.178h21.879c1.753,0,3.179-1.425,3.179-3.178
					V-8.888L14.117-8.888z M-13.148-7.918h26.296V9.817c0,1.218-0.991,2.208-2.209,2.208H-10.94c-1.217,0-2.208-0.99-2.208-2.208
					V-7.918L-13.148-7.918z"/>
				<path d="M13.633-8.402V9.818c0,1.486-1.207,2.692-2.694,2.692H-10.94c-1.486,0-2.692-1.206-2.692-2.692V-8.402H13.633z"/>
			</g>
			<g>
				<polygon fill="#FFFFFF" points="12.062,-7.104 -12.063,-7.104 -12.063,10.269 12.062,10.269 				"/>
				<path fill="#CCCCCC" d="M12.304-7.347h-24.609V10.51h24.609V-7.347L12.304-7.347z M-11.82-6.861h23.64v16.888h-23.64V-6.861
					L-11.82-6.861z"/>
			</g>
			<g>
				<path fill="#CCCCCC" d="M4.217,2.416C4.738-0.302-0.174-3.5-0.174-3.5s2.903,3.93,2.251,6.82C1.425,6.209,3.365,9.75,3.365,9.75
					h3.886C7.251,9.75,3.695,5.136,4.217,2.416z"/>
				<path fill="none" d="M4.217,2.416C4.738-0.302-0.174-3.5-0.174-3.5s2.903,3.93,2.251,6.82C1.425,6.209,3.365,9.75,3.365,9.75
					h3.886C7.251,9.75,3.695,5.136,4.217,2.416z"/>
			</g>
		</g>
	</g>
</symbol>
<use xlink:href="#laptop"  width="32" height="25.99" x="-16" y="-12.995" transform="matrix(1 0 0 -1 16 16)" overflow="visible"/>
</svg>
