<?xml version="1.0" encoding="utf-8"?>
<!-- Generator: Adobe Illustrator 14.0.0, SVG Export Plug-In . SVG Version: 6.00 Build 43363)  -->
<!DOCTYPE svg PUBLIC "-//W3C//DTD SVG 1.1//EN" "http://www.w3.org/Graphics/SVG/1.1/DTD/svg11.dtd">
<svg version="1.1" id="Layer_1" xmlns="http://www.w3.org/2000/svg" xmlns:xlink="http://www.w3.org/1999/xlink" x="0px" y="0px"
	 width="32px" height="32px" viewBox="0 0 32 32" enable-background="new 0 0 32 32" xml:space="preserve">
<symbol  id="_x5F_button_x5F_shape" viewBox="-16 -16 32 32">
	<g id="button_x5F_shape_1_">
		<g>
			<g opacity="0">
				<path fill="#FFFFFF" d="M16-12c0-2.209-1.792-4-4-4h-24c-2.208,0-4,1.791-4,4v24c0,2.209,1.792,4,4,4h24c2.208,0,4-1.791,4-4
					V-12z"/>
			</g>
		</g>
	</g>
</symbol>
<symbol  id="mac" viewBox="-14.276 -16 28.552 32">
	<path fill="#BBCFE5" d="M2.962,12.215c-0.993-1.487-2.12-3.439-2.843-5.543C-1.007,3.396-1.456,0.49-1.619-0.873h6.66L4.352-2.035
		C4.338-2.059,2.92-4.514,2.92-7.898c0-1.684,0.206-3.056,0.475-4.138h10.881v24.251H2.962z"/>
	<path fill="#3B90CB" d="M2.469-2.413h-5.762v0.006l0.054,0.814c0.011,0.164,0.283,4.061,1.901,8.766
		c0.644,1.872,1.568,3.608,2.46,5.042h-15.398v-24.251H1.809c-0.25,1.13-0.429,2.503-0.429,4.138C1.38-5.52,1.991-3.572,2.469-2.413
		z"/>
	<path d="M0.333-7.898c-7.414,0-10.194,2.403-10.309,2.506l1.02,1.152c0.025-0.021,2.543-2.118,9.289-2.118
		c6.733,0,9.167,2.091,9.191,2.11l1.039-1.136C10.452-5.487,7.755-7.898,0.333-7.898L0.333-7.898z"/>
	<polygon points="-5.806,4.934 -7.346,4.934 -7.346,8.334 -5.806,8.334 	"/>
	<polygon points="6.834,4.934 5.294,4.934 5.294,8.334 6.834,8.334 	"/>
	<path d="M3.398-16C3.315-15.893,1.38-13.294,1.38-7.898c0,2.38,0.611,4.326,1.089,5.485h-5.761l0.054,0.82
		c0.011,0.164,0.282,4.061,1.901,8.766C0.299,11.926,3.737,15.836,3.884,16l1.151-1.022c-0.033-0.037-3.383-3.851-4.916-8.306
		C-1.007,3.396-1.457,0.49-1.619-0.873h6.66L4.352-2.035C4.338-2.059,2.92-4.514,2.92-7.898c0-4.826,1.688-7.147,1.705-7.171
		L3.398-16L3.398-16z"/>
</symbol>
<use xlink:href="#mac"  width="28.552" height="32" x="-14.276" y="-16" transform="matrix(1 0 0 -1 16 16)" overflow="visible"/>
</svg>
