<?xml version="1.0" encoding="utf-8"?>
<!-- Generator: Adobe Illustrator 14.0.0, SVG Export Plug-In . SVG Version: 6.00 Build 43363)  -->
<!DOCTYPE svg PUBLIC "-//W3C//DTD SVG 1.1//EN" "http://www.w3.org/Graphics/SVG/1.1/DTD/svg11.dtd">
<svg version="1.1" id="Layer_1" xmlns="http://www.w3.org/2000/svg" xmlns:xlink="http://www.w3.org/1999/xlink" x="0px" y="0px"
     width="32px" height="32px" viewBox="0 0 32 32" enable-background="new 0 0 32 32" xml:space="preserve">
<g>
	<g>
		<g>
			<path fill="#E41414" d="M15.955,27.006c7.285,0,7.452-22.354,0-22.354C8.699,4.652,8.739,27.006,15.955,27.006 M15.955,2.445
				c16.789,0,16.534,27.111,0,27.111C-0.426,29.556-0.744,2.445,15.955,2.445"/>
		</g>
	</g>
	<g>
		<g>
			<path fill="#AB0000" d="M15.955,30c-8.436,0-12.85-7.092-12.85-14.098c0-3.64,1.132-7.027,3.188-9.54
				C8.626,3.509,11.968,2,15.955,2c8.891,0,12.941,7.217,12.941,13.922c0,3.664-1.149,7.09-3.236,9.648
				C23.295,28.469,19.939,30,15.955,30L15.955,30z M15.955,2.889c-3.711,0-6.814,1.396-8.974,4.037
				c-1.926,2.354-2.986,5.542-2.986,8.977c0,6.361,3.743,13.208,11.96,13.208c3.708,0,6.827-1.418,9.015-4.102
				c1.958-2.399,3.036-5.627,3.036-9.086C28.006,9.646,24.235,2.889,15.955,2.889L15.955,2.889z M15.955,27.451
				c-4.034,0-5.872-6.037-5.872-11.646c0-2.984,0.494-5.771,1.391-7.846c1.062-2.455,2.61-3.752,4.48-3.752
				c4.102,0,5.971,5.976,5.971,11.527c0,3-0.507,5.815-1.427,7.921C19.415,26.139,17.843,27.451,15.955,27.451L15.955,27.451z
				 M15.955,5.097c-1.879,0-3.03,1.749-3.664,3.216c-0.85,1.967-1.318,4.628-1.318,7.493c0,5.346,1.711,10.756,4.982,10.756
				c1.905,0,3.079-1.773,3.729-3.262c0.859-1.968,1.353-4.727,1.353-7.566C21.036,10.448,19.291,5.097,15.955,5.097L15.955,5.097z"
				/>
		</g>
	</g>
</g>
</svg>
