<?xml version="1.0" encoding="utf-8"?>
<!-- Generator: Adobe Illustrator 14.0.0, SVG Export Plug-In . SVG Version: 6.00 Build 43363)  -->
<!DOCTYPE svg PUBLIC "-//W3C//DTD SVG 1.1//EN" "http://www.w3.org/Graphics/SVG/1.1/DTD/svg11.dtd">
<svg version="1.1" id="Layer_1" xmlns="http://www.w3.org/2000/svg" xmlns:xlink="http://www.w3.org/1999/xlink" x="0px" y="0px"
	 width="32px" height="32px" viewBox="0 0 32 32" enable-background="new 0 0 32 32" xml:space="preserve">
<symbol  id="_x5F_button_x5F_shape" viewBox="-16 -16 32 32">
	<g id="button_x5F_shape_1_">
		<g>
			<g opacity="0">
				<path fill="#FFFFFF" d="M16-12c0-2.209-1.792-4-4-4h-24c-2.208,0-4,1.791-4,4v24c0,2.209,1.792,4,4,4h24c2.208,0,4-1.791,4-4
					V-12z"/>
			</g>
		</g>
	</g>
</symbol>
<symbol  id="safari" viewBox="-16 -16 32 32">
	<path fill="#808184" d="M14.474,0.11c0-7.947-6.443-14.392-14.393-14.392S-14.312-7.837-14.312,0.11
		c0,7.949,6.443,14.393,14.393,14.393S14.474,8.06,14.474,0.11z"/>
	<g>
		<path fill="#B3B3B3" d="M16,0.001C16-8.835,8.837-16,0-16S-16-8.835-16,0.001S-8.837,16,0,16S16,8.837,16,0.001z"/>
		<path fill="#4D4D4D" d="M13.83,0.001c0-7.637-6.192-13.829-13.83-13.829S-13.828-7.636-13.828,0.001
			c0,7.638,6.19,13.829,13.828,13.829S13.83,7.639,13.83,0.001z"/>
		<path fill="#FFFFFF" stroke="#595959" d="M12.991,0.001c0-7.175-5.816-12.99-12.991-12.99s-12.991,5.815-12.991,12.99
			c0,7.174,5.816,12.99,12.991,12.99S12.991,7.175,12.991,0.001z"/>
		<path fill="#231F20" d="M12.672,0.001c0-6.999-5.673-12.673-12.672-12.673S-12.673-6.998-12.673,0.001S-6.999,12.673,0,12.673
			S12.672,7,12.672,0.001z"/>
		<path fill="#FFFFFF" d="M12.672-0.04c0-6.999-5.673-12.671-12.672-12.671S-12.673-7.039-12.673-0.04
			c0,6.998,5.674,12.671,12.673,12.671S12.672,6.958,12.672-0.04z"/>
		<path fill="#FFFFFF" d="M-11.916-0.08c0,6.66,5.344,12.06,11.933,12.06c6.59,0,11.933-5.399,11.933-12.06
			c0-6.662-5.343-12.061-11.933-12.061C-6.572-12.141-11.916-6.742-11.916-0.08z"/>
		<g>
			<linearGradient id="SVGID_1_" gradientUnits="userSpaceOnUse" x1="2.3887" y1="-10.5439" x2="-2.6896" y2="12.1806">
				<stop  offset="0" style="stop-color:#6ECBF3"/>
				<stop  offset="0.1003" style="stop-color:#5DC0E8"/>
				<stop  offset="0.297" style="stop-color:#33A4CC"/>
				<stop  offset="0.3818" style="stop-color:#1E96BF"/>
				<stop  offset="0.64" style="stop-color:#22689D"/>
				<stop  offset="0.8743" style="stop-color:#254583"/>
				<stop  offset="1" style="stop-color:#263879"/>
			</linearGradient>
			<path fill="url(#SVGID_1_)" d="M11.644,0.145c0-6.409-5.213-11.606-11.644-11.606S-11.644-6.265-11.644,0.145
				c0,6.41,5.213,11.606,11.644,11.606S11.644,6.555,11.644,0.145z"/>
			<path fill="#1E96BF" d="M11.644,0.145c0-6.409-5.213-11.606-11.644-11.606S-11.644-6.265-11.644,0.145
				c0,6.41,5.213,11.606,11.644,11.606S11.644,6.555,11.644,0.145z"/>
		</g>
		<path opacity="0.89" fill="#76B2E1" d="M-5.887,1.901l0.343-0.452l1.537-0.09l0.396,0.182l1.25,0.091l0.541-0.398h0.542h0.344
			l0.218,0.253h0.18v0.082l-0.307,0.081l-0.217-0.29l-0.453,0.127l-0.379,0.65l-0.253,0.126l-0.56-0.325l-0.507,0.109l-0.163,0.216
			l-0.433-0.307h-0.344l-0.416,0.307L-4.91,2.752l0.017,0.271l-0.199,0.288l0.254,0.451l0.759,0.381l0.868,0.47l0.487-0.397
			l0.235-0.109c0,0,0.182,0.037,0,0.289c-0.181,0.254-0.542,0.507-0.56,0.633C-3.067,5.156-3.031,5.5-2.868,5.698
			c0.163,0.2,0.234,0.38,0.217,0.543C-2.67,6.403-2.833,6.82-2.814,7.126c0.018,0.308,0.633,1.699,0.669,2.025s0,1.012,0.073,1.374
			c0.071,0.361-0.037,0.704-0.037,0.704s-0.615-0.143-0.831,0l-0.145,0.102c0,0-1.845-0.607-2.008-0.751l0.183-0.235l-0.2-0.507
			c-0.126-0.145,0.307-0.614,0.307-0.614c0.074-0.307-0.161-0.38-0.505-0.234c-0.344,0.145-0.363,0.595-0.363,0.595l-0.632-0.161
			h-0.65c0,0-2.578-1.62-3.79-4.965c0,0,1.349-1.472,1.564-1.508c0.218-0.035,0.472,0.217,0.688,0l0.506-0.614h0.363V2.083h0.396
			l0.614-0.398l-0.673,0.543l-0.629,0.506l0.65-0.217l0.651-0.47L-5.887,1.901l2.275-0.252"/>
		<path fill="#8BC6EC" d="M-0.589-2.353l0.939-0.578l0.604-0.724l1.157-0.121c0,0,1.036-1.204,1.783-4.193l0.169-0.313l0.241-0.096
			L4.497-8.86v-0.338v-0.387l0.588-0.714L5.906-9.86L5.823-9.824L5.968-9.03l-0.41,0.17L5.462-8.596l0.167,0.241l-0.071,0.53
			L5.316-7.511l0.266,0.072L5.533-6.932c0,0,0.7,0.168,0.651,0.675C6.136-5.751,5.605-5.799,5.605-5.799s0.844-0.313,0.771,1.324
			c0,0,0.227,0.579,0.005,0.868c0,0-0.246,0.459,0.623,1.061c0,0,0.217,1.013-0.387,1.76c0,0,0.531,1.277-0.217,1.688
			c0,0-1.374,0.603-2.338,0.458C3.1,1.214,2.328,1.336,1.821,0.781C1.314,0.228-0.661-1.604-0.589-2.353z"/>
		<polygon fill="#898583" points="5.698,-9.159 5.953,-9.812 6.173,-9.673 		"/>
		<polygon fill="#898583" points="7.12,-8.11 7.464,-8.708 7.669,-8.527 		"/>
		<polygon fill="#898583" points="8.472,-6.701 8.897,-7.232 9.072,-7.012 		"/>
		<polygon fill="#898583" points="9.617,-5.146 10.067,-5.487 10.159,-5.317 		"/>
		<polygon fill="#898583" points="6.711,-8.87 6.831,-9.199 7.001,-9.087 		"/>
		<polygon fill="#898583" points="8.181,-7.543 8.353,-7.857 8.472,-7.701 		"/>
		<polygon fill="#898583" points="9.4,-6.049 9.617,-6.244 9.704,-6.107 		"/>
		<polygon fill="#898583" points="10.268,-4.303 10.55,-4.494 10.63,-4.303 		"/>
		<polygon fill="#898583" points="10.448,-3.422 10.867,-3.663 10.946,-3.422 		"/>
		<polygon fill="#898583" points="10.946,-2.565 11.15,-2.682 11.19,-2.511 		"/>
		<polygon fill="#898583" points="10.798,-1.711 11.318,-1.851 11.355,-1.615 		"/>
		<polygon fill="#898583" points="11.19,-0.698 11.445,-0.76 11.445,-0.591 		"/>
		<polygon fill="#898583" points="10.946,0.253 11.445,0.17 11.445,0.374 		"/>
		<polygon fill="#898583" points="11.014,1.182 11.426,1.074 11.411,1.232 		"/>
		<polygon fill="#898583" points="10.984,3.369 10.701,3.315 10.94,3.511 		"/>
		<polygon fill="#898583" points="10.152,3.933 10.701,4.096 10.637,4.355 		"/>
		<polygon fill="#898583" points="9.927,5.063 10.286,5.14 10.223,5.266 		"/>
		<polygon fill="#898583" points="9.275,5.695 9.862,5.921 9.759,6.093 		"/>
		<polygon fill="#898583" points="8.878,6.762 9.197,6.918 9.098,7.051 		"/>
		<polygon fill="#898583" points="8.146,7.296 8.638,7.612 8.497,7.771 		"/>
		<polygon fill="#898583" points="7.612,8.19 7.88,8.404 7.745,8.529 		"/>
		<polygon fill="#898583" points="6.626,8.57 7.142,9.05 6.884,9.25 		"/>
		<polygon fill="#898583" points="5.993,9.42 6.271,9.682 6.133,9.771 		"/>
		<polygon fill="#898583" points="5.103,9.623 5.495,10.15 5.304,10.253 		"/>
		<polygon fill="#898583" points="4.321,10.253 4.573,10.605 4.376,10.689 		"/>
		<polygon fill="#898583" points="3.318,10.521 3.603,10.979 3.385,11.05 		"/>
		<polygon fill="#898583" points="2.514,11.05 2.625,11.259 2.442,11.301 2.533,11.01 		"/>
		<polygon fill="#898583" points="1.438,10.947 1.612,11.451 1.384,11.451 		"/>
		<polygon fill="#898583" points="0.524,11.199 0.643,11.55 0.444,11.55 		"/>
		<polygon fill="#898583" points="-0.397,11.05 -0.36,11.565 -0.561,11.55 		"/>
		<polygon fill="#898583" points="-1.084,11.301 -1.049,11.526 -1.257,11.526 		"/>
		<polygon fill="#898583" points="-3.072,10.839 -3.072,11.167 -3.296,11.104 		"/>
		<polygon fill="#898583" points="-3.968,10.323 -4.058,10.839 -4.319,10.748 		"/>
		<polygon fill="#898583" points="-4.88,10.17 -4.95,10.473 -5.169,10.366 		"/>
		<polygon fill="#898583" points="-5.513,9.573 -5.739,10.063 -5.925,9.955 		"/>
		<polygon fill="#898583" points="-6.604,9.517 -6.765,9.402 -6.435,9.185 		"/>
		<polygon fill="#898583" points="-7.022,8.434 -7.306,8.989 -7.542,8.79 		"/>
		<polygon fill="#898583" points="-7.8,7.847 -8.136,8.245 -8.298,8.081 		"/>
		<polygon fill="#898583" points="-8.253,7.024 -8.739,7.6 -8.909,7.399 		"/>
		<polygon fill="#898583" points="-9.048,6.314 -9.441,6.706 -9.564,6.528 		"/>
		<polygon fill="#898583" points="-9.446,5.388 -10.002,5.836 -10.129,5.612 		"/>
		<polygon fill="#898583" points="-10.178,4.7 -10.492,4.898 -10.565,4.736 		"/>
		<polygon fill="#898583" points="-10.328,3.726 -10.856,4.018 -10.942,3.777 		"/>
		<polygon fill="#898583" points="-10.855,2.901 -11.165,3.048 -11.218,2.844 		"/>
		<polygon fill="#898583" points="-10.652,1.917 -11.369,2.148 -11.418,1.863 		"/>
		<polygon fill="#898583" points="-11.06,1.022 -11.511,1.132 -11.511,0.932 		"/>
		<polygon fill="#898583" points="-10.942,-0.108 -11.559,-0.217 -11.511,0.085 		"/>
		<polygon fill="#898583" points="-11.251,-1.036 -11.502,-1.136 -11.511,-0.88 		"/>
		<polygon fill="#898583" points="-10.754,-3.085 -11.036,-3.289 -11.135,-3.085 		"/>
		<polygon fill="#898583" points="-10.754,-4.072 -10.139,-3.663 -10.923,-3.757 		"/>
		<polygon fill="#898583" points="-10.391,-5.036 -9.994,-4.748 -10.477,-4.748 		"/>
		<polygon fill="#898583" points="-9.889,-5.951 -9.393,-5.521 -10.045,-5.686 		"/>
		<polygon fill="#898583" points="-9.393,-6.652 -9.054,-6.447 -9.331,-6.787 		"/>
		<polygon fill="#898583" points="-8.741,-7.399 -8.149,-7.025 -8.603,-7.681 		"/>
		<polygon fill="#898583" points="-7.997,-8.305 -7.72,-7.954 -8.149,-8.129 		"/>
		<polygon fill="#898583" points="-7.3,-8.922 -6.716,-8.433 -7.067,-9.104 		"/>
		<polygon fill="#898583" points="-6.473,-9.533 -6.164,-9.283 -6.246,-9.683 		"/>
		<polygon fill="#898583" points="-5.685,-10.021 -5.205,-9.363 -5.445,-10.152 		"/>
		<path fill="#305DAA" d="M-3.67,8.755c0,1.127,0.905,2.043,2.021,2.043s2.021-0.916,2.021-2.043c0-1.129-0.905-2.043-2.021-2.043
			S-3.67,7.626-3.67,8.755z"/>
		<path fill="#305DAA" d="M-10.762-1.615c0,1.129,0.904,2.044,2.021,2.044c1.117,0,2.022-0.915,2.022-2.044
			c0-1.128-0.905-2.042-2.022-2.042C-9.857-3.657-10.762-2.743-10.762-1.615z"/>
		<path fill="#305DAA" d="M-0.147-8.619c0,1.128,0.906,2.042,2.022,2.042s2.02-0.914,2.02-2.042s-0.903-2.044-2.02-2.044
			S-0.147-9.747-0.147-8.619z"/>
		<path fill="#305DAA" d="M6.617,2.148c0,1.127,0.905,2.042,2.021,2.042c1.117,0,2.022-0.915,2.022-2.042
			c0-1.13-0.905-2.044-2.022-2.044C7.522,0.104,6.617,1.019,6.617,2.148z"/>
		<path fill="#FFFFFF" d="M0.009,11.788c-0.628,0-1.245-0.05-1.848-0.146v0.001l-0.025-0.005c-0.196-0.031-0.393-0.067-0.587-0.109
			l-0.015-0.003l0,0c-5.361-1.146-9.385-5.934-9.385-11.671c0-6.59,5.311-11.931,11.859-11.931c6.55,0,11.862,5.341,11.862,11.931
			C11.871,6.446,6.559,11.788,0.009,11.788z M2.769-11.149l-0.661,1.146L1.976-11.32c-0.656-0.116-1.33-0.176-2.021-0.176
			c-5.45,0-10.016,3.791-11.21,8.884l1.141,0.637L-11.4-1.891c-0.104,0.627-0.16,1.271-0.16,1.928
			c0,5.566,3.938,10.212,9.179,11.294l0.512-1.207l0.026,1.307c0.587,0.091,1.188,0.139,1.799,0.139
			c5.445,0,10.008-3.784,11.209-8.87L10.11,2.121h1.174c0.124-0.676,0.188-1.372,0.188-2.084C11.473-5.361,7.769-9.893,2.769-11.149
			z"/>
		<g>
			<path fill="#FFFFFF" d="M-2.42,7.262l-0.555,2.369l0.337,0.079l1.037-1.021c0.236-0.235,0.436-0.453,0.602-0.67l0.01,0.006
				C-1.092,8.333-1.166,8.62-1.252,8.989L-1.485,9.98l0.289,0.067l0.556-2.368l-0.311-0.073l-1.033,1.026
				C-2.212,8.857-2.433,9.091-2.609,9.32l-0.009-0.006c0.087-0.294,0.157-0.578,0.25-0.973l0.236-1.012L-2.42,7.262z"/>
		</g>
		<g>
			<path fill="#FFFFFF" d="M-7.075-2.147l-2.027-1.171l-0.083,0.3l1.032,0.57c0.254,0.142,0.508,0.276,0.707,0.376v0.005
				c-0.229-0.025-0.508-0.031-0.809-0.035l-1.185-0.021l-0.084,0.295l1.034,0.579c0.242,0.134,0.484,0.266,0.705,0.363L-7.786-0.88
				C-8.038-0.9-8.3-0.909-8.589-0.917L-9.773-0.94l-0.081,0.287l2.357-0.002l0.084-0.293l-1.059-0.598
				c-0.26-0.146-0.461-0.252-0.674-0.344l0.002-0.006c0.229,0.025,0.455,0.034,0.76,0.033l1.227,0.01L-7.075-2.147z"/>
		</g>
		<g>
			<path fill="#FFFFFF" d="M2.546-7.568c-0.155,0.062-0.367,0.09-0.579,0.047C1.65-7.584,1.5-7.787,1.548-8.027
				c0.044-0.219,0.197-0.325,0.544-0.381C2.509-8.472,2.79-8.63,2.857-8.963c0.073-0.372-0.18-0.71-0.644-0.802
				c-0.24-0.048-0.433-0.027-0.548,0.013l0.035,0.269C1.784-9.515,1.958-9.55,2.173-9.508c0.326,0.065,0.412,0.284,0.38,0.448
				C2.508-8.837,2.341-8.757,1.986-8.694C1.552-8.619,1.312-8.465,1.241-8.113C1.169-7.746,1.373-7.369,1.936-7.258
				c0.229,0.046,0.495,0.024,0.641-0.034L2.546-7.568z"/>
		</g>
		<g>
			<path fill="#FFFFFF" d="M8.653,1.648L8.538,2.583L7.667,2.477l0.131-1.046L7.534,1.398L7.368,2.76l2.416,0.296l0.159-1.307
				L9.682,1.716L9.561,2.708L8.798,2.614L8.911,1.68L8.653,1.648z"/>
		</g>
		<path fill="#FFFFFF" d="M3.716-0.046l3.869,1.993L3.326,2.112C2.783,3.158,1.764,3.914,0.555,4.088l-1.866,3.905l-0.16-4.174
			c-0.461-0.2-0.873-0.491-1.214-0.85l-2.155,0.797l1.558-1.626c-0.242-0.46-0.394-0.976-0.425-1.523l-3.719-1.704l4.097-0.161
			c0.577-1.168,1.746-1.989,3.116-2.073l1.747-3.403l0.17,3.802c0.476,0.241,0.893,0.582,1.224,0.995l1.849-0.638l-1.36,1.44
			C3.567-0.789,3.67-0.427,3.716-0.046z M0.014-2.892c-1.817,0-3.292,1.473-3.292,3.291s1.475,3.292,3.292,3.292
			c1.819,0,3.292-1.474,3.292-3.292S1.833-2.892,0.014-2.892z"/>
		<polygon fill="#FFFFFF" points="-7.149,-7.613 1.131,-0.659 -0.964,1.308 		"/>
		<polygon fill="#D2D2D2" points="-7.149,-7.613 1.131,-0.659 0.049,0.357 		"/>
		<polygon fill="#D34527" points="1.131,-0.659 -0.964,1.308 7.308,8.295 		"/>
		<polygon fill="#F16722" points="-0.897,1.246 0.049,0.357 6.741,7.751 		"/>
		<linearGradient id="SVGID_2_" gradientUnits="userSpaceOnUse" x1="0.0811" y1="-0.5742" x2="0.0381" y2="1.3403">
			<stop  offset="0" style="stop-color:#FFFFFF"/>
			<stop  offset="0.158" style="stop-color:#EEEFEF"/>
			<stop  offset="0.4693" style="stop-color:#C3C4C4"/>
			<stop  offset="0.9005" style="stop-color:#7E7F81"/>
			<stop  offset="1" style="stop-color:#6D6E70"/>
		</linearGradient>
		<path fill="url(#SVGID_2_)" d="M1.018,0.357c0-0.529-0.429-0.958-0.957-0.958c-0.529,0-0.958,0.429-0.958,0.958
			c0,0.528,0.429,0.957,0.958,0.957C0.589,1.314,1.018,0.886,1.018,0.357z"/>
		<path fill="#6D6E70" d="M0.813,0.357c0-0.417-0.338-0.754-0.753-0.754c-0.417,0-0.754,0.337-0.754,0.754
			c0,0.416,0.337,0.753,0.754,0.753C0.476,1.11,0.813,0.773,0.813,0.357z"/>
		
			<radialGradient id="SVGID_3_" cx="-1093.7256" cy="1608.4238" r="0.827" gradientTransform="matrix(0.5779 -0.578 0.1445 0.1445 399.7183 -864.2598)" gradientUnits="userSpaceOnUse">
			<stop  offset="0.0121" style="stop-color:#929497"/>
			<stop  offset="1" style="stop-color:#FFFFFF"/>
		</radialGradient>
		<path fill="url(#SVGID_3_)" d="M0.736,0.357c0-0.374-0.304-0.677-0.676-0.677c-0.374,0-0.677,0.303-0.677,0.677
			c0,0.373,0.303,0.675,0.677,0.675C0.433,1.032,0.736,0.73,0.736,0.357z"/>
	</g>
</symbol>
<use xlink:href="#safari"  width="32" height="32" x="-16" y="-16" transform="matrix(1 0 0 -1 16 16)" overflow="visible"/>
</svg>
