<?xml version="1.0" encoding="utf-8"?>
<!-- Generator: Adobe Illustrator 14.0.0, SVG Export Plug-In . SVG Version: 6.00 Build 43363)  -->
<!DOCTYPE svg PUBLIC "-//W3C//DTD SVG 1.1//EN" "http://www.w3.org/Graphics/SVG/1.1/DTD/svg11.dtd">
<svg version="1.1" id="Layer_1" xmlns="http://www.w3.org/2000/svg" xmlns:xlink="http://www.w3.org/1999/xlink" x="0px" y="0px"
     width="32px" height="32px" viewBox="0 0 32 32" enable-background="new 0 0 32 32" xml:space="preserve">
<symbol  id="W3C" viewBox="-16 -8.564 32 17.129">
	<g>
		<path fill="#FFFFFF" d="M2.146-8.542c-1.004,0-1.895,0.329-2.648,0.979c-0.733,0.632-1.282,1.5-1.633,2.583L-2.236-4.67
			l2.269,0.945l0.13-0.336c0.22-0.563,0.508-1.009,0.857-1.323c0.327-0.297,0.703-0.44,1.148-0.44c0.431,0,0.796,0.253,1.114,0.774
			c0.35,0.572,0.527,1.274,0.527,2.089c0,0.982-0.22,1.928-0.546,2.354c-0.38,0.504-1.031,1.103-1.97,1.103h-1.729v0.83l3.063,4.629
			h-2.633l-4.1-13.647H-4.83L-7.554,1.51l-2.725-9.203h-0.724L-16,8.48h2.834l2.625-9.021l1.584,5.424l-1.06,3.598h2.828
			l2.624-9.006L-1.94,8.48h7.669V7.027L3.312,2.182c1.054-0.416,1.88-1.062,2.352-1.848C6.291-0.708,6.61-1.817,6.61-2.963
			c0-1.609-0.391-2.897-1.193-3.937C4.574-7.99,3.474-8.542,2.146-8.542L2.146-8.542z M-1.356-5.069
			c0.311-0.822,0.743-1.465,1.315-1.96c0.63-0.543,1.345-0.808,2.187-0.808c1.113,0,2.002,0.449,2.715,1.37
			c0.702,0.91,1.044,2.056,1.044,3.504c0,1.016-0.284,2.003-0.845,2.934C4.62,0.703,3.785,1.299,2.71,1.648L2.319,1.774l2.704,5.417
			v0.583h-6.435l-3.154-10.82l-3.153,10.82h-1.355l0.852-2.892l-2.32-7.944l-3.153,10.836h-1.348l4.396-14.229l3.093,10.45
			l3.089-10.437L-0.541,6.62l0.43,0.037L3.941,6.66L0.328,1.201h0.965c0.959,0,1.859-0.491,2.532-1.382
			c0.51-0.663,0.689-1.872,0.689-2.781c0-0.945-0.21-1.771-0.629-2.457c-0.452-0.738-1.03-1.112-1.717-1.112
			c-0.62,0-1.167,0.21-1.622,0.623C0.19-5.586-0.111-5.163-0.351-4.65L-1.356-5.069L-1.356-5.069z"/>
		<path fill="#2B76AD" d="M-7.454,8.127l2.888-9.912l2.89,9.912h2.091h4.961V7.109L2.818,1.984c1.035-0.337,2.014-0.948,2.544-1.832
			c0.532-0.885,0.895-1.926,0.895-3.115c0-1.477-0.341-2.714-1.119-3.72C4.362-7.688,3.381-8.189,2.146-8.189
			c-0.931,0-1.727,0.299-2.417,0.895c-0.691,0.597-1.196,1.402-1.527,2.424l1.634,0.683C0.077-4.805,0.393-5.29,0.785-5.646
			C1.176-6,1.639-6.177,2.17-6.177c0.559,0,1.03,0.313,1.416,0.942C3.97-4.604,4.162-3.847,4.162-2.962
			c0,0.977-0.207,2.033-0.618,2.568c-0.477,0.631-1.228,1.241-2.25,1.241h-1.376V1.22l3.368,5.088H-0.08l-0.191-0.017L-4.367-7.341
			h-0.199L-7.554,2.753l-2.988-10.094h-0.201l-4.779,15.468h2.09l2.889-9.928l1.952,6.685l-0.956,3.243H-7.454z"/>
	</g>
	<g>
		<path fill="#FFFFFF" d="M11.76-8.564c-3.264,0-4.902,3.097-4.902,5.048c0,0.724,0.11,1.483,0.11,1.483s1.097-4.363,4.74-4.363
			c2.04,0,4.292,4.148,4.292,4.148v-3.443l-0.051-0.076C15.878-5.882,14.15-8.564,11.76-8.564L11.76-8.564z M8.176-5.57
			c0.687-1.241,1.891-2.354,3.584-2.354c1.836,0,3.313,2.01,3.602,2.428v1.074c-0.724-1.076-2.037-2.613-3.653-2.613
			C10.31-7.037,9.085-6.513,8.176-5.57L8.176-5.57z"/>
		<path fill="#2B76AD" d="M15.681-3.255v-2.342c0,0-1.68-2.647-3.921-2.647c-3.005,0-4.581,3.208-4.581,4.989
			c0.676-2.064,2.265-3.463,4.529-3.463C13.975-6.718,15.681-3.255,15.681-3.255z"/>
	</g>
	<g>
		<path fill="#FFFFFF" d="M8.072-0.426c-1.02,2.278-1.059,7.149,2.502,8.747c0.359,0.161,0.718,0.243,1.067,0.243
			c1.493,0,2.418-1.455,2.825-2.287l1.418,2.152V5.26l-1.212-1.996L14.409,3.76c-0.013,0.022-1.191,2.198-2.595,2.198
			c-0.173,0-0.349-0.035-0.52-0.104c-1.5-0.611-2.967-3.412-2.61-6.107l0.235-1.779L8.072-0.426L8.072-0.426z M11.642,7.925
			c-0.259,0-0.529-0.063-0.806-0.188C8.625,6.746,8.002,4.213,8.144,2.102c0.421,2.076,1.641,3.828,2.91,4.345
			c0.247,0.101,0.503,0.151,0.761,0.151c0.996,0,1.845-0.755,2.411-1.441L14.105,5.5C14.097,5.522,13.236,7.925,11.642,7.925
			L11.642,7.925z M14.372,4.97c0.125-0.159,0.229-0.312,0.318-0.442l0.557,0.913v0.856L14.372,4.97L14.372,4.97z"/>
		<path fill="#2B76AD" d="M14.69,3.91l0.875,1.439v2.015l-1.156-1.762c0,0-1.233,3.534-3.704,2.428
			C7.392,6.544,7.396,1.868,8.367-0.296c-0.375,2.842,1.179,5.781,2.809,6.445C13.083,6.928,14.69,3.91,14.69,3.91z"/>
	</g>
</symbol>
<symbol  id="_x5F_button_x5F_shape" viewBox="-16 -16 32 32">
	<g id="button_x5F_shape_1_">
		<g>
			<g opacity="0">
				<path fill="#FFFFFF" d="M16-12c0-2.209-1.792-4-4-4h-24c-2.208,0-4,1.791-4,4v24c0,2.209,1.792,4,4,4h24c2.208,0,4-1.791,4-4
					V-12z"/>
			</g>
		</g>
	</g>
</symbol>
<use xlink:href="#W3C"  width="32" height="17.129" x="-16" y="-8.564" transform="matrix(1 0 0 -1 16 16)" overflow="visible"/>
</svg>
