<?xml version="1.0" encoding="utf-8"?>
<!-- Generator: Adobe Illustrator 14.0.0, SVG Export Plug-In . SVG Version: 6.00 Build 43363)  -->
<!DOCTYPE svg PUBLIC "-//W3C//DTD SVG 1.1//EN" "http://www.w3.org/Graphics/SVG/1.1/DTD/svg11.dtd">
<svg version="1.1" id="Layer_1" xmlns="http://www.w3.org/2000/svg" xmlns:xlink="http://www.w3.org/1999/xlink" x="0px" y="0px"
     width="32px" height="32px" viewBox="0 0 32 32" enable-background="new 0 0 32 32" xml:space="preserve">
<symbol  id="_x5F_button_x5F_shape" viewBox="-16 -16 32 32">
	<g id="button_x5F_shape_1_">
		<g>
			<g opacity="0">
				<path fill="#FFFFFF" d="M16-12c0-2.209-1.792-4-4-4h-24c-2.208,0-4,1.791-4,4v24c0,2.209,1.792,4,4,4h24c2.208,0,4-1.791,4-4
					V-12z"/>
			</g>
		</g>
	</g>
</symbol>
<symbol  id="wordpress" viewBox="-16 -16 32 32">
	<g>
		<path fill="#16638A" d="M16,0c0-8.834-7.166-16-16-16c-8.836,0-16,7.166-16,16c0,8.838,7.164,16,16,16C8.834,16,16,8.838,16,0z"/>
		<path fill="#FFFFFF" d="M-14.767,0c0-5.842,3.396-10.895,8.322-13.288L-13.488,6.01C-14.308,4.176-14.767,2.142-14.767,0z
			 M9.969,0.745c0,1.828-0.658,3.091-1.219,4.073C8.002,6.035,7.301,7.063,7.301,8.282c0,1.356,1.026,2.622,2.48,2.622
			c0.063,0,0.127-0.011,0.189-0.014C7.345,13.297,3.845,14.767,0,14.767c-5.159,0-9.697-2.644-12.336-6.652
			c0.346-0.013,0.67-0.021,0.948-0.021c1.547,0,3.936,0.189,3.936,0.189c0.793,0.046,0.89-1.124,0.094-1.219
			c0,0-0.8-0.094-1.689-0.139L-3.67-9.07l3.23,9.69l-2.299,6.306c-0.797,0.045-1.549,0.139-1.549,0.139
			c-0.795,0.05-0.702,1.265,0.094,1.219c0,0,2.438-0.189,3.89-0.189c1.543,0,3.936,0.189,3.936,0.189
			c0.794,0.045,0.888-1.125,0.092-1.22c0,0-0.798-0.094-1.69-0.139L7.371-8.948l1.474,4.922C9.592-2.108,9.969-0.517,9.969,0.745z
			 M0.26-1.291l-4.433-12.874C-2.85-14.556-1.45-14.767,0-14.767c1.719,0,3.369,0.296,4.902,0.84
			c-0.038,0.062-0.075,0.129-0.104,0.201L0.26-1.291z M12.957,7.086c0.064-0.471,0.101-0.976,0.101-1.52
			c0-1.498-0.281-3.183-1.122-5.29l-4.51-13.038C11.813-10.203,14.765-5.446,14.765,0C14.765,2.568,14.109,4.98,12.957,7.086z"/>
	</g>
</symbol>
<use xlink:href="#wordpress"  width="32" height="32" x="-16" y="-16" transform="matrix(1 0 0 -1 16 16)" overflow="visible"/>
</svg>
