<svg xmlns="http://www.w3.org/2000/svg" width="32" height="32" viewBox="0 0 32 32"><path fill="#777" d="M16 1.143c8.192 0 14.857 6.665 14.857 14.857S24.192 30.857 16 30.857 1.143 24.192 1.143 16 7.808 1.143 16 1.143M16 0C7.162 0 0 7.164 0 16c0 8.835 7.162 16 16 16 8.835 0 16-7.165 16-16 0-8.836-7.165-16-16-16z"/><path fill="#fff" d="M16.082 14.58l14.775-4.646V4.57H1.143v5.35l14.94 4.66zm0 2.38l-14.94-4.658V27.43H30.86V12.315L16.082 16.96z"/><path fill="#777" d="M31.43 28H.57V11.525l15.51 4.836 15.35-4.822V28zM1.713 26.857h28.572V13.095l-14.203 4.463-.17-.052-14.2-4.427v13.777zm14.37-11.678L.57 10.34V4H31.43v6.354L16.083 15.18zM1.713 9.5l14.367 4.48 14.206-4.465V5.143H1.714V9.5z"/></svg>