<svg xmlns="http://www.w3.org/2000/svg" width="32" height="32" viewBox="0 0 32 32"><path fill="#2AA9E0" d="M30 7.316c-1.03.457-2.137.766-3.3.905 1.187-.71 2.098-1.83 2.526-3.17-1.11.657-2.34 1.135-3.648 1.393-1.05-1.117-2.54-1.814-4.193-1.814-3.172 0-5.744 2.57-5.744 5.743 0 .45.058.89.15 1.31-4.77-.24-9.002-2.53-11.84-6.005-.49.848-.78 1.835-.78 2.888 0 1.993 1.02 3.75 2.56 4.78-.94-.03-1.83-.287-2.6-.717v.07c0 2.783 1.98 5.105 4.61 5.633-.483.13-.99.2-1.515.2-.37 0-.73-.034-1.08-.102.73 2.283 2.85 3.943 5.365 3.99-1.967 1.54-4.444 2.46-7.136 2.46-.465 0-.923-.027-1.37-.08 2.54 1.63 5.56 2.58 8.804 2.58 10.566 0 16.344-8.754 16.344-16.345 0-.25-.006-.497-.02-.743 1.127-.812 2.1-1.825 2.87-2.977H30z"/></svg>