<svg xmlns="http://www.w3.org/2000/svg" width="32" height="32" viewBox="0 0 32 32"><path fill="#00ADEF" d="M12.834 14.876V2.736L0 4.526v10.35h12.834zM0 17.126V27.64l12.834 1.727v-12.24H0zm32-2.25V.056L15.084 2.42v12.456H32zm-1-13.67v12.67H16.084V3.29L31 1.207m1-1.15L15.084 2.42v12.456H32V.056zm-16.916 17.07V29.67L32 31.946v-14.82H15.084zm15.916 1v12.68l-14.916-2.01v-10.67H31m1-1H15.084V29.67L32 31.946v-14.82zm-19.166-2.25V2.735L0 4.525v10.35h12.834zM0 17.125V27.64l12.834 1.727v-12.24L0 17.125zm32-2.25V.055L15.084 2.42v12.456H32zm-16.916 2.25V29.67L32 31.946v-14.82H15.084z"/></svg>