<svg xmlns="http://www.w3.org/2000/svg" width="32" height="32" viewBox="0 0 32 32"><g fill="#98CB02"><path d="M20.38 2.7L21.755.483c.094-.15.047-.347-.104-.438-.147-.093-.344-.047-.438.104l-1.42 2.28c-1.146-.48-2.435-.753-3.796-.753-1.362 0-2.65.272-3.798.755L10.78.152c-.092-.15-.288-.195-.437-.104-.15.093-.195.288-.103.438L11.618 2.7c-2.51 1.267-4.212 3.586-4.292 6.256H24.67c-.08-2.67-1.78-4.99-4.29-6.257zm-8.07 3.846c-.56 0-1.01-.453-1.01-1.012 0-.56.452-1.013 1.012-1.013s1.012.454 1.012 1.014-.453 1.012-1.013 1.012zm7.376 0c-.56 0-1.014-.453-1.014-1.012 0-.56.453-1.013 1.014-1.013s1.014.454 1.014 1.014-.454 1.012-1.014 1.012zM4.212 10.348v.006c-.957 0-1.735.774-1.735 1.733v7.95c0 .96.778 1.732 1.735 1.732.96 0 1.735-.777 1.735-1.736v-7.95c0-.96-.776-1.736-1.735-1.736zM27.786 10.348v.006c-.96 0-1.735.774-1.735 1.733v7.95c0 .96.777 1.732 1.736 1.732.957 0 1.735-.777 1.735-1.736v-7.95c0-.96-.777-1.736-1.734-1.736zM7.32 23.95h.003v-.002c0 .928.73 1.688 1.646 1.73h1.72v4.56c0 .96.777 1.734 1.735 1.734s1.736-.775 1.736-1.734V25.68h3.67v4.58c0 .96.78 1.737 1.736 1.737s1.733-.776 1.733-1.735v-4.58h1.64c.958 0 1.734-.773 1.734-1.73V10.353H7.32V23.95z"/></g></svg>