<svg xmlns="http://www.w3.org/2000/svg" xmlns:xlink="http://www.w3.org/1999/xlink" width="32" height="32" viewBox="0 0 32 32"><symbol viewBox="-16.001 -16 32 32"><g><g><use xlink:href="#_x5F_button_x5F_shape" width="32" height="32" x="-16" y="-16" transform="translate(-.001)" overflow="visible"/><path fill="#999" d="M16-12c0-2.21-1.792-4-4-4h-24c-2.21 0-4 1.79-4 4v24c0 2.21 1.79 4 4 4h24c2.208 0 4-1.79 4-4v-24z"/></g></g><g><use xlink:href="#_x5F_button_x5F_shape" width="32" height="32" x="-16" y="-16" transform="matrix(.938 0 0 .938 -.001 0)" overflow="visible"/><path fill="#F2F2F2" d="M15-11.25c0-2.07-1.68-3.75-3.75-3.75h-22.5c-2.072 0-3.75 1.68-3.75 3.75v22.5c0 2.07 1.678 3.75 3.75 3.75h22.5c2.07 0 3.75-1.68 3.75-3.75v-22.5z"/></g></symbol><symbol viewBox="-13.5 -8.583 27 17.166"><path fill="#fff" d="M-.997 6.36c.495-.687.74-1.51.74-2.467 0-.988-.25-1.78-.748-2.38-.278-.338-.688-.644-1.23-.92C-1.414.29-.79-.184-.372-.838c.42-.65.628-1.44.628-2.367 0-.96-.236-1.82-.72-2.58-.304-.502-.685-.928-1.143-1.27-.515-.396-1.125-.665-1.826-.812-.703-.144-1.465-.216-2.284-.216H-13V8.083h7.813c1.97-.032 3.367-.603 4.19-1.722zM-9.27 5.276V1.71h3.425c.7 0 1.27.134 1.71.4.437.268.655.74.655 1.42 0 .754-.29 1.252-.87 1.492-.497.168-1.134.253-1.908.253H-9.27zm0-6.242v-4.308h3.42c.7 0 1.246.092 1.637.284.708.35 1.063 1.02 1.063 2.017 0 .84-.345 1.42-1.03 1.732-.383.176-.924.266-1.617.272H-9.27z"/><path fill="#2A51E0" d="M-5.714-8.582H-13.5V8.583h8.313C-3.05 8.55-1.51 7.9-.595 6.657c.557-.772.838-1.7.838-2.764 0-1.103-.29-2.01-.863-2.7C-.78 1-.972.82-1.198.647-.68.33-.262-.077.052-.567.52-1.29.757-2.18.757-3.203.758-4.26.49-5.218-.04-6.05-.37-6.6-.8-7.077-1.305-7.454c-.564-.435-1.247-.74-2.023-.9-.73-.152-1.532-.23-2.384-.23zm-6.786 1h6.786c.783 0 1.517.07 2.182.208.627.13 1.173.372 1.623.718.408.305.75.684 1.022 1.133.437.688.646 1.444.646 2.32 0 .827-.185 1.533-.55 2.097-.357.56-.886.962-1.616 1.23l-1.077.394 1.02.52c.48.245.842.513 1.074.794.426.514.633 1.188.633 2.063 0 .86-.21 1.57-.646 2.175-.727.988-1.968 1.484-3.79 1.513H-12.5V-7.583zm6.65 1.808h-3.92v5.308h3.973c.782-.008 1.38-.113 1.828-.32.863-.392 1.32-1.148 1.32-2.186 0-1.486-.73-2.162-1.34-2.466-.462-.227-1.07-.336-1.86-.336zm-2.92 1h2.92c.625 0 1.102.078 1.416.232.336.167.784.512.784 1.57 0 .642-.234 1.047-.736 1.276-.316.146-.792.223-1.416.23H-8.77v-3.308zm2.925 5.984H-9.77v4.565h3.512c.823 0 1.52-.094 2.07-.28.567-.233 1.208-.753 1.208-1.964 0-1.074-.487-1.597-.896-1.847-.515-.313-1.177-.473-1.97-.473zm-2.925 1h2.925c.605 0 1.093.11 1.448.328.104.063.417.254.417.993 0 .707-.3.923-.56 1.03-.415.14-1.004.215-1.72.215h-2.51V2.21z"/><path fill="#fff" d="M9.973 3.768c.808-.362 1.475-.934 2.002-1.715.475-.69.78-1.486.923-2.395.08-.53.114-1.297.1-2.3H4.56c.046-1.164.45-1.977 1.21-2.444.46-.29 1.02-.435 1.67-.435.69 0 1.25.175 1.683.53.235.19.443.457.623.795h3.092c-.08-.688-.453-1.384-1.122-2.094-1.037-1.123-2.49-1.69-4.358-1.69-1.544 0-2.902.478-4.082 1.427-1.178.952-1.768 2.497-1.768 4.64 0 2.008.532 3.545 1.596 4.616C4.17 3.773 5.55 4.31 7.248 4.31c1.008 0 1.916-.18 2.725-.542zM5.44 1.148C5.01.71 4.744.112 4.635-.643h5.22c-.057.805-.327 1.415-.81 1.83-.48.418-1.08.626-1.796.626-.778 0-1.38-.223-1.807-.663z"/><path fill="#2A51E0" d="M7.357-8.48c-1.65 0-3.13.52-4.396 1.538-1.295 1.048-1.952 2.74-1.952 5.03 0 2.133.586 3.805 1.74 4.968C3.91 4.22 5.422 4.81 7.25 4.81c1.076 0 2.062-.197 2.93-.586.89-.4 1.634-1.035 2.212-1.893.51-.74.848-1.614 1.002-2.595.085-.563.12-1.364.105-2.385l-.007-.493H5.11c.117-.71.42-1.21.922-1.517.38-.24.852-.36 1.41-.36.577 0 1.022.136 1.362.416.185.15.352.364.5.645l.142.266H13.4l-.065-.558c-.093-.794-.516-1.594-1.256-2.38-1.13-1.222-2.72-1.847-4.723-1.847zm-.11 12.29c-1.572 0-2.812-.48-3.79-1.46-.96-.968-1.45-2.403-1.45-4.263 0-1.972.533-3.402 1.583-4.25 1.1-.885 2.33-1.315 3.768-1.315 1.712 0 3.055.515 3.99 1.53.405.43.69.848.85 1.254h-2.164c-.18-.28-.378-.507-.597-.684-.514-.425-1.187-.643-1.996-.643-.75 0-1.4.172-1.937.513-.9.552-1.39 1.51-1.442 2.846l-.02.517h8.46c0 .73-.034 1.31-.097 1.726-.132.84-.407 1.556-.84 2.186-.48.712-1.067 1.215-1.795 1.54-.738.33-1.585.5-2.52.5zm3.142-4.954H4.056l.082.572c.124.86.442 1.558.944 2.07.522.54 1.25.813 2.164.813.837 0 1.552-.25 2.124-.747.584-.503.914-1.233.98-2.173l.037-.534zm-5.134 1h4.018c-.1.404-.285.717-.556.95-.392.34-.872.506-1.47.506-.64 0-1.114-.166-1.447-.51-.245-.25-.425-.563-.544-.946z"/><path fill="#fff" d="M10.48 5.795H3.966v1.618h6.514z"/><path fill="#2A51E0" d="M10.98 5.295H3.466v2.618h7.515V5.295zm-6.514 1H9.98v.618H4.466v-.618z"/><g fill="#fff"><path d="M-.997 6.36c.495-.687.74-1.51.74-2.467 0-.988-.25-1.78-.748-2.38-.278-.338-.688-.644-1.23-.92C-1.414.29-.79-.184-.372-.838c.42-.65.628-1.44.628-2.367 0-.96-.236-1.82-.72-2.58-.304-.502-.685-.928-1.143-1.27-.515-.396-1.125-.665-1.826-.812-.703-.144-1.465-.216-2.284-.216H-13V8.083h7.813c1.97-.032 3.367-.603 4.19-1.722zM-9.27 5.276V1.71h3.425c.7 0 1.27.134 1.71.4.437.268.655.74.655 1.42 0 .754-.29 1.252-.87 1.492-.497.168-1.134.253-1.908.253H-9.27zm0-6.242v-4.308h3.42c.7 0 1.246.092 1.637.284.708.35 1.063 1.02 1.063 2.017 0 .84-.345 1.42-1.03 1.732-.383.176-.924.266-1.617.272H-9.27zM9.973 3.768c.808-.362 1.475-.934 2.002-1.715.475-.69.78-1.486.923-2.395.08-.53.114-1.297.1-2.3H4.56c.046-1.164.45-1.977 1.21-2.444.46-.29 1.02-.435 1.67-.435.69 0 1.25.175 1.683.53.235.19.443.457.623.795h3.092c-.08-.688-.453-1.384-1.122-2.094-1.037-1.123-2.49-1.69-4.358-1.69-1.544 0-2.902.478-4.082 1.427-1.178.952-1.768 2.497-1.768 4.64 0 2.008.532 3.545 1.596 4.616C4.17 3.773 5.55 4.31 7.248 4.31c1.008 0 1.916-.18 2.725-.542zM5.44 1.148C5.01.71 4.744.112 4.635-.643h5.22c-.057.805-.327 1.415-.81 1.83-.48.418-1.08.626-1.796.626-.778 0-1.38-.223-1.807-.663zM10.48 5.795H3.966v1.618h6.514z"/></g></symbol><g><path fill="#fff" d="M14.966 9.404c.514.712.768 1.566.768 2.56 0 1.024-.258 1.845-.776 2.467-.29.35-.714.668-1.277.956.855.313 1.503.804 1.936 1.48.437.676.652 1.495.652 2.457 0 .995-.245 1.887-.746 2.675-.316.52-.71.963-1.186 1.317-.534.41-1.167.69-1.894.84-.728.152-1.518.23-2.368.23H2.52V7.617h8.102c2.042.033 3.49.625 4.344 1.786zm-8.58 1.126v3.697H9.94c.726 0 1.317-.14 1.77-.416s.682-.767.682-1.472c0-.78-.3-1.297-.9-1.546-.518-.174-1.18-.262-1.98-.262H6.386zm0 6.473v4.468h3.547c.727 0 1.292-.095 1.697-.294.734-.365 1.103-1.06 1.103-2.093 0-.87-.357-1.474-1.067-1.796-.398-.184-.96-.277-1.678-.284h-3.6z"/><path fill="#2A51E0" d="M10.075 24.9H2V7.1h8.622c2.215.036 3.814.708 4.762 1.997.577.8.87 1.764.87 2.866 0 1.143-.303 2.085-.896 2.8-.166.2-.365.39-.6.567.537.33.97.75 1.295 1.258.486.752.733 1.673.733 2.734 0 1.096-.277 2.09-.826 2.953-.345.57-.79 1.063-1.313 1.454-.585.45-1.293.766-2.1.933-.758.158-1.59.237-2.472.237zm-7.038-1.036h7.038c.812 0 1.573-.073 2.262-.217.65-.135 1.216-.385 1.683-.744.422-.315.776-.71 1.06-1.175.452-.714.67-1.498.67-2.406 0-.858-.192-1.59-.57-2.174-.372-.582-.92-1-1.677-1.275l-1.117-.41 1.06-.54c.496-.253.87-.53 1.112-.823.442-.532.657-1.23.657-2.138 0-.893-.22-1.63-.67-2.255-.754-1.025-2.04-1.54-3.932-1.57H3.037v15.727zm6.897-1.875H5.87v-5.506h4.12c.81.01 1.43.118 1.895.333.894.406 1.368 1.19 1.368 2.267 0 1.542-.756 2.242-1.39 2.558-.48.233-1.11.347-1.93.347zM6.906 20.95h3.028c.648 0 1.143-.08 1.47-.24.347-.175.812-.532.812-1.63 0-.666-.243-1.086-.764-1.323-.328-.152-.82-.232-1.468-.238H6.906v3.43zm3.033-6.206H5.87v-4.734h3.64c.854 0 1.576.097 2.146.29.59.243 1.254.782 1.254 2.038 0 1.115-.505 1.657-.93 1.916-.533.324-1.22.49-2.04.49zm-3.034-1.038H9.94c.627 0 1.132-.114 1.5-.34.108-.064.433-.263.433-1.03 0-.732-.31-.956-.58-1.067-.43-.143-1.04-.222-1.783-.222H6.906v2.66z"/><path fill="#fff" d="M26.342 12.094c.838.375 1.53.967 2.076 1.778.492.715.81 1.542.957 2.483.083.55.118 1.345.104 2.385h-8.75c.048 1.207.466 2.05 1.256 2.534.476.302 1.055.45 1.73.45.715 0 1.298-.18 1.745-.55.245-.197.46-.475.647-.824h3.206c-.083.712-.47 1.436-1.164 2.17-1.076 1.167-2.584 1.754-4.52 1.754-1.603 0-3.01-.494-4.234-1.48-1.22-.986-1.833-2.59-1.833-4.81 0-2.083.552-3.678 1.655-4.788 1.105-1.11 2.535-1.665 4.298-1.665 1.046.002 1.988.19 2.826.564zm-4.7 2.715c-.445.455-.723 1.075-.836 1.858h5.412c-.058-.834-.338-1.466-.84-1.897-.497-.432-1.118-.648-1.86-.648-.81 0-1.433.232-1.875.687z"/><path fill="#2A51E0" d="M23.63 24.793c-1.712 0-3.245-.537-4.56-1.594-1.344-1.087-2.025-2.842-2.025-5.215 0-2.214.607-3.947 1.806-5.154 1.202-1.205 2.772-1.817 4.667-1.817 1.116 0 2.138.204 3.037.607.924.414 1.695 1.074 2.295 1.962.527.768.878 1.676 1.038 2.692.088.583.124 1.415.11 2.473l-.008.51H21.3c.12.74.437 1.257.956 1.574.394.25.883.375 1.46.375.6 0 1.063-.14 1.415-.432.192-.155.365-.378.52-.668l.146-.274h4.1l-.066.58c-.097.822-.535 1.652-1.303 2.466-1.172 1.27-2.82 1.917-4.897 1.917zm-.113-12.742c-1.632 0-2.918.496-3.93 1.513-.998 1.004-1.505 2.493-1.505 4.422 0 2.044.552 3.527 1.64 4.407 1.14.917 2.42 1.363 3.908 1.363 1.775 0 3.168-.534 4.14-1.586.42-.446.712-.882.88-1.302h-2.244c-.185.288-.392.525-.62.708-.532.44-1.23.666-2.068.666-.778 0-1.454-.18-2.01-.53-.935-.574-1.44-1.567-1.496-2.952l-.02-.54h8.772c0-.756-.035-1.356-.1-1.788-.138-.872-.423-1.614-.872-2.267-.5-.74-1.106-1.26-1.86-1.6-.768-.34-1.647-.514-2.615-.514zm3.256 5.137h-6.566l.085-.593c.13-.893.46-1.615.98-2.147.542-.56 1.297-.843 2.244-.843.868 0 1.61.26 2.202.776.606.52.948 1.28 1.017 2.252l.038.555zM21.45 16.15h4.167c-.104-.42-.295-.744-.576-.986-.405-.354-.903-.525-1.523-.525-.664 0-1.155.172-1.5.53-.256.26-.443.582-.567.98z"/><path fill="#fff" d="M20.112 8.313h6.757V9.99H20.11z"/><path fill="#2A51E0" d="M27.387 10.51h-7.793V7.794h7.793v2.714zM20.63 9.472h5.72v-.64h-5.72v.64z"/><g fill="#fff"><path d="M14.966 9.404c.514.712.768 1.566.768 2.56 0 1.024-.258 1.845-.776 2.467-.29.35-.714.668-1.277.956.855.313 1.503.804 1.936 1.48.437.676.652 1.495.652 2.457 0 .995-.245 1.887-.746 2.675-.316.52-.71.963-1.186 1.317-.534.41-1.167.69-1.894.84-.728.152-1.518.23-2.368.23H2.52V7.617h8.102c2.042.033 3.49.625 4.344 1.786zm-8.58 1.126v3.697H9.94c.726 0 1.317-.14 1.77-.416s.682-.767.682-1.472c0-.78-.3-1.297-.9-1.546-.518-.174-1.18-.262-1.98-.262H6.386zm0 6.473v4.468h3.547c.727 0 1.292-.095 1.697-.294.734-.365 1.103-1.06 1.103-2.093 0-.87-.357-1.474-1.067-1.796-.398-.184-.96-.277-1.678-.284h-3.6zM26.342 12.094c.838.375 1.53.967 2.076 1.778.492.715.81 1.542.957 2.483.083.55.118 1.345.104 2.385h-8.75c.048 1.207.466 2.05 1.256 2.534.476.302 1.055.45 1.73.45.715 0 1.298-.18 1.745-.55.245-.197.46-.475.647-.824h3.206c-.083.712-.47 1.436-1.164 2.17-1.076 1.167-2.584 1.754-4.52 1.754-1.603 0-3.01-.494-4.234-1.48-1.22-.986-1.833-2.59-1.833-4.81 0-2.083.552-3.678 1.655-4.788 1.105-1.11 2.535-1.665 4.298-1.665 1.046.002 1.988.19 2.826.564zm-4.7 2.715c-.445.455-.723 1.075-.836 1.858h5.412c-.058-.834-.338-1.466-.84-1.897-.497-.432-1.118-.648-1.86-.648-.81 0-1.433.232-1.875.687zM20.112 8.313h6.757V9.99H20.11z"/></g></g></svg>