<svg xmlns="http://www.w3.org/2000/svg" width="32" height="32" viewBox="0 0 32 32"><path fill="#FFF" d="M14.966 9.404c.514.712.768 1.566.768 2.56 0 1.024-.258 1.845-.776 2.467-.29.35-.714.668-1.277.956.855.313 1.503.804 1.936 1.48.437.676.652 1.495.652 2.457 0 .995-.245 1.887-.746 2.675-.316.52-.71.963-1.186 1.317-.534.41-1.167.69-1.894.84-.728.152-1.518.23-2.368.23H2.52V7.617h8.102c2.042.033 3.49.625 4.344 1.786zm-8.58 1.126v3.697H9.94c.726 0 1.317-.14 1.77-.416s.682-.767.682-1.472c0-.78-.3-1.297-.9-1.546-.518-.174-1.18-.262-1.98-.262H6.386zm0 6.473v4.468h3.547c.727 0 1.292-.095 1.697-.294.734-.365 1.103-1.06 1.103-2.093 0-.87-.357-1.474-1.067-1.796-.398-.184-.96-.277-1.678-.284h-3.6z"/><path fill="#2A51E0" d="M10.075 24.9H2V7.1h8.622c2.215.036 3.814.708 4.762 1.997.577.8.87 1.764.87 2.866 0 1.143-.303 2.085-.896 2.8-.166.2-.365.39-.6.567.537.33.97.75 1.295 1.258.486.752.733 1.673.733 2.734 0 1.096-.277 2.09-.826 2.953-.345.57-.79 1.063-1.313 1.454-.585.45-1.293.766-2.1.933-.758.158-1.59.237-2.472.237zm-7.038-1.036h7.038c.812 0 1.573-.073 2.262-.217.65-.135 1.216-.385 1.683-.744.422-.315.776-.71 1.06-1.175.452-.714.67-1.498.67-2.406 0-.858-.192-1.59-.57-2.174-.372-.582-.92-1-1.677-1.275l-1.117-.41 1.06-.54c.496-.253.87-.53 1.112-.823.442-.532.657-1.23.657-2.138 0-.893-.22-1.63-.67-2.255-.754-1.025-2.04-1.54-3.932-1.57H3.037v15.727zm6.897-1.875H5.87v-5.506h4.12c.81.01 1.43.118 1.895.333.894.406 1.368 1.19 1.368 2.267 0 1.542-.756 2.242-1.39 2.558-.48.233-1.11.347-1.93.347zM6.906 20.95h3.028c.648 0 1.143-.08 1.47-.24.347-.175.812-.532.812-1.63 0-.666-.243-1.086-.764-1.323-.328-.152-.82-.232-1.468-.238H6.906v3.43zm3.033-6.206H5.87v-4.734h3.64c.854 0 1.576.097 2.146.29.59.243 1.254.782 1.254 2.038 0 1.115-.505 1.657-.93 1.916-.533.324-1.22.49-2.04.49zm-3.034-1.038H9.94c.627 0 1.132-.114 1.5-.34.108-.064.433-.263.433-1.03 0-.732-.31-.956-.58-1.067-.43-.143-1.04-.222-1.783-.222H6.906v2.66z"/><path fill="#FFF" d="M26.342 12.094c.838.375 1.53.967 2.076 1.778.492.715.81 1.542.957 2.483.083.55.118 1.345.104 2.385h-8.75c.048 1.207.466 2.05 1.256 2.534.476.302 1.055.45 1.73.45.715 0 1.298-.18 1.745-.55.245-.197.46-.475.647-.824h3.206c-.083.712-.47 1.436-1.164 2.17-1.076 1.167-2.584 1.754-4.52 1.754-1.603 0-3.01-.494-4.234-1.48-1.22-.986-1.833-2.59-1.833-4.81 0-2.083.552-3.678 1.655-4.788 1.105-1.11 2.535-1.665 4.298-1.665 1.046.002 1.988.19 2.826.564zm-4.7 2.715c-.445.455-.723 1.075-.836 1.858h5.412c-.058-.834-.338-1.466-.84-1.897-.497-.432-1.118-.648-1.86-.648-.81 0-1.433.232-1.875.687z"/><path fill="#2A51E0" d="M23.63 24.793c-1.712 0-3.245-.537-4.56-1.594-1.344-1.087-2.025-2.842-2.025-5.215 0-2.214.607-3.947 1.806-5.154 1.202-1.205 2.772-1.817 4.667-1.817 1.116 0 2.138.204 3.037.607.924.414 1.695 1.074 2.295 1.962.527.768.878 1.676 1.038 2.692.088.583.124 1.415.11 2.473l-.008.51H21.3c.12.74.437 1.257.956 1.574.394.25.883.375 1.46.375.6 0 1.063-.14 1.415-.432.192-.155.365-.378.52-.668l.146-.274h4.1l-.066.58c-.097.822-.535 1.652-1.303 2.466-1.172 1.27-2.82 1.917-4.897 1.917zm-.113-12.742c-1.632 0-2.918.496-3.93 1.513-.998 1.004-1.505 2.493-1.505 4.422 0 2.044.552 3.527 1.64 4.407 1.14.917 2.42 1.363 3.908 1.363 1.775 0 3.168-.534 4.14-1.586.42-.446.712-.882.88-1.302h-2.244c-.185.288-.392.525-.62.708-.532.44-1.23.666-2.068.666-.778 0-1.454-.18-2.01-.53-.935-.574-1.44-1.567-1.496-2.952l-.02-.54h8.772c0-.756-.035-1.356-.1-1.788-.138-.872-.423-1.614-.872-2.267-.5-.74-1.106-1.26-1.86-1.6-.768-.34-1.647-.514-2.615-.514zm3.256 5.137h-6.566l.085-.593c.13-.893.46-1.615.98-2.147.542-.56 1.297-.843 2.244-.843.868 0 1.61.26 2.202.776.606.52.948 1.28 1.017 2.252l.038.555zM21.45 16.15h4.167c-.104-.42-.295-.744-.576-.986-.405-.354-.903-.525-1.523-.525-.664 0-1.155.172-1.5.53-.256.26-.443.582-.567.98z"/><g><path fill="#FFF" d="M20.112 8.313h6.757V9.99H20.11z"/><path fill="#2A51E0" d="M27.387 10.51h-7.793V7.794h7.793v2.714zM20.63 9.472h5.72v-.64h-5.72v.64z"/></g><g fill="#FFF"><path d="M14.966 9.404c.514.712.768 1.566.768 2.56 0 1.024-.258 1.845-.776 2.467-.29.35-.714.668-1.277.956.855.313 1.503.804 1.936 1.48.437.676.652 1.495.652 2.457 0 .995-.245 1.887-.746 2.675-.316.52-.71.963-1.186 1.317-.534.41-1.167.69-1.894.84-.728.152-1.518.23-2.368.23H2.52V7.617h8.102c2.042.033 3.49.625 4.344 1.786zm-8.58 1.126v3.697H9.94c.726 0 1.317-.14 1.77-.416s.682-.767.682-1.472c0-.78-.3-1.297-.9-1.546-.518-.174-1.18-.262-1.98-.262H6.386zm0 6.473v4.468h3.547c.727 0 1.292-.095 1.697-.294.734-.365 1.103-1.06 1.103-2.093 0-.87-.357-1.474-1.067-1.796-.398-.184-.96-.277-1.678-.284h-3.6zM26.342 12.094c.838.375 1.53.967 2.076 1.778.492.715.81 1.542.957 2.483.083.55.118 1.345.104 2.385h-8.75c.048 1.207.466 2.05 1.256 2.534.476.302 1.055.45 1.73.45.715 0 1.298-.18 1.745-.55.245-.197.46-.475.647-.824h3.206c-.083.712-.47 1.436-1.164 2.17-1.076 1.167-2.584 1.754-4.52 1.754-1.603 0-3.01-.494-4.234-1.48-1.22-.986-1.833-2.59-1.833-4.81 0-2.083.552-3.678 1.655-4.788 1.105-1.11 2.535-1.665 4.298-1.665 1.046.002 1.988.19 2.826.564zm-4.7 2.715c-.445.455-.723 1.075-.836 1.858h5.412c-.058-.834-.338-1.466-.84-1.897-.497-.432-1.118-.648-1.86-.648-.81 0-1.433.232-1.875.687zM20.112 8.313h6.757V9.99H20.11z"/></g></svg>