<svg xmlns="http://www.w3.org/2000/svg" width="32" height="32" viewBox="0 0 32 32"><path fill="#C8C8C8" d="M29.373 8.897V5.432c0-.595-.482-1.076-1.076-1.076h-6.463c-.595 0-1.076.48-1.076 1.076v2.83H4.153C2.965 8.26 2 9.224 2 10.414V25.49c0 1.188.965 2.152 2.153 2.152h23.693c1.188 0 2.154-.965 2.154-2.15V10.414c0-.593-.238-1.128-.627-1.518zm-1.63-1.135h-5.356V6.19h5.355v1.572z"/><path fill="#C8C8C8" d="M28.297 4.356h-6.463c-.595 0-1.076.48-1.076 1.076v2.83H4.153C2.965 8.26 2 9.224 2 10.414V25.49c0 1.188.965 2.152 2.153 2.152h23.693c1.188 0 2.154-.965 2.154-2.15V10.414c0-.593-.24-1.128-.628-1.518V5.432c0-.595-.48-1.076-1.075-1.076z"/><path fill="#FFF" d="M22.387 7.762V6.19h5.355v1.572h-5.355"/><path fill="#B4B4B4" d="M28.373 8.762V9.31l.292.293c.217.217.336.506.336.812V25.49c0 .636-.517 1.152-1.153 1.152H4.153c-.635 0-1.152-.517-1.152-1.15V10.414c0-.637.518-1.154 1.153-1.154h17.604v-.498h6.617"/><path fill="#FFF" d="M17.167 24.93c-3.896 0-7.067-3.17-7.067-7.067 0-3.902 3.17-7.07 7.067-7.07 3.896 0 7.067 3.168 7.067 7.065 0 3.896-3.167 7.065-7.062 7.065l-.005.006z"/></svg>