<svg xmlns="http://www.w3.org/2000/svg" width="32" height="32" viewBox="0 0 32 32"><path fill="#C8C8C8" d="M29.373 8.897V5.432c0-.595-.482-1.076-1.076-1.076h-6.463c-.596 0-1.076.48-1.076 1.076v2.83H4.153C2.965 8.26 2 9.224 2 10.414V25.49c0 1.188.965 2.152 2.153 2.152h23.693c1.188 0 2.154-.966 2.154-2.15V10.414c0-.593-.238-1.128-.627-1.518zm-1.63-1.135h-5.356V6.19h5.355v1.572z"/><path fill="#C8C8C8" d="M28.297 4.356h-6.463c-.596 0-1.076.48-1.076 1.076v2.83H4.153C2.965 8.26 2 9.224 2 10.414V25.49c0 1.188.965 2.152 2.153 2.152h23.693c1.188 0 2.154-.966 2.154-2.15V10.414c0-.593-.238-1.128-.628-1.518V5.432c0-.595-.48-1.076-1.075-1.076z"/><path fill="#FFF" d="M22.387 7.762V6.19h5.355v1.572"/><path fill="#B4B4B4" d="M27.932 9.26H4.152c-.634 0-1.15.518-1.15 1.155V25.49c0 .635.516 1.152 1.15 1.152h23.78c.634 0 1.15-.518 1.15-1.15V10.414c0-.637-.517-1.154-1.15-1.154z"/><path fill="#FFF" d="M16.77 24.93c-3.895 0-7.066-3.17-7.066-7.066 0-3.902 3.17-7.07 7.067-7.07 3.897 0 7.068 3.168 7.068 7.064s-3.168 7.065-7.063 7.065l-.004.007z"/></svg>