<svg xmlns="http://www.w3.org/2000/svg" width="32" height="32" viewBox="0 0 32 32"><path fill="#FFF" d="M23.803 29.055c-1.296 0-2.35-1.054-2.35-2.35 0-1.297 1.054-2.352 2.35-2.352 1.294 0 2.348 1.055 2.35 2.352 0 1.296-1.054 2.35-2.35 2.35zm-12.67 0c-1.295 0-2.35-1.054-2.35-2.35 0-1.297 1.054-2.352 2.35-2.352 1.297 0 2.348 1.055 2.348 2.352 0 1.296-1.052 2.35-2.347 2.35zM9.54 23.468c-.06 0-1.49-.027-1.93-1.507-.134-.45-.608-2.945-1.158-5.834-.782-4.117-1.756-9.24-2.18-10.71-.03-.106-.13-.18-.24-.18H.25V2.944h5.412l.33.58c.163.286.477 1.132 1.044 3.54.027.114.128.193.243.193l22.393-.006c1.146 0 2.077.933 2.077 2.08v.243l-3.73 8.387c-.65 1.28-1.082 1.82-2.07 1.82H9.856c-.074 0-.144.033-.19.09-.05.056-.07.13-.056.203.023.135.002.53-.015.85-.023.44-.035.72-.008.872.022.12.126.205.246.205h16.542l-.56 1.468H9.54z"/><path fill="#C8C8C8" d="M5.517 3.194l.258.454c.126.222.427.97 1.017 3.473.054.23.254.384.483.384.02 0 .038 0 .058-.003h22.34c1.008 0 1.827.82 1.827 1.83v.19l-3.698 8.315c-.634 1.25-1.01 1.695-1.852 1.695H9.855c-.147 0-.287.066-.382.18-.095.112-.135.263-.11.407.02.11-.004.538-.017.794-.024.46-.037.75-.004.93.043.238.25.41.492.41h16.18l-.368.97H9.543c-.053-.003-1.308-.035-1.693-1.33-.13-.44-.626-3.05-1.152-5.81-.784-4.123-1.76-9.253-2.185-10.732-.062-.214-.258-.36-.48-.36H.5V3.193h5.017m18.286 21.41c1.156 0 2.098.943 2.1 2.102 0 1.158-.94 2.1-2.1 2.1s-2.1-.94-2.1-2.1c0-1.16.942-2.102 2.1-2.102m-12.665 0c1.154 0 2.093.942 2.093 2.102 0 1.158-.94 2.1-2.097 2.1-1.158 0-2.1-.94-2.1-2.1 0-1.16.942-2.102 2.1-2.102h.005m-5.33-21.91H0v2.793h4.032c.715 2.478 3.004 15.42 3.338 16.545.502 1.686 2.17 1.686 2.17 1.686h16.45l.748-1.968H9.833c-.05-.275.078-1.404.02-1.72H25.95c1.16 0 1.66-.712 2.298-1.97L32 9.625v-.297C32 8.043 30.955 7 29.673 7H7.333c-.02 0-.037.004-.054.006-.42-1.783-.8-3.133-1.07-3.606l-.403-.706zm17.995 21.41c-1.435 0-2.6 1.164-2.6 2.602s1.165 2.6 2.6 2.6c1.438 0 2.6-1.162 2.6-2.6-.003-1.435-1.165-2.602-2.6-2.602zm-12.665 0h-.005c-1.436 0-2.6 1.164-2.6 2.602s1.164 2.6 2.6 2.6 2.598-1.162 2.598-2.6c0-1.435-1.16-2.602-2.592-2.602z"/><g><path fill="#C8C8C8" d="M9.59 17.24L7.932 9.79H28.87l-3.31 7.45"/></g></svg>