<svg xmlns="http://www.w3.org/2000/svg" width="32" height="32" viewBox="0 0 32 32"><path fill="#FFF" d="M23.803 28.555c-1.02 0-1.85-.83-1.85-1.85s.83-1.852 1.85-1.852 1.848.83 1.85 1.853c0 1.02-.83 1.85-1.85 1.85zm-12.67 0c-1.02 0-1.85-.83-1.85-1.85s.83-1.852 1.85-1.852 1.848.83 1.848 1.852c0 1.02-.828 1.85-1.847 1.85zm-2.2-5.587L4.422 4.736H.75V3.444h4.61l1.095 4.31H30.91L25.63 19.28H9.207l.845 3.22H25.65l-.178.468H8.932z"/><path fill="#C8C8C8" d="M4.972 3.944L5.875 7.5l.19.754H30.13L25.31 18.78H8.56l.328 1.254.583 2.22.057.215h-.204L5.003 4.995l-.188-.76H1.25v-.292h3.722m18.83 21.41c.744 0 1.35.607 1.35 1.352 0 .744-.604 1.35-1.35 1.35s-1.35-.605-1.35-1.35c0-.746.607-1.352 1.35-1.352m-12.67 0c.744 0 1.35.606 1.35 1.352 0 .744-.606 1.35-1.35 1.35-.743 0-1.35-.605-1.35-1.35 0-.746.607-1.352 1.35-1.352M5.75 2.944H.25v2.292h3.782L8.54 23.468h17.276l.56-1.468H10.437l-.583-2.22H25.95l5.737-12.527H6.844L5.75 2.943zm18.053 21.41c-1.296 0-2.35 1.055-2.35 2.352 0 1.296 1.054 2.35 2.35 2.35 1.297 0 2.35-1.054 2.35-2.35-.003-1.298-1.055-2.352-2.35-2.352zm-12.67 0c-1.296 0-2.35 1.055-2.35 2.352 0 1.296 1.055 2.35 2.35 2.35 1.295 0 2.348-1.054 2.348-2.35 0-1.298-1.05-2.352-2.347-2.352z"/><path fill="#B4B4B4" d="M7.664 9.54l2.02 8.21h14.483l3.703-8.21"/></svg>