<svg xmlns="http://www.w3.org/2000/svg" width="32" height="32" viewBox="0 0 32 32"><path fill="#C8C8C8" d="M24.406 5.852V1.427c0-.617-.502-1.12-1.122-1.12-.617 0-1.12.503-1.12 1.12V4.79H9.72c-1.486 0-2.688 1.203-2.688 2.69V29c0 1.485 1.203 2.69 2.69 2.69h12.555c1.486 0 2.69-1.205 2.69-2.69V7.48c0-.616-.213-1.175-.56-1.628z"/><path fill="#FFF" d="M23.396 17.492H8.6V7.03h14.797v10.462z"/><path fill="gray" d="M23.7 17.794H8.296V6.73H23.7v11.064zM8.9 17.19h14.195V7.332H8.9v9.858z"/><path fill="#C8C8C8" d="M18.48 12.598c.683 1.917-5.746 4.17-5.746 4.17s3.8-2.77 2.944-4.806c-.85-2.034 1.69-4.533 1.69-4.533h5.082c.002 0-4.652 3.25-3.97 5.168z"/><path fill="none" d="M18.48 12.598c.683 1.917-5.746 4.17-5.746 4.17s3.8-2.77 2.944-4.806c-.85-2.034 1.69-4.533 1.69-4.533h5.082c.002 0-4.652 3.25-3.97 5.168zM11.703 20.856c0 .412-.335.748-.748.748H9.46c-.413 0-.75-.336-.75-.747v-.742c0-.413.337-.748.75-.748h1.495c.413 0 .748.334.748.747v.748-.006zM11.703 28.704c0 .413-.335.748-.748.748H9.46c-.413 0-.75-.335-.75-.748v-.748c0-.412.337-.747.75-.747h1.495c.413 0 .748.334.748.746v.748zM11.703 24.78c0 .413-.335.748-.748.748H9.46c-.413 0-.75-.335-.75-.748v-.747c0-.413.337-.748.75-.748h1.495c.413 0 .748.335.748.748v.747zM17.308 20.856c0 .412-.334.748-.748.748h-1.495c-.413 0-.748-.336-.748-.747v-.742c0-.413.335-.748.748-.748h1.495c.412 0 .748.334.748.747v.748-.006zM17.308 28.704c0 .413-.334.748-.748.748h-1.495c-.413 0-.748-.335-.748-.748v-.748c0-.412.335-.747.748-.747h1.495c.412 0 .748.334.748.746v.748zM17.308 24.78c0 .413-.334.748-.748.748h-1.495c-.413 0-.748-.335-.748-.748v-.747c0-.413.335-.748.748-.748h1.495c.412 0 .748.335.748.748v.747zM22.913 20.856c0 .412-.336.748-.748.748h-1.498c-.412 0-.747-.336-.747-.747v-.742c0-.413.335-.748.747-.748h1.496c.412 0 .748.334.748.747v.748l.003-.006zM22.913 28.704c0 .413-.336.748-.748.748h-1.498c-.412 0-.747-.335-.747-.748v-.748c0-.412.335-.747.747-.747h1.496c.412 0 .748.334.748.746l.003.748z"/><g fill="gray"><path d="M11.703 20.856c0 .412-.335.748-.748.748H9.46c-.413 0-.75-.336-.75-.747v-.742c0-.413.337-.748.75-.748h1.495c.413 0 .748.334.748.747v.748-.006zM11.703 28.704c0 .413-.335.748-.748.748H9.46c-.413 0-.75-.335-.75-.748v-.748c0-.412.337-.747.75-.747h1.495c.413 0 .748.334.748.746v.748zM11.703 24.78c0 .413-.335.748-.748.748H9.46c-.413 0-.75-.335-.75-.748v-.747c0-.413.337-.748.75-.748h1.495c.413 0 .748.335.748.748v.747zM17.308 20.856c0 .412-.334.748-.748.748h-1.495c-.413 0-.748-.336-.748-.747v-.742c0-.413.335-.748.748-.748h1.495c.412 0 .748.334.748.747v.748-.006zM17.308 28.704c0 .413-.334.748-.748.748h-1.495c-.413 0-.748-.335-.748-.748v-.748c0-.412.335-.747.748-.747h1.495c.412 0 .748.334.748.746v.748zM17.308 24.78c0 .413-.334.748-.748.748h-1.495c-.413 0-.748-.335-.748-.748v-.747c0-.413.335-.748.748-.748h1.495c.412 0 .748.335.748.748v.747zM22.913 20.856c0 .412-.336.748-.748.748h-1.498c-.412 0-.747-.336-.747-.747v-.742c0-.413.335-.748.747-.748h1.496c.412 0 .748.334.748.747v.748l.003-.006zM22.913 28.704c0 .413-.336.748-.748.748h-1.498c-.412 0-.747-.335-.747-.748v-.748c0-.412.335-.747.747-.747h1.496c.412 0 .748.334.748.746l.003.748zM22.913 24.78c0 .413-.336.748-.748.748h-1.498c-.412 0-.747-.335-.747-.748v-.747c0-.413.335-.748.747-.748h1.496c.412 0 .748.335.748.748l.003.747z"/></g><path fill="none" d="M22.913 24.78c0 .413-.336.748-.748.748h-1.498c-.412 0-.747-.335-.747-.748v-.747c0-.413.335-.748.747-.748h1.496c.412 0 .748.335.748.748l.003.747z"/></svg>