<svg xmlns="http://www.w3.org/2000/svg" width="32" height="32" viewBox="0 0 32 32"><path fill="#C8C8C8" d="M24.406 5.852V1.427c0-.617-.502-1.12-1.122-1.12-.617 0-1.12.503-1.12 1.12V4.79H8.72c-1.486 0-1.688.203-1.688 1.69V30c0 1.484.203 1.69 1.69 1.69h14.555c1.486 0 1.69-.206 1.69-1.69V6.48c0-.616-.213-.175-.56-.628z"/><path fill="#FFF" d="M23.396 17.492H8.6V7.03h14.797v10.462z"/><path fill="#999" d="M23.7 17.794H8.296V6.73H23.7v11.064zM8.9 17.19h14.195V7.33H8.9v9.857z"/><path fill="#C8C8C8" d="M18.48 12.598c.683 1.917-5.746 4.17-5.746 4.17s5.8-2.77 4.944-4.807c-.85-2.033 1.688-4.532 1.688-4.532h3.083c.002 0-4.652 3.253-3.97 5.17z"/><path fill="none" d="M18.48 12.598c.683 1.917-5.746 4.17-5.746 4.17s3.8-2.77 2.944-4.807c-.85-2.033 1.688-4.532 1.688-4.532h5.083c.002 0-4.652 3.253-3.97 5.17z"/><g fill="#999"><path d="M9.328 19.272h3v2h-3zM9.328 25.65h3v2h-3zM9.328 22.462h3v2h-3zM14.5 19.272h3v2h-3zM14.5 25.65h3v2h-3zM14.5 22.462h3v2h-3zM19.672 19.272h3v2h-3zM19.672 25.65h3v2h-3zM9.328 29h3v2h-3zM14.5 29h3v2h-3zM19.672 29h3v2h-3zM19.672 22.462h3v2h-3z"/></g></svg>