<svg xmlns="http://www.w3.org/2000/svg" xmlns:xlink="http://www.w3.org/1999/xlink" width="32" height="32" viewBox="0 0 32 32"><path fill="#E12E2F" d="M15.96.003s9.433-.423 14.433 9.04H15.156s-2.878-.094-5.33 3.39c-.706 1.46-1.46 2.966-.612 5.933-1.227-2.072-6.51-11.254-6.51-11.254S6.428.38 15.958.002"/><path fill="#FCD209" d="M29.9 24.03s-4.353 8.364-15.06 7.954l7.615-13.17s1.52-2.438-.272-6.303c-.912-1.34-1.84-2.746-4.838-3.496 2.41-.022 13.016.003 13.016.003s3.98 6.59-.46 15.013"/><path fill="#43A445" d="M2.083 24.095S-3 16.15 2.713 7.098c1.318 2.284 7.615 13.17 7.615 13.17s1.356 2.535 5.606 2.915c1.618-.117 3.302-.22 5.453-2.435-1.185 2.09-6.51 11.25-6.51 11.25s-7.704.14-12.794-7.91"/><path fill="#FFF" d="M8.78 16.13c0-3.934 3.196-7.124 7.14-7.124 3.94 0 7.137 3.19 7.137 7.125 0 3.94-3.195 7.13-7.138 7.13-3.944 0-7.14-3.188-7.14-7.123"/><defs><path id="a" d="M9.976 16.13c0 3.277 2.66 5.935 5.943 5.935 3.28 0 5.94-2.655 5.94-5.934 0-3.27-2.66-5.93-5.94-5.93-3.29 0-5.95 2.66-5.95 5.93"/></defs><clipPath id="b"><use xlink:href="#a" overflow="visible"/></clipPath><path clip-path="url(#b)" fill="#0C5A94" d="M21.86 10.2v11.862H9.976V10.2H21.86z"/></svg>