<svg xmlns="http://www.w3.org/2000/svg" width="192" height="96" viewBox="-204 298 192 96"><path fill="#FFF" d="M-188 298c-8.836 0-16 7.164-16 16s7.164 16 16 16c8.837 0 16-7.164 16-16s-7.163-16-16-16z"/><path fill="#ADADAD" d="M-188 329c-8.27 0-15-6.73-15-15s6.73-15 15-15 15 6.73 15 15-6.73 15-15 15z"/><path fill="#FFF" d="M-180 308h-4.196l-3.804 3.867-3.803-3.867H-196l5.9 6-5.9 6h4.197l3.803-3.865 3.804 3.865H-180l-5.9-6M-111 298h-26c-1.657 0-3 1.344-3 3v26c0 1.657 1.343 3 3 3h26c1.657 0 3-1.343 3-3v-26c0-1.656-1.343-3-3-3z"/><path fill="#ADADAD" d="M-137 329.002c-1.103 0-2-.897-2-2v-26c0-1.103.897-2 2-2h26c1.103 0 2 .897 2 2v26c0 1.103-.897 2-2 2h-26z"/><path fill="#FFF" d="M-116 308h-4.196l-3.804 3.866-3.803-3.866H-132l5.9 6-5.9 6h4.197l3.803-3.866 3.804 3.867H-116l-5.9-6M-188 330c-8.836 0-16 7.164-16 16s7.164 16 16 16c8.837 0 16-7.164 16-16s-7.163-16-16-16z"/><path fill="#FF3F1F" d="M-188 361c-8.27 0-15-6.73-15-15s6.73-15 15-15 15 6.73 15 15-6.73 15-15 15z"/><path fill="#FFF" d="M-180 340h-4.196l-3.804 3.867-3.803-3.867H-196l5.9 6-5.9 6h4.197l3.803-3.865 3.804 3.865H-180l-5.9-6M-156 298c-8.836 0-16 7.164-16 16s7.164 16 16 16c8.837 0 16-7.164 16-16s-7.163-16-16-16z"/><path fill="#ADADAD" d="M-156 329c-8.27 0-15-6.73-15-15s6.73-15 15-15 15 6.73 15 15-6.73 15-15 15z"/><path fill="#FFF" d="M-161.1 306h3.2v16h-3.2zM-154.1 306h3.2v16h-3.2zM-156 330c-8.836 0-16 7.164-16 16s7.164 16 16 16c8.837 0 16-7.164 16-16s-7.163-16-16-16z"/><path fill="#008ADF" d="M-156 361c-8.27 0-15-6.73-15-15s6.73-15 15-15 15 6.73 15 15-6.73 15-15 15z"/><path fill="#FFF" d="M-161.1 338h3.2v16h-3.2zM-154.1 338h3.2v16h-3.2zM-111 330h-26c-1.657 0-3 1.343-3 3v26c0 1.656 1.343 3 3 3h26c1.657 0 3-1.344 3-3v-26c0-1.657-1.343-3-3-3z"/><path fill="#FF3F1F" d="M-137 361c-1.103 0-2-.896-2-2v-26c0-1.102.897-2 2-2h26c1.103 0 2 .898 2 2v26c0 1.104-.897 2-2 2h-26z"/><path fill="#FFF" d="M-116 340h-4.196l-3.804 3.865-3.803-3.866H-132l5.9 5.998L-132 352h4.197l3.803-3.867 3.804 3.867H-116l-5.9-6.002M-188 362c-8.836 0-16 7.164-16 16s7.164 16 16 16c8.837 0 16-7.164 16-16s-7.163-16-16-16z"/><path fill="#008ADF" d="M-188 393c-8.27 0-15-6.73-15-15s6.73-15 15-15 15 6.73 15 15-6.73 15-15 15z"/><path fill="#FFF" d="M-185.174 372h-3.93l3.823 4.438H-196v3.126h10.72l-3.825 4.436h3.93l5.175-6M-156 362c-8.836 0-16 7.164-16 16s7.164 16 16 16c8.837 0 16-7.164 16-16s-7.163-16-16-16z"/><path fill="#ADADAD" d="M-156 393c-8.27 0-15-6.73-15-15s6.73-15 15-15 15 6.73 15 15-6.73 15-15 15z"/><g><path fill="#FFF" d="M-124 362c-8.836 0-16 7.164-16 16s7.164 16 16 16c8.837 0 16-7.164 16-16s-7.163-16-16-16z"/><path fill="#008ADF" d="M-124 393c-8.27 0-15-6.73-15-15s6.73-15 15-15 15 6.73 15 15-6.73 15-15 15z"/></g><g><path fill="#FFF" d="M-153.174 372h-3.93l3.823 4.438H-164v3.126h10.72l-3.825 4.436h3.93l5.175-6"/></g><g><path fill="#FFF" d="M-124.738 370H-127v16h2.262l7.738-8"/></g><g><path fill="#FFF" d="M-92 362c-8.836 0-16 7.164-16 16s7.164 16 16 16c8.837 0 16-7.164 16-16s-7.163-16-16-16z"/><path fill="#ADADAD" d="M-92 393c-8.27 0-15-6.73-15-15s6.73-15 15-15 15 6.73 15 15-6.73 15-15 15z"/></g><g><path fill="#FFF" d="M-92.738 370H-95v16h2.262l7.738-8"/></g><g><path fill="#FFF" d="M-28 394c8.836 0 16-7.164 16-16s-7.164-16-16-16c-8.837 0-16 7.164-16 16s7.163 16 16 16z"/><path fill="#ADADAD" d="M-28 363c8.27 0 15 6.73 15 15s-6.73 15-15 15-15-6.73-15-15 6.73-15 15-15z"/></g><g><path fill="#FFF" d="M-30.826 384h3.93l-3.823-4.437H-20v-3.127h-10.72l3.825-4.436h-3.93L-36 378"/></g><g><path fill="#FFF" d="M-60 394c8.836 0 16-7.164 16-16s-7.164-16-16-16c-8.837 0-16 7.164-16 16s7.163 16 16 16z"/><path fill="#008ADF" d="M-60 363c8.27 0 15 6.73 15 15s-6.73 15-15 15-15-6.73-15-15 6.73-15 15-15z"/></g><g><path fill="#FFF" d="M-62.826 384h3.93l-3.823-4.437H-52v-3.127h-10.72l3.825-4.436h-3.93L-68 378"/></g></svg>