<svg xmlns="http://www.w3.org/2000/svg" width="32" height="32" viewBox="0 0 32 32"><path fill="#C8C8C8" d="M22.21 30.063H9.792l3.153-5.528h6.11l3.155 5.528z"/><path fill="#B4B4B4" d="M21.19 29.47H10.81l2.48-4.348h5.42l2.48 4.35z"/><path fill="#C8C8C8" d="M28.363 25.523H3.635c-1.746 0-3.246-1.246-3.568-2.965l-.064-.617L0 5.58l.06-.625C.39 3.183 1.89 1.94 3.636 1.94h24.727c1.746 0 3.248 1.238 3.57 2.96l.067.62v16.365l-.06.622c-.33 1.77-1.83 3.015-3.58 3.015h.003z"/><path fill="#B4B4B4" d="M31.354 5.012c-.268-1.41-1.5-2.478-2.99-2.478H3.636C2.15 2.534.916 3.6.65 5.014l-.057.564v16.31l.057.564c.265 1.41 1.5 2.48 2.986 2.48h24.727c1.49 0 2.724-1.066 2.99-2.48l.055-.564V5.578l-.054-.566z"/><path fill="#FFF" d="M29.635 23.145H2.367V4.323h27.268v18.822z"/><path fill="#C8C8C8" d="M29.93 23.44H2.07V4.025h27.86V23.44zm-27.266-.592h26.674V4.618H2.664v18.23z"/><path fill="#C8C8C8" d="M20.768 13.032c.59 3.068-4.96 6.688-4.96 6.688s3.28-4.442 2.54-7.708c-.735-3.265 1.46-7.268 1.46-7.268h4.39c-.005 0-4.022 5.215-3.43 8.288z"/><path fill="none" d="M20.768 13.032c.59 3.068-4.96 6.688-4.96 6.688s3.28-4.442 2.54-7.708c-.735-3.265 1.46-7.268 1.46-7.268h4.39c-.005 0-4.022 5.215-3.43 8.288z"/></svg>