<svg xmlns="http://www.w3.org/2000/svg" width="32" height="32" viewBox="0 0 32 32"><path fill="#FFF" d="M5.63 9.188v20.294h20.74V2.52H12.114L5.63 9.187z"/><path fill="#C8C8C8" d="M26.89 30H5.11V8.978L11.895 2H26.89v28zM6.15 28.962h19.706V3.036h-13.52L6.15 9.398v19.566-.002z"/><path fill="#B4B4B4" d="M5.63 9.188h6.484v-6.67L5.63 9.19z"/><g fill="#B4B4B4"><path d="M23.78 6.373H16V5.336h7.78v1.037zM23.78 8.447H16V7.41h7.78v1.037zM23.78 10.52H16V9.484h7.78v1.036zM23.78 14.288H7.874V13.25H23.78v1.038zM23.78 17.398H7.874V16.36H23.78v1.038zM23.78 20.51H7.874v-1.037H23.78v1.038zM23.78 23.62H7.874v-1.037H23.78v1.038zM23.78 26.73H7.874v-1.037H23.78v1.037z"/></g></svg>