<svg xmlns="http://www.w3.org/2000/svg" width="32" height="32" viewBox="0 0 32 32"><path fill="#FFF" d="M3.557 16C5.91 19.592 10.02 22.668 16 22.668c4.314 0 10.087-3.076 12.442-6.668-2.354-3.593-8.13-6.667-12.442-6.667S5.912 12.407 3.557 16z"/><path fill="#C8C8C8" d="M16.537 21.72c-3.396 0-6.16-2.763-6.16-6.16s2.764-6.16 6.16-6.16c3.397 0 6.16 2.765 6.16 6.16s-2.763 6.16-6.16 6.16z"/><path fill="#999" d="M16.537 9.838c3.153 0 5.723 2.567 5.723 5.722s-2.568 5.723-5.723 5.723-5.722-2.567-5.722-5.723c0-3.154 2.567-5.722 5.722-5.722m0-.875c-3.643 0-6.597 2.955-6.597 6.597 0 3.644 2.954 6.598 6.597 6.598 3.644 0 6.598-2.954 6.598-6.598 0-3.642-2.956-6.597-6.598-6.597zm3.045 6.598c0 1.683-1.362 3.047-3.044 3.047-1.68 0-3.045-1.366-3.045-3.046 0-1.678 1.365-3.044 3.045-3.044s3.044 1.363 3.044 3.045z"/><path fill="#C8C8C8" d="M16 24.645c-5.615 0-10.826-3.043-13.6-7.94L2 16l.4-.703c2.772-4.9 7.984-7.942 13.6-7.942 5.614 0 10.824 3.043 13.603 7.94L30 16l-.397.702c-2.777 4.9-7.99 7.944-13.603 7.943zM3.557 16C5.91 19.592 10.02 22.668 16 22.668c4.314 0 10.087-3.076 12.442-6.668-2.354-3.593-8.13-6.667-12.442-6.667S5.912 12.407 3.557 16z"/><ellipse transform="rotate(-143 19.207 12.865)" fill="#FFF" cx="19.206" cy="12.865" rx="1.167" ry="2.261"/><path fill="#B4B4B4" d="M16 23.105c-7.23 0-11.128-4.303-12.81-6.866L3.035 16l.157-.24C5.63 12.04 11.497 8.895 16 8.895s10.37 3.144 12.81 6.865l.156.24-.156.24c-2.44 3.72-8.306 6.865-12.81 6.865zM4.085 16.002C5.75 18.438 9.405 22.23 16 22.23c4.077 0 9.557-2.886 11.914-6.23C25.557 12.654 20.078 9.77 16 9.77c-4.08 0-9.56 2.885-11.915 6.232z"/></svg>