<svg xmlns="http://www.w3.org/2000/svg" width="32" height="32" viewBox="0 0 32 32"><path fill="#FFF" d="M3.557 16C5.91 19.592 10.02 22.668 16 22.668c4.315 0 10.088-3.076 12.443-6.668-2.355-3.593-8.13-6.667-12.443-6.667-4.314 0-10.088 3.074-12.443 6.667z"/><path fill="#B4B4B4" d="M16 23.105c-7.23 0-11.128-4.302-12.81-6.866L3.035 16l.157-.24C5.63 12.04 11.497 8.895 16 8.895c4.504 0 10.37 3.144 12.81 6.865l.156.24-.157.24c-2.44 3.72-8.306 6.865-12.81 6.865zM4.085 16.002C5.75 18.438 9.405 22.23 16 22.23c4.077 0 9.556-2.885 11.914-6.23C25.557 12.654 20.078 9.77 16 9.77c-4.08 0-9.56 2.885-11.915 6.232z"/><path fill="#C8C8C8" d="M16.537 21.72c-3.396 0-6.16-2.763-6.16-6.16 0-3.397 2.763-6.16 6.16-6.16s6.16 2.765 6.16 6.16-2.763 6.16-6.16 6.16z"/><path fill="#B4B4B4" d="M16.537 9.838c3.153 0 5.723 2.567 5.723 5.722 0 3.155-2.57 5.723-5.723 5.723-3.155 0-5.722-2.567-5.722-5.723 0-3.154 2.567-5.722 5.722-5.722m0-.875c-3.643 0-6.597 2.955-6.597 6.597 0 3.644 2.954 6.598 6.597 6.598 3.643 0 6.598-2.954 6.598-6.598 0-3.642-2.956-6.597-6.598-6.597zm3.045 6.598c0 1.683-1.363 3.047-3.044 3.047-1.68 0-3.045-1.366-3.045-3.046 0-1.678 1.365-3.044 3.045-3.044s3.044 1.363 3.044 3.045z"/><path fill="#C8C8C8" d="M16 24.645c-5.615 0-10.826-3.043-13.6-7.942L2 16l.4-.703c2.773-4.9 7.985-7.942 13.6-7.942 5.614 0 10.824 3.043 13.602 7.94L30 16l-.398.702c-2.776 4.9-7.99 7.944-13.602 7.943zM3.557 16C5.91 19.592 10.02 22.668 16 22.668c4.315 0 10.088-3.076 12.443-6.668-2.355-3.593-8.13-6.667-12.443-6.667-4.314 0-10.088 3.074-12.443 6.667z"/><ellipse transform="rotate(-53 19.207 12.866)" fill="#FFF" cx="19.207" cy="12.865" rx="2.261" ry="1.167"/></svg>