<svg xmlns="http://www.w3.org/2000/svg" width="32" height="32" viewBox="0 0 32 32"><path fill="#3B5998" d="M32 29c0 1.657-1.344 3-3 3H3c-1.658 0-3-1.343-3-3V3c0-1.657 1.342-3 3-3h26c1.656 0 3 1.343 3 3v26z"/><path fill="#EAEEF4" d="M0 23v6c0 1.657 1.342 3 3 3h26c1.656 0 3-1.343 3-3v-6H0z"/><g><path fill="#FFF" d="M12.115 30h4.03V17.906h5.035v-3.99h-5.035v-3.063c0-1.09.69-2.01 1.512-2.01h3.523V4.87h-3.523c-3.057 0-5.542 2.705-5.542 6.03v3.016h-4.03v3.99h4.03V30z"/><path fill="#3B5998" d="M21.182 4.87v3.973H17.66c-.82 0-1.515.92-1.515 2.01v3.064h5.037v3.99h-5.037V30h-4.028V17.906h-4.03v-3.99h4.03V10.9c0-3.325 2.483-6.03 5.54-6.03h3.525m1-1H17.66c-3.61 0-6.543 3.153-6.543 7.03v2.016H7.087v5.99H11.117V31h6.027V18.906h5.037v-5.99h-5.036v-2.063c0-.63.355-1.01.514-1.01h4.523V3.87h.002z"/></g></svg>