<svg xmlns="http://www.w3.org/2000/svg" width="32" height="32" viewBox="0 0 32 32"><radialGradient id="a" cx="319.387" cy="-197.365" r="29.886" gradientTransform="matrix(.8232 0 0 -.7755 -246.942 -148.983)" gradientUnits="userSpaceOnUse"><stop offset="0" stop-color="#52C4F1"/><stop offset=".077" stop-color="#45BBEC"/><stop offset=".182" stop-color="#00A9DC"/><stop offset=".376" stop-color="#2276B8"/><stop offset=".501" stop-color="#035495"/><stop offset=".75" stop-color="#1D204E"/></radialGradient><path fill="url(#a)" d="M15.974 29.228c7.41 0 13.417-6.013 13.417-13.425 0-7.412-6.005-13.425-13.416-13.425-7.413 0-13.417 6.013-13.417 13.425 0 7.412 6.004 13.425 13.417 13.425z"/><radialGradient id="b" cx="310.212" cy="-126.019" r="29.289" gradientTransform="matrix(.875 0 0 -.8585 -249.03 -100.61)" gradientUnits="userSpaceOnUse"><stop offset=".119" stop-color="#FFF"/><stop offset=".122" stop-color="#FFFFFA"/><stop offset=".25" stop-color="#FFE560"/><stop offset=".287" stop-color="#FFDF56"/><stop offset=".347" stop-color="#F8D03B"/><stop offset=".406" stop-color="#F0BE1B"/><stop offset=".473" stop-color="#EB9D23"/><stop offset=".548" stop-color="#E57C27"/><stop offset=".765" stop-color="#DD5626"/><stop offset=".903" stop-color="#C33A28"/><stop offset="1" stop-color="#B02228"/></radialGradient><path fill="url(#b)" d="M26.137 23.764c.77-1.447 1.813-2.3 2.38-3.3.746-1.336 2.17-5.082 1.096-8.112.492 1.893.334 3.817-1.225 4.787.51-1.336.82-4.263.302-6.903-.342-1.717-1.414-3.252-2.105-3.73.643.486 1.16 2.21 1.145 3.007-1.343-2.266-3.546-4.437-6.872-5.353 2.585 1.703 3.548 3.15 4.15 4.44-.69-.71-1.868-1.44-2.67-1.504 1.19.89 3.196 3.53 2.98 7.53-.31-.643-.866-1.653-1.264-2.003.43 3.927.056 4.77-.206 5.814-.056-.478-.23-.843-.326-1.06 0 0-.048 1.227-.844 2.977-.604 1.328-1.224 1.732-1.503 1.685-.07-.01-.11-.04-.11-.04.016-.175.04-.35-.01-.47 0 0-.254.088-.42.317-.064.096-.15.184-.263.272-.017.014.183-.256.166-.248-.095.08-.207.175-.31.286-.39.405-.748.86-.93.73.165-.054.31-.27.34-.484-.15.11-.54.398-1.415.532-.357.056-1.876.334-3.904-.683.293-.032.74-.135 1.073.063-.334-.366-1.153-.294-1.733-.477-.51-.16-1.17-.876-1.55-1.234 1.56.383 3.213.104 4.167-.55.97-.66 1.542-1.144 2.05-1.025.51.112.853-.395.456-.857-.398-.46-1.37-1.074-2.68-.747-1.01.255-1.862 1.06-3.278.5-.087-.03-.175-.07-.263-.118-.087-.048.294.055.198 0-.27-.103-.764-.325-.89-.414-.024-.017.207.04.183.024-1.344-.796-1.256-1.432-1.256-1.82 0-.32.19-.74.548-.94.19.073.31.136.31.136s-.087-.135-.144-.207c.018-.007.025-.007.04-.015.16.055.518.182.693.278.247.12.326.246.326.246s.055-.04 0-.16c-.024-.054-.112-.206-.35-.35h.007c.127.047.262.11.405.2.048-.215.136-.44.08-.828-.05-.278-.04-.342-.104-.445-.055-.087.016-.12.103-.048-.023-.072-.054-.135-.086-.207.072-.342 2.092-1.4 2.242-1.51.207-.152.42-.39.557-.668.095-.175.166-.422.15-.788-.016-.263-.166-.422-2.322-.398-.588.008-.97-.334-1.2-.66-.048-.072-.087-.135-.127-.198-.048-.088-.088-.175-.112-.238.255-.93.772-1.742 1.577-2.402.047-.04-.19.023-.144-.016.055-.048.398-.215.46-.247.08-.048-.374-.167-.754-.088-.39.08-.462.127-.67.23.08-.087.343-.214.28-.206-.423.094-.924.373-1.345.667 0-.04 0-.072.008-.127-.198.104-.684.477-.803.755 0-.063 0-.095-.008-.16-.136.128-.27.28-.39.44 0 0 0 .006-.008.006-1.254-.31-2.32-.237-3.218.05-.215-.152-.556-.39-1.097-1.225-.033-.048-.033.11-.065.064-.215-.384-.39-1.036-.414-1.497 0 0-.35.2-.572.915-.04.127-.072.2-.096.27-.006.023.018-.23.01-.207-.04.09-.168.232-.207.39-.032.12-.08.192-.096.343 0 0 0 .008-.008.008 0-.038-.008-.174-.016-.15-.103.263-.19.565-.27.907-.113.54-.224 1.28-.153 2.218 0 .08.008.15.008.215-.34.47-.556.867-.643 1.066-.413.803-.834 2.044-1.177 3.968 0 0 .232-.723.685-1.543-.334 1.035-.605 2.642-.445 5.052.008-.08.08-.69.255-1.512.087 1.606.47 3.57 1.717 5.71.955 1.63 3.46 5.415 9.75 6.83-.692-.198-1.12-.597-1.12-.597s2.353.757 4.063.692c-.54-.095-.645-.35-.645-.35s6.1.343 8.208-2.528c-.723.843-2.545 1.08-3.236 1.09 1.05-.964 3.37-.948 5.893-3.42 1.383-1.36 1.526-2.395 1.678-3.357-.2 1.26-1.41 2.02-2.666 2.714z"/></svg>