<svg xmlns="http://www.w3.org/2000/svg" width="32" height="32" viewBox="0 0 32 32"><radialGradient id="a" cx="292.779" cy="205.561" r="29.887" gradientTransform="matrix(.9408 0 0 .8863 -259.476 -179.82)" gradientUnits="userSpaceOnUse"><stop offset="0" stop-color="#52C4F1"/><stop offset=".077" stop-color="#45BBEC"/><stop offset=".182" stop-color="#00A9DC"/><stop offset=".376" stop-color="#2276B8"/><stop offset=".501" stop-color="#035495"/><stop offset=".75" stop-color="#1D204E"/></radialGradient><path fill="url(#a)" d="M15.97 31.117c8.47 0 15.334-6.87 15.334-15.342C31.304 7.305 24.44.432 15.97.432 7.5.432.637 7.304.637 15.775c0 8.47 6.862 15.342 15.333 15.342z"/><radialGradient id="b" cx="301.852" cy="175.644" r="29.286" gradientTransform="matrix(1 0 0 .981 -278.535 -165.958)" gradientUnits="userSpaceOnUse"><stop offset=".119" stop-color="#FFF"/><stop offset=".122" stop-color="#FFFFFA"/><stop offset=".25" stop-color="#FFE560"/><stop offset=".287" stop-color="#FFDF56"/><stop offset=".347" stop-color="#F8D03B"/><stop offset=".406" stop-color="#F0BE1B"/><stop offset=".473" stop-color="#EB9D23"/><stop offset=".548" stop-color="#E57C27"/><stop offset=".765" stop-color="#DD5626"/><stop offset=".903" stop-color="#C33A28"/><stop offset="1" stop-color="#B02228"/></radialGradient><path fill="url(#b)" d="M27.586 24.873c.882-1.654 2.072-2.627 2.718-3.77.854-1.528 2.48-5.81 1.254-9.272.563 2.164.382 4.364-1.4 5.472.582-1.526.938-4.87.346-7.89-.39-1.962-1.617-3.716-2.408-4.262.736.555 1.327 2.527 1.31 3.436-1.536-2.59-4.054-5.07-7.854-6.117 2.954 1.944 4.054 3.6 4.744 5.07-.79-.808-2.136-1.644-3.054-1.717 1.363 1.018 3.654 4.036 3.408 8.607-.354-.736-.99-1.89-1.445-2.29.49 4.488.064 5.452-.236 6.643-.064-.545-.265-.963-.374-1.21 0 0-.054 1.4-.963 3.4-.69 1.52-1.4 1.98-1.718 1.927-.08-.01-.127-.045-.127-.045.018-.2.046-.4-.01-.537 0 0-.29.1-.48.364-.073.11-.173.21-.3.31-.02.018.208-.29.19-.282-.11.09-.237.2-.355.327-.445.463-.855.982-1.064.836.19-.063.354-.31.39-.555-.172.128-.617.455-1.617.61-.41.062-2.145.38-4.463-.782.336-.037.846-.154 1.227.072-.38-.418-1.318-.336-1.98-.545-.583-.182-1.337-1-1.773-1.41 1.782.438 3.672.12 4.763-.626 1.108-.755 1.763-1.31 2.345-1.173.582.127.973-.454.52-.98-.456-.528-1.565-1.23-3.064-.855-1.154.29-2.127 1.208-3.745.57-.1-.035-.2-.08-.3-.135-.1-.055.336.063.227 0-.31-.118-.873-.372-1.018-.473-.027-.02.236.046.21.027-1.537-.91-1.437-1.637-1.437-2.082 0-.364.218-.845.627-1.072.218.082.354.154.354.154s-.1-.154-.164-.236c.02-.01.027-.01.046-.018.182.063.59.208.79.318.283.136.374.282.374.282s.063-.045 0-.182c-.027-.063-.127-.236-.4-.4h.01c.145.054.3.127.462.227.055-.244.155-.5.09-.944-.054-.318-.044-.39-.117-.51-.063-.1.018-.135.118-.054-.027-.082-.063-.154-.1-.236.082-.39 2.39-1.6 2.563-1.727.236-.173.48-.446.636-.764.11-.2.19-.482.173-.9-.02-.3-.19-.482-2.654-.455-.673.01-1.11-.38-1.373-.753-.055-.082-.1-.154-.146-.227-.054-.1-.1-.2-.127-.272.29-1.063.88-1.99 1.8-2.745.054-.045-.218.027-.164-.018.064-.055.455-.246.527-.282.09-.055-.427-.19-.863-.1-.445.09-.527.145-.764.264.09-.1.39-.246.318-.236-.48.11-1.054.428-1.535.764 0-.045 0-.082.01-.145-.228.117-.783.544-.92.862 0-.073 0-.11-.008-.182-.155.146-.31.318-.446.5 0 0 0 .01-.008.01-1.436-.356-2.654-.274-3.68.054-.247-.173-.637-.445-1.255-1.4-.037-.055-.037.127-.073.073-.246-.437-.446-1.182-.473-1.71 0 0-.4.23-.653 1.046-.046.145-.082.227-.11.31-.008.026.02-.265.01-.237-.045.1-.19.264-.236.445-.036.137-.09.22-.108.392 0 0 0 .01-.01.01 0-.046-.008-.2-.017-.173-.118.3-.218.644-.31 1.035-.127.617-.254 1.463-.173 2.535 0 .09.01.173.01.246-.392.536-.637.99-.737 1.218C.873 11.222.39 12.64 0 14.84c0 0 .264-.828.782-1.765-.382 1.182-.69 3.018-.51 5.772.01-.092.092-.79.292-1.728.1 1.835.537 4.08 1.963 6.525 1.09 1.863 3.954 6.19 11.144 7.807-.79-.227-1.28-.682-1.28-.682s2.69.864 4.644.79c-.618-.108-.736-.398-.736-.398s6.972.39 9.38-2.89c-.826.963-2.908 1.235-3.7 1.244 1.2-1.1 3.855-1.082 6.736-3.908 1.58-1.555 1.745-2.736 1.918-3.836-.23 1.438-1.61 2.31-3.046 3.1z"/></svg>