<svg xmlns="http://www.w3.org/2000/svg" width="32" height="32" viewBox="0 0 32 32"><path fill="#00A7BF" d="M32 15.987c0 8.83-7.16 15.986-15.99 15.986S.02 24.817.02 15.987 7.18 0 16.01 0 32 7.157 32 15.987z"/><path fill="none" d="M15.99.052C7.173.052.026 7.198.026 16.012S7.174 31.975 15.99 31.975s15.962-7.146 15.962-15.958C31.952 7.197 24.805.05 15.99.052zm-1.86 12.784c-.11.122-.243.218-.39.273-.06.06-.123.08-.186.082l-.005.027c.03.053.05.11.04.174-.006.035-.026.173-.01.063-.006.03-.01.06-.018.085.003.002.004.005.008.01.32.264-.136.714-.45.45-.274-.23-.3-.712-.196-1.03.12-.37.454-.572.816-.677.057-.016.106-.017.15-.01.26-.006.44.316.238.544l.002.006zm4.643.35c-.088.152-.285.204-.438.116-.12-.07-.2-.178-.243-.308-.053-.166.06-.348.227-.394.153-.043.3.035.368.17.126.095.167.278.085.416zm1.176-3.422c-.132.065-.25.065-.37 0-.156-.08-.2-.292-.117-.438.064-.11.18-.16.3-.153.114-.008.23.044.294.153.084.146.04.357-.115.438h.007zM15.99.052C7.173.052.026 7.198.026 16.012S7.174 31.975 15.99 31.975s15.962-7.146 15.962-15.958C31.952 7.197 24.807.05 15.99.052zm-1.86 12.784c-.11.122-.243.218-.39.273-.06.06-.123.08-.186.082l-.005.027c.03.053.05.11.04.174-.006.035-.026.173-.01.063-.006.03-.01.06-.018.085.003.002.004.005.008.01.32.264-.136.714-.45.45-.274-.23-.3-.712-.196-1.03.12-.37.454-.572.816-.677.057-.016.106-.017.15-.01.26-.006.44.316.238.544l.002.006zm4.643.35c-.088.152-.285.204-.438.116-.12-.07-.2-.178-.243-.308-.053-.166.06-.348.227-.394.153-.043.3.035.368.17.126.095.167.278.085.416zm1.176-3.422c-.132.065-.25.065-.37 0-.156-.08-.2-.292-.117-.438.064-.11.18-.16.3-.153.114-.008.23.044.294.153.084.146.04.357-.115.438h.007z"/><g fill="#DCDDDE"><path d="M26.105 4.372c-.093.012.038 0 0 0M24.652 4.815c.146.323.278.61.662.432.092-.03.607.943.678.825.064-.13-.077-.056.102-.056.072 0-.07-.347-.055-.367.032-.044.08.014.104.01-.02.005-.29-.496-.26-.587.042-.115.164-.22.184-.28.06.04.24.172.26.258-.047-.09-.153.156-.072.355.085.262.482.38.717.428.382 0-.926-1.16-.966-1.194.115-.038.216-.013.302.075-.064-.038-.08-.068-.048-.09.01 0-.235-.207-.272-.228.164-.04-.103-.13-.128-.117.01-.01-.155-.16-.16-.143-.01.03-.35-.077-.442.058.02-.018-.22.33-.14.28-.085.052-.47.124-.503.207.01.045.022.09.035.133m.655-.19c0 .027.07.078.077.108-.18.028-.377.07-.688.15.2-.09.404-.18.61-.26M19.884 18.287c.04-.16-.43-.425-.625-.62-.23-.186-.182-.1-.46-.118-.05-.01-.538-.057-.502-.036.104.042-.262-.37-.312-.404-.215-.13-.595.208-.582.226.015-.055.012-.07-.008-.05.12-.17.41-.44-.03-.397-.295 0-.104.352-.435.352.07 0 .286-.396.31-.443.27-.245-.022-.3-.038-.48-.07-.464-.27-.756-.73-.85-.263-.06-.323.017-.516-.197-.09-.12-.207-.362-.362-.456-.063-.038-.113.024-.167-.004-.144-.065.11-.208-.077-.306-.312-.153-.06.046-.107-.19-.028-.144-.33.014-.39.04-.19.12-.14.096-.354-.02-.13-.076-.756-.147-.737-.325.003-.014-.143.418-.232.323-.152-.176.183-.27.106-.386-.037-.05-.535.302-.63.33-.258.088-.23.49-.432.634-.02.016-.25-.297-.32-.317-.188-.065-.248.08-.413.122-.26.103-.43-.45-.367-.682.093-.335.133-.613-.023-.86-.082-.124-.784.066-.784-.042-.02-.178.33-.913.46-1.073.283-.324-.276-.105-.392-.09-.206.053-.222.353-.31.508-.162-.01-.052.052-.102.12-.087.112-.746.095-.746-.238 0-.25-.18-.425-.093-.722.064-.178.26-.515.26-.686 0-.314.57-.666.545-.786.167-.027.893.068.895.064.04-.102-.075-.19-.07-.25.022-.138.324-.04.353-.057.12-.05.6.042.633.09.147.407.168 1.562.427.505.074-.353-.204-.776.132-1.06.22-.167.362-.333.578-.468.206-.17.333-.332.425-.5.015-.075.006-.748.16-.674.043.02-.185.476-.12.507.102.13.278-.512.24-.49.12-.068.296-.282.398-.295.1-.01.617-.3.596-.333-.057-.095-.05.075-.114-.003-.232-.264 1.057-.745 1.063-.73.006.012-.5.425-.188.425.053 0 .76-.358.766-.383.035-.096-.32-.133-.386-.186-.156-.13.02-.274-.044-.35-.033-.05-.167.076-.167-.023 0 .074.717-.44.013-.256-.09.024-.493.284-.534.225-.072-.105.9-.443.98-.436.384.012 1.158-.08 1.26-.532.047-.233-.36-.435-.46-.602-.112-.23-.065-.058-.065-.236 0-.077-.115-.603-.173-.627-.134-.047-.262.48-.51.37-.315-.185.14-.46-.185-.506-.2-.043-.325-.228-.665-.194-.15.015-.224.494-.395.62-.048.033.128.54-.045.54-.16 0-.56.315-.57.446-.007.095-.18.71-.388.537-.254-.226.17-.583.094-.76-.004-.01-1.047-.432-1.074-.29.05-.254.1-.207-.03-.36-.074-.074.895-.956.897-.903 0 .095 1.03-.55 1.028-.55.207.092.793-.328.707-.463-.13-.29-.502.16-.6.218-.467.273-.107-.118-.19-.178-.092-.08-.166.174-.226.14-.063-.028.12-.17.068-.212-.02-.02-.11.04-.113.024-.015-.043.264-.358-.034-.358-.076.02-.388.226-.372.32.005.018.145.034.145.068 0 .097-.126.028-.142.1-.01.05.125.02.1.05-.004.01-.49.187-.4.258-.077-.036.077-.16.07-.183.03.132-1.323.104-1.276.162.013.02.268-.07.264-.03.002-.02-.286.176-.325.225.128-.13-.65-.004-.633.01-.087-.16.262-.075.2-.22-.062-.118-.844.066-.833.075.006-.036.002-.07-.012-.103-.052-.042-.15.21-.206.116-.002-.044.005-.087.02-.128.02.038-.823.456-.823.456-.028-.09.44-.285.51-.34-.25 0-.567.276-.762.393-.102.067-.554-.014-.692.02-.307.07-.597.032-.834.2-.336.22-.712.467-1.073.66.006-.002-.34.133-.34.214.01-.07.073.21.004.147 0 .034.09-.09.07-.024-.008.055-.205.258-.26.23-.03-.014.078-.098.08-.1-.022.12-.614.227-.632.412 0 .017.09-.02.09-.018-.03.037-.105.06-.13.107.006-.016.345-.1.392-.158-.102.126-1.338.92-1.202 1.102.007.01.23-.125.23-.123-.007.08-.305.247-.285.31.004.01.263-.16.28-.13 0 .025-.01.047-.03.067-.032-.01.28-.175.276-.163 0 .29-1.187.822-1.405 1.037.214.027 2.623-1.636 2.59-1.81.03.08-.56.337-.566.476 0-.358 1.573-.69 1.484-.297.008-.038-.287.38-.2.358.1-.015.38-.422.372-.432.04.082-.223.924-.303.928.026 0 .076-.116.095-.063.022.077-.165.447-.154.457.12.074.26.106.234.322 0 .26-.325.125-.356.15-.134.093-.334.693-.482.866-.202.22-.333.492-.49.75-.108.18-.192 1.15-.082 1.216.298.17.23.173.276.61.01.174.013.303.072.45.083.244-.082.095-.18.234.084-.14.55.98.507.983.112 0-.213-1.86-.134-1.844.27.04.34.983.373 1.21.05.307.42.42.404.776-.013.222-.024.402.02.602.024.178 1.056.817 1.296.718.383-.156.322-.074.6.287.106.128.736.19.738.194.125.175.274.908.39.725.016-.03.184.41.18.404.085.044.116.03.09-.044.086.036.265.11.357.208.17.19.12-.072.174-.13.312-.31.332.04.448.36.11.317-.09 1.147-.344 1.318-.092.052-.302.292-.34.422-.13.322.19.345.2.48 0 .138-.292.24-.247.42.07.28.27.373.333.585.22.568.517 1.407.895 1.875.275.42.89.474 1.003.977.172.538.022 1.185.11 1.745.142.89-.002 1.916.178 2.84.063.262.463.415.35.73.012-.033.057.39.053.38.02.23.158.388.18.5 0 .18-.04.438.163.606.102.133.436.42.47.403-.06.028-.14-.17-.182-.08-.04.082.09.097.09.12l-.062.022c0 .254.498-.244.49-.227.04-.088-.275-.223-.096-.456.125-.16.174-.508.03-.58-.33-.11.024-.77.044-.937 0-.034-.323-.232-.225-.348-.002.004.377-.03.4-.055-.076-.4.143-.294.44-.395.58-.255-.108-.96-.072-.98.088-.055.444.242.636.116.18-.146.454-.673.5-.893.046-.206.187-.35.244-.543.074-.253-.142-.468.078-.68.22-.23.53-.503.865-.49.45.017.602-1.594.558-1.89-.11-.7.812-1.163.676-1.997"/><path d="M31.844 15.952c-.03.01-.835-.024-.746-.113-.013.008-.496-.697-.463-.724.044-.033.348-.72.348-.88 0-.127.013-.938.215-.787-.126-.218-.396-.877-.63-.92.014-.105-.694-1.294-.703-1.29.02-.01.224.4.274.412.092.024.017-.253.025-.298 0 .117.31.006.313 0 .068-.1-.137-.18-.147-.238-.02-.084.19-.046.22-.118-.25-.345.196-.15.038-.46-.178-.365.152-.178.28-.17-.068-.085-.153-.328-.246-.365.04.025.127.076.153.107-.006-.015-.23-.388-.26-.403.038.025.042.027.012.006.047.01.093.025.137.045.064-.037-.64-.59-.813-.59.49.184.132.31-.214.174-.122.054-.697-.377-.908-.272-.052.02.06.107.057.103.02.054-.324-.06-.336-.02-.025.125.23.216.16.3-.03.032-.144-.047-.148-.034-.024.08.554.52.65.554.16.048.508.08.77.11-.048.196.37 1.025-.08.868-.497-.192-.99-.142-1.447-.57-.354-.347-.087.555-.43.294-.25-.208-.56-.346-.783-.564-.146-.117-.484-.11-.52-.324-.02-.1.122-.364.02-.526-.07-.127-.75-.125-.934-.16-.55-.13-.81.365-1.354-.023.054-.055.595-.176.628-.176.18 0 .11-.314.11-.408 0-.293.34-.227.27-.492-.02-.07.475.023.588-.147.007-.023.686.658.772.708.26.127.455.68.555.715.12-.18-.11-.393-.034-.46.012-.013.178.128.21.128-.132-.248-1.205-.822-1.053-1.173.04.01.063-.006.072-.045.24.058 1.573 2.023 1.844 1.834.074-.033-.12-.168-.127-.173.034.04.07.05.103.027-.01.042-.38-.446-.32-.435.034.007.08.108.11.127.02.006.432-.064.635.027 0-.112-.494-.53-.322-.694.03.002.062.005.092.01-.018-.09-.038-.16.025-.23-.013.012.35.187.348.185.026.038.167.417.394.29-.012 0-.27-.204-.305-.253.012.02.335-.026.36-.05.167-.174-.273-.276-.373-.39-.084-.08-1.17-.842-1.127-.856.02.024.044.03.07.02-.072-.376-.68-.552-.792-.93.163-.234-.43-.386-.426-.413-.02.108.238.21.238.337 0-.016-.386-.33-.207.128.14.306-.31 0-.393.008-.228.023-.926-.163-.744-.48.006-.02-.12-.25-.145-.265-.278-.172.046.638.05.64-.126-.03-.262-.144-.41-.027-.062.063.035.208.037.264-.03-.276-.377.32-.324.26-.046.056-.27-.163-.3-.15-.077.02.084.148.052.197 0-.004-.395-.087-.382-.047 0 .174.52.476.59.756 0 .67-.73-.125-1.016.14-.072.086.145 1.362.37 1.223.266-.09.24.496.132.626-.15.212-.39.015-.352.32.013.08.044.393.027.457-.086.332-.5.444-.662.745-.104.174-.36.79-.36 1.007.114.255.24.564.22.83-.015.327-.368.714-.032.902-.33.112.47.865.47 1.09 0 .466.817 1.048 1.134.895.33-.196.63.15.89-.063.218-.14.42-.215.685-.215.353 0 .222.32.458.45.102.055.276-.194.396-.025.216.243-.01.51.102.706-.01.003-.013-.003-.01-.017-.118.62.254 1.228.402 1.748.23.83-.39 1.275-.39 2.104 0 .167.146.636.226.8.157.315-.243.867-.01 1.184.387.48-.377 1.082.384.922.614-.344 1.105-.517 1.56-1.16.162-.23.313-.625.51-.813.168-.183.67-.516.46-.865-.025-.108.413-.58.57-.657.424-.3.515-.67.616-1.162-.015.052-.088-.746-.08-.726-.074-.188.07-.3.096-.478.062-.19.17-.31.278-.48-.158.033-.067-.988.046-.988m-4.6-7.492c.032 0-.006.038 0 0M24.12 8.816c-.014-.03.006.005 0 0M28.48 8.408c0 .002.002.007 0 0"/></g></svg>