<svg xmlns="http://www.w3.org/2000/svg" width="32" height="32" viewBox="0 0 32 32"><path fill="#006DBC" d="M7.53 11.217L8.2 8.104h3.61l-.668 3.113"/><path fill="#C8C8C8" d="M11.537 8.323l-.574 2.675h-3.16l.572-2.675h3.162m.542-.437H8.02l-.76 3.55h4.058l.76-3.55z"/><path fill="#006DBC" d="M2.264 27.738c.243-1.336.525-2.727.647-3.112 1.257-.005 1.796-.102 2.167-1.438l2.297-10.985h3.592l-2.752 13.41c-.205.99-1.342 2.1-2.646 2.107h-.084l-.02.02h-3.2z"/><path fill="#C8C8C8" d="M10.698 12.422l-2.7 13.146c-.188.905-1.268 1.926-2.434 1.933l-.177.02h-2.86c.2-1.1.424-2.204.55-2.676 1.196-.018 1.817-.184 2.216-1.623L7.55 12.423h3.148m.538-.442l-.004.004H7.196L4.866 23.13c-.34 1.227-.75 1.276-2.087 1.276-.14 0-.778 3.55-.778 3.55h3.545l.02-.02c1.376-.008 2.63-1.172 2.86-2.28l2.81-13.676z"/><g><path fill="#1A202E" d="M18.695 21.818c-.957 0-1.97-.033-2.917-.416-1.667-.675-2.76-2.538-2.926-4.984-.14-2.064.282-4.287 1.216-6.428 1.014-2.342 2.382-3.972 4.064-4.847 1.132-.587 2.445-.858 4.26-.88h.248c1.582 0 3.392.16 4.834 1.342.914.753 1.324 1.285 1.83 2.37.28.61.515 1.827.475 2.46-.107 1.58-.993 4.354-1.85 7.037l-.448 1.412s2.033-.013 2.18-.01c-.187.876-.55 2.428-.647 2.75 0 0-.04.188-.246.188l-10.075.006zm3.913-14.166c-.34 0-.698.03-1.067.09-1.89.313-3.395 1.725-4.13 3.877-.426 1.24-.67 2.233-.79 3.222-.124 1.03-.134 2.426.517 3.234.647.803 2.18.803 3.006.803h3.8l.05-.152c.01-.032 1-3.144 1.386-4.663l.037-.15c.29-1.133.615-2.418.462-3.623-.13-1.014-.78-1.947-1.615-2.324-.465-.21-1.02-.316-1.657-.316z"/><path fill="#C8C8C8" d="M22.64 4.045v.438c1.542 0 3.306.154 4.693 1.29.896.74 1.276 1.233 1.77 2.295.264.573.493 1.76.456 2.353-.105 1.554-2.38 8.682-2.38 8.682s2.143-.002 2.21 0c-.195.89-.497 2.17-.585 2.45l-.012.044h-.028l-10.07.004c-.934 0-1.924-.03-2.834-.398-2.35-.954-2.73-3.912-2.79-4.796-.136-2.03.28-4.218 1.2-6.327.993-2.294 2.328-3.888 3.964-4.738 1.1-.57 2.384-.834 4.162-.855h.245v-.442m-2.5 15.053h3.96l1.525-5.13c.293-1.15.626-2.458.468-3.704-.14-1.086-.84-2.088-1.74-2.496-.493-.222-1.08-.334-1.746-.334-.35 0-.72.03-1.103.094-1.972.324-3.54 1.79-4.302 4.02-.432 1.256-.678 2.264-.8 3.27-.13 1.07-.136 2.528.562 3.395.714.885 2.317.885 3.177.885M22.39 4.046c-1.505.018-3.01.204-4.357.904-1.985 1.03-3.295 2.95-4.162 4.952-.884 2.025-1.383 4.313-1.234 6.53.14 2.07 1.01 4.34 3.063 5.173.96.387 1.98.43 3 .43l10.07-.003s.415-.22.456-.343c.118-.385.555-2.28.708-3.03-.203-.006-2.147 0-2.147 0 .963-3.045 2.093-6.383 2.215-8.212.044-.68-.203-1.934-.493-2.565-.518-1.11-.943-1.67-1.89-2.45-1.43-1.167-3.722-1.404-5.227-1.387zM17.306 17.94c-.612-.763-.582-2.126-.47-3.07.138-1.126.432-2.165.78-3.18.638-1.863 1.953-3.4 3.96-3.73.328-.056.68-.09 1.03-.09.544 0 1.09.08 1.566.296.814.367 1.375 1.285 1.486 2.152.155 1.217-.2 2.527-.494 3.69-.39 1.532-1.383 4.65-1.383 4.65h-3.64c0 .002-2.276-.026-2.834-.72z"/></g></svg>