<svg xmlns="http://www.w3.org/2000/svg" width="32" height="32" viewBox="0 0 32 32"><path fill="#006DBC" d="M6.32 10.534l.764-3.557h4.125l-.764 3.557"/><path fill="#C8C8C8" d="M10.9 7.227l-.656 3.057H6.63l.656-3.057H10.9m.62-.5H6.88l-.87 4.057h4.636l.87-4.057z"/><path fill="#006DBC" d="M.303 29.414c.278-1.527.6-3.116.74-3.557 1.435-.006 2.05-.116 2.474-1.643L6.142 11.66h4.105L7.1 26.984c-.233 1.13-1.533 2.4-3.023 2.408h-.095l-.023.022H.302z"/><path fill="#C8C8C8" d="M9.94 11.91L6.857 26.934c-.214 1.036-1.45 2.202-2.78 2.21l-.204.02H.602c.232-1.257.487-2.52.63-3.058 1.367-.02 2.077-.208 2.533-1.854l2.58-12.34H9.94m.615-.504l-.004.005H5.94L3.276 24.15c-.39 1.403-.857 1.46-2.386 1.46-.16 0-.886 4.056-.886 4.056h4.05l.024-.02c1.572-.01 3.006-1.34 3.268-2.61l3.21-15.628z"/><g><path fill="#1A202E" d="M19.08 22.648c-1.094 0-2.252-.037-3.334-.474-1.905-.772-3.155-2.9-3.344-5.696-.158-2.36.322-4.9 1.39-7.346 1.16-2.676 2.722-4.54 4.645-5.538 1.293-.67 2.794-.98 4.867-1.005l.284-.002c1.807 0 3.876.182 5.524 1.532 1.045.86 1.514 1.47 2.09 2.71.32.695.59 2.087.544 2.81-.122 1.804-1.134 4.975-2.112 8.04l-.513 1.615.347-.004s.83-.01 1.602-.01c.188 0 .374 0 .543.003-.215 1.002-.628 2.776-.74 3.144l-.024.098c-.02.085-.024.117-.26.117l-11.51.006zM23.552 6.46c-.39 0-.8.035-1.22.104-2.16.356-3.88 1.97-4.72 4.43-.487 1.416-.766 2.553-.903 3.683-.143 1.176-.155 2.77.59 3.695.738.918 2.49.918 3.433.918h4.343l.056-.174c.012-.036 1.142-3.59 1.584-5.328l.044-.172c.33-1.295.703-2.763.528-4.14-.148-1.158-.89-2.225-1.845-2.656-.53-.238-1.166-.36-1.89-.36z"/><path fill="#C8C8C8" d="M23.587 2.34v.5c1.763 0 3.778.174 5.364 1.474 1.025.844 1.46 1.408 2.024 2.622.3.655.563 2.012.52 2.688-.118 1.775-1.125 4.932-2.1 7.984l-.408 1.286-.21.66.692-.01s.83-.01 1.6-.01h.233c-.222 1.016-.567 2.49-.666 2.812-.005.015-.01.03-.014.048H20.063l-.492.003-.49.002c-1.068 0-2.2-.036-3.24-.457-2.687-1.09-3.12-4.47-3.188-5.48-.156-2.32.318-4.82 1.37-7.23 1.135-2.62 2.66-4.442 4.53-5.414 1.256-.653 2.723-.955 4.755-.978h.28v-.503m-2.855 17.2h4.525l.11-.35c.048-.145 1.146-3.597 1.59-5.34l.043-.172c.335-1.316.715-2.81.534-4.234-.16-1.24-.958-2.385-1.99-2.85-.562-.255-1.232-.384-1.993-.384-.4 0-.824.036-1.26.107-2.253.37-4.045 2.046-4.916 4.594-.493 1.436-.774 2.587-.915 3.736-.148 1.224-.156 2.89.642 3.882.816 1.012 2.647 1.012 3.63 1.012m2.855-17.2H23.3c-1.72.02-3.438.233-4.98 1.033-2.27 1.18-3.766 3.37-4.757 5.66-1.01 2.313-1.58 4.928-1.41 7.462.16 2.365 1.153 4.96 3.5 5.91 1.097.443 2.264.492 3.428.492.33 0 .657-.004.983-.004H30.59c.52 0 .473-.25.52-.392.135-.437.633-2.603.81-3.462-.235-.005-.54-.007-.852-.007-.773 0-1.604.012-1.604.012 1.1-3.48 2.39-7.296 2.53-9.387.05-.777-.232-2.21-.564-2.93-.59-1.27-1.077-1.908-2.16-2.8-1.632-1.334-3.656-1.586-5.683-1.586zm-2.855 16.7c-1.045 0-2.602-.033-3.24-.824-.7-.87-.665-2.43-.535-3.51.156-1.284.492-2.47.89-3.632.73-2.128 2.232-3.885 4.525-4.263.376-.06.777-.1 1.18-.1.62 0 1.244.093 1.788.338.93.42 1.572 1.468 1.7 2.46.176 1.39-.23 2.887-.567 4.218-.445 1.75-1.58 5.313-1.58 5.313H20.73z"/></g></svg>