<svg xmlns="http://www.w3.org/2000/svg" width="32" height="32" viewBox="0 0 32 32"><path fill="#FFF" d="M24.505 9.09c-.89.894-2.33.894-3.223 0-.89-.89-.89-2.33 0-3.22.892-.89 2.333-.89 3.223 0 .89.89.887 2.332 0 3.22z"/><path fill="#C8C8C8" d="M3.626 29.34s.207.66.59.66c.108 0 .23-.052.367-.187.617-.62 2.773-2.776 2.773-2.776l.28-2.59 2.59-.28.28-2.59 2.59-.276.28-2.59 2.59-.275 1.652-1.658c.975.42 2.018.63 3.06.63 1.97 0 3.937-.75 5.44-2.252 3.007-3.01 3.007-7.887 0-10.895-1.504-1.505-3.476-2.257-5.447-2.257-1.97 0-3.943.752-5.448 2.257-2.298 2.297-2.835 5.686-1.623 8.496L3.69 22.67l-.064 6.67z"/><path fill="#FFF" d="M12.46 17.863l-.08.74-.192 1.788-1.79.192-.735.078 2.797-2.797M9.59 20.733l-.08.736-.192 1.788-1.79.193-.736.08 2.798-2.797M6.722 23.6l-.08.738-.242 2.24c-.387.387-1.15 1.15-1.765 1.768l.024-2.683L6.72 23.6M25.41 4.965C24.142 3.698 22.46 3 20.67 3s-3.475.7-4.742 1.965c-1.953 1.952-2.507 4.854-1.412 7.393l.27.623-.48.48-.048.048.148.148.423.422.708.707-.708.708-2.302 2.302.74-.08 2.238-.238 1.403-1.407.478-.48.625.268c.844.364 1.74.55 2.664.55 1.787 0 3.467-.697 4.73-1.96 2.614-2.616 2.614-6.87.002-9.483zm-.905 4.126c-.444.447-1.027.67-1.61.67s-1.166-.223-1.612-.67c-.89-.89-.89-2.33 0-3.22.446-.446 1.03-.668 1.612-.668s1.166.223 1.61.667c.89.89.887 2.332 0 3.22z"/><path fill="#FFF" d="M3.673 24.39L13.7 14.365l.424.422-10.46 10.46"/></svg>