<svg xmlns="http://www.w3.org/2000/svg" width="32" height="32" viewBox="0 0 32 32"><path fill="#FFF" d="M24.506 9.09c-.89.893-2.332.893-3.224 0-.89-.89-.89-2.33 0-3.222.892-.89 2.334-.89 3.224 0s.887 2.334 0 3.222z"/><path fill="#C8C8C8" d="M3.625 29.34s.207.662.59.662c.108 0 .23-.053.367-.188.617-.62 2.774-2.775 2.774-2.775l.28-2.593 2.59-.278.278-2.592 2.59-.276.28-2.59 2.59-.275 1.653-1.658c.975.42 2.02.63 3.062.63 1.967 0 3.936-.75 5.437-2.253 3.008-3.01 3.008-7.888 0-10.896-1.503-1.504-3.476-2.256-5.447-2.256-1.972 0-3.943.752-5.448 2.257-2.3 2.3-2.835 5.688-1.623 8.498L3.69 22.67l-.065 6.67z"/><path fill="#FFF" d="M12.46 17.863l-.08.74-.192 1.788-1.79.192-.736.078 2.798-2.797M9.59 20.732l-.08.737-.192 1.79-1.79.192-.737.08 2.8-2.8M6.722 23.603l-.08.736-.242 2.24-1.766 1.767.024-2.683 2.064-2.06M25.41 4.964C24.144 3.697 22.46 3 20.67 3s-3.475.698-4.74 1.964c-1.954 1.953-2.51 4.854-1.413 7.394l.27.624-.48.48-.048.047.147.147.423.422.71.706-.71.708-2.3 2.302.74-.08 2.236-.238 1.403-1.407.478-.48.625.27c.844.363 1.74.548 2.663.548 1.787 0 3.47-.696 4.73-1.96 2.616-2.616 2.616-6.87.004-9.484zm-.904 4.126c-.443.446-1.026.67-1.61.67-.583 0-1.166-.224-1.612-.67-.89-.89-.89-2.33 0-3.222.446-.446 1.03-.667 1.613-.667s1.166.224 1.61.668c.888.89.886 2.334 0 3.222z"/><path fill="#FFF" d="M3.672 24.392l10.03-10.028.422.422-10.462 10.46"/></svg>