<svg xmlns="http://www.w3.org/2000/svg" width="32" height="32" viewBox="0 0 32 32"><path fill="#C8C8C8" d="M30.33 28h-28l1.778-3.998H28.55L30.33 28z"/><path fill="#999" d="M30.33 28h-28v1.22h28V28z"/><path fill="#B4B4B4" d="M26.81 5.485H5.8c-1.783 0-1.722-.04-1.722 1.6v16.917h24.456V7.085c0-1.64.06-1.6-1.724-1.6z"/><path fill="#FFF" d="M27.576 22.978H4.93V6.754h22.646v16.224z"/><path fill="#C8C8C8" d="M20.32 13.09c.45 2.68-3.254 6.38-3.254 6.38s2.507-3.88 1.944-6.733c-.563-2.852.994-5.984.994-5.984h2.817c-.003 0-2.415 4.19-1.962 6.875l-.537-.538z"/></svg>