<svg xmlns="http://www.w3.org/2000/svg" width="32" height="32" viewBox="0 0 32 32"><path fill="#B4B4B4" d="M32 28.995H0v-4.02h32v4.02z"/><path fill="#C8C8C8" d="M31.516 28.51H.486v-3.047h31.03v3.047z"/><path fill="#B4B4B4" d="M30.117 24.89H1.882V6.182c0-1.753 1.425-3.178 3.177-3.178H26.93c1.754 0 3.18 1.425 3.18 3.178V24.89h.005zm-27.265-.972h26.296V6.183c0-1.218-.99-2.208-2.21-2.208H5.06c-1.217 0-2.208.99-2.208 2.208v17.735z"/><path fill="#C8C8C8" d="M29.633 24.402V6.182c0-1.484-1.207-2.69-2.693-2.69H5.06c-1.49 0-2.698 1.206-2.698 2.69v18.22h27.271z"/><path fill="#FFF" d="M28.063 23.104H3.937V5.73h24.125v17.374z"/><path fill="#C8C8C8" d="M28.305 23.348H3.695V5.49h24.61v17.858zM4.18 22.86h23.64V5.98H4.18v16.88zm16.037-9.27c.52 2.712-4.39 5.91-4.39 5.91s2.9-3.93 2.25-6.82c-.653-2.89 1.286-6.43 1.286-6.43h3.887s-3.555 4.614-3.032 7.334v.006z"/><path fill="none" d="M20.217 13.584c.52 2.718-4.39 5.916-4.39 5.916s2.9-3.93 2.25-6.82c-.653-2.89 1.286-6.43 1.286-6.43h3.887s-3.555 4.614-3.033 7.334z"/></svg>