<svg xmlns="http://www.w3.org/2000/svg" width="32" height="32" viewBox="0 0 32 32"><path fill="#FFF" d="M4.63 31.5c-.63 0-1.163-.354-1.163-.774V12.868c0-.26 0-.803 1.41-.803h.5v-.5C5.376 5.688 9.902.84 15.68.53L16.11.51l.206.023C22.096.84 26.62 5.69 26.62 11.566v.5h.5c1.41 0 1.41.542 1.41.803v17.857c0 .42-.53.774-1.16.774H4.63zM16 4.006c-4.096 0-7.185 3.25-7.185 7.563v.5l.5.026h13.87v-.5c0-4.34-3.088-7.59-7.185-7.59z"/><path fill="#C8C8C8" d="M15.94 1.01l.35.02c5.514.296 9.832 4.923 9.832 10.535v1h1c.91 0 .91.205.91.303v17.856c-.01.065-.242.276-.662.276H4.63c-.42 0-.65-.21-.663-.274V12.868c0-.1 0-.303.91-.303h1v-1c0-5.612 4.318-10.24 9.832-10.535l.23-.02M8.314 12.597h14.37l1-.027v-1c0-4.597-3.303-8.064-7.685-8.064-4.38 0-7.685 3.466-7.685 8.063v1.026M16.257 0h-.514c-.03 0-.058.004-.087.004V.03C9.66.354 4.876 5.424 4.876 11.566c-.595 0-1.908.058-1.908 1.303v17.857c0 .706.743 1.275 1.66 1.275H27.37c.92 0 1.662-.57 1.662-1.274V12.868c0-1.245-1.313-1.303-1.91-1.303 0-6.142-4.78-11.212-10.778-11.534V.005c-.03 0-.06-.004-.087-.004zM9.315 11.596v-.027c0-4.278 3.038-7.064 6.685-7.064 3.646 0 6.686 2.785 6.686 7.063v.026H9.316z"/><path fill="#B4B4B4" d="M18.053 26h-4.105l.892-4.35c-.54-.36-.892-.964-.892-1.65 0-1.106.92-2 2.052-2 1.135 0 2.054.896 2.054 2 0 .682-.354 1.29-.896 1.648L18.053 26z"/></svg>