<svg xmlns="http://www.w3.org/2000/svg" width="32" height="32" viewBox="0 0 32 32"><path fill="#fff" d="M25.163 11.592h-.202c0-.01.008-.017.008-.025C24.968 5.187 20.948 0 16 0c-4.94 0-8.963 5.188-8.963 11.568v.023h-.202c-.723 0-1.308.57-1.308 1.28V30.73c0 .707.585 1.277 1.308 1.277h18.328c.724 0 1.31-.57 1.31-1.275V12.87c0-.706-.586-1.276-1.31-1.276v-.002zM17.818 25.34H14.18l.79-3.854c-.478-.318-.79-.854-.79-1.463 0-.98.814-1.77 1.818-1.77 1.006 0 1.82.793 1.82 1.77 0 .605-.314 1.145-.795 1.46l.795 3.857zm3.653-13.748H10.53v-.025c0-4.378 2.505-8.076 5.47-8.076s5.473 3.7 5.473 8.08v.028-.006z"/></svg>