<svg xmlns="http://www.w3.org/2000/svg" width="32" height="32" viewBox="0 0 32 32"><path fill="#fff" d="M29.652 0C30.948 0 32 1.053 32 2.347v27.307C32 30.948 30.948 32 29.652 32H2.347C1.053 32 0 30.948 0 29.652V2.347C0 1.053 1.053 0 2.347 0h27.305"/><path fill="#777" d="M28.123 3.854c0 1.118-.902 2.02-2.02 2.02H5.897c-1.116 0-2.02-.904-2.02-2.02s.904-2.02 2.02-2.02h20.207c1.117 0 2.02.904 2.02 2.02zm0 15.125c0 1.11-.902 2.02-2.02 2.02H5.897c-1.116 0-2.02-.91-2.02-2.02 0-1.12.904-2.027 2.02-2.027h20.207c1.117 0 2.02.905 2.02 2.02v.006zm0-7.57c0 1.117-.902 2.02-2.02 2.02H5.897c-1.116 0-2.02-.903-2.02-2.02 0-1.115.904-2.02 2.02-2.02h20.207c1.117 0 2.02.905 2.02 2.02z"/><path fill="#5B5B5B" d="M10.705 29.833V25c0-.248.02-.646.06-1.197h-.02c-.046.146-.088.273-.126.38-.04.11-.08.196-.11.267l-2.44 5.38h-.28l-2.445-5.35c-.072-.165-.145-.395-.22-.69h-.02c.013.15.022.32.027.514.005.193.007.405.007.64v4.89h-.63v-7.002h.766l2.38 5.267c.05.108.096.218.143.34.046.108.09.232.13.362h.027c.045-.132.087-.25.125-.357.038-.108.085-.226.14-.35l2.397-5.27h.727v7.002h-.64l-.002.006zm2.65-2.388c.004.306.045.58.123.824.078.242.19.448.337.618.147.163.325.3.535.383.21.09.447.137.71.137.563 0 1.095-.197 1.596-.59v.614c-.478.343-1.058.513-1.738.513-.335 0-.64-.06-.913-.178-.273-.117-.506-.287-.698-.51-.192-.225-.34-.5-.444-.822-.104-.324-.156-.695-.156-1.112 0-.373.057-.72.17-1.04.115-.32.273-.595.475-.827.202-.23.44-.414.718-.547.277-.13.58-.195.908-.195.322 0 .607.06.854.17.248.112.455.272.623.48.167.208.295.462.383.762s.133.635.133 1.006v.313h-3.61l-.005.005zm2.97-.547c-.01-.52-.133-.926-.37-1.21-.24-.288-.57-.433-.992-.433-.21 0-.408.037-.588.112-.18.073-.34.184-.476.323-.14.144-.25.313-.34.52-.09.204-.158.434-.19.687h2.955zm5.243 2.935v-2.88c0-1.13-.41-1.695-1.23-1.695-.218 0-.42.043-.605.13s-.346.205-.48.358c-.134.152-.238.335-.314.544-.077.21-.116.438-.116.683v2.86H18.2v-5h.624v.87h.02c.372-.658.932-.987 1.676-.987.547 0 .965.18 1.25.532.287.354.43.867.43 1.538v3.047h-.632zm5.4 0v-.85h-.02c-.34.645-.863.967-1.576.967-1.188 0-1.782-.726-1.782-2.18V24.83h.625v2.822c0 .6.105 1.042.32 1.327.213.288.54.43.98.43.213 0 .41-.04.586-.123.18-.082.333-.2.462-.353.127-.15.228-.332.3-.543.07-.213.106-.446.106-.702v-2.86h.62v5h-.626l.006.005z"/></svg>