<svg xmlns="http://www.w3.org/2000/svg" width="32" height="32" viewBox="0 0 32 32"><path fill="#C8C8C8" d="M23.188 32H8.81c-2.025 0-3.674-1.648-3.674-3.674V3.676C5.136 1.65 6.784 0 8.81 0h14.377c2.026 0 3.676 1.648 3.676 3.676v24.65c0 2.026-1.65 3.674-3.675 3.674z"/><path fill="#B4B4B4" d="M26.27 28.326c0 1.7-1.378 3.08-3.083 3.08H8.81c-1.702 0-3.08-1.38-3.08-3.08V3.676C5.73 1.973 7.108.593 8.81.593h14.377c1.705 0 3.084 1.38 3.084 3.083v24.65z"/><path fill="#FFF" d="M24.475 25.417H7.525V3.16h16.95v22.257z"/><path fill="#C8C8C8" d="M24.77 25.713H7.23V2.863h17.54v22.85zM7.822 25.12H24.18V3.456H7.82V25.12h.002z"/><path fill="#C8C8C8" d="M18.21 12.893c.578 3.43-4.847 7.467-4.847 7.467s3.206-4.96 2.486-8.607c-.722-3.645 1.423-8.117 1.423-8.117h4.29c0 .004-3.927 5.824-3.352 9.257z"/><path fill="#FFF" d="M15.998 30.377c-1.022 0-1.854-.833-1.854-1.858 0-1.03.832-1.86 1.854-1.86 1.025 0 1.857.83 1.857 1.855 0 1.024-.832 1.857-1.857 1.857v.005z"/></svg>