<svg xmlns="http://www.w3.org/2000/svg" width="32" height="32" viewBox="0 0 32 32"><path fill="#C8C8C8" d="M28.44 32H3.56V0h24.88v32zM4.746 30.812h22.51V1.467H4.746v29.346z"/><path fill="#FFF" d="M4.748 30.672h22.507V1.328H4.748v29.344z"/><path fill="#F00" d="M6.65 25.346c-.23 0-.403-.068-.53-.154-.49-.32-.56-.7-.534-.97.118-1.18 2.677-2.29 3.188-2.5l.287.7c1.988-2.676 4.216-7.302 4.216-11.012h.764c0 5.145-4.205 12.42-6.646 13.724-.29.158-.54.216-.745.216v-.004zm2.4-2.914c-1.27.53-2.657 1.4-2.703 1.87-.003.03-.012.12.2.26.122.083.382-.04.488-.098.55-.294 1.265-1.02 2.016-2.026v-.006zm2.178-.49l-.4-.65c4.375-2.702 12.773-2.942 15.17-1.542.61.354.727.77.72 1.052-.024.59-.31.85-.55.966-1.066.516-3.355-1.078-3.8-1.404l.44-.61c-3.326-.288-8.43.243-11.586 2.19l.006-.003zm11.6-2.183c1.113.8 2.582 1.52 3.006 1.318.025-.018.107-.057.118-.31.006-.15-.235-.312-.34-.37-.536-.312-1.53-.54-2.782-.65l-.003.01zm-1.89-.85C16.47 16.367 12.22 9.12 12.29 6.353c.017-.706.323-1.01.577-1.138.525-.264.894-.138 1.11.017.97.69.67 3.46.6 4.01l-.75-.102c1.343 3.05 4.267 7.27 7.493 9.104l-.377.662-.004.004zM13.44 5.83c-.05 0-.12.017-.23.07-.135.065-.155.355-.16.475-.015.62.265 1.604.77 2.753.17-1.363.1-3-.286-3.27-.012-.01-.038-.028-.092-.028h-.002z"/></svg>