<svg xmlns="http://www.w3.org/2000/svg" width="32" height="32" viewBox="0 0 32 32"><path fill="#FFF" d="M7.915 7.568l-.027.1 3.124 5.41c.016.028.043.038.063.038l.037-.012 2.05-1.178c.037-.02.05-.066.03-.1l-3.125-5.413-.097-.026-.376.212-1.68.968zM17.95 20.204l-.062-.104-2.052 1.183c-.037.022-.05.067-.03.102l3.124 5.41c.02.034.057.037.067.037l.034-.01 2.054-1.187.027-.096-3.062-5.315-.1-.02zM21.812 24.68c.1-.047 1.093-.66 1.093-.66.846-.676 1.255-1.524 1.216-2.523-.205-5.082-6.83-15.15-9.407-16.116-.375-.14-.766-.21-1.162-.21-.984 0-1.874.44-2.497.86l2.815 4.88c.343-.157.695-.236 1.05-.236 1.31 0 2.582 1.05 3.778 3.122 1.987 3.452 1.37 5.27.414 6.207l2.702 4.678z"/><path fill="#C8C8C8" d="M13.55 5.417c.366 0 .727.066 1.075.197 2.533.95 9.042 10.876 9.246 15.892.037.915-.34 1.695-1.12 2.318l-.295.234-.46.248c-.027.016-.056.03-.084.046l-2.49-4.313c.942-1.036 1.468-2.94-.508-6.37-1.244-2.155-2.587-3.247-3.993-3.247-.32 0-.636.058-.945.17L11.388 6.11c.574-.358 1.336-.693 2.162-.693M9.94 6.693l2.947 5.103L11.14 12.8 8.194 7.696l1.15-.664v.008l.596-.347m7.923 13.71l.03.053 2.914 5.05-1.746 1.013-2.95-5.105 1.753-1.012M16 0C7.177 0 0 7.178 0 16s7.177 16 16 16c1.03 0 2.057-.098 3.048-.29l-.187-.953c-.93.183-1.89.272-2.86.272C7.718 31.03.97 24.287.97 16S7.712.97 16 .97 31.03 7.71 31.03 16c0 3.922-1.5 7.633-4.23 10.45-1.165 1.203-1.637 1.383-1.843 1.383h-.027c-.016-.003-.05-.008-.1-.103-.47-.87-1.493-2.95-1.77-3.516.756-.604 1.358-1.48 1.31-2.73-.208-5.133-6.815-15.307-9.57-16.34-.427-.16-.847-.228-1.25-.228-1.124 0-2.125.526-2.836 1.042.013.01.026.03.038.05l3.017 5.23c.323-.182.71-.316 1.148-.316.982 0 2.22.674 3.56 2.996 2.03 3.524 1.25 5.23.314 6.033L21.707 25c.174-.073.35-.16.526-.255.338.69 1.275 2.59 1.732 3.44.232.435.574.562.82.6.056.008.112.012.17.012.81 0 1.686-.803 2.53-1.678C30.4 24.124 32 20.174 32 16c0-8.822-7.177-16-16-16zm-5.994 6.127c-.055 0-.11.014-.162.044v-.004L7.79 7.352c-.154.088-.207.287-.118.44l3.125 5.413c.06.103.168.16.278.16.055 0 .11-.014.162-.044l2.053-1.18c.154-.09.208-.286.12-.44L10.284 6.29c-.06-.103-.167-.16-.278-.16zm7.918 13.712c-.054 0-.11.014-.16.044L15.71 21.07c-.154.09-.207.284-.12.44l3.126 5.41c.06.104.17.162.283.162.053 0 .108-.014.158-.042l2.053-1.188c.16-.09.21-.285.12-.438l-3.12-5.41h-.006c-.06-.106-.17-.165-.28-.165z"/></svg>