<svg xmlns="http://www.w3.org/2000/svg" width="32" height="32" viewBox="0 0 32 32"><path fill="#FFF" d="M8.926 8.622l-.024.086 2.734 4.736c.014.023.038.032.055.032l.033-.01 1.794-1.032c.032-.018.043-.058.026-.087L10.808 7.61l-.084-.02-.33.185-1.468.847zM17.705 19.68l-.053-.093-1.796 1.036c-.032.02-.043.058-.026.09l2.734 4.73c.018.032.05.035.058.035l.03-.008 1.796-1.04.024-.084-2.68-4.65-.087-.017zM21.086 23.597c.088-.043.956-.58.956-.58.74-.59 1.1-1.333 1.063-2.207-.18-4.446-5.976-13.256-8.23-14.102-.33-.123-.67-.185-1.018-.185-.86 0-1.64.386-2.185.752l2.463 4.27c.3-.137.608-.206.92-.206 1.145 0 2.257.918 3.304 2.73 1.737 3.02 1.197 4.612.36 5.432l2.366 4.095z"/><path fill="#C8C8C8" d="M13.856 6.74c.32 0 .637.058.94.173 2.218.83 7.913 9.516 8.09 13.905.033.8-.298 1.483-.98 2.028l-.257.205-.403.22-.074.038-2.18-3.773c.825-.905 1.285-2.572-.444-5.574-1.09-1.884-2.264-2.84-3.495-2.84-.28 0-.556.052-.826.15l-2.265-3.924c.502-.313 1.17-.606 1.89-.606M10.7 7.856l2.58 4.465-1.53.88L9.17 8.734l1.007-.58v.006l.52-.304m6.934 11.996l.028.048 2.55 4.42-1.53.886-2.58-4.467 1.533-.888M16 2C8.28 2 2 8.28 2 16s6.28 14 14 14c.9 0 1.8-.086 2.667-.254l-.163-.834c-.813.16-1.654.238-2.503.238-7.248 0-13.15-5.898-13.15-13.15S8.747 2.85 16 2.85 29.15 8.745 29.15 16c0 3.432-1.313 6.68-3.7 9.144-1.02 1.052-1.433 1.21-1.612 1.21h-.023c-.015-.002-.045-.007-.088-.09-.412-.762-1.307-2.582-1.55-3.076.663-.53 1.19-1.295 1.147-2.39-.183-4.49-5.963-13.393-8.375-14.296-.375-.14-.742-.2-1.095-.2-.983 0-1.86.46-2.48.912.01.008.022.026.033.043l2.64 4.576c.283-.16.622-.276 1.005-.276.86 0 1.942.59 3.116 2.622 1.773 3.082 1.093 4.574.273 5.278l2.55 4.42c.152-.066.308-.142.46-.225.297.602 1.116 2.266 1.516 3.008.203.384.502.494.718.528.048.006.098.01.147.01.71 0 1.477-.702 2.214-1.468C28.6 23.11 30 19.653 30 16c0-7.72-6.28-14-14-14zm-5.245 5.36c-.048 0-.096.013-.14.04v-.004l-1.8 1.037c-.133.077-.18.25-.102.385l2.734 4.737c.053.09.147.14.244.14.05 0 .098-.012.143-.04l1.796-1.03c.134-.08.18-.252.104-.386L11 7.502c-.054-.09-.148-.142-.245-.142zm6.928 12c-.047 0-.095.012-.14.038l-1.798 1.036c-.134.08-.18.25-.105.387l2.735 4.734c.054.09.15.143.248.143.048 0 .096-.013.14-.037l1.796-1.04c.14-.08.183-.25.104-.383l-2.73-4.733h-.006c-.05-.093-.147-.145-.245-.145z"/></svg>