<svg xmlns="http://www.w3.org/2000/svg" width="32" height="32" viewBox="0 0 32 32"><g fill="#999"><path d="M29.603 11.9l-7.695-.01c-.22 0-.395.113-.395.253L21.505 14c-.002.14.178.254.397.254l7.694.01c.22 0 .398-.115.398-.255L30 12.15c0-.138-.178-.252-.397-.253zM10.488 13.99l.003-1.857c0-.14-.177-.254-.396-.254L2.4 11.87c-.22 0-.4.115-.4.254v1.86-.003c0 .14.177.255.396.255l7.697.01c.22 0 .395-.114.395-.254zM27.836 8.36c-1.52-.795-6.626-1.3-11.866-1.294-5.24-.005-10.345.5-11.867 1.293-1.647.857-1.58 3.087-1.58 3.087l7.434.008c.02-.708.02-2.056 6.013-2.133 5.99.077 5.994 1.426 6.013 2.133l7.433-.008s.067-2.23-1.58-3.088z"/></g><g fill="#C8C8C8"><path d="M17.054 10.067h1.822v4.777h-1.822zM13.123 10.067h1.822v4.777h-1.822z"/></g><path fill="#B4B4B4" d="M5.998 20.17v4.764h20.428V20.17c0-4.46-4.918-6.695-10.428-6.695-5.51 0-10 2.233-10 6.694z"/><path fill="#FFF" d="M19.882 19.215c0 2.06-1.67 3.73-3.73 3.73-2.057 0-3.73-1.666-3.73-3.73 0-2.06 1.672-3.73 3.728-3.73 2.06 0 3.732 1.67 3.732 3.73z"/><path fill="#999" d="M19.583 19.215c0 .456-.37.822-.822.822-.456 0-.823-.368-.823-.822s.37-.822.822-.822c.455-.002.82.368.82.822h.003zm-5.217 0c0 .456-.37.822-.824.822-.456 0-.823-.368-.823-.822s.366-.822.822-.822c.455-.002.83.368.83.822h-.006zm4.21-2.426c.322.32.322.842 0 1.163-.32.32-.844.32-1.164 0-.322-.32-.322-.844 0-1.164.32-.324.844-.324 1.163 0zm-3.687 3.686c.323.32.323.844 0 1.164-.32.323-.843.323-1.165 0-.324-.32-.324-.843 0-1.164.324-.322.844-.322 1.164 0zm3.685 1.164c-.32.323-.843.323-1.163 0-.322-.32-.322-.843 0-1.164.32-.32.844-.32 1.163 0 .325.32.325.843 0 1.164zm-3.686-3.685c-.322.32-.843.32-1.165 0-.324-.323-.324-.846 0-1.164.32-.322.842-.322 1.164 0 .32.32.324.844 0 1.165zm1.258-.523c-.454 0-.822-.37-.822-.82 0-.456.37-.824.822-.824.457 0 .826.37.826.824 0 .45-.368.82-.826.82z"/></svg>