<svg xmlns="http://www.w3.org/2000/svg" width="32" height="32" viewBox="0 0 32 32"><path fill="#C8C8C8" d="M29.89 7.954H2.108c-1.09 0-1.984.893-1.984 1.984v9.922c0 1.09.893 1.984 1.984 1.984H8.06v7.938h15.877v-7.938h5.953c1.09 0 1.984-.894 1.984-1.984V9.938c0-1.092-.893-1.984-1.983-1.984"/><path fill="#FFF" d="M10 17.876h11.906V27.8H10z"/><path fill="none" d="M11.477 25.71h8.957"/><path fill="#B4B4B4" d="M20.434 26.323h-8.957v-1.22h8.957v1.22z"/><path fill="none" d="M11.477 23.27h8.957"/><path fill="#B4B4B4" d="M20.434 23.88h-8.957v-1.218h8.957v1.22z"/><path fill="none" d="M11.477 20.827h8.957"/><path fill="#B4B4B4" d="M20.434 21.438h-8.957v-1.22h8.957v1.22z"/><path fill="#C8C8C8" d="M8.31 2.248h15.378V5.72H8.308z"/><path fill="#B4B4B4" d="M23.44 2.496v2.977H8.557V2.496H23.44M23.938 2H8.06v3.97h15.877V2zM23.812 29.688H7.692v-7.815H2.07c-1.21 0-2.197-.987-2.197-2.198v-9.77c0-1.212.986-2.198 2.198-2.198h27.355c1.212 0 2.198.986 2.198 2.198v9.77c0 1.21-.986 2.198-2.198 2.198H23.81v7.815h.002zm-15.633-.49H23.32v-7.815h6.106c.942 0 1.71-.767 1.71-1.71v-9.77c0-.94-.768-1.71-1.71-1.71H2.073c-.942 0-1.71.77-1.71 1.71v9.77c0 .943.768 1.71 1.71 1.71H8.18v7.815z"/></svg>