<svg xmlns="http://www.w3.org/2000/svg" width="32" height="32" viewBox="0 0 32 32"><path fill="#FFF" d="M4.26 23.468C1.91 23.468 0 25.383 0 27.72c0 2.35 1.91 4.243 4.26 4.243 2.358 0 4.265-1.896 4.265-4.243 0-2.337-1.907-4.252-4.265-4.252zM.004 10.872v6.135c3.995 0 7.75 1.56 10.577 4.39 2.83 2.82 4.39 6.595 4.39 10.603h6.16c0-11.65-9.48-21.128-21.122-21.128H.004zM.012 0v6.137C14.254 6.137 25.85 17.74 25.85 32H32C32 14.36 17.648 0 .012 0z"/><g fill="#777"><path d="M1.576 12.507c9.53.76 17.154 8.39 17.917 17.922L21.126 32c0-11.65-9.48-21.128-21.122-21.128"/><path d="M32 32C32 14.36 17.648 0 .012 0l1.57 1.61c15.527.795 28.016 13.288 28.81 28.82L32 32zM8.028 25.72c-1.097-2.063-3.68-2.86-5.763-1.753 0 0 .077-.012.19-.02.307-.07.624-.113.95-.113 2.4 0 4.346 1.944 4.346 4.344 0 1.256-.54 2.38-1.39 3.17-.06.078-.1.123-.1.123 1.02-.542 1.733-1.437 2.063-2.452.34-1.057.273-2.24-.29-3.298h-.005z"/></g></svg>