<svg xmlns="http://www.w3.org/2000/svg" xmlns:xlink="http://www.w3.org/1999/xlink" width="32" height="32" viewBox="0 0 32 32"><symbol viewBox="-16.001 -16 32 32"><g><g><use xlink:href="#_x5F_button_x5F_shape" width="32" height="32" x="-16" y="-16" transform="translate(-.001)" overflow="visible"/><path fill="#999" d="M16-12c0-2.21-1.792-4-4-4h-24c-2.21 0-4 1.79-4 4v24c0 2.21 1.79 4 4 4h24c2.208 0 4-1.79 4-4v-24z"/></g></g><g><use xlink:href="#_x5F_button_x5F_shape" width="32" height="32" x="-16" y="-16" transform="matrix(.938 0 0 .938 -.001 0)" overflow="visible"/><path fill="#F2F2F2" d="M15-11.25c0-2.07-1.68-3.75-3.75-3.75h-22.5c-2.072 0-3.75 1.68-3.75 3.75v22.5c0 2.07 1.678 3.75 3.75 3.75h22.5c2.07 0 3.75-1.68 3.75-3.75v-22.5z"/></g></symbol><symbol viewBox="-13 -12.813 26 25.627"><path fill="#73CFEF" d="M11.764-1.674c.072.528.113 1.065.113 1.61 0 6.56-5.346 11.878-11.94 11.878-.654 0-1.296-.054-1.922-.157-1.12.73-2.455 1.156-3.89 1.156-3.937 0-7.125-3.19-7.125-7.125 0-1.432.423-2.762 1.148-3.88C-11.95 1.2-12 .575-12-.06-12-6.623-6.656-11.94-.062-11.94c.745 0 1.47.072 2.173.2 1.097-.68 2.386-1.074 3.767-1.074 3.936 0 7.124 3.19 7.124 7.126 0 1.488-.454 2.87-1.236 4.014z"/><path opacity=".3" d="M11.764-1.674c.072.528.113 1.065.113 1.61 0 3.4-1.443 6.458-3.746 8.624 2.01-2.126 3.247-4.977 3.247-8.122 0-.547-.042-1.083-.114-1.61C12.046-2.318 12.5-3.7 12.5-5.188c0-3.936-3.19-7.126-7.125-7.126-1.38 0-2.67.395-3.766 1.073-.705-.127-1.43-.2-2.174-.2-3.177 0-6.054 1.243-8.19 3.254 2.176-2.305 5.26-3.754 8.69-3.754.746 0 1.47.072 2.174.2 1.096-.68 2.385-1.074 3.766-1.074 3.936 0 7.124 3.19 7.124 7.126 0 1.488-.454 2.87-1.236 4.014zM-11.25-.563c0 .637.052 1.262.15 1.872-.727 1.115-1.15 2.445-1.15 3.878 0 3.936 3.19 7.124 7.125 7.124 1.436 0 2.77-.425 3.89-1.155.627.103 1.27.156 1.924.156 2.298 0 4.437-.657 6.26-1.777-1.97 1.426-4.39 2.278-7.012 2.278-.655 0-1.297-.054-1.923-.157-1.12.73-2.455 1.156-3.89 1.156-3.937 0-7.125-3.19-7.125-7.125 0-1.432.423-2.762 1.148-3.88C-11.95 1.2-12 .575-12-.06c0-4.273 2.274-8.01 5.678-10.1-2.98 2.158-4.927 5.65-4.927 9.6zM.008-9.844c-2.985 0-4.966.715-6.834 2.467-1.21 1.138-1.67 2.555-1.228 3.79.347.97 1.205 1.616 2.238 1.685 1.5.102 2.464-.97 3.164-1.736.214-.234.455-.5.59-.583.323-.203 1.38-.645 2.417-.645.74 0 1.287.213 1.67.652.24.272.297.453.28.504-.115.308-1.12.887-2.923 1.15-3.615.535-7.71 2.52-7.357 6.357.307 3.32 2.732 5.67 6.18 5.98 3.33.307 5.704-.38 7.787-2.157C7.687 6.174 7.47 4.682 7.296 4.108 6.99 3.1 6.116 2.34 5.116 2.22l-.213-.012c-.86 0-1.55.595-2.28 1.226-.822.712-1.755 1.52-2.963 1.54-1.277 0-2.035-.73-2.08-1.104-.023-.195.346-.49 1.098-.672.48-.116.964-.223 1.446-.33 3.133-.69 6.373-1.403 7.718-4.59.624-1.478.463-3.098-.454-4.562-1.26-2.012-3.726-3.397-6.282-3.53-.384-.02-.75-.03-1.098-.03zm-5.64 5.948c-.287-.018-.46-.146-.54-.364-.127-.358-.007-.98.715-1.66 1.406-1.318 2.96-2.076 6.46-1.896 1.895.1 3.78 1.14 4.69 2.594.397.633.772 1.62.307 2.72C5.057-.265 2.57.282-.307.916c-.496.11-.994.22-1.488.34-2.662.647-2.672 2.347-2.61 2.853.188 1.58 1.992 2.866 4.02 2.866 2.012-.032 3.345-1.185 4.32-2.028.32-.28.81-.702.993-.74.13.02.366.198.452.48.126.418-.124.934-.687 1.414C3.04 7.51 1.106 8.037-1.615 7.787c-1.942-.176-4.11-1.365-4.368-4.173C-6.225 1-2.54-.253-.327-.58 1.097-.79 3.578-1.385 4.18-3.02c.21-.568.267-1.465-.648-2.512C2.768-6.404 1.67-6.865.355-6.865c-1.55 0-2.952.62-3.477.948-.367.23-.678.57-1.007.93-.465.51-.993 1.09-1.5 1.09z"/><path fill="#fff" d="M-1.706 9.283c3.253.296 5.372-.493 7.048-1.923 1.936-1.65.888-3.498-.346-3.647-1.23-.147-2.61 2.718-5.32 2.76-2.796.045-4.684-2.908-1.235-3.746C1.894 1.89 5.59 1.544 6.92-1.61S4.85-8.12 1.054-8.316c-3.794-.198-5.57.64-7.196 2.168-1.815 1.705-1.086 3.65.393 3.748S-3.38-4.074-2.59-4.57c.788-.49 3.787-1.612 5.37.2C4.506-2.4 1.634-1.38-.473-1.07-3.48-.625-7.274 1-6.98 4.206c.296 3.203 2.72 4.846 5.274 5.077z"/></symbol><path fill="#73CFEF" d="M28.668 17.803c.078-.57.122-1.147.122-1.735 0-7.064-5.757-12.79-12.857-12.79-.706 0-1.396.057-2.07.168-1.208-.788-2.645-1.245-4.19-1.245C5.433 2.2 2 5.637 2 9.875c0 1.542.455 2.974 1.236 4.177-.105.658-.16 1.332-.16 2.017 0 7.063 5.755 12.79 12.855 12.79.804 0 1.583-.077 2.34-.215 1.18.73 2.57 1.156 4.057 1.156 4.238 0 7.672-3.436 7.672-7.674 0-1.6-.49-3.09-1.332-4.32z"/><path opacity=".3" d="M28.668 17.803c.078-.57.122-1.147.122-1.735 0-3.662-1.554-6.954-4.034-9.286 2.162 2.29 3.496 5.36 3.496 8.747 0 .588-.045 1.166-.123 1.734.843 1.23 1.33 2.72 1.33 4.322 0 4.238-3.434 7.675-7.672 7.675-1.486 0-2.875-.424-4.055-1.155-.758.137-1.538.215-2.34.215-3.42 0-6.52-1.338-8.82-3.503 2.343 2.48 5.666 4.042 9.36 4.042.803 0 1.582-.078 2.34-.216 1.18.73 2.568 1.156 4.056 1.156 4.237 0 7.67-3.436 7.67-7.674 0-1.603-.49-3.092-1.332-4.323zM3.886 16.606c0-.686.055-1.36.16-2.016-.782-1.202-1.237-2.635-1.237-4.177 0-4.238 3.433-7.672 7.67-7.672 1.547 0 2.983.46 4.19 1.245.675-.11 1.366-.168 2.07-.168 2.477 0 4.78.708 6.742 1.914-2.12-1.534-4.725-2.453-7.55-2.453-.706 0-1.396.058-2.07.17-1.208-.79-2.645-1.246-4.19-1.246C5.434 2.2 2 5.637 2 9.875c0 1.542.455 2.974 1.236 4.177-.105.658-.16 1.332-.16 2.017 0 4.6 2.45 8.624 6.114 10.875-3.208-2.323-5.304-6.083-5.304-10.336zM16.008 26.6c-3.215 0-5.348-.77-7.36-2.655-1.303-1.226-1.797-2.75-1.32-4.082.372-1.045 1.296-1.74 2.41-1.814 1.615-.11 2.652 1.043 3.406 1.87.23.25.49.536.635.627.347.218 1.486.694 2.602.694.797 0 1.386-.23 1.8-.702.255-.292.318-.487.298-.542-.122-.332-1.206-.954-3.146-1.238-3.894-.577-8.303-2.716-7.923-6.847.33-3.575 2.943-6.104 6.656-6.44 3.587-.33 6.143.41 8.386 2.324 1.825 1.557 1.59 3.163 1.403 3.78-.328 1.088-1.27 1.906-2.346 2.036l-.23.014c-.928 0-1.67-.64-2.454-1.32-.887-.77-1.89-1.638-3.192-1.66-1.376 0-2.19.786-2.24 1.19-.025.21.372.526 1.182.723.516.125 1.038.24 1.558.355 3.373.744 6.863 1.512 8.312 4.944.672 1.592.498 3.337-.49 4.913-1.357 2.165-4.012 3.657-6.764 3.8-.415.02-.81.03-1.184.03zm-6.072-6.405c-.31.02-.498.157-.582.393-.138.385-.008 1.056.77 1.786 1.513 1.42 3.187 2.237 6.956 2.044 2.04-.106 4.07-1.23 5.05-2.794.43-.683.832-1.744.33-2.932-1.015-2.406-3.69-2.996-6.79-3.678-.534-.118-1.07-.236-1.603-.366-2.867-.697-2.877-2.527-2.812-3.072.204-1.702 2.146-3.087 4.33-3.087 2.167.033 3.603 1.275 4.652 2.183.347.3.873.756 1.07.798.14-.023.395-.213.487-.518.136-.45-.134-1.004-.74-1.52-1.78-1.52-3.862-2.087-6.793-1.818-2.09.19-4.425 1.47-4.703 4.494-.26 2.816 3.707 4.165 6.09 4.518 1.534.224 4.207.864 4.855 2.624.226.61.287 1.578-.698 2.705-.823.94-2.007 1.438-3.42 1.438-1.67 0-3.18-.668-3.745-1.02-.397-.248-.73-.614-1.086-1.003-.502-.55-1.07-1.175-1.618-1.175z"/><path fill="#fff" d="M14.163 6.003c3.503-.32 5.786.53 7.59 2.07 2.085 1.78.957 3.768-.373 3.93-1.322.158-2.81-2.928-5.73-2.974-3.01-.048-5.043 3.13-1.328 4.035 3.717.902 7.697 1.273 9.13 4.67 1.436 3.398-2.228 7.008-6.316 7.22-4.087.213-5.998-.69-7.75-2.334-1.955-1.835-1.17-3.93.423-4.035 1.59-.106 2.548 1.805 3.4 2.337.848.53 4.077 1.737 5.783-.214 1.858-2.123-1.234-3.222-3.503-3.555-3.237-.48-7.324-2.23-7.006-5.682.318-3.45 2.93-5.218 5.68-5.467z"/></svg>