<svg xmlns="http://www.w3.org/2000/svg" xmlns:xlink="http://www.w3.org/1999/xlink" width="32" height="32" viewBox="0 0 32 32"><symbol id="a" viewBox="-16.001 -16 32 32"><g><g><use xlink:href="#_x5F_button_x5F_shape" width="32" height="32" x="-16" y="-16" transform="translate(-.001)" overflow="visible"/><path fill="#999" d="M16-12c0-2.21-1.792-4-4-4h-24c-2.21 0-4 1.79-4 4v24c0 2.21 1.79 4 4 4h24c2.208 0 4-1.79 4-4v-24z"/></g></g><g><use xlink:href="#_x5F_button_x5F_shape" width="32" height="32" x="-16" y="-16" transform="matrix(.938 0 0 .938 -.001 0)" overflow="visible"/><path fill="#F2F2F2" d="M15-11.25c0-2.07-1.68-3.75-3.75-3.75h-22.5c-2.072 0-3.75 1.68-3.75 3.75v22.5c0 2.07 1.678 3.75 3.75 3.75h22.5c2.07 0 3.75-1.68 3.75-3.75v-22.5z"/></g></symbol><symbol viewBox="-16.002 -16 32 32"><use xlink:href="#a" width="32" height="32" x="-16.001" y="-16" transform="translate(-.001)" overflow="visible"/><g fill="#fff"><path d="M-5.685-13.062H-14L.75 13.062h8.315zM14-8.903c0-2.296-1.86-4.158-4.158-4.158-2.296 0-4.158 1.86-4.158 4.157 0 2.297 1.862 4.157 4.158 4.157C12.14-4.746 14-6.606 14-8.903z"/></g></symbol><use xlink:href="#a" width="32" height="32" x="-16.001" y="-16" transform="matrix(1 0 0 -1 16.002 16)" overflow="visible"/><g><use xlink:href="#_x5F_button_x5F_shape" width="32" height="32" x="-16" y="-16" transform="matrix(1 0 0 -1 16 16)" overflow="visible"/><path fill="#999" d="M32 28c0 2.21-1.79 4-4 4H4c-2.21 0-4-1.79-4-4V4c0-2.21 1.79-4 4-4h24c2.21 0 4 1.79 4 4v24z"/><path fill="#165D59" d="M32 28c0 2.21-1.79 4-4 4H4c-2.21 0-4-1.79-4-4V4c0-2.21 1.79-4 4-4h24c2.21 0 4 1.79 4 4v24zM32 28c0 2.21-1.79 4-4 4H4c-2.21 0-4-1.79-4-4V4c0-2.21 1.79-4 4-4h24c2.21 0 4 1.79 4 4v24zM32 28c0 2.21-1.79 4-4 4H4c-2.21 0-4-1.79-4-4V4c0-2.21 1.79-4 4-4h24c2.21 0 4 1.79 4 4v24z"/><g fill="#fff"><path d="M10.317 29.062H2.002l14.75-26.124h8.314z"/><circle cx="25.843" cy="24.903" r="4.159"/></g></g></svg>