<svg xmlns="http://www.w3.org/2000/svg" width="32" height="32" viewBox="0 0 32 32"><path fill="#FFF" d="M4.77 29.352h26.705V2.648H4.77v26.704z"/><path fill="#C8C8C8" d="M31.975 29.852H4.27V2.148h27.705v27.704zm-26.705-1h25.705V3.148H5.27v25.704z"/><path fill="#B4B4B4" d="M28.973 8.647h-5.295V5.47h5.295v3.177zm0 5.912h-5.295v-3.18h5.295v3.18zm0 5.91h-5.295v-3.18h5.295v3.18zm0 5.91h-5.295V23.2h5.295v3.18zM21.03 8.64h-5.295V5.466h5.294v3.176zm0 5.913h-5.295v-3.18h5.294v3.18zm0 5.91h-5.295v-3.178h5.294v3.178zm0 5.91h-5.295V23.2h5.294v3.175z"/><path fill="#FFF" d="M.525 29.352L15.85 32V0L.525 2.648v26.704z"/><path fill="#C8C8C8" d="M16.35 32.593L.025 29.773V2.227L16.35-.593v33.186zm-15.325-3.66l14.325 2.474V.594L1.025 3.07V28.93z"/><g><path fill="#00BF16" d="M14.145 9.73h-3.178l-2.78 4.977L5.41 9.73H2.23l4.63 6.963-4.636 6.97h3.18l2.776-4.98 2.78 4.98h3.18L9.51 16.7l4.635-6.97z"/></g></svg>