<svg xmlns="http://www.w3.org/2000/svg" width="32" height="32" viewBox="0 0 32 32"><path fill="#FFF" d="M6.525 27.266h22.532V4.734H6.525v22.532z"/><path fill="#B4B4B4" d="M29.48 27.688H6.102V4.313H29.48v23.375zm-22.533-.844h21.688V5.156H6.947v21.688z"/><path fill="#999" d="M26.946 9.796h-4.468v-2.68h4.468v2.68zm0 4.988h-4.468V12.1h4.468v2.684zm0 4.987h-4.468V17.09h4.468v2.683zm0 4.987h-4.468v-2.683h4.468v2.683zM20.243 9.792h-4.466v-2.68h4.466v2.68zm0 4.99h-4.466v-2.684h4.466v2.683zm0 4.986h-4.466v-2.682h4.466v2.682zm0 4.986h-4.466v-2.68h4.466v2.68z"/><path fill="#FFF" d="M2.943 27.266l12.93 2.233v-27L2.944 4.734v22.532z"/><path fill="#B4B4B4" d="M16.296 30L2.52 27.62V4.38L16.297 2v28zm-12.93-3.09L15.45 29V3L3.365 5.09v21.82z"/><g><path fill="#00BF16" d="M14.435 10.71h-2.682l-2.344 4.2-2.346-4.2H4.38l3.907 5.875-3.91 5.88H7.06l2.342-4.2 2.344 4.2h2.684l-3.908-5.874 3.913-5.88z"/></g></svg>