<svg xmlns="http://www.w3.org/2000/svg" width="32" height="32" viewBox="0 0 32 32"><path fill="#00F" d="M15.13 22.465c.082-2.45-1.985-4.555-4.608-4.69l-.987-.053c-.953-.054-1.76-.84-1.76-1.73 0-.857.797-1.593 1.723-1.593h6.49c.927 0 1.644.792 1.644 1.722v5.967c0 2.64 2.15 4.79 4.793 4.79h.785c2.64 0 4.79-2.15 4.79-4.79V2.034c-.117-.007-.227-.035-.344-.035h-2.768v20.09c0 .93-.754 1.684-1.682 1.684h-.783c-.926 0-1.682-.754-1.682-1.68v-5.97c0-2.642-2.15-4.793-4.793-4.793H9.464c-2.64 0-4.792 2.095-4.792 4.667 0 2.53 2.11 4.697 4.706 4.83l.988.056c.926.048 1.687.724 1.662 1.48-.025.764-.84 1.41-1.782 1.41H0v3.11h10.24c2.616 0 4.808-1.988 4.89-4.424v.005z"/><path fill="#84C341" d="M15.13 20.466c.082-2.45-1.985-4.554-4.608-4.69l-.987-.053c-.953-.045-1.758-.836-1.758-1.725 0-.856.793-1.593 1.722-1.593h6.483c.926 0 1.645.793 1.645 1.723v5.967c0 2.643 2.148 4.792 4.79 4.792h.786c2.64 0 4.79-2.15 4.79-4.792V.035C27.88.028 27.77 0 27.65 0h-2.768v20.094c0 .926-.754 1.68-1.682 1.68h-.783c-.926 0-1.684-.754-1.684-1.68v-5.967c0-2.645-2.148-4.795-4.793-4.795H9.46c-2.643 0-4.794 2.095-4.794 4.666 0 2.53 2.112 4.698 4.708 4.833l.987.055c.927.047 1.688.724 1.664 1.48-.025.764-.84 1.41-1.78 1.41H0v3.11h10.24c2.616 0 4.808-1.984 4.89-4.42z"/><path fill="#FFF" d="M22.418 25.615c-2.494 0-4.523-2.03-4.523-4.522v-5.967c0-1.1-.857-1.992-1.912-1.992H9.497c-1.077 0-1.99.854-1.99 1.862 0 1.027.923 1.94 2.014 1.996l.988.054c2.477.13 4.426 2.11 4.35 4.415-.075 2.293-2.153 4.156-4.62 4.156H.27v-2.574h9.97c1.084 0 2.022-.765 2.053-1.672.03-.896-.848-1.7-1.916-1.758l-.987-.054c-2.455-.125-4.452-2.173-4.452-4.562 0-2.423 2.03-4.396 4.524-4.396h6.483c2.495 0 4.526 2.03 4.526 4.525v5.967c0 1.07.874 1.948 1.95 1.948h.783c1.076 0 1.95-.88 1.95-1.948V1.272h2.5c.022 0 .05 0 .075.002v19.82c0 2.492-2.03 4.52-4.525 4.52h-.785z"/><path fill="#666" d="M27.457 1.54v19.553c0 2.345-1.908 4.254-4.254 4.254h-.785c-2.346 0-4.254-1.91-4.254-4.254v-5.967c0-1.247-.98-2.26-2.182-2.26H9.497c-1.224 0-2.26.975-2.26 2.13 0 1.163 1.04 2.2 2.27 2.263l.98.054c2.333.117 4.17 1.975 4.1 4.134-.073 2.148-2.025 3.898-4.35 3.898H.538V23.31h9.7c1.245 0 2.286-.866 2.32-1.93.035-1.058-.94-1.97-2.17-2.035l-.99-.053c-2.315-.12-4.196-2.046-4.196-4.296 0-2.274 1.91-4.126 4.255-4.126h6.483c2.346 0 4.256 1.91 4.256 4.256v5.967c0 1.217.993 2.218 2.22 2.218h.783c1.225 0 2.223-1 2.223-2.217V1.54h2.03m.194-.538h-2.766v20.09c0 .93-.754 1.682-1.684 1.682h-.785c-.926 0-1.68-.75-1.68-1.68v-5.968c0-2.644-2.154-4.794-4.802-4.794h-6.48c-2.642 0-4.793 2.094-4.793 4.666 0 2.53 2.112 4.695 4.708 4.824l.987.054c.926.05 1.687.726 1.663 1.48-.024.766-.84 1.41-1.78 1.41H0v3.113h10.24c2.616 0 4.808-1.98 4.89-4.42.082-2.45-1.985-4.554-4.608-4.688l-.987-.055c-.953-.047-1.76-.836-1.76-1.723 0-.858.797-1.593 1.723-1.593h6.49c.927 0 1.644.792 1.644 1.723v5.965c0 2.644 2.15 4.79 4.793 4.79h.785c2.643 0 4.79-2.146 4.79-4.79V1.036c-.115-.008-.227-.036-.344-.036l-.006.002z"/></svg>