<svg xmlns="http://www.w3.org/2000/svg" width="32" height="32" viewBox="0 0 32 32"><path fill="#FFF" d="M14.966 13.6c0 3.043 2.47 5.513 5.513 5.513 3.045 0 5.514-2.47 5.514-5.514 0-3.05-2.47-5.516-5.515-5.516-3.044 0-5.514 2.467-5.514 5.515m11.028 6.89H14.966c-3.045 0-5.514 2.472-5.514 5.515v4.037h22.055v-4.037c0-3.047-2.468-5.514-5.513-5.514"/><path fill="#C8C8C8" d="M32 30.534H8.96v-4.53c0-3.312 2.694-6.006 6.006-6.006h11.028c3.312 0 6.006 2.694 6.006 6.007v4.53zM9.945 29.55h21.07v-3.545c0-2.77-2.252-5.02-5.02-5.02h-11.03c-2.768 0-5.02 2.252-5.02 5.02v3.545zm10.534-9.946c-3.313 0-6.006-2.694-6.006-6.006 0-3.313 2.694-6.007 6.005-6.007 3.312 0 6.006 2.695 6.006 6.008 0 3.312-2.694 6.006-6.007 6.006zm0-11.028c-2.77 0-5.022 2.253-5.022 5.022 0 2.77 2.253 5.02 5.02 5.02 2.77 0 5.023-2.252 5.023-5.02.002-2.77-2.25-5.022-5.02-5.022z"/><path fill="#FFF" d="M10.24 11.706c2.826 0 5.12-2.292 5.12-5.118 0-2.828-2.294-5.12-5.12-5.12-2.828 0-5.12 2.29-5.12 5.12 0 2.826 2.294 5.118 5.12 5.118z"/><path fill="#B4B4B4" d="M10.24 2.452c2.28 0 4.136 1.854 4.136 4.134 0 2.277-1.856 4.133-4.136 4.133-2.28 0-4.135-1.856-4.135-4.134 0-2.28 1.854-4.136 4.135-4.136m0-.984c-2.828 0-5.12 2.292-5.12 5.12 0 2.826 2.292 5.117 5.12 5.117 2.826 0 5.12-2.29 5.12-5.117 0-2.828-2.294-5.12-5.12-5.12z"/><path fill="#FFF" d="M8.35 26.002c0-3.647 2.968-6.617 6.617-6.617h2.314c-2.035-1.13-3.416-3.303-3.416-5.788 0-.207.013-.41.03-.61H5.12c-2.83 0-5.12 2.29-5.12 5.12V28.21h8.35V26z"/><path fill="#B4B4B4" d="M12.887 13.97c.082 1.645.695 3.194 1.713 4.44-4.022.187-7.237 3.523-7.237 7.592v1.222H.983v-9.12c0-2.28 1.856-4.136 4.137-4.136h7.767m1.007-.983H5.12c-2.83 0-5.12 2.29-5.12 5.12V28.21h8.35v-2.205c0-3.646 2.97-6.618 6.617-6.618h2.314c-2.034-1.128-3.416-3.302-3.416-5.787 0-.206.012-.41.03-.613z"/></svg>