<svg xmlns="http://www.w3.org/2000/svg" width="32" height="32" viewBox="0 0 32 32"><path fill="#FFF" d="M9.212 10.06c0 3.75 3.04 6.79 6.788 6.79 3.75 0 6.788-3.04 6.788-6.79S19.748 3.275 16 3.275c-3.75 0-6.788 3.036-6.788 6.787m13.576 8.486H9.212c-3.75 0-6.787 3.04-6.787 6.788v3.394h27.152v-3.394c0-3.75-3.04-6.788-6.79-6.788"/><path fill="#C8C8C8" d="M30 29.15H2v-3.816c0-3.978 3.235-7.213 7.212-7.213h13.576c3.976 0 7.212 3.236 7.212 7.214v3.817zm-27.15-.847h26.3v-2.97c0-3.51-2.853-6.362-6.362-6.362H9.212c-3.51 0-6.362 2.855-6.362 6.364v2.97zM16 17.273c-3.977 0-7.212-3.236-7.212-7.213S12.023 2.848 16 2.848s7.212 3.235 7.212 7.212-3.236 7.212-7.212 7.212zm0-13.576c-3.51 0-6.363 2.854-6.363 6.363 0 3.51 2.854 6.364 6.363 6.364 3.51 0 6.363-2.854 6.363-6.364 0-3.508-2.853-6.363-6.363-6.363z"/></svg>