<svg xmlns="http://www.w3.org/2000/svg" width="32" height="32" viewBox="0 0 32 32"><path fill="#FFF" d="M8.242 9.212c0 4.286 3.474 7.758 7.758 7.758s7.758-3.472 7.758-7.758S20.284 1.455 16 1.455s-7.758 3.47-7.758 7.757m15.516 9.697H8.242c-4.284 0-7.757 3.473-7.757 7.757v3.88h31.03v-3.88c0-4.284-3.473-7.758-7.757-7.758"/><path fill="#C8C8C8" d="M32 31.03H0v-4.363c0-4.545 3.697-8.243 8.242-8.243h15.516c4.544 0 8.242 3.698 8.242 8.243v4.363zM.97 30.06h30.06v-3.393c0-4.01-3.263-7.273-7.272-7.273H8.242c-4.01 0-7.272 3.263-7.272 7.273v3.394zM16 17.455c-4.545 0-8.242-3.697-8.242-8.242C7.758 4.667 11.455.97 16 .97s8.242 3.697 8.242 8.242c0 4.545-3.697 8.242-8.242 8.242zM16 1.94c-4.01 0-7.273 3.26-7.273 7.27 0 4.012 3.263 7.274 7.273 7.274s7.272-3.262 7.272-7.273c0-4.008-3.26-7.27-7.272-7.27z"/></svg>