<svg xmlns="http://www.w3.org/2000/svg" width="32" height="32" viewBox="0 0 32 32"><path fill="#B4B4B4" d="M24.04 26.72c0 1.698-1.374 3.074-3.076 3.074H5.074C3.377 29.794 2 28.42 2 26.72v-9.43c0-1.695 1.375-3.072 3.074-3.072h15.89c1.697 0 3.075 1.38 3.075 3.078v9.425z"/><path fill="#FFF" d="M9.83 17.865v8.343l6.378-4.26-6.38-4.083z"/><path fill="#C8C8C8" d="M16.97 2.21c-2.91 0-5.27 2.356-5.27 5.267 0 2.91 2.36 5.27 5.27 5.27 2.91 0 5.268-2.363 5.268-5.274.008-2.91-2.353-5.268-5.268-5.268v.005zm0 8.78c-1.94 0-3.515-1.574-3.515-3.514 0-1.94 1.574-3.513 3.513-3.513 1.937 0 3.51 1.572 3.51 3.513 0 1.943-1.573 3.515-3.515 3.515h.007zM7.31 5.723C5.37 5.722 3.8 7.294 3.8 9.235c0 1.94 1.57 3.515 3.512 3.515 1.934 0 3.51-1.573 3.51-3.515 0-1.94-1.576-3.513-3.515-3.513h.006z"/><path fill="#999" d="M16.97 10.99c-1.94 0-3.515-1.574-3.515-3.514 0-1.94 1.574-3.513 3.513-3.513 1.937 0 3.51 1.572 3.51 3.513 0 1.943-1.573 3.515-3.515 3.515h.007z"/><path fill="#B4B4B4" d="M30 28.287l-4.558-3.61v-5.344L30 15.723v12.564z"/></svg>