<svg xmlns="http://www.w3.org/2000/svg" width="32" height="32" viewBox="0 0 32 32"><circle fill="#FFF" cx="16" cy="16" r="14"/><path fill="#16638A" d="M16 2.933C8.784 2.933 2.933 8.783 2.933 16c0 7.214 5.85 13.066 13.066 13.066 7.213 0 13.065-5.853 13.065-13.066 0-7.218-5.85-13.067-13.065-13.067zM3.94 16c0-1.75.375-3.41 1.045-4.908l5.752 15.76C6.714 24.897 3.94 20.772 3.94 16zM16 28.06c-1.185 0-2.327-.173-3.408-.49l3.62-10.516 3.706 10.156c.024.058.054.114.085.163-1.25.445-2.597.688-4.003.688zm1.66-17.715c.73-.037 1.382-.115 1.382-.115.65-.078.572-1.034-.077-.997 0 0-1.954.155-3.214.155-1.185 0-3.175-.155-3.175-.155-.65-.038-.727.954-.078.995 0 0 .615.08 1.265.115l1.88 5.15L13 23.407l-4.39-13.062c.726-.037 1.38-.114 1.38-.114.65-.078.57-1.033-.078-.995 0 0-1.95.153-3.214.153-.228 0-.492-.006-.774-.017C8.08 6.1 11.786 3.94 16 3.94c3.142 0 6 1.2 8.144 3.167-.052-.003-.104-.012-.156-.012-1.186 0-2.024 1.034-2.024 2.14 0 .997.573 1.836 1.184 2.83.46.803.998 1.834.998 3.327 0 1.03-.31 2.328-.92 3.897l-1.205 4.017-4.36-12.962zm4.404 16.077l3.686-10.647c.686-1.72.914-3.097.914-4.32 0-.444-.03-.858-.082-1.24.94 1.718 1.478 3.688 1.478 5.786 0 4.447-2.413 8.332-5.996 10.422z"/></svg>