<svg xmlns="http://www.w3.org/2000/svg" width="32" height="32" viewBox="0 0 32 32"><path fill="#FFF" d="M28.378 31.275c-.12 0-.232-.047-.316-.13l-15.48-15.48-.326.172c-1.145.6-2.437.92-3.736.92-2.143 0-4.157-.836-5.67-2.352C.514 12.07-.14 8.617 1.128 5.623l4.808 4.81c.275.27.638.42 1.023.42s.75-.15 1.022-.42l2.68-2.68c.272-.272.423-.636.423-1.022s-.15-.75-.424-1.023L6.06 1.11C6.857.855 7.685.725 8.53.725c2.138 0 4.148.832 5.66 2.343 2.333 2.333 3 5.8 1.694 8.833l-.134.31 15.62 15.625c.084.084.13.194.13.313 0 .12-.046.233-.13.317l-2.676 2.68c-.084.084-.196.13-.316.13z"/><path fill="#C8C8C8" d="M8.53 1.224c2.005 0 3.89.78 5.307 2.196 2.188 2.187 2.81 5.438 1.588 8.282l-.268.623.48.48L30.978 28.15l-2.602 2.604-15.183-15.18-.52-.52-.652.34c-1.073.564-2.285.862-3.504.862-2.01 0-3.898-.783-5.318-2.205-2.008-2.004-2.69-4.89-1.876-7.52l4.258 4.26c.367.363.855.563 1.374.563s1.006-.2 1.377-.568l2.677-2.677c.368-.368.57-.857.57-1.377s-.203-1.008-.57-1.376L7.03 1.374c.49-.1.992-.15 1.5-.15m0-1c-1.148 0-2.296.23-3.37.692l5.145 5.146c.37.37.37.97 0 1.34L7.627 10.08c-.185.184-.427.275-.67.275s-.485-.09-.67-.275L.98 4.77c-1.695 3.215-1.19 7.286 1.516 9.99 1.664 1.666 3.844 2.497 6.023 2.497 1.364 0 2.73-.326 3.968-.976l15.22 15.22c.185.183.427.275.67.275s.485-.093.67-.276l2.676-2.68c.37-.37.37-.972 0-1.34l-15.38-15.384c1.335-3.106.74-6.846-1.8-9.384C12.882 1.052 10.707.224 8.53.224z"/></svg>