<svg xmlns="http://www.w3.org/2000/svg" width="32" height="32" viewBox="0 0 32 32"><path fill="#FFF" d="M28.225 24.335H3.775V7.665h24.45v16.67z"/><path fill="#777" d="M6.558 19.782l3.5-4.576c.354-.434.674-.803 1.028-1.22v-.033H6.88V12.83h5.908v.883l-3.468 4.51c-.338.437-.644.838-.997 1.225v.03h4.53V20.6H6.557v-.818zm9.33-9.136c0 .48-.336.865-.897.865-.51 0-.85-.38-.85-.86 0-.482.36-.882.89-.882.51 0 .865.385.865.884l-.007-.006zM14.314 20.6v-7.77h1.413v7.77h-1.413zm3.76-5.234c0-.995-.03-1.798-.064-2.537h1.25l.08 1.33h.033c.563-.95 1.493-1.5 2.762-1.5 1.896 0 3.31 1.59 3.31 3.935 0 2.798-1.72 4.175-3.552 4.175-1.026 0-1.926-.444-2.392-1.22h-.03v4.228h-1.39V15.36l-.006.006zm1.394 2.07c0 .21.02.404.065.58.257.98 1.107 1.655 2.12 1.655 1.493 0 2.36-1.22 2.36-3 0-1.54-.82-2.873-2.313-2.873-.966 0-1.88.675-2.136 1.736-.05.177-.102.387-.102.563v1.348l.006-.008zM16 32l12.43-6H3.57M3.57 6h24.86L16 0"/></svg>