<?xml version="1.0" encoding="utf-8"?>
<!-- Generator: Adobe Illustrator 14.0.0, SVG Export Plug-In . SVG Version: 6.00 Build 43363)  -->
<!DOCTYPE svg PUBLIC "-//W3C//DTD SVG 1.1//EN" "http://www.w3.org/Graphics/SVG/1.1/DTD/svg11.dtd">
<svg version="1.1" id="Layer_1" xmlns="http://www.w3.org/2000/svg" xmlns:xlink="http://www.w3.org/1999/xlink" x="0px" y="0px"
	 width="32px" height="32px" viewBox="0 0 32 32" enable-background="new 0 0 32 32" xml:space="preserve">
<symbol  id="_x5F_button_x5F_base" viewBox="-16 -16 32 32">
	<g id="button_x5F_base_1_">
		<g id="button_2_">
			<g>
				<use xlink:href="#_x5F_button_x5F_shape"  width="32" height="32" x="-16" y="-16" overflow="visible"/>
			</g>
			<g>
				<g>
					<g>
						<g>
							<path fill="#999999" d="M16-12c0-2.209-1.791-4-4-4h-24c-2.209,0-4,1.791-4,4v24c0,2.209,1.791,4,4,4h24c2.209,0,4-1.791,4-4
								V-12z"/>
						</g>
					</g>
				</g>
			</g>
		</g>
	</g>
	<g id="button_1_">
		<g>
			
				<use xlink:href="#_x5F_button_x5F_shape"  width="32" height="32" x="-16" y="-16" transform="matrix(0.9375 0 0 0.9375 0 0)" overflow="visible"/>
		</g>
		<g>
			<g>
				<g>
					<g>
						<g>
							<path fill="#F2F2F2" d="M15-11.25c0-2.071-1.679-3.75-3.75-3.75h-22.5c-2.071,0-3.75,1.679-3.75,3.75v22.5
								c0,2.071,1.679,3.75,3.75,3.75h22.5c2.071,0,3.75-1.679,3.75-3.75V-11.25z"/>
						</g>
					</g>
				</g>
			</g>
		</g>
	</g>
</symbol>
<symbol  id="_x5F_button_x5F_base_1" viewBox="-16.001 -16 32 32">
	<g id="button_x5F_base_3_">
		<g id="button_6_">
			<g>
				
					<use xlink:href="#_x5F_button_x5F_shape_1"  width="32" height="32" x="-16" y="-16" transform="matrix(1 0 0 1 -9.765625e-004 0)" overflow="visible"/>
			</g>
			<g>
				<g>
					<g>
						<g>
							<path fill="#999999" d="M15.999-12c0-2.209-1.791-4-4-4h-24c-2.209,0-4,1.791-4,4v24c0,2.209,1.791,4,4,4h24
								c2.209,0,4-1.791,4-4V-12z"/>
						</g>
					</g>
				</g>
			</g>
		</g>
	</g>
	<g id="button_3_">
		<g>
			
				<use xlink:href="#_x5F_button_x5F_shape_1"  width="32" height="32" x="-16" y="-16" transform="matrix(0.9375 0 0 0.9375 -9.765625e-004 0)" overflow="visible"/>
		</g>
		<g>
			<g>
				<g>
					<g>
						<g>
							<path fill="#F2F2F2" d="M14.999-11.25c0-2.071-1.679-3.75-3.75-3.75h-22.5c-2.071,0-3.75,1.679-3.75,3.75v22.5
								c0,2.071,1.679,3.75,3.75,3.75h22.5c2.071,0,3.75-1.679,3.75-3.75V-11.25z"/>
						</g>
					</g>
				</g>
			</g>
		</g>
	</g>
</symbol>
<symbol  id="_x5F_button_x5F_shape" viewBox="-16 -16 32 32">
	<g id="button_x5F_shape_1_">
		<g>
			<g opacity="0">
				<path fill="#FFFFFF" d="M16-12c0-2.209-1.791-4-4-4h-24c-2.209,0-4,1.791-4,4v24c0,2.209,1.791,4,4,4h24c2.209,0,4-1.791,4-4
					V-12z"/>
			</g>
		</g>
	</g>
</symbol>
<symbol  id="_x5F_button_x5F_shape_1" viewBox="-16 -16 32 32">
	<g id="button_x5F_shape_2_">
		<g>
			<g opacity="0">
				<path fill="#FFFFFF" d="M16-12c0-2.209-1.791-4-4-4h-24c-2.209,0-4,1.791-4,4v24c0,2.209,1.791,4,4,4h24c2.209,0,4-1.791,4-4
					V-12z"/>
			</g>
		</g>
	</g>
</symbol>
<g id="XMLID_20_">
	<g>
		<defs>
			<rect id="SVGID_1_" x="0.001" width="16" height="16"/>
		</defs>
		<clipPath id="SVGID_2_">
			<use xlink:href="#SVGID_1_"  overflow="visible"/>
		</clipPath>
		<g clip-path="url(#SVGID_2_)">
			<g>
				<g id="button_x5F_base_7_">
					<g id="button_14_">
						<g>
							<g>
								<g id="button_x5F_shape_6_">
									<g>
										<g opacity="0">
											<path fill="#FFFFFF" d="M32,28c0,2.209-1.791,4-4,4H4c-2.209,0-4-1.791-4-4V4c0-2.209,1.791-4,4-4h24
												c2.209,0,4,1.791,4,4V28z"/>
										</g>
									</g>
								</g>
							</g>
						</g>
						<g>
							<g>
								<path fill="#999999" d="M32,28c0,2.209-1.791,4-4,4H4c-2.209,0-4-1.791-4-4V4c0-2.209,1.791-4,4-4h24c2.209,0,4,1.791,4,4
									V28z"/>
							</g>
						</g>
					</g>
				</g>
				<g id="button_13_">
					<g>
						<g>
							<g>
								<g>
									<g opacity="0">
										<path fill="#FFFFFF" d="M31,27.25c0,2.071-1.679,3.75-3.75,3.75H4.75C2.679,31,1,29.321,1,27.25V4.75
											C1,2.679,2.679,1,4.75,1h22.5C29.321,1,31,2.679,31,4.75V27.25z"/>
									</g>
								</g>
							</g>
						</g>
					</g>
					<g>
						<g>
							<path fill="#F2F2F2" d="M31,27.25c0,2.071-1.679,3.75-3.75,3.75H4.75C2.679,31,1,29.321,1,27.25V4.75C1,2.679,2.679,1,4.75,1
								h22.5C29.321,1,31,2.679,31,4.75V27.25z"/>
						</g>
					</g>
				</g>
			</g>
			<g>
				<g>
					<g>
						<g>
							<g>
								<path fill="#FFFFFF" d="M32,28c0,2.209-1.791,4-4,4H4c-2.209,0-4-1.791-4-4V4c0-2.209,1.791-4,4-4h24c2.209,0,4,1.791,4,4
									V28z"/>
							</g>
						</g>
					</g>
					<g>
						<g>
							<g>
								<path fill="#FFFFFF" d="M32,28c0,2.209-1.791,4-4,4H4c-2.209,0-4-1.791-4-4V4c0-2.209,1.791-4,4-4h24c2.209,0,4,1.791,4,4
									V28z"/>
							</g>
						</g>
					</g>
				</g>
				<g>
					<g>
						<g>
							<g>
								<path fill="#FFFFFF" d="M31,27.25c0,2.071-1.679,3.75-3.75,3.75H4.75C2.679,31,1,29.321,1,27.25V4.75
									C1,2.679,2.679,1,4.75,1h22.5C29.321,1,31,2.679,31,4.75V27.25z"/>
							</g>
						</g>
					</g>
					<g>
						<g>
							<g>
								<path fill="#FFFFFF" d="M31,27.25c0,2.071-1.679,3.75-3.75,3.75H4.75C2.679,31,1,29.321,1,27.25V4.75
									C1,2.679,2.679,1,4.75,1h22.5C29.321,1,31,2.679,31,4.75V27.25z"/>
							</g>
						</g>
					</g>
				</g>
			</g>
		</g>
	</g>
	<g>
		<defs>
			<rect id="SVGID_3_" x="16.001" width="16" height="16"/>
		</defs>
		<clipPath id="SVGID_4_">
			<use xlink:href="#SVGID_3_"  overflow="visible"/>
		</clipPath>
		<g clip-path="url(#SVGID_4_)">
			<g>
				<g id="button_x5F_base_6_">
					<g id="button_12_">
						<g>
							<g>
								<g id="button_x5F_shape_5_">
									<g>
										<g opacity="0">
											<path fill="#FFFFFF" d="M32,28c0,2.209-1.791,4-4,4H4c-2.209,0-4-1.791-4-4V4c0-2.209,1.791-4,4-4h24
												c2.209,0,4,1.791,4,4V28z"/>
										</g>
									</g>
								</g>
							</g>
						</g>
						<g>
							<g>
								<path fill="#999999" d="M32,28c0,2.209-1.791,4-4,4H4c-2.209,0-4-1.791-4-4V4c0-2.209,1.791-4,4-4h24c2.209,0,4,1.791,4,4
									V28z"/>
							</g>
						</g>
					</g>
				</g>
				<g id="button_11_">
					<g>
						<g>
							<g>
								<g>
									<g opacity="0">
										<path fill="#FFFFFF" d="M31,27.25c0,2.071-1.679,3.75-3.75,3.75H4.75C2.679,31,1,29.321,1,27.25V4.75
											C1,2.679,2.679,1,4.75,1h22.5C29.321,1,31,2.679,31,4.75V27.25z"/>
									</g>
								</g>
							</g>
						</g>
					</g>
					<g>
						<g>
							<path fill="#F2F2F2" d="M31,27.25c0,2.071-1.679,3.75-3.75,3.75H4.75C2.679,31,1,29.321,1,27.25V4.75C1,2.679,2.679,1,4.75,1
								h22.5C29.321,1,31,2.679,31,4.75V27.25z"/>
						</g>
					</g>
				</g>
			</g>
			<g>
				<g>
					<g>
						<g>
							<g>
								<path fill="#3274D1" d="M32,28c0,2.209-1.791,4-4,4H4c-2.209,0-4-1.791-4-4V4c0-2.209,1.791-4,4-4h24c2.209,0,4,1.791,4,4
									V28z"/>
							</g>
						</g>
					</g>
					<g>
						<g>
							<g>
								<path fill="#3274D1" d="M32,28c0,2.209-1.791,4-4,4H4c-2.209,0-4-1.791-4-4V4c0-2.209,1.791-4,4-4h24c2.209,0,4,1.791,4,4
									V28z"/>
							</g>
						</g>
					</g>
				</g>
				<g>
					<g>
						<g>
							<g>
								<path fill="#3274D1" d="M31,27.25c0,2.071-1.679,3.75-3.75,3.75H4.75C2.679,31,1,29.321,1,27.25V4.75
									C1,2.679,2.679,1,4.75,1h22.5C29.321,1,31,2.679,31,4.75V27.25z"/>
							</g>
						</g>
					</g>
					<g>
						<g>
							<g>
								<path fill="#3274D1" d="M31,27.25c0,2.071-1.679,3.75-3.75,3.75H4.75C2.679,31,1,29.321,1,27.25V4.75
									C1,2.679,2.679,1,4.75,1h22.5C29.321,1,31,2.679,31,4.75V27.25z"/>
							</g>
						</g>
					</g>
				</g>
			</g>
		</g>
	</g>
	<g>
		<defs>
			<rect id="SVGID_5_" x="0.001" y="16" width="16" height="16"/>
		</defs>
		<clipPath id="SVGID_6_">
			<use xlink:href="#SVGID_5_"  overflow="visible"/>
		</clipPath>
		<g clip-path="url(#SVGID_6_)">
			<g>
				<g id="button_x5F_base_5_">
					<g id="button_10_">
						<g>
							<g>
								<g id="button_x5F_shape_4_">
									<g>
										<g opacity="0">
											<path fill="#FFFFFF" d="M32,28c0,2.209-1.791,4-4,4H4c-2.209,0-4-1.791-4-4V4c0-2.209,1.791-4,4-4h24
												c2.209,0,4,1.791,4,4V28z"/>
										</g>
									</g>
								</g>
							</g>
						</g>
						<g>
							<g>
								<path fill="#999999" d="M32,28c0,2.209-1.791,4-4,4H4c-2.209,0-4-1.791-4-4V4c0-2.209,1.791-4,4-4h24c2.209,0,4,1.791,4,4
									V28z"/>
							</g>
						</g>
					</g>
				</g>
				<g id="button_9_">
					<g>
						<g>
							<g>
								<g>
									<g opacity="0">
										<path fill="#FFFFFF" d="M31,27.25c0,2.071-1.679,3.75-3.75,3.75H4.75C2.679,31,1,29.321,1,27.25V4.75
											C1,2.679,2.679,1,4.75,1h22.5C29.321,1,31,2.679,31,4.75V27.25z"/>
									</g>
								</g>
							</g>
						</g>
					</g>
					<g>
						<g>
							<path fill="#F2F2F2" d="M31,27.25c0,2.071-1.679,3.75-3.75,3.75H4.75C2.679,31,1,29.321,1,27.25V4.75C1,2.679,2.679,1,4.75,1
								h22.5C29.321,1,31,2.679,31,4.75V27.25z"/>
						</g>
					</g>
				</g>
			</g>
			<g>
				<g>
					<g>
						<g>
							<g>
								<path fill="#020202" d="M32,28c0,2.209-1.791,4-4,4H4c-2.209,0-4-1.791-4-4V4c0-2.209,1.791-4,4-4h24c2.209,0,4,1.791,4,4
									V28z"/>
							</g>
						</g>
					</g>
					<g>
						<g>
							<g>
								<path fill="#020202" d="M32,28c0,2.209-1.791,4-4,4H4c-2.209,0-4-1.791-4-4V4c0-2.209,1.791-4,4-4h24c2.209,0,4,1.791,4,4
									V28z"/>
							</g>
						</g>
					</g>
				</g>
				<g>
					<g>
						<g>
							<g>
								<path fill="#020202" d="M31,27.25c0,2.071-1.679,3.75-3.75,3.75H4.75C2.679,31,1,29.321,1,27.25V4.75
									C1,2.679,2.679,1,4.75,1h22.5C29.321,1,31,2.679,31,4.75V27.25z"/>
							</g>
						</g>
					</g>
					<g>
						<g>
							<g>
								<path fill="#020202" d="M31,27.25c0,2.071-1.679,3.75-3.75,3.75H4.75C2.679,31,1,29.321,1,27.25V4.75
									C1,2.679,2.679,1,4.75,1h22.5C29.321,1,31,2.679,31,4.75V27.25z"/>
							</g>
						</g>
					</g>
				</g>
			</g>
		</g>
	</g>
	<g>
		<defs>
			<rect id="SVGID_7_" x="16" y="16" width="16" height="16"/>
		</defs>
		<clipPath id="SVGID_8_">
			<use xlink:href="#SVGID_7_"  overflow="visible"/>
		</clipPath>
		<g clip-path="url(#SVGID_8_)">
			<g>
				<g id="button_x5F_base_4_">
					<g id="button_8_">
						<g>
							<g>
								<g id="button_x5F_shape_3_">
									<g>
										<g opacity="0">
											<path fill="#FFFFFF" d="M31.998,28c0,2.209-1.79,4-4,4h-24c-2.209,0-4-1.791-4-4V4c0-2.209,1.791-4,4-4h24
												c2.21,0,4,1.791,4,4V28z"/>
										</g>
									</g>
								</g>
							</g>
						</g>
						<g>
							<g>
								<path fill="#999999" d="M31.998,28c0,2.209-1.79,4-4,4h-24c-2.209,0-4-1.791-4-4V4c0-2.209,1.791-4,4-4h24
									c2.21,0,4,1.791,4,4V28z"/>
							</g>
						</g>
					</g>
				</g>
				<g id="button_7_">
					<g>
						<g>
							<g>
								<g>
									<g opacity="0">
										<path fill="#FFFFFF" d="M30.998,27.25c0,2.071-1.679,3.75-3.75,3.75h-22.5c-2.071,0-3.75-1.679-3.75-3.75V4.75
											C0.999,2.679,2.678,1,4.749,1h22.5c2.071,0,3.75,1.679,3.75,3.75V27.25z"/>
									</g>
								</g>
							</g>
						</g>
					</g>
					<g>
						<g>
							<path fill="#F2F2F2" d="M30.998,27.25c0,2.071-1.679,3.75-3.75,3.75h-22.5c-2.071,0-3.75-1.679-3.75-3.75V4.75
								C0.999,2.679,2.678,1,4.749,1h22.5c2.071,0,3.75,1.679,3.75,3.75V27.25z"/>
						</g>
					</g>
				</g>
			</g>
			<g>
				<g>
					<g>
						<g>
							<g>
								<path fill="#DDDDDD" d="M31.998,28c0,2.209-1.79,4-4,4h-24c-2.209,0-4-1.791-4-4V4c0-2.209,1.791-4,4-4h24
									c2.21,0,4,1.791,4,4V28z"/>
							</g>
						</g>
					</g>
					<g>
						<g>
							<g>
								<path fill="#DDDDDD" d="M31.998,28c0,2.209-1.79,4-4,4h-24c-2.209,0-4-1.791-4-4V4c0-2.209,1.791-4,4-4h24
									c2.21,0,4,1.791,4,4V28z"/>
							</g>
						</g>
					</g>
				</g>
				<g>
					<g>
						<g>
							<g>
								<path fill="#DDDDDD" d="M30.998,27.25c0,2.071-1.679,3.75-3.75,3.75h-22.5c-2.071,0-3.75-1.679-3.75-3.75V4.75
									C0.999,2.679,2.678,1,4.749,1h22.5c2.071,0,3.75,1.679,3.75,3.75V27.25z"/>
							</g>
						</g>
					</g>
					<g>
						<g>
							<g>
								<path fill="#DDDDDD" d="M30.998,27.25c0,2.071-1.679,3.75-3.75,3.75h-22.5c-2.071,0-3.75-1.679-3.75-3.75V4.75
									C0.999,2.679,2.678,1,4.749,1h22.5c2.071,0,3.75,1.679,3.75,3.75V27.25z"/>
							</g>
						</g>
					</g>
				</g>
			</g>
		</g>
	</g>
</g>
</svg>
