<?xml version="1.0" encoding="utf-8"?>
<!-- Generator: Adobe Illustrator 14.0.0, SVG Export Plug-In . SVG Version: 6.00 Build 43363)  -->
<!DOCTYPE svg PUBLIC "-//W3C//DTD SVG 1.1//EN" "http://www.w3.org/Graphics/SVG/1.1/DTD/svg11.dtd">
<svg version="1.1" id="Layer_1" xmlns="http://www.w3.org/2000/svg" xmlns:xlink="http://www.w3.org/1999/xlink" x="0px" y="0px"
     width="32px" height="32px" viewBox="0 0 32 32" enable-background="new 0 0 32 32" xml:space="preserve">
<g>
	<polygon fill="#FFFFFF" points="28.833,16.62 26.5,16.62 26.5,27.083 22.417,27.083 22.417,21.25 20.667,21.25 20.667,27.083 
		16,27.083 16,16.583 12.464,16.583 12.5,10.701 28.833,10.701 	"/>
	<path fill="#2A5F91" d="M13.667,9.583V9.416c0,0-3.334-3.333-5.835-3.333C5.334,6.083,2,9.416,2,9.416v8.334h4.667v3.522
		c-1.944,0.115-3.5,1.627-3.5,3.478v2.625c0,0.481,0.42,0.875,0.934,0.875h7.465c0.514,0,0.935-0.394,0.935-0.875v-1.75V24.75
		c0-1.851-1.557-3.362-3.5-3.478V17.75h4.667v-0.036h1.166V28.25h12.834V17.714H30V9.583H13.667z M28.833,16.62H26.5v10.463h-4.083
		V21.25h-1.75v5.833H16v-10.5h-2.333v-5.882h15.166V16.62z"/>
	<g>
		<g>
			<path fill="#2A5F91" d="M16,3.75v10.5h10.5V3.75H16z M25.333,13.083h-8.166V4.917h8.166V13.083z"/>
		</g>
		<rect x="17.167" y="4.917" fill="#FFFFFF" width="8.166" height="8.166"/>
	</g>
	<path fill="#FFFFFF" d="M11.319,27.23h-7v-2.333c0-1.286,1.151-2.333,2.566-2.333h1.868c1.415,0,2.565,1.047,2.565,2.333V27.23z"/>
	<path fill="#FFFFFF" d="M12.485,16.613H3.152V9.945C4.393,8.799,6.488,7.28,7.817,7.28c1.332,0,3.427,1.519,4.667,2.665V16.613z"/>
</g>
</svg>
