<?xml version="1.0" encoding="utf-8"?>
<!-- Generator: Adobe Illustrator 14.0.0, SVG Export Plug-In . SVG Version: 6.00 Build 43363)  -->
<!DOCTYPE svg PUBLIC "-//W3C//DTD SVG 1.1//EN" "http://www.w3.org/Graphics/SVG/1.1/DTD/svg11.dtd">
<svg version="1.1" id="Layer_1" xmlns="http://www.w3.org/2000/svg" xmlns:xlink="http://www.w3.org/1999/xlink" x="0px" y="0px"
     width="32px" height="32px" viewBox="0 0 32 32" enable-background="new 0 0 32 32" xml:space="preserve">
<symbol  id="_x5F_button_x5F_shape" viewBox="-16 -16 32 32">
	<g id="button_x5F_shape_2_">
		<g>
			<g opacity="0">
				<path fill="#FFFFFF" d="M16-12c0-2.209-1.791-4-4-4h-24c-2.209,0-4,1.791-4,4v24c0,2.209,1.791,4,4,4h24c2.209,0,4-1.791,4-4
					V-12z"/>
			</g>
		</g>
	</g>
</symbol>
<symbol  id="facebook" viewBox="-16.001 -16 32.002 32">
	<g>
		<g>
			<g id="button_x5F_base_5_">
				<g id="button_10_">
					<g>
						
							<use xlink:href="#_x5F_button_x5F_shape"  width="32" height="32" x="-16" y="-16" transform="matrix(1 0 0 1 -9.765625e-004 0)" overflow="visible"/>
					</g>
					<g>
						<g>
							<g>
								<g>
									<path fill="#999999" d="M15.999-12c0-2.209-1.791-4-4-4h-24c-2.209,0-4,1.791-4,4v24c0,2.209,1.791,4,4,4h24
										c2.209,0,4-1.791,4-4V-12z"/>
								</g>
							</g>
						</g>
					</g>
				</g>
			</g>
			<g id="button_9_">
				<g>
					
						<use xlink:href="#_x5F_button_x5F_shape"  width="32" height="32" x="-16" y="-16" transform="matrix(0.9375 0 0 0.9375 -9.765625e-004 0)" overflow="visible"/>
				</g>
				<g>
					<g>
						<g>
							<g>
								<g>
									<path fill="#F2F2F2" d="M14.999-11.25c0-2.071-1.679-3.75-3.75-3.75h-22.5c-2.071,0-3.75,1.679-3.75,3.75v22.5
										c0,2.071,1.679,3.75,3.75,3.75h22.5c2.071,0,3.75-1.679,3.75-3.75V-11.25z"/>
								</g>
							</g>
						</g>
					</g>
				</g>
			</g>
		</g>
		<g>
			<g>
				<g>
					<g>
						<path fill="#FFFFFF" d="M15.999-12c0-2.209-1.791-4-4-4h-24c-2.209,0-4,1.791-4,4v24c0,2.209,1.791,4,4,4h24
							c2.209,0,4-1.791,4-4V-12z"/>
					</g>
				</g>
				<g>
					<g>
						<path fill="#FFFFFF" d="M15.999-12c0-2.209-1.791-4-4-4h-24c-2.209,0-4,1.791-4,4v24c0,2.209,1.791,4,4,4h24
							c2.209,0,4-1.791,4-4V-12z"/>
					</g>
				</g>
			</g>
			<g>
				<g>
					<g>
						<path fill="#FFFFFF" d="M14.999-11.25c0-2.071-1.679-3.75-3.75-3.75h-22.5c-2.071,0-3.75,1.679-3.75,3.75v22.5
							c0,2.07,1.679,3.75,3.75,3.75h22.5c2.071,0,3.75-1.68,3.75-3.75V-11.25z"/>
					</g>
				</g>
				<g>
					<g>
						<path fill="#FFFFFF" d="M14.999-11.25c0-2.071-1.679-3.75-3.75-3.75h-22.5c-2.071,0-3.75,1.679-3.75,3.75v22.5
							c0,2.07,1.679,3.75,3.75,3.75h22.5c2.071,0,3.75-1.68,3.75-3.75V-11.25z"/>
					</g>
				</g>
			</g>
		</g>
	</g>
	<g>
		<defs>
			<polygon id="SVGID_1_" points="16.001,-16 -15.999,-16 -15.999,-7 16.001,-7 			"/>
		</defs>
		<clipPath id="SVGID_2_">
			<use xlink:href="#SVGID_1_"  overflow="visible"/>
		</clipPath>
		<g clip-path="url(#SVGID_2_)">
			<g>
				<g id="button_x5F_base_4_">
					<g id="button_8_">
						<g>
							
								<use xlink:href="#_x5F_button_x5F_shape"  width="32" height="32" x="-16" y="-16" transform="matrix(1 0 0 1 -9.765625e-004 0)" overflow="visible"/>
						</g>
						<g>
							<g>
								<g>
									<g>
										<path fill="#999999" d="M15.999-12c0-2.209-1.791-4-4-4h-24c-2.209,0-4,1.791-4,4v24c0,2.209,1.791,4,4,4h24
											c2.209,0,4-1.791,4-4V-12z"/>
									</g>
								</g>
							</g>
						</g>
					</g>
				</g>
				<g id="button_7_">
					<g>
						
							<use xlink:href="#_x5F_button_x5F_shape"  width="32" height="32" x="-16" y="-16" transform="matrix(0.9375 0 0 0.9375 -9.765625e-004 0)" overflow="visible"/>
					</g>
					<g>
						<g>
							<g>
								<g>
									<g>
										<path fill="#F2F2F2" d="M14.999-11.25c0-2.071-1.679-3.75-3.75-3.75h-22.5c-2.071,0-3.75,1.679-3.75,3.75v22.5
											c0,2.071,1.679,3.75,3.75,3.75h22.5c2.071,0,3.75-1.679,3.75-3.75V-11.25z"/>
									</g>
								</g>
							</g>
						</g>
					</g>
				</g>
			</g>
			<g>
				<g>
					<g>
						<g>
							<path fill="#8B9DC3" d="M15.999-12c0-2.209-1.791-4-4-4h-24c-2.209,0-4,1.791-4,4v24c0,2.209,1.791,4,4,4h24
								c2.209,0,4-1.791,4-4V-12z"/>
						</g>
					</g>
					<g>
						<g>
							<path fill="#8B9DC3" d="M15.999-12c0-2.209-1.791-4-4-4h-24c-2.209,0-4,1.791-4,4v24c0,2.209,1.791,4,4,4h24
								c2.209,0,4-1.791,4-4V-12z"/>
						</g>
					</g>
				</g>
				<g>
					<g>
						<g>
							<path fill="#8B9DC3" d="M14.999-11.25c0-2.071-1.679-3.75-3.75-3.75h-22.5c-2.071,0-3.75,1.679-3.75,3.75v22.5
								c0,2.07,1.679,3.75,3.75,3.75h22.5c2.071,0,3.75-1.68,3.75-3.75V-11.25z"/>
						</g>
					</g>
					<g>
						<g>
							<path fill="#8B9DC3" d="M14.999-11.25c0-2.071-1.679-3.75-3.75-3.75h-22.5c-2.071,0-3.75,1.679-3.75,3.75v22.5
								c0,2.07,1.679,3.75,3.75,3.75h22.5c2.071,0,3.75-1.68,3.75-3.75V-11.25z"/>
						</g>
					</g>
				</g>
			</g>
		</g>
	</g>
	<g>
		<g>
			<path fill="#3B5998" d="M5.273,7.037h4.029v4.979H5.273c-3.332,0-6.044-2.931-6.044-6.534V2.969H-4.8v-4.994h4.029v-12.094h5.037
				v12.094h5.036v4.994H4.267v2.561C4.267,6.393,4.799,7.037,5.273,7.037z"/>
		</g>
		<g>
			<path fill="#FFFFFF" d="M4.77-14.623h-6.043v12.095h-4.029v6h4.029v2.01c0,3.881,2.938,7.037,6.547,7.037h4.533V6.535H5.273
				c-0.125,0-0.504-0.357-0.504-1.006V3.472h5.037v-6H4.77V-14.623L4.77-14.623z M-0.267-13.617h4.029v12.094h5.036v3.99H3.763
				v3.063c0,1.09,0.692,2.011,1.511,2.011h3.525v3.974H5.273c-3.055,0-5.54-2.705-5.54-6.032V2.467h-4.029v-3.99h4.029V-13.617
				L-0.267-13.617z"/>
		</g>
	</g>
</symbol>
<use xlink:href="#facebook"  width="32.002" height="32" id="XMLID_1_" x="-16.001" y="-16" transform="matrix(1 0 0 -1 16 16)" overflow="visible"/>
</svg>
