<?xml version="1.0" encoding="utf-8"?>
<!-- Generator: Adobe Illustrator 14.0.0, SVG Export Plug-In . SVG Version: 6.00 Build 43363)  -->
<!DOCTYPE svg PUBLIC "-//W3C//DTD SVG 1.1//EN" "http://www.w3.org/Graphics/SVG/1.1/DTD/svg11.dtd">
<svg version="1.1" id="Layer_1" xmlns="http://www.w3.org/2000/svg" xmlns:xlink="http://www.w3.org/1999/xlink" x="0px" y="0px"
	 width="32px" height="32px" viewBox="0 0 32 32" enable-background="new 0 0 32 32" xml:space="preserve">
<symbol  id="_x5F_button_x5F_shape" viewBox="-16 -16 32 32">
	<g id="button_x5F_shape_2_">
		<g>
			<g opacity="0">
				<path fill="#FFFFFF" d="M16-12c0-2.209-1.791-4-4-4h-24c-2.209,0-4,1.791-4,4v24c0,2.209,1.791,4,4,4h24c2.209,0,4-1.791,4-4
					V-12z"/>
			</g>
		</g>
	</g>
</symbol>
<g>
	<circle fill="#003399" cx="22.622" cy="6.634" r="4.634"/>
	<path fill="#003399" d="M28.991,18.42c-0.002-3.517-2.854-6.367-6.369-6.367c-1.669,0-3.183,0.646-4.318,1.696
		c-0.778-1.68-2.469-2.853-4.442-2.853c-1.332,0-2.536,0.535-3.42,1.396c-0.725-1.098-1.966-1.824-3.38-1.824
		c-2.237,0-4.052,1.813-4.053,4.05v7.015h5.946v2.762h7.297V30h12.741L28.991,18.42L28.991,18.42z"/>
	<circle fill="#003399" cx="13.862" cy="6.722" r="3.569"/>
	<circle fill="#003399" cx="7.062" cy="7.02" r="2.948"/>
</g>
</svg>
