<?xml version="1.0" encoding="utf-8"?>
<!-- Generator: Adobe Illustrator 14.0.0, SVG Export Plug-In . SVG Version: 6.00 Build 43363)  -->
<!DOCTYPE svg PUBLIC "-//W3C//DTD SVG 1.1//EN" "http://www.w3.org/Graphics/SVG/1.1/DTD/svg11.dtd">
<svg version="1.1" id="Layer_1" xmlns="http://www.w3.org/2000/svg" xmlns:xlink="http://www.w3.org/1999/xlink" x="0px" y="0px"
     width="32px" height="32px" viewBox="0 0 32 32" enable-background="new 0 0 32 32" xml:space="preserve">
<g>
	<circle fill="#CD1D1F" cx="16" cy="16" r="14"/>
	<path fill="#FFFFFF" d="M10.906,26.36c-5.245-2.325-7.867-8.879-5.74-14.375c2.259-5.84,8.762-8.815,14.618-6.688
		c5.95,2.164,8.987,8.544,6.935,14.577c-1.912,5.627-8.393,8.967-13.836,7.212c0.6-1.815,1.199-3.63,1.788-5.415
		c1.747,1.594,4.067,1.648,6.1,0.093c2.512-1.925,3.626-6.393,2.286-9.267c-1.079-2.313-2.97-3.615-5.447-3.94
		c-3.271-0.428-6.161,0.399-8.188,3.176c-1.458,2.001-1.763,4.22-0.741,6.537c0.324,0.736,0.878,1.285,1.6,1.65
		c0.422,0.216,0.688,0.117,0.839-0.358c0.2-0.641,0.189-1.162-0.221-1.791c-0.858-1.308-0.62-2.741-0.053-4.1
		c1.347-3.214,5.972-4.349,8.561-2.128c0.852,0.732,1.279,1.685,1.349,2.769c0.109,1.644-0.146,3.235-0.937,4.707
		c-0.471,0.873-1.114,1.556-2.12,1.799c-1.529,0.369-2.66-0.735-2.288-2.26c0.246-1.022,0.565-2.027,0.837-3.044
		c0.071-0.262,0.107-0.538,0.12-0.809c0.033-0.78-0.335-1.44-0.917-1.696c-0.631-0.274-1.456-0.095-1.986,0.484
		c-0.967,1.056-1.016,2.3-0.731,3.629c0.093,0.434,0.107,0.921,0.013,1.354c-0.434,2.022-0.938,4.028-1.371,6.051
		C11.238,25.146,11.006,26.405,10.906,26.36z"/>
</g>
</svg>
