<?xml version="1.0" encoding="utf-8"?>
<!-- Generator: Adobe Illustrator 14.0.0, SVG Export Plug-In . SVG Version: 6.00 Build 43363)  -->
<!DOCTYPE svg PUBLIC "-//W3C//DTD SVG 1.1//EN" "http://www.w3.org/Graphics/SVG/1.1/DTD/svg11.dtd">
<svg version="1.1" id="Layer_1" xmlns="http://www.w3.org/2000/svg" xmlns:xlink="http://www.w3.org/1999/xlink" x="0px" y="0px"
	 width="32px" height="32px" viewBox="0 0 32 32" enable-background="new 0 0 32 32" xml:space="preserve">
<g id="XMLID_1_">
	<g>
		<g>
			<path fill="#4E4E4E" d="M15.869,11.234c-0.053,0-0.106-0.008-0.159-0.026c-0.262-0.088-0.403-0.371-0.315-0.633l2.221-6.627
				c0.081-0.243,0.335-0.384,0.582-0.33l9.061,2.014c0.27,0.06,0.439,0.327,0.38,0.597c-0.06,0.269-0.324,0.439-0.597,0.38
				l-8.621-1.916l-2.078,6.2C16.273,11.103,16.078,11.234,15.869,11.234L15.869,11.234z"/>
		</g>
		<g>
			<g>
				<path fill="#FFFFFF" d="M25.756,8.232c-1.182,0-2.144-0.961-2.144-2.143s0.962-2.143,2.144-2.143
					c1.181,0,2.142,0.961,2.142,2.143S26.937,8.232,25.756,8.232L25.756,8.232z"/>
			</g>
			<g>
				<path fill="#232323" d="M25.756,4.447c0.906,0,1.642,0.735,1.642,1.643c0,0.906-0.735,1.643-1.642,1.643
					c-0.908,0-1.644-0.736-1.644-1.643C24.112,5.183,24.848,4.447,25.756,4.447 M25.756,3.447c-1.458,0-2.644,1.186-2.644,2.643
					s1.186,2.643,2.644,2.643c1.457,0,2.642-1.186,2.642-2.643S27.213,3.447,25.756,3.447L25.756,3.447z"/>
			</g>
		</g>
	</g>
	<g>
		<g>
			<circle fill="#FFFFFF" cx="4.62" cy="15.164" r="2.62"/>
			<path fill="#232323" d="M4.62,18.284c-1.72,0-3.12-1.4-3.12-3.12s1.4-3.12,3.12-3.12s3.12,1.4,3.12,3.12S6.34,18.284,4.62,18.284
				L4.62,18.284z M4.62,13.044c-1.169,0-2.12,0.951-2.12,2.12s0.951,2.12,2.12,2.12s2.12-0.951,2.12-2.12S5.789,13.044,4.62,13.044
				L4.62,13.044z"/>
		</g>
		<g>
			<circle fill="#FFFFFF" cx="27.38" cy="15.164" r="2.62"/>
			<path fill="#232323" d="M27.38,18.284c-1.721,0-3.12-1.4-3.12-3.12s1.399-3.12,3.12-3.12s3.12,1.4,3.12,3.12
				S29.101,18.284,27.38,18.284L27.38,18.284z M27.38,13.044c-1.169,0-2.12,0.951-2.12,2.12s0.951,2.12,2.12,2.12
				s2.12-0.951,2.12-2.12S28.549,13.044,27.38,13.044L27.38,13.044z"/>
		</g>
	</g>
	<g>
		<ellipse fill="#FFFFFF" cx="16" cy="19.714" rx="13.164" ry="8.339"/>
		<path fill="#232323" d="M16,28.553c-7.534,0-13.664-3.965-13.664-8.839c0-4.875,6.13-8.84,13.664-8.84s13.664,3.965,13.664,8.84
			C29.664,24.588,23.534,28.553,16,28.553L16,28.553z M16,11.874c-6.983,0-12.664,3.517-12.664,7.84
			c0,4.322,5.681,7.839,12.664,7.839c6.983,0,12.664-3.517,12.664-7.839C28.664,15.391,22.983,11.874,16,11.874L16,11.874z"/>
	</g>
	<g>
		<path fill="#232323" d="M16,25.501c-2.242,0-4.799-0.481-5.455-1.558c-0.144-0.236-0.069-0.544,0.167-0.688
			c0.234-0.144,0.543-0.069,0.687,0.166c0.266,0.436,1.911,1.079,4.602,1.079s4.336-0.644,4.602-1.079
			c0.144-0.236,0.449-0.311,0.688-0.166c0.235,0.144,0.31,0.451,0.166,0.688C20.799,25.02,18.242,25.501,16,25.501L16,25.501z"/>
	</g>
	<g>
		<g>
			<circle fill="#FF4500" cx="20.814" cy="17.527" r="2.199"/>
		</g>
		<g>
			<circle fill="#FF4500" cx="11.186" cy="17.527" r="2.199"/>
		</g>
	</g>
</g>
</svg>
