<?xml version="1.0" encoding="utf-8"?>
<!-- Generator: Adobe Illustrator 14.0.0, SVG Export Plug-In . SVG Version: 6.00 Build 43363)  -->
<!DOCTYPE svg PUBLIC "-//W3C//DTD SVG 1.1//EN" "http://www.w3.org/Graphics/SVG/1.1/DTD/svg11.dtd">
<svg version="1.1" id="Layer_1" xmlns="http://www.w3.org/2000/svg" xmlns:xlink="http://www.w3.org/1999/xlink" x="0px" y="0px"
     width="32px" height="32px" viewBox="0 0 32 32" enable-background="new 0 0 32 32" xml:space="preserve">
<symbol  id="_x5F_button_x5F_shape" viewBox="-16 -16 32 32">
	<g id="button_x5F_shape_1_">
		<g>
			<g opacity="0">
				<path fill="#FFFFFF" d="M16-12c0-2.209-1.792-4-4-4h-24c-2.208,0-4,1.791-4,4v24c0,2.209,1.792,4,4,4h24c2.208,0,4-1.791,4-4
					V-12z"/>
			</g>
		</g>
	</g>
</symbol>
<symbol  id="rss" viewBox="-16 -16 32 32">
	<g id="rss_1_">
		<g>
			<path fill="#FFFFFF" d="M-11.74-7.468c-2.351,0-4.26-1.915-4.26-4.252c0-2.349,1.91-4.243,4.26-4.243
				c2.358,0,4.265,1.896,4.265,4.243C-7.475-9.383-9.382-7.468-11.74-7.468z"/>
			<path fill="#FFFFFF" d="M-15.996,5.128v-6.135c3.995,0,7.75-1.561,10.577-4.391C-2.593-8.218-1.034-11.991-1.034-16h6.16
				C5.126-4.35-4.353,5.128-15.996,5.128z"/>
			<path fill="#FFFFFF" d="M-15.988,16V9.863C-1.746,9.863,9.849-1.741,9.849-16H16C16,1.641,1.648,16-15.988,16z"/>
			<g>
				<g>
					<path fill="#4D4D4D" d="M-14.424,3.493c9.53-0.761,17.155-8.39,17.917-17.922L5.126-16c0,11.65-9.479,21.128-21.122,21.128l0,0
						"/>
					<path fill="#4D4D4D" d="M16-16C16,1.641,1.648,16-15.988,16l1.571-1.61C1.108,13.595,13.596,1.102,14.389-14.429L16-16z"/>
					<path fill="#4D4D4D" d="M-7.972-9.719c-1.097,2.063-3.681,2.858-5.763,1.752c0,0,0.077,0.012,0.19,0.022
						c0.307,0.069,0.624,0.112,0.951,0.112c2.399,0,4.345-1.944,4.345-4.344c0-1.256-0.54-2.379-1.392-3.17
						c-0.064-0.078-0.105-0.123-0.105-0.123c1.021,0.543,1.733,1.438,2.063,2.453C-7.341-11.96-7.41-10.776-7.972-9.719z"/>
				</g>
			</g>
		</g>
	</g>
</symbol>
<use xlink:href="#rss"  width="32" height="32" x="-16" y="-16" transform="matrix(1 0 0 -1 16 16)" overflow="visible"/>
</svg>
