<?xml version="1.0" encoding="utf-8"?>
<!-- Generator: Adobe Illustrator 14.0.0, SVG Export Plug-In . SVG Version: 6.00 Build 43363)  -->
<!DOCTYPE svg PUBLIC "-//W3C//DTD SVG 1.1//EN" "http://www.w3.org/Graphics/SVG/1.1/DTD/svg11.dtd">
<svg version="1.1" id="Layer_1" xmlns="http://www.w3.org/2000/svg" xmlns:xlink="http://www.w3.org/1999/xlink" x="0px" y="0px"
     width="32px" height="32px" viewBox="0 0 32 32" enable-background="new 0 0 32 32" xml:space="preserve">
<symbol  id="stackoverflow" viewBox="-10.577 -14 21.154 28">
	<g>
		<polygon fill="#818185" points="4.946,-2.833 4.946,-12.259 -8.801,-12.259 -8.801,-2.833 -10.577,-2.833 -10.577,-14 6.723,-14 
			6.723,-2.833 		"/>
		<polygon fill="#818185" points="3.618,-10.268 -7.473,-10.268 -7.473,-7.958 3.618,-7.958 		"/>
		<polygon fill="#A68A6E" points="3.424,-7.158 -7.628,-6.226 -7.434,-3.923 3.618,-4.856 		"/>
		<polygon fill="#C09553" points="3.526,-4.144 -7.181,-1.251 -6.578,0.979 4.129,-1.913 		"/>
		<polygon fill="#D38B28" points="4.438,-1.36 -5.138,4.233 -3.973,6.229 5.604,0.634 		"/>
		<polygon fill="#FD8A07" points="6.133,1.197 -0.349,10.197 1.526,11.548 8.008,2.548 		"/>
		<polygon fill="#FE7A15" points="8.304,2.677 6.342,13.593 8.616,14 10.577,3.084 		"/>
	</g>
</symbol>
<use xlink:href="#stackoverflow"  width="21.154" height="28" id="XMLID_21_" x="-10.577" y="-14" transform="matrix(1 0 0 -1 16 16)" overflow="visible"/>
</svg>
