<?xml version="1.0" encoding="utf-8"?>
<!-- Generator: Adobe Illustrator 14.0.0, SVG Export Plug-In . SVG Version: 6.00 Build 43363)  -->
<!DOCTYPE svg PUBLIC "-//W3C//DTD SVG 1.1//EN" "http://www.w3.org/Graphics/SVG/1.1/DTD/svg11.dtd">
<svg version="1.1" id="Layer_1" xmlns="http://www.w3.org/2000/svg" xmlns:xlink="http://www.w3.org/1999/xlink" x="0px" y="0px"
     width="32px" height="32px" viewBox="0 0 32 32" enable-background="new 0 0 32 32" xml:space="preserve">
<g>
	<path fill="#0000FF" d="M14.052,20.864c0.076-2.275-1.844-4.229-4.28-4.355l-0.917-0.049c-0.885-0.045-1.634-0.778-1.634-1.602
		c0-0.796,0.737-1.48,1.599-1.48h6.023c0.861,0,1.526,0.737,1.526,1.599v5.543c0,2.454,1.997,4.45,4.451,4.45h0.728
		c2.454,0,4.451-1.996,4.451-4.45V1.89c-0.108-0.006-0.211-0.032-0.32-0.032H23.11v18.661c0,0.861-0.7,1.561-1.562,1.561h-0.728
		c-0.861,0-1.562-0.699-1.562-1.561v-5.543c0-2.454-1.997-4.452-4.453-4.452H8.785c-2.454,0-4.452,1.945-4.452,4.333
		c0,2.35,1.962,4.363,4.372,4.487l0.917,0.049c0.861,0.046,1.567,0.674,1.544,1.376c-0.023,0.711-0.781,1.31-1.654,1.31H0v2.89
		h9.511C11.939,24.969,13.976,23.127,14.052,20.864z"/>
	<path fill="#84C341" d="M14.052,19.008c0.076-2.276-1.844-4.23-4.28-4.356l-0.917-0.049C7.971,14.558,7.222,13.824,7.222,13
		c0-0.795,0.737-1.48,1.599-1.48h6.023c0.861,0,1.526,0.737,1.526,1.599v5.543c0,2.454,1.997,4.449,4.451,4.449h0.728
		c2.454,0,4.451-1.995,4.451-4.449V0.032C25.892,0.026,25.789,0,25.68,0H23.11v18.662c0,0.86-0.7,1.561-1.562,1.561h-0.728
		c-0.861,0-1.562-0.7-1.562-1.561v-5.543c0-2.455-1.997-4.452-4.453-4.452H8.785c-2.454,0-4.452,1.945-4.452,4.333
		c0,2.349,1.962,4.363,4.372,4.488l0.917,0.049c0.861,0.045,1.567,0.673,1.544,1.375c-0.023,0.71-0.781,1.311-1.654,1.311H0v2.889
		h9.511C11.939,23.111,13.976,21.27,14.052,19.008z"/>
	<g>
		<path fill="#FFFFFF" d="M20.821,23.79c-2.316,0-4.201-1.885-4.201-4.2v-5.542c0-1.02-0.797-1.849-1.776-1.849H8.821
			c-1.002,0-1.849,0.792-1.849,1.73c0,0.953,0.857,1.801,1.871,1.852l0.916,0.049c2.301,0.119,4.115,1.958,4.043,4.098
			c-0.072,2.129-1.997,3.862-4.291,3.862H0.25V21.4h9.261c1.005,0,1.876-0.711,1.904-1.552c0.028-0.833-0.788-1.581-1.781-1.633
			l-0.916-0.05c-2.281-0.116-4.135-2.018-4.135-4.237c0-2.251,1.885-4.083,4.202-4.083h6.022c2.317,0,4.203,1.885,4.203,4.202v5.542
			c0,0.999,0.813,1.811,1.812,1.811h0.728c0.999,0,1.812-0.812,1.812-1.811V1.179h2.319c0.023,0,0.047,0.001,0.07,0.004V19.59
			c0,2.315-1.885,4.2-4.201,4.2H20.821z"/>
		<path fill="#666666" d="M25.5,1.429V19.59c0,2.178-1.772,3.95-3.951,3.95h-0.728c-2.179,0-3.951-1.772-3.951-3.95v-5.542
			c0-1.158-0.909-2.1-2.026-2.1H8.821c-1.138,0-2.099,0.907-2.099,1.98c0,1.081,0.965,2.044,2.107,2.102l0.917,0.049
			c2.166,0.112,3.873,1.835,3.806,3.84c-0.067,1.996-1.88,3.621-4.042,3.621H0.5v-1.89h9.011c1.155,0,2.122-0.805,2.153-1.793
			c0.033-0.982-0.872-1.831-2.016-1.891l-0.918-0.05c-2.149-0.11-3.897-1.899-3.897-3.988c0-2.113,1.773-3.833,3.952-3.833h6.022
			c2.179,0,3.953,1.772,3.953,3.952v5.542c0,1.136,0.924,2.061,2.062,2.061h0.728c1.137,0,2.063-0.925,2.063-2.061V1.429H25.5
			 M25.68,0.929h-2.568V19.59c0,0.862-0.701,1.561-1.563,1.561h-0.728c-0.861,0-1.562-0.698-1.562-1.561v-5.542
			c0-2.455-1.997-4.452-4.453-4.452H8.785c-2.454,0-4.452,1.944-4.452,4.333c0,2.35,1.962,4.364,4.372,4.487l0.917,0.05
			c0.861,0.045,1.567,0.673,1.544,1.375c-0.023,0.71-0.781,1.31-1.654,1.31H0v2.89h9.511c2.428,0,4.465-1.842,4.541-4.104
			c0.076-2.275-1.844-4.229-4.28-4.355l-0.917-0.049c-0.885-0.045-1.634-0.778-1.634-1.603c0-0.795,0.737-1.48,1.599-1.48h6.023
			c0.861,0,1.526,0.737,1.526,1.6v5.542c0,2.455,1.997,4.45,4.451,4.45h0.728c2.455,0,4.451-1.995,4.451-4.45V0.961
			C25.892,0.955,25.789,0.929,25.68,0.929L25.68,0.929z"/>
	</g>
</g>
</svg>
