<?xml version="1.0" encoding="utf-8"?>
<!-- Generator: Adobe Illustrator 14.0.0, SVG Export Plug-In . SVG Version: 6.00 Build 43363)  -->
<!DOCTYPE svg PUBLIC "-//W3C//DTD SVG 1.1//EN" "http://www.w3.org/Graphics/SVG/1.1/DTD/svg11.dtd">
<svg version="1.1" id="Layer_1" xmlns="http://www.w3.org/2000/svg" xmlns:xlink="http://www.w3.org/1999/xlink" x="0px" y="0px"
	 width="32px" height="32px" viewBox="0 0 32 32" enable-background="new 0 0 32 32" xml:space="preserve">
<symbol  id="_x5F_button_x5F_base" viewBox="-16.001 -16 32 32">
	<g id="button_x5F_base_3_">
		<g id="button_6_">
			<g>
				
					<use xlink:href="#_x5F_button_x5F_shape"  width="32" height="32" x="-16" y="-16" transform="matrix(1 0 0 1 -9.765625e-004 0)" overflow="visible"/>
			</g>
			<g>
				<g>
					<g>
						<g>
							<path fill="#999999" d="M15.999-12c0-2.209-1.791-4-4-4h-24c-2.209,0-4,1.791-4,4v24c0,2.209,1.791,4,4,4h24
								c2.209,0,4-1.791,4-4V-12z"/>
						</g>
					</g>
				</g>
			</g>
		</g>
	</g>
	<g id="button_3_">
		<g>
			
				<use xlink:href="#_x5F_button_x5F_shape"  width="32" height="32" x="-16" y="-16" transform="matrix(0.9375 0 0 0.9375 -9.765625e-004 0)" overflow="visible"/>
		</g>
		<g>
			<g>
				<g>
					<g>
						<g>
							<path fill="#F2F2F2" d="M14.999-11.25c0-2.071-1.679-3.75-3.75-3.75h-22.5c-2.071,0-3.75,1.679-3.75,3.75v22.5
								c0,2.071,1.679,3.75,3.75,3.75h22.5c2.071,0,3.75-1.679,3.75-3.75V-11.25z"/>
						</g>
					</g>
				</g>
			</g>
		</g>
	</g>
</symbol>
<symbol  id="_x5F_button_x5F_shape" viewBox="-16 -16 32 32">
	<g id="button_x5F_shape_2_">
		<g>
			<g opacity="0">
				<path fill="#FFFFFF" d="M16-12c0-2.209-1.791-4-4-4h-24c-2.209,0-4,1.791-4,4v24c0,2.209,1.791,4,4,4h24c2.209,0,4-1.791,4-4
					V-12z"/>
			</g>
		</g>
	</g>
</symbol>
<g>
	<g>
		<g>
			<g id="button_x5F_base_1_">
				<g id="button_2_">
					<g>
						
							<use xlink:href="#_x5F_button_x5F_shape"  width="32" height="32" x="-16" y="-16" transform="matrix(1 0 0 -1 15.999 16.1426)" overflow="visible"/>
					</g>
					<g>
						<path fill="#999999" d="M31.999,28.143c0,2.209-1.791,4-4,4h-24c-2.209,0-4-1.791-4-4v-24c0-2.209,1.791-4,4-4h24
							c2.209,0,4,1.791,4,4V28.143z"/>
					</g>
				</g>
			</g>
			<g id="button_1_">
				<g>
					
						<use xlink:href="#_x5F_button_x5F_shape"  width="32" height="32" x="-16" y="-16" transform="matrix(0.9375 0 0 -0.9375 15.999 16.1426)" overflow="visible"/>
				</g>
				<g>
					<path fill="#F2F2F2" d="M30.999,27.393c0,2.071-1.679,3.75-3.75,3.75h-22.5c-2.071,0-3.75-1.679-3.75-3.75v-22.5
						c0-2.071,1.679-3.75,3.75-3.75h22.5c2.071,0,3.75,1.679,3.75,3.75V27.393z"/>
				</g>
			</g>
		</g>
		<g>
			<g>
				<g>
					<g>
						<path fill="#58B632" d="M31.999,28.143c0,2.209-1.791,4-4,4h-24c-2.209,0-4-1.791-4-4v-24c0-2.209,1.791-4,4-4h24
							c2.209,0,4,1.791,4,4V28.143z"/>
					</g>
				</g>
				<g>
					<g>
						<path fill="#58B632" d="M31.999,28.143c0,2.209-1.791,4-4,4h-24c-2.209,0-4-1.791-4-4v-24c0-2.209,1.791-4,4-4h24
							c2.209,0,4,1.791,4,4V28.143z"/>
					</g>
				</g>
			</g>
			<g>
				<g>
					<g>
						<path fill="#58B632" d="M30.999,27.393c0,2.071-1.679,3.75-3.75,3.75h-22.5c-2.071,0-3.75-1.679-3.75-3.75v-22.5
							c0-2.071,1.679-3.75,3.75-3.75h22.5c2.071,0,3.75,1.679,3.75,3.75V27.393z"/>
					</g>
				</g>
				<g>
					<g>
						<path fill="#58B632" d="M30.999,27.393c0,2.071-1.679,3.75-3.75,3.75h-22.5c-2.071,0-3.75-1.679-3.75-3.75v-22.5
							c0-2.071,1.679-3.75,3.75-3.75h22.5c2.071,0,3.75,1.679,3.75,3.75V27.393z"/>
					</g>
				</g>
			</g>
		</g>
	</g>
	<g>
		<path fill="none" d="M32.001,28.002c0,2.141-1.735,3.875-3.875,3.875H4.876c-2.14,0-3.875-1.734-3.875-3.875V4.751
			c0-2.14,1.735-3.875,3.875-3.875h23.25c2.14,0,3.875,1.735,3.875,3.875V28.002z"/>
	</g>
	<g>
		<defs>
			<path id="SVGID_1_" d="M31.501,27.768c0,2.14-1.735,3.875-3.875,3.875H4.376c-2.14,0-3.875-1.735-3.875-3.875V4.517
				c0-2.141,1.735-3.875,3.875-3.875h23.25c2.14,0,3.875,1.734,3.875,3.875V27.768z"/>
		</defs>
		<clipPath id="SVGID_2_">
			<use xlink:href="#SVGID_1_"  overflow="visible"/>
		</clipPath>
		<g clip-path="url(#SVGID_2_)">
			<path fill="#FFFFFF" d="M28.001-0.142H9.523C9.432-0.083,9.331-0.031,9.241,0.029c-2.934,2.26-5.26,5.365-5.623,8.848
				c-0.09,0.573-0.149,1.152-0.149,1.744c0,3.632,1.748,6.923,4.578,9.378l0.002,7.803l6.578-4.286
				c1.783,0.521,3.699,0.82,5.704,0.82c4.533,0,8.64-1.463,11.67-3.831V3.858C32.001,1.649,30.21-0.142,28.001-0.142z M30.692,12.3
				c-1.359,3.277-5.554,5.742-10.361,5.742c-4.807,0-8.998-2.458-10.356-5.73c-0.136-0.546-0.208-1.111-0.208-1.691
				c0-4.092,3.523-7.51,8.231-8.375c0.756-0.127,1.533-0.2,2.333-0.2c0.805,0,1.588,0.075,2.346,0.204
				c4.703,0.869,8.218,4.283,8.218,8.371C30.895,11.195,30.822,11.755,30.692,12.3z"/>
		</g>
	</g>
</g>
</svg>
