<?xml version="1.0" encoding="utf-8"?>
<!-- Generator: Adobe Illustrator 14.0.0, SVG Export Plug-In . SVG Version: 6.00 Build 43363)  -->
<!DOCTYPE svg PUBLIC "-//W3C//DTD SVG 1.1//EN" "http://www.w3.org/Graphics/SVG/1.1/DTD/svg11.dtd">
<svg version="1.1" id="Layer_1" xmlns="http://www.w3.org/2000/svg" xmlns:xlink="http://www.w3.org/1999/xlink" x="0px" y="0px"
     width="32px" height="32px" viewBox="0 0 32 32" enable-background="new 0 0 32 32" xml:space="preserve">
<path fill="#2AA9E0" d="M23.786,23.021h-7.699c-2.269,0-4.379-2.363-4.379-5.056v-1.953h11.989c1.941,0,3.514-1.568,3.514-3.502
	c0-1.935-1.572-3.503-3.514-3.503H11.708v-3.46C11.708,3.589,10.241,2,8.301,2C6.361,2,4.789,3.589,4.789,5.547v12.418
	c0,6.651,5,12.035,11.182,12.035h7.698c1.94,0,3.542-1.562,3.542-3.52C27.211,24.521,25.728,23.021,23.786,23.021z"/>
</svg>
