<svg xmlns="http://www.w3.org/2000/svg" xmlns:xlink="http://www.w3.org/1999/xlink" width="32" height="32" viewBox="0 0 32 32"><symbol id="a" viewBox="-10.864 -16 21.728 32"><path fill="#ccc" d="M7.188-16H-7.19c-2.025 0-3.674 1.648-3.674 3.674v24.65C-10.864 14.35-9.216 16-7.19 16H7.188c2.026 0 3.676-1.648 3.676-3.676v-24.65c0-2.026-1.65-3.674-3.676-3.674zM-7.19 14.814c-1.372 0-2.488-1.117-2.488-2.49v-24.65c0-1.373 1.116-2.488 2.488-2.488H7.188c1.374 0 2.49 1.115 2.49 2.488v24.65c0 1.373-1.116 2.49-2.49 2.49H-7.19z"/><path d="M10.272-12.326c0-1.7-1.38-3.08-3.084-3.08H-7.19c-1.702 0-3.08 1.38-3.08 3.08v24.65c0 1.703 1.378 3.083 3.08 3.083H7.188c1.704 0 3.084-1.38 3.084-3.083v-24.65z"/><path fill="#fff" d="M8.475-9.417h-16.95V12.84h16.95V-9.417z"/><path fill="#999" d="M8.77-9.713H-8.77v22.85H8.77v-22.85zm-16.948.593H8.18v21.664H-8.18V-9.12h.002z"/><path fill="#808080" d="M1.56-12.52c0-.86-.698-1.563-1.562-1.563-.86 0-1.558.7-1.558 1.563 0 .862.696 1.57 1.558 1.57.863 0 1.563-.7 1.563-1.564v-.006z"/><path fill="#ccc" d="M-.002-14.377c-1.022 0-1.854.833-1.854 1.858 0 1.03.832 1.86 1.854 1.86 1.025 0 1.858-.83 1.858-1.854S1.023-14.37-.002-14.37v-.007zm0 3.125c-.695 0-1.262-.568-1.262-1.267 0-.698.566-1.262 1.262-1.262.697 0 1.266.568 1.266 1.27 0 .698-.57 1.267-1.266 1.267v-.007zm1.017 12.62c.783-4.075-6.578-8.87-6.578-8.87S-1.213-1.61-2.19 2.722c-.978 4.33 1.933 9.64 1.933 9.64h5.82c0-.003-5.328-6.917-4.548-10.994z"/><path d="M1.015 1.367C1.798-2.707-5.563-7.5-5.563-7.5s4.35 5.89 3.373 10.22c-.978 4.33 1.933 9.64 1.933 9.64h5.82c0-.003-5.328-6.917-4.548-10.993z" fill="none"/></symbol><use xlink:href="#a" width="21.728" height="32" x="-10.864" y="-16" transform="matrix(1 0 0 -1 16 16)" overflow="visible"/></svg>