<?xml version="1.0" encoding="utf-8"?>
<!-- Generator: Adobe Illustrator 14.0.0, SVG Export Plug-In . SVG Version: 6.00 Build 43363)  -->
<!DOCTYPE svg PUBLIC "-//W3C//DTD SVG 1.1//EN" "http://www.w3.org/Graphics/SVG/1.1/DTD/svg11.dtd">
<svg version="1.1" id="Layer_1" xmlns="http://www.w3.org/2000/svg" xmlns:xlink="http://www.w3.org/1999/xlink" x="0px" y="0px"
	 width="32px" height="32px" viewBox="0 0 32 32" enable-background="new 0 0 32 32" xml:space="preserve">
<g>
	<g id="XMLID_1_">
		<g>
			<g>
				<path fill="#FFFFFF" d="M14.966,9.404c0.515,0.712,0.769,1.566,0.769,2.559c0,1.025-0.258,1.846-0.776,2.468
					c-0.289,0.35-0.714,0.667-1.276,0.955c0.854,0.313,1.502,0.804,1.935,1.481c0.438,0.675,0.652,1.494,0.652,2.456
					c0,0.995-0.245,1.887-0.746,2.675c-0.316,0.521-0.711,0.963-1.187,1.316c-0.534,0.41-1.167,0.69-1.894,0.842
					c-0.729,0.15-1.519,0.228-2.368,0.228H2.52V7.618h8.102C12.664,7.651,14.112,8.243,14.966,9.404z M6.387,10.53v3.697h3.552
					c0.727,0,1.317-0.139,1.771-0.416s0.682-0.768,0.682-1.473c0-0.781-0.301-1.297-0.901-1.546
					c-0.517-0.174-1.178-0.262-1.979-0.262H6.387z M6.387,17.003v4.468h3.546c0.727,0,1.292-0.096,1.696-0.295
					c0.734-0.365,1.104-1.061,1.104-2.093c0-0.871-0.357-1.474-1.067-1.796c-0.397-0.184-0.959-0.277-1.678-0.284H6.387z"/>
				<path fill="#2A51E0" d="M10.075,24.9H2V7.1h8.622c2.215,0.036,3.814,0.708,4.762,1.997c0.577,0.801,0.869,1.764,0.869,2.866
					c0,1.143-0.302,2.085-0.895,2.8c-0.166,0.201-0.365,0.389-0.601,0.567c0.537,0.329,0.971,0.75,1.296,1.258
					c0.485,0.752,0.732,1.673,0.732,2.734c0,1.096-0.277,2.089-0.826,2.953c-0.345,0.569-0.79,1.063-1.313,1.453
					c-0.585,0.451-1.293,0.768-2.1,0.935C11.789,24.82,10.958,24.9,10.075,24.9L10.075,24.9z M3.037,23.864h7.038
					c0.813,0,1.573-0.073,2.262-0.218c0.65-0.135,1.217-0.385,1.684-0.744c0.422-0.314,0.775-0.709,1.059-1.174
					c0.453-0.715,0.67-1.498,0.67-2.406c0-0.858-0.19-1.59-0.568-2.174c-0.372-0.582-0.919-1-1.678-1.275l-1.116-0.409l1.059-0.541
					c0.497-0.253,0.872-0.53,1.113-0.823c0.441-0.532,0.656-1.231,0.656-2.138c0-0.893-0.219-1.63-0.669-2.255
					c-0.755-1.025-2.042-1.541-3.933-1.571H3.037V23.864L3.037,23.864z M9.934,21.989H5.869v-5.505h4.12
					c0.812,0.009,1.43,0.118,1.896,0.333c0.895,0.406,1.368,1.19,1.368,2.268c0,1.542-0.756,2.242-1.391,2.559
					C11.383,21.875,10.753,21.989,9.934,21.989L9.934,21.989z M6.906,20.952h3.028c0.647,0,1.143-0.081,1.469-0.241
					c0.348-0.174,0.813-0.531,0.813-1.628c0-0.667-0.242-1.087-0.764-1.324c-0.328-0.151-0.821-0.231-1.468-0.237H6.906V20.952
					L6.906,20.952z M9.939,14.746h-4.07v-4.734H9.51c0.854,0,1.576,0.097,2.146,0.29c0.589,0.243,1.254,0.782,1.254,2.038
					c0,1.115-0.505,1.657-0.929,1.916C11.447,14.58,10.76,14.746,9.939,14.746L9.939,14.746z M6.906,13.708h3.033
					c0.628,0,1.133-0.114,1.502-0.339c0.106-0.065,0.432-0.264,0.432-1.031c0-0.732-0.311-0.956-0.581-1.067
					c-0.43-0.144-1.04-0.223-1.782-0.223H6.906V13.708L6.906,13.708z"/>
			</g>
			<g>
				<path fill="#FFFFFF" d="M26.342,12.094c0.839,0.375,1.529,0.967,2.076,1.778c0.492,0.715,0.811,1.542,0.957,2.483
					c0.083,0.549,0.118,1.345,0.104,2.385H20.73c0.048,1.207,0.466,2.051,1.256,2.533c0.476,0.303,1.055,0.451,1.73,0.451
					c0.715,0,1.298-0.182,1.744-0.552c0.244-0.196,0.46-0.474,0.646-0.823h3.206c-0.083,0.713-0.471,1.437-1.164,2.17
					c-1.075,1.168-2.583,1.754-4.521,1.754c-1.602,0-3.01-0.493-4.232-1.479c-1.222-0.986-1.833-2.59-1.833-4.811
					c0-2.083,0.552-3.678,1.654-4.789c1.105-1.111,2.535-1.665,4.299-1.665C24.562,11.532,25.504,11.719,26.342,12.094z
					 M21.643,14.809c-0.446,0.456-0.725,1.076-0.837,1.859h5.411c-0.058-0.834-0.338-1.466-0.839-1.897
					c-0.498-0.433-1.119-0.649-1.861-0.649C22.709,14.122,22.085,14.354,21.643,14.809z"/>
				<path fill="#2A51E0" d="M23.63,24.793c-1.712,0-3.245-0.537-4.559-1.594c-1.345-1.086-2.026-2.842-2.026-5.215
					c0-2.213,0.607-3.946,1.807-5.153c1.2-1.206,2.771-1.818,4.666-1.818c1.115,0,2.138,0.204,3.037,0.607
					c0.924,0.414,1.694,1.074,2.295,1.962c0.527,0.768,0.879,1.676,1.039,2.692c0.088,0.583,0.124,1.416,0.108,2.473l-0.007,0.511
					h-8.689c0.12,0.738,0.437,1.256,0.955,1.573c0.395,0.25,0.884,0.374,1.461,0.374c0.601,0,1.063-0.141,1.414-0.432
					c0.191-0.155,0.364-0.379,0.52-0.668l0.146-0.274h4.101l-0.066,0.578c-0.097,0.823-0.535,1.653-1.303,2.467
					C27.355,24.146,25.707,24.793,23.63,24.793L23.63,24.793z M23.517,12.051c-1.633,0-2.918,0.495-3.932,1.512
					c-0.997,1.004-1.504,2.493-1.504,4.421c0,2.045,0.552,3.527,1.642,4.408c1.14,0.916,2.418,1.362,3.906,1.362
					c1.775,0,3.168-0.534,4.14-1.586c0.42-0.444,0.713-0.881,0.881-1.301h-2.244c-0.185,0.288-0.392,0.524-0.619,0.708
					c-0.533,0.441-1.229,0.666-2.069,0.666c-0.777,0-1.453-0.18-2.009-0.531c-0.936-0.572-1.441-1.566-1.497-2.951l-0.021-0.539
					h8.772c-0.001-0.757-0.034-1.356-0.101-1.789c-0.137-0.872-0.422-1.614-0.871-2.267c-0.499-0.739-1.105-1.261-1.861-1.599
					C25.364,12.225,24.485,12.051,23.517,12.051L23.517,12.051z M26.773,17.188h-6.566l0.085-0.594
					c0.13-0.893,0.46-1.615,0.98-2.146c0.542-0.559,1.297-0.843,2.244-0.843c0.867,0,1.608,0.261,2.201,0.776
					c0.606,0.521,0.948,1.279,1.018,2.252L26.773,17.188L26.773,17.188z M21.45,16.149h4.167c-0.104-0.418-0.295-0.743-0.576-0.985
					c-0.406-0.354-0.903-0.525-1.523-0.525c-0.664,0-1.155,0.173-1.501,0.53C21.761,15.429,21.574,15.752,21.45,16.149L21.45,16.149
					z"/>
			</g>
			<g>
				<rect x="20.112" y="8.313" fill="#FFFFFF" width="6.757" height="1.677"/>
				<path fill="#2A51E0" d="M27.387,10.509h-7.793V7.795h7.793V10.509L27.387,10.509z M20.631,9.473h5.721V8.832h-5.721V9.473
					L20.631,9.473z"/>
			</g>
		</g>
		<g>
			<path fill="#FFFFFF" d="M14.966,9.404c0.515,0.712,0.769,1.566,0.769,2.559c0,1.025-0.258,1.846-0.776,2.468
				c-0.289,0.35-0.714,0.667-1.276,0.955c0.854,0.313,1.502,0.804,1.935,1.481c0.438,0.675,0.652,1.494,0.652,2.456
				c0,0.995-0.245,1.887-0.746,2.675c-0.316,0.521-0.711,0.963-1.187,1.316c-0.534,0.41-1.167,0.69-1.894,0.842
				c-0.729,0.15-1.519,0.228-2.368,0.228H2.52V7.618h8.102C12.664,7.651,14.112,8.243,14.966,9.404z M6.387,10.53v3.697h3.552
				c0.727,0,1.317-0.139,1.771-0.416s0.682-0.768,0.682-1.473c0-0.781-0.301-1.297-0.901-1.546
				c-0.517-0.174-1.178-0.262-1.979-0.262H6.387z M6.387,17.003v4.468h3.546c0.727,0,1.292-0.096,1.696-0.295
				c0.734-0.365,1.104-1.061,1.104-2.093c0-0.871-0.357-1.474-1.067-1.796c-0.397-0.184-0.959-0.277-1.678-0.284H6.387z"/>
			<path fill="#FFFFFF" d="M26.342,12.094c0.839,0.375,1.529,0.967,2.076,1.778c0.492,0.715,0.811,1.542,0.957,2.483
				c0.083,0.549,0.118,1.345,0.104,2.385H20.73c0.048,1.207,0.466,2.051,1.256,2.533c0.476,0.303,1.055,0.451,1.73,0.451
				c0.715,0,1.298-0.182,1.744-0.552c0.244-0.196,0.46-0.474,0.646-0.823h3.206c-0.083,0.713-0.471,1.437-1.164,2.17
				c-1.075,1.168-2.583,1.754-4.521,1.754c-1.602,0-3.01-0.493-4.232-1.479c-1.222-0.986-1.833-2.59-1.833-4.811
				c0-2.083,0.552-3.678,1.654-4.789c1.105-1.111,2.535-1.665,4.299-1.665C24.562,11.532,25.504,11.719,26.342,12.094z
				 M21.643,14.809c-0.446,0.456-0.725,1.076-0.837,1.859h5.411c-0.058-0.834-0.338-1.466-0.839-1.897
				c-0.498-0.433-1.119-0.649-1.861-0.649C22.709,14.122,22.085,14.354,21.643,14.809z"/>
			<rect x="20.112" y="8.313" fill="#FFFFFF" width="6.757" height="1.677"/>
		</g>
	</g>
</g>
</svg>
