<?xml version="1.0" encoding="utf-8"?>
<!-- Generator: Adobe Illustrator 14.0.0, SVG Export Plug-In . SVG Version: 6.00 Build 43363)  -->
<!DOCTYPE svg PUBLIC "-//W3C//DTD SVG 1.1//EN" "http://www.w3.org/Graphics/SVG/1.1/DTD/svg11.dtd">
<svg version="1.1" id="Layer_1" xmlns="http://www.w3.org/2000/svg" xmlns:xlink="http://www.w3.org/1999/xlink" x="0px" y="0px"
	 width="32px" height="32px" viewBox="0 0 32 32" enable-background="new 0 0 32 32" xml:space="preserve">
<g>
	<path fill="#C8C8C8" d="M29.373,8.896V5.432c0-0.595-0.481-1.076-1.076-1.076h-6.463c-0.596,0-1.076,0.481-1.076,1.076V8.26H4.153
		C2.964,8.26,2,9.225,2,10.415v15.076c0,1.187,0.964,2.151,2.152,2.151h23.694c1.188,0,2.153-0.967,2.153-2.151V10.415
		C30.002,9.822,29.763,9.287,29.373,8.896L29.373,8.896z M27.742,7.762h-5.354V6.189h5.354V7.762L27.742,7.762z"/>
	<path fill="#C8C8C8" d="M28.297,4.355h-6.463c-0.596,0-1.076,0.481-1.076,1.076V8.26H4.153C2.964,8.26,2,9.225,2,10.415v15.076
		c0,1.187,0.964,2.151,2.152,2.151h23.694c1.188,0,2.153-0.967,2.153-2.151V10.415c0-0.593-0.236-1.128-0.627-1.519V5.432
		C29.373,4.836,28.891,4.355,28.297,4.355L28.297,4.355z"/>
	<polygon fill="#FFFFFF" points="22.387,7.762 22.387,6.189 27.742,6.189 27.742,7.762 	"/>
</g>
<path fill="#B4B4B4" d="M27.932,9.261H4.153C3.518,9.261,3,9.777,3,10.415v15.076c0,0.634,0.518,1.151,1.152,1.151h23.78
	c0.634,0,1.15-0.519,1.15-1.151V10.415C29.083,9.777,28.565,9.261,27.932,9.261z"/>
<path fill="#FFFFFF" d="M16.771,24.93c-3.896,0-7.067-3.171-7.067-7.065c0-3.902,3.171-7.069,7.067-7.069
	c3.896,0,7.066,3.167,7.066,7.063c0,3.896-3.168,7.065-7.063,7.065L16.771,24.93L16.771,24.93z"/>
</svg>
