<?xml version="1.0" encoding="utf-8"?>
<!-- Generator: Adobe Illustrator 14.0.0, SVG Export Plug-In . SVG Version: 6.00 Build 43363)  -->
<!DOCTYPE svg PUBLIC "-//W3C//DTD SVG 1.1//EN" "http://www.w3.org/Graphics/SVG/1.1/DTD/svg11.dtd">
<svg version="1.1" id="Layer_1" xmlns="http://www.w3.org/2000/svg" xmlns:xlink="http://www.w3.org/1999/xlink" x="0px" y="0px"
	 width="32px" height="32px" viewBox="0 0 32 32" enable-background="new 0 0 32 32" xml:space="preserve">
<g>
	<path fill="#E12E2F" d="M15.964,2.002c0,0,8.254-0.37,12.629,7.91H15.261l-5.199,8.159L4.366,8.223c0,0,3.259-5.891,11.597-6.221"
		/>
	<path fill="#FCD209" d="M28.162,23.028c0,0-3.809,7.318-13.179,6.959c1.155-1.996,6.665-11.523,6.665-11.523l-4.471-8.576
		L28.565,9.89C28.565,9.89,32.048,15.656,28.162,23.028"/>
	<path fill="#43A445" d="M3.823,23.084c0,0-4.447-6.953,0.551-14.873c1.153,1.999,6.663,11.524,6.663,11.524l9.677,0.42L15.017,30
		c0,0-6.741,0.123-11.194-6.922"/>
	<path fill="#FFFFFF" d="M9.682,16.114c0-3.443,2.796-6.234,6.247-6.234c3.447,0,6.245,2.791,6.245,6.234
		c0,3.448-2.796,6.24-6.246,6.24c-3.45,0-6.247-2.79-6.247-6.234"/>
	<g>
		<g>
			<defs>
				<path id="SVGID_1_" d="M10.729,16.114c0,2.868,2.328,5.192,5.2,5.192c2.87,0,5.198-2.322,5.198-5.192
					c0-2.861-2.328-5.188-5.198-5.188c-2.879,0-5.206,2.328-5.206,5.188"/>
			</defs>
			<clipPath id="SVGID_2_">
				<use xlink:href="#SVGID_1_"  overflow="visible"/>
			</clipPath>
			<path clip-path="url(#SVGID_2_)" fill="#0C5A94" d="M21.127,10.925v10.38H10.73v-10.38H21.127z"/>
		</g>
	</g>
</g>
</svg>
