<?xml version="1.0" encoding="utf-8"?>
<!-- Generator: Adobe Illustrator 14.0.0, SVG Export Plug-In . SVG Version: 6.00 Build 43363)  -->
<!DOCTYPE svg PUBLIC "-//W3C//DTD SVG 1.1//EN" "http://www.w3.org/Graphics/SVG/1.1/DTD/svg11.dtd">
<svg version="1.1" id="Layer_1" xmlns="http://www.w3.org/2000/svg" xmlns:xlink="http://www.w3.org/1999/xlink" x="0px" y="0px"
	 width="32px" height="32px" viewBox="-281.661 436.945 32 32" enable-background="new -281.661 436.945 32 32"
	 xml:space="preserve">
<g>
	<path fill="#999999" d="M-261.12,467.765h-9.082l2.17-4.349h4.742L-261.12,467.765z"/>
	<path fill="#B4B4B4" d="M-254.659,439.92c-1.744,0-20.262,0-22.005,0c-2.042,0-2.997,0.979-2.997,2.854c0,0.276,0,18.065,0,18.342
		c0,1.875,0.955,2.854,2.997,2.854c1.743,0,20.261,0,22.005,0c2.043,0,2.998-0.979,2.998-2.854c0-0.277,0-18.066,0-18.342
		C-251.661,440.899-252.616,439.92-254.659,439.92z"/>
	<g>
		<path fill="#FFFFFF" d="M-253.661,459.945h-24v-18h24V459.945z"/>
	</g>
</g>
<path fill="#C8C8C8" d="M-266.73,454.945c0,0,2.801-3.854,2.172-6.69c-0.63-2.833,1.243-6.31,1.243-6.31h3.747
	c0.002,0.003-3.131,3.594-3.004,6.145C-262.379,451.954-266.73,454.945-266.73,454.945z"/>
</svg>
