<?xml version="1.0" encoding="utf-8"?>
<!-- Generator: Adobe Illustrator 14.0.0, SVG Export Plug-In . SVG Version: 6.00 Build 43363)  -->
<!DOCTYPE svg PUBLIC "-//W3C//DTD SVG 1.1//EN" "http://www.w3.org/Graphics/SVG/1.1/DTD/svg11.dtd">
<svg version="1.1" id="Layer_1" xmlns="http://www.w3.org/2000/svg" xmlns:xlink="http://www.w3.org/1999/xlink" x="0px" y="0px"
	 width="32px" height="32px" viewBox="0 0 32 32" enable-background="new 0 0 32 32" xml:space="preserve">
<g>
	<path fill="#37A5E2" d="M29.254,8.313c0.578-2.216,0.402-4.066-0.66-5.199c-1.906-2.039-6.182-1.176-10.821,1.717
		c-0.371-0.03-0.745-0.05-1.12-0.05c-6.914,0-12.78,4.671-12.78,11.406c1.047-1.659,4.37-6.718,9.968-8.435
		c-3.632,2.457-8.541,9.426-9.59,11.629c-2.101,4.231-2.488,7.915-0.643,9.64c1.978,1.847,6.026,0.989,10.459-1.829
		c0.84,0.145,1.7,0.217,2.582,0.217c4.789-0.001,9.852-3.142,11.603-8.06h-8.187c-0.449,1.346-1.928,2.615-3.583,2.615
		c-2.516,0-3.973-1.827-3.973-4.251c1.702,0,16.268,0,16.268,0c0.042-0.418,0.063-0.743,0.063-1.189
		c0-5.504-3.537-9.67-8.289-11.148c3.468-1.863,6.346-2.421,7.671-1.003c0.771,0.825,1.016,2.263,0.593,3.945h0.438L29.254,8.313z
		 M13.315,27.044c-3.529,2.074-6.568,2.685-8.046,1.304c-1.274-1.19-1.149-3.639,0.083-6.634c0.037-0.054,0.074-0.123,0.109-0.07
		c1.838,2.866,4.643,4.672,7.854,5.405L13.315,27.044z M12.509,14.093c0,0,0.158-3.681,3.84-3.681c3.628,0,3.838,3.682,3.838,3.682
		L12.509,14.093L12.509,14.093z"/>
</g>
</svg>
