<?xml version="1.0" encoding="utf-8"?>
<!-- Generator: Adobe Illustrator 14.0.0, SVG Export Plug-In . SVG Version: 6.00 Build 43363)  -->
<!DOCTYPE svg PUBLIC "-//W3C//DTD SVG 1.1//EN" "http://www.w3.org/Graphics/SVG/1.1/DTD/svg11.dtd">
<svg version="1.1" id="Layer_1" xmlns="http://www.w3.org/2000/svg" xmlns:xlink="http://www.w3.org/1999/xlink" x="0px" y="0px"
	 width="32px" height="32px" viewBox="0 0 32 32" enable-background="new 0 0 32 32" xml:space="preserve">
<g>
	<path fill="#C8C8C8" d="M25.333,28.109c0,1.544-0.345,1.891-1.894,1.891H8.557c-1.547,0-1.891-0.347-1.891-1.891V3.893
		C6.667,2.346,7.01,2,8.557,2h14.882c1.549,0,1.894,0.346,1.894,1.893V28.109z"/>
	<path fill="#FFFFFF" d="M23.701,24.557H8.298V4.333h15.403V24.557z"/>
	<path fill="#999999" d="M15.997,29.064c-0.928,0-1.685-0.757-1.685-1.688c0-0.934,0.757-1.688,1.685-1.688
		c0.932,0,1.688,0.755,1.688,1.686c0,0.93-0.757,1.687-1.688,1.687V29.064z"/>
	<path fill="#C8C8C8" d="M18.028,10.091c0.409,2.436-2.958,5.798-2.958,5.798s2.278-3.526,1.767-6.119
		c-0.512-2.591,0.903-5.437,0.903-5.437h2.561c-0.004,0-2.196,3.808-1.784,6.247L18.028,10.091z"/>
</g>
</svg>
