<?xml version="1.0" encoding="utf-8"?>
<!-- Generator: Adobe Illustrator 14.0.0, SVG Export Plug-In . SVG Version: 6.00 Build 43363)  -->
<!DOCTYPE svg PUBLIC "-//W3C//DTD SVG 1.1//EN" "http://www.w3.org/Graphics/SVG/1.1/DTD/svg11.dtd">
<svg version="1.1" id="Layer_1" xmlns="http://www.w3.org/2000/svg" xmlns:xlink="http://www.w3.org/1999/xlink" x="0px" y="0px"
	 width="32px" height="32px" viewBox="0 0 32 32" enable-background="new 0 0 32 32" xml:space="preserve">
<g>
	<path fill="#C8C8C8" d="M26.885,30H5.115V2h21.769V30z M6.153,28.961h19.697V3.283H6.153V28.961z"/>
	<path fill="#FFFFFF" d="M6.154,28.838h19.694V3.162H6.154V28.838z"/>
	<path fill="#FF0000" d="M7.819,24.178c-0.202,0-0.354-0.06-0.464-0.135c-0.429-0.279-0.49-0.613-0.468-0.85
		c0.103-1.032,2.343-2.003,2.79-2.188l0.251,0.612c1.738-2.34,3.688-6.388,3.688-9.634h0.668c0,4.501-3.68,10.867-5.815,12.008
		c-0.254,0.139-0.473,0.188-0.652,0.188L7.819,24.178z M9.919,21.628c-1.113,0.463-2.325,1.225-2.365,1.636
		c-0.003,0.026-0.011,0.104,0.174,0.227c0.106,0.074,0.335-0.034,0.427-0.084c0.481-0.258,1.106-0.894,1.764-1.773V21.628z
		 M11.824,21.199l-0.35-0.569c3.828-2.364,11.176-2.574,13.274-1.349c0.533,0.31,0.637,0.674,0.629,0.92
		c-0.02,0.518-0.271,0.745-0.48,0.846c-0.932,0.452-2.936-0.943-3.326-1.229l0.387-0.533c-2.91-0.253-7.377,0.212-10.138,1.915
		L11.824,21.199z M21.972,19.289c0.977,0.701,2.262,1.331,2.633,1.154c0.021-0.016,0.094-0.05,0.102-0.271
		c0.006-0.131-0.205-0.272-0.297-0.323c-0.469-0.273-1.338-0.474-2.434-0.569L21.972,19.289z M20.322,18.547
		c-3.911-2.226-7.63-8.566-7.569-10.988c0.015-0.617,0.283-0.884,0.505-0.996c0.46-0.23,0.783-0.12,0.972,0.016
		c0.849,0.603,0.586,3.027,0.524,3.508l-0.656-0.088c1.175,2.668,3.734,6.361,6.556,7.966l-0.33,0.579L20.322,18.547z M13.76,7.103
		c-0.043,0-0.105,0.014-0.202,0.061c-0.118,0.056-0.135,0.31-0.14,0.415c-0.013,0.543,0.232,1.403,0.674,2.409
		c0.149-1.193,0.087-2.625-0.25-2.861c-0.01-0.01-0.033-0.024-0.08-0.024L13.76,7.103z"/>
</g>
</svg>
