<?xml version="1.0" encoding="utf-8"?>
<!-- Generator: Adobe Illustrator 14.0.0, SVG Export Plug-In . SVG Version: 6.00 Build 43363)  -->
<!DOCTYPE svg PUBLIC "-//W3C//DTD SVG 1.1//EN" "http://www.w3.org/Graphics/SVG/1.1/DTD/svg11.dtd">
<svg version="1.1" id="Layer_1" xmlns="http://www.w3.org/2000/svg" xmlns:xlink="http://www.w3.org/1999/xlink" x="0px" y="0px"
	 width="32px" height="32px" viewBox="0 0 32 32" enable-background="new 0 0 32 32" xml:space="preserve">
<g>
	<path fill="#FFFFFF" d="M4.26,23.468c-2.35,0-4.26,1.915-4.26,4.253c0,2.35,1.91,4.242,4.26,4.242c2.358,0,4.265-1.896,4.265-4.242
		C8.525,25.383,6.618,23.468,4.26,23.468z M0.004,10.872v6.135c3.995,0,7.75,1.562,10.577,4.392C13.41,24.217,14.97,27.992,14.97,32
		h6.16c0-11.65-9.48-21.128-21.122-21.128H0.004z M0.012,0v6.137C14.254,6.137,25.85,17.74,25.85,32H32C32,14.36,17.648,0,0.012,0z"
		/>
	<g>
		<path fill="#B4B4B4" d="M1.576,12.507c9.53,0.76,17.154,8.392,17.917,17.923L21.126,32c0-11.65-9.48-21.128-21.122-21.128"/>
		<path fill="#B4B4B4" d="M32,32C32,14.36,17.648,0,0.012,0l1.57,1.61c15.527,0.795,28.016,13.288,28.809,28.82L32,32z
			 M8.028,25.721c-1.097-2.063-3.68-2.859-5.763-1.754c0,0,0.077-0.012,0.19-0.021c0.307-0.069,0.624-0.111,0.95-0.111
			c2.4,0,4.346,1.943,4.346,4.344c0,1.256-0.54,2.381-1.39,3.17c-0.06,0.078-0.1,0.123-0.1,0.123
			c1.02-0.543,1.732-1.438,2.062-2.453c0.34-1.057,0.273-2.238-0.29-3.297H8.028z"/>
	</g>
</g>
</svg>
