<?xml version="1.0" encoding="utf-8"?>
<!-- Generator: Adobe Illustrator 14.0.0, SVG Export Plug-In . SVG Version: 6.00 Build 43363)  -->
<!DOCTYPE svg PUBLIC "-//W3C//DTD SVG 1.1//EN" "http://www.w3.org/Graphics/SVG/1.1/DTD/svg11.dtd">
<svg version="1.1" id="Layer_1" xmlns="http://www.w3.org/2000/svg" xmlns:xlink="http://www.w3.org/1999/xlink" x="0px" y="0px"
	 width="32px" height="32px" viewBox="0 0 32 32" enable-background="new 0 0 32 32" xml:space="preserve">
<g>
	<g>
		<path fill="#FFFFFF" d="M6.525,27.266h22.532V4.734H6.525V27.266z"/>
		<path fill="#B4B4B4" d="M29.479,27.688H6.103V4.313h23.376V27.688L29.479,27.688z M6.947,26.844h21.688V5.156H6.947V26.844
			L6.947,26.844z"/>
	</g>
	<g>
		<path fill="#999999" d="M26.946,9.796h-4.468V7.115h4.468V9.796z M26.946,14.784h-4.468v-2.683h4.468V14.784z M26.946,19.771
			h-4.468v-2.683h4.468V19.771z M26.946,24.757h-4.468v-2.683h4.468V24.757z M20.243,9.792h-4.466v-2.68h4.466V9.792z
			 M20.243,14.781h-4.466v-2.683h4.466V14.781z M20.243,19.768h-4.466v-2.682h4.466V19.768z M20.243,24.754h-4.466v-2.679h4.466
			V24.754z"/>
	</g>
	<g>
		<path fill="#FFFFFF" d="M2.943,27.266l12.931,2.233V2.5L2.943,4.734V27.266z"/>
		<path fill="#B4B4B4" d="M16.296,30L2.521,27.621V4.379L16.296,2V30L16.296,30z M3.365,26.911L15.452,29V3.001L3.365,5.089V26.911
			L3.365,26.911z"/>
	</g>
	<g>
		<path fill="#00BF16" d="M14.435,10.71h-2.682l-2.344,4.199l-2.345-4.2H4.381l3.906,5.876l-3.91,5.881H7.06l2.342-4.201
			l2.344,4.201h2.684l-3.908-5.875L14.435,10.71z"/>
	</g>
</g>
</svg>
