<?xml version="1.0" encoding="utf-8"?>
<!-- Generator: Adobe Illustrator 14.0.0, SVG Export Plug-In . SVG Version: 6.00 Build 43363)  -->
<!DOCTYPE svg PUBLIC "-//W3C//DTD SVG 1.1//EN" "http://www.w3.org/Graphics/SVG/1.1/DTD/svg11.dtd">
<svg version="1.1" id="Layer_1" xmlns="http://www.w3.org/2000/svg" xmlns:xlink="http://www.w3.org/1999/xlink" x="0px" y="0px"
	 width="32px" height="32px" viewBox="0 0 32 32" enable-background="new 0 0 32 32" xml:space="preserve">
<g>
	<path fill="#B4B4B4" d="M24.039,26.721c0,1.697-1.373,3.073-3.075,3.073H5.074c-1.697,0-3.075-1.375-3.075-3.073V17.29
		c0-1.695,1.376-3.072,3.075-3.072h15.89c1.697,0,3.075,1.38,3.075,3.078V26.721z"/>
	<path fill="#FFFFFF" d="M9.829,17.865v8.343l6.379-4.261L9.829,17.865z"/>
	<path fill="#C8C8C8" d="M16.97,2.21c-2.91,0-5.27,2.356-5.27,5.267c0,2.911,2.359,5.27,5.269,5.27c2.911,0,5.269-2.363,5.269-5.274
		c0.008-2.91-2.353-5.268-5.268-5.268V2.21z M16.97,10.991c-1.94,0-3.515-1.575-3.515-3.515c0-1.941,1.574-3.513,3.513-3.513
		c1.937,0,3.511,1.572,3.511,3.513c0,1.943-1.574,3.515-3.516,3.515H16.97z M7.311,5.722c-1.942,0-3.513,1.572-3.513,3.513
		c0,1.94,1.571,3.515,3.512,3.515c1.934,0,3.509-1.573,3.509-3.515c0-1.941-1.575-3.513-3.514-3.513H7.311z"/>
	<path fill="#999999" d="M16.97,10.991c-1.94,0-3.515-1.575-3.515-3.515c0-1.941,1.574-3.513,3.513-3.513
		c1.937,0,3.511,1.572,3.511,3.513c0,1.943-1.574,3.515-3.516,3.515H16.97z"/>
	<path fill="#B4B4B4" d="M30,28.287l-4.558-3.61v-5.344L30,15.724V28.287L30,28.287z"/>
</g>
</svg>
