<svg xmlns="http://www.w3.org/2000/svg" width="32" height="32" viewBox="0 0 32 32"><g fill="#98CB02"><path d="M19.832 4.36l1.204-1.937c.083-.13.042-.304-.09-.383-.13-.08-.3-.04-.384.09L19.32 4.127c-1.003-.42-2.13-.66-3.322-.66-1.19 0-2.318.24-3.323.662l-1.242-1.995c-.08-.13-.252-.17-.383-.092-.13.083-.17.253-.09.384l1.206 1.938C9.97 5.47 8.48 7.5 8.41 9.836h15.176c-.07-2.336-1.558-4.366-3.754-5.475zm-7.06 3.367c-.49 0-.886-.396-.886-.885 0-.49.396-.887.887-.887.49 0 .885.396.885.887 0 .49-.396.885-.886.885zm6.453 0c-.49 0-.888-.396-.888-.885 0-.49.396-.887.888-.887.49 0 .887.396.887.887 0 .49-.396.885-.887.885zM5.685 11.054v.005c-.837 0-1.518.676-1.518 1.516v6.957c0 .84.68 1.516 1.518 1.516.84 0 1.52-.68 1.52-1.52v-6.956c-.002-.84-.68-1.52-1.52-1.52zM26.313 11.054v.005c-.84 0-1.52.676-1.52 1.516v6.957c0 .84.68 1.516 1.52 1.516.837 0 1.52-.68 1.52-1.52v-6.956c0-.84-.683-1.52-1.52-1.52zM8.406 22.955h.002c0 .812.64 1.477 1.44 1.515h1.506v3.99c0 .838.68 1.517 1.518 1.517s1.52-.68 1.52-1.518v-3.99h3.21v4.008c0 .84.682 1.52 1.52 1.52.837 0 1.516-.68 1.516-1.518v-4.008h1.438c.837 0 1.516-.676 1.516-1.515V11.06H8.406v11.895z"/></g></svg>