<svg xmlns="http://www.w3.org/2000/svg" width="32" height="32" viewBox="0 0 32 32"><path fill="#DD1B16" d="M15.894 28.984l-10.29-5.952-1.66-15.805 12.05-4.295 12.053 4.295-1.858 15.806"/><path fill="#FFF" d="M19.927 18.568l1.874 3.977h2.802L15.92 4.103 7.625 22.545h3.008l1.788-3.98 7.505.003zm-4-8.767l2.932 6.222h-5.73l2.796-6.22z"/><path opacity=".2" d="M15.993 2.93l-.1.038v26.017l10.296-5.952 1.856-15.806L15.993 2.93z"/><path fill="#B3B3B3" d="M15.993 2.93l12.054 4.293-1.857 15.81-10.295 5.95L5.6 23.034 3.94 7.226 16 2.932m0-.932l-.295.105-12.05 4.292-.65.233.072.687 1.653 15.805.048.446.387.225 10.294 5.953.437.254.44-.254 10.294-5.954.38-.22.055-.437 1.852-15.81.082-.695-.657-.234-12.052-4.29L15.993 2h.004z"/></svg>