<svg xmlns="http://www.w3.org/2000/svg" width="32" height="32" viewBox="0 0 32 32"><path fill="#FFF" d="M28.31 2L10.07 7.636v16.916c-.863-.417-2.028-.518-3.215-.2-2.113.566-3.5 2.248-3.096 3.756.407 1.516 2.448 2.27 4.56 1.705 1.926-.513 3.242-1.957 3.16-3.348h.008V10.55l15.41-4.926V19.07c-.867-.42-2.03-.522-3.217-.204-2.116.564-3.498 2.247-3.095 3.756s2.44 2.27 4.553 1.7c1.994-.535 3.34-2.062 3.146-3.496h.02V2h.005z"/><path fill="#C8C8C8" d="M28.31 2H28.3h.007zm-.008.002l-18.23 5.634v16.916c-.52-.25-1.147-.387-1.824-.387-.448 0-.918.06-1.39.186-2.114.568-3.5 2.25-3.097 3.758C4.076 29.282 5.374 30 6.925 30c.45 0 .92-.06 1.396-.188 1.926-.513 3.242-1.957 3.16-3.348h.008V10.55l15.41-4.926V19.07c-.522-.253-1.15-.39-1.828-.39-.448 0-.916.06-1.39.186-2.116.564-3.498 2.247-3.095 3.756.313 1.17 1.606 1.89 3.155 1.89.45 0 .922-.06 1.397-.19 1.994-.534 3.34-2.06 3.146-3.495h.02V2.002z"/><path fill="#FFF" d="M27.302 3.358v1.087l-.71.226L11.183 9.6l-.11.036v-1.26l16.23-5.016M25.07 19.68c.518 0 1 .1 1.393.29l.744.36.085.63c.11.812-.782 1.96-2.415 2.396-.38.104-.763.155-1.137.155-1.108 0-2.01-.47-2.19-1.146-.146-.554.193-1.076.41-1.34.446-.54 1.167-.976 1.98-1.192.377-.1.757-.152 1.13-.152M8.248 25.165c.52 0 1 .1 1.39.287l.8.388.042.685c.048.812-.843 1.902-2.42 2.322-.38.1-.762.153-1.136.153-1.13 0-2.013-.463-2.197-1.15-.25-.94.865-2.124 2.388-2.533.38-.1.76-.152 1.133-.152"/></svg>