<svg xmlns="http://www.w3.org/2000/svg" width="32" height="32" viewBox="0 0 32 32"><path fill="#FFF" d="M23.32 14.957c1.022-4.17-1.908-6.154-3.88-6.154-2.1 0-5.25.642-5.382 4.932-2.783-4.173-8.266-.965-6.758 2.674-3.26-1.482-4.367 1.776-4.367 3.555 0 1.782 1.45 3.233 3.234 3.233H24.72c2.395 0 4.347-1.954 4.347-4.347 0-2.068-1.11-5.088-5.746-3.893z"/><path fill="#C8C8C8" d="M19.44 8.803c1.972 0 4.9 1.983 3.88 6.154.728-.188 1.368-.27 1.932-.27 3.026 0 3.814 2.42 3.814 4.165 0 2.393-1.95 4.347-4.348 4.347H6.168c-1.784 0-3.235-1.452-3.235-3.234 0-1.464.75-3.932 2.835-3.932.447 0 .957.114 1.532.376-1.002-2.418 1.08-4.646 3.41-4.645 1.175 0 2.415.568 3.35 1.97.13-4.29 3.282-4.932 5.38-4.932m0-.934c-3.194 0-5.27 1.352-6.015 3.853-.804-.584-1.73-.893-2.717-.893-1.555 0-3.05.793-3.903 2.07-.452.676-.686 1.44-.693 2.216-.116-.01-.23-.016-.343-.016h-.002c-1.258 0-2.33.672-3.013 1.894-.473.844-.755 1.954-.755 2.97 0 2.298 1.87 4.167 4.167 4.167H24.72c2.91 0 5.28-2.366 5.28-5.278 0-2.353-1.243-5.1-4.748-5.1-.258 0-.525.016-.804.046.132-1.87-.5-3.157-1.127-3.955-.955-1.217-2.44-1.974-3.88-1.974z"/></svg>