<svg xmlns="http://www.w3.org/2000/svg" width="32" height="32" viewBox="0 0 32 32"><path fill="#CCCCC8" d="M22.21 30.062H9.792l3.153-5.528h6.11l3.155 5.528z"/><path fill="#B4B4B4" d="M21.19 29.47H10.81l2.48-4.348h5.42l2.48 4.348z"/><path fill="#CCCCC8" d="M28.363 25.524H3.635C1.89 25.524.39 24.278.067 22.56l-.064-.62L0 5.58l.06-.625C.39 3.183 1.89 1.94 3.636 1.94h24.727c1.746 0 3.248 1.238 3.57 2.96l.067.62v16.365l-.06.622c-.33 1.77-1.83 3.014-3.58 3.014l.003.004z"/><path fill="#B4B4B4" d="M31.354 5.012c-.268-1.41-1.5-2.478-2.99-2.478H3.636C2.15 2.534.916 3.6.65 5.014l-.057.564v16.31l.057.563c.265 1.41 1.5 2.48 2.986 2.48h24.727c1.49 0 2.724-1.066 2.99-2.48l.055-.563V5.577l-.054-.565z"/><path fill="#FFF" d="M29.635 23.144H2.367V4.324h27.268v18.82z"/><path fill="#CCCCC8" d="M29.93 23.44H2.07V4.026h27.86V23.44zm-27.266-.593h26.674V4.62H2.664v18.227z"/><path fill="#C8C8C8" d="M20.768 13.032c.59 3.068-4.962 6.688-4.962 6.688s3.28-4.44 2.542-7.708c-.736-3.265 1.46-7.268 1.46-7.268h4.388c-.003 0-4.02 5.215-3.428 8.288z"/><path fill="none" d="M20.768 13.032c.59 3.068-4.962 6.688-4.962 6.688s3.28-4.44 2.542-7.708c-.736-3.265 1.46-7.268 1.46-7.268h4.388c-.003 0-4.02 5.215-3.428 8.288z"/></svg>