<svg xmlns="http://www.w3.org/2000/svg" width="32" height="32" viewBox="0 0 32 32"><path fill="#FFF" d="M5.63 9.188v20.294h20.74V2.52H12.114L5.63 9.187z"/><path fill="#C8C8C8" d="M26.89 30H5.11V8.978L11.895 2H26.89v28zM6.15 28.962h19.705V3.036h-13.52L6.15 9.398v19.566-.002z"/><path fill="#B4B4B4" d="M5.63 9.188h6.484v-6.67L5.63 9.19z"/><path fill="none" d="M16 5.853h7.78"/><path fill="#B4B4B4" d="M23.78 6.373H16V5.336h7.78v1.037z"/><path fill="none" d="M16 7.928h7.78"/><path fill="#B4B4B4" d="M23.78 8.447H16V7.41h7.78v1.037z"/><path fill="none" d="M16 10h7.78"/><path fill="#B4B4B4" d="M23.78 10.52H16V9.484h7.78v1.036z"/><path fill="none" d="M7.876 13.77H23.78"/><path fill="#B4B4B4" d="M23.78 14.288H7.875V13.25H23.78v1.038z"/><path fill="none" d="M7.876 16.88H23.78"/><path fill="#B4B4B4" d="M23.78 17.4H7.875v-1.04H23.78v1.04z"/><path fill="none" d="M7.876 19.992H23.78"/><path fill="#B4B4B4" d="M23.78 20.51H7.875v-1.038H23.78v1.04z"/><path fill="none" d="M7.876 23.103H23.78"/><path fill="#B4B4B4" d="M23.78 23.62H7.875v-1.037H23.78v1.038z"/><path fill="none" d="M7.876 26.214H23.78"/><path fill="#B4B4B4" d="M23.78 26.73H7.875v-1.036H23.78v1.037z"/></svg>