<svg xmlns="http://www.w3.org/2000/svg" width="32" height="32" viewBox="0 0 32 32"><path fill="#005A8D" d="M22.1 7.206c-1.43-.89-2.78-1.24-4.13-2.13-.833-.564-1.994-1.914-2.968-3.077-.187 1.86-.754 2.616-1.402 3.156-1.374 1.08-2.237 1.402-3.426 2.05-.997.513-6.42 3.748-6.42 10.71 0 6.956 5.855 12.082 12.356 12.082 6.502 0 12.14-4.723 12.14-11.868 0-7.148-5.29-10.382-6.15-10.924z"/><path fill="#FFF" d="M19.908 23.953c.432 0 .894.03 1.216.245.322.217.513.702.618.97.11.27 0 .43-.214.54-.188.105-.217.053-.404-.297-.19-.35-.35-.704-1.295-.704-.944 0-1.243.332-1.698.708-.46.377-.62.512-.784.3-.166-.22-.113-.434.184-.702.298-.27.783-.704 1.242-.892.456-.188.7-.163 1.13-.163l.004-.004zm-4.523 2.895c.54.43 1.348.78 3.074.78 1.724 0 2.938-.486 3.474-.894.244-.192.35-.024.38.082.026.108.082.27-.11.456-.133.133-1.37.997-2.83 1.133-1.456.132-3.427.215-4.613-.862-.187-.19-.134-.455 0-.564.136-.11.244-.19.407-.19.162 0 .134 0 .216.052l.002.006z"/><path fill="#0073BA" d="M15.5 23.375c7.313-3.5 10.042-9.524 9.567-13.684-1.3-1.45-2.588-2.242-2.98-2.486-1.4-.89-2.775-1.24-4.124-2.13-.834-.54-1.996-1.917-2.965-3.075-.193 1.86-.73 2.642-1.404 3.154-1.372 1.075-2.24 1.403-3.42 2.05-1 .538-6.424 3.75-6.424 10.706 0 2.223.596 4.255 1.62 5.998 0 0 3.547 2.617 10.13-.533z"/><path fill="#FFF" d="M15.27 3.2c-.24 1.78-1.247 2.534-1.708 2.862-3.833 2.02-5.715 3.39-7.038 5.414-.403.623 0 .866.083.918 3.163.397 9.27-5.393 7.372-5.64 1.245-.84 1.474-2.937 1.283-3.558l.007.005zM8.927 21.294c.028-2.1 1.996-4.067 4.478-4.095 3.156-.03 5.34 3.124 6.934 3.098 1.347-.024 3.936-2.67 5.204-2.67 1.348 0 1.726 1.4 1.726 2.238 0 .835-.27 2.345-.918 3.288-.648.947-1.05 1.297-1.813 1.242-.97-.08-2.913-3.104-4.152-3.158-1.56-.053-4.96 3.268-7.632 3.268-1.62 0-2.102-.24-2.642-.595-.81-.566-1.214-1.43-1.188-2.62v.003z"/></svg>