<svg xmlns="http://www.w3.org/2000/svg" xmlns:xlink="http://www.w3.org/1999/xlink" width="32" height="32" viewBox="0 0 32 32"><symbol id="c" viewBox="-14 -14 28 28"><path fill="#FFF" d="M13.48 0c0-7.445-6.035-13.48-13.48-13.48S-13.48-7.446-13.48 0-7.446 13.48 0 13.48 13.48 7.446 13.48 0z"/><path d="M14 0c0 7.72-6.28 14-14 14S-14 7.72-14 0c0-.915.094-1.81.264-2.675l-.028.01.253-.95c.002-.01.006-.02.01-.03.445-1.648 1.18-3.175 2.155-4.524.007-.01.015-.018.02-.027.314-.43.65-.842 1.01-1.234.023-.025.04-.054.063-.078.01-.01.02-.017.03-.025 2.503-2.682 6.036-4.38 9.97-4.452l.106-.007C-.098-13.997-.05-14 0-14c.438 0 .87.026 1.302.065.11.01.22.025.33.038.35.04.694.093 1.036.158.077.017.155.03.233.046 3.554.743 6.658 2.83 8.685 5.843.04.058.073.12.113.18.17.26.33.523.484.796.1.18.195.36.288.543.075.15.147.3.22.453.107.233.213.468.31.708.006.017.014.032.02.048l.19.484-.014.005C13.706-3.18 14-1.626 14 0zM0 12.963C7.147 12.963 12.963 7.15 12.963 0c0-1.48-.26-2.896-.72-4.22-2.118 1.023-3.53 3-5.14 5.282-2.5 3.54-5.328 7.55-11.764 9.216l-.63.164-.02-.65c-.023-.816-.016-1.634-.007-2.44.033-3.327.063-6.47-2.2-8.508-1.493-1.346-3.968-2.053-5.072-1.88-.234.974-.373 1.988-.373 3.036 0 7.148 5.816 12.963 12.963 12.963zM10.827-7.11c-.057-.085-.114-.17-.173-.255-1.86-2.682-4.697-4.632-7.998-5.32-.053-.013-.106-.02-.16-.03-.328-.065-.663-.115-1-.153-.1-.012-.2-.024-.3-.033-.393-.038-.792-.063-1.196-.063-.054 0-.104.007-.158.008-3.32.315-6.815 1.88-9.33 4.15-.04.044-.08.088-.118.133-.253.278-.493.568-.72.87-.04.05-.077.102-.116.152-.24.33-.466.667-.673 1.015l-.047.076c-.455.774-.83 1.594-1.116 2.443 1.688-.03 4.05.92 5.457 2.19C-4.21.424-4.245 3.792-4.28 7.36c-.006.575-.01 1.156-.005 1.736C1.34 7.43 3.945 3.736 6.255.462c1.643-2.33 3.2-4.536 5.607-5.67-.19-.438-.412-.855-.646-1.263-.124-.216-.25-.43-.39-.64z"/><path fill="#666" d="M-4.79 9.777c-.123-4.29.625-8.613-2.38-11.318-1.71-1.543-4.597-2.382-5.84-1.94v-.007C-11.47-9.24-6.237-13.48 0-13.48c5.464 0 10.16 3.256 12.275 7.93.09.206.182.412.26.617h.003C6.418-2.536 5.91 7.008-4.792 9.778z"/></symbol><use xlink:href="#c" width="28" height="28" x="-14" y="-14" transform="matrix(1 0 0 -1 16 16)" overflow="visible"/></svg>