<svg xmlns="http://www.w3.org/2000/svg" width="32" height="32" viewBox="0 0 32 32"><path fill="#C8C8C8" d="M25.333 28.11c0 1.543-.345 1.89-1.894 1.89H8.556c-1.547 0-1.89-.347-1.89-1.89V3.892C6.666 2.346 7.01 2 8.556 2H23.44c1.548 0 1.893.346 1.893 1.893V28.11z"/><path fill="#FFF" d="M23.7 24.557H8.3V4.333H23.7v20.224z"/><path fill="#999" d="M15.997 29.064c-.928 0-1.685-.757-1.685-1.688 0-.934.757-1.688 1.685-1.688.932 0 1.688.755 1.688 1.686 0 .93-.757 1.687-1.688 1.687v.004z"/><path fill="#C8C8C8" d="M18.028 10.09c.41 2.437-2.958 5.8-2.958 5.8s2.278-3.527 1.767-6.12c-.512-2.59.903-5.437.903-5.437h2.56c-.003 0-2.195 3.808-1.783 6.247l-.49-.49z"/></svg>