<svg xmlns="http://www.w3.org/2000/svg" width="32" height="32" viewBox="0 0 32 32"><path fill="#fff" d="M9.844 6.166L7.79 7.352c-.154.088-.207.287-.118.44l3.125 5.413c.09.154.287.207.44.116l2.053-1.18c.154-.09.208-.286.12-.44L10.284 6.29c-.09-.155-.286-.207-.44-.117v-.004zm8.36 13.836c-.09-.154-.286-.21-.44-.118L15.71 21.07c-.154.09-.207.284-.12.44l3.126 5.41c.09.156.29.207.442.12l2.053-1.188c.16-.09.21-.285.12-.44l-3.12-5.41h-.006zM16 0C7.177 0 0 7.178 0 16s7.177 16 16 16c1.03 0 2.057-.098 3.048-.29l-.187-.953c-.93.183-1.89.273-2.86.273C7.718 31.03.97 24.288.97 16S7.712.97 16 .97 31.03 7.71 31.03 16c0 3.922-1.5 7.633-4.23 10.45-1.22 1.26-1.68 1.397-1.87 1.382-.016-.002-.05-.007-.1-.102-.47-.87-1.493-2.95-1.77-3.515.756-.603 1.36-1.478 1.31-2.73-.208-5.133-6.815-15.307-9.57-16.34-1.616-.607-3.12.113-4.086.814.013.01.026.03.038.05l3.017 5.23c1.05-.59 2.77-.678 4.708 2.68 2.03 3.523 1.25 5.228.315 6.032l2.915 5.05c.174-.074.35-.16.527-.256.337.69 1.275 2.59 1.732 3.44.232.435.574.563.82.6.855.124 1.797-.73 2.7-1.666C30.4 24.125 32 20.175 32 16c0-8.822-7.177-16-16-16z"/></svg>