<svg xmlns="http://www.w3.org/2000/svg" width="32" height="32" viewBox="0 0 32 32"><path fill="#FFF" d="M22 28H10V18h12v10z"/><path fill="#777" d="M8 2h16v4H8V2zm22 6H2c-1.1 0-2 .9-2 2v10c0 1.1.9 2 2 2h6v8h16v-8h6c1.1 0 2-.9 2-2V10c0-1.1-.9-2-2-2m-8 20H10V18h12v10z"/><path fill="none" d="M11.488 25.897h9.028"/><path fill="gray" d="M20.516 26.514h-9.028v-1.23h9.028v1.23z"/><path fill="none" d="M11.488 23.437h9.028"/><path fill="gray" d="M20.516 24.052h-9.028v-1.23h9.028v1.23z"/><path fill="none" d="M11.488 20.975h9.028"/><path fill="gray" d="M20.516 21.59h-9.028v-1.23h9.028v1.23z"/></svg>