<svg xmlns="http://www.w3.org/2000/svg" width="32" height="32" viewBox="0 0 32 32"><path fill="#4E4E4E" d="M15.874 11.398c-.053 0-.104-.008-.155-.025-.254-.084-.39-.357-.306-.61l2.144-6.4c.08-.234.324-.37.563-.318l8.747 1.944c.262.057.426.315.368.575-.058.255-.313.418-.575.367l-8.324-1.854-2.008 5.987c-.067.202-.255.328-.456.328l.002.005z"/><path fill="#FFF" d="M25.42 8.5c-1.142 0-2.07-.927-2.07-2.07s.93-2.076 2.07-2.076c1.14 0 2.068.927 2.068 2.07 0 1.144-.928 2.068-2.068 2.068V8.5z"/><path fill="#232323" d="M25.42 4.846c.875 0 1.586.71 1.586 1.586 0 .875-.71 1.586-1.586 1.586-.877 0-1.588-.71-1.588-1.586 0-.876.71-1.586 1.588-1.586m0-.966c-1.407 0-2.553 1.145-2.553 2.55 0 1.407 1.146 2.554 2.553 2.554 1.406 0 2.552-1.146 2.552-2.553 0-1.405-1.146-2.55-2.552-2.55z"/><circle fill="#FFF" cx="5.012" cy="15.193" r="2.53"/><path fill="#232323" d="M5.012 18.206C3.352 18.206 2 16.853 2 15.193s1.352-3.013 3.013-3.013c1.66 0 3.013 1.352 3.013 3.013 0 1.66-1.354 3.013-3.014 3.013zm0-5.06c-1.13 0-2.046.917-2.046 2.047 0 1.13.917 2.048 2.046 2.048 1.13 0 2.047-.917 2.047-2.047 0-1.13-.918-2.047-2.048-2.047z"/><circle fill="#FFF" cx="26.988" cy="15.193" r="2.53"/><path fill="#232323" d="M26.988 18.206c-1.66 0-3.013-1.354-3.013-3.014 0-1.66 1.353-3.013 3.013-3.013S30 13.53 30 15.19s-1.352 3.014-3.012 3.014zm0-5.06c-1.13 0-2.048.917-2.048 2.047 0 1.13.918 2.048 2.048 2.048s2.047-.917 2.047-2.047c0-1.13-.918-2.047-2.047-2.047z"/><ellipse fill="#FFF" cx="16" cy="19.586" rx="12.71" ry="8.051"/><path fill="#232323" d="M16 28.12c-7.273 0-13.193-3.828-13.193-8.534 0-4.707 5.92-8.536 13.193-8.536 7.274 0 13.192 3.83 13.192 8.536 0 4.706-5.918 8.534-13.192 8.534zm0-16.105c-6.742 0-12.227 3.397-12.227 7.57 0 4.174 5.484 7.568 12.227 7.568 6.744 0 12.23-3.396 12.23-7.567-.002-4.173-5.486-7.57-12.23-7.57zm0 13.157c-2.165 0-4.634-.463-5.267-1.502-.14-.23-.067-.525.162-.666.226-.137.524-.065.663.162.25.42 1.845 1.04 4.44 1.04 2.6 0 4.184-.62 4.442-1.04.137-.226.435-.3.666-.16.225.14.3.435.158.666-.63 1.037-3.097 1.5-5.264 1.5z"/><circle fill="#FF4500" cx="20.649" cy="17.475" r="2.123"/><circle fill="#FF4500" cx="11.352" cy="17.475" r="2.123"/></svg>