<svg xmlns="http://www.w3.org/2000/svg" width="32" height="32" viewBox="0 0 32 32"><path fill="#777" d="M21.695 19.13c3.287-4.723 2.89-11.34-1.217-15.59-4.564-4.72-11.958-4.72-16.52 0-4.565 4.72-4.565 12.373 0 17.092 4.105 4.25 10.5 4.66 15.066 1.263L28.794 32s.784-.163 1.707-1.117c.932-.957.97-1.645.97-1.645L21.7 19.13h-.005z"/><path fill="#FFF" d="M19.518 4.532c4.034 4.172 4.037 10.938.004 15.11-4.035 4.172-10.57 4.172-14.605 0-4.03-4.175-4.03-10.94 0-15.108C8.947.36 15.487.36 19.517 4.532z"/><path fill="#E6E6E6" d="M17.917 3.76c3.058 3.163 3.056 8.295-.002 11.46-3.06 3.162-8.018 3.162-11.075 0-3.06-3.165-3.06-8.297-.003-11.46 3.06-3.164 8.02-3.164 11.08 0z"/></svg>