<svg xmlns="http://www.w3.org/2000/svg" width="32" height="32" viewBox="0 0 32 32"><path fill="#777" d="M20.983 18.738c2.877-4.132 2.53-9.922-1.064-13.64-3.995-4.13-10.464-4.13-14.457 0-3.993 4.13-3.993 10.825 0 14.954 3.593 3.72 9.19 4.078 13.184 1.104L27.197 30s.684-.143 1.49-.978c.816-.838.85-1.44.85-1.44l-8.55-8.844h-.004z"/><path fill="#FFF" d="M19.08 5.966c3.528 3.65 3.53 9.57.002 13.222-3.53 3.65-9.25 3.65-12.78 0-3.524-3.654-3.524-9.573 0-13.22 3.528-3.653 9.25-3.653 12.777-.002z"/><path fill="#E6E6E6" d="M17.677 5.29c2.676 2.768 2.675 7.258-.002 10.027-2.677 2.767-7.015 2.767-9.69 0-2.677-2.77-2.677-7.26-.002-10.027 2.677-2.77 7.017-2.77 9.694 0z"/></svg>