<svg xmlns="http://www.w3.org/2000/svg" xmlns:xlink="http://www.w3.org/1999/xlink" width="32" height="32" viewBox="0 0 32 32"><symbol id="c" viewBox="-16.001 -16 32 32"><use xlink:href="#a" width="32" height="32" x="-16" y="-16" overflow="visible"/><path fill="#999" d="M16-12c0-2.21-1.792-4-4-4h-24c-2.21 0-4 1.79-4 4v24c0 2.21 1.79 4 4 4h24c2.208 0 4-1.79 4-4v-24z"/><g><use xlink:href="#a" width="32" height="32" x="-16" y="-16" transform="matrix(.938 0 0 .938 0 0)" overflow="visible"/><path fill="#F2F2F2" d="M15-11.25c0-2.07-1.68-3.75-3.75-3.75h-22.5c-2.072 0-3.75 1.68-3.75 3.75v22.5c0 2.07 1.678 3.75 3.75 3.75h22.5c2.07 0 3.75-1.68 3.75-3.75v-22.5z"/></g></symbol><use xlink:href="#c" width="32" height="32" x="-16.001" y="-16" transform="matrix(1 0 0 -1 16.002 16)" overflow="visible"/><use xlink:href="#a" width="32" height="32" x="-16" y="-16" transform="matrix(1 0 0 -1 16 16)" overflow="visible"/><path fill="#999" d="M32 28c0 2.21-1.79 4-4 4H4c-2.21 0-4-1.79-4-4V4c0-2.21 1.79-4 4-4h24c2.21 0 4 1.79 4 4v24z"/><g><path fill="#165D59" d="M32 28c0 2.21-1.79 4-4 4H4c-2.21 0-4-1.79-4-4V4c0-2.21 1.79-4 4-4h24c2.21 0 4 1.79 4 4v24z"/><path fill="#165D59" d="M32 28c0 2.21-1.79 4-4 4H4c-2.21 0-4-1.79-4-4V4c0-2.21 1.79-4 4-4h24c2.21 0 4 1.79 4 4v24z"/><path fill="#165D59" d="M32 28c0 2.21-1.79 4-4 4H4c-2.21 0-4-1.79-4-4V4c0-2.21 1.79-4 4-4h24c2.21 0 4 1.79 4 4v24z"/></g><g fill="#FFF"><path d="M10.317 29.062H2.002l14.75-26.124h8.314"/><circle cx="25.843" cy="24.903" r="4.159"/></g></svg>