<svg xmlns="http://www.w3.org/2000/svg" xmlns:xlink="http://www.w3.org/1999/xlink" width="32" height="32" viewBox="0 0 32 32"><symbol id="c" viewBox="-13.852 -5.808 27.703 11.617"><path fill="#ED1C24" d="M-2.396 3.433c-.158.063-.316.123-.482.168l-.582.123c-.24.034-.482.053-.732.053-.146 0-.288-.007-.43-.02l-1.16-.237c-.417-.14-.807-.33-1.164-.566l-1.16-1.08C-8.563 1.282-9.06.806-9.06.806s-2.1.172-3.325-.806-1.467-1.828-1.467-2.76c0-.93.427-1.76 1.098-2.32 0 0 .744-.552 2.025-.73h21.21v.015c2.322.148 3.37 1.58 3.37 3.327 0 1.845-1.403 3.34-3.293 3.34-.485 0-.886-.1-1.31-.28-.3 2.93-2.803 5.217-5.883 5.217-1.433 0-2.732-.506-3.756-1.333-.313-.32-.998-1.15-1.213-1.483l-.79.44z"/><path fill="#FFF" d="M-11.746-2.868c0-.8.367-1.517.945-2v4c-.58-.483-.946-1.2-.946-2M-9.8-.344v-5.05c.235-.062.484-.1.74-.1h.26v5.238c-.087.007-.173.012-.26.012-.257 0-.505-.035-.74-.1m2.208-.328c-.068.043-.137.085-.21.12v-4.94h1v6.61c-.397-.515-.675-1.125-.79-1.79m1.79 2.72v-7.54h1v8.027c-.356-.12-.692-.284-1-.488m2 .693v-8.233h1v8.205c-.204.028-.415.045-.63.045-.125 0-.248-.006-.37-.017m2.552-.58c-.326.19-.678.344-1.05.446v-8.1h1.5v8.25c-.165-.186-.315-.386-.45-.596m.95 1.097v-8.75h9.5v.012c2 .126 2.9 1.357 2.9 2.862C12.1-1.03 10.893.257 9.266.257c-.418 0-.762-.087-1.125-.24-.26 2.52-2.414 4.49-5.066 4.49-1.297 0-2.476-.472-3.375-1.25"/></symbol><use xlink:href="#c" width="27.703" height="11.617" x="-13.852" y="-5.808" transform="matrix(1.01 0 0 -1.01 16 16)" overflow="visible"/></svg>