<svg xmlns="http://www.w3.org/2000/svg" xmlns:xlink="http://www.w3.org/1999/xlink" width="32" height="32" viewBox="0 0 32 32"><path fill="#999" d="M32 28.143c0 2.21-1.792 4-4 4H4c-2.21 0-4-1.79-4-4v-24c0-2.21 1.79-4 4-4h24c2.208 0 4 1.79 4 4v24z"/><path fill="#F2F2F2" d="M31 27.393c0 2.07-1.68 3.75-3.75 3.75H4.75c-2.072 0-3.75-1.68-3.75-3.75v-22.5c0-2.07 1.678-3.75 3.75-3.75h22.5c2.07 0 3.75 1.68 3.75 3.75v22.5z"/><path fill="#58B632" d="M32 28.143c0 2.21-1.792 4-4 4H4c-2.21 0-4-1.79-4-4v-24c0-2.21 1.79-4 4-4h24c2.208 0 4 1.79 4 4v24zm0 0c0 2.21-1.792 4-4 4H4c-2.21 0-4-1.79-4-4v-24c0-2.21 1.79-4 4-4h24c2.208 0 4 1.79 4 4v24zm-1-.75c0 2.07-1.68 3.75-3.75 3.75H4.75c-2.072 0-3.75-1.68-3.75-3.75v-22.5c0-2.07 1.678-3.75 3.75-3.75h22.5c2.07 0 3.75 1.68 3.75 3.75v22.5zm0 0c0 2.07-1.68 3.75-3.75 3.75H4.75c-2.072 0-3.75-1.68-3.75-3.75v-22.5c0-2.07 1.678-3.75 3.75-3.75h22.5c2.07 0 3.75 1.68 3.75 3.75v22.5z"/><path fill="none" d="M32 28.002c0 2.14-1.734 3.875-3.874 3.875H4.876C2.736 31.877 1 30.143 1 28.002V4.752C1 2.61 2.737.875 4.877.875h23.25C30.267.875 32 2.61 32 4.75v23.252z"/><defs><path id="a" d="M31.5 27.768c0 2.14-1.734 3.875-3.874 3.875H4.376C2.236 31.643.5 29.91.5 27.768V4.518C.5 2.375 2.237.64 4.377.64h23.25c2.14 0 3.875 1.734 3.875 3.875v23.25l-.002.003z"/></defs><clipPath id="b"><use xlink:href="#a" overflow="visible"/></clipPath><path clip-path="url(#b)" fill="#FFF" d="M28-.142H9.524c-.09.06-.192.11-.282.17C6.308 2.29 3.98 5.395 3.62 8.88c-.09.572-.15 1.15-.15 1.743 0 3.633 1.75 6.924 4.58 9.38V27.8l6.58-4.286c1.782.52 3.698.82 5.703.82 4.534 0 8.64-1.463 11.67-3.83V3.857c0-2.21-1.79-4-4-4H28zM30.693 12.3c-1.36 3.277-5.555 5.742-10.36 5.742-4.806 0-9-2.458-10.357-5.73-.136-.546-.208-1.11-.208-1.69 0-4.093 3.523-7.51 8.23-8.376.757-.127 1.534-.2 2.334-.2.807 0 1.59.075 2.348.204 4.7.87 8.213 4.283 8.213 8.37 0 .575-.074 1.135-.203 1.68h.003z"/></svg>