<svg xmlns="http://www.w3.org/2000/svg" width="32" height="32" viewBox="0 0 32 32"><path fill="#324F6D" d="M21.266 25.395c-.956.204-4.533.583-4.533-3.397v-8.434h6.994V9.42h-6.994V2.483h-3.297c-.213 3.55-2.604 6.51-5.854 7.57v3.512h3.56v11.21s-.066 4.742 6.413 4.742c4.21 0 6.866-1.058 6.866-1.058v-4.233s-.13.52-3.154 1.168z"/><path fill="#FFF" d="M17.554 30c-2.397 0-4.227-.623-5.44-1.853-1.463-1.485-1.455-3.302-1.454-3.378V14.047H7.1V9.702l.332-.108c3.107-1.01 5.326-3.88 5.522-7.14L12.982 2h4.235v6.938h6.994v5.108h-6.993v7.95c0 2.012.98 3.03 2.916 3.03.49 0 .887-.072 1.033-.103 2.436-.52 2.834-.932 2.85-.95l.182.167.706.088v4.56l-.304.122c-.112.043-2.79 1.09-7.046 1.09zm-9.49-16.918h3.562v11.694c0 .02.005 1.515 1.188 2.705 1.025 1.03 2.62 1.554 4.74 1.554 3.26 0 5.584-.654 6.384-.916V25.12c-.515.225-1.317.48-2.57.747-.22.046-.674.126-1.235.126-2.468 0-3.882-1.457-3.882-3.996V13.08h6.995V9.903H16.25V2.965h-2.37c-.376 3.346-2.65 6.258-5.815 7.43v2.687z"/></svg>