<svg xmlns="http://www.w3.org/2000/svg" width="32" height="32" viewBox="0 0 32 32"><path fill="#2AA9E0" d="M11.15 27.084c-3.013 0-5.94-.857-8.47-2.482-.182-.117-.26-.346-.186-.55.067-.187.244-.31.438-.31.02 0 .038.002.056.004.395.05.806.072 1.223.072 1.937 0 3.783-.523 5.404-1.52-1.954-.468-3.565-1.923-4.194-3.89-.05-.156-.014-.33.095-.453.09-.1.217-.156.35-.156.028 0 .058 0 .087.007.098.02.198.035.298.05-1.657-1.046-2.733-2.893-2.733-4.94 0-.165.087-.352.23-.436.087-.05.186-.083.283-.083.063 0 .124.014.18.045.212.12.434.22.662.305-.843-1.03-1.32-2.326-1.32-3.69 0-1.02.274-2.034.792-2.93.077-.132.214-.22.367-.23.013-.002.026-.002.04-.002.138 0 .27.063.36.17 2.524 3.093 6.19 5.037 10.13 5.395-.03-.243-.046-.482-.046-.716 0-3.213 2.614-5.828 5.827-5.828 1.517 0 2.985.598 4.07 1.65 1.06-.235 2.073-.636 3.013-1.193.073-.044.155-.065.237-.065.104 0 .206.034.29.102.152.12.213.323.155.507-.235.735-.614 1.41-1.11 1.99.41-.122.81-.27 1.197-.443.062-.027.126-.04.19-.04.135 0 .267.058.357.166.133.16.146.387.03.56-.708 1.06-1.58 1.984-2.59 2.747.007.154.01.31.01.466.004 7.727-5.878 15.72-15.72 15.72z"/><path fill="#FFF" d="M21.023 5.382c1.543 0 2.935.65 3.914 1.693 1.22-.24 2.37-.687 3.405-1.3-.4 1.252-1.25 2.297-2.358 2.96 1.086-.13 2.12-.418 3.08-.845h.002c-.718 1.074-1.627 2.02-2.68 2.778.015.23.02.46.02.694 0 7.085-5.393 15.255-15.255 15.255-3.027 0-5.846-.885-8.217-2.408.417.05.845.075 1.28.075 2.512 0 4.824-.86 6.66-2.297-2.347-.043-4.326-1.594-5.007-3.723.326.063.663.096 1.008.096.488 0 .962-.065 1.413-.187-2.453-.494-4.3-2.66-4.3-5.257v-.068c.718.402 1.548.642 2.426.67-1.438-.962-2.39-2.602-2.39-4.462 0-.983.27-1.904.73-2.696 2.647 3.244 6.598 5.38 11.05 5.605-.086-.392-.14-.802-.14-1.223 0-2.96 2.4-5.36 5.36-5.36m0-.933c-3.47 0-6.294 2.823-6.294 6.294 0 .063 0 .126.002.19-3.604-.47-6.932-2.313-9.26-5.163-.176-.217-.442-.342-.72-.342-.026 0-.05 0-.076.003-.306.026-.58.2-.733.464-.56.966-.854 2.06-.854 3.163 0 1.02.245 2.002.697 2.88-.095.02-.188.056-.274.107-.286.168-.46.474-.46.805v.067c0 1.85.813 3.55 2.128 4.716l-.012.014c-.22.246-.292.59-.19.904.562 1.76 1.852 3.14 3.477 3.85-1.313.626-2.75.952-4.243.952-.398 0-.79-.023-1.167-.068-.037-.006-.075-.008-.112-.008-.39 0-.743.244-.877.617-.147.41.008.867.374 1.104 2.604 1.672 5.62 2.555 8.723 2.555 10.134 0 16.188-8.23 16.188-16.19v-.24c.97-.766 1.81-1.676 2.504-2.713.19-.288.21-.656.047-.96-.16-.303-.478-.493-.822-.493-.07 0-.143.008-.213.024.15-.294.277-.603.378-.92.12-.37-.004-.774-.307-1.015-.17-.135-.375-.203-.582-.203-.164 0-.328.042-.476.13-.826.49-1.712.853-2.64 1.083-1.15-1.027-2.654-1.606-4.205-1.606z"/></svg>