<svg xmlns="http://www.w3.org/2000/svg" width="32" height="32" viewBox="0 0 32 32"><path fill="#FFF" d="M15.095 13.9c0 2.662 2.16 4.824 4.825 4.824s4.825-2.162 4.825-4.825c0-2.668-2.16-4.827-4.825-4.827-2.663 0-4.825 2.16-4.825 4.826m9.65 6.03h-9.65c-2.665 0-4.825 2.162-4.825 4.824v3.533h19.298v-3.533c0-2.666-2.16-4.824-4.823-4.824"/><path fill="#C8C8C8" d="M30 28.718H9.84v-3.964c0-2.898 2.357-5.256 5.255-5.256h9.65c2.898 0 5.255 2.357 5.255 5.256v3.964zm-19.298-.862H29.14v-3.103c0-2.422-1.972-4.393-4.394-4.393h-9.65c-2.423 0-4.394 1.97-4.394 4.393v3.103zm9.218-8.703c-2.898 0-5.255-2.356-5.255-5.255 0-2.9 2.356-5.256 5.255-5.256s5.256 2.357 5.256 5.256c0 2.9-2.358 5.255-5.256 5.255zm0-9.65c-2.423 0-4.394 1.973-4.394 4.396s1.97 4.393 4.394 4.393 4.394-1.972 4.394-4.394c0-2.424-1.97-4.396-4.394-4.396z"/><path fill="#FFF" d="M10.96 12.243c2.473 0 4.48-2.005 4.48-4.478 0-2.475-2.007-4.48-4.48-4.48-2.475 0-4.48 2.005-4.48 4.48 0 2.472 2.007 4.478 4.48 4.478z"/><path fill="#B4B4B4" d="M10.96 4.146c1.995 0 3.62 1.623 3.62 3.617 0 1.992-1.625 3.616-3.62 3.616S7.342 9.755 7.342 7.762c0-1.994 1.622-3.62 3.618-3.62m0-.86c-2.475 0-4.48 2.005-4.48 4.48 0 2.473 2.005 4.478 4.48 4.478 2.473 0 4.48-2.004 4.48-4.477 0-2.475-2.007-4.48-4.48-4.48z"/><path fill="#FFF" d="M9.306 24.752c0-3.19 2.597-5.79 5.79-5.79h2.024c-1.782-.988-2.99-2.89-2.99-5.064 0-.18.01-.36.025-.535H6.48c-2.475 0-4.48 2.004-4.48 4.48v8.84h7.307v-1.93z"/><path fill="#B4B4B4" d="M13.277 14.225c.072 1.438.607 2.794 1.5 3.885-3.52.164-6.334 3.082-6.334 6.643v1.07H2.86v-7.98c0-1.995 1.624-3.62 3.62-3.62h6.797m.88-.86H6.48c-2.475 0-4.48 2.003-4.48 4.48v8.84h7.307v-1.93c0-3.19 2.598-5.79 5.79-5.79h2.024c-1.78-.988-2.99-2.89-2.99-5.064 0-.182.01-.36.027-.538z"/></svg>