<svg xmlns="http://www.w3.org/2000/svg" width="32" height="32" viewBox="0 0 32 32"><path fill="#FFF" d="M15.2 13.81c0 3.092 2.508 5.6 5.6 5.6 3.093 0 5.6-2.508 5.6-5.6 0-3.095-2.507-5.6-5.6-5.6-3.092 0-5.6 2.505-5.6 5.6m11.2 7H15.2c-3.093 0-5.6 2.51-5.6 5.6v4.1H32v-4.1c0-3.094-2.507-5.6-5.6-5.6M10.4 11.888c2.87 0 5.2-2.328 5.2-5.198 0-2.872-2.33-5.2-5.2-5.2-2.872 0-5.2 2.327-5.2 5.2 0 2.87 2.33 5.198 5.2 5.198z"/><path fill="#777" d="M10.4 2.49c2.315 0 4.2 1.883 4.2 4.198 0 2.313-1.885 4.198-4.2 4.198-2.316 0-4.2-1.885-4.2-4.198 0-2.315 1.884-4.2 4.2-4.2m0-1c-2.872 0-5.2 2.328-5.2 5.2 0 2.87 2.328 5.198 5.2 5.198 2.87 0 5.2-2.328 5.2-5.198 0-2.872-2.33-5.2-5.2-5.2z"/><path fill="#FFF" d="M8.48 26.408c0-3.705 3.014-6.72 6.72-6.72h2.35c-2.067-1.147-3.47-3.355-3.47-5.88 0-.21.013-.417.03-.62H5.2c-2.873 0-5.2 2.326-5.2 5.2v10.26h8.48v-2.24z"/><path fill="#777" d="M13.088 14.188c.083 1.67.706 3.244 1.74 4.51-4.085.19-7.35 3.577-7.35 7.71v1.24H1v-9.263c0-2.314 1.884-4.2 4.2-4.2h7.888m1.023-.997H5.2c-2.873 0-5.2 2.326-5.2 5.2v10.26h8.48v-2.24c0-3.703 3.015-6.72 6.72-6.72h2.35c-2.066-1.146-3.47-3.354-3.47-5.88 0-.208.013-.415.03-.62z"/></svg>