<svg xmlns="http://www.w3.org/2000/svg" width="32" height="32" viewBox="0 0 32 32"><path fill="#2B76AD" d="M17.344 23.31c-.875 0-1.65-.288-2.308-.856-.645-.553-1.107-1.28-1.41-2.227-.068-.208.035-.432.236-.517l1.37-.575c.052-.022.108-.033.163-.033.056 0 .112.012.165.033.104.045.187.13.228.235.176.452.408.813.69 1.07.248.225.537.335.88.335.2 0 .507-.062.832-.592.28-.46.422-1.028.422-1.69 0-.8-.174-1.564-.433-1.902-.306-.4-.823-.876-1.56-.876h-1.15c-.233 0-.42-.188-.42-.42v-.314c0-.083.023-.164.07-.232l2.398-3.625h-1.89l-3.358 11.17c-.053.18-.217.3-.403.3H11.7c-.187 0-.35-.122-.403-.3L9.19 15.166 7.08 22.29c-.053.178-.217.3-.403.3h-.17c-.184 0-.347-.12-.4-.296L2.086 9.292c-.04-.127-.015-.266.064-.374.08-.107.206-.17.34-.17h1.756c.187 0 .352.123.403.302l2.025 6.96 1.202-4.116-.768-2.607c-.038-.127-.014-.265.066-.37.08-.107.204-.17.336-.17h1.76c.2 0 .37.145.41.335l2.017 6.92 2.024-6.947c.052-.18.217-.303.404-.303h5.927c.232 0 .42.188.42.42v.854c0 .065-.015.13-.044.188l-1.94 3.892c.853.36 1.523.902 1.914 1.555.538.897.812 1.85.812 2.835 0 1.386-.337 2.493-1.03 3.384-.726.947-1.684 1.43-2.842 1.43z"/><path fill="#FFF" d="M9.272 9.168v.004l2.428 8.332 2.43-8.332h5.926v.854l-2.15 4.31c.87.283 1.693.797 2.138 1.54.448.745.753 1.62.753 2.62 0 1.24-.285 2.28-.94 3.125-.65.85-1.478 1.27-2.513 1.27-.784 0-1.454-.254-2.033-.755-.584-.5-1.008-1.178-1.285-2.037l1.37-.575c.202.52.47.93.798 1.23.33.296.717.443 1.165.443.472 0 .865-.263 1.19-.79.322-.53.484-1.17.484-1.91 0-.822-.175-1.71-.52-2.16-.403-.53-1.033-1.042-1.892-1.042h-1.152v-.314l2.83-4.277h-2.83l-.158.014-3.444 11.457H11.7l-2.51-8.486-2.515 8.482h-.167L2.488 9.168h1.758l2.43 8.344 1.64-5.617-.804-2.727h1.76m0-.84h-1.76c-.265 0-.515.124-.673.336-.16.212-.21.487-.134.742l.733 2.49-.764 2.612-1.623-5.574c-.105-.36-.433-.607-.807-.607H2.49c-.268 0-.52.127-.678.342-.158.214-.205.49-.126.747l4.018 13c.11.353.435.594.804.594h.167c.372 0 .7-.244.806-.602l1.708-5.76 1.705 5.763c.106.36.434.604.807.604h.167c.37 0 .7-.243.805-.6l.588-1.952c.326.958.83 1.735 1.504 2.313.732.633 1.602.955 2.58.955 1.296 0 2.365-.537 3.18-1.597.75-.964 1.114-2.155 1.114-3.638 0-1.063-.293-2.088-.872-3.05-.37-.62-.962-1.148-1.707-1.536l1.75-3.508c.058-.117.088-.246.088-.375v-.855c0-.464-.376-.84-.84-.84H14.13c-.374 0-.703.246-.808.604L11.7 14.5l-1.615-5.542c-.095-.362-.423-.63-.813-.63zm6.668 3.215h.795L15.28 13.74l.66-2.197zm-2.356 7.84l1.122-3.734c.134.286.425.485.763.485h1.15c.564 0 .978.386 1.224.71.17.22.347.872.347 1.65 0 .583-.12 1.078-.36 1.47-.237.39-.407.39-.472.39-.24 0-.426-.07-.6-.228-.23-.21-.427-.518-.58-.91-.082-.21-.246-.38-.455-.47-.104-.044-.217-.066-.33-.066-.11 0-.22.023-.325.067l-1.37.575c-.04.018-.078.037-.114.06z"/><g><path fill="#2B76AD" d="M25.51 23.354c-2.84 0-4.268-2.96-4.268-4.615 0-.208.15-.384.354-.416.022-.004.045-.005.066-.005.18 0 .342.113.4.288.543 1.667 1.784 2.622 3.404 2.622 1.584 0 2.905-2.565 2.96-2.67.066-.145.216-.24.38-.24.015 0 .03 0 .047.002.212.024.372.204.372.418v1.97c0 .08-.022.157-.065.225-.06.1-1.56 2.42-3.65 2.42z"/><path fill="#FFF" d="M21.664 18.74c.566 1.734 1.902 2.91 3.805 2.91 1.904 0 3.337-2.907 3.338-2.91v1.97s-1.413 2.225-3.296 2.225c-2.526 0-3.848-2.698-3.848-4.196M21.665 17.897c-.045 0-.09.003-.134.01-.407.065-.707.418-.707.83 0 1.81 1.566 5.037 4.688 5.037 2.32 0 3.94-2.51 4.006-2.615.087-.135.132-.29.132-.45v-1.97c0-.427-.32-.787-.744-.835-.033-.004-.065-.006-.098-.006-.327 0-.622.19-.76.48-.318.64-1.457 2.43-2.578 2.43-1.953 0-2.72-1.462-3.006-2.332-.114-.35-.44-.58-.797-.58z"/><g><path fill="#2B76AD" d="M22.66 16.673c-.16 0-.313-.094-.382-.248-.48-1.072-.64-2.626-.398-3.96.307-1.71 1.222-2.987 2.574-3.594.322-.143.644-.216.958-.216 1.203 0 1.986 1.037 2.393 1.777l.556-.846c.08-.12.213-.19.352-.19.04 0 .08.006.12.018.18.053.3.217.3.403v1.693c0 .077-.02.152-.06.22l-.735 1.208c-.076.125-.213.202-.36.202-.152 0-.296-.086-.37-.22-.334-.612-1.193-1.768-2.05-1.768-.127 0-.25.025-.375.076-1.21.494-2.393 2.774-2.102 4.973.026.206-.103.402-.303.458-.04.01-.078.015-.116.015z"/><path fill="#FFF" d="M25.412 9.074c1.553 0 2.328 2.222 2.328 2.222l.97-1.482v1.693l-.733 1.21s-1.063-1.99-2.42-1.988c-.174 0-.352.03-.534.105-1.37.56-2.677 3.03-2.36 5.418-.817-1.82-.82-5.75 1.965-7 .28-.125.542-.18.784-.18m0-.84v.84-.84c-.373 0-.753.085-1.13.253-1.483.666-2.483 2.052-2.816 3.905-.258 1.434-.093 3.045.43 4.207.138.308.44.496.766.496.077 0 .154-.01.23-.032.4-.113.658-.504.604-.918-.274-2.078.91-4.148 1.845-4.53.073-.028.146-.043.218-.043.573 0 1.328.905 1.68 1.548.148.27.433.44.74.44.294 0 .565-.154.72-.405l.733-1.21c.082-.13.124-.282.124-.437V9.814c0-.372-.244-.7-.6-.806-.08-.023-.162-.035-.242-.035-.278 0-.545.138-.703.38l-.2.303c-.51-.706-1.298-1.423-2.398-1.423z"/></g></g></svg>