<svg xmlns="http://www.w3.org/2000/svg" width="32" height="32" viewBox="0 0 32 32"><path fill="#00ADEF" d="M13.23 15.017V4.394L2 5.96v9.057h11.23zM2 16.985v9.2l11.23 1.51v-10.71H2zm28-1.968V2.05L15.198 4.117v10.898H30zm0-12.97l-14.802 2.07v10.9H30V2.046zM15.198 16.985v10.978L30 29.952V16.984H15.198zm14.802 0H15.198v10.978L30 29.952V16.984zm-16.77-1.968V4.393L2 5.96v9.058l11.23-.002zM2 16.984v9.2l11.23 1.512v-10.71L2 16.984zm28-1.968V2.048l-14.802 2.07v10.898H30zm-14.802 1.968v10.978L30 29.952V16.984H15.198z"/></svg>