<svg xmlns="http://www.w3.org/2000/svg" width="32" height="32" viewBox="0 0 32 32"><path fill="#FFF" d="M26.83 29.366c-.104 0-.202-.04-.275-.115L13.01 15.71l-.286.15c-1 .526-2.132.804-3.27.804-1.874 0-3.637-.73-4.96-2.057C2.45 12.56 1.878 9.54 2.987 6.92l4.208 4.208c.24.238.558.37.895.37.336 0 .654-.13.894-.37l2.344-2.343c.24-.24.37-.557.37-.895 0-.34-.13-.657-.37-.896L7.304 2.972c.695-.225 1.42-.338 2.16-.338 1.87 0 3.63.728 4.953 2.05 2.042 2.042 2.625 5.075 1.482 7.73l-.118.27L29.45 26.356c.073.073.113.17.113.274 0 .104-.04.203-.114.276l-2.342 2.345c-.074.075-.173.116-.277.116z"/><path fill="#C8C8C8" d="M9.465 3.07c1.753 0 3.402.683 4.643 1.922 1.915 1.914 2.46 4.758 1.39 7.247l-.235.544.42.42L29.106 26.63 26.83 28.91l-13.284-13.28-.456-.458-.57.3c-.938.493-2 .753-3.065.753-1.758 0-3.41-.685-4.652-1.93-1.757-1.753-2.354-4.28-1.642-6.58l3.727 3.727c.32.318.75.494 1.202.494.454 0 .88-.175 1.204-.497l2.343-2.342c.32-.322.498-.75.498-1.205s-.178-.883-.498-1.205L8.152 3.202c.43-.088.868-.13 1.313-.13m0-.876c-1.005 0-2.01.202-2.95.605l4.503 4.503c.323.324.323.85 0 1.172L8.674 10.82c-.162.16-.374.24-.586.24-.212 0-.424-.08-.586-.24L2.857 6.174c-1.482 2.813-1.042 6.375 1.327 8.74 1.456 1.46 3.363 2.186 5.27 2.186 1.194 0 2.388-.284 3.473-.854L26.244 29.56c.163.162.374.243.587.243.213 0 .425-.082.587-.242l2.342-2.345c.32-.323.32-.85 0-1.17L16.3 12.584c1.168-2.718.646-5.99-1.576-8.212-1.455-1.453-3.358-2.177-5.26-2.177z"/></svg>