<svg xmlns="http://www.w3.org/2000/svg" xmlns:xlink="http://www.w3.org/1999/xlink" width="32" height="32" viewBox="0 0 32 32"><path fill="#9CACB4" d="M26.668.25c2.803 0 5.083 2.28 5.083 5.084v21.332c0 2.804-2.28 5.085-5.08 5.085H5.34C2.53 31.75.25 29.47.25 26.67V5.334C.25 2.53 2.53.25 5.336.25H26.67m0-.25H5.334C2.4 0 0 2.4 0 5.334v21.332C0 29.604 2.4 32 5.336 32H26.67C29.6 32 32 29.604 32 26.667V5.334C32 2.4 29.604 0 26.67 0z"/><path fill="#999" d="M32 28c0 2.21-1.792 4-4 4H4c-2.21 0-4-1.79-4-4V4c0-2.21 1.79-4 4-4h24c2.208 0 4 1.79 4 4v24z"/><path fill="#F2F2F2" d="M31 27.25c0 2.07-1.68 3.75-3.75 3.75H4.75C2.677 31 1 29.32 1 27.25V4.75C1 2.68 2.677 1 4.75 1h22.5C29.32 1 31 2.68 31 4.75v22.5z"/><path fill="#FFF" d="M32 28c0 2.21-1.792 4-4 4H4c-2.21 0-4-1.79-4-4V4c0-2.21 1.79-4 4-4h24c2.208 0 4 1.79 4 4v24zm0 0c0 2.21-1.792 4-4 4H4c-2.21 0-4-1.79-4-4V4c0-2.21 1.79-4 4-4h24c2.208 0 4 1.79 4 4v24zm-1-.75c0 2.07-1.68 3.75-3.75 3.75H4.75C2.677 31 1 29.32 1 27.25V4.75C1 2.68 2.677 1 4.75 1h22.5C29.32 1 31 2.68 31 4.75v22.5zm0 0c0 2.07-1.68 3.75-3.75 3.75H4.75C2.677 31 1 29.32 1 27.25V4.75C1 2.68 2.677 1 4.75 1h22.5C29.32 1 31 2.68 31 4.75v22.5z"/><defs><path id="a" d="M27 16H5c-2.75 0-5 2.25-5 5v5.665C0 29.602 2.4 32 5.336 32H26.67C29.6 32 32 29.602 32 26.665V21c0-2.75-2.25-5-5-5z"/></defs><clipPath id="b"><use xlink:href="#a" overflow="visible"/></clipPath><g clip-path="url(#b)"><path fill="#999" d="M32 28c0 2.21-1.792 4-4 4H4c-2.21 0-4-1.79-4-4V4c0-2.21 1.79-4 4-4h24c2.208 0 4 1.79 4 4v24z"/><path fill="#F2F2F2" d="M31 27.25c0 2.07-1.68 3.75-3.75 3.75H4.75C2.677 31 1 29.32 1 27.25V4.75C1 2.68 2.677 1 4.75 1h22.5C29.32 1 31 2.68 31 4.75v22.5z"/><path fill="#EE3E3A" d="M32 28c0 2.21-1.792 4-4 4H4c-2.21 0-4-1.79-4-4V4c0-2.21 1.79-4 4-4h24c2.208 0 4 1.79 4 4v24zm0 0c0 2.21-1.792 4-4 4H4c-2.21 0-4-1.79-4-4V4c0-2.21 1.79-4 4-4h24c2.208 0 4 1.79 4 4v24zm-1-.75c0 2.07-1.68 3.75-3.75 3.75H4.75C2.677 31 1 29.32 1 27.25V4.75C1 2.68 2.677 1 4.75 1h22.5C29.32 1 31 2.68 31 4.75v22.5zm0 0c0 2.07-1.68 3.75-3.75 3.75H4.75C2.677 31 1 29.32 1 27.25V4.75C1 2.68 2.677 1 4.75 1h22.5C29.32 1 31 2.68 31 4.75v22.5z"/></g><path fill="#333" d="M6.907 3h1.846l1.19 4.317h.115L11.19 3h1.864L10.92 9.32v4.48H9.09V9.52L6.907 3zm6.28 4.655c0-.618.218-1.11.656-1.475.438-.365 1.027-.55 1.767-.55.674 0 1.226.194 1.658.58.428.385.643.882.643 1.49v4.114c0 .682-.21 1.215-.63 1.604-.426.388-1.006.582-1.745.582-.712 0-1.282-.2-1.71-.6-.426-.4-.64-.94-.64-1.617V7.655h.002zm1.673 4.28c0 .218.06.386.174.506.114.12.28.18.496.18.22 0 .396-.06.525-.18.13-.12.195-.29.195-.5V7.6c0-.175-.066-.315-.198-.423-.133-.107-.307-.16-.522-.16-.198 0-.36.053-.484.16-.123.108-.186.248-.186.422v4.34-.005zm9.014-6.102V13.8h-1.63v-.88c-.296.323-.608.572-.936.74-.33.17-.64.255-.95.255-.38 0-.66-.12-.85-.356-.19-.24-.284-.6-.284-1.07V5.83h1.623v6.11c0 .19.037.324.105.41.064.083.177.126.33.126.117 0 .27-.057.453-.168.183-.113.35-.256.5-.43V5.832h1.64z"/><path fill="#FFF" d="M10.524 19.154h-5v1.424H7.21v8.378h1.63v-8.378h1.685v-1.424zm3.32 8.064c-.138.155-.286.285-.45.386-.162.104-.298.153-.402.153-.136 0-.234-.038-.297-.116-.06-.068-.09-.19-.09-.362v-5.55H11.16v6.05c0 .43.086.75.254.97.17.217.42.32.756.32.27 0 .55-.073.84-.228.29-.153.565-.375.834-.67v.795h1.445V21.73h-1.45v5.494l.004-.006zm6.326-5.12c-.24-.307-.59-.462-1.048-.462-.226 0-.446.058-.667.173-.217.11-.424.282-.62.5v-3.154h-1.46v9.802h1.46v-.555c.19.22.397.385.62.488.22.11.47.16.755.16.43 0 .757-.13.98-.41.23-.27.342-.66.342-1.18v-4.01c0-.59-.12-1.04-.362-1.35V22.1zm-1.127 5.166c0 .23-.043.396-.125.497-.084.11-.213.16-.39.16-.124 0-.238-.025-.35-.08-.11-.05-.228-.136-.344-.253V23.08c.1-.1.197-.175.298-.22.1-.05.203-.07.307-.07.193 0 .345.06.45.187.103.125.15.31.15.558v3.733l.003-.004zm6.502-1.75V23.67c0-.688-.177-1.21-.53-1.578-.356-.367-.866-.55-1.528-.55-.646 0-1.172.197-1.582.592-.41.396-.614.91-.614 1.534v3.248c0 .696.19 1.243.56 1.64s.884.597 1.53.597c.72 0 1.262-.186 1.62-.56.367-.376.547-.936.547-1.677v-.37h-1.485v.33c0 .424-.05.698-.146.82-.097.128-.263.19-.503.19-.23 0-.395-.074-.49-.22-.095-.147-.14-.413-.14-.793V25.51h2.763v.004zm-2.766-1.857c0-.304.048-.52.15-.65.1-.133.263-.196.493-.196.22 0 .383.07.48.2.1.13.152.352.152.65v.73h-1.277v-.733z"/></svg>