<?xml version="1.0" encoding="utf-8"?>
<!-- Generator: Adobe Illustrator 14.0.0, SVG Export Plug-In . SVG Version: 6.00 Build 43363)  -->
<!DOCTYPE svg PUBLIC "-//W3C//DTD SVG 1.1//EN" "http://www.w3.org/Graphics/SVG/1.1/DTD/svg11.dtd">
<svg version="1.1" id="Layer_1" xmlns="http://www.w3.org/2000/svg" xmlns:xlink="http://www.w3.org/1999/xlink" x="0px" y="0px"
     width="32px" height="32px" viewBox="0 0 32 32" enable-background="new 0 0 32 32" xml:space="preserve">
<g>
	<circle fill="#FFFFFF" cx="16" cy="16" r="14"/>
	<path fill="#808080" d="M16,2C8.268,2,2,8.268,2,16c0,7.731,6.268,14,14,14s14-6.269,14-14C30,8.268,23.732,2,16,2z M15.314,28.19
		c-0.219-0.012-0.436-0.03-0.652-0.054c0-2.031,0-4.71,0-5.216c0-0.689,0.345-1.196,0.345-1.196s0.308,0.507,0.308,1.196
		C15.314,23.345,15.314,26.12,15.314,28.19z M16.948,28.171c-0.216,0.016-0.435,0.027-0.653,0.032c0-2.056,0-4.97,0-5.5
		c0-0.689,0.343-1.196,0.343-1.196s0.311,0.507,0.311,1.196C16.948,23.142,16.948,26.084,16.948,28.171z M18.579,27.936
		c-0.215,0.046-0.434,0.087-0.652,0.122c0-2.021,0-4.637,0-5.137c0-0.689,0.345-1.196,0.345-1.196s0.308,0.507,0.308,1.196
		C18.579,23.328,18.579,25.899,18.579,27.936z M19.779,27.611v-5.529c0-1.188-0.711-2.209-1.73-2.663h1.569
		c1.385,0,2.619-0.604,3.486-1.553c1.712,0.282,3.502,0.644,4.411,1.039l0.215-0.494c-0.903-0.393-2.582-0.746-4.229-1.026
		c0.027-0.039,0.054-0.077,0.08-0.117c1.579,0.131,3.156,0.324,4.013,0.609l0.171-0.512c-0.86-0.286-2.371-0.482-3.903-0.616
		c0.308-0.627,0.494-1.323,0.494-2.068v-1.442c0-1.289-0.515-2.458-1.351-3.312v-3.4l-2.816,2.009
		C20.001,8.513,19.812,8.5,19.618,8.5h-6.319c-0.191,0-0.383,0.013-0.569,0.036L9.913,6.527v3.4
		c-0.835,0.854-1.351,2.023-1.351,3.312v1.442c0,0.716,0.17,1.388,0.455,1.997c-1.809,0.132-3.755,0.346-4.78,0.687l0.17,0.512
		c1.016-0.339,3.048-0.549,4.895-0.677c0.01,0.016,0.016,0.033,0.026,0.049c-1.887,0.296-4.002,0.704-5.059,1.162l0.215,0.494
		c1.056-0.458,3.296-0.873,5.224-1.168c0.869,1.021,2.147,1.682,3.591,1.682h1.894c-1.019,0.454-1.731,1.475-1.731,2.663v0.02
		c-0.135,0-0.372,0-0.848,0c-1.377,0-2.357-2.372-4.97-2.372c2.141,0.943,2.612,3.569,4.534,3.569c1.035,0,1.09,0,1.283,0v4.646
		C7.938,26.776,3.79,21.873,3.79,16C3.79,9.257,9.257,3.79,16,3.79c6.745,0,12.21,5.467,12.21,12.21
		C28.21,21.425,24.674,26.02,19.779,27.611z"/>
</g>
</svg>
