<?xml version="1.0" encoding="utf-8"?>
<!-- Generator: Adobe Illustrator 14.0.0, SVG Export Plug-In . SVG Version: 6.00 Build 43363)  -->
<!DOCTYPE svg PUBLIC "-//W3C//DTD SVG 1.1//EN" "http://www.w3.org/Graphics/SVG/1.1/DTD/svg11.dtd">
<svg version="1.1" id="Layer_1" xmlns="http://www.w3.org/2000/svg" xmlns:xlink="http://www.w3.org/1999/xlink" x="0px" y="0px"
     width="32px" height="32px" viewBox="0 0 32 32" enable-background="new 0 0 32 32" xml:space="preserve">
<symbol  id="g_x2B_" viewBox="-13.568 -14 27.136 28">
	<g>
		<g>
			<path fill="#CF3E2B" d="M4.62,14.001h-8.583c-5.268,0-7.764-3.078-7.764-6.587c0-3.793,2.547-6.342,6.337-6.342
				c0.15,0,0.307,0.004,0.481,0.011C-5.038,0.358-5.007-0.12-4.886-0.79c0.057-0.317,0.401-0.945,0.885-1.446
				c-0.089-0.001-0.492,0-0.583-0.001C-4.83-2.241-5.079-2.245-5.341-2.245c-4.922,0-8.228-3.396-8.228-6.568
				c0-3.006,3.103-5.187,8.266-5.187c4.977,0,9.268,3.757,9.268,6.673c0,2.399-1.098,4.139-2.962,5.479
				C-0.862-0.508-1.32-0.119-1.32,0.51c0,0.828,0.204,1.229,1.564,2.289c1.62,1.268,2.477,2.823,2.477,4.5
				c0,1.867-0.405,3.699-2.678,5.289h2.896L4.62,14.001z M1.337-7.996c0-2.724-2.015-3.978-6.103-3.978
				c-3.174,0-5.632,1.737-5.632,4.144c0,2.295,2.493,4.192,5.826,4.192C-1.748-3.638,1.337-6.12,1.337-7.996z M-1.914,3.021
				C-2.488,2.479-3.25,2.239-4.112,2.322l-0.111,0.013C-6.526,2.627-8.332,4.984-8.43,7.817c-0.058,1.64,0.438,3.079,1.362,3.945
				c0.639,0.601,1.425,0.874,2.275,0.792l0.093-0.011c2.147-0.274,3.848-2.778,3.952-5.828C-0.691,5.093-1.105,3.779-1.914,3.021z"
				/>
			<polygon fill="#CF3E2B" points="10.316,2.354 10.316,5.604 8.446,5.604 8.446,2.354 5.196,2.354 5.196,0.484 8.447,0.484 
				8.447,-2.767 10.316,-2.767 10.316,0.484 13.567,0.484 13.567,2.354 			"/>
		</g>
	</g>
</symbol>
<use xlink:href="#g_x2B_"  width="27.136" height="28" x="-13.568" y="-14" transform="matrix(1 0 0 -1 16 16)" overflow="visible"/>
</svg>
