<?xml version="1.0" encoding="utf-8"?>
<!-- Generator: Adobe Illustrator 14.0.0, SVG Export Plug-In . SVG Version: 6.00 Build 43363)  -->
<!DOCTYPE svg PUBLIC "-//W3C//DTD SVG 1.1//EN" "http://www.w3.org/Graphics/SVG/1.1/DTD/svg11.dtd">
<svg version="1.1" id="Layer_1" xmlns="http://www.w3.org/2000/svg" xmlns:xlink="http://www.w3.org/1999/xlink" x="0px" y="0px"
     width="32px" height="32px" viewBox="0 0 32 32" enable-background="new 0 0 32 32" xml:space="preserve">
<symbol  id="_x5F_button_x5F_base" viewBox="-16.001 -16 32 32">
	<g id="button_x5F_base_3_">
		<g id="button_6_">
			<g>
				
					<use xlink:href="#_x5F_button_x5F_shape"  width="32" height="32" x="-16" y="-16" transform="matrix(1 0 0 1 -9.765625e-004 0)" overflow="visible"/>
			</g>
			<g>
				<g>
					<g>
						<g>
							<path fill="#999999" d="M15.999-12c0-2.209-1.791-4-4-4h-24c-2.209,0-4,1.791-4,4v24c0,2.209,1.791,4,4,4h24
								c2.209,0,4-1.791,4-4V-12z"/>
						</g>
					</g>
				</g>
			</g>
		</g>
	</g>
	<g id="button_3_">
		<g>
			
				<use xlink:href="#_x5F_button_x5F_shape"  width="32" height="32" x="-16" y="-16" transform="matrix(0.9375 0 0 0.9375 -9.765625e-004 0)" overflow="visible"/>
		</g>
		<g>
			<g>
				<g>
					<g>
						<g>
							<path fill="#F2F2F2" d="M14.999-11.25c0-2.071-1.679-3.75-3.75-3.75h-22.5c-2.071,0-3.75,1.679-3.75,3.75v22.5
								c0,2.071,1.679,3.75,3.75,3.75h22.5c2.071,0,3.75-1.679,3.75-3.75V-11.25z"/>
						</g>
					</g>
				</g>
			</g>
		</g>
	</g>
</symbol>
<symbol  id="_x5F_button_x5F_shape" viewBox="-16 -16 32 32">
	<g id="button_x5F_shape_2_">
		<g>
			<g opacity="0">
				<path fill="#FFFFFF" d="M16-12c0-2.209-1.791-4-4-4h-24c-2.209,0-4,1.791-4,4v24c0,2.209,1.791,4,4,4h24c2.209,0,4-1.791,4-4
					V-12z"/>
			</g>
		</g>
	</g>
</symbol>
<g>
	<g id="button_x5F_base_1_">
		<g id="button_2_">
			<g>
				<g>
					<g id="button_x5F_shape_1_">
						<g opacity="0">
							<g>
								<path fill="#FFFFFF" d="M32,28c0,2.209-1.791,4-4,4H4c-2.209,0-4-1.791-4-4V4c0-2.209,1.791-4,4-4h24c2.209,0,4,1.791,4,4
									V28z"/>
							</g>
						</g>
					</g>
				</g>
			</g>
			<g>
				<g>
					<g>
						<path fill="#999999" d="M32,28c0,2.209-1.791,4-4,4H4c-2.209,0-4-1.791-4-4V4c0-2.209,1.791-4,4-4h24c2.209,0,4,1.791,4,4V28z
							"/>
					</g>
				</g>
			</g>
		</g>
	</g>
	<g id="button_1_">
		<g>
			<g>
				<g>
					<g>
						<g opacity="0">
							<g>
								<path fill="#FFFFFF" d="M31,27.25c0,2.071-1.679,3.75-3.75,3.75H4.75C2.679,31,1,29.321,1,27.25V4.75
									C1,2.679,2.679,1,4.75,1h22.5C29.321,1,31,2.679,31,4.75V27.25z"/>
							</g>
						</g>
					</g>
				</g>
			</g>
		</g>
		<g>
			<g>
				<g>
					<path fill="#F2F2F2" d="M31,27.25c0,2.071-1.679,3.75-3.75,3.75H4.75C2.679,31,1,29.321,1,27.25V4.75C1,2.679,2.679,1,4.75,1
						h22.5C29.321,1,31,2.679,31,4.75V27.25z"/>
				</g>
			</g>
		</g>
	</g>
</g>
<g>
	<g>
		<g>
			<g id="button_x5F_base_2_">
				<g id="button_5_">
					<g>
						<g>
							<g id="button_x5F_shape_3_">
								<g opacity="0">
									<path fill="#FFFFFF" d="M32,28c0,2.209-1.791,4-4,4H4c-2.209,0-4-1.791-4-4V4c0-2.209,1.791-4,4-4h24c2.209,0,4,1.791,4,4
										V28z"/>
								</g>
							</g>
						</g>
					</g>
					<g>
						<g>
							<path fill="#999999" d="M32,28c0,2.209-1.791,4-4,4H4c-2.209,0-4-1.791-4-4V4c0-2.209,1.791-4,4-4h24c2.209,0,4,1.791,4,4V28
								z"/>
						</g>
					</g>
				</g>
			</g>
			<g id="button_4_">
				<g>
					<g>
						<g>
							<g>
								<g opacity="0">
									<path fill="#FFFFFF" d="M31,27.25c0,2.071-1.679,3.75-3.75,3.75H4.75C2.679,31,1,29.321,1,27.25V4.75
										C1,2.679,2.679,1,4.75,1h22.5C29.321,1,31,2.679,31,4.75V27.25z"/>
								</g>
							</g>
						</g>
					</g>
				</g>
				<g>
					<g>
						<path fill="#F2F2F2" d="M31,27.25c0,2.071-1.679,3.75-3.75,3.75H4.75C2.679,31,1,29.321,1,27.25V4.75C1,2.679,2.679,1,4.75,1
							h22.5C29.321,1,31,2.679,31,4.75V27.25z"/>
					</g>
				</g>
			</g>
		</g>
		<g>
			<g>
				<g>
					<g>
						<g>
							<path d="M32,28c0,2.209-1.791,4-4,4H4c-2.209,0-4-1.791-4-4V4c0-2.209,1.791-4,4-4h24c2.209,0,4,1.791,4,4V28z"/>
						</g>
					</g>
				</g>
				<g>
					<g>
						<g>
							<path d="M32,28c0,2.209-1.791,4-4,4H4c-2.209,0-4-1.791-4-4V4c0-2.209,1.791-4,4-4h24c2.209,0,4,1.791,4,4V28z"/>
						</g>
					</g>
				</g>
			</g>
			<g>
				<g>
					<g>
						<g>
							<path d="M31,27.25c0,2.071-1.679,3.75-3.75,3.75H4.75C2.679,31,1,29.321,1,27.25V4.75C1,2.679,2.679,1,4.75,1h22.5
								C29.321,1,31,2.679,31,4.75V27.25z"/>
						</g>
					</g>
				</g>
				<g>
					<g>
						<g>
							<path d="M31,27.25c0,2.071-1.679,3.75-3.75,3.75H4.75C2.679,31,1,29.321,1,27.25V4.75C1,2.679,2.679,1,4.75,1h22.5
								C29.321,1,31,2.679,31,4.75V27.25z"/>
						</g>
					</g>
				</g>
			</g>
		</g>
	</g>
	<g>
		<g>
			<g>
				<g>
					<path fill="#FDA600" d="M12.168,15.741c0-1.694-1.33-2.039-2.642-2.039c-1.199,0-2.585,1.149-2.585,1.149v-4.423H2.002v1.723
						h0.862v7.065H2.002v2.354h5.227v-2.354H6.77c0,0,0-1.207,0-2.126c0-0.918,1.867-2.153,1.867-0.546
						c0,0.92,0.028,2.672,0.028,2.672H8.148v2.354h4.939v-2.354h-0.919C12.168,19.217,12.168,16.89,12.168,15.741z"/>
				</g>
			</g>
			<g>
				<g>
					<rect x="15.097" y="10.486" fill="#FDA600" width="3.332" height="2.297"/>
				</g>
			</g>
			<g>
				<g>
					<polygon fill="#FDA600" points="18.343,19.273 18.343,13.702 13.489,13.702 13.489,16 14.38,16 14.38,19.273 13.489,19.273 
						13.489,21.571 19.061,21.571 19.061,19.273 					"/>
				</g>
			</g>
		</g>
		<g>
			<g>
				<path fill="#FFFFFF" d="M29.055,10.429h-7.927l-0.976,4.914l3.087,0.628c0,0,0.422-0.59,1.019-0.574
					c0.526,0.015,1.121,0.395,1.121,1.651c0,1.12-0.563,1.953-1.58,1.953c-1.378,0-0.861-0.861-0.861-1.637
					c0-1.092-0.862-1.191-1.916-0.962c-0.851,0.186-1.458,0.888-1.458,1.737c0,1.607,1.968,3.432,4.838,3.432
					c2.873,0,5.601-1.536,5.601-4.466c0-2.541-1.767-3.761-3.719-3.791c-1.306-0.02-2.096,0.23-2.714,0.646
					c0.096-0.325,0.149-0.599,0.201-1.178c0.746,0,5.227,0,5.227,0L29.055,10.429z"/>
			</g>
		</g>
	</g>
</g>
</svg>
