<?xml version="1.0" encoding="utf-8"?>
<!-- Generator: Adobe Illustrator 14.0.0, SVG Export Plug-In . SVG Version: 6.00 Build 43363)  -->
<!DOCTYPE svg PUBLIC "-//W3C//DTD SVG 1.1//EN" "http://www.w3.org/Graphics/SVG/1.1/DTD/svg11.dtd">
<svg version="1.1" id="Layer_1" xmlns="http://www.w3.org/2000/svg" xmlns:xlink="http://www.w3.org/1999/xlink" x="0px" y="0px"
     width="32px" height="32px" viewBox="0 0 32 32" enable-background="new 0 0 32 32" xml:space="preserve">
<path fill="#2AA9E0" d="M30,7.316c-1.03,0.457-2.137,0.766-3.299,0.905c1.186-0.711,2.097-1.837,2.525-3.178
	c-1.11,0.658-2.34,1.136-3.648,1.394c-1.048-1.117-2.54-1.814-4.193-1.814c-3.172,0-5.744,2.572-5.744,5.744
	c0,0.45,0.051,0.889,0.148,1.309c-4.774-0.239-9.007-2.526-11.84-6.002C3.455,6.522,3.171,7.509,3.171,8.562
	c0,1.993,1.014,3.751,2.556,4.781c-0.941-0.03-1.828-0.288-2.602-0.718c0,0.024,0,0.048,0,0.072c0,2.783,1.98,5.105,4.608,5.633
	c-0.482,0.131-0.99,0.201-1.514,0.201c-0.37,0-0.73-0.036-1.081-0.104c0.731,2.283,2.852,3.943,5.366,3.989
	c-1.966,1.542-4.443,2.46-7.135,2.46c-0.463,0-0.921-0.027-1.37-0.08c2.542,1.63,5.562,2.58,8.806,2.58
	c10.566,0,16.345-8.753,16.345-16.344c0-0.249-0.006-0.497-0.017-0.743C28.256,9.48,29.23,8.468,30,7.316z"/>
</svg>
