<?xml version="1.0" encoding="utf-8"?>
<!-- Generator: Adobe Illustrator 14.0.0, SVG Export Plug-In . SVG Version: 6.00 Build 43363)  -->
<!DOCTYPE svg PUBLIC "-//W3C//DTD SVG 1.1//EN" "http://www.w3.org/Graphics/SVG/1.1/DTD/svg11.dtd">
<svg version="1.1" id="Layer_1" xmlns="http://www.w3.org/2000/svg" xmlns:xlink="http://www.w3.org/1999/xlink" x="0px" y="0px"
     width="32px" height="32px" viewBox="0 0 32 32" enable-background="new 0 0 32 32" xml:space="preserve">
<symbol  id="_x5F_button_x5F_base" viewBox="-16.001 -16 32 32">
	<g id="button_x5F_base_3_">
		<g id="button_6_">
			<g>
				
					<use xlink:href="#_x5F_button_x5F_shape"  width="32" height="32" x="-16" y="-16" transform="matrix(1 0 0 1 -9.765625e-004 0)" overflow="visible"/>
			</g>
			<g>
				<g>
					<g>
						<g>
							<path fill="#999999" d="M15.999-12c0-2.209-1.791-4-4-4h-24c-2.209,0-4,1.791-4,4v24c0,2.209,1.791,4,4,4h24
								c2.209,0,4-1.791,4-4V-12z"/>
						</g>
					</g>
				</g>
			</g>
		</g>
	</g>
	<g id="button_3_">
		<g>
			
				<use xlink:href="#_x5F_button_x5F_shape"  width="32" height="32" x="-16" y="-16" transform="matrix(0.9375 0 0 0.9375 -9.765625e-004 0)" overflow="visible"/>
		</g>
		<g>
			<g>
				<g>
					<g>
						<g>
							<path fill="#F2F2F2" d="M14.999-11.25c0-2.071-1.679-3.75-3.75-3.75h-22.5c-2.071,0-3.75,1.679-3.75,3.75v22.5
								c0,2.071,1.679,3.75,3.75,3.75h22.5c2.071,0,3.75-1.679,3.75-3.75V-11.25z"/>
						</g>
					</g>
				</g>
			</g>
		</g>
	</g>
</symbol>
<symbol  id="_x5F_button_x5F_shape" viewBox="-16 -16 32 32">
	<g id="button_x5F_shape_2_">
		<g>
			<g opacity="0">
				<path fill="#FFFFFF" d="M16-12c0-2.209-1.791-4-4-4h-24c-2.209,0-4,1.791-4,4v24c0,2.209,1.791,4,4,4h24c2.209,0,4-1.791,4-4
					V-12z"/>
			</g>
		</g>
	</g>
</symbol>
<g id="XMLID_15_">
	<g>
		<g>
			<g>
				<g>
					<path fill="#9CACB4" d="M26.668,0.25c2.803,0,5.083,2.281,5.083,5.084v21.332c0,2.804-2.28,5.085-5.083,5.085H5.335
						c-2.804,0-5.084-2.281-5.084-5.085V5.334c0-2.803,2.28-5.084,5.084-5.084H26.668 M26.668,0H5.335
						c-2.934,0-5.334,2.4-5.334,5.334v21.332c0,2.937,2.4,5.335,5.334,5.335h21.333c2.934,0,5.333-2.398,5.333-5.335V5.334
						C32.001,2.401,29.602,0,26.668,0L26.668,0z"/>
				</g>
			</g>
		</g>
		<g>
			<g>
				<g id="button_x5F_base_2_">
					<g id="button_5_">
						<g>
							<g>
								<g id="button_x5F_shape_3_">
									<g opacity="0">
										<g>
											<path fill="#FFFFFF" d="M31.999,28c0,2.21-1.791,4-4,4h-24c-2.209,0-4-1.79-4-4V4c0-2.209,1.791-4,4-4h24
												c2.209,0,4,1.791,4,4V28z"/>
										</g>
									</g>
								</g>
							</g>
						</g>
						<g>
							<g>
								<g>
									<path fill="#999999" d="M31.999,28c0,2.21-1.791,4-4,4h-24c-2.209,0-4-1.79-4-4V4c0-2.209,1.791-4,4-4h24
										c2.209,0,4,1.791,4,4V28z"/>
								</g>
							</g>
						</g>
					</g>
				</g>
				<g id="button_4_">
					<g>
						<g>
							<g>
								<g>
									<g opacity="0">
										<g>
											<path fill="#FFFFFF" d="M30.999,27.25c0,2.071-1.679,3.75-3.75,3.75h-22.5c-2.071,0-3.75-1.679-3.75-3.75V4.75
												C0.999,2.68,2.678,1,4.749,1h22.5c2.071,0,3.75,1.679,3.75,3.75V27.25z"/>
										</g>
									</g>
								</g>
							</g>
						</g>
					</g>
					<g>
						<g>
							<g>
								<path fill="#F2F2F2" d="M30.999,27.25c0,2.071-1.679,3.75-3.75,3.75h-22.5c-2.071,0-3.75-1.679-3.75-3.75V4.75
									C0.999,2.68,2.678,1,4.749,1h22.5c2.071,0,3.75,1.679,3.75,3.75V27.25z"/>
							</g>
						</g>
					</g>
				</g>
			</g>
			<g>
				<g>
					<g>
						<g>
							<g>
								<path fill="#FFFFFF" d="M31.999,28c0,2.21-1.791,4-4,4h-24c-2.209,0-4-1.79-4-4V4c0-2.209,1.791-4,4-4h24
									c2.209,0,4,1.791,4,4V28z"/>
							</g>
						</g>
					</g>
					<g>
						<g>
							<g>
								<path fill="#FFFFFF" d="M31.999,28c0,2.21-1.791,4-4,4h-24c-2.209,0-4-1.79-4-4V4c0-2.209,1.791-4,4-4h24
									c2.209,0,4,1.791,4,4V28z"/>
							</g>
						</g>
					</g>
				</g>
				<g>
					<g>
						<g>
							<g>
								<path fill="#FFFFFF" d="M30.999,27.25c0,2.071-1.679,3.75-3.75,3.75h-22.5c-2.071,0-3.75-1.679-3.75-3.75V4.75
									C0.999,2.68,2.678,1,4.749,1h22.5c2.071,0,3.75,1.679,3.75,3.75V27.25z"/>
							</g>
						</g>
					</g>
					<g>
						<g>
							<g>
								<path fill="#FFFFFF" d="M30.999,27.25c0,2.071-1.679,3.75-3.75,3.75h-22.5c-2.071,0-3.75-1.679-3.75-3.75V4.75
									C0.999,2.68,2.678,1,4.749,1h22.5c2.071,0,3.75,1.679,3.75,3.75V27.25z"/>
							</g>
						</g>
					</g>
				</g>
			</g>
		</g>
	</g>
	<g>
		<defs>
			<path id="SVGID_1_" d="M27.001,16h-22c-2.75,0-5,2.25-5,5v5.665c0,2.937,2.4,5.335,5.334,5.335h21.333
				c2.934,0,5.333-2.398,5.333-5.335v-5.665C32.001,18.251,29.751,16,27.001,16z"/>
		</defs>
		<clipPath id="SVGID_2_">
			<use xlink:href="#SVGID_1_"  overflow="visible"/>
		</clipPath>
		<g clip-path="url(#SVGID_2_)">
			<g>
				<g id="button_x5F_base_1_">
					<g id="button_2_">
						<g>
							<g>
								<g id="button_x5F_shape_1_">
									<g opacity="0">
										<g>
											<path fill="#FFFFFF" d="M31.999,28c0,2.209-1.791,4-4,4h-24c-2.209,0-4-1.791-4-4V4c0-2.209,1.791-4,4-4h24
												c2.209,0,4,1.791,4,4V28z"/>
										</g>
									</g>
								</g>
							</g>
						</g>
						<g>
							<g>
								<g>
									<path fill="#999999" d="M31.999,28c0,2.209-1.791,4-4,4h-24c-2.209,0-4-1.791-4-4V4c0-2.209,1.791-4,4-4h24
										c2.209,0,4,1.791,4,4V28z"/>
								</g>
							</g>
						</g>
					</g>
				</g>
				<g id="button_1_">
					<g>
						<g>
							<g>
								<g>
									<g opacity="0">
										<g>
											<path fill="#FFFFFF" d="M30.999,27.25c0,2.07-1.679,3.75-3.75,3.75h-22.5c-2.071,0-3.75-1.68-3.75-3.75V4.75
												C0.999,2.679,2.678,1,4.749,1h22.5c2.071,0,3.75,1.679,3.75,3.75V27.25z"/>
										</g>
									</g>
								</g>
							</g>
						</g>
					</g>
					<g>
						<g>
							<g>
								<path fill="#F2F2F2" d="M30.999,27.25c0,2.07-1.679,3.75-3.75,3.75h-22.5c-2.071,0-3.75-1.68-3.75-3.75V4.75
									C0.999,2.679,2.678,1,4.749,1h22.5c2.071,0,3.75,1.679,3.75,3.75V27.25z"/>
							</g>
						</g>
					</g>
				</g>
			</g>
			<g>
				<g>
					<g>
						<g>
							<g>
								<path fill="#EE3E3A" d="M31.999,28c0,2.209-1.791,4-4,4h-24c-2.209,0-4-1.791-4-4V4c0-2.209,1.791-4,4-4h24
									c2.209,0,4,1.791,4,4V28z"/>
							</g>
						</g>
					</g>
					<g>
						<g>
							<g>
								<path fill="#EE3E3A" d="M31.999,28c0,2.209-1.791,4-4,4h-24c-2.209,0-4-1.791-4-4V4c0-2.209,1.791-4,4-4h24
									c2.209,0,4,1.791,4,4V28z"/>
							</g>
						</g>
					</g>
				</g>
				<g>
					<g>
						<g>
							<g>
								<path fill="#EE3E3A" d="M30.999,27.25c0,2.07-1.679,3.75-3.75,3.75h-22.5c-2.071,0-3.75-1.68-3.75-3.75V4.75
									C0.999,2.679,2.678,1,4.749,1h22.5c2.071,0,3.75,1.679,3.75,3.75V27.25z"/>
							</g>
						</g>
					</g>
					<g>
						<g>
							<g>
								<path fill="#EE3E3A" d="M30.999,27.25c0,2.07-1.679,3.75-3.75,3.75h-22.5c-2.071,0-3.75-1.68-3.75-3.75V4.75
									C0.999,2.679,2.678,1,4.749,1h22.5c2.071,0,3.75,1.679,3.75,3.75V27.25z"/>
							</g>
						</g>
					</g>
				</g>
			</g>
		</g>
	</g>
	<g>
		<g>
			<polygon fill="#333333" points="6.907,3 8.753,3 9.942,7.317 10.058,7.317 11.191,3 13.054,3 10.921,9.319 10.921,13.799 
				9.089,13.799 9.089,9.521 			"/>
		</g>
		<g>
			<path fill="#333333" d="M13.186,7.655c0-0.618,0.219-1.109,0.657-1.475c0.438-0.365,1.027-0.549,1.767-0.549
				c0.674,0,1.226,0.193,1.657,0.579c0.428,0.385,0.643,0.882,0.643,1.489v4.115c0,0.682-0.211,1.215-0.631,1.604
				C16.854,13.806,16.274,14,15.535,14c-0.712,0-1.282-0.201-1.709-0.601c-0.427-0.4-0.641-0.939-0.641-1.616V7.655z M14.86,11.934
				c0,0.219,0.059,0.387,0.174,0.507s0.281,0.18,0.496,0.18c0.221,0,0.396-0.062,0.525-0.183c0.131-0.123,0.195-0.291,0.195-0.504
				v-4.34c0-0.174-0.066-0.314-0.198-0.422c-0.133-0.107-0.307-0.16-0.522-0.16c-0.198,0-0.359,0.053-0.484,0.16
				C14.923,7.28,14.86,7.42,14.86,7.594V11.934z"/>
		</g>
		<g>
			<path fill="#333333" d="M23.874,5.833v7.967h-1.629v-0.88c-0.297,0.323-0.609,0.572-0.936,0.741
				c-0.324,0.169-0.639,0.254-0.943,0.254c-0.379,0-0.66-0.119-0.852-0.356c-0.189-0.237-0.285-0.593-0.285-1.067V5.833h1.625v6.107
				c0,0.189,0.037,0.325,0.105,0.409c0.066,0.085,0.178,0.128,0.33,0.128c0.119,0,0.271-0.057,0.455-0.168
				c0.182-0.112,0.35-0.255,0.5-0.43V5.833H23.874z"/>
		</g>
	</g>
	<g>
		<g>
			<path fill="#FFFFFF" d="M10.524,19.154h-5v1.424H7.21v8.378h1.629v-8.378h1.686V19.154z"/>
		</g>
		<g>
			<path fill="#FFFFFF" d="M13.843,27.218c-0.137,0.155-0.285,0.285-0.449,0.386c-0.162,0.103-0.298,0.153-0.402,0.153
				c-0.136,0-0.234-0.038-0.297-0.116c-0.059-0.075-0.09-0.198-0.09-0.369v-5.549h-1.445v6.049c0,0.431,0.086,0.751,0.254,0.968
				c0.171,0.217,0.42,0.322,0.756,0.322c0.271,0,0.551-0.075,0.839-0.23c0.29-0.153,0.566-0.375,0.835-0.67v0.795h1.445v-7.233
				h-1.445V27.218z"/>
		</g>
		<g>
			<path fill="#FFFFFF" d="M20.17,22.098c-0.24-0.307-0.59-0.462-1.048-0.462c-0.225,0-0.446,0.057-0.667,0.172
				c-0.217,0.112-0.424,0.284-0.619,0.501v-3.154h-1.461v9.802h1.461v-0.554c0.188,0.221,0.396,0.384,0.618,0.488
				c0.22,0.107,0.472,0.157,0.756,0.157c0.428,0,0.757-0.135,0.982-0.408c0.227-0.272,0.34-0.667,0.34-1.179v-4.014
				C20.532,22.856,20.412,22.405,20.17,22.098z M19.043,27.264c0,0.231-0.043,0.396-0.125,0.497
				c-0.084,0.104-0.213,0.154-0.391,0.154c-0.122,0-0.237-0.026-0.349-0.079c-0.111-0.051-0.227-0.138-0.343-0.255v-4.506
				c0.099-0.1,0.197-0.174,0.298-0.221c0.101-0.049,0.203-0.069,0.307-0.069c0.194,0,0.345,0.061,0.45,0.188
				c0.103,0.125,0.152,0.311,0.152,0.557V27.264z"/>
		</g>
		<g>
			<path fill="#FFFFFF" d="M25.545,25.513v-1.844c0-0.685-0.177-1.21-0.532-1.576s-0.864-0.549-1.526-0.549
				c-0.647,0-1.173,0.196-1.582,0.591c-0.409,0.396-0.615,0.909-0.615,1.534v3.249c0,0.696,0.188,1.243,0.56,1.64
				c0.371,0.398,0.882,0.596,1.529,0.596c0.721,0,1.262-0.185,1.622-0.56c0.365-0.375,0.545-0.935,0.545-1.676v-0.371h-1.487v0.33
				c0,0.425-0.05,0.699-0.144,0.822c-0.096,0.127-0.263,0.189-0.503,0.189c-0.23,0-0.394-0.073-0.49-0.22
				c-0.095-0.147-0.141-0.412-0.141-0.792v-1.364H25.545z M22.78,23.657c0-0.303,0.048-0.521,0.149-0.649
				c0.101-0.134,0.265-0.197,0.495-0.197c0.22,0,0.383,0.063,0.48,0.197c0.101,0.128,0.152,0.347,0.152,0.649v0.73H22.78V23.657z"/>
		</g>
	</g>
</g>
</svg>
