<svg xmlns="http://www.w3.org/2000/svg" width="32" height="32"><path d="m19.832 4.361 1.204-1.938a.279.279 0 0 0-.474-.292l-1.243 1.995a8.613 8.613 0 0 0-3.321-.659 8.58 8.58 0 0 0-3.323.661l-1.242-1.995a.28.28 0 0 0-.383-.092.279.279 0 0 0-.09.383l1.206 1.938C9.969 5.47 8.48 7.5 8.41 9.836h15.176c-.069-2.336-1.558-4.366-3.754-5.475zm-7.06 3.366zm6.453 0a.886.886 0 1 1 0-1.772.886.886 0 1 1 0 1.772zm-13.54 3.327v.005c-.837 0-1.518.677-1.518 1.517v6.957c0 .84.681 1.516 1.518 1.516.84 0 1.519-.679 1.519-1.519v-6.956a1.52 1.52 0 0 0-1.519-1.52zm20.628 0v.005c-.841 0-1.519.677-1.519 1.517v6.957a1.52 1.52 0 0 0 3.038-.003v-6.956a1.52 1.52 0 0 0-1.519-1.52zM8.406 22.955h.002c0 .812.639 1.477 1.44 1.515h1.506v3.989a1.518 1.518 0 1 0 3.037 0V24.47h3.21v4.008c0 .841.683 1.52 1.521 1.52.837 0 1.516-.679 1.516-1.518v-4.008h1.438c.837 0 1.516-.676 1.516-1.515V11.059H8.406v11.896z" fill="#98CB02"/></svg>