<svg xmlns="http://www.w3.org/2000/svg" width="72" height="72" viewBox="0 0 72 72"><path fill="#fff" d="M72 72H0V0h72v72z"/><path fill="#ccc" d="M72.5 72.5h-73v-73h73v73zm-72-1h71V.5H.5v71z"/><path fill="#B3B3B3" d="M11.165 68.344c-.828.438-1.858.656-3.095.656-1.594 0-2.87-.514-3.827-1.54s-1.438-2.37-1.438-4.038c0-1.792.54-3.24 1.617-4.344 1.078-1.105 2.445-1.656 4.102-1.656 1.063 0 1.942.153 2.643.46v1.4c-.802-.45-1.688-.673-2.656-.673-1.284 0-2.33.43-3.13 1.278-.8.86-1.195 2.01-1.195 3.44 0 1.36.373 2.448 1.12 3.26.746.81 1.728 1.216 2.94 1.216 1.125 0 2.1-.25 2.922-.75v1.27l-.002.02zm10.62-3.21h-5.648c.02.892.26 1.577.72 2.063.456.482 1.087.727 1.89.727.9 0 1.73-.297 2.484-.89v1.202c-.7.51-1.628.764-2.79.764-1.13 0-2.02-.363-2.66-1.09-.64-.73-.97-1.75-.97-3.066 0-1.244.36-2.26 1.06-3.043.7-.782 1.59-1.17 2.63-1.17s1.86.34 2.432 1.022c.58.68.86 1.62.86 2.818v.68l-.007-.016zm-1.312-1.087c-.006-.74-.185-1.313-.535-1.727-.352-.412-.84-.617-1.465-.617-.604 0-1.117.216-1.54.646-.42.433-.683.995-.78 1.693l4.32.004zm6.61 4.766h-1.28V56.968h1.28v11.845zm5.955 0h-1.28V56.968h1.28v11.845zm11.144 0H42.9v-1.267h-.03c-.532.97-1.354 1.453-2.47 1.453-1.906 0-2.86-1.14-2.86-3.41v-4.78h1.272v4.57c0 1.683.646 2.53 1.938 2.53.63 0 1.14-.23 1.55-.69.41-.46.61-1.067.61-1.81V60.8h1.28v8h.005l-.013.013zm5.946 0h-1.28V56.968h1.28v11.845zm10.4 0h-1.28v-1.25h-.032c-.558.958-1.378 1.437-2.46 1.437-.798 0-1.422-.21-1.872-.633-.45-.424-.676-.98-.676-1.68 0-1.496.88-2.364 2.642-2.61l2.397-.335c0-1.36-.55-2.04-1.647-2.04-.965 0-1.834.33-2.608.983v-1.313c.784-.5 1.69-.75 2.72-.75 1.88 0 2.82.995 2.82 2.983v5.205h-.004v.003zm-1.28-4.047l-1.932.27c-.594.082-1.04.228-1.344.437-.304.21-.453.586-.453 1.12 0 .394.14.71.407.958.28.25.65.382 1.11.382.632 0 1.16-.22 1.57-.67.41-.45.618-1.01.618-1.69l.002-.8.02-.006zm9.945-2.657c-.225-.183-.547-.263-.97-.263-.548 0-1.005.262-1.37.77-.367.51-.552 1.22-.552 2.11v4.07h-1.28v-8h1.29v1.643h.03c.188-.563.46-1 .84-1.316.378-.314.798-.473 1.26-.473.337 0 .59.036.77.11v1.33l-.017.02z"/><g opacity=".7"><path fill="#B3B3B3" d="M52.238 20.132c0 8.933-7.268 16.2-16.2 16.2-8.932 0-16.2-7.268-16.2-16.2 0-8.932 7.268-16.2 16.2-16.2 8.933 0 16.2 7.267 16.2 16.2zm-31.104 0c0 8.218 6.686 14.904 14.904 14.904S50.94 28.35 50.94 20.132 44.256 5.228 36.04 5.228c-8.218 0-14.904 6.686-14.904 14.904zM52.238 36.352c0 8.933-7.268 16.2-16.2 16.2-8.932 0-16.2-7.268-16.2-16.2s7.268-16.2 16.2-16.2c8.933 0 16.2 7.267 16.2 16.2zm-31.104 0c0 8.218 6.686 14.904 14.904 14.904S50.94 44.568 50.94 36.352c0-8.218-6.685-14.904-14.902-14.904-8.218 0-14.904 6.685-14.904 14.904zM38.794 28.092c0 8.934-7.268 16.2-16.2 16.2-8.932 0-16.2-7.27-16.2-16.2s7.268-16.2 16.2-16.2c8.932 0 16.2 7.267 16.2 16.2zm-31.104 0c0 8.218 6.686 14.904 14.904 14.904s14.904-6.687 14.904-14.904c0-8.218-6.686-14.904-14.904-14.904S7.69 19.874 7.69 28.092zM65.605 28.092c0 8.934-7.268 16.2-16.2 16.2s-16.2-7.27-16.2-16.2 7.27-16.2 16.2-16.2 16.2 7.267 16.2 16.2zm-31.103 0c0 8.218 6.686 14.904 14.904 14.904S64.31 36.31 64.31 28.092c0-8.218-6.687-14.904-14.904-14.904-8.218 0-14.904 6.686-14.904 14.904z"/></g></svg>