<svg xmlns="http://www.w3.org/2000/svg" width="32" height="32" viewBox="0 0 32 32"><path fill="#37A5E2" d="M31.145 7.216c.662-2.532.46-4.646-.754-5.94-2.177-2.33-7.063-1.345-12.366 1.96-.423-.034-.85-.056-1.28-.056-7.9 0-14.604 5.338-14.604 13.035 1.197-1.896 4.995-7.677 11.392-9.64-4.15 2.808-9.76 10.772-10.96 13.29C.172 24.7-.27 28.91 1.838 30.88c2.26 2.11 6.886 1.13 11.953-2.09.96.165 1.943.25 2.95.25C22.214 29.037 28 25.447 30 19.827h-9.357c-.512 1.538-2.202 2.988-4.092 2.988-2.875 0-4.54-2.087-4.54-4.857H30.6c.047-.48.073-.85.073-1.36 0-6.29-4.043-11.05-9.473-12.74 3.963-2.13 7.252-2.767 8.766-1.147.88.943 1.162 2.586.677 4.508h.5l.002-.004zM12.93 28.62c-4.032 2.37-7.505 3.07-9.194 1.49-1.456-1.36-1.313-4.157.095-7.58.044-.062.086-.142.126-.08 2.1 3.274 5.305 5.34 8.976 6.177v-.006zm-.92-14.8s.18-4.206 4.388-4.206c4.148 0 4.387 4.208 4.387 4.208H12.01z"/></svg>