<svg xmlns="http://www.w3.org/2000/svg" width="32" height="32" viewBox="0 0 32 32"><path fill="#2173BB" d="M31.492 15.74c0 8.37-6.785 15.154-15.155 15.154S1.183 24.11 1.183 15.74 7.967.58 16.337.58c8.37 0 15.155 6.784 15.155 15.153v.007z"/><path opacity=".3" enable-background="new" d="M16.635 22.553c.692-.12 1.703-.338 2.553-.33 0 .37.38.2 1.448.228 1.31-.318-.41 1.24-.458 1.308-.28-.007-2.58.26-2.86.26-.142-.01-.27-.098-.303 0-.775-.11-1.377-.4-2.01-.65.175-.196.46-.36.87-.228.332-.205.152-.485.76-.59v.003z"/><path fill="#E24406" d="M3.764 3.218s-.098 1.847 1.834 3.164l-.96 2.01-2.705.678s.027-4.76 1.83-5.845v-.007z"/><path fill="#F07B14" d="M31.644 11.663s-.16 1.106-.44 1.688c.096 1.03.14 1.71-.007 2.69-.36.534-.717.815-.976 1.037.03-.48.027-.402.335-1.43.272-.92 1.97-7.055-2.42-10.694 0 0 .036.26.02.482 0 0-.443-1.112-2.27-1.952-.117-.055.08.342.143.658.294.274 3.492 3.422 3.62 5.046-.473-.783-1.547-2.874-3.65-4.502-1.6-1.233-2.596-1.66-4.575-2.34 0 0 1.01.62 2.04 1.54 1.18 1.04 2.42 2.51 2.75 3.418 0 0-1.69-1.59-3.05-1.656 0 0 3.575 2.13 3.207 7.952 0 0-.347-1.237-1.23-1.61 0 0 .678 3.367-.14 6.492 0 0-.18-.5-.443-1.14 0 0-.146 1.694-.65 2.86-.84 1.95-2.235 3.398-2.13 1.962-.676.22-1.642 1.58-1.992 1.576.1-.296.135-.295.38-.64 0 0-.773.726-2.83.726-1.17 0-2.21-.267-3.123-.715-.196-.097-.935-.547-1.108-.674-.46-.335-.88-.72-1.256-1.134.417.064.91.095 1.49.065 2.33-.112 4.337-1.826 4.53-1.98.323-.25.71-.103 1.05-.11.336-.01.688-.44.325-.896-.95-1.21-2.32-1.02-2.32-1.02-1.435-.07-2.062 1.06-3.8.79-2.64-.41-3.044-1.983-3.09-2.8.126-1.187.99-1.384 2.046-.527.166-1.25.156-1.585.024-2.195.89-.734 2.268-1.397 2.795-1.777.312-.225 1.334-1.718.362-1.92-1.03-.214-1.297-.008-2.88-.15-.4-.022-.7-.498-1.148-1.04.276-1.154.89-2.51 2.23-3.303 0 0-1.97-.613-4.43 1.837l-.03-.008c-1.63-.38-3.257-.103-3.675.078C4.092 6.874.84 8.527 0 14.488c0 0 .16-.828.795-1.387 0 0-.795 2.674-.5 5.43.047-.445.18-1.01.285-1.425.282 3.18 1.755 7.546 5.79 10.633 1.352 1.03 3.818 2.9 7.108 3.53-.507-.26-.713-.355-1.072-.69.59.253 3.124.815 4.587.833 0 0-.615-.24-.79-.452.324-.01 2.118.12 3.375-.06 1.396-.2 2.755-.324 4.64-1.45.67-.4 1.502-1.14 1.853-1.97 1.026-.95 2.856-1.755 3.756-3.313.56-.972 1.118-2.26.69-3.68 1.17-2.64 1.983-5.054 1.128-8.824v.003zm-8.11 17.308c-.686.418-1.61.418-1.496.316.257-.23.82-.56 1.504-.858.99-.44 1.32-.42 1.5-.47-.25.196-.5.4-1.503 1.008l-.007.005zm5.28-5.045c-.534.36-.89.578-1.213.688.206-.437.79-1.218 1.446-2.065.95-1.223 1.05-1.41 1.244-1.604-.297 1.013-.928 2.035-1.477 2.98zm2.83-12.262s-.16 1.106-.44 1.688c.096 1.03.14 1.71-.007 2.69-.36.534-.717.815-.976 1.037.03-.48.027-.402.335-1.43.272-.92 1.97-7.055-2.42-10.694 0 0 .036.26.02.482 0 0-.443-1.112-2.27-1.952-.117-.055.08.342.143.658.294.274 3.492 3.422 3.62 5.046-.473-.783-1.547-2.874-3.65-4.502-1.6-1.233-2.596-1.66-4.575-2.34 0 0 1.01.62 2.04 1.54 1.18 1.04 2.42 2.51 2.75 3.418 0 0-1.69-1.59-3.05-1.656 0 0 3.575 2.13 3.207 7.952 0 0-.347-1.237-1.23-1.61 0 0 .678 3.367-.14 6.492 0 0-.18-.5-.443-1.14 0 0-.146 1.694-.65 2.86-.84 1.95-2.235 3.398-2.13 1.962-.676.22-1.642 1.58-1.992 1.576.1-.296.135-.295.38-.64 0 0-.773.726-2.83.726-1.17 0-2.21-.267-3.123-.715-.197-.097-1.29-.812-1.378-.88-.354-.283-.683-.597-.986-.93.417.065.91.096 1.49.066 2.33-.112 4.337-1.826 4.53-1.98.323-.25.71-.103 1.05-.11.336-.01.688-.44.325-.896-.95-1.21-2.32-1.02-2.32-1.02-1.435-.073-2.062 1.06-3.8.787-2.64-.408-3.044-1.98-3.09-2.797.126-1.187.99-1.384 2.046-.527.166-1.25.156-1.585.024-2.195.89-.734 2.268-1.397 2.795-1.777.312-.225 1.334-1.718.362-1.92-1.03-.214-1.297-.008-2.88-.15-.4-.022-.7-.498-1.148-1.04.276-1.154.89-2.51 2.23-3.303 0 0-1.97-.613-4.43 1.837l-.03-.008c-1.63-.38-3.257-.103-3.675.078C4.092 6.874.84 8.527 0 14.488c0 0 .16-.828.795-1.387 0 0-.795 2.674-.5 5.43.047-.445.18-1.01.285-1.425.282 3.18 1.755 7.546 5.79 10.633 1.352 1.03 3.818 2.9 7.108 3.53-.507-.26-.713-.355-1.072-.69.59.253 3.124.815 4.587.833 0 0-.615-.24-.79-.452.324-.01 2.118.12 3.375-.06 1.396-.2 2.755-.324 4.64-1.45.67-.4 1.502-1.14 1.853-1.97 1.026-.95 2.856-1.755 3.756-3.313.56-.972 1.118-2.26.69-3.68 1.17-2.64 1.983-5.054 1.128-8.824v.003zm-8.11 17.308c-.686.418-1.61.418-1.496.316.257-.23.82-.56 1.504-.858.99-.44 1.32-.42 1.5-.47-.25.196-.5.4-1.503 1.008l-.007.005zm5.28-5.045c-.534.36-.89.578-1.213.688.206-.437.79-1.218 1.446-2.065.95-1.223 1.05-1.41 1.244-1.604-.297 1.013-.928 2.035-1.477 2.98z"/><path fill="#E24406" d="M31.25 16.057c.117-.226 1.06-2.023.343-4.085-.07.37-.202.99-.39 1.38.08.888.124 1.516.042 2.29.003.15.004.29.004.42v-.005zm-3.1-10.955l.008.11c.122.41.14.755.193 1.266.27.435.55.934.81 1.427.102.17.19.335.26.495.12.23.23.452.33.657.012-.262.08-2.395-1.6-3.955zm-2.296-1.614s0 .003-.002.005c.18.29.276.55.377.85.38.383 1.21 1.232 1.95 2.165-.17-.65-.71-2.076-2.33-3.012l.004-.008zM30.58 21.85c.03-.213.057-.466.068-.69-.02-.194-.057-.392-.11-.592-.02.018-.04.048-.065.093-.072.13-.144.26-.217.4-.31.978-.913 1.96-1.443 2.87-.024.02-.05.034-.076.05.59-.24 1.75-1.466 1.845-2.125l-.002-.005zM12.386 8.778c-.403-.02-.697-.497-1.146-1.038 0 0-.762 1.09-.37 6.202.313-.336.646-.63.96-.968.61-.99 2.13-1.457 3.07-2.13.312-.226 1.334-1.72.362-1.92-1.03-.214-1.292-.008-2.877-.152v.006zm-2.547 9.43c-.196-1.148-.33-3.782 1.042-3.942-.4-.165-2.9-.91-3.15-.674-.427.41-2.14 2.195-2.14 4.697.558-.926 2.85-2.602 4.24-.08h.007z"/><path fill="#fff" d="M10.877 11.548s.723-.748 1.47-.903c.51-.107 1.11.248 1.606.098.625-.188 1.12-.65 1.4-.88l-.058.538c-.127.147-.306.51-1.056.886-.644.322-1.497.707-2.246 1.48 0 0-.725-.556-1.117-1.218z"/><path fill="#F07B14" d="M12.15 12.55c.33.347.21 1.526-.07 2.273-1.12-.747-3.522-.875-5.406-.18l4.58-7.027c-.69 2.896.05 3.932.895 4.934z"/><path fill="#231F20" d="M14.43 8.842s.776-.06 1.063.17c.114.094.54.46-.195 1.39 0 0 .26-.96-.867-1.56z"/><path fill="#E24406" d="M9.928 18.2c-.044.634.95 2.677 1.91 3.1.625.272 2.854.094 3.9-.437 1.144-.578 2-1.334 2.175-1.57-1.1.246-1.51.62-3.9.684-3.19.09-4.08-1.777-4.08-1.777H9.93z"/><path fill="#fff" d="M15.413 17.882c1.448-.196 2.634.73 2.826 1.018-.01-.095-.01-.168-.036-.264.09.017.18.047.49.407.01-.14-.02-.234-.15-.466.278.148.46.55.505.538 0-.257-.034-.48.005-.5.066-.035.228.252.258.146 0 0-.977-2.184-3.894-.88l-.007.002z"/><path fill="#E24406" d="M25.21 27.668c3.137-1.884 3.897-3.597 4.154-4.18 0 0-6.913 5.12-12.19 5.12-4.397 0-7.375-1.68-8.52-2.445-2.323-1.558-3.728-4.364-4.453-6.36-.13 1 .178 1.897.825 3.51-1.38-1.25-2.49-4.88-2.813-6.986-.43 1.897.22 3.982.8 5.375-1.193-1.108-2.16-5.385-2.19-6.757-.23.66-.36 2.14-.42 2.99.056-.292.125-.586.19-.828.28 3.18 1.753 7.546 5.788 10.633 1.352 1.034 3.82 2.9 7.11 3.537-.51-.26-.715-.356-1.074-.692.587.254 3.122.814 4.586.834 0 0-.617-.24-.79-.46.322-.012 2.116.12 3.374-.06 1.396-.2 2.756-.325 4.64-1.45.665-.395 1.49-1.126 1.846-1.95-.313.31-.642.325-1.12.48-.252.194-.406.38-1.41.987-.686.416-1.61.416-1.498.315v-.002c-.25.047-.29-.95 3.175-1.616l-.01.004z"/><path fill="#FEE750" d="M25.574 4.126c-.02-.018-.044-.035-.065-.053.02.018.043.036.064.053zm.147.125L25.66 4.2l.063.053zm.15.13c-.02-.015-.04-.028-.057-.047.02.017.038.032.057.05V4.38zm-.44-.372c-.02-.018-.044-.034-.065-.052l.066.052zm-.283-.22l-.065-.047c.03.01.05.03.07.04l-.005.01zm.14.108c-.02-.018-.044-.035-.064-.05.026.015.05.033.07.05h-.006zm.763.65c-.01-.01-.027-.02-.037-.028l.03.03.007-.003zm3.03 3.61c-.02-.03-.04-.06-.064-.09.02.032.042.06.063.09zm-.455-.636c.025.035.05.07.077.104l-.077-.104zm-.187-.254l.08.105c-.025-.034-.05-.07-.08-.104zm-.182-.243c.028.034.054.066.08.102l-.078-.102h-.002zm-3.252-3.34c-.02-.015-.04-.03-.062-.043.02.015.04.03.062.044zm1.224 1.034c-.02-.02-.04-.04-.06-.057.02.012.04.032.06.05v.007zm.324.32c-.024-.022-.047-.048-.07-.07.023.022.044.046.07.07zm2.265 2.748c.027.033.05.066.077.104-.025-.038-.05-.07-.074-.105h-.003zm-4.1-4.3c-.012-.01-.028-.02-.044-.032.016.018.032.028.05.038l-.005-.004zm-1.013-.574l-.05-.03c.017.01.034.018.05.025v.006zm-.265-.12l-.047-.017c.016.006.032.01.046.018zm.38.17c-.018-.01-.035-.02-.053-.026.018.007.037.017.054.025zm-.485-.21c-.016-.007-.032-.014-.05-.02l.05.02zm.603.266c-.02-.01-.04-.02-.06-.027.02.01.04.016.057.025h.003zm.93.563c-.02-.015-.04-.027-.06-.04.02.012.04.025.057.04h.003zm-.317-.21c-.02-.01-.033-.024-.052-.035l.053.032v.002zm-.126-.08c-.02-.014-.04-.023-.058-.035.02.01.037.02.058.034zM28.08 6.78l.075.097-.074-.098zm-3.78-3.57l-.06-.03.06.03zm-.12-.07l-.06-.03c.02.01.04.018.06.03zm-.12-.064l-.06-.03.056.03h.004zm-.47-.228c-.02-.01-.034-.016-.05-.02.016.005.03.01.047.02h.002zm-1.47-.39c.01 0 .02.003.03.004-.01 0-.02-.004-.033-.005h.003zm.07.007c.012 0 .02.005.035.006l-.036-.006zm-.14-.01c.01 0 .02 0 .032.003l-.03-.003h-.002zm.45.057c.018 0 .027.004.04.006-.013-.002-.022-.005-.04-.006zm-.234-.038c.01 0 .023.002.035.004l-.036-.007.002.003zm.155.02l.036.008-.037-.008zm-.44-.047h.03-.03zm.358.035c.013 0 .025.003.037.004-.012 0-.024-.004-.037-.005zm-.645-.044h-.07.072-.002zm-.27.004h-.02H21.423zm.13 0c.02-.003.04-.003.058-.003-.016 0-.036 0-.054.004h-.002zm.356 0c.012 0 .022 0 .035.003-.012 0-.023 0-.038-.003h.002zm-.08-.002h.028-.03zm-.06 0h.03-.03zm-.058 0h.03-.03zm1.086.132c.015.004.03.007.044.012l-.044-.012zm4.347 3.08c.02.025.045.05.067.075l-.066-.073v-.004zm-.17-.19c.022.026.046.053.07.077-.025-.023-.048-.05-.07-.077zm-.168-.177c.02.022.05.05.07.073-.024-.027-.05-.05-.072-.076l.002.003zM22.62 2.532c.013 0 .025.005.037.007-.01 0-.024-.007-.036-.008zm4.705 3.324c.02.02.037.042.06.063-.02-.022-.04-.045-.06-.064zm.403.475l.06.074-.06-.073zm-1.08-1.217c.02.022.046.05.07.072-.025-.023-.048-.047-.07-.072zm.906 1.007c.003.005.01.01.012.018-.003-.005-.01-.01-.012-.016V6.12zm.35.427c.02.03.046.06.07.09-.024-.03-.05-.06-.07-.09zm-5.195-4c.01.005.023.01.04.01-.017 0-.03-.005-.04-.01zm.18.048l.046.014c-.016-.007-.03-.01-.046-.015zm.19.058c.02.005.033.01.05.017l-.05-.017zm-.097-.03c.015.004.03.01.046.016-.014-.01-.03-.013-.047-.017zm.197.063c.017.005.034.01.05.017-.016-.007-.035-.012-.05-.017zm3.21 2.173c-.02-.024-.04-.045-.064-.066.02.02.044.04.064.063v.002zm3.928 4.158c-.06-.21-.126-.41-.197-.598.05.91-.132 2.06-.76 3.566.296 1.203.53 2.38.76 3.703.66-2.6.73-4.838.2-6.674l-.002.002zm-4.225 4.9l-.187-.42c-.11-.26-.224-.524-.356-.77.113 1.274.17 3.352-.458 5.66.136.64.048 1.287-.03 1.863-.062.457-.134.98 0 1.133.018.02.04.032.067.046.77-1.05 1.192-2.266 1.43-3.298.144-1.64-.005-3.216-.47-4.22l.003.005zm5.57 2.18c-.275.488-.69.962-1.32 1.346-.107.75-.407 2.018-.698 3.245-.06.237-.112.47-.165.695 1.36-1.89 1.9-3.586 2.105-4.76.03-.18.058-.36.077-.528zM29.29 13.39c-.147 1.575-.345 2.685-1.295 5.05.363 1.79-1.112 5.686-1.59 6.63 1.486-1.05 2.463-2.744 2.906-5.037.46-2.366.26-4.857-.02-6.642zM27.015 17c-.025.246-.058.514-.1.79-.19 1.2-.64 2.902-1.71 4.27.526-.382.28-.24.845-.8.56.78-.65 4.278-.628 4.255 1.26-1.595 2.916-5.98 1.59-8.518l.003.002zm-4.324 5.72c.753-.655 1.164-1.05 1.46-1.27s.33.616.343.82c.15-.822.295-1.703.22-2.977-.004-.085-.02-.172-.035-.264-.257 1.097-.967 2.63-1.987 3.69zm5.005-5.068s.405-1.313.525-1.863h.003l.04-.197c.03-.14.057-.274.082-.406-.052-.06-.104-.117-.152-.175l-.01-.014c-.046-.06-.092-.118-.136-.17l-.02-.03c-.04-.054-.08-.105-.12-.16-.008-.015-.016-.03-.025-.04l-.103-.15c-.014-.018-.024-.04-.037-.058-.027-.048-.058-.09-.084-.14-.022-.027-.038-.055-.052-.083-.02-.04-.046-.08-.066-.117l-.058-.114-.044-.09c-.032-.07-.063-.14-.09-.21-.015.063-.025.13-.037.196-.004.018-.008.035-.01.053v.02c-.005.013-.007.026-.01.04 0 .007 0 .015-.002.02-.003.015-.004.027-.005.042 0 .007-.003.015-.006.02 0 .016-.003.03-.005.047 0 .007 0 .015-.003.02 0 .022-.002.04-.003.06-.004.006-.004.01-.005.015l-.006.08v.016c-.005.02-.007.042-.008.063v.023c-.004.02-.006.038-.007.058 0 .01 0 .022-.002.03v.06c0 .01-.004.02-.004.03 0 .02 0 .043-.004.064v.024l-.006.092v.005l-.002.09v.032l-.003.06V15.248c-.004.036-.004.07 0 .106v.321l.003.046v.07c.002.013.002.026.002.04 0 .035.002.07.005.108v.03c.005.026.006.052.007.08v.043l.004.066v.047c0 .02.004.043.004.064.003.017.003.03.004.05 0 .02.002.04.004.063v.047c.003.024.006.05.007.074v.035c.05.156.374.96.416 1.11l.015.01zm-.813-3.46c0-.002.007-.01.007-.014 0-.023.003-.048.006-.07 0-.01 0-.023.003-.037l.005-.05c0-.015.004-.03.007-.043 0-.015 0-.028.003-.042 0-.02.004-.034.006-.054 0-.01.003-.02.005-.028.006-.025.01-.05.01-.074.08-.443.18-.875.564-1.24v.081c0 .005.005.01.005.014v.023c0 .005 0 .01.003.015 0 .013.002.024.005.038v.008l.007.046v.015l.007.033.004.022c.006.013.008.023.01.035 0 .01.004.016.005.024.004.014.008.024.01.038 0 .01.004.02.007.026l.01.04c0 .01.003.02.008.03l.01.044c.004.01.006.02.008.028l.02.07c.003.005.005.01.005.015.007.022.015.048.02.072 0 .01.006.02.01.03.006.017.012.035.022.053.002.014.006.024.01.036.008.02.015.035.02.054.008.013.01.025.017.04.01.02.017.034.022.053.007.014.01.026.018.042.007.017.016.035.022.055.008.014.015.027.02.04l.03.065.018.034.05.097c0 .005.005.01.007.014.016.03.03.066.05.098.007.014.015.025.02.038.015.02.028.044.04.07.01.012.02.026.028.04.013.02.024.044.04.065l.03.047.04.064c.012.02.022.03.032.05.017.022.03.047.048.07l.03.044c.02.022.04.05.06.073l.03.04c.03.038.29.313.29.313.232-.966.328-1.824-.17-3.48l.17.37-.006-.007c-1.034-2.283-2.164-3.93-3.36-4.89-.104-.087-.21-.164-.31-.233.875 1.145 1.74 3.192 1.795 7.328.03.15.065.33.1.53.005-.11.013-.212.02-.31v.005zm2.63-3.525c-.03-1.094-.242-1.582-.55-1.998l-.004-.01-.005-.01c-1.635-2.415-3.223-4.104-4.72-5.02-.345-.21-.664-.367-.954-.482.62.47 1.336 1.1 2.042 1.93.807.942 1.23 1.895 1.7 2.984.312.716.533.89.773 1.292 1.188 1.813 1.2 2.583 1.23 2.71.16-.497.345-.98.487-1.406v.01zm-3.27 14.858c.976-.203 1.11.042.894.354-.263.38-.89 1.103-1.917 1.787 1.93-.83 3.396-2.592 4.152-4.182-.716.578-2.02 1.442-3.13 2.04z"/></svg>