<svg xmlns="http://www.w3.org/2000/svg" width="32" height="32" viewBox="0 0 32 32"><path fill="#fff" d="M32 18.295v-4.59l-4.123-.61c-.3-1.228-.784-2.386-1.426-3.437l2.49-3.35-3.243-3.243-3.347 2.482c-1.055-.64-2.21-1.126-3.438-1.425L18.292 0h-4.587l-.61 4.123c-1.23.3-2.387.784-3.44 1.425L6.31 3.065 3.064 6.31 5.55 9.656c-.643 1.054-1.128 2.21-1.428 3.438L0 13.704v4.59l4.122.61c.3 1.23.785 2.387 1.426 3.438l-2.484 3.35 3.246 3.242 3.346-2.48c1.054.64 2.21 1.125 3.44 1.424l.61 4.122h4.59l.608-4.123c1.23-.3 2.387-.784 3.44-1.426l3.347 2.49 3.25-3.243-2.483-3.35c.643-1.053 1.128-2.21 1.427-3.438l4.12-.61-.004-.005zm-16 1.992c-2.37 0-4.288-1.92-4.288-4.287 0-2.37 1.92-4.288 4.288-4.288s4.287 1.92 4.287 4.288-1.92 4.287-4.287 4.287z"/></svg>