<svg xmlns="http://www.w3.org/2000/svg" width="32" height="32" viewBox="0 0 32 32"><g fill="#777"><path d="M.46 10.797l8.494.01c.022-.834.692-1.832 3.467-2.25v4.527l2.112-.444V8.374c.322-.01.66-.018 1.017-.017 1.108 0 2.055.055 2.87.147v4.136l2.112.444V8.9c1.75.5 2.395 1.263 2.586 1.92l8.207.012c.228-1.164.035-2.82-2.418-3.642-6.393-2.146-23.444-1.592-26.643.078-1.882.98-2.06 2.472-1.89 3.535.026-.003.06-.006.086-.006zM31.547 11.314l-8.795-.01c-.25 0-.45.13-.45.29l-.01 2.12v.002c-.003.16.202.29.454.29l8.793.01c.25.002.454-.13.454-.29L32 11.602c0-.157-.203-.287-.453-.288zM9.7 13.704l.004-2.123c0-.16-.203-.29-.454-.29l-8.793-.01c-.253 0-.457.13-.457.29V13.7v-.004c0 .16.202.29.452.29l8.797.01c.25 0 .45-.13.45-.29zM16.807 13.114c-4.89-.076-12.72 1.492-12.72 6.485.02-.006.044-.007.068-.007v6.618h23.762v-6.587c0-4.403-7.513-6.454-11.11-6.51z"/></g><path fill="#fff" d="M20.435 19.674c0 2.355-1.907 4.263-4.263 4.263-2.35 0-4.26-1.905-4.26-4.263 0-2.354 1.91-4.264 4.26-4.264 2.354 0 4.263 1.91 4.263 4.264z"/><path fill="#777" d="M20.094 19.674c0 .52-.422.94-.94.94-.522 0-.942-.42-.942-.94s.422-.94.94-.94c.52 0 .94.42.94.94h.002zm-5.96 0c0 .52-.423.94-.943.94s-.94-.42-.94-.94.42-.94.94-.94.95.42.95.94h-.007zm4.81-2.772c.37.367.37.963 0 1.33-.366.367-.964.367-1.33 0s-.368-.965 0-1.33c.366-.37.964-.37 1.33 0zm-4.214 4.213c.37.367.37.964 0 1.33-.366.37-.962.37-1.33 0-.37-.366-.37-.963 0-1.33s.964-.367 1.33 0zm4.214 1.33c-.366.37-.963.37-1.33 0-.368-.366-.368-.963 0-1.33.367-.367.964-.367 1.33 0 .37.367.37.964 0 1.33zm-4.214-4.21c-.367.364-.963.364-1.33 0-.37-.37-.37-.967 0-1.33.367-.37.963-.37 1.33-.003.368.367.37.965 0 1.333zm1.44-.598c-.52 0-.94-.422-.94-.94 0-.52.422-.94.94-.94.522 0 .943.42.943.94 0 .518-.42.94-.943.94z"/></svg>