<svg xmlns="http://www.w3.org/2000/svg" width="32" height="32" viewBox="0 0 32 32"><path fill="#fff" d="M4.77 29.352h26.704V2.648H4.77v26.704z"/><path fill="#777" d="M31.974 29.852H4.27V2.148h27.704v27.704zm-26.704-1h25.704V3.148H5.27v25.704z"/><path fill="#999" d="M28.972 8.647h-5.294V5.47h5.294v3.177zm0 5.912h-5.294v-3.18h5.294v3.18zm0 5.91h-5.294v-3.18h5.294v3.18zm0 5.91h-5.294V23.2h5.294v3.18zM21.03 8.64h-5.295V5.466h5.294v3.176zm0 5.913h-5.295v-3.18h5.294v3.18zm0 5.91h-5.295v-3.178h5.294v3.178zm0 5.91h-5.295V23.2h5.294v3.175z"/><path fill="#fff" d="M.525 29.352L15.85 32V0L.525 2.648v26.704z"/><path fill="#777" d="M16.35 32.593L.025 29.773V2.227L16.35-.593v33.186zM1.025 28.93l14.325 2.476V.594L1.025 3.07v25.86z"/><path fill="#00BF16" d="M14.145 9.73h-3.178l-2.78 4.977L5.41 9.73H2.23l4.63 6.963-4.636 6.97h3.18l2.776-4.98 2.78 4.98h3.18L9.51 16.7l4.635-6.97z"/></svg>