<svg xmlns="http://www.w3.org/2000/svg" width="72" height="72" viewBox="0 0 72 72"><path fill="#FFF" d="M72 72H0V0h72v72z"/><path fill="#CCC" d="M72.5 72.5h-73v-73h73v73zm-72-1h71V.5H.5v71z"/><path fill="#B3B3B3" d="M11.165 68.344c-.828.438-1.858.656-3.095.656-1.594 0-2.87-.514-3.827-1.54s-1.438-2.37-1.438-4.038c0-1.792.54-3.24 1.617-4.344 1.078-1.105 2.445-1.656 4.102-1.656 1.063 0 1.942.153 2.643.46v1.4c-.802-.45-1.688-.673-2.656-.673-1.285 0-2.33.43-3.13 1.279-.8.859-1.196 2.01-1.196 3.439 0 1.361.373 2.449 1.119 3.26.747.811 1.729 1.217 2.94 1.217 1.126 0 2.1-.25 2.923-.75v1.271l-.002.019zm10.62-3.21h-5.648c.021.892.26 1.577.721 2.063.455.482 1.086.727 1.89.727.899 0 1.729-.297 2.483-.89v1.202c-.7.509-1.629.764-2.79.764-1.131 0-2.021-.363-2.66-1.09-.641-.729-.971-1.75-.971-3.066 0-1.244.36-2.26 1.061-3.043.699-.783 1.59-1.17 2.63-1.17s1.86.34 2.431 1.021c.579.68.859 1.619.859 2.818v.68l-.006-.016zm-1.312-1.087c-.006-.74-.185-1.313-.535-1.727-.352-.412-.84-.617-1.465-.617-.604 0-1.117.216-1.539.646-.42.434-.684.996-.781 1.694l4.32.004zm6.61 4.766h-1.28V56.968h1.28v11.845zm5.955 0h-1.28V56.968h1.28v11.845zm11.144 0H42.9v-1.267h-.03c-.532.97-1.354 1.453-2.47 1.453-1.906 0-2.86-1.14-2.86-3.41v-4.78h1.272v4.57c0 1.684.646 2.53 1.938 2.53.63 0 1.141-.229 1.55-.69.41-.46.61-1.066.61-1.81v-4.61h1.279v8h.006l-.013.014zm5.946 0h-1.28V56.968h1.28v11.845zm10.399 0h-1.279v-1.25h-.032c-.558.958-1.378 1.437-2.46 1.437-.798 0-1.422-.21-1.872-.633-.45-.424-.676-.98-.676-1.68 0-1.496.88-2.364 2.642-2.61l2.397-.335c0-1.36-.55-2.04-1.647-2.04-.965 0-1.834.33-2.608.983v-1.313c.784-.5 1.69-.75 2.72-.75 1.88 0 2.82.995 2.82 2.983v5.205h-.004v.003zm-1.279-4.047l-1.932.269c-.594.083-1.041.229-1.344.438-.304.211-.453.586-.453 1.12 0 .394.14.71.408.958.28.25.65.381 1.11.381.632 0 1.16-.221 1.569-.671.41-.45.619-1.01.619-1.688l.002-.801.021-.006zm9.945-2.657c-.225-.182-.547-.262-.971-.262-.547 0-1.004.262-1.369.771-.367.51-.552 1.22-.552 2.109v4.069h-1.28v-8h1.289v1.644h.029c.189-.563.46-1 .842-1.316a1.923 1.923 0 0 1 1.26-.473c.336 0 .59.035.768.108v1.33l-.016.02z"/><g opacity=".7" fill="#B3B3B3"><path d="M52.238 20.132c0 8.933-7.268 16.2-16.2 16.2-8.932 0-16.2-7.268-16.2-16.2 0-8.932 7.268-16.2 16.2-16.2 8.933 0 16.2 7.267 16.2 16.2zm-31.104 0c0 8.218 6.686 14.904 14.904 14.904s14.903-6.686 14.903-14.904S44.255 5.228 36.038 5.228c-8.218 0-14.904 6.686-14.904 14.904z"/><path d="M52.238 36.352c0 8.933-7.268 16.2-16.2 16.2-8.932 0-16.2-7.268-16.2-16.2s7.268-16.2 16.2-16.2c8.933 0 16.2 7.267 16.2 16.2zm-31.104 0c0 8.218 6.686 14.904 14.904 14.904s14.903-6.688 14.903-14.904c0-8.218-6.686-14.904-14.903-14.904-8.218 0-14.904 6.685-14.904 14.904z"/><path d="M38.794 28.092c0 8.934-7.268 16.2-16.2 16.2-8.932 0-16.2-7.269-16.2-16.2s7.268-16.2 16.2-16.2c8.932 0 16.2 7.267 16.2 16.2zm-31.104 0c0 8.218 6.686 14.904 14.904 14.904s14.904-6.687 14.904-14.904c0-8.218-6.686-14.904-14.904-14.904S7.69 19.874 7.69 28.092z"/><path d="M65.605 28.092c0 8.934-7.268 16.2-16.199 16.2s-16.2-7.269-16.2-16.2 7.269-16.2 16.2-16.2 16.199 7.267 16.199 16.2zm-31.103 0c0 8.218 6.686 14.904 14.904 14.904S64.31 36.309 64.31 28.092c0-8.218-6.687-14.904-14.904-14.904-8.218 0-14.904 6.686-14.904 14.904z"/></g></svg>