<?xml version="1.0" encoding="utf-8"?>
<!-- Generator: Adobe Illustrator 14.0.0, SVG Export Plug-In . SVG Version: 6.00 Build 43363)  -->
<!DOCTYPE svg PUBLIC "-//W3C//DTD SVG 1.1//EN" "http://www.w3.org/Graphics/SVG/1.1/DTD/svg11.dtd">
<svg version="1.1" id="Layer_1" xmlns="http://www.w3.org/2000/svg" xmlns:xlink="http://www.w3.org/1999/xlink" x="0px" y="0px"
	 width="32px" height="32px" viewBox="0 0 32 32" enable-background="new 0 0 32 32" xml:space="preserve">
<path fill="#FFFFFF" stroke="#000000" d="M1.78,16c2.69,4.105,7.387,7.62,14.22,7.62c4.932,0,11.529-3.515,14.221-7.62
	C27.529,11.894,20.93,8.38,16,8.38C11.07,8.38,4.47,11.894,1.78,16z"/>
<path fill="#777777" d="M16.614,22.537c-3.882,0-7.04-3.157-7.04-7.04s3.158-7.04,7.04-7.04c3.882,0,7.04,3.16,7.04,7.04
	S20.496,22.537,16.614,22.537z"/>
<path d="M16.614,8.958c3.604,0,6.54,2.934,6.54,6.54c0,3.605-2.936,6.54-6.54,6.54c-3.606,0-6.54-2.935-6.54-6.54
	C10.074,11.892,13.008,8.958,16.614,8.958 M16.614,7.958c-4.164,0-7.54,3.377-7.54,7.54c0,4.164,3.376,7.54,7.54,7.54
	c4.163,0,7.54-3.376,7.54-7.54C24.154,11.335,20.775,7.958,16.614,7.958z M20.094,15.498c0,1.922-1.558,3.48-3.479,3.48
	c-1.92,0-3.48-1.561-3.48-3.48s1.56-3.48,3.48-3.48C18.536,12.018,20.094,13.576,20.094,15.498z"/>
<path fill="#777777" d="M16,25.88c-6.417,0-12.373-3.478-15.544-9.077L0,16l0.456-0.803C3.626,9.597,9.583,6.12,16,6.12
	c6.416,0,12.37,3.478,15.545,9.076L32,16l-0.455,0.803C28.373,22.402,22.415,25.881,16,25.88L16,25.88z M1.78,16
	c2.69,4.105,7.387,7.62,14.22,7.62c4.932,0,11.529-3.515,14.221-7.62C27.529,11.894,20.93,8.38,16,8.38
	C11.07,8.38,4.47,11.894,1.78,16z"/>
<ellipse transform="matrix(0.7979 0.6028 -0.6028 0.7979 11.4584 -9.3449)" fill="#FFFFFF" cx="19.667" cy="12.417" rx="1.333" ry="2.584"/>
</svg>
