<?xml version="1.0" encoding="utf-8"?>
<!-- Generator: Adobe Illustrator 14.0.0, SVG Export Plug-In . SVG Version: 6.00 Build 43363)  -->
<!DOCTYPE svg PUBLIC "-//W3C//DTD SVG 1.1//EN" "http://www.w3.org/Graphics/SVG/1.1/DTD/svg11.dtd">
<svg version="1.1" id="Layer_1" xmlns="http://www.w3.org/2000/svg" xmlns:xlink="http://www.w3.org/1999/xlink" x="0px" y="0px"
	 width="96px" height="32px" viewBox="-0.167 0 96 32" enable-background="new -0.167 0 96 32" xml:space="preserve">
<g>
	<path fill="none" d="M29.486,0c1.295,0,2.348,1.053,2.348,2.347v27.307c0,1.294-1.053,2.346-2.348,2.346H2.181
		c-1.294,0-2.347-1.052-2.347-2.348V2.347C-0.167,1.053,0.887,0,2.181,0H29.486"/>
	<path fill="#777777" d="M27.957,3.854c0,1.118-0.902,2.02-2.02,2.02H5.73c-1.116,0-2.02-0.904-2.02-2.02
		c0-1.116,0.904-2.02,2.02-2.02h20.207C27.055,1.834,27.957,2.738,27.957,3.854L27.957,3.854z M27.957,18.979
		c0,1.11-0.902,2.021-2.02,2.021H5.73c-1.116,0-2.02-0.91-2.02-2.021c0-1.119,0.904-2.025,2.02-2.025h20.207
		c1.117,0,2.021,0.904,2.021,2.021L27.957,18.979z M27.957,11.411c0,1.116-0.902,2.02-2.02,2.02H5.73c-1.116,0-2.02-0.904-2.02-2.02
		c0-1.116,0.904-2.02,2.02-2.02h20.207C27.055,9.391,27.957,10.295,27.957,11.411L27.957,11.411z"/>
	<path fill="#5B5B5B" d="M10.539,29.833V25c0-0.248,0.02-0.646,0.06-1.197h-0.02c-0.046,0.146-0.088,0.273-0.126,0.381
		c-0.04,0.109-0.078,0.195-0.11,0.267l-2.44,5.38h-0.28l-2.444-5.352c-0.072-0.164-0.145-0.394-0.22-0.688h-0.02
		c0.013,0.15,0.022,0.32,0.027,0.514c0.005,0.192,0.007,0.404,0.007,0.639v4.892h-0.63v-7.003h0.767l2.38,5.268
		c0.05,0.108,0.096,0.219,0.143,0.34c0.047,0.108,0.09,0.232,0.13,0.362h0.028c0.045-0.132,0.087-0.25,0.125-0.356
		c0.038-0.108,0.085-0.227,0.14-0.352l2.397-5.27h0.728v7.003h-0.64L10.539,29.833z M13.188,27.445
		c0.004,0.306,0.045,0.58,0.123,0.824c0.078,0.242,0.19,0.448,0.337,0.619c0.147,0.162,0.325,0.301,0.535,0.383
		c0.21,0.09,0.447,0.136,0.71,0.136c0.563,0,1.094-0.197,1.596-0.591v0.615c-0.479,0.342-1.059,0.512-1.738,0.512
		c-0.335,0-0.64-0.061-0.913-0.178s-0.506-0.287-0.698-0.511c-0.192-0.226-0.34-0.5-0.444-0.821
		c-0.104-0.324-0.156-0.695-0.156-1.113c0-0.373,0.057-0.719,0.17-1.039c0.115-0.32,0.273-0.596,0.475-0.828
		c0.202-0.23,0.44-0.414,0.718-0.547c0.277-0.131,0.581-0.195,0.909-0.195c0.321,0,0.606,0.059,0.854,0.168
		c0.248,0.113,0.455,0.273,0.623,0.48c0.167,0.209,0.295,0.463,0.383,0.763s0.133,0.635,0.133,1.006v0.313h-3.61L13.188,27.445z
		 M16.159,26.898c-0.011-0.521-0.134-0.926-0.37-1.211c-0.24-0.287-0.57-0.433-0.992-0.433c-0.21,0-0.408,0.037-0.588,0.112
		c-0.18,0.072-0.34,0.184-0.476,0.322c-0.14,0.145-0.25,0.313-0.34,0.52c-0.09,0.205-0.157,0.436-0.19,0.688h2.949h0.007V26.898z
		 M21.402,29.833v-2.88c0-1.13-0.41-1.695-1.23-1.695c-0.219,0-0.42,0.043-0.605,0.131c-0.186,0.086-0.346,0.204-0.479,0.357
		c-0.135,0.152-0.238,0.335-0.314,0.544c-0.076,0.21-0.115,0.438-0.115,0.683v2.86h-0.625v-5h0.625v0.87h0.02
		c0.371-0.658,0.932-0.987,1.676-0.987c0.547,0,0.965,0.181,1.25,0.532c0.287,0.354,0.432,0.867,0.432,1.538v3.047H21.402z
		 M26.801,29.833v-0.851h-0.02c-0.34,0.646-0.863,0.968-1.576,0.968c-1.188,0-1.781-0.726-1.781-2.181v-2.938h0.625v2.822
		c0,0.6,0.105,1.041,0.32,1.326c0.213,0.287,0.539,0.431,0.98,0.431c0.213,0,0.408-0.04,0.586-0.124
		c0.178-0.082,0.332-0.2,0.461-0.354c0.127-0.149,0.227-0.332,0.299-0.543c0.072-0.214,0.105-0.447,0.105-0.703v-2.859h0.621v5
		h-0.627L26.801,29.833z"/>
</g>
<g>
	<path fill="none" d="M93.486,0c1.296,0,2.348,1.053,2.348,2.347v27.307c0,1.294-1.052,2.346-2.348,2.346H66.182
		c-1.295,0-2.348-1.052-2.348-2.348V2.347C63.834,1.053,64.887,0,66.182,0H93.486"/>
	<g>
		<path fill="#777777" d="M88.455,20.403c-0.791,0.791-2.066,0.791-2.856,0.001L71.311,6.115c-0.789-0.789-0.789-2.067,0-2.856
			c0.789-0.79,2.067-0.789,2.856,0l14.288,14.289C89.245,18.337,89.245,19.615,88.455,20.403L88.455,20.403z M88.457,3.263
			c0.785,0.785,0.791,2.067,0.001,2.857L74.17,20.41c-0.789,0.788-2.072,0.784-2.857-0.002c-0.792-0.791-0.793-2.071-0.005-2.86
			L85.597,3.259c0.79-0.79,2.068-0.79,2.858,0L88.457,3.263z"/>
	</g>
	<path fill="#5B5B5B" d="M74.539,29.833V25c0-0.248,0.02-0.646,0.061-1.197h-0.021c-0.046,0.146-0.088,0.273-0.126,0.381
		c-0.04,0.109-0.078,0.195-0.11,0.267l-2.44,5.38h-0.279l-2.443-5.352c-0.072-0.164-0.146-0.394-0.221-0.688h-0.02
		c0.013,0.15,0.021,0.32,0.026,0.514c0.005,0.192,0.007,0.404,0.007,0.639v4.892h-0.63v-7.003h0.767L71.49,28.1
		c0.05,0.108,0.096,0.219,0.143,0.34c0.047,0.108,0.09,0.232,0.131,0.362h0.027c0.045-0.132,0.087-0.25,0.125-0.356
		c0.038-0.108,0.085-0.227,0.141-0.352l2.396-5.27h0.729v7.003h-0.641L74.539,29.833z M77.189,27.445
		c0.004,0.306,0.045,0.58,0.123,0.824c0.078,0.242,0.189,0.448,0.336,0.619c0.147,0.162,0.326,0.301,0.535,0.383
		c0.211,0.09,0.447,0.136,0.711,0.136c0.563,0,1.094-0.197,1.596-0.591v0.615c-0.479,0.342-1.059,0.512-1.738,0.512
		c-0.335,0-0.641-0.061-0.913-0.178s-0.506-0.287-0.698-0.511c-0.191-0.226-0.34-0.5-0.443-0.821
		c-0.104-0.324-0.156-0.695-0.156-1.113c0-0.373,0.057-0.719,0.17-1.039c0.115-0.32,0.273-0.596,0.475-0.828
		c0.203-0.23,0.44-0.414,0.719-0.547c0.277-0.131,0.58-0.195,0.908-0.195c0.321,0,0.606,0.059,0.854,0.168
		c0.248,0.113,0.455,0.273,0.623,0.48c0.167,0.209,0.295,0.463,0.383,0.763s0.133,0.635,0.133,1.006v0.313h-3.609L77.189,27.445z
		 M80.159,26.898c-0.011-0.521-0.134-0.926-0.37-1.211c-0.24-0.287-0.57-0.433-0.992-0.433c-0.21,0-0.408,0.037-0.588,0.112
		c-0.18,0.072-0.34,0.184-0.477,0.322c-0.14,0.145-0.25,0.313-0.34,0.52c-0.09,0.205-0.156,0.436-0.189,0.688h2.949h0.007V26.898z
		 M85.402,29.833v-2.88c0-1.13-0.41-1.695-1.23-1.695c-0.218,0-0.42,0.043-0.605,0.131c-0.185,0.086-0.346,0.204-0.479,0.357
		c-0.135,0.152-0.238,0.335-0.314,0.544c-0.076,0.21-0.115,0.438-0.115,0.683v2.86h-0.625v-5h0.625v0.87h0.02
		c0.372-0.658,0.932-0.987,1.676-0.987c0.547,0,0.965,0.181,1.25,0.532c0.287,0.354,0.432,0.867,0.432,1.538v3.047H85.402z
		 M90.802,29.833v-0.851h-0.02c-0.341,0.646-0.863,0.968-1.576,0.968c-1.188,0-1.782-0.726-1.782-2.181v-2.938h0.625v2.822
		c0,0.6,0.105,1.041,0.32,1.326c0.213,0.287,0.54,0.431,0.98,0.431c0.213,0,0.408-0.04,0.586-0.124
		c0.178-0.082,0.332-0.2,0.461-0.354c0.127-0.149,0.228-0.332,0.299-0.543c0.072-0.214,0.106-0.447,0.106-0.703v-2.859h0.62v5
		h-0.626L90.802,29.833z"/>
</g>
</svg>
