<?xml version="1.0" encoding="utf-8"?>
<!-- Generator: Adobe Illustrator 14.0.0, SVG Export Plug-In . SVG Version: 6.00 Build 43363)  -->
<!DOCTYPE svg PUBLIC "-//W3C//DTD SVG 1.1//EN" "http://www.w3.org/Graphics/SVG/1.1/DTD/svg11.dtd">
<svg version="1.1" id="Layer_1" xmlns="http://www.w3.org/2000/svg" xmlns:xlink="http://www.w3.org/1999/xlink" x="0px" y="0px"
	 width="32px" height="32px" viewBox="0 0 32 32" enable-background="new 0 0 32 32" xml:space="preserve">
<symbol  id="_x5F_button_x5F_base" viewBox="-16.001 -16 32 32">
	<g id="button_x5F_base_3_">
		<g id="button_6_">
			<g>
				
					<use xlink:href="#_x5F_button_x5F_shape"  width="32" height="32" x="-16" y="-16" transform="matrix(1 0 0 1 -9.765625e-004 0)" overflow="visible"/>
			</g>
			<g>
				<g>
					<g>
						<g>
							<path fill="#999999" d="M15.999-12c0-2.209-1.791-4-4-4h-24c-2.209,0-4,1.791-4,4v24c0,2.209,1.791,4,4,4h24
								c2.209,0,4-1.791,4-4V-12z"/>
						</g>
					</g>
				</g>
			</g>
		</g>
	</g>
	<g id="button_3_">
		<g>
			
				<use xlink:href="#_x5F_button_x5F_shape"  width="32" height="32" x="-16" y="-16" transform="matrix(0.9375 0 0 0.9375 -9.765625e-004 0)" overflow="visible"/>
		</g>
		<g>
			<g>
				<g>
					<g>
						<g>
							<path fill="#F2F2F2" d="M14.999-11.25c0-2.071-1.679-3.75-3.75-3.75h-22.5c-2.071,0-3.75,1.679-3.75,3.75v22.5
								c0,2.071,1.679,3.75,3.75,3.75h22.5c2.071,0,3.75-1.679,3.75-3.75V-11.25z"/>
						</g>
					</g>
				</g>
			</g>
		</g>
	</g>
</symbol>
<symbol  id="_x5F_button_x5F_overlay" viewBox="-16.5 -16.5 33 33">
	<g id="_x5F_button_x5F_overlay_1_" opacity="0">
		<g id="button_x5F_overlay_3_">
			<g>
				<use xlink:href="#_x5F_button_x5F_shape"  width="32" height="32" x="-16" y="-16" overflow="visible"/>
			</g>
			<g>
				<g>
					<g>
						<g>
							<path fill="none" stroke="#808080" d="M16-12c0-2.209-1.791-4-4-4h-24c-2.209,0-4,1.791-4,4v24c0,2.209,1.791,4,4,4h24
								c2.209,0,4-1.791,4-4V-12z"/>
						</g>
					</g>
				</g>
			</g>
			<g>
				<g>
					<g>
						<g>
							<path fill="#0000FF" d="M16-12c0-2.209-1.791-4-4-4h-24c-2.209,0-4,1.791-4,4v24c0,2.209,1.791,4,4,4h24c2.209,0,4-1.791,4-4
								V-12z"/>
						</g>
					</g>
				</g>
			</g>
			<g>
				<g>
					<g>
						<g>
							<radialGradient id="SVGID_1_" cx="-9.1748" cy="11.5107" r="24.9406" gradientUnits="userSpaceOnUse">
								<stop  offset="0" style="stop-color:#E6E6E6"/>
								<stop  offset="1" style="stop-color:#000000"/>
							</radialGradient>
							<path fill="url(#SVGID_1_)" d="M16-12c0-2.209-1.791-4-4-4h-24c-2.209,0-4,1.791-4,4v24c0,2.209,1.791,4,4,4h24
								c2.209,0,4-1.791,4-4V-12z"/>
						</g>
					</g>
				</g>
			</g>
		</g>
	</g>
</symbol>
<symbol  id="_x5F_button_x5F_shape" viewBox="-16 -16 32 32">
	<g id="button_x5F_shape_2_">
		<g>
			<g opacity="0">
				<path fill="#FFFFFF" d="M16-12c0-2.209-1.791-4-4-4h-24c-2.209,0-4,1.791-4,4v24c0,2.209,1.791,4,4,4h24c2.209,0,4-1.791,4-4
					V-12z"/>
			</g>
		</g>
	</g>
</symbol>
<symbol  id="skype" viewBox="-13 -12.813 26 25.627">
	<path fill="#73CFEF" d="M11.764-1.674c0.072,0.528,0.113,1.065,0.113,1.611c0,6.56-5.346,11.877-11.939,11.877
		c-0.655,0-1.297-0.054-1.923-0.157c-1.121,0.731-2.455,1.156-3.891,1.156C-9.812,12.813-13,9.624-13,5.688
		c0-1.432,0.423-2.762,1.148-3.879C-11.949,1.199-12,0.574-12-0.063c0-6.56,5.344-11.877,11.938-11.877
		c0.745,0,1.469,0.072,2.173,0.199c1.096-0.679,2.385-1.073,3.766-1.073c3.936,0,7.124,3.19,7.124,7.126
		C13-4.2,12.546-2.817,11.764-1.674z"/>
	<path opacity="0.3" d="M11.764-1.674c0.072,0.528,0.113,1.065,0.113,1.611c0,3.4-1.443,6.457-3.746,8.623
		c2.008-2.126,3.246-4.977,3.246-8.122c0-0.547-0.042-1.083-0.114-1.611c0.783-1.144,1.236-2.526,1.236-4.014
		c0-3.936-3.188-7.126-7.124-7.126c-1.381,0-2.67,0.395-3.766,1.073c-0.704-0.127-1.428-0.199-2.173-0.199
		c-3.177,0-6.054,1.242-8.191,3.253c2.177-2.305,5.262-3.754,8.692-3.754c0.745,0,1.469,0.072,2.173,0.199
		c1.096-0.679,2.385-1.073,3.766-1.073c3.936,0,7.124,3.19,7.124,7.126C13-4.2,12.546-2.817,11.764-1.674z"/>
	<path opacity="0.3" d="M-11.249-0.563c0,0.637,0.051,1.262,0.148,1.872c-0.726,1.116-1.148,2.446-1.148,3.879
		c0,3.936,3.188,7.124,7.124,7.124c1.436,0,2.77-0.425,3.891-1.155c0.626,0.103,1.268,0.156,1.923,0.156
		c2.299,0,4.438-0.657,6.26-1.777c-1.97,1.426-4.388,2.278-7.011,2.278c-0.655,0-1.297-0.054-1.923-0.157
		c-1.121,0.731-2.455,1.156-3.891,1.156C-9.812,12.813-13,9.624-13,5.688c0-1.432,0.423-2.762,1.148-3.879
		C-11.949,1.199-12,0.574-12-0.063c0-4.272,2.274-8.008,5.678-10.099C-9.303-8.004-11.249-4.513-11.249-0.563z"/>
	<g>
		<path opacity="0.3" d="M0.008-9.844c-2.985,0-4.966,0.715-6.834,2.467c-1.211,1.138-1.67,2.555-1.228,3.79
			c0.347,0.971,1.205,1.616,2.238,1.685c1.501,0.102,2.464-0.969,3.164-1.736c0.214-0.234,0.455-0.499,0.59-0.583
			c0.323-0.202,1.381-0.644,2.417-0.644c0.74,0,1.287,0.213,1.671,0.652C2.264-3.941,2.322-3.76,2.304-3.709
			C2.19-3.402,1.184-2.823-0.618-2.56c-3.615,0.535-7.71,2.521-7.357,6.357c0.307,3.32,2.732,5.669,6.18,5.981
			c3.331,0.306,5.704-0.381,7.787-2.158c1.695-1.446,1.477-2.938,1.304-3.512C6.99,3.101,6.115,2.341,5.116,2.22L4.903,2.208l0,0
			c-0.861,0-1.55,0.595-2.279,1.226C1.801,4.146,0.868,4.955-0.34,4.974c-0.001,0-0.001,0-0.001,0c-1.276,0-2.034-0.729-2.079-1.104
			c-0.023-0.195,0.346-0.489,1.098-0.672c0.479-0.116,0.964-0.223,1.446-0.33c3.133-0.69,6.373-1.403,7.718-4.591
			C8.466-3.2,8.305-4.82,7.388-6.284C6.127-8.296,3.662-9.681,1.106-9.813C0.722-9.834,0.355-9.844,0.008-9.844L0.008-9.844z
			 M-5.631-3.896c-0.288-0.018-0.462-0.146-0.54-0.364c-0.128-0.358-0.008-0.98,0.714-1.659c1.406-1.319,2.96-2.077,6.46-1.897
			c1.895,0.099,3.779,1.141,4.689,2.594C6.09-4.589,6.465-3.603,6-2.501C5.057-0.266,2.571,0.281-0.307,0.915
			c-0.496,0.109-0.994,0.22-1.488,0.34c-2.662,0.647-2.672,2.347-2.611,2.853c0.189,1.581,1.993,2.866,4.021,2.866
			C1.627,6.942,2.96,5.789,3.934,4.946c0.322-0.279,0.811-0.702,0.994-0.74c0.129,0.021,0.366,0.198,0.452,0.48
			C5.506,5.104,5.256,5.62,4.693,6.1C3.039,7.511,1.106,8.037-1.615,7.787c-1.942-0.176-4.109-1.365-4.368-4.173
			C-6.225,1-2.541-0.253-0.327-0.581C1.097-0.79,3.578-1.384,4.181-3.018C4.39-3.586,4.447-4.483,3.532-5.53
			C2.768-6.404,1.669-6.865,0.355-6.865l0,0c-1.549,0-2.952,0.619-3.477,0.948C-3.489-5.688-3.8-5.348-4.129-4.986
			C-4.595-4.476-5.123-3.896-5.631-3.896L-5.631-3.896z"/>
		<path fill="#FFFFFF" d="M-1.706,9.283C1.547,9.579,3.666,8.79,5.342,7.36C7.278,5.709,6.23,3.862,4.996,3.713
			c-1.229-0.147-2.609,2.718-5.32,2.761C-3.12,6.518-5.008,3.565-1.559,2.727c3.452-0.838,7.147-1.183,8.479-4.338
			s-2.07-6.507-5.866-6.704C-2.74-8.513-4.515-7.674-6.142-6.147c-1.815,1.705-1.086,3.649,0.393,3.748s2.367-1.676,3.157-2.17
			c0.788-0.492,3.787-1.613,5.371,0.198C4.505-2.399,1.633-1.379-0.474-1.07c-3.006,0.445-6.801,2.071-6.506,5.276
			C-6.684,7.409-4.259,9.052-1.706,9.283z"/>
	</g>
</symbol>
<g>
	<path fill="#73CFEF" d="M28.668,17.803c0.078-0.569,0.122-1.147,0.122-1.735c0-7.064-5.757-12.791-12.857-12.791
		c-0.706,0-1.396,0.058-2.071,0.169c-1.207-0.788-2.644-1.245-4.189-1.245C5.434,2.201,2,5.636,2,9.874
		c0,1.542,0.455,2.974,1.236,4.177c-0.105,0.657-0.16,1.331-0.16,2.016c0,7.063,5.755,12.79,12.855,12.79
		c0.803,0,1.582-0.077,2.34-0.215c1.18,0.731,2.568,1.156,4.056,1.156c4.238,0,7.672-3.436,7.672-7.674
		C30,20.523,29.511,19.034,28.668,17.803z"/>
	<path opacity="0.3" d="M28.668,17.803c0.078-0.569,0.122-1.147,0.122-1.735c0-3.662-1.554-6.954-4.034-9.286
		c2.162,2.29,3.496,5.359,3.496,8.747c0,0.589-0.045,1.167-0.123,1.735c0.844,1.231,1.331,2.721,1.331,4.322
		c0,4.238-3.434,7.675-7.672,7.675c-1.486,0-2.875-0.425-4.055-1.156c-0.758,0.137-1.538,0.215-2.34,0.215
		c-3.421,0-6.519-1.338-8.821-3.503c2.344,2.481,5.667,4.042,9.361,4.042c0.803,0,1.582-0.077,2.34-0.215
		c1.18,0.731,2.568,1.156,4.056,1.156c4.238,0,7.672-3.436,7.672-7.674C30,20.523,29.511,19.034,28.668,17.803z"/>
	<path opacity="0.3" d="M3.886,16.606c0-0.686,0.055-1.359,0.16-2.016c-0.782-1.202-1.237-2.635-1.237-4.177
		c0-4.238,3.434-7.672,7.672-7.672c1.546,0,2.982,0.458,4.19,1.244c0.674-0.11,1.365-0.168,2.07-0.168
		c2.476,0,4.78,0.708,6.741,1.914c-2.121-1.535-4.725-2.454-7.55-2.454c-0.706,0-1.396,0.058-2.071,0.169
		c-1.207-0.788-2.644-1.245-4.189-1.245C5.434,2.201,2,5.636,2,9.874c0,1.542,0.455,2.974,1.236,4.177
		c-0.105,0.657-0.16,1.331-0.16,2.016c0,4.601,2.449,8.624,6.114,10.875C5.982,24.619,3.886,20.859,3.886,16.606z"/>
	<g>
		<path opacity="0.3" d="M16.008,26.601c-3.215,0-5.348-0.77-7.359-2.656c-1.304-1.226-1.798-2.751-1.322-4.082
			c0.373-1.045,1.297-1.74,2.41-1.814c1.616-0.108,2.653,1.044,3.407,1.871c0.23,0.251,0.49,0.536,0.635,0.627
			c0.348,0.218,1.487,0.694,2.603,0.694c0.797,0,1.386-0.23,1.8-0.703c0.255-0.292,0.318-0.487,0.298-0.542
			c-0.122-0.332-1.206-0.954-3.146-1.238c-3.894-0.577-8.303-2.716-7.923-6.847c0.33-3.576,2.942-6.105,6.655-6.441
			c3.587-0.329,6.143,0.411,8.386,2.324c1.825,1.557,1.59,3.163,1.403,3.781c-0.328,1.087-1.27,1.905-2.346,2.035l-0.229,0.014l0,0
			c-0.928,0-1.669-0.641-2.454-1.321c-0.887-0.768-1.891-1.637-3.192-1.658c-0.001,0-0.001,0-0.001,0
			c-1.375,0-2.19,0.785-2.239,1.189c-0.025,0.21,0.372,0.526,1.182,0.723c0.516,0.125,1.038,0.24,1.558,0.355
			c3.373,0.744,6.863,1.512,8.312,4.944c0.672,1.592,0.498,3.337-0.489,4.913c-1.358,2.166-4.013,3.658-6.765,3.801
			C16.777,26.59,16.383,26.601,16.008,26.601L16.008,26.601z M9.936,20.195c-0.31,0.019-0.498,0.157-0.582,0.393
			c-0.138,0.385-0.008,1.056,0.769,1.786c1.514,1.421,3.188,2.237,6.957,2.044c2.04-0.106,4.07-1.229,5.05-2.794
			c0.429-0.683,0.832-1.744,0.331-2.932c-1.016-2.406-3.692-2.996-6.791-3.678c-0.534-0.118-1.071-0.236-1.603-0.366
			c-2.867-0.697-2.877-2.527-2.812-3.072c0.204-1.702,2.146-3.087,4.33-3.087c2.167,0.034,3.603,1.276,4.652,2.184
			c0.347,0.301,0.873,0.756,1.07,0.798c0.139-0.024,0.395-0.214,0.487-0.519c0.136-0.45-0.134-1.004-0.739-1.521
			c-1.782-1.52-3.863-2.086-6.794-1.817c-2.092,0.189-4.426,1.47-4.704,4.494c-0.26,2.816,3.707,4.165,6.091,4.518
			c1.533,0.224,4.206,0.864,4.854,2.624c0.226,0.611,0.287,1.578-0.698,2.705c-0.823,0.941-2.007,1.438-3.421,1.438l0,0
			c-1.668,0-3.179-0.668-3.744-1.021c-0.396-0.247-0.73-0.613-1.085-1.002C11.052,20.819,10.483,20.195,9.936,20.195L9.936,20.195z"
			/>
		<path fill="#FFFFFF" d="M14.163,6.003c3.503-0.319,5.786,0.531,7.59,2.071c2.085,1.778,0.957,3.767-0.373,3.928
			c-1.322,0.159-2.81-2.927-5.729-2.973c-3.011-0.047-5.044,3.132-1.329,4.036c3.717,0.902,7.697,1.273,9.131,4.671
			c1.435,3.397-2.229,7.007-6.317,7.22c-4.087,0.212-5.998-0.691-7.75-2.335c-1.955-1.836-1.169-3.93,0.423-4.036
			c1.592-0.106,2.549,1.805,3.4,2.337c0.849,0.53,4.078,1.737,5.784-0.214c1.858-2.123-1.234-3.222-3.503-3.555
			c-3.237-0.479-7.324-2.23-7.006-5.682C8.802,8.021,11.414,6.252,14.163,6.003z"/>
	</g>
</g>
</svg>
