<?xml version="1.0" encoding="utf-8"?>
<!-- Generator: Adobe Illustrator 14.0.0, SVG Export Plug-In . SVG Version: 6.00 Build 43363)  -->
<!DOCTYPE svg PUBLIC "-//W3C//DTD SVG 1.1//EN" "http://www.w3.org/Graphics/SVG/1.1/DTD/svg11.dtd">
<svg version="1.1" id="Layer_1" xmlns="http://www.w3.org/2000/svg" xmlns:xlink="http://www.w3.org/1999/xlink" x="0px" y="0px"
	 width="32px" height="32px" viewBox="0 0 32 32" enable-background="new 0 0 32 32" xml:space="preserve">
<g>
	<path fill="#777777" d="M25.185,28.25c0,1.94-1.569,3.512-3.513,3.512H3.515c-1.939,0-3.513-1.57-3.513-3.512V17.475
		c0-1.939,1.572-3.511,3.513-3.511h18.157c1.939,0,3.513,1.577,3.513,3.517V28.25z"/>
	<path fill="#FFFFFF" d="M8.949,18.132v9.533l7.289-4.869L8.949,18.132z"/>
	<path fill="#777777" d="M17.109,0.242c-3.325,0-6.021,2.693-6.021,6.019s2.696,6.021,6.019,6.021c3.327,0,6.022-2.7,6.022-6.026
		c0.007-3.325-2.689-6.019-6.02-6.019L17.109,0.242z M17.109,10.277c-2.217,0-4.015-1.8-4.015-4.016
		c0-2.219,1.797-4.015,4.014-4.015c2.212,0,4.01,1.796,4.01,4.015c0,2.22-1.798,4.016-4.016,4.016H17.109z M6.071,4.256
		c-2.219,0-4.015,1.796-4.015,4.014c0,2.218,1.796,4.016,4.014,4.016c2.21,0,4.01-1.797,4.01-4.016c0-2.218-1.8-4.014-4.016-4.014
		H6.071z"/>
	<path fill="#444444" d="M17.109,10.277c-2.217,0-4.015-1.8-4.015-4.016c0-2.219,1.797-4.015,4.014-4.015
		c2.212,0,4.01,1.796,4.01,4.015c0,2.22-1.798,4.016-4.016,4.016H17.109z"/>
	<path fill="#777777" d="M31.997,30.04l-5.207-4.125v-6.107l5.207-4.123V30.04z"/>
</g>
</svg>
