<svg xmlns="http://www.w3.org/2000/svg" width="32" height="32" viewBox="0 0 32 32"><path d="M0 0v32h32V0H0z"/><path fill="#fff" d="M31.145 3.185h-2.33V.855h2.33v2.33zm0 4.66h-2.33v-2.33h2.33v2.33zm0 4.66h-2.33v-2.33h2.33v2.33zm0 4.66h-2.33v-2.33h2.33v2.33zm0 4.66h-2.33v-2.33h2.33v2.33zm0 4.66h-2.33v-2.33h2.33v2.33zm0 4.66h-2.33v-2.33h2.33v2.33zM3.185 3.185H.855V.855h2.33v2.33zm0 4.66H.855v-2.33h2.33v2.33zm0 4.66H.855v-2.33h2.33v2.33zm0 4.66H.855v-2.33h2.33v2.33zm0 4.66H.855v-2.33h2.33v2.33zm0 4.66H.855v-2.33h2.33v2.33zm0 4.66H.855v-2.33h2.33v2.33z"/><path d="M27.215 0v4.137c0 .764-.617 1.378-1.377 1.378H6.295c-.76 0-1.377-.614-1.377-1.378V0H0v32h4.918v-3.67c0-.76.617-1.377 1.377-1.377h19.543c.76 0 1.377.617 1.377 1.378V32H32V0h-4.785zm0 22.07c0 .76-.617 1.377-1.377 1.377H6.295c-.76 0-1.377-.616-1.377-1.377V10.398c0-.763.617-1.377 1.377-1.377h19.543c.76 0 1.377.62 1.377 1.38v11.67z" fill="none"/><path fill="#777" d="M25.838 9.02H6.295c-.76 0-1.377.615-1.377 1.378V22.07c0 .76.617 1.377 1.377 1.377h19.543c.76 0 1.377-.616 1.377-1.377V10.398c0-.76-.617-1.377-1.377-1.378zm0 17.933H6.295c-.76 0-1.377.617-1.377 1.378V32h22.297v-3.67c0-.76-.617-1.377-1.377-1.377zM6.295 5.515h19.543c.76 0 1.377-.614 1.377-1.378V0H4.918v4.137c0 .76.617 1.378 1.377 1.378z"/></svg>