<svg xmlns="http://www.w3.org/2000/svg" width="32" height="32" viewBox="0 0 32 32"><path fill="#E44D26" d="M4.462 28.8L1.892 0h28.215l-2.57 28.796L15.986 32 4.46 28.8z"/><path fill="#F16529" d="M16.002 29.55l9.337-2.587 2.195-24.61H16.002V29.55z"/><path fill="#EBEBEB" d="M16.002 13.036h-4.675l-.323-3.615h4.998V5.89H7.145l.084.95.87 9.734H16v-3.538zm0 9.174l-.016.004-3.934-1.063-.25-2.814h-3.55l.496 5.545 7.234 2.01.02-.003V22.21z"/><path fill="#fff" d="M15.988 13.036v3.532h4.35l-.406 4.582-3.944 1.062v3.678l7.245-2.01.052-.597.827-9.3.09-.947h-8.214zm0-7.15v3.536h8.534l.07-.795.16-1.79.085-.948-8.85-.004z"/></svg>