<svg xmlns="http://www.w3.org/2000/svg" xmlns:xlink="http://www.w3.org/1999/xlink" width="32" height="32" viewBox="0 0 32 32"><symbol viewBox="-16.001 -16 32 32"><g><g><use xlink:href="#_x5F_button_x5F_shape" width="32" height="32" x="-16" y="-16" transform="translate(-.001)" overflow="visible"/><path fill="#999" d="M16-12c0-2.21-1.792-4-4-4h-24c-2.21 0-4 1.79-4 4v24c0 2.21 1.79 4 4 4h24c2.208 0 4-1.79 4-4v-24z"/></g></g><g><use xlink:href="#_x5F_button_x5F_shape" width="32" height="32" x="-16" y="-16" transform="matrix(.938 0 0 .938 -.001 0)" overflow="visible"/><path fill="#F2F2F2" d="M15-11.25c0-2.07-1.68-3.75-3.75-3.75h-22.5c-2.072 0-3.75 1.68-3.75 3.75v22.5c0 2.07 1.678 3.75 3.75 3.75h22.5c2.07 0 3.75-1.68 3.75-3.75v-22.5z"/></g></symbol><symbol viewBox="-12.992 -14 25.984 28"><path fill="#039" d="M11.256 9.365c0-2.56-2.074-4.634-4.634-4.634-2.56 0-4.635 2.075-4.635 4.635 0 2.56 2.075 4.635 4.635 4.635 2.56 0 4.634-2.074 4.634-4.635zM12.99-2.42c0 3.517-2.853 6.367-6.368 6.367-3.518 0-6.37-2.85-6.37-6.367V-14h12.74v11.58zM1.43 9.278c0-1.97-1.598-3.57-3.567-3.57-1.973 0-3.57 1.6-3.57 3.57 0 1.972 1.598 3.57 3.57 3.57 1.97 0 3.568-1.598 3.568-3.57zM2.768.2C2.766 2.91.568 5.105-2.14 5.105-4.847 5.104-7.043 2.91-7.045.2v-8.494h9.813V.2zM-5.99 8.98c0-1.63-1.32-2.948-2.948-2.948-1.63 0-2.95 1.32-2.95 2.947s1.32 2.947 2.95 2.947c1.627 0 2.947-1.32 2.947-2.948zM-4.887 1.482c-.002 2.237-1.815 4.05-4.053 4.05s-4.052-1.813-4.053-4.05v-7.015h8.105v7.015z"/></symbol><g><circle fill="#039" cx="22.621" cy="6.634" r="4.635"/><path fill="#039" d="M28.99 18.42c0-3.517-2.853-6.367-6.37-6.367s-6.367 2.85-6.37 6.367V30h12.742V18.42h-.002z"/><circle fill="#039" cx="13.86" cy="6.722" r="3.569"/><path fill="#039" d="M18.768 15.8c-.002-2.71-2.198-4.905-4.906-4.905-2.71 0-4.905 2.196-4.907 4.904v8.494h9.813V15.8z"/><circle fill="#039" cx="7.061" cy="7.021" r="2.948"/><path fill="#039" d="M11.113 14.517c-.002-2.237-1.815-4.05-4.053-4.05s-4.052 1.813-4.053 4.05v7.015h8.105v-7.015z"/></g></svg>