<svg xmlns="http://www.w3.org/2000/svg" xmlns:xlink="http://www.w3.org/1999/xlink" width="32" height="32" viewBox="0 0 32 32"><symbol viewBox="-16.001 -16 32 32"><g><g><use xlink:href="#_x5F_button_x5F_shape" width="32" height="32" x="-16" y="-16" transform="translate(-.001)" overflow="visible"/><path fill="#999" d="M16-12c0-2.21-1.792-4-4-4h-24c-2.21 0-4 1.79-4 4v24c0 2.21 1.79 4 4 4h24c2.208 0 4-1.79 4-4v-24z"/></g></g><g><use xlink:href="#_x5F_button_x5F_shape" width="32" height="32" x="-16" y="-16" transform="matrix(.938 0 0 .938 -.001 0)" overflow="visible"/><path fill="#F2F2F2" d="M15-11.25c0-2.07-1.68-3.75-3.75-3.75h-22.5c-2.072 0-3.75 1.68-3.75 3.75v22.5c0 2.07 1.678 3.75 3.75 3.75h22.5c2.07 0 3.75-1.68 3.75-3.75v-22.5z"/></g></symbol><symbol viewBox="-13 -12.813 26 25.627"><path fill="#73CFEF" d="M11.764-1.674c.072.528.113 1.065.113 1.61 0 6.56-5.346 11.878-11.94 11.878-.654 0-1.296-.054-1.922-.157-1.12.73-2.455 1.156-3.89 1.156-3.937 0-7.125-3.19-7.125-7.125 0-1.432.423-2.762 1.148-3.88C-11.95 1.2-12 .575-12-.06-12-6.623-6.656-11.94-.062-11.94c.745 0 1.47.072 2.173.2 1.097-.68 2.386-1.074 3.767-1.074 3.936 0 7.124 3.19 7.124 7.126 0 1.488-.454 2.87-1.236 4.014z"/><path opacity=".3" d="M11.764-1.674c.072.528.113 1.065.113 1.61 0 3.4-1.443 6.458-3.746 8.624 2.01-2.126 3.247-4.977 3.247-8.122 0-.547-.042-1.083-.114-1.61C12.046-2.318 12.5-3.7 12.5-5.188c0-3.936-3.19-7.126-7.125-7.126-1.38 0-2.67.395-3.766 1.073-.705-.127-1.43-.2-2.174-.2-3.177 0-6.054 1.243-8.19 3.254 2.176-2.305 5.26-3.754 8.69-3.754.746 0 1.47.072 2.174.2 1.096-.68 2.385-1.074 3.766-1.074 3.936 0 7.124 3.19 7.124 7.126 0 1.488-.454 2.87-1.236 4.014zM-11.25-.563c0 .637.052 1.262.15 1.872-.727 1.115-1.15 2.445-1.15 3.878 0 3.936 3.19 7.124 7.125 7.124 1.436 0 2.77-.425 3.89-1.155.627.103 1.27.156 1.924.156 2.298 0 4.437-.657 6.26-1.777-1.97 1.426-4.39 2.278-7.012 2.278-.655 0-1.297-.054-1.923-.157-1.12.73-2.455 1.156-3.89 1.156-3.937 0-7.125-3.19-7.125-7.125 0-1.432.423-2.762 1.148-3.88C-11.95 1.2-12 .575-12-.06c0-4.273 2.274-8.01 5.678-10.1-2.98 2.158-4.927 5.65-4.927 9.6zM.008-9.844c-2.985 0-4.966.715-6.834 2.467-1.21 1.138-1.67 2.555-1.228 3.79.347.97 1.205 1.616 2.238 1.685 1.5.102 2.464-.97 3.164-1.736.214-.234.455-.5.59-.583.323-.203 1.38-.645 2.417-.645.74 0 1.287.213 1.67.652.24.272.297.453.28.504-.115.308-1.12.887-2.923 1.15-3.615.535-7.71 2.52-7.357 6.357.307 3.32 2.732 5.67 6.18 5.98 3.33.307 5.704-.38 7.787-2.157C7.687 6.174 7.47 4.682 7.296 4.108 6.99 3.1 6.116 2.34 5.116 2.22l-.213-.012c-.86 0-1.55.595-2.28 1.226-.822.712-1.755 1.52-2.963 1.54-1.277 0-2.035-.73-2.08-1.104-.023-.195.346-.49 1.098-.672.48-.116.964-.223 1.446-.33 3.133-.69 6.373-1.403 7.718-4.59.624-1.478.463-3.098-.454-4.562-1.26-2.012-3.726-3.397-6.282-3.53-.384-.02-.75-.03-1.098-.03zm-5.64 5.948c-.287-.018-.46-.146-.54-.364-.127-.358-.007-.98.715-1.66 1.406-1.318 2.96-2.076 6.46-1.896 1.895.1 3.78 1.14 4.69 2.594.397.633.772 1.62.307 2.72C5.057-.265 2.57.282-.307.916c-.496.11-.994.22-1.488.34-2.662.647-2.672 2.347-2.61 2.853.188 1.58 1.992 2.866 4.02 2.866 2.012-.032 3.345-1.185 4.32-2.028.32-.28.81-.702.993-.74.13.02.366.198.452.48.126.418-.124.934-.687 1.414C3.04 7.51 1.106 8.037-1.615 7.787c-1.942-.176-4.11-1.365-4.368-4.173C-6.225 1-2.54-.253-.327-.58 1.097-.79 3.578-1.385 4.18-3.02c.21-.568.267-1.465-.648-2.512C2.768-6.404 1.67-6.865.355-6.865c-1.55 0-2.952.62-3.477.948-.367.23-.678.57-1.007.93-.465.51-.993 1.09-1.5 1.09z"/><path fill="#fff" d="M-1.706 9.283c3.253.296 5.372-.493 7.048-1.923 1.936-1.65.888-3.498-.346-3.647-1.23-.147-2.61 2.718-5.32 2.76-2.796.045-4.684-2.908-1.235-3.746C1.894 1.89 5.59 1.544 6.92-1.61S4.85-8.12 1.054-8.316c-3.794-.198-5.57.64-7.196 2.168-1.815 1.705-1.086 3.65.393 3.748S-3.38-4.074-2.59-4.57c.788-.49 3.787-1.612 5.37.2C4.506-2.4 1.634-1.38-.473-1.07-3.48-.625-7.274 1-6.98 4.206c.296 3.203 2.72 4.846 5.274 5.077z"/></symbol><symbol id="a" viewBox="-13.852 -5.808 27.703 11.617"><path fill="#ED1C24" d="M-2.396 3.433c-.158.063-.316.123-.482.168l-.582.123c-.24.034-.482.053-.732.053-.146 0-.288-.007-.43-.02l-1.16-.237c-.417-.14-.807-.33-1.164-.566l-1.16-1.08C-8.563 1.282-9.06.806-9.06.806s-2.1.172-3.325-.806-1.467-1.828-1.467-2.76c0-.93.427-1.76 1.098-2.32 0 0 .744-.552 2.025-.73h21.21v.015c2.322.148 3.37 1.58 3.37 3.327 0 1.845-1.403 3.34-3.293 3.34-.485 0-.886-.1-1.31-.28-.3 2.93-2.803 5.217-5.883 5.217-1.433 0-2.732-.506-3.756-1.333-.313-.32-.998-1.15-1.213-1.483l-.79.44z"/><path fill="#fff" d="M-11.746-2.868c0-.8.367-1.517.945-2v4c-.58-.483-.946-1.2-.946-2M-9.8-.344v-5.05c.235-.062.484-.1.74-.1h.26v5.238c-.087.007-.173.012-.26.012-.257 0-.505-.035-.74-.1m2.208-.328c-.068.043-.137.085-.21.12v-4.94h1v6.61c-.397-.515-.675-1.125-.79-1.79m1.79 2.72v-7.54h1v8.027c-.356-.12-.692-.284-1-.488m2 .693v-8.233h1v8.205c-.204.028-.415.045-.63.045-.125 0-.248-.006-.37-.017m2.552-.58c-.326.19-.678.344-1.05.446v-8.1h1.5v8.25c-.165-.186-.315-.386-.45-.596m.95 1.097v-8.75h9.5v.012c2 .126 2.9 1.357 2.9 2.862C12.1-1.03 10.893.257 9.266.257c-.418 0-.762-.087-1.125-.24-.26 2.52-2.414 4.49-5.066 4.49-1.297 0-2.476-.472-3.375-1.25"/></symbol><use xlink:href="#a" width="27.703" height="11.617" x="-13.852" y="-5.808" transform="matrix(1.011 0 0 -1.011 16 16)" overflow="visible"/></svg>