<svg xmlns="http://www.w3.org/2000/svg" width="32" height="32" viewBox="0 0 32 32"><path fill="#98CB02" d="M20.38 2.7L21.755.483c.094-.15.047-.347-.104-.438-.147-.093-.344-.047-.438.104l-1.42 2.28c-1.146-.48-2.434-.753-3.796-.753-1.362 0-2.65.272-3.798.755L10.78.152c-.092-.15-.288-.195-.437-.104-.15.093-.195.288-.103.438L11.618 2.7c-2.51 1.267-4.212 3.586-4.292 6.256H24.67c-.08-2.67-1.78-4.99-4.29-6.257zm7.406 7.654c-.96 0-1.735.774-1.735 1.733v7.95c0 .96.777 1.732 1.736 1.732.957 0 1.735-.777 1.735-1.736v-7.95c0-.96-.777-1.736-1.734-1.736v.006zm-23.574 0c-.957 0-1.735.774-1.735 1.733v7.95c0 .96.778 1.732 1.735 1.732.96 0 1.735-.777 1.735-1.736v-7.95c0-.96-.776-1.736-1.735-1.736v.006zm3.11 13.594c0 .928.73 1.688 1.647 1.732h1.72v4.558c0 .96.777 1.734 1.735 1.734s1.736-.775 1.736-1.734V25.68h3.67v4.58c0 .96.78 1.737 1.736 1.737s1.734-.777 1.734-1.735v-4.58h1.64c.958 0 1.735-.774 1.735-1.732V10.354H7.32V23.95h.003z"/><path fill="#FFF" d="M20.7 5.534c0 .56-.454 1.012-1.015 1.012-.56 0-1.013-.453-1.013-1.012 0-.56.453-1.013 1.013-1.013.56 0 1.014.454 1.014 1.014zm-7.376 0c0 .56-.453 1.012-1.013 1.012s-1.01-.453-1.01-1.012c0-.56.452-1.013 1.012-1.013s1.012.454 1.012 1.014z"/></svg>