<svg xmlns="http://www.w3.org/2000/svg" width="32" height="32" viewBox="0 0 32 32"><path fill="#FFF" d="M17.334 12.052c-3.352 0-6.077 2.73-6.077 6.077 0 3.35 2.726 6.07 6.077 6.07 3.352 0 6.077-2.728 6.077-6.077 0-3.352-2.72-6.078-6.07-6.078l-.006.007zm13.95-4.17v-3.96c0-.68-.552-1.23-1.23-1.23H22.67c-.68 0-1.23.55-1.23 1.23v3.233H2.46C1.103 7.155 0 8.257 0 9.617v17.23c0 1.357 1.102 2.46 2.46 2.46h27.08c1.358 0 2.462-1.103 2.462-2.46V9.617c0-.678-.273-1.29-.718-1.735zm-13.95 18.323c-4.453 0-8.077-3.623-8.077-8.076 0-4.46 3.624-8.08 8.077-8.08s8.077 3.62 8.077 8.073c0 4.452-3.62 8.075-8.07 8.075l-.006.007zM29.42 6.585H23.3V4.788h6.12v1.797z"/></svg>