<svg xmlns="http://www.w3.org/2000/svg" width="32" height="32" viewBox="0 0 32 32"><path fill="#FFF" d="M29.673 7H7.333c-.02 0-.037.004-.054.006-.42-1.783-.8-3.133-1.07-3.606l-.403-.706H0v2.793h4.032c.715 2.478 3.004 15.42 3.338 16.545.502 1.686 2.17 1.686 2.17 1.686h16.45l.93-2.794H10.015l-.16-.894H25.95c1.16 0 2.126-.855 2.298-1.97L32 9.625v-.297C32 8.043 30.955 7 29.673 7zM25.56 17.24H9.59L7.932 9.79H28.87l-3.31 7.447v.003zm-1.757 6.864c-1.435 0-2.6 1.164-2.6 2.6s1.165 2.6 2.6 2.6c1.437 0 2.6-1.162 2.6-2.6-.003-1.433-1.165-2.6-2.6-2.6zm-12.67 0c-1.436 0-2.6 1.164-2.6 2.6s1.164 2.6 2.6 2.6 2.598-1.162 2.598-2.6c0-1.432-1.16-2.6-2.592-2.6h-.005z"/></svg>