<svg xmlns="http://www.w3.org/2000/svg" xmlns:xlink="http://www.w3.org/1999/xlink" width="32" height="32" viewBox="0 0 32 32"><symbol id="a" viewBox="-9.273 -15.997 18.547 31.994"><path d="M8.41 9.723c0-.62-.504-1.123-1.125-1.123-.617 0-1.12.503-1.12 1.122v4.854c0 .617.503 1.12 1.12 1.12.62 0 1.123-.503 1.123-1.12v-4.86.007z"/><path fill="#999" d="M7.285 8.298c-.783 0-1.422.64-1.422 1.424v4.854c0 .783.638 1.422 1.422 1.422.787 0 1.426-.64 1.426-1.423v-4.86c0-.784-.64-1.423-1.425-1.423v.006zm0 7.1c-.45 0-.818-.366-.818-.817V9.72c0-.45.367-.816.818-.816.453 0 .822.366.822.82v4.857c0 .45-.37.82-.822.82v-.003z"/><path d="M8.97-13.004c0-1.486-1.205-2.69-2.69-2.69H-6.28c-1.488 0-2.69 1.204-2.69 2.69V8.522c0 1.488 1.202 2.69 2.69 2.69H6.28c1.485 0 2.69-1.202 2.69-2.69v-21.526z"/><path fill="#999" d="M6.278-15.997h-12.56c-1.65 0-2.992 1.343-2.992 2.993V8.522c0 1.65 1.343 2.992 2.993 2.992H7.49c1.65 0 1.784-1.342 1.784-2.99v-21.53c-.003-1.65-1.347-2.99-2.996-2.99zm-12.56 26.91c-1.315 0-2.387-1.072-2.387-2.39v-21.527c0-1.317 1.073-2.39 2.39-2.39H6.28c1.316 0 2.39 1.07 2.39 2.39V8.522c0 1.316-1.073 2.39-2.39 2.39h-12.56z"/><path fill="#FFF" d="M7.398-1.492h-14.8V8.973h14.8V-1.492z"/><path fill="#999" d="M7.7-1.794H-7.705V9.272H7.7V-1.794zM-7.1-1.19h14.2v9.86h-14.2v-9.86z"/><path fill="#CCC" d="M2.48 3.403c.683-1.917-5.747-4.17-5.747-4.17s3.8 2.77 2.945 4.806c-.85 2.033 1.69 4.533 1.69 4.533h5.084s-4.654-3.253-3.97-5.17z"/><path fill="none" d="M2.48 3.403c.683-1.917-5.747-4.17-5.747-4.17s3.8 2.77 2.945 4.806c-.85 2.033 1.69 4.533 1.69 4.533h5.084s-4.654-3.253-3.97-5.17z"/><path fill="gray" d="M-4.3-4.857c0-.413-.334-.748-.747-.748H-6.54c-.415 0-.75.335-.75.747v.742c0 .413.335.748.75.748h1.493c.413 0 .748-.334.748-.747v-.748.006z"/><path fill="none" d="M-4.3-4.857c0-.413-.334-.748-.747-.748H-6.54c-.415 0-.75.335-.75.747v.742c0 .413.335.748.75.748h1.493c.413 0 .748-.334.748-.747v-.748.006z"/><path fill="gray" d="M-4.3-12.707c0-.413-.334-.748-.747-.748H-6.54c-.415 0-.75.335-.75.748v.748c0 .413.335.748.75.748h1.493c.413 0 .748-.335.748-.747v-.747z"/><path fill="none" d="M-4.3-12.707c0-.413-.334-.748-.747-.748H-6.54c-.415 0-.75.335-.75.748v.748c0 .413.335.748.75.748h1.493c.413 0 .748-.335.748-.747v-.747z"/><path fill="gray" d="M-4.3-8.782c0-.413-.334-.748-.747-.748H-6.54c-.415 0-.75.335-.75.748v.747c0 .413.335.748.75.748h1.493c.413 0 .748-.335.748-.748v-.747z"/><path fill="none" d="M-4.3-8.782c0-.413-.334-.748-.747-.748H-6.54c-.415 0-.75.335-.75.748v.747c0 .413.335.748.75.748h1.493c.413 0 .748-.335.748-.748v-.747z"/><path fill="gray" d="M1.307-4.857c0-.413-.334-.748-.748-.748H-.937c-.413 0-.748.335-.748.747v.742c0 .413.335.748.748.748H.56c.412 0 .747-.334.747-.747v-.748.006z"/><path fill="none" d="M1.307-4.857c0-.413-.334-.748-.748-.748H-.937c-.413 0-.748.335-.748.747v.742c0 .413.335.748.748.748H.56c.412 0 .747-.334.747-.747v-.748.006z"/><path fill="gray" d="M1.307-12.707c0-.413-.334-.748-.748-.748H-.937c-.413 0-.748.335-.748.748v.748c0 .413.335.748.748.748H.56c.412 0 .747-.335.747-.747v-.747z"/><path fill="none" d="M1.307-12.707c0-.413-.334-.748-.748-.748H-.937c-.413 0-.748.335-.748.748v.748c0 .413.335.748.748.748H.56c.412 0 .747-.335.747-.747v-.747z"/><path fill="gray" d="M1.307-8.782c0-.413-.334-.748-.748-.748H-.937c-.413 0-.748.335-.748.748v.747c0 .413.335.748.748.748H.56c.412 0 .747-.335.747-.748v-.747z"/><path fill="none" d="M1.307-8.782c0-.413-.334-.748-.748-.748H-.937c-.413 0-.748.335-.748.748v.747c0 .413.335.748.748.748H.56c.412 0 .747-.335.747-.748v-.747z"/><path fill="gray" d="M6.914-4.857c0-.413-.336-.748-.748-.748H4.668c-.412 0-.748.335-.748.747v.742c0 .413.336.748.748.748h1.496c.412 0 .748-.334.748-.747v-.748l.002.006z"/><path fill="none" d="M6.914-4.857c0-.413-.336-.748-.748-.748H4.668c-.412 0-.748.335-.748.747v.742c0 .413.336.748.748.748h1.496c.412 0 .748-.334.748-.747v-.748l.002.006z"/><path fill="gray" d="M6.914-12.707c0-.413-.336-.748-.748-.748H4.668c-.412 0-.748.335-.748.748v.748c0 .413.336.748.748.748h1.496c.412 0 .748-.335.748-.747l.002-.747z"/><path fill="none" d="M6.914-12.707c0-.413-.336-.748-.748-.748H4.668c-.412 0-.748.335-.748.748v.748c0 .413.336.748.748.748h1.496c.412 0 .748-.335.748-.747l.002-.747z"/><path fill="gray" d="M6.914-8.782c0-.413-.336-.748-.748-.748H4.668c-.412 0-.748.335-.748.748v.747c0 .413.336.748.748.748h1.496c.412 0 .748-.335.748-.748l.002-.747z"/><path fill="none" d="M6.914-8.782c0-.413-.336-.748-.748-.748H4.668c-.412 0-.748.335-.748.748v.747c0 .413.336.748.748.748h1.496c.412 0 .748-.335.748-.748l.002-.747z"/></symbol><use xlink:href="#a" width="18.547" height="31.994" x="-9.273" y="-15.997" transform="matrix(1 0 0 -1 16 16)" overflow="visible"/></svg>