<svg xmlns="http://www.w3.org/2000/svg" width="32" height="32" viewBox="0 0 32 32"><path fill="#777" d="M3.426 28.887c2.178-.917 3.546-2.367 3.546-2.367C3.132 24.133.63 20.26.63 15.89c0-7.254 6.884-13.134 15.375-13.134s15.373 5.88 15.373 13.135c0 7.257-6.888 13.135-15.38 13.135-1.822 0-3.572-.272-5.192-.77 0 0-4.27 1.72-7.38.632zm2.368.98c-.958 0-1.823-.13-2.574-.395l-1.53-.533 1.49-.632c1.24-.52 2.21-1.236 2.78-1.71C2.21 24 0 20.043 0 15.89 0 8.304 7.178 2.133 16 2.133c8.82 0 16 6.17 16 13.756S24.82 29.65 16 29.65c-1.772 0-3.51-.25-5.17-.736-.666.242-2.802.954-5.036.953zm-.488-1.255c.16.01.322.012.488.012 2.4 0 4.756-.938 4.78-.948l.205-.08.21.063c1.603.49 3.29.74 5.01.74 8.137 0 14.756-5.62 14.756-12.52 0-6.9-6.62-12.512-14.755-12.512S1.247 8.988 1.247 15.89c0 3.974 2.263 7.748 6.053 10.105l.64.4-.52.555c-.045.043-.818.854-2.12 1.662h.006z"/><path fill="#FFF" d="M16.444 2.756C8.2 2.756 1.512 8.466 1.512 15.51c0 4.244 2.437 8.003 6.17 10.32-.286 1.545-1.7 2.735-3.44 2.838.68.14 1.4.22 2.15.22 1.953 0 3.725-.524 5.016-1.372 1.576.483 3.274.75 5.043.75 8.243 0 14.93-5.713 14.93-12.755 0-7.045-6.687-12.754-14.933-12.754h-.003z"/></svg>