<svg xmlns="http://www.w3.org/2000/svg" width="32" height="32" viewBox="0 0 32 32"><path fill="#FFF" d="M5.47 24.732c-2.46 0-4.464-2.003-4.464-4.463 0-2.455 2-4.46 4.454-4.463l.71-.002.232-.67c.79-2.275 2.936-3.807 5.345-3.807.29 0 .582.02.867.064l.73.11.32-.667c1.072-2.2 3.26-3.57 5.708-3.57 3.13 0 5.828 2.33 6.277 5.423l.103.7.692.14c2.638.523 4.547 2.855 4.547 5.546 0 3.118-2.537 5.655-5.655 5.655H5.47v.002z"/><path fill="#4798ED" d="M19.374 8.27c2.637 0 4.91 1.966 5.288 4.57l.204 1.396 1.386.273c2.17.43 3.742 2.352 3.742 4.568 0 2.563-2.09 4.655-4.656 4.655H5.468c-1.908 0-3.462-1.555-3.462-3.464 0-1.905 1.55-3.46 3.456-3.464l1.42-.003.465-1.343c.65-1.88 2.417-3.138 4.4-3.138.237 0 .48.02.72.055l1.454.22.65-1.32c.904-1.86 2.746-3.014 4.808-3.014m0-2c-2.908.005-5.417 1.692-6.606 4.142-.334-.053-.675-.078-1.02-.078-2.915 0-5.388 1.872-6.292 4.478-3.015.008-5.454 2.45-5.454 5.465 0 3.02 2.446 5.465 5.462 5.465h19.87c3.676-.002 6.654-2.98 6.654-6.657 0-3.23-2.3-5.92-5.352-6.528-.518-3.55-3.574-6.277-7.268-6.277l.007-.01z"/></svg>