<svg xmlns="http://www.w3.org/2000/svg" width="32" height="32" viewBox="0 0 32 32"><path d="M31.407 16c0 8.51-6.897 15.407-15.407 15.407S.593 24.51.593 16 7.49.593 16 .593 31.407 7.49 31.407 16z"/><path fill="#FFF" d="M16 32C7.178 32 0 24.823 0 16 0 7.178 7.177 0 16 0s16 7.178 16 16c0 8.823-7.178 16-16 16zm0-30.814C7.832 1.186 1.186 7.832 1.186 16S7.83 30.815 16 30.815 30.816 24.17 30.816 16 24.17 1.186 16 1.186zm-2.513 16.3l1.674.218c-.18 1.153-.65 2.058-1.4 2.71-.75.653-1.68.98-2.774.98-1.374 0-2.48-.45-3.314-1.35-.835-.9-1.253-2.188-1.253-3.865 0-1.085.18-2.032.54-2.848.357-.813.904-1.423 1.64-1.83.733-.406 1.533-.61 2.397-.61 1.09 0 1.984.276 2.678.828.69.558 1.135 1.34 1.33 2.35l-1.655.26c-.158-.675-.437-1.183-.837-1.522-.4-.34-.883-.51-1.45-.51-.86 0-1.556.308-2.09.922-.538.613-.806 1.586-.806 2.917 0 1.35.26 2.33.778 2.94.52.612 1.194.92 2.027.92.67 0 1.227-.206 1.674-.617.45-.41.733-1.04.853-1.89l-.013-.004zm11.006 0l1.674.218c-.183 1.153-.65 2.058-1.405 2.71-.755.653-1.68.98-2.775.98-1.375 0-2.48-.448-3.317-1.35-.84-.898-1.26-2.187-1.26-3.865 0-1.08.18-2.03.54-2.843.36-.812.904-1.424 1.642-1.83.733-.407 1.532-.61 2.397-.61 1.09 0 1.978.275 2.676.827.696.556 1.142 1.335 1.335 2.354l-1.65.25c-.16-.674-.44-1.18-.84-1.52-.4-.34-.886-.51-1.452-.51-.853 0-1.55.305-2.09.92-.535.614-.8 1.587-.8 2.92 0 1.35.256 2.33.774 2.94.518.61 1.193.92 2.024.92.67 0 1.228-.208 1.677-.62.45-.41.733-1.04.854-1.89l-.004-.002z"/></svg>