<svg xmlns="http://www.w3.org/2000/svg" width="32" height="32" viewBox="0 0 32 32"><path fill="#FFF" d="M4.15 8.215v23.19H27.85V.596H11.558l-7.41 7.62z"/><path fill="#777" d="M28.443 32H3.555V7.974L11.308 0h17.137v32h-.002zm-23.7-1.187H27.26V1.185H11.81l-7.066 7.27v22.36h-.002z"/><path fill="#999" d="M4.15 8.215h7.41V.595l-7.41 7.62z"/><path fill="none" d="M16 4.404h8.89"/><path fill="gray" d="M24.89 4.998H16V3.813h8.89v1.185z"/><path fill="none" d="M16 6.775h8.89"/><path fill="gray" d="M24.89 7.368H16V6.182h8.89v1.186z"/><path fill="none" d="M16 9.145h8.89"/><path fill="gray" d="M24.89 9.738H16V8.553h8.89v1.185z"/><path fill="none" d="M6.716 13.45H24.89"/><path fill="gray" d="M24.89 14.043H6.715v-1.186H24.89v1.186z"/><path fill="none" d="M6.716 17.006H24.89"/><path fill="gray" d="M24.89 17.6H6.715v-1.187H24.89V17.6z"/><path fill="none" d="M6.716 20.562H24.89"/><path fill="gray" d="M24.89 21.154H6.715v-1.186H24.89v1.186z"/><path fill="none" d="M6.716 24.116H24.89"/><path fill="gray" d="M24.89 24.71H6.715v-1.186H24.89v1.185z"/><path fill="none" d="M6.716 27.672H24.89"/><path fill="gray" d="M24.89 28.264H6.715V27.08H24.89v1.184z"/></svg>