<svg xmlns="http://www.w3.org/2000/svg" width="32" height="32" viewBox="0 0 32 32"><path fill="#FFF" stroke="#000" d="M1.78 16c2.69 4.105 7.387 7.62 14.22 7.62 4.932 0 11.53-3.515 14.22-7.62-2.69-4.106-9.29-7.62-14.22-7.62-4.93 0-11.53 3.514-14.22 7.62z"/><path fill="#777" d="M16.614 22.537c-3.882 0-7.04-3.157-7.04-7.04s3.158-7.04 7.04-7.04 7.04 3.16 7.04 7.04-3.158 7.04-7.04 7.04z"/><path d="M16.614 8.958c3.604 0 6.54 2.934 6.54 6.54 0 3.605-2.936 6.54-6.54 6.54-3.606 0-6.54-2.935-6.54-6.54 0-3.606 2.934-6.54 6.54-6.54m0-1c-4.164 0-7.54 3.377-7.54 7.54 0 4.164 3.376 7.54 7.54 7.54 4.163 0 7.54-3.376 7.54-7.54 0-4.163-3.38-7.54-7.54-7.54zm3.48 7.54c0 1.922-1.558 3.48-3.48 3.48-1.92 0-3.48-1.56-3.48-3.48s1.56-3.48 3.48-3.48c1.922 0 3.48 1.558 3.48 3.48z"/><path fill="#777" d="M16 25.88c-6.417 0-12.373-3.478-15.544-9.077L0 16l.456-.803C3.626 9.597 9.583 6.12 16 6.12c6.416 0 12.37 3.478 15.545 9.076L32 16l-.455.803c-3.172 5.6-9.13 9.078-15.545 9.077zM1.78 16c2.69 4.105 7.387 7.62 14.22 7.62 4.932 0 11.53-3.515 14.22-7.62-2.69-4.106-9.29-7.62-14.22-7.62-4.93 0-11.53 3.514-14.22 7.62z"/><ellipse transform="matrix(.798 .603 -.603 .798 11.458 -9.345)" fill="#FFF" cx="19.667" cy="12.417" rx="1.333" ry="2.584"/></svg>