<svg xmlns="http://www.w3.org/2000/svg" width="32" height="32" viewBox="0 0 32 32"><path fill="#CF3E2B" d="M20.622 2H12.04C6.772 2 4.276 5.08 4.276 8.587c0 3.792 2.547 6.34 6.337 6.34.15 0 .307-.003.48-.01-.127.723-.096 1.203.025 1.873.057.316.4.944.885 1.445h-.584c-.247.005-.496.01-.758.01-4.928 0-8.23 3.395-8.23 6.566 0 3.008 3.1 5.188 8.262 5.188 4.98 0 9.27-3.757 9.27-6.672 0-2.4-1.1-4.14-2.96-5.48-1.86-1.34-2.32-1.727-2.32-2.356 0-.828.203-1.23 1.563-2.29 1.62-1.266 2.476-2.82 2.476-4.5 0-1.866-.404-3.698-2.677-5.288h2.896l1.68-1.41zM17.34 23.995c0 2.724-2.016 3.978-6.104 3.978-3.174 0-5.632-1.736-5.632-4.144 0-2.3 2.493-4.196 5.826-4.196 2.823 0 5.91 2.482 5.91 4.357v.004zM14.09 12.98c-.576.54-1.338.78-2.2.697l-.11-.013c-2.303-.292-4.11-2.65-4.207-5.482-.058-1.64.438-3.08 1.362-3.944.64-.6 1.425-.874 2.275-.792l.093.01c2.146.275 3.848 2.78 3.952 5.83.057 1.62-.357 2.934-1.166 3.692v.002zm12.228.666v-3.25h-1.87v3.25h-3.25v1.87h3.25v3.25h1.87v-3.25h3.25v-1.87h-3.25z"/></svg>