<svg xmlns="http://www.w3.org/2000/svg" width="32" height="32" viewBox="0 0 32 32"><path fill="#FFF" d="M27.563 2.58c-3.438-3.44-9.014-3.44-12.453 0-2.626 2.626-3.24 6.498-1.854 9.71L1.93 23.62l-.018 1.97 11.46-11.46.484.483L1.9 26.566l-.042 4.68s.388 1.243 1.094.54l3.17-3.173.32-2.96 2.96-.32.318-2.96 2.96-.316.32-2.96 2.96-.316 1.89-1.894c3.217 1.388 7.086.773 9.713-1.854C31 11.592 31 6.018 27.563 2.58zM25.72 8.104c-1.017 1.02-2.663 1.02-3.683 0-1.016-1.017-1.016-2.663 0-3.682 1.02-1.017 2.666-1.017 3.684 0 1.016 1.017 1.014 2.665 0 3.682z"/></svg>