<svg xmlns="http://www.w3.org/2000/svg" xmlns:xlink="http://www.w3.org/1999/xlink" width="32" height="32" viewBox="0 0 32 32"><symbol id="a" viewBox="-16 -12.995 32 25.99"><path fill="#CCC" d="M16-12.995h-32v4.02h32v-4.02zm-31.03.97h30.06v2.077h-30.06v-2.077z"/><path d="M15.516-12.51h-31.03v3.047h31.03v-3.047z"/><path fill="#CCC" d="M14.117-8.888h-28.235V9.817c0 1.753 1.425 3.178 3.177 3.178H10.93c1.753 0 3.18-1.425 3.18-3.178V-8.888h.005zm-27.265.97h26.296V9.817c0 1.218-.99 2.208-2.21 2.208H-10.94c-1.217 0-2.208-.99-2.208-2.208V-7.918z"/><path d="M13.633-8.402v18.22c0 1.485-1.207 2.69-2.694 2.69h-21.88c-1.49 0-2.698-1.205-2.698-2.69v-18.22h27.271z"/><path fill="#FFF" d="M12.062-7.104h-24.125V10.27h24.125V-7.104z"/><path fill="#CCC" d="M12.304-7.347h-24.61V10.51h24.61V-7.347zm-24.124.486h23.64v16.88h-23.64V-6.86zM4.217 2.41C4.737-.302-.173-3.5-.173-3.5s2.9 3.93 2.25 6.82c-.653 2.89 1.287 6.43 1.287 6.43H7.25S3.696 5.136 4.218 2.416V2.41z"/><path fill="none" d="M4.217 2.416C4.737-.302-.173-3.5-.173-3.5s2.9 3.93 2.25 6.82c-.653 2.89 1.287 6.43 1.287 6.43H7.25S3.696 5.136 4.217 2.416z"/></symbol><use xlink:href="#a" width="32" height="25.99" x="-16" y="-12.995" transform="matrix(1 0 0 -1 16 16)" overflow="visible"/></svg>