<svg xmlns="http://www.w3.org/2000/svg" width="32" height="32" viewBox="0 0 32 32"><path fill="#4E4E4E" d="M15.856 10.74c-.06 0-.118-.008-.177-.028-.29-.097-.445-.408-.35-.698L17.78 2.7c.092-.267.372-.423.645-.363L28.42 4.56c.3.065.487.36.422.658-.067.29-.358.478-.658.42l-9.513-2.12-2.294 6.842c-.077.23-.29.375-.52.375v.006z"/><path fill="#FFF" d="M26.765 7.43c-1.304 0-2.366-1.06-2.366-2.366S25.46 2.69 26.764 2.69c1.302 0 2.364 1.06 2.364 2.367S28.07 7.42 26.764 7.42v.01z"/><path fill="#232323" d="M26.765 3.252c1 0 1.813.81 1.813 1.813 0 1-.812 1.813-1.813 1.813-1.002 0-1.814-.812-1.814-1.813 0-1 .813-1.813 1.815-1.813m0-1.103c-1.608 0-2.918 1.307-2.918 2.915 0 1.607 1.31 2.917 2.918 2.917s2.916-1.31 2.916-2.917c0-1.608-1.307-2.916-2.915-2.916z"/><circle fill="#FFF" cx="3.443" cy="15.078" r="2.891"/><path fill="#232323" d="M3.443 18.52C1.545 18.52 0 16.976 0 15.08c0-1.898 1.545-3.443 3.443-3.443 1.897 0 3.443 1.545 3.443 3.443 0 1.897-1.546 3.443-3.443 3.443zm0-5.782c-1.29 0-2.34 1.048-2.34 2.34s1.05 2.34 2.34 2.34 2.34-1.05 2.34-2.34-1.05-2.34-2.34-2.34z"/><circle fill="#FFF" cx="28.557" cy="15.078" r="2.891"/><path fill="#232323" d="M28.557 18.52c-1.897 0-3.442-1.546-3.442-3.443 0-1.898 1.545-3.443 3.442-3.443 1.898 0 3.443 1.545 3.443 3.443 0 1.898-1.545 3.444-3.443 3.444zm0-5.782c-1.29 0-2.34 1.048-2.34 2.34s1.05 2.34 2.34 2.34 2.34-1.05 2.34-2.34-1.05-2.34-2.34-2.34z"/><ellipse fill="#FFF" cx="16" cy="20.098" rx="14.525" ry="9.201"/><path fill="#232323" d="M16 29.852c-8.313 0-15.078-4.375-15.078-9.754S7.687 10.343 16 10.343s15.077 4.376 15.077 9.755S24.313 29.852 16 29.852zm0-18.406c-7.705 0-13.974 3.882-13.974 8.65 0 4.77 6.268 8.65 13.974 8.65 7.707 0 13.975-3.88 13.975-8.65 0-4.767-6.268-8.65-13.975-8.65zm0 15.036c-2.474 0-5.296-.53-6.02-1.717-.16-.26-.077-.6.185-.76.258-.158.6-.076.758.184.287.48 2.108 1.19 5.076 1.19 2.968 0 4.78-.71 5.075-1.19.156-.26.496-.343.76-.183.258.158.344.496.18.76-.72 1.186-3.54 1.715-6.015 1.715z"/><circle fill="#FF4500" cx="21.313" cy="17.685" r="2.426"/><circle fill="#FF4500" cx="10.688" cy="17.685" r="2.426"/></svg>