<svg xmlns="http://www.w3.org/2000/svg" width="32" height="32" viewBox="0 0 32 32"><path fill="#73CFEF" d="M28.668 17.803c.078-.57.122-1.147.122-1.735 0-7.064-5.757-12.79-12.857-12.79-.706 0-1.396.057-2.07.168-1.208-.788-2.645-1.245-4.19-1.245C5.433 2.2 2 5.637 2 9.875c0 1.542.455 2.974 1.236 4.177-.105.658-.16 1.332-.16 2.017 0 7.063 5.755 12.79 12.855 12.79.804 0 1.583-.077 2.34-.215 1.18.73 2.57 1.156 4.057 1.156 4.238 0 7.672-3.436 7.672-7.674 0-1.6-.49-3.09-1.332-4.32z"/><path opacity=".3" d="M28.668 17.803c.078-.57.122-1.147.122-1.735 0-3.662-1.554-6.954-4.034-9.286 2.162 2.29 3.496 5.36 3.496 8.747 0 .588-.045 1.166-.123 1.734.843 1.23 1.33 2.72 1.33 4.322 0 4.238-3.434 7.675-7.672 7.675-1.486 0-2.875-.424-4.055-1.155-.758.137-1.538.215-2.34.215-3.42 0-6.52-1.338-8.82-3.503 2.343 2.48 5.666 4.042 9.36 4.042.803 0 1.582-.078 2.34-.216 1.18.73 2.568 1.156 4.056 1.156 4.237 0 7.67-3.436 7.67-7.674 0-1.603-.49-3.092-1.332-4.323z"/><path opacity=".3" d="M3.886 16.606c0-.686.055-1.36.16-2.016-.782-1.202-1.237-2.635-1.237-4.177 0-4.238 3.433-7.672 7.67-7.672 1.547 0 2.983.46 4.19 1.245.675-.11 1.366-.168 2.07-.168 2.477 0 4.78.708 6.742 1.914-2.12-1.534-4.725-2.453-7.55-2.453-.706 0-1.396.058-2.07.17-1.208-.79-2.645-1.246-4.19-1.246C5.434 2.2 2 5.637 2 9.875c0 1.542.455 2.974 1.236 4.177-.105.658-.16 1.332-.16 2.017 0 4.6 2.45 8.624 6.114 10.875-3.208-2.323-5.304-6.083-5.304-10.336z"/><path opacity=".3" d="M16.008 26.6c-3.215 0-5.348-.77-7.36-2.655-1.303-1.226-1.797-2.75-1.32-4.082.372-1.045 1.296-1.74 2.41-1.814 1.615-.11 2.652 1.043 3.406 1.87.23.25.49.536.635.627.347.218 1.486.694 2.602.694.797 0 1.386-.23 1.8-.702.255-.292.318-.487.298-.542-.122-.332-1.206-.954-3.146-1.238-3.894-.577-8.303-2.716-7.923-6.847.33-3.575 2.943-6.104 6.656-6.44 3.587-.33 6.143.41 8.386 2.324 1.825 1.557 1.59 3.163 1.403 3.78-.328 1.088-1.27 1.906-2.346 2.036l-.23.014c-.928 0-1.67-.64-2.454-1.32-.887-.77-1.89-1.638-3.192-1.66-1.376 0-2.19.786-2.24 1.19-.025.21.372.526 1.182.723.516.125 1.038.24 1.558.355 3.373.744 6.863 1.512 8.312 4.944.672 1.592.498 3.337-.49 4.913-1.357 2.165-4.012 3.657-6.764 3.8-.415.02-.81.03-1.184.03zm-6.072-6.405c-.31.02-.498.157-.582.393-.138.385-.008 1.056.77 1.786 1.513 1.42 3.187 2.237 6.956 2.044 2.04-.106 4.07-1.23 5.05-2.794.43-.683.832-1.744.33-2.932-1.015-2.406-3.69-2.996-6.79-3.678-.534-.118-1.07-.236-1.603-.366-2.867-.697-2.877-2.527-2.812-3.072.204-1.702 2.146-3.087 4.33-3.087 2.167.033 3.603 1.275 4.652 2.183.347.3.873.756 1.07.798.14-.023.395-.213.487-.518.136-.45-.134-1.004-.74-1.52-1.78-1.52-3.862-2.087-6.793-1.818-2.09.19-4.425 1.47-4.703 4.494-.26 2.816 3.707 4.165 6.09 4.518 1.534.224 4.207.864 4.855 2.624.226.61.287 1.578-.698 2.705-.823.94-2.007 1.438-3.42 1.438-1.67 0-3.18-.668-3.745-1.02-.397-.248-.73-.614-1.086-1.003-.502-.55-1.07-1.175-1.618-1.175z"/><path fill="#FFF" d="M14.163 6.003c3.503-.32 5.786.53 7.59 2.07 2.085 1.78.957 3.768-.373 3.93-1.322.158-2.81-2.928-5.73-2.974-3.01-.048-5.043 3.13-1.328 4.035 3.717.902 7.697 1.273 9.13 4.67 1.436 3.398-2.228 7.008-6.316 7.22-4.087.213-5.998-.69-7.75-2.334-1.955-1.835-1.17-3.93.423-4.035 1.59-.106 2.548 1.805 3.4 2.337.848.53 4.077 1.737 5.783-.214 1.858-2.123-1.234-3.222-3.503-3.555-3.237-.48-7.324-2.23-7.006-5.682.318-3.45 2.93-5.218 5.68-5.467z"/></svg>