<svg xmlns="http://www.w3.org/2000/svg" width="32" height="32" viewBox="0 0 32 32"><path fill="#777" d="M25.185 28.25c0 1.94-1.57 3.512-3.513 3.512H3.515c-1.94 0-3.513-1.57-3.513-3.512V17.475c0-1.94 1.572-3.51 3.513-3.51h18.157c1.94 0 3.513 1.576 3.513 3.516v10.77z"/><path fill="#FFF" d="M8.95 18.132v9.533l7.288-4.87-7.29-4.663z"/><path fill="#777" d="M17.11.242c-3.326 0-6.022 2.693-6.022 6.02s2.696 6.02 6.02 6.02c3.326 0 6.02-2.7 6.02-6.026.008-3.325-2.688-6.02-6.02-6.02v.006zm0 10.035c-2.218 0-4.016-1.8-4.016-4.016 0-2.218 1.797-4.014 4.014-4.014 2.212 0 4.01 1.796 4.01 4.015 0 2.22-1.798 4.017-4.016 4.017h.007zM6.07 4.257c-2.218 0-4.014 1.795-4.014 4.013s1.796 4.016 4.014 4.016c2.21 0 4.01-1.797 4.01-4.016 0-2.218-1.8-4.014-4.016-4.014h.007z"/><path fill="#444" d="M17.11 10.277c-2.218 0-4.016-1.8-4.016-4.016 0-2.218 1.797-4.014 4.014-4.014 2.212 0 4.01 1.796 4.01 4.015 0 2.22-1.798 4.017-4.016 4.017h.007z"/><path fill="#777" d="M31.997 30.04l-5.207-4.125v-6.107l5.207-4.123V30.04z"/></svg>