<svg xmlns="http://www.w3.org/2000/svg" width="32" height="32" viewBox="0 0 32 32"><circle fill="#FFF" cx="16" cy="16" r="16"/><path fill="#16638A" d="M16 0C7.164 0 0 7.162 0 16c0 8.834 7.164 16 16 16 8.834 0 16-7.166 16-16 0-8.838-7.166-16-16-16zM1.233 16c0-2.142.46-4.176 1.28-6.01l7.042 19.298C4.63 26.895 1.233 21.842 1.233 16zM16 30.767c-1.45 0-2.85-.212-4.173-.602L16.26 17.29l4.538 12.437c.03.07.065.14.104.2-1.532.544-3.18.84-4.902.84zm2.034-21.69c.892-.047 1.69-.142 1.69-.142.795-.095.7-1.265-.093-1.22 0 0-2.393.19-3.935.19-1.452 0-3.89-.19-3.89-.19-.796-.046-.89 1.168-.094 1.218 0 0 .753.096 1.55.14l2.3 6.307-3.23 9.69L6.95 9.075c.89-.045 1.69-.14 1.69-.14.796-.095.7-1.265-.094-1.22 0 0-2.39.19-3.936.19-.278 0-.602-.008-.948-.022C6.304 3.877 10.84 1.233 16 1.233c3.846 0 7.346 1.47 9.97 3.877-.062-.004-.126-.015-.19-.015-1.452 0-2.48 1.267-2.48 2.622 0 1.22.703 2.247 1.45 3.464.562.984 1.222 2.246 1.222 4.074 0 1.26-.38 2.852-1.125 4.772l-1.476 4.92-5.336-15.87zm5.393 19.685l4.51-13.038c.84-2.106 1.12-3.792 1.12-5.29 0-.544-.035-1.05-.1-1.52 1.152 2.105 1.81 4.518 1.81 7.086 0 5.446-2.954 10.202-7.34 12.762z"/></svg>