<svg xmlns="http://www.w3.org/2000/svg" width="32" height="32" viewBox="0 0 32 32"><path fill="#DD1B16" d="M15.88 30.84L4.116 24.038 2.22 5.973l13.772-4.91 13.775 4.91-2.123 18.065"/><path fill="#fff" d="M20.49 18.936l2.14 4.545h3.2L15.908 2.405 6.43 23.48h3.437l2.044-4.547 8.58.003zm-4.575-10.02l3.35 7.11H12.72l3.197-7.11z"/><path opacity=".2" d="M15.992 1.064l-.113.042V30.84l11.764-6.802 2.123-18.065-13.776-4.91z"/><path fill="#B3B3B3" d="M15.992 1.064L29.768 5.97l-2.123 18.07-11.766 6.8-11.767-6.802L2.218 5.973l13.78-4.91m0-1.063l-.337.12L1.89 5.026l-.745.266.082.785 1.89 18.063.055.51.442.257L15.38 31.71l.5.29.5-.29 11.767-6.804.436-.25.06-.5L30.76 6.088l.094-.796-.752-.268L16.33.12 15.99 0h.005z"/></svg>