<svg xmlns="http://www.w3.org/2000/svg" width="32" height="32" viewBox="0 0 32 32"><path fill="#fff" d="M24.73 17.003c-.04-4.052 3.305-5.994 3.454-6.092-1.88-2.75-4.807-3.124-5.85-3.167-2.49-.253-4.86 1.467-6.125 1.467-1.26 0-3.214-1.43-5.28-1.395-2.717.04-5.22 1.576-6.62 4.01-2.82 4.896-.72 12.147 2.03 16.117 1.342 1.944 2.944 4.13 5.05 4.052 2.02-.082 2.79-1.313 5.237-1.313s3.14 1.315 5.282 1.273c2.18-.04 3.56-1.98 4.894-3.93 1.54-2.256 2.18-4.44 2.212-4.552-.05-.02-4.252-1.63-4.294-6.467h.007zm-4.027-11.89c1.117-1.354 1.87-3.235 1.666-5.11-1.61.067-3.56 1.07-4.714 2.423-1.037 1.2-1.943 3.113-1.7 4.952 1.797.14 3.63-.914 4.746-2.265z"/><path fill="#B3B3B3" d="M20.032 5.422c.962-1.17 1.607-2.797 1.433-4.42-1.385.06-3.06.928-4.052 2.096-.893 1.036-1.67 2.692-1.463 4.282 1.546.12 3.12-.79 4.082-1.958z"/><path fill="#999" d="M21.087 1.526c-.18.98-.643 1.966-1.332 2.803-.686.83-1.617 1.435-2.54 1.694.198-1.103.803-2.138 1.38-2.803.618-.722 1.558-1.346 2.492-1.695M22.37.003c-1.61.066-3.56 1.07-4.713 2.422-1.037 1.2-1.943 3.113-1.7 4.952.107.01.214.013.322.013 1.69 0 3.37-1.01 4.417-2.28 1.12-1.358 1.87-3.237 1.67-5.107z"/><path fill="#B3B3B3" d="M24.73 17.003c-.04-4.052 3.305-5.994 3.454-6.092-1.88-2.75-4.807-3.124-5.85-3.167-2.49-.253-4.86 1.467-6.125 1.467-1.26 0-3.214-1.43-5.28-1.395-2.717.04-5.22 1.576-6.62 4.01-2.82 4.896-.72 12.147 2.03 16.117 1.342 1.944 2.944 4.13 5.05 4.052 2.02-.082 2.79-1.313 5.237-1.313s3.14 1.315 5.282 1.273c2.18-.04 3.56-1.98 4.894-3.93 1.54-2.256 2.18-4.44 2.212-4.552-.05-.02-4.252-1.63-4.294-6.467h.007z"/><path fill="#999" d="M21.827 8.947c.127 0 .256.006.385.02l.035.003.038.002c.81.034 2.646.28 4.126 1.73-1.263 1.1-2.94 3.16-2.91 6.313.036 4.02 2.54 6.152 4.01 7.057-.33.83-.882 2.042-1.716 3.26-1.35 1.97-2.42 3.367-3.902 3.396h-.073c-.74 0-1.248-.22-1.89-.5-.798-.35-1.788-.775-3.295-.775-1.564 0-2.595.438-3.423.792-.65.27-1.16.49-1.87.52h-.062c-1.38 0-2.697-1.74-3.93-3.52-2.38-3.44-4.565-10.304-1.972-14.807 1.183-2.06 3.316-3.36 5.628-3.394.91 0 1.853.376 2.766.738.85.336 1.652.653 2.434.653.725 0 1.486-.302 2.37-.647 1-.4 2.14-.85 3.245-.85m0-1.23c-2.296.004-4.436 1.494-5.615 1.494-1.24 0-3.16-1.396-5.195-1.396h-.08c-2.716.043-5.22 1.58-6.617 4.014-2.82 4.894-.726 12.146 2.023 16.116 1.326 1.92 2.897 4.06 4.947 4.06h.108c2.027-.083 2.794-1.314 5.244-1.314 2.41 0 3.116 1.272 5.184 1.272h.098c2.18-.042 3.56-1.98 4.895-3.933 1.55-2.253 2.18-4.436 2.22-4.55-.05-.02-4.25-1.63-4.293-6.47-.04-4.05 3.304-5.992 3.453-6.09-1.88-2.75-4.81-3.125-5.85-3.17-.17-.016-.34-.023-.51-.023l-.01-.008z"/></svg>