<svg xmlns="http://www.w3.org/2000/svg" xmlns:xlink="http://www.w3.org/1999/xlink" width="32" height="32" viewBox="0 0 32 32"><symbol id="a" viewBox="-16.001 -16 32 32"><use xlink:href="#_x5F_button_x5F_shape" width="32" height="32" x="-16" y="-16" transform="translate(-.001)" overflow="visible"/><path fill="#999" d="M16-12c0-2.21-1.792-4-4-4h-24c-2.21 0-4 1.79-4 4v24c0 2.21 1.79 4 4 4h24c2.208 0 4-1.79 4-4v-24z"/><g><use xlink:href="#_x5F_button_x5F_shape" width="32" height="32" x="-16" y="-16" transform="matrix(.938 0 0 .938 -.001 0)" overflow="visible"/><path fill="#F2F2F2" d="M15-11.25c0-2.07-1.68-3.75-3.75-3.75h-22.5c-2.072 0-3.75 1.68-3.75 3.75v22.5c0 2.07 1.678 3.75 3.75 3.75h22.5c2.07 0 3.75-1.68 3.75-3.75v-22.5z"/></g></symbol><use xlink:href="#a" width="32" height="32" x="-16.001" y="-16" transform="matrix(1 0 0 -1 16.002 16)" overflow="visible"/><use xlink:href="#_x5F_button_x5F_shape" width="32" height="32" x="-16" y="-16" transform="matrix(1 0 0 -1 16 16)" overflow="visible"/><path fill="#999" d="M32 28c0 2.21-1.79 4-4 4H4c-2.21 0-4-1.79-4-4V4c0-2.21 1.79-4 4-4h24c2.21 0 4 1.79 4 4v24z"/><path fill="#FB913F" d="M32 28c0 2.21-1.79 4-4 4H4c-2.21 0-4-1.79-4-4V4c0-2.21 1.79-4 4-4h24c2.21 0 4 1.79 4 4v24zm0 0c0 2.21-1.79 4-4 4H4c-2.21 0-4-1.79-4-4V4c0-2.21 1.79-4 4-4h24c2.21 0 4 1.79 4 4v24zm0 0c0 2.21-1.79 4-4 4H4c-2.21 0-4-1.79-4-4V4c0-2.21 1.79-4 4-4h24c2.21 0 4 1.79 4 4v24z"/><path fill="#fff" d="M28.62 12.907v-.018h-2.292v-.004c-.85-.013-1.512-.158-1.512-1.77V9.8c0-4.296-3.482-7.778-7.777-7.778H9.78C5.483 2.022 2 5.504 2 9.8v12.4c0 4.297 3.482 7.777 7.777 7.777H22.22c4.105 0 7.46-3.183 7.75-7.215H30v-8.318c.002-.8-.604-1.45-1.38-1.537zM11.075 9.044h4.666c1.003 0 1.815.812 1.815 1.814 0 1.003-.813 1.815-1.814 1.815h-4.665c-1.003 0-1.815-.812-1.815-1.815 0-1.002.813-1.814 1.816-1.814zm4.957 8.462l-.03.043-.04-.056.07.01zm4.894 5.538h-9.85c-1.004 0-1.816-.813-1.816-1.815 0-1.004.814-1.816 1.816-1.816h9.85c1.004 0 1.816.813 1.816 1.814 0 1-.812 1.814-1.815 1.814z"/></svg>