<svg xmlns="http://www.w3.org/2000/svg" xmlns:xlink="http://www.w3.org/1999/xlink" width="192" height="96" viewBox="0 0 192 96"><symbol id="b" viewBox="-16.5 -16.5 33 33"><use xlink:href="#a" width="32" height="32" x="-16" y="-16" overflow="visible"/></symbol><symbol id="a" viewBox="-16 -16 32 32"><path fill="#ADADAD" d="M0-15c-8.27 0-15 6.73-15 15s6.73 15 15 15S15 8.27 15 0 8.27-15 0-15z"/><path fill="#fff" d="M0 14c7.72 0 14-6.28 14-14S7.72-14 0-14-14-7.72-14 0s6.28 14 14 14m0 2c-8.836 0-16-7.164-16-16s7.164-16 16-16c8.837 0 16 7.164 16 16S8.837 16 0 16z"/></symbol><symbol id="c" viewBox="-16 -16 32 32"><path fill="#ADADAD" d="M-13-15c-1.103 0-2 .897-2 2v26c0 1.103.897 2 2 2h26c1.103 0 2-.897 2-2v-26c0-1.103-.897-2-2-2h-26z"/><path fill="#fff" d="M13 14c.552 0 1-.45 1-1v-26c0-.552-.448-1-1-1h-26c-.55 0-1 .448-1 1v26c0 .55.45 1 1 1h26m0 2h-26c-1.657 0-3-1.342-3-3v-26c0-1.655 1.343-3 3-3h26c1.657 0 3 1.345 3 3v26c0 1.658-1.343 3-3 3z"/></symbol><use xlink:href="#a" width="32" height="32" x="-16" y="-16" transform="matrix(1 0 0 -1 16 80)" overflow="visible"/><path fill="#fff" d="M18.826 74h-3.93l3.823 4.438H8v3.126h10.72L14.894 86h3.93L24 80z"/><use xlink:href="#a" width="32" height="32" x="-16" y="-16" transform="matrix(1 0 0 -1 80 80)" overflow="visible"/><path fill="#fff" d="M79.262 72H77v16h2.262L87 80z"/><use xlink:href="#a" width="32" height="32" x="-16" y="-16" transform="matrix(-1 0 0 1 176 80)" overflow="visible"/><path fill="#fff" d="M173.174 86h3.93l-3.823-4.436H184v-3.128h-10.72L177.106 74h-3.93L168 80z"/><use xlink:href="#a" width="32" height="32" x="-16" y="-16" transform="matrix(1 0 0 -1 16 16)" overflow="visible"/><path fill="#fff" d="M24 10h-4.196L16 13.867 12.197 10H8l5.9 6L8 22h4.197L16 18.135 19.804 22H24l-5.9-6z"/><use xlink:href="#b" width="33" height="33" x="-16.5" y="-16.5" transform="matrix(1 0 0 -1 16 48)" overflow="visible"/><path fill="#fff" d="M24 42h-4.196L16 45.867 12.197 42H8l5.9 6L8 54h4.197L16 50.135 19.804 54H24l-5.9-6z"/><use xlink:href="#b" width="33" height="33" x="-16.5" y="-16.5" transform="matrix(1 0 0 -1 48 80)" overflow="visible"/><path fill="#fff" d="M50.826 74h-3.93l3.823 4.438H40v3.126h10.72L46.894 86h3.93L56 80z"/><use xlink:href="#b" width="33" height="33" x="-16.5" y="-16.5" transform="matrix(1 0 0 -1 112 80)" overflow="visible"/><path fill="#fff" d="M111.262 72H109v16h2.262L119 80z"/><use xlink:href="#a" width="32" height="32" x="-16" y="-16" transform="matrix(1 0 0 -1 48 16)" overflow="visible"/><path fill="#fff" d="M42.9 8h3.2v16h-3.2zm7 0h3.2v16h-3.2z"/><use xlink:href="#b" width="33" height="33" x="-16.5" y="-16.5" transform="matrix(1 0 0 -1 48 48)" overflow="visible"/><path fill="#fff" d="M42.9 40h3.2v16h-3.2zm7 0h3.2v16h-3.2z"/><use xlink:href="#b" width="33" height="33" x="-16.5" y="-16.5" transform="matrix(-1 0 0 -1 144 80)" overflow="visible"/><path fill="#fff" d="M141.174 74h3.93l-3.823 4.438H152v3.126h-10.72L145.106 86h-3.93L136 80z"/><use xlink:href="#c" width="32" height="32" x="-16" y="-16" transform="matrix(1 0 0 -1 80 48)" overflow="visible"/><path fill="#fff" d="M88 42h-4.196L80 45.865 76.197 42H72l5.9 5.998L72 54h4.197L80 50.133 83.804 54H88l-5.9-6.002z"/><use xlink:href="#c" width="32" height="32" x="-16" y="-16" transform="matrix(1 0 0 -1 80 16.001)" overflow="visible"/><path fill="#fff" d="M88 10h-4.196L80 13.866 76.197 10H72l5.9 6-5.9 6h4.197L80 18.135 83.804 22H88l-5.9-6z"/></svg>