<svg xmlns="http://www.w3.org/2000/svg" width="32" height="32" viewBox="0 0 32 32"><path fill="#0070BA" d="M4.46 28.8L1.895 0H30.11l-2.57 28.796L15.98 32 4.46 28.8z"/><path fill="#28A9E0" d="M16 29.552l9.337-2.59 2.197-24.605H16v27.195z"/><path fill="#EBEBEB" d="M16 22.21l-.015.004-3.934-1.062-.25-2.815H8.25l.498 5.543 7.233 2.01.02-.003V22.21z"/><path fill="#fff" d="M15.988 13.036v3.532h4.35l-.41 4.582-3.94 1.063v3.676l7.244-2.01.05-.596.83-9.302.09-.948h-8.215zm0-7.15v3.5l-.065.03v3.642l8.588-3.635.01-.002.01-.23-.005.197.067-.754.16-1.79.087-.95-8.85-.006z"/><path fill="#EBEBEB" d="M16 5.887H7.147l.084.947.233 2.605 8.52-.023-8.106 3.61h-.104l.33 3.534h7.9V5.888z"/></svg>