<svg xmlns="http://www.w3.org/2000/svg" xmlns:xlink="http://www.w3.org/1999/xlink" width="32" height="32" viewBox="0 0 32 32"><symbol id="a" viewBox="-16 -14.061 32 28.121"><path fill="#ccc" d="M6.21-14.06H-6.208l3.153 5.528h6.11l3.155-5.53zm-10.378 1.184H4.17L2.366-9.714h-4.732l-1.802-3.162z"/><path d="M5.19-13.47H-5.19l2.48 4.35h5.42l2.48-4.35z"/><path fill="#ccc" d="M12.363-9.523h-24.728c-1.746 0-3.246 1.246-3.568 2.964l-.064.62L-16 10.423l.06.625c.33 1.77 1.83 3.013 3.576 3.013h24.728c1.746 0 3.247-1.238 3.57-2.96l.066-.62V-5.883l-.058-.622c-.332-1.77-1.833-3.014-3.58-3.014v-.003zm-24.727 22.397c-1.175 0-2.187-.84-2.404-1.995l-.05-.517.058-16.756c.21-1.106 1.22-1.945 2.396-1.945h24.728c1.176 0 2.188.84 2.406 1.996l.048.51-.056 16.76c-.21 1.1-1.223 1.94-2.398 1.94h-24.728v.006z"/><path d="M15.353 10.99c-.267 1.41-1.5 2.477-2.99 2.477h-24.727c-1.486 0-2.72-1.066-2.986-2.48l-.057-.564v-16.31l.057-.563c.265-1.41 1.5-2.48 2.986-2.48h24.728c1.49 0 2.723 1.068 2.99 2.48l.054.564v16.31l-.055.565z"/><path fill="#fff" d="M13.635-7.143h-27.268v18.82h27.268v-18.82z"/><path fill="#999" d="M13.93-7.44h-27.86v19.415h27.86V-7.44zm-27.266.594h26.674v18.228h-26.674V-6.846z"/><path fill="#ccc" d="M4.767 2.97C5.357-.1-.195-3.72-.195-3.72S3.085.724 2.348 3.99c-.736 3.264 1.458 7.267 1.458 7.267h4.39c-.002 0-4.02-5.215-3.43-8.288z"/><path fill="none" d="M4.767 2.97C5.357-.1-.195-3.72-.195-3.72S3.085.724 2.348 3.99c-.736 3.264 1.458 7.267 1.458 7.267h4.39c-.002 0-4.02-5.215-3.43-8.288z"/></symbol><use xlink:href="#a" width="32" height="28.121" x="-16" y="-14.061" transform="matrix(1 0 0 -1 16 16)" overflow="visible"/></svg>