<svg xmlns="http://www.w3.org/2000/svg" xmlns:xlink="http://www.w3.org/1999/xlink" width="32" height="32" viewBox="0 0 32 32"><symbol id="a" viewBox="-16.001 -16 32 32"><use xlink:href="#_x5F_button_x5F_shape" width="32" height="32" x="-16" y="-16" transform="translate(-.001)" overflow="visible"/><path fill="#999" d="M16-12c0-2.21-1.792-4-4-4h-24c-2.21 0-4 1.79-4 4v24c0 2.21 1.79 4 4 4h24c2.208 0 4-1.79 4-4v-24z"/><g><use xlink:href="#_x5F_button_x5F_shape" width="32" height="32" x="-16" y="-16" transform="matrix(.938 0 0 .938 -.001 0)" overflow="visible"/><path fill="#F2F2F2" d="M15-11.25c0-2.07-1.68-3.75-3.75-3.75h-22.5c-2.072 0-3.75 1.68-3.75 3.75v22.5c0 2.07 1.678 3.75 3.75 3.75h22.5c2.07 0 3.75-1.68 3.75-3.75v-22.5z"/></g></symbol><use xlink:href="#_x5F_button_x5F_shape" width="32" height="32" x="-16" y="-16" transform="matrix(1 0 0 -1 16 16)" overflow="visible"/><path fill="#999" d="M32 28c0 2.21-1.79 4-4 4H4c-2.21 0-4-1.79-4-4V4c0-2.21 1.79-4 4-4h24c2.21 0 4 1.79 4 4v24z"/><path fill="#3C4C48" d="M32 28c0 2.21-1.79 4-4 4H4c-2.21 0-4-1.79-4-4V4c0-2.21 1.79-4 4-4h24c2.21 0 4 1.79 4 4v24zm0 0c0 2.21-1.79 4-4 4H4c-2.21 0-4-1.79-4-4V4c0-2.21 1.79-4 4-4h24c2.21 0 4 1.79 4 4v24zm0 0c0 2.21-1.79 4-4 4H4c-2.21 0-4-1.79-4-4V4c0-2.21 1.79-4 4-4h24c2.21 0 4 1.79 4 4v24z"/><path fill="#D0DE21" d="M12.146 12.863c6.338-1.82 11.63 1.902 11.63 1.902l-4.362 1.18-1.256-2.335c-1.183-.218-2.53-.285-3.96-.046l2.97 6.037L30 15.907s-4.654-7.31-18.537-4.947c-.082.01-.153.03-.234.045L9.884 8.267H5.74l1.777 3.785c-8.424 3.48-4.69 11.682-4.69 11.682l12.85-3.7-3.53-7.17zm-5.843 6.62s-1.238-2.734 2.365-5.076l1.916 3.92-4.28 1.156z"/></svg>