<svg xmlns="http://www.w3.org/2000/svg" width="32" height="32" viewBox="0 0 32 32"><path fill="#005A8D" d="M22.97 5.95c-1.633-1.017-3.176-1.416-4.717-2.434C17.3 2.87 15.973 1.33 14.86 0c-.214 2.127-.862 2.99-1.602 3.608C11.688 4.84 10.7 5.21 9.343 5.95c-1.14.587-7.336 4.284-7.336 12.24 0 7.95 6.69 13.808 14.12 13.808S30 26.602 30 18.435c0-8.17-6.047-11.865-7.03-12.485z"/><path fill="#fff" d="M20.467 25.09c.492 0 1.02.032 1.388.28.368.247.586.8.707 1.106.124.31 0 .492-.245.617-.215.122-.247.06-.462-.338-.217-.4-.4-.806-1.48-.806-1.077 0-1.42.38-1.94.81-.523.43-.71.583-.895.34-.19-.25-.13-.496.21-.8.34-.31.895-.807 1.42-1.02.52-.216.8-.187 1.292-.187l.005-.005zm-5.17 3.306c.616.492 1.54.893 3.512.893s3.36-.56 3.97-1.023c.28-.22.4-.03.434.093.03.124.093.31-.125.522-.154.152-1.57 1.14-3.236 1.295-1.665.15-3.917.245-5.272-.985-.214-.217-.155-.52 0-.646.154-.123.278-.218.464-.218.184 0 .153 0 .247.06l.003.008z"/><path fill="#0073BA" d="M7.795 26.263c2.345-.027 2.774-.43 4.84-1.356 11.16-4.995 13.224-9.557 13.626-10.604.403-1.048.987-2.74.373-4.625-.12-.36-.208-.652-.27-.888-1.484-1.657-2.958-2.563-3.404-2.842-1.6-1.018-3.174-1.417-4.715-2.435-.953-.616-2.28-2.19-3.39-3.513-.22 2.127-.834 3.02-1.603 3.605-1.568 1.23-2.56 1.604-3.91 2.342C8.198 6.563 2 10.234 2 18.183c0 2.54.68 4.863 1.85 6.854l.31-.012c.65.592 1.664 1.27 3.635 1.238z"/><path fill="#054A75" d="M22.96 5.948c-1.6-1.018-3.172-1.417-4.713-2.435-.954-.616-2.282-2.19-3.39-3.513-.22 2.127-.835 3.02-1.604 3.605-1.572 1.23-2.56 1.604-3.916 2.342C8.194 6.563 2 10.234 2 18.183c0 2.54.68 4.863 1.85 6.854 2.498 4.24 7.212 6.954 12.27 6.954 7.43 0 13.87-5.394 13.87-13.56 0-4.48-1.822-7.62-3.63-9.64-1.48-1.65-2.954-2.56-3.4-2.84zm3.75 3.61c2.024 2.53 3.05 5.517 3.05 8.874 0 1.95-.37 3.79-1.105 5.476-.692 1.596-1.693 3.013-2.97 4.203-2.53 2.36-5.93 3.66-9.565 3.66-1.803 0-3.568-.343-5.256-1.02-1.655-.664-3.146-1.62-4.433-2.836-2.7-2.56-4.2-6.012-4.2-9.72 0-3.303 1.08-6.232 3.19-8.723 1.62-1.9 3.36-2.95 4.03-3.312.33-.18.64-.334.93-.487.93-.48 1.81-.93 3.02-1.876.648-.49 1.33-1.265 1.627-3.235 1.018 1.213 2.2 2.57 3.103 3.153.804.53 1.622.897 2.422 1.26.746.335 1.525.69 2.295 1.176l.03.016c2.246 1.403 3.447 2.902 3.84 3.395h-.008z"/><path fill="#93C4E2" d="M15.166 1.403c.433 1.264.37 1.912.37 2.188 0 .28-.152 1.02-.645 1.39-.21.153-.27.277-.27.31 0 .123.28.217.28.494 0 .34-.157 1.02-1.79 2.65-1.635 1.638-3.98 3.085-5.795 3.98-1.82.896-2.683.83-2.93.398-.246-.428.093-1.383 1.233-2.648 1.14-1.263 4.75-3.08 4.75-3.08l4.5-3.146.246-1.2"/><path fill="#fff" d="M15.166 1.374c-.275 2.033-.894 2.646-1.727 3.296-1.39 1.043-2.75 1.69-3.05 1.85-.81.4-3.708 2-5.22 4.31-.46.712 0 .99.095 1.05.09.06 1.14.186 3.392-1.17 2.25-1.357 3.234-2.158 4.5-3.486.68-.708.77-1.11.77-1.293 0-.213-.154-.307-.4-.37-.125-.024-.154-.09 0-.18.152-.095.8-.4.954-.524.154-.123.897-.62.926-1.417.03-.81-.03-1.36-.248-2.07l.006.005zM7.916 22.05c.033-2.4 2.28-4.65 5.118-4.68 3.606-.036 6.104 3.57 7.924 3.54 1.54-.028 4.5-3.05 5.95-3.05 1.54 0 1.97 1.6 1.97 2.556 0 .954-.31 2.68-1.05 3.758-.74 1.082-1.2 1.482-2.07 1.42-1.108-.093-3.328-3.548-4.744-3.61-1.783-.06-5.668 3.735-8.722 3.735-1.85 0-2.403-.278-3.02-.68-.924-.65-1.387-1.635-1.357-2.995l.002.003z"/><path d="M26.633 9.678c.614 1.884.03 3.577-.37 4.625-.403 1.048-2.467 5.61-13.628 10.602-2.064.93-2.494 1.33-4.84 1.356-1.97.034-2.986-.644-3.635-1.23l-.307.013c2.5 4.24 7.216 6.954 12.27 6.954 7.428 0 13.875-5.396 13.875-13.563 0-4.483-1.823-7.622-3.63-9.642.064.234.152.525.272.89h-.007z" fill="none"/></svg>