<svg xmlns="http://www.w3.org/2000/svg" width="32" height="32" viewBox="0 0 32 32"><circle fill="#fff" cx="16" cy="16" r="16"/><path fill="gray" d="M16 0C7.164 0 0 7.164 0 16c0 8.835 7.164 16 16 16 8.837 0 16-7.165 16-16 0-8.836-7.163-16-16-16zm-.784 29.93c-.252-.013-.498-.032-.745-.06v-5.962c0-.788.397-1.366.397-1.366s.352.578.352 1.366c0 .486 0 3.657-.003 6.023zm1.868-.022c-.247.02-.497.032-.747.038V23.66c0-.788.393-1.366.393-1.366s.354.58.354 1.367v6.25zm1.862-.267c-.244.056-.495.103-.743.143V23.91c0-.78.393-1.36.393-1.36s.353.58.353 1.367v5.733l-.005-.01zm1.37-.37v-6.31c0-1.357-.81-2.526-1.976-3.044h1.794c1.583 0 2.995-.69 3.983-1.774 1.958.32 4.002.735 5.04 1.188l.248-.565c-1.032-.445-2.95-.85-4.835-1.17.03-.046.063-.088.092-.133 1.806.148 3.607.37 4.587.696l.192-.586c-.982-.326-2.708-.548-4.46-.703.353-.718.564-1.513.564-2.366v-1.646c0-1.474-.588-2.81-1.542-3.785V5.187l-3.22 2.297c-.215-.028-.432-.043-.658-.043h-7.222c-.217 0-.437.017-.65.043L9.04 5.173V9.06c-.954.976-1.543 2.312-1.543 3.785v1.646c0 .815.194 1.59.52 2.28-2.07.15-4.293.395-5.464.785l.194.586c1.16-.39 3.484-.63 5.594-.772.014.017.017.035.028.057-2.156.336-4.574.803-5.782 1.326l.247.564c1.207-.522 3.767-.995 5.97-1.333.994 1.167 2.454 1.923 4.103 1.923h2.166c-1.165.52-1.977 1.685-1.977 3.043v.022h-.972c-1.57 0-2.69-2.71-5.68-2.71 2.45 1.077 2.987 4.08 5.184 4.08h1.466v5.31C6.79 28.313 2.046 22.712 2.046 16 2.046 8.293 8.293 2.046 16 2.046c7.71 0 13.954 6.248 13.954 13.954 0 6.2-4.04 11.45-9.635 13.268l-.004.003z"/></svg>