<svg xmlns="http://www.w3.org/2000/svg" width="32" height="32" viewBox="0 0 32 32"><path fill="#006DBC" d="M10.648 10.784H6.012l.87-4.057h4.637l-.873 4.057zM10.55 11.41H5.94L3.276 24.15c-.39 1.402-.288 1.458-1.817 1.458-.16 0-.315-.016-.467-.034v.03h-.12l-.87 4.06h4.05l.024-.02c1.572-.01 3.006-1.34 3.268-2.61l3.21-15.628-.005.005z"/><path fill="#1A202E" d="M29.46 19.044c.125-.225.233-.628.336-.9.288-.773.56-1.556.813-2.342.64-1.985 1.24-4.054 1.38-6.145.05-.777-.234-2.21-.566-2.93-.59-1.27-1.077-1.907-2.16-2.8-1.71-1.4-3.847-1.61-5.97-1.586-1.72.02-3.438.235-4.978 1.035-2.27 1.18-3.767 3.37-4.76 5.66-1.01 2.314-1.58 4.928-1.41 7.462.16 2.366 1.154 4.96 3.5 5.91 1.407.57 2.928.49 4.41.49h10.827c.164 0 .174-.25.22-.393.135-.438.258-.877.365-1.32.175-.708.322-1.424.444-2.143-.815-.015-1.637 0-2.455 0m-4.567 0h-3.88c-1.026 0-2.82.04-3.517-.823-.7-.87-.666-2.43-.536-3.51.157-1.284.492-2.47.89-3.632.728-2.128 2.232-3.885 4.525-4.263.957-.155 2.07-.166 2.968.24.93.42 1.572 1.467 1.7 2.458.176 1.39-.23 2.888-.568 4.22-.445 1.748-1.007 3.463-1.578 5.167"/></svg>