<svg xmlns="http://www.w3.org/2000/svg" width="32" height="32" viewBox="0 0 32 32"><path fill="#BBCFE5" d="M18.96 3.785c-.992 1.487-2.12 3.44-2.842 5.543-1.128 3.275-1.577 6.182-1.74 7.545h6.66l-.688 1.162c-.014.024-1.432 2.48-1.432 5.863 0 1.684.205 3.056.475 4.138h10.88V3.786H18.96z"/><path fill="#3B90CB" d="M18.468 18.413h-5.763v-.006l.054-.814c.015-.164.29-4.06 1.905-8.766.644-1.872 1.568-3.608 2.46-5.042H1.727v24.25h16.08c-.25-1.13-.43-2.502-.43-4.137 0-2.378.61-4.326 1.09-5.485z"/><path d="M16.33 23.898c-7.413 0-10.193-2.403-10.31-2.507l1.02-1.15c.027.02 2.545 2.12 9.29 2.12 6.734 0 9.168-2.09 9.19-2.11l1.04 1.135c-.11.103-2.808 2.514-10.23 2.514zm-6.14-12.832H8.65v-3.4h1.54v3.4zm12.64 0h-1.54v-3.4h1.54v3.4zM19.397 32c-.083-.107-2.02-2.706-2.02-8.102 0-2.38.612-4.326 1.092-5.485h-5.764l.054-.82c.01-.164.283-4.06 1.9-8.766C16.298 4.074 19.736.164 19.88 0l1.15 1.022c-.028.036-3.38 3.85-4.913 8.306-1.128 3.275-1.578 6.182-1.74 7.545h6.66l-.688 1.162c-.016.024-1.434 2.48-1.434 5.863 0 4.825 1.688 7.146 1.705 7.17L19.397 32z"/></svg>