<svg xmlns="http://www.w3.org/2000/svg" width="96" height="32" viewBox="-0.167 0 96 32"><path d="M29.486 0c1.295 0 2.348 1.053 2.348 2.347v27.307c0 1.294-1.053 2.346-2.348 2.346H2.18C.888 32-.165 30.948-.165 29.652V2.347C-.165 1.053.887 0 2.18 0h27.306" fill="none"/><path fill="#777" d="M27.957 3.854c0 1.118-.902 2.02-2.02 2.02H5.73c-1.116 0-2.02-.904-2.02-2.02s.904-2.02 2.02-2.02h20.207c1.118 0 2.02.904 2.02 2.02zm0 15.125c0 1.11-.902 2.02-2.02 2.02H5.73c-1.116 0-2.02-.91-2.02-2.02 0-1.12.904-2.027 2.02-2.027h20.207c1.117 0 2.02.904 2.02 2.02v.005zm0-7.57c0 1.116-.902 2.02-2.02 2.02H5.73c-1.116 0-2.02-.904-2.02-2.02s.904-2.02 2.02-2.02h20.207c1.118 0 2.02.904 2.02 2.02z"/><path fill="#5B5B5B" d="M10.54 29.833V25c0-.248.02-.646.06-1.197h-.02c-.047.146-.09.273-.127.38-.04.11-.078.196-.11.268l-2.44 5.38h-.28L5.18 24.48c-.073-.165-.146-.395-.22-.69h-.02c.012.15.02.32.026.515.005.192.007.404.007.64v4.89h-.63v-7.002h.767L7.49 28.1c.05.11.096.22.143.34.047.11.09.233.13.363h.028l.127-.356c.038-.108.085-.227.14-.352l2.397-5.27h.728v7.003h-.64v.005zm2.648-2.388c.004.306.045.58.123.824.08.24.19.446.34.617.146.162.324.3.534.383.21.09.447.137.71.137.563 0 1.094-.197 1.596-.59v.614c-.48.344-1.06.514-1.74.514-.334 0-.64-.06-.912-.178s-.506-.287-.698-.51c-.192-.227-.34-.5-.444-.822-.104-.324-.156-.695-.156-1.113 0-.372.057-.72.17-1.04.115-.32.273-.594.475-.826.202-.23.44-.414.718-.547.277-.13.58-.195.91-.195.32 0 .605.06.853.17.248.112.455.272.623.48.165.208.293.462.38.762s.134.635.134 1.006v.313h-3.61l-.007.005zm2.97-.547c-.01-.52-.133-.926-.37-1.21-.24-.288-.57-.434-.99-.434-.21 0-.41.037-.59.112-.18.072-.34.184-.475.322-.14.145-.25.313-.34.52-.09.205-.157.436-.19.688h2.956v.002zm5.244 2.935v-2.88c0-1.13-.41-1.695-1.23-1.695-.22 0-.42.043-.605.13-.186.087-.346.205-.48.358-.134.152-.237.335-.313.544-.076.21-.115.438-.115.683v2.86h-.627v-5h.625v.87h.02c.37-.658.93-.987 1.675-.987.547 0 .965.18 1.25.532.287.354.432.867.432 1.538v3.047H21.4zm5.4 0v-.85h-.02c-.34.645-.864.967-1.577.967-1.188 0-1.78-.726-1.78-2.18v-2.94h.624v2.823c0 .6.103 1.04.32 1.326.21.285.537.43.98.43.21 0 .406-.04.584-.125.178-.082.332-.2.46-.354.128-.15.228-.33.3-.542.072-.215.105-.448.105-.704v-2.86h.62v5h-.627l.007.007z"/><path d="M93.486 0c1.296 0 2.348 1.053 2.348 2.347v27.307c0 1.294-1.052 2.346-2.348 2.346H66.182c-1.295 0-2.348-1.052-2.348-2.348V2.347C63.834 1.053 64.887 0 66.182 0h27.304" fill="none"/><path fill="#777" d="M88.455 20.403c-.79.79-2.066.79-2.856 0L71.31 6.116c-.788-.79-.788-2.067 0-2.856.79-.79 2.068-.79 2.857 0l14.288 14.288c.79.79.79 2.067 0 2.855zm.002-17.14c.785.785.79 2.067 0 2.857L74.17 20.41c-.79.788-2.072.784-2.857-.002-.792-.79-.793-2.07-.005-2.86l14.29-14.29c.79-.79 2.067-.79 2.857 0l.002.005z"/><path fill="#5B5B5B" d="M74.54 29.833V25c0-.248.02-.646.06-1.197h-.02c-.047.146-.09.273-.127.38-.04.11-.078.196-.11.268l-2.44 5.38h-.28l-2.442-5.35c-.07-.164-.144-.394-.22-.69h-.02c.014.15.02.32.027.516.005.192.007.404.007.64v4.89h-.63v-7.002h.767l2.38 5.267c.05.11.097.22.144.34.047.11.09.233.13.363h.028l.126-.356c.038-.108.085-.227.14-.352l2.397-5.27h.73v7.003h-.642v.006zm2.65-2.388c.003.306.044.58.122.824.078.24.19.446.336.617.147.162.326.3.535.383.21.09.447.137.71.137.564 0 1.095-.197 1.597-.59v.614c-.48.344-1.06.514-1.738.514-.335 0-.64-.06-.913-.178s-.508-.287-.7-.51c-.19-.227-.34-.5-.443-.822-.104-.324-.156-.695-.156-1.113 0-.372.058-.72.17-1.04.116-.32.274-.594.476-.826.203-.23.44-.414.72-.547.276-.13.58-.195.907-.195.32 0 .606.06.854.17.248.112.455.272.623.48.168.208.296.462.384.762s.133.635.133 1.006v.313h-3.61l-.008.005zm2.97-.547c-.012-.52-.135-.926-.37-1.21-.24-.288-.57-.434-.993-.434-.21 0-.408.037-.588.112-.18.072-.34.184-.48.322-.14.145-.25.313-.34.52-.09.205-.155.436-.19.688h2.96v.002zm5.242 2.935v-2.88c0-1.13-.41-1.695-1.23-1.695-.218 0-.42.043-.605.13-.185.087-.346.205-.48.358-.134.152-.237.335-.313.544-.076.21-.115.438-.115.683v2.86h-.627v-5h.625v.87h.02c.37-.658.93-.987 1.675-.987.547 0 .965.18 1.25.532.287.354.432.867.432 1.538v3.047H85.4zm5.4 0v-.85h-.02c-.34.645-.863.967-1.576.967-1.188 0-1.782-.726-1.782-2.18v-2.94h.625v2.823c0 .6.103 1.04.32 1.326.21.285.54.43.98.43.21 0 .406-.04.584-.125.178-.082.332-.2.46-.354.128-.15.23-.33.3-.542.072-.215.106-.448.106-.704v-2.86h.62v5h-.625l.007.007z"/></svg>