<svg xmlns="http://www.w3.org/2000/svg" width="32" height="32" viewBox="0 0 32 32"><path fill="#FFF93F" d="M29.64 25.8c.48.48.48 1.26 0 1.74H2.36c-.48-.48-.48-1.26 0-1.74L15.13 4.82c.48-.48 1.26-.48 1.74 0L29.64 25.8z"/><path d="M16 5.46c.028 0 .066.006.104.025l12.68 20.833.063.102.084.085c.01.013.023.022.03.034H3.04c.008-.02.017-.03.027-.04l.085-.085.063-.104 12.68-20.83c.04-.02.077-.023.105-.023m0-1c-.315 0-.63.12-.87.36L2.36 25.8c-.48.48-.48 1.26 0 1.74h27.28c.482-.48.48-1.26 0-1.74L16.87 4.82c-.24-.24-.555-.36-.87-.36v-.003zM14.635 24.18c0-.832.578-1.434 1.39-1.434.81 0 1.34.6 1.34 1.434 0 .81-.53 1.436-1.388 1.436-.788 0-1.342-.628-1.342-1.436zm.578-3.284L14.89 9.773h2.22L16.788 20.9h-1.574v-.004z"/></svg>