<svg xmlns="http://www.w3.org/2000/svg" width="32" height="32" viewBox="0 0 32 32"><path fill="#FF2100" d="M10.2 30L2 21.8V10.2L10.2 2h11.6l8.2 8.2v11.6L21.8 30H10.2z"/><path fill="#fff" d="M21.386 3L29 10.615v10.77L21.386 29h-10.77L3 21.385v-10.77L10.615 3h10.77m.415-1H10.2L2 10.2v11.6l8.2 8.2h11.6l8.2-8.2V10.2L21.8 2zM4.852 18.887c.423.27 1.03.478 1.682.478.966 0 1.53-.51 1.53-1.247 0-.674-.39-1.073-1.378-1.442-1.193-.435-1.932-1.063-1.932-2.084 0-1.133.944-1.98 2.365-1.98.73 0 1.29.176 1.6.36l-.26.77c-.23-.14-.72-.346-1.38-.346-1 0-1.38.596-1.38 1.096 0 .683.445 1.02 1.454 1.41 1.237.476 1.855 1.073 1.855 2.147 0 1.126-.824 2.113-2.55 2.113-.705 0-1.475-.217-1.865-.48l.253-.79.002-.007zm6.856-5.36H9.484v-.803h5.413v.803h-2.234v6.51h-.955v-6.51zm9.96 2.778c0 2.505-1.53 3.852-3.396 3.852-1.94 0-3.287-1.51-3.287-3.722 0-2.32 1.432-3.84 3.385-3.84 2.007 0 3.298 1.53 3.298 3.71zm-5.685.108c0 1.573.847 2.973 2.344 2.973s2.343-1.378 2.343-3.038c0-1.465-.76-2.983-2.332-2.983s-2.355 1.453-2.355 3.048zm6.912-3.602c.457-.07 1.054-.14 1.813-.14.933 0 1.616.22 2.05.61.39.35.64.88.64 1.53 0 .66-.193 1.187-.562 1.56-.51.53-1.313.808-2.235.808-.277 0-.54-.01-.76-.063v2.93h-.94v-7.23l-.003-.003zm.944 3.53c.2.06.46.08.78.08 1.14 0 1.83-.563 1.83-1.552 0-.976-.698-1.44-1.73-1.44-.41 0-.73.03-.89.074v2.843l.008-.002z"/></svg>