<svg xmlns="http://www.w3.org/2000/svg" width="32" height="32" viewBox="0 0 32 32"><path fill="#777" d="M28.44 32H3.56V0h24.88v32zM4.747 30.812h22.51V1.467H4.747v29.346z"/><path fill="#fff" d="M4.748 30.672h22.507V1.328H4.748v29.344z"/><path fill="red" d="M6.65 25.346c-.23 0-.403-.07-.53-.154-.49-.32-.56-.702-.534-.97.118-1.18 2.677-2.29 3.188-2.5l.287.7c1.99-2.676 4.217-7.302 4.217-11.012h.764c0 5.144-4.204 12.42-6.645 13.724-.29.158-.54.216-.745.216v-.004zm2.4-2.915c-1.27.53-2.657 1.4-2.703 1.87-.003.03-.012.12.2.26.122.085.382-.037.488-.095.55-.294 1.265-1.02 2.016-2.027v-.006zm2.178-.49l-.4-.65c4.375-2.7 12.773-2.94 15.17-1.54.61.355.727.77.72 1.053-.024.59-.31.85-.55.966-1.067.514-3.355-1.08-3.8-1.406l.44-.61c-3.325-.288-8.43.243-11.586 2.19l.006-.002zm11.6-2.18c1.114.8 2.582 1.52 3.006 1.32.026-.018.107-.057.118-.31.006-.15-.235-.31-.34-.37-.536-.31-1.53-.54-2.782-.65l-.003.01zm-1.888-.85c-4.47-2.542-8.72-9.79-8.65-12.556.017-.706.323-1.01.577-1.138.525-.264.894-.138 1.11.017.97.69.67 3.46.6 4.01l-.75-.102c1.343 3.05 4.267 7.27 7.493 9.105l-.377.662-.003.004zm-7.5-13.08c-.05 0-.12.018-.23.07-.135.066-.155.356-.16.476-.015.62.265 1.604.77 2.753.17-1.364.1-3-.286-3.27-.012-.01-.038-.03-.092-.03h-.002z"/></svg>