<svg xmlns="http://www.w3.org/2000/svg" width="32" height="32" viewBox="0 0 32 32"><circle fill="#CD1D1F" cx="16" cy="16" r="16"/><path fill="#fff" d="M10.18 27.84c-5.996-2.657-8.992-10.147-6.562-16.43C6.2 4.738 13.632 1.338 20.325 3.77c6.8 2.473 10.27 9.764 7.925 16.66-2.192 6.43-9.6 10.247-15.817 8.242.686-2.074 1.372-4.148 2.045-6.188 1.993 1.83 4.645 1.886 6.973.114 2.87-2.202 4.143-7.308 2.61-10.592-1.233-2.644-3.394-4.132-6.224-4.504-3.738-.492-7.04.457-9.36 3.63-1.666 2.286-2.015 4.822-.847 7.47.37.844 1.003 1.47 1.83 1.886.48.248.784.136.96-.408.226-.73.215-1.327-.254-2.045-.982-1.497-.708-3.134-.063-4.686 1.54-3.675 6.826-4.97 9.783-2.435.976.838 1.463 1.927 1.543 3.166.124 1.88-.166 3.697-1.07 5.38-.54.996-1.275 1.776-2.424 2.055-1.748.422-3.04-.84-2.617-2.583.28-1.165.645-2.314.956-3.478.08-.3.124-.614.137-.926.04-.89-.382-1.645-1.047-1.937-.72-.313-1.662-.11-2.268.553-1.105 1.206-1.162 2.628-.834 4.148.105.496.12 1.053.014 1.547-.496 2.31-1.072 4.602-1.566 6.914-.16.71-.422 2.15-.537 2.096l.006-.006z"/></svg>