<svg xmlns="http://www.w3.org/2000/svg" width="32" height="32" viewBox="0 0 32 32"><path fill="#808184" d="M30.475 15.89c0 7.947-6.443 14.393-14.394 14.393S1.69 23.837 1.69 15.89c0-7.95 6.443-14.393 14.393-14.393S30.475 7.94 30.475 15.89z"/><path fill="#B3B3B3" d="M30.737 16c0 8.137-6.598 14.737-14.737 14.737S1.263 24.137 1.263 16 7.86 1.263 16 1.263 30.737 7.86 30.737 16z"/><path fill="#4D4D4D" d="M29.83 16c0 7.636-6.19 13.828-13.83 13.828-7.638 0-13.828-6.192-13.828-13.83S8.362 2.17 16 2.17c7.64 0 13.83 6.19 13.83 13.83z"/><path fill="#fff" stroke="#595959" d="M28.99 16c0 7.174-5.815 12.99-12.99 12.99S3.01 23.173 3.01 16C3.01 8.825 8.825 3.01 16 3.01S28.99 8.824 28.99 16z"/><path fill="#231F20" d="M28.672 16C28.672 22.997 23 28.67 16 28.67S3.327 22.998 3.327 16 9 3.326 16 3.326 28.672 9 28.672 16z"/><path fill="#fff" d="M28.672 16.04c0 7-5.672 12.67-12.672 12.67S3.327 23.04 3.327 16.04C3.327 9.042 9 3.37 16 3.37s12.672 5.67 12.672 12.67zm-24.588.04c0-6.66 5.344-12.06 11.933-12.06 6.59 0 11.933 5.4 11.933 12.06 0 6.662-5.343 12.06-11.933 12.06S4.084 22.743 4.084 16.08z"/><linearGradient id="a" gradientUnits="userSpaceOnUse" x1="18.39" y1="26.545" x2="13.31" y2="3.819"><stop offset="0" stop-color="#6ECBF3"/><stop offset=".1" stop-color="#5DC0E8"/><stop offset=".297" stop-color="#33A4CC"/><stop offset=".382" stop-color="#1E96BF"/><stop offset=".64" stop-color="#22689D"/><stop offset=".874" stop-color="#254583"/><stop offset="1" stop-color="#263879"/></linearGradient><path fill="url(#a)" d="M27.645 15.855c0 6.41-5.215 11.604-11.645 11.604S4.356 22.263 4.356 15.853 9.57 4.25 16 4.25s11.645 5.194 11.645 11.604z"/><path fill="#1E96BF" d="M27.645 15.855c0 6.41-5.215 11.604-11.645 11.604S4.356 22.263 4.356 15.853 9.57 4.25 16 4.25s11.645 5.194 11.645 11.604z"/><path fill="#305DAA" d="M12.33 7.245c0-1.127.905-2.043 2.02-2.043s2.023.916 2.023 2.043c0 1.13-.905 2.043-2.02 2.043s-2.022-.914-2.023-2.043zm-7.092 10.37c0-1.13.904-2.044 2.02-2.044s2.022.92 2.022 2.05-.903 2.043-2.02 2.043c-1.116 0-2.02-.915-2.02-2.043l-.002-.005zm10.615 7.005c0-1.13.906-2.043 2.022-2.043s2.02.914 2.02 2.042-.902 2.04-2.02 2.04-2.022-.92-2.022-2.048v.007zm6.764-10.77c0-1.127.904-2.042 2.02-2.042 1.118 0 2.023.915 2.023 2.042 0 1.13-.905 2.044-2.02 2.044-1.12 0-2.022-.915-2.023-2.044z"/><path fill="#fff" d="M16.01 4.212c-.63 0-1.246.05-1.85.146l-.024.004c-.196.03-.393.066-.587.11h-.02C8.17 5.62 4.14 10.41 4.14 16.142c0 6.593 5.31 11.935 11.858 11.935 6.55 0 11.863-5.34 11.863-11.93C27.87 9.553 22.56 4.21 16.01 4.21v.002zm2.76 22.938l-.662-1.147-.13 1.317c-.657.115-1.33.176-2.022.176-5.45 0-10.017-3.79-11.21-8.884l1.14-.638L4.6 17.89c-.104-.618-.16-1.27-.16-1.92 0-5.566 3.938-10.213 9.18-11.295l.51 1.207.027-1.307c.587-.093 1.188-.14 1.8-.14 5.443 0 10.007 3.782 11.208 8.87l-1.056.58h1.173c.124.673.188 1.37.188 2.08 0 5.4-3.702 9.932-8.702 11.188v-.003zM13.58 8.737l-.555-2.37.337-.078L14.4 7.31c.235.236.435.454.6.67l.01-.005c-.102-.308-.176-.595-.262-.964l-.233-.987.29-.063.555 2.367-.31.074-1.034-1.025c-.228-.224-.45-.46-.625-.688v.007c.086.294.156.578.25.973l.235 1.01-.29.07-.004-.01zm-4.655 9.41l-2.027 1.17-.083-.3 1.032-.57c.254-.143.508-.276.707-.376-.23.026-.508.03-.81.037l-1.184.02-.084-.293 1.034-.58c.242-.133.484-.265.705-.362v-.005c-.255.015-.515.025-.805.033l-1.182.022-.08-.287 2.356.002.084.293-1.06.598c-.26.146-.46.252-.673.344l.002.007c.23-.026.455-.035.76-.034l1.227-.01.08.293zm9.62 5.42c-.154-.063-.365-.09-.578-.048-.316.062-.467.266-.42.506.045.22.198.324.545.38.417.064.698.223.766.556.072.372-.18.71-.645.802-.24.05-.434.027-.548-.013l.035-.27c.084.033.258.068.473.026.326-.064.412-.284.38-.448-.045-.224-.212-.304-.566-.366-.435-.075-.674-.23-.745-.58-.07-.368.138-.745.7-.856.23-.046.496-.023.64.034l-.03.276h-.007zm6.107-9.217l-.114-.934-.87.106.13 1.046-.264.032-.166-1.36 2.416-.297.16 1.307-.263.03-.117-.99-.765.092.113.935-.25.03-.007.003zm-4.936 1.697l3.87-1.993-4.26-.165c-.543-1.05-1.563-1.81-2.77-1.98L14.69 8.006l-.16 4.174c-.463.2-.875.5-1.216.853l-2.155-.79 1.55 1.625c-.24.46-.393.977-.424 1.523l-3.718 1.7 4.1.16c.576 1.17 1.745 1.99 3.115 2.075l1.747 3.403.17-3.802c.476-.24.894-.582 1.224-.995l1.85.64-1.36-1.44c.15-.333.253-.7.3-1.08v-.002zm-3.702 2.845c-1.817 0-3.292-1.473-3.292-3.29 0-1.816 1.475-3.294 3.292-3.294 1.82 0 3.292 1.474 3.292 3.29 0 1.817-1.473 3.295-3.292 3.294zm-7.163 4.72l8.28-6.952-2.092-1.97-6.186 8.922z"/><path fill="#D2D2D2" d="M8.85 23.613l8.28-6.953-1.08-1.02-7.2 7.973z"/><path fill="#D34527" d="M17.13 16.66l-2.093-1.97 8.273-6.987-6.18 8.957z"/><path fill="#F16722" d="M15.103 14.754l.947.89 6.69-7.394-7.637 6.504z"/><linearGradient id="b" gradientUnits="userSpaceOnUse" x1="16.084" y1="16.573" x2="16.041" y2="14.661"><stop offset="0" stop-color="#fff"/><stop offset=".158" stop-color="#EEEFEF"/><stop offset=".469" stop-color="#C3C4C4"/><stop offset=".9" stop-color="#7E7F81"/><stop offset="1" stop-color="#6D6E70"/></linearGradient><path fill="url(#b)" d="M17.018 15.643c0 .53-.43.957-.958.957s-.957-.428-.957-.957c0-.527.43-.957.958-.957.53 0 .96.43.96.957z"/><path fill="#6D6E70" d="M16.813 15.643c0 .417-.337.755-.752.755s-.752-.338-.752-.755c0-.416.337-.753.754-.753.416 0 .753.337.753.753z"/><radialGradient id="c" cx="-1777.726" cy="-5753.534" r=".827" gradientTransform="matrix(.578 .578 -.144 .144 214.174 1872.508)" gradientUnits="userSpaceOnUse"><stop offset=".012" stop-color="#929497"/><stop offset="1" stop-color="#fff"/></radialGradient><path fill="url(#c)" d="M16.736 15.643c0 .374-.304.678-.676.678-.374 0-.677-.302-.677-.676 0-.373.303-.675.677-.675.373 0 .676.3.676.674z"/></svg>