<svg xmlns="http://www.w3.org/2000/svg" width="32" height="32" viewBox="0 0 32 32"><path fill="#818185" d="M20.946 18.833v9.426H7.2v-9.43H5.424V30h17.3V18.833h-1.777zm-1.327 7.435H8.527v-2.31h11.09v2.31z"/><path fill="#A68A6E" d="M19.424 23.158l-11.05-.932.193-2.303 11.053.934-.196 2.3z"/><path fill="#C09553" d="M19.526 20.144L8.82 17.25l.6-2.23 10.71 2.895-.604 2.23z"/><path fill="#D38B28" d="M20.438 17.36l-9.576-5.594 1.165-1.995 9.577 5.6-1.166 1.99z"/><path fill="#FD8A07" d="M22.133 14.803l-6.48-9 1.88-1.35 6.48 9-1.88 1.35z"/><path fill="#FE7A15" d="M24.305 13.323L22.342 2.407 24.617 2l1.96 10.916-2.272.407z"/></svg>