<svg xmlns="http://www.w3.org/2000/svg" width="32" height="32" viewBox="0 0 32 32"><path fill="#fff" d="M18.146 24.543c-1.004 0-1.895-.33-2.647-.98-.734-.63-1.284-1.5-1.634-2.58l-.1-.31 2.267-.946.13.336c.22.57.508 1.01.856 1.33.326.296.702.44 1.146.44.43 0 .796-.254 1.114-.775.35-.57.527-1.272.527-2.09 0-.978-.22-1.924-.55-2.35-.38-.507-1.028-1.106-1.97-1.106H15.56v-.83l3.064-4.628h-2.63l-4.098 13.643h-.725l-2.72-9.203-2.724 9.2h-.72l-5-16.167H2.84l2.623 9.017 1.58-5.42-1.06-3.598h2.83l2.618 8.997 2.63-8.997h7.668V8.98l-2.418 4.844c1.055.416 1.88 1.06 2.353 1.847.626 1.044.945 2.15.945 3.298 0 1.61-.39 2.896-1.192 3.936-.844 1.088-1.943 1.64-3.27 1.64zm-3.5-3.47c.31.818.742 1.462 1.313 1.958.63.544 1.337.81 2.18.81 1.11 0 2-.45 2.713-1.37.704-.91 1.044-2.057 1.044-3.503 0-1.016-.282-2.002-.844-2.933-.44-.738-1.275-1.33-2.35-1.68l-.39-.13 2.703-5.407v-.584h-6.432L11.43 19.05 8.28 8.232H6.93l.85 2.892-2.318 7.94-3.15-10.832H.96l4.4 14.224L8.45 12.01l3.09 10.433 3.917-13.057.43-.037 4.048-.005-3.605 5.458h.964c.96 0 1.86.49 2.53 1.38.51.663.69 1.87.69 2.78 0 .944-.21 1.77-.63 2.456-.45.73-1.03 1.11-1.716 1.11-.62 0-1.166-.21-1.62-.628-.357-.322-.658-.745-.898-1.26l-1 .422-.005.007z"/><path fill="#2B76AD" d="M8.55 7.88l2.886 9.908 2.89-9.908h7.048v1.016l-2.558 5.125c1.035.338 2.014.95 2.543 1.834.53.885.893 1.925.893 3.113 0 1.477-.34 2.713-1.12 3.718-.773 1.007-1.755 1.507-2.987 1.507-.932 0-1.728-.3-2.417-.895-.697-.597-1.2-1.4-1.53-2.423l1.63-.684c.24.618.557 1.104.95 1.46.39.354.852.53 1.383.53.56 0 1.03-.313 1.415-.94.383-.63.575-1.39.575-2.273 0-.977-.207-2.032-.617-2.567-.48-.63-1.23-1.24-2.25-1.24h-1.37v-.373l3.37-5.087H15.92l-.19.016-4.095 13.624h-.2L8.45 13.248 5.46 23.336h-.2L.484 7.876h2.09l2.888 9.92 1.95-6.68-.953-3.24h2.09v.004z"/><path fill="#fff" d="M27.755 24.565c-3.262 0-4.9-3.097-4.9-5.047 0-.724.11-1.482.11-1.482s1.097 4.36 4.738 4.36c2.04 0 4.29-4.145 4.29-4.145v3.443l-.05.076c-.07.115-1.798 2.796-4.188 2.796zm-3.582-2.993c.687 1.238 1.89 2.353 3.582 2.353 1.836 0 3.313-2.01 3.6-2.427v-1.074c-.722 1.076-2.034 2.612-3.65 2.612-1.4.002-2.63-.522-3.538-1.464h.006z"/><path fill="#2B76AD" d="M31.674 19.258v2.34s-1.68 2.647-3.92 2.647c-3.003 0-4.576-3.207-4.576-4.988.674 2.064 2.263 3.462 4.525 3.462 2.267 0 3.972-3.463 3.97-3.463z"/><path fill="#fff" d="M24.068 16.43c-1.02-2.277-1.06-7.147 2.502-8.744.36-.167.717-.25 1.066-.25 1.5 0 2.42 1.456 2.83 2.287l1.418-2.148v3.17l-1.212 1.997-.264-.496c-.013-.022-1.19-2.197-2.594-2.197-.174 0-.35.033-.52.102-1.5.61-2.967 3.41-2.61 6.104l.234 1.78-.85-1.608zm3.57-8.347c-.26 0-.53.062-.806.187-2.21.99-2.833 3.523-2.69 5.634.42-2.076 1.64-3.827 2.908-4.344.246-.1.503-.15.76-.15.996 0 1.845.755 2.41 1.44l-.12-.343c-.01-.024-.87-2.425-2.462-2.424zm2.728 2.953c.125.16.23.312.318.44l.557-.912v-.858l-.873 1.324v.006z"/><path fill="#2B76AD" d="M30.685 12.095l.874-1.44v-2.01l-1.156 1.76S29.17 6.874 26.7 7.98c-3.31 1.486-3.31 6.16-2.336 8.323-.375-2.84 1.18-5.777 2.808-6.442 1.905-.772 3.512 2.24 3.512 2.238z"/></svg>