<?xml version="1.0" encoding="utf-8"?>
<!-- Generator: Adobe Illustrator 14.0.0, SVG Export Plug-In . SVG Version: 6.00 Build 43363)  -->
<!DOCTYPE svg PUBLIC "-//W3C//DTD SVG 1.1//EN" "http://www.w3.org/Graphics/SVG/1.1/DTD/svg11.dtd">
<svg version="1.1" id="Layer_1" xmlns="http://www.w3.org/2000/svg" xmlns:xlink="http://www.w3.org/1999/xlink" x="0px" y="0px"
     width="32px" height="32px" viewBox="0 0 32 32" enable-background="new 0 0 32 32" xml:space="preserve">
<symbol  id="_x5F_button_x5F_shape" viewBox="-16 -16 32 32">
	<g id="button_x5F_shape_1_">
		<g>
			<g opacity="0">
				<path fill="#FFFFFF" d="M16-12c0-2.209-1.792-4-4-4h-24c-2.208,0-4,1.791-4,4v24c0,2.209,1.792,4,4,4h24c2.208,0,4-1.791,4-4
					V-12z"/>
			</g>
		</g>
	</g>
</symbol>
<symbol  id="mobile_1" viewBox="-10.864 -16 21.728 32">
	<g>
		<g>
			<path fill="#CCCCCC" d="M7.188-16H-7.19c-2.025,0-3.674,1.648-3.674,3.674v24.65c0,2.026,1.648,3.676,3.674,3.676H7.188
				c2.026,0,3.676-1.648,3.676-3.676v-24.65C10.864-14.352,9.215-16,7.188-16L7.188-16z M-7.19,14.814
				c-1.372,0-2.488-1.117-2.488-2.49v-24.65c0-1.373,1.116-2.488,2.488-2.488H7.188c1.374,0,2.491,1.115,2.491,2.488v24.65
				c0,1.373-1.117,2.49-2.491,2.49H-7.19L-7.19,14.814z"/>
			<path d="M10.272-12.326c0-1.701-1.38-3.081-3.084-3.081H-7.19c-1.702,0-3.081,1.38-3.081,3.081v24.65
				c0,1.703,1.379,3.083,3.081,3.083H7.188c1.704,0,3.084-1.38,3.084-3.083V-12.326z"/>
		</g>
		<g>
			<polygon fill="#FFFFFF" points="8.475,-9.417 -8.475,-9.417 -8.475,12.84 8.475,12.84 			"/>
			<path fill="#999999" d="M8.771-9.713H-8.771v22.85H8.771V-9.713L8.771-9.713z M-8.178-9.12H8.179v21.664H-8.178V-9.12
				L-8.178-9.12z"/>
		</g>
		<g>
			<path fill="#808080" d="M1.561-12.519c0-0.862-0.699-1.563-1.563-1.563c-0.861,0-1.558,0.7-1.558,1.563
				c0,0.862,0.696,1.563,1.558,1.563C0.861-10.956,1.561-11.656,1.561-12.519z"/>
			<path fill="#CCCCCC" d="M-0.002-14.377c-1.022,0-1.854,0.833-1.854,1.858c0,1.024,0.832,1.857,1.854,1.857
				c1.025,0,1.858-0.833,1.858-1.857C1.856-13.544,1.023-14.377-0.002-14.377L-0.002-14.377z M-0.002-11.252
				c-0.695,0-1.262-0.568-1.262-1.267c0-0.699,0.566-1.268,1.262-1.268c0.697,0,1.266,0.568,1.266,1.268
				C1.264-11.82,0.695-11.252-0.002-11.252L-0.002-11.252z"/>
		</g>
		<g>
			<path fill="#CCCCCC" d="M1.015,1.367c0.783-4.074-6.578-8.868-6.578-8.868S-1.214-1.61-2.19,2.721
				c-0.978,4.329,1.933,9.638,1.933,9.638h5.821C5.563,12.357,0.235,5.443,1.015,1.367z"/>
			<path fill="none" d="M1.015,1.367c0.783-4.074-6.578-8.868-6.578-8.868S-1.214-1.61-2.19,2.721
				c-0.978,4.329,1.933,9.638,1.933,9.638h5.821C5.563,12.357,0.235,5.443,1.015,1.367z"/>
		</g>
	</g>
</symbol>
<use xlink:href="#mobile_1"  width="21.728" height="32" x="-10.864" y="-16" transform="matrix(1 0 0 -1 16 16)" overflow="visible"/>
</svg>
