<svg xmlns="http://www.w3.org/2000/svg" width="32" height="32" viewBox="0 0 32 32"><path fill="#FFF" d="M23.64 16.878c-.036-3.546 2.89-5.246 3.02-5.332-1.645-2.407-4.206-2.736-5.118-2.773-2.18-.22-4.254 1.284-5.362 1.284-1.103 0-2.81-1.25-4.62-1.22-2.377.034-4.567 1.38-5.792 3.51-2.467 4.284-.63 10.63 1.775 14.103 1.176 1.702 2.578 3.615 4.42 3.547 1.77-.07 2.44-1.148 4.583-1.148 2.144 0 2.75 1.147 4.623 1.11 1.906-.034 3.116-1.73 4.283-3.44 1.348-1.973 1.908-3.883 1.937-3.982-.045-.017-3.722-1.426-3.758-5.66h.007zM20.114 6.472c.978-1.185 1.636-2.83 1.458-4.47-1.41.057-3.115.936-4.124 2.12-.91 1.05-1.702 2.724-1.49 4.332 1.573.123 3.176-.8 4.155-1.982z"/><path fill="#B3B3B3" d="M19.527 6.743c.842-1.025 1.407-2.448 1.254-3.868-1.21.05-2.677.812-3.545 1.834-.782.905-1.462 2.354-1.28 3.746 1.352.105 2.73-.69 3.572-1.713z"/><path fill="#999" d="M20.45 3.333c-.157.856-.562 1.72-1.165 2.453-.6.727-1.415 1.258-2.223 1.484.173-.965.702-1.87 1.207-2.453.54-.632 1.364-1.18 2.18-1.484M21.573 2c-1.41.058-3.115.937-4.124 2.12-.91 1.05-1.702 2.725-1.49 4.334.094.01.188.01.282.01 1.48 0 2.95-.883 3.868-1.994.98-1.19 1.637-2.833 1.463-4.47z"/><path fill="#B3B3B3" d="M23.64 16.878c-.036-3.546 2.89-5.246 3.02-5.332-1.645-2.407-4.206-2.736-5.118-2.773-2.18-.22-4.254 1.284-5.362 1.284-1.103 0-2.81-1.25-4.62-1.22-2.377.034-4.567 1.38-5.792 3.51-2.467 4.284-.63 10.63 1.775 14.103 1.176 1.702 2.578 3.615 4.42 3.547 1.77-.07 2.44-1.148 4.583-1.148 2.144 0 2.75 1.147 4.623 1.11 1.906-.034 3.116-1.73 4.283-3.44 1.348-1.973 1.908-3.883 1.937-3.982-.045-.017-3.722-1.426-3.758-5.66h.007z"/><path fill="#999" d="M21.098 9.828c.11 0 .224.005.337.017l.03.002.033.002c.71.028 2.316.244 3.61 1.513-1.105.962-2.572 2.766-2.546 5.525.03 3.52 2.223 5.384 3.51 6.176-.29.727-.774 1.787-1.504 2.853-1.182 1.724-2.118 2.947-3.414 2.973h-.064c-.646 0-1.092-.193-1.652-.438-.7-.307-1.565-.68-2.885-.68-1.37 0-2.27.384-2.996.694-.568.236-1.016.428-1.637.455h-.054c-1.207 0-2.36-1.52-3.438-3.08-2.083-3.01-3.996-9.017-1.727-12.958 1.037-1.803 2.903-2.94 4.926-2.97.796 0 1.622.328 2.42.645.744.294 1.446.57 2.13.57.636 0 1.3-.264 2.074-.565.877-.35 1.872-.743 2.84-.743m.002-1.077c-2.01.003-3.883 1.308-4.915 1.308-1.085 0-2.766-1.22-4.546-1.22h-.068c-2.377.037-4.568 1.38-5.79 3.512-2.468 4.283-.637 10.63 1.77 14.104C8.7 28.128 10.075 30 11.87 30c.032 0 .063 0 .095-.002 1.77-.07 2.443-1.15 4.587-1.15 2.11 0 2.727 1.114 4.537 1.114h.085c1.908-.036 3.116-1.73 4.284-3.44 1.355-1.975 1.906-3.885 1.94-3.983-.044-.02-3.72-1.43-3.757-5.664-.035-3.544 2.892-5.245 3.02-5.33-1.644-2.407-4.207-2.735-5.118-2.773-.147-.017-.295-.023-.445-.023l-.008-.007z"/></svg>