<svg xmlns="http://www.w3.org/2000/svg" width="32" height="32" viewBox="0 0 32 32"><path fill="#FFF" d="M14.966 9.404c.515.712.77 1.566.77 2.56 0 1.024-.26 1.845-.777 2.467-.29.35-.715.668-1.277.956.854.313 1.502.804 1.935 1.48.438.676.652 1.495.652 2.457 0 .995-.245 1.887-.746 2.675-.316.52-.71.963-1.187 1.316-.534.41-1.167.69-1.894.842-.73.15-1.52.228-2.368.228H2.52V7.618h8.102c2.042.033 3.49.625 4.344 1.786zm-8.58 1.126v3.697H9.94c.726 0 1.316-.14 1.77-.416s.682-.767.682-1.472c0-.78-.3-1.297-.9-1.546-.518-.174-1.18-.262-1.98-.262H6.387zm0 6.473v4.468h3.547c.727 0 1.292-.095 1.696-.294.733-.365 1.103-1.06 1.103-2.093 0-.87-.357-1.474-1.067-1.796-.397-.184-.96-.277-1.678-.284h-3.6z"/><path fill="#2A51E0" d="M10.075 24.9H2V7.1h8.622c2.215.036 3.814.708 4.762 1.997.577.8.87 1.764.87 2.866 0 1.143-.303 2.085-.896 2.8-.166.2-.365.39-.6.567.536.33.97.75 1.295 1.258.485.752.732 1.673.732 2.734 0 1.096-.277 2.09-.826 2.953-.346.57-.79 1.063-1.314 1.453-.585.45-1.293.768-2.1.935-.757.157-1.588.237-2.47.237zm-7.038-1.036h7.038c.813 0 1.573-.073 2.262-.218.65-.135 1.217-.385 1.684-.744.423-.314.776-.71 1.06-1.174.453-.715.67-1.498.67-2.406 0-.858-.19-1.59-.568-2.174-.372-.582-.92-1-1.678-1.275l-1.116-.41 1.06-.54c.496-.253.87-.53 1.112-.823.44-.532.656-1.23.656-2.138 0-.893-.22-1.63-.67-2.255-.754-1.025-2.04-1.54-3.932-1.57H3.037v15.727zm6.897-1.875H5.87v-5.506h4.12c.81.01 1.43.118 1.895.333.895.406 1.368 1.19 1.368 2.268 0 1.542-.756 2.242-1.39 2.56-.48.23-1.11.344-1.93.344zM6.906 20.95h3.028c.647 0 1.143-.08 1.47-.24.347-.175.812-.532.812-1.63 0-.666-.242-1.086-.764-1.323-.328-.152-.82-.232-1.468-.238H6.906v3.43zm3.033-6.206H5.87v-4.734h3.64c.854 0 1.576.097 2.146.29.59.243 1.254.782 1.254 2.038 0 1.115-.505 1.657-.93 1.916-.533.324-1.22.49-2.04.49zm-3.034-1.038H9.94c.627 0 1.132-.114 1.5-.34.107-.064.433-.263.433-1.03 0-.732-.31-.956-.58-1.067-.43-.143-1.04-.222-1.783-.222H6.906v2.66z"/><path fill="#FFF" d="M26.342 12.094c.84.375 1.53.967 2.076 1.778.492.715.81 1.542.957 2.483.083.55.118 1.345.104 2.385h-8.75c.048 1.207.466 2.05 1.256 2.533.476.303 1.055.45 1.73.45.715 0 1.298-.18 1.744-.55.244-.197.46-.475.646-.824h3.206c-.083.712-.47 1.436-1.164 2.17-1.075 1.167-2.583 1.753-4.52 1.753-1.603 0-3.01-.493-4.233-1.48-1.222-.985-1.833-2.59-1.833-4.81 0-2.083.552-3.678 1.654-4.79 1.105-1.11 2.535-1.664 4.3-1.664 1.046.002 1.988.19 2.826.564zm-4.7 2.715c-.445.455-.724 1.075-.836 1.858h5.41c-.057-.834-.337-1.466-.838-1.897-.498-.432-1.12-.648-1.86-.648-.81 0-1.433.232-1.875.687z"/><path fill="#2A51E0" d="M23.63 24.793c-1.712 0-3.245-.537-4.56-1.594-1.344-1.087-2.025-2.843-2.025-5.216 0-2.213.607-3.946 1.807-5.153 1.2-1.205 2.77-1.817 4.666-1.817 1.115 0 2.138.204 3.037.607.924.414 1.694 1.074 2.295 1.962.527.768.88 1.676 1.04 2.692.087.583.123 1.416.107 2.473l-.007.51H21.3c.12.74.438 1.257.956 1.574.395.25.884.375 1.46.375.602 0 1.064-.14 1.415-.432.192-.155.365-.38.52-.668l.147-.274h4.1l-.065.58c-.097.822-.535 1.652-1.303 2.466-1.175 1.27-2.823 1.917-4.9 1.917zm-.113-12.742c-1.633 0-2.918.496-3.932 1.513-.997 1.004-1.504 2.493-1.504 4.42 0 2.046.553 3.528 1.643 4.41 1.14.915 2.418 1.36 3.906 1.36 1.774 0 3.167-.533 4.14-1.585.42-.444.712-.88.88-1.3h-2.244c-.185.287-.392.523-.62.707-.532.44-1.228.666-2.068.666-.777 0-1.453-.18-2.01-.53-.935-.572-1.44-1.566-1.496-2.95l-.02-.54h8.77c0-.757-.033-1.356-.1-1.79-.137-.87-.422-1.613-.87-2.266-.5-.74-1.106-1.26-1.862-1.6-.766-.34-1.645-.513-2.613-.513zm3.256 5.138h-6.566l.085-.594c.13-.893.46-1.615.98-2.146.542-.56 1.297-.843 2.244-.843.867 0 1.608.26 2.2.776.607.522.95 1.28 1.02 2.253l.037.555zm-5.323-1.04h4.167c-.104-.417-.295-.742-.576-.984-.405-.354-.902-.525-1.522-.525-.664 0-1.155.172-1.5.53-.257.26-.444.582-.568.98z"/><g><path fill="#FFF" d="M20.112 8.313h6.757V9.99H20.11z"/><path fill="#2A51E0" d="M27.387 10.51h-7.793V7.794h7.793v2.714zM20.63 9.472h5.722v-.64h-5.72v.64z"/></g><g fill="#FFF"><path d="M14.966 9.404c.515.712.77 1.566.77 2.56 0 1.024-.26 1.845-.777 2.467-.29.35-.715.668-1.277.956.854.313 1.502.804 1.935 1.48.438.676.652 1.495.652 2.457 0 .995-.245 1.887-.746 2.675-.316.52-.71.963-1.187 1.316-.534.41-1.167.69-1.894.842-.73.15-1.52.228-2.368.228H2.52V7.618h8.102c2.042.033 3.49.625 4.344 1.786zm-8.58 1.126v3.697H9.94c.726 0 1.316-.14 1.77-.416s.682-.767.682-1.472c0-.78-.3-1.297-.9-1.546-.518-.174-1.18-.262-1.98-.262H6.387zm0 6.473v4.468h3.547c.727 0 1.292-.095 1.696-.294.733-.365 1.103-1.06 1.103-2.093 0-.87-.357-1.474-1.067-1.796-.397-.184-.96-.277-1.678-.284h-3.6zM26.342 12.094c.84.375 1.53.967 2.076 1.778.492.715.81 1.542.957 2.483.083.55.118 1.345.104 2.385h-8.75c.048 1.207.466 2.05 1.256 2.533.476.303 1.055.45 1.73.45.715 0 1.298-.18 1.744-.55.244-.197.46-.475.646-.824h3.206c-.083.712-.47 1.436-1.164 2.17-1.075 1.167-2.583 1.753-4.52 1.753-1.603 0-3.01-.493-4.233-1.48-1.222-.985-1.833-2.59-1.833-4.81 0-2.083.552-3.678 1.654-4.79 1.105-1.11 2.535-1.664 4.3-1.664 1.046.002 1.988.19 2.826.564zm-4.7 2.715c-.445.455-.724 1.075-.836 1.858h5.41c-.057-.834-.337-1.466-.838-1.897-.498-.432-1.12-.648-1.86-.648-.81 0-1.433.232-1.875.687zM20.112 8.313h6.757V9.99H20.11z"/></g></svg>