<svg xmlns="http://www.w3.org/2000/svg" width="32" height="32" viewBox="0 0 32 32"><path fill="#C8C8C8" d="M29.373 8.896V5.432c0-.595-.48-1.076-1.076-1.076h-6.463c-.596 0-1.076.48-1.076 1.076V8.26H4.153C2.963 8.26 2 9.225 2 10.415V25.49c0 1.188.964 2.152 2.152 2.152h23.694c1.188 0 2.153-.967 2.153-2.15V10.414c.002-.593-.237-1.128-.627-1.52zm-1.63-1.134h-5.355V6.19h5.354V7.76z"/><path fill="#C8C8C8" d="M28.297 4.355h-6.463c-.596 0-1.076.48-1.076 1.076v2.83H4.153C2.963 8.26 2 9.225 2 10.415V25.49c0 1.188.964 2.152 2.152 2.152h23.694c1.188 0 2.153-.967 2.153-2.15V10.414c0-.593-.237-1.128-.628-1.52V5.433c0-.596-.48-1.077-1.075-1.077z"/><path fill="#FFF" d="M22.387 7.762V6.19h5.355V7.76"/><path fill="#B4B4B4" d="M27.932 9.26H4.152C3.52 9.26 3 9.778 3 10.416V25.49c0 .635.518 1.152 1.152 1.152h23.78c.634 0 1.15-.52 1.15-1.15V10.414c0-.638-.517-1.154-1.15-1.154z"/><path fill="#FFF" d="M16.77 24.93c-3.895 0-7.066-3.17-7.066-7.065 0-3.902 3.17-7.07 7.067-7.07 3.897 0 7.067 3.168 7.067 7.064 0 3.895-3.168 7.064-7.063 7.064l-.003.006z"/></svg>