<svg xmlns="http://www.w3.org/2000/svg" width="32" height="32" viewBox="0 0 32 32"><path fill="#FFF" d="M22.978 27.182c-.91 0-1.648-.74-1.648-1.647 0-.91.74-1.648 1.648-1.648.907 0 1.646.74 1.647 1.65 0 .905-.74 1.645-1.647 1.645zm-11.285 0c-.908 0-1.647-.74-1.647-1.647 0-.91.74-1.648 1.647-1.648s1.646.74 1.646 1.648c0 .907-.74 1.647-1.647 1.647zm-1.96-4.976L5.717 5.968H2.445V4.816h4.107l.974 3.84h21.78L24.604 18.92H9.977l.752 2.87H24.62l-.158.416H9.734z"/><path fill="#B4B4B4" d="M6.206 5.262L7.01 8.43l.17.67h21.433l-4.293 9.377H9.4l.294 1.116.52 1.98.05.19h-.183L6.234 6.198l-.167-.68H2.89v-.26h3.316m16.772 19.07c.66 0 1.2.542 1.202 1.205 0 .663-.54 1.203-1.202 1.203-.664 0-1.203-.54-1.203-1.203s.54-1.204 1.203-1.204m-11.285 0c.662 0 1.2.54 1.2 1.205 0 .663-.54 1.203-1.2 1.203-.662 0-1.202-.54-1.202-1.203s.54-1.204 1.203-1.204M6.898 4.37H2v2.043h3.37L9.383 22.65H24.77l.498-1.307H11.074l-.52-1.978H24.89L30 8.21H7.873l-.975-3.84zm16.08 19.07c-1.155 0-2.094.94-2.094 2.095s.938 2.094 2.094 2.094c1.154 0 2.093-.94 2.093-2.095-.002-1.155-.938-2.095-2.092-2.095zm-11.285 0c-1.154 0-2.093.94-2.093 2.095s.94 2.094 2.093 2.094c1.154 0 2.092-.94 2.092-2.095 0-1.155-.937-2.095-2.092-2.095z"/><path fill="#C8C8C8" d="M8.603 10.246l1.8 7.313h12.9l3.296-7.314"/></svg>