<svg xmlns="http://www.w3.org/2000/svg" width="32" height="32" viewBox="0 0 32 32"><path fill="#C8C8C8" d="M7.07 28.135c-.84 0-1.596-.115-2.253-.346l-1.34-.468 1.305-.552c1.084-.455 1.934-1.082 2.432-1.497C3.934 23 2 19.538 2 15.903 2 9.266 8.28 3.866 16 3.866c7.718 0 14 5.397 14 12.037 0 6.64-6.282 12.042-14 12.042-1.55 0-3.07-.22-4.523-.644-.584.213-2.453.836-4.408.835z"/><path fill="#FFF" d="M16.388 4.41c-7.214 0-13.066 4.996-13.066 11.162 0 3.713 2.133 7.003 5.398 9.03-.25 1.352-1.488 2.392-3.01 2.482.596.123 1.226.193 1.882.193 1.71 0 3.26-.46 4.39-1.2 1.378.422 2.864.655 4.412.655 7.212 0 13.063-5 13.063-11.16 0-6.167-5.85-11.162-13.067-11.162h-.002z"/></svg>