<svg xmlns="http://www.w3.org/2000/svg" xmlns:xlink="http://www.w3.org/1999/xlink" width="32" height="32" viewBox="0 0 32 32"><path fill="#E12E2F" d="M15.964 2.002s8.254-.37 12.63 7.91H15.26l-5.198 8.16-5.696-9.85s3.26-5.89 11.597-6.22"/><path fill="#FCD209" d="M28.162 23.028s-3.81 7.318-13.18 6.96l6.666-11.524-4.47-8.576 11.387.002s3.483 5.766-.403 13.138"/><path fill="#43A445" d="M3.823 23.084s-4.447-6.953.55-14.873c1.154 2 6.664 11.525 6.664 11.525l9.677.42L15.017 30s-6.74.123-11.194-6.922"/><path fill="#FFF" d="M9.682 16.114c0-3.443 2.796-6.234 6.247-6.234 3.446 0 6.244 2.79 6.244 6.234 0 3.448-2.796 6.24-6.246 6.24-3.45 0-6.247-2.79-6.247-6.234"/><defs><path id="a" d="M10.73 16.114c0 2.868 2.327 5.192 5.2 5.192 2.87 0 5.197-2.322 5.197-5.192 0-2.86-2.328-5.188-5.198-5.188-2.88 0-5.207 2.328-5.207 5.188"/></defs><clipPath id="b"><use xlink:href="#a" overflow="visible"/></clipPath><path clip-path="url(#b)" fill="#0C5A94" d="M21.127 10.925v10.38H10.73v-10.38h10.397z"/></svg>