<svg xmlns="http://www.w3.org/2000/svg" width="32" height="32" viewBox="0 0 32 32"><path fill="#0070BA" d="M5.902 27.2L3.656 2h24.688l-2.25 25.196L15.983 30l-10.08-2.8z"/><path fill="#28A9E0" d="M16 27.857l8.17-2.266L26.09 4.063H16v23.795z"/><path fill="#EBEBEB" d="M16 21.434l-.014.004-3.443-.93-.22-2.463H9.22l.434 4.85 6.33 1.76.014-.004.002-3.216z"/><path fill="#FFF" d="M15.988 13.407v3.09h3.807l-.358 4.01-3.447.93v3.216l6.338-1.758.044-.52.727-8.14.077-.83h-.835l-6.354.002zm0-6.257v3.063l-.057.027v3.187l7.517-3.18.008-.003.01-.202-.007.17.06-.66.14-1.565.074-.83-7.744-.007z"/><path fill="#EBEBEB" d="M16 7.15H8.252l.073.83.203 2.28 7.455-.02L8.89 13.4H8.8l.29 3.092H16v-9.34z"/></svg>