<svg xmlns="http://www.w3.org/2000/svg" width="32" height="32" viewBox="0 0 32 32"><path fill="#C8C8C8" d="M2 2v28h28V2H2z"/><path fill="#FFF" d="M29.252 4.787h-2.04v-2.04h2.04v2.04zm0 4.078h-2.04v-2.04h2.04v2.04zm0 4.077h-2.04v-2.04h2.04v2.04zm0 4.078h-2.04v-2.04h2.04v2.04zm0 4.077h-2.04V19.06h2.04v2.037zm0 4.077h-2.04v-2.04h2.04v2.04zm0 4.078h-2.04v-2.04h2.04v2.04zM4.787 4.787h-2.04v-2.04h2.04v2.04zm0 4.078h-2.04v-2.04h2.04v2.04zm0 4.077h-2.04v-2.04h2.04v2.04zm0 4.078h-2.04v-2.04h2.04v2.04zm0 4.077h-2.04V19.06h2.04v2.037zm0 4.077h-2.04v-2.04h2.04v2.04zm0 4.078h-2.04v-2.04h2.04v2.04z"/><path fill="none" d="M25.813 2v3.62c0 .668-.54 1.206-1.204 1.206H7.507c-.665 0-1.205-.538-1.205-1.206V2H2v28h4.303v-3.21c0-.666.54-1.206 1.205-1.206h17.1c.666 0 1.205.54 1.205 1.206V30H30V2h-4.187zm0 19.312c0 .665-.54 1.205-1.204 1.205H7.507c-.665 0-1.205-.54-1.205-1.205V11.098c0-.667.54-1.205 1.205-1.205h17.1c.666 0 1.205.542 1.205 1.207v10.212z"/><path fill="#FFF" d="M24.608 9.893h-17.1c-.665 0-1.205.538-1.205 1.206V21.31c0 .665.54 1.205 1.205 1.205h17.1c.666 0 1.205-.54 1.205-1.205V11.098c0-.664-.54-1.204-1.205-1.205zm0 15.69h-17.1c-.665 0-1.205.54-1.205 1.207V30h19.51v-3.21c0-.666-.54-1.206-1.205-1.206zM7.508 6.827h17.1c.666 0 1.205-.538 1.205-1.206V2H6.303v3.62c0 .665.54 1.206 1.205 1.206z"/></svg>