<svg xmlns="http://www.w3.org/2000/svg" width="32" height="32" viewBox="0 0 32 32"><circle fill="#FFF" cx="16" cy="16" r="14"/><path fill="gray" d="M16 2C8.268 2 2 8.27 2 16s6.27 14 14 14c7.732 0 14-6.27 14-14S23.732 2 16 2zm-.686 26.19c-.22-.013-.436-.03-.65-.055V22.92c0-.69.344-1.196.344-1.196s.308.506.308 1.195c-.002.426-.002 3.2-.002 5.27zm1.634-.02c-.216.02-.435.027-.653.032v-5.5c0-.69.344-1.195.344-1.195s.31.507.31 1.196c-.002.44-.002 3.38-.002 5.467zm1.63-.234c-.214.048-.434.09-.65.124v-5.138c0-.683.345-1.19.345-1.19s.308.508.308 1.196v5.017l-.002-.01zm1.2-.324v-5.524c0-1.187-.71-2.21-1.73-2.663h1.57c1.384 0 2.62-.604 3.484-1.552 1.713.28 3.502.643 4.41 1.04l.217-.495c-.904-.39-2.583-.745-4.23-1.025.026-.04.054-.076.08-.115 1.58.13 3.156.324 4.013.61l.17-.514c-.86-.285-2.37-.48-3.902-.615.31-.628.494-1.324.494-2.07v-1.44c0-1.29-.515-2.46-1.35-3.312v-3.4l-2.816 2.01c-.188-.024-.378-.038-.576-.038h-6.32c-.188 0-.382.014-.567.037L9.91 6.527v3.4c-.835.854-1.35 2.023-1.35 3.312v1.44c0 .71.17 1.39.455 1.99-1.81.133-3.756.348-4.78.69l.17.512c1.015-.34 3.048-.55 4.894-.677.01.015.013.03.022.05-1.887.294-4.002.702-5.06 1.16l.216.492c1.056-.456 3.296-.87 5.224-1.166.87 1.022 2.147 1.683 3.59 1.683h1.896c-1.02.454-1.73 1.475-1.73 2.663v.02h-.85c-1.376 0-2.356-2.372-4.97-2.372 2.14.942 2.61 3.57 4.534 3.57h1.283v4.645C7.94 26.774 3.79 21.873 3.79 16 3.79 9.256 9.256 3.79 16 3.79c6.745 0 12.21 5.467 12.21 12.21 0 5.425-3.536 10.02-8.43 11.61l-.003.002z"/></svg>