<svg xmlns="http://www.w3.org/2000/svg" width="32" height="32" viewBox="0 0 32 32"><path fill="#00A7BF" d="M31.01 15.987c0 8.283-6.717 14.997-15 14.997-8.283 0-15-6.714-15-14.997S7.727.99 16.01.99c8.283 0 15 6.714 15 14.997z"/><path fill="none" d="M15.99 1.038c-8.27 0-14.975 6.704-14.975 14.973S7.72 30.986 15.99 30.986c8.27 0 14.975-6.703 14.975-14.97 0-8.275-6.704-14.978-14.974-14.977zM14.247 13.03c-.103.115-.227.206-.365.257-.055.056-.115.075-.173.078l-.005.025c.028.05.048.104.038.165-.004.033-.023.162-.01.06-.003.027-.008.055-.015.08.003 0 .004.003.007.008.3.248-.127.67-.422.422-.256-.216-.28-.668-.184-.966.113-.348.426-.538.766-.636.053-.015.1-.016.14-.01.245-.005.413.297.224.51v.007zm4.356.33c-.083.142-.268.19-.41.107-.114-.065-.19-.167-.23-.29-.05-.155.058-.325.214-.37.145-.04.28.034.346.16.118.092.157.263.08.392zm1.103-3.21c-.122.06-.232.06-.347 0-.146-.076-.188-.275-.11-.412.062-.104.17-.15.282-.144.107-.007.217.04.276.144.08.137.04.335-.107.41h.005zM15.99 1.037c-8.27 0-14.975 6.704-14.975 14.973S7.72 30.986 15.99 30.986c8.27 0 14.975-6.703 14.975-14.97 0-8.275-6.703-14.978-14.974-14.977zM14.247 13.03c-.103.115-.227.206-.365.257-.055.056-.115.075-.173.078l-.005.025c.028.05.048.104.038.165-.004.033-.023.162-.01.06-.003.027-.008.055-.015.08.003 0 .004.003.007.008.3.248-.127.67-.422.422-.256-.216-.28-.668-.184-.966.113-.348.426-.538.766-.636.053-.015.1-.016.14-.01.245-.005.413.297.224.51v.007zm4.356.33c-.083.142-.268.19-.41.107-.114-.065-.19-.167-.23-.29-.05-.155.058-.325.214-.37.145-.04.28.034.346.16.118.092.157.263.08.392zm1.103-3.21c-.122.06-.232.06-.347 0-.146-.076-.188-.275-.11-.412.062-.104.17-.15.282-.144.107-.007.217.04.276.144.08.137.04.335-.107.41h.005z"/><g fill="#DCDDDE"><path d="M25.48 5.09c-.087.012.036 0 0 0M24.117 5.506c.137.303.262.57.62.406.087-.028.57.884.637.774.06-.122-.072-.053.097-.053.067 0-.065-.326-.052-.344.03-.042.076.013.1.01-.02.004-.273-.466-.246-.55.04-.11.155-.208.174-.264.058.04.226.16.245.242-.044-.086-.144.146-.067.333.08.246.452.358.673.402.358 0-.87-1.087-.907-1.12.107-.035.203-.012.283.07-.06-.035-.073-.062-.044-.084.01 0-.222-.193-.257-.213.154-.038-.096-.122-.12-.11.01-.008-.145-.15-.15-.133-.01.03-.326-.072-.414.054.018-.017-.208.31-.132.262-.08.05-.44.117-.473.195.008.04.02.082.032.123m.615-.178c0 .026.063.074.07.102-.168.026-.353.065-.645.142.19-.086.38-.17.575-.244M19.644 18.145c.036-.15-.404-.4-.587-.58-.214-.177-.17-.094-.432-.112-.045-.007-.503-.052-.47-.033.098.04-.245-.346-.292-.38-.202-.12-.56.197-.546.214.014-.052.01-.066-.008-.048.112-.158.384-.412-.028-.372-.277 0-.098.33-.408.33.063 0 .267-.37.29-.414.254-.23-.022-.28-.037-.45-.064-.435-.253-.71-.683-.796-.248-.057-.304.015-.485-.186-.085-.113-.195-.34-.34-.428-.06-.036-.106.022-.158-.003-.135-.06.104-.195-.07-.287-.294-.144-.058.043-.102-.18-.026-.133-.31.015-.365.04-.178.112-.132.09-.333-.02-.12-.07-.708-.137-.69-.304.002-.013-.135.392-.218.303-.144-.166.17-.253.1-.363-.036-.047-.503.284-.592.31-.243.083-.216.46-.406.596-.02.015-.236-.278-.3-.297-.177-.06-.233.074-.388.114-.244.098-.404-.42-.345-.64.087-.313.125-.574-.022-.805-.076-.117-.734.06-.734-.04-.018-.168.31-.857.43-1.008.267-.303-.257-.098-.366-.085-.193.05-.208.332-.292.478-.15-.012-.048.048-.095.11-.082.106-.7.09-.7-.222 0-.235-.17-.4-.087-.677.06-.166.244-.482.244-.643 0-.294.536-.625.51-.737.158-.025.84.063.84.06.04-.096-.07-.178-.066-.236.02-.128.305-.036.332-.052.112-.048.564.04.595.083.14.383.16 1.466.402.475.07-.33-.192-.728.124-.995.207-.156.34-.312.543-.438.192-.16.312-.312.398-.47.015-.07.005-.7.15-.63.04.018-.173.445-.113.475.097.12.262-.48.225-.46.113-.063.28-.265.374-.276.093-.008.578-.282.56-.313-.055-.09-.05.07-.108-.003-.218-.248.99-.7.997-.685.006.01-.47.398-.176.398.05 0 .712-.335.718-.358.033-.09-.3-.125-.362-.175-.147-.123.018-.258-.042-.33-.03-.047-.155.07-.155-.022 0 .07.673-.413.012-.24-.084.02-.46.265-.5.21-.068-.1.843-.416.918-.41.36.013 1.088-.073 1.184-.498.042-.218-.34-.408-.435-.564-.104-.217-.06-.055-.06-.222 0-.072-.108-.565-.163-.588-.126-.044-.246.45-.48.346-.293-.173.133-.43-.17-.474-.19-.04-.306-.214-.625-.182-.14.014-.21.463-.37.583-.046.03.12.505-.043.505-.15 0-.525.295-.533.418-.007.09-.17.668-.365.505-.237-.212.16-.547.09-.714-.003-.008-.983-.404-1.007-.272.045-.237.094-.193-.028-.335-.07-.07.84-.898.84-.848 0 .088.967-.516.964-.516.194.085.744-.31.664-.435-.122-.275-.47.147-.563.203-.438.256-.1-.11-.178-.167-.087-.075-.157.163-.212.13-.06-.026.113-.158.064-.198-.02-.02-.104.036-.107.022-.016-.04.247-.336-.033-.336-.072.018-.364.212-.35.3.005.017.137.03.137.063 0 .09-.117.026-.133.093-.008.047.117.02.095.048-.006.01-.462.175-.377.242-.072-.034.073-.15.065-.172.028.124-1.24.098-1.197.152.013.02.252-.064.25-.027 0-.02-.27.165-.305.21.12-.123-.612-.003-.596.01-.083-.15.246-.07.186-.206-.057-.112-.79.06-.78.07.005-.035 0-.067-.01-.098-.05-.04-.142.195-.194.107-.002-.04.005-.08.02-.12.017.036-.772.428-.772.428-.026-.086.412-.27.477-.32-.234 0-.53.26-.713.368-.097.063-.52-.013-.65.02-.29.068-.562.033-.784.19-.315.207-.668.44-1.007.62.004-.002-.32.125-.32.2.008-.065.068.197.003.138 0 .033.085-.083.066-.02-.007.05-.192.24-.244.214-.03-.013.073-.092.074-.095-.02.114-.574.213-.592.387 0 .016.084-.018.084-.017-.028.035-.098.056-.122.1.006-.016.325-.096.37-.15-.097.12-1.256.864-1.13 1.034.008.01.217-.117.217-.115-.008.072-.287.23-.268.288.004.012.247-.15.26-.12.002.023-.007.043-.027.062-.03-.008.265-.164.26-.153 0 .272-1.113.77-1.318.973.2.025 2.46-1.535 2.43-1.698.027.075-.525.315-.53.445 0-.335 1.475-.647 1.392-.278.006-.036-.27.356-.19.335.094-.014.358-.395.35-.405.037.077-.21.867-.285.87.024 0 .07-.108.09-.058.02.072-.156.418-.145.428.112.07.245.1.22.302 0 .244-.305.118-.334.14-.127.09-.314.652-.453.814-.19.207-.312.462-.46.705-.1.17-.18 1.078-.076 1.14.28.162.216.164.26.574.01.162.01.283.066.422.078.23-.077.088-.168.22.08-.133.515.92.475.92.105 0-.2-1.742-.125-1.728.253.038.318.922.35 1.134.045.29.393.395.377.73-.012.207-.022.376.02.564.022.167.99.766 1.215.673.36-.147.302-.07.564.268.1.12.69.18.692.183.116.165.256.853.366.68.014-.027.17.387.167.38.08.042.11.03.084-.04.08.033.248.103.334.194.16.178.11-.067.163-.12.29-.293.31.035.418.336.104.297-.083 1.075-.322 1.236-.086.05-.283.274-.32.396-.12.302.18.324.19.45 0 .13-.275.226-.232.396.067.262.254.35.314.548.207.532.484 1.32.84 1.76.257.394.833.443.94.916.162.504.02 1.11.103 1.637.135.834 0 1.796.167 2.663.06.246.436.39.33.685.01-.03.052.367.048.357.02.216.15.363.17.47 0 .167-.04.41.152.566.096.126.41.396.442.38-.057.026-.132-.16-.172-.075-.04.078.083.093.084.114-.02.005-.04.01-.06.02 0 .238.468-.23.46-.214.038-.082-.258-.21-.09-.428.117-.15.164-.476.027-.542-.308-.104.024-.724.042-.88 0-.032-.303-.218-.21-.326-.003.004.353-.03.374-.052-.07-.377.136-.276.414-.37.544-.24-.1-.902-.067-.92.083-.052.417.228.597.11.168-.14.426-.634.468-.84.044-.193.177-.33.23-.51.07-.237-.134-.44.072-.638.206-.215.497-.472.813-.46.42.017.563-1.495.52-1.772-.1-.658.765-1.09.637-1.873"/><path d="M30.864 15.954c-.028.01-.784-.022-.7-.106-.012.01-.465-.653-.435-.678.04-.03.326-.675.326-.825 0-.12.012-.88.2-.74-.117-.203-.37-.82-.59-.86.013-.1-.65-1.215-.66-1.21.02-.012.21.373.258.385.088.022.017-.237.024-.28 0 .11.29.006.294 0 .063-.094-.13-.168-.14-.223-.018-.08.18-.044.205-.11-.234-.325.186-.142.037-.433-.167-.342.143-.167.262-.16-.063-.08-.143-.307-.23-.34.04.022.12.07.145.1-.005-.015-.214-.365-.242-.38.035.024.04.026.01.006.045.01.088.023.13.042.06-.035-.6-.553-.763-.553.457.17.122.29-.202.16-.114.052-.654-.353-.852-.254-.05.02.056.1.054.097.02.05-.304-.057-.314-.02-.023.12.216.204.15.284-.028.03-.135-.045-.14-.033-.02.076.522.49.61.52.15.046.477.076.723.105-.045.183.346.96-.075.812-.466-.18-.927-.133-1.356-.536-.333-.324-.082.52-.404.276-.233-.195-.525-.324-.734-.53-.137-.108-.454-.103-.488-.303-.018-.095.115-.343.02-.494-.066-.12-.704-.118-.877-.15-.518-.122-.76.342-1.27-.02.05-.052.557-.166.588-.166.17 0 .104-.294.104-.382 0-.275.32-.213.252-.462-.018-.065.446.02.553-.138.007-.02.644.617.725.664.245.12.426.637.52.67.113-.168-.102-.368-.03-.43.01-.013.166.12.197.12-.126-.233-1.133-.772-.99-1.102.037.01.06-.005.068-.042.226.054 1.475 1.897 1.73 1.72.068-.03-.113-.157-.12-.162.033.038.065.045.097.024-.008.04-.354-.418-.3-.408.032.007.074.1.103.12.02.006.406-.06.597.025 0-.105-.463-.497-.302-.65.028 0 .058.004.086.01-.02-.082-.04-.147.02-.212-.014.01.326.175.325.173.024.035.156.39.37.273-.013 0-.255-.19-.287-.238.012.018.315-.024.34-.046.155-.164-.258-.26-.35-.368-.08-.074-1.1-.79-1.06-.802.02.023.042.03.067.02-.068-.353-.64-.518-.744-.87.154-.222-.403-.364-.398-.39-.02.1.224.196.224.316 0-.015-.362-.31-.194.12.13.287-.29 0-.37.007-.213.02-.867-.153-.696-.452.006-.02-.113-.234-.137-.247-.263-.16.04.6.044.6-.117-.027-.244-.134-.385-.024-.058.06.033.195.035.248-.028-.26-.354.3-.304.244-.043.053-.254-.153-.28-.14-.072.02.078.14.05.185 0-.003-.372-.08-.36-.043 0 .164.49.447.556.71 0 .627-.686-.117-.955.13-.066.082.138 1.28.348 1.148.25-.083.227.466.124.587-.138.2-.364.015-.328.3.012.076.04.37.024.43-.08.31-.47.417-.62.7-.1.162-.34.74-.34.943.108.24.226.53.21.78-.016.307-.348.67-.032.847-.31.105.44.81.44 1.02 0 .44.766.985 1.064.84.31-.183.59.143.835-.058.205-.13.395-.202.643-.202.332 0 .21.3.43.424.097.05.26-.184.372-.025.202.228-.01.48.097.663-.01.002-.014-.004-.012-.017-.108.582.24 1.152.38 1.64.215.778-.366 1.196-.366 1.974 0 .156.135.597.21.75.147.296-.228.814-.01 1.11.363.45-.353 1.016.36.866.577-.323 1.037-.485 1.465-1.09.15-.214.293-.585.478-.762.158-.172.628-.483.43-.812-.02-.102.39-.543.536-.616.397-.28.482-.627.577-1.09-.014.05-.082-.7-.074-.682-.07-.176.066-.28.09-.448.058-.18.16-.29.26-.447-.15.03-.064-.93.04-.93M26.55 8.927c.03 0-.007.035 0 0M23.62 9.26c-.015-.027.004.005 0 0M27.708 8.877c0 .002.002.007 0 0"/></g></svg>