<svg xmlns="http://www.w3.org/2000/svg" width="32" height="32" viewBox="0 0 32 32"><path fill="#CF3E2B" d="M20.623 2H12.04C6.77 2 4.275 5.077 4.275 8.585c0 3.792 2.547 6.342 6.337 6.342.15 0 .307-.004.48-.01-.128.722-.097 1.202.024 1.872.057.315.4.944.885 1.444h-.583c-.246.006-.495.01-.757.01-4.928 0-8.23 3.397-8.23 6.567 0 3.01 3.1 5.19 8.263 5.19 4.98 0 9.27-3.76 9.27-6.674 0-2.4-1.1-4.142-2.96-5.48-1.86-1.34-2.32-1.728-2.32-2.356 0-.828.204-1.23 1.563-2.29 1.62-1.267 2.477-2.82 2.477-4.5 0-1.867-.404-3.7-2.678-5.29h2.896L20.624 2zM17.34 23.995c0 2.724-2.016 3.98-6.104 3.98-3.174 0-5.632-1.737-5.632-4.146 0-2.3 2.493-4.198 5.827-4.198 2.824 0 5.91 2.483 5.91 4.358v.005zM14.09 12.98c-.576.538-1.338.778-2.2.696l-.11-.013c-2.303-.292-4.11-2.65-4.208-5.483-.058-1.64.438-3.08 1.362-3.945.64-.6 1.425-.874 2.275-.792l.093.01c2.146.275 3.848 2.78 3.952 5.83.058 1.62-.356 2.935-1.166 3.693v.003zm12.23.666v-3.25h-1.87v3.25H21.2v1.87h3.25v3.25h1.87v-3.25h3.25v-1.87h-3.25z"/></svg>