<svg xmlns="http://www.w3.org/2000/svg" width="32" height="32" viewBox="0 0 32 32"><path fill="#FFF" d="M19.125 27.75v-7.875h-6.25v7.875H7.75v-9.604L16 9.896l8.25 8.25v9.604h-5.125zm7.163-10.5L16.125 7.084l-.11-.12-.38.358L5.71 17.25H3.206L16 4.457 28.793 17.25h-2.505z"/><path fill="#C8C8C8" d="M16 5.164L27.586 16.75h-1.09l-9.778-9.78-.174-.17-.523-.57-.737.74-9.78 9.78h-1.09L16 5.164m0 5.44l7.75 7.75v8.896h-4.125v-7.875h-7.25v7.875H8.25v-8.896l7.75-7.75m0-6.854l-14 14h3.917L15.99 7.676l.01.012.01-.01L26.08 17.75H30l-14-14zm0 5.44l-8.75 8.75v10.31h6.125v-7.875h5.25v7.875h6.125V17.94L16 9.19z"/></svg>