<svg xmlns="http://www.w3.org/2000/svg" width="32" height="32" viewBox="0 0 32 32"><path fill="#37A5E2" d="M29.254 8.313c.578-2.216.402-4.066-.66-5.2-1.906-2.038-6.182-1.175-10.82 1.718-.372-.03-.746-.05-1.12-.05-6.915 0-12.78 4.672-12.78 11.407 1.046-1.66 4.37-6.718 9.967-8.435-3.63 2.457-8.54 9.426-9.59 11.63-2.1 4.23-2.487 7.914-.642 9.64 1.978 1.846 6.026.988 10.46-1.83.84.145 1.7.217 2.58.217 4.79-.002 9.853-3.143 11.604-8.06h-8.187c-.45 1.345-1.928 2.614-3.583 2.614-2.516 0-3.973-1.827-3.973-4.25h16.267c.042-.42.063-.744.063-1.19 0-5.504-3.537-9.67-8.29-11.148 3.47-1.863 6.347-2.42 7.672-1.003.77.825 1.016 2.263.593 3.945h.438v-.005zm-15.94 18.73C9.787 29.12 6.748 29.73 5.27 28.35c-1.275-1.19-1.15-3.64.082-6.634.037-.054.074-.123.11-.07 1.837 2.866 4.642 4.672 7.853 5.405v-.006zm-.805-12.95s.157-3.68 3.84-3.68c3.627 0 3.837 3.68 3.837 3.68H12.51z"/></svg>