<svg xmlns="http://www.w3.org/2000/svg" width="32" height="32" viewBox="0 0 32 32"><path d="M32.1 30.107c-.368-.823-.788-1.603-1.266-2.328-2.44-3.73-6.002-6.44-5.95-11.225.062-5.665.645-16.372-10.203-15.506-10.707.86-7.868 12.173-8.026 15.962C6.42 20.334 4.422 24.922.1 30.107h32z"/><path fill="#ECECE8" d="M24.31 30.107c-1.397-2.77-3.353-7.67-4.158-11.015-.87-3.606-11.69-2.743-11.69.868-.046 3.17-1.587 6.99-3.017 10.146H24.31zM12.026 13.222c.106 1.848-.78 3.404-1.976 3.473-1.198.07-2.255-1.373-2.36-3.222-.107-1.85.777-3.404 1.976-3.474 1.197-.07 2.254 1.373 2.36 3.222z"/><path fill="#ECECE8" d="M14.2 13.363c.044 2.14 1.427 3.837 3.09 3.79 1.663-.044 2.976-1.815 2.93-3.954-.043-2.14-1.426-3.837-3.088-3.792-1.664.045-2.975 1.815-2.93 3.955z"/><path d="M15.578 13.847c-.025 1.173.567 2.127 1.324 2.13.754 0 1.387-.95 1.412-2.125.025-1.173-.566-2.127-1.322-2.13-.757 0-1.39.952-1.414 2.125zM10.788 13.86c.094.972-.272 1.814-.817 1.88-.545.066-1.065-.668-1.16-1.64-.095-.972.27-1.814.817-1.88.546-.067 1.064.667 1.16 1.64z"/><path fill="#FFDD5F" d="M9.676 15.784c.82-.778 2.85-3.11 6.66-.66.707.46 1.28.502 2.645 1.085 2.726 1.12 1.423 3.82-1.464 4.722-1.235.4-2.36 1.902-4.61 1.773-1.923-.112-2.426-1.363-3.607-2.057-2.1-1.186-2.41-2.788-1.276-3.636 1.132-.85 1.576-1.156 1.652-1.228z"/><path fill="#DF9000" d="M13.174 22.884c-.092 0-.186-.002-.28-.01-1.355-.076-2.04-.7-2.7-1.303-.316-.287-.614-.557-.983-.774-1.215-.688-1.946-1.584-2.004-2.46-.036-.572.218-1.09.714-1.462.603-.453 1.005-.748 1.27-.94.2-.146.34-.25.367-.275.046-.043.094-.09.146-.142.595-.578 1.705-1.657 3.447-1.657 1.022 0 2.125.376 3.28 1.118.393.257.75.38 1.24.548.357.125.8.277 1.377.523 1.07.44 1.64 1.16 1.6 2.028-.053 1.228-1.318 2.468-3.078 3.018-.39.124-.786.378-1.203.646-.838.534-1.788 1.142-3.193 1.142zm-.025-8.68c-1.603 0-2.607.978-3.208 1.562l-.148.143c-.043.04-.148.118-.4.3-.266.194-.667.488-1.27.94-.405.304-.605.706-.575 1.163.048.758.716 1.555 1.832 2.185.403.236.73.533 1.042.82.645.588 1.254 1.143 2.49 1.215.087.005.175.007.26.007 1.304 0 2.208-.578 3.005-1.088.436-.28.85-.545 1.28-.685 1.625-.508 2.793-1.62 2.84-2.704.03-.713-.46-1.314-1.39-1.695-.566-.243-.985-.388-1.356-.516-.513-.176-.886-.306-1.314-.585-1.095-.705-2.136-1.062-3.09-1.062z"/><g><path fill="#DF9000" d="M12.804 20.666c-1.94 0-3.314-1.29-4.05-1.986-.202-.188-.428-.398-.502-.42 0 0 .004.003.01.003v-.344c.182 0 .376.18.725.51.754.71 2.014 1.894 3.817 1.894 1.553 0 3.067-.91 4.283-1.645.804-.484 1.437-.867 1.92-.896l.018.344c-.396.025-1.026.405-1.76.846-1.252.754-2.812 1.692-4.46 1.692z"/></g></svg>