<svg xmlns="http://www.w3.org/2000/svg" width="32" height="32" viewBox="0 0 32 32"><path fill="#FFF" d="M4.63 31.5c-.63 0-1.163-.354-1.163-.773v-17.86c0-.26 0-.802 1.41-.802h.5v-.5C5.376 5.688 9.902.84 15.682.53L16.11.51l.207.023c5.78.31 10.305 5.158 10.305 11.035v.5h.5c1.41 0 1.41.542 1.41.803v17.856c0 .42-.532.774-1.162.774L4.63 31.5zM16 4.006c-4.096 0-7.185 3.25-7.185 7.563v.5l.5.026h13.87v-.5c0-4.34-3.088-7.59-7.185-7.59z"/><path fill="#C8C8C8" d="M15.94 1.01l.35.02c5.515.297 9.832 4.924 9.832 10.536v1h1c.91 0 .91.205.91.303v17.855c-.01.064-.242.275-.662.275H4.63c-.42 0-.65-.21-.663-.273v-17.86c0-.098 0-.302.91-.302h1v-1c0-5.612 4.318-10.24 9.832-10.535l.23-.02M8.314 12.597h14.37l1-.027v-1c0-4.597-3.304-8.064-7.686-8.064S8.313 6.972 8.313 11.57v1.026M16.257 0h-.514c-.03 0-.058.004-.087.004V.03C9.66.354 4.876 5.424 4.876 11.566c-.595 0-1.908.058-1.908 1.303v17.856c0 .708.743 1.276 1.66 1.276H27.37c.92 0 1.662-.568 1.662-1.273v-17.86c0-1.244-1.313-1.302-1.91-1.302 0-6.142-4.78-11.212-10.777-11.534V.005c-.032 0-.06-.004-.088-.004zM9.315 11.596v-.027c0-4.278 3.038-7.064 6.685-7.064s6.687 2.785 6.687 7.063v.026H9.315z"/><path fill="#999" d="M18.053 26h-4.105l.892-4.35c-.54-.36-.892-.965-.892-1.65 0-1.105.92-2 2.052-2 1.135 0 2.055.896 2.055 2 0 .682-.354 1.29-.896 1.648L18.052 26z"/></svg>