<svg xmlns="http://www.w3.org/2000/svg" width="32" height="32" viewBox="0 0 32 32"><path fill="#BBCFE5" d="M18.59 5.312c-.868 1.3-1.855 3.01-2.486 4.85-.987 2.866-1.38 5.41-1.522 6.602h5.827l-.603 1.018c-.013.02-1.253 2.168-1.253 5.13 0 1.474.18 2.674.416 3.62h9.52V5.312H18.59z"/><path fill="#3B90CB" d="M18.16 18.11h-5.043v-.004l.047-.713c.016-.143.254-3.552 1.67-7.67.563-1.638 1.37-3.157 2.15-4.412H3.512v21.22h14.07c-.22-.99-.378-2.19-.378-3.62 0-2.08.536-3.784.955-4.8z"/><path d="M16.29 22.91c-6.487 0-8.92-2.102-9.02-2.193l.89-1.007c.024.018 2.227 1.853 8.13 1.853 5.892 0 8.02-1.828 8.04-1.846l.91.994c-.096.09-2.457 2.2-8.95 2.2zm-5.373-11.227H9.57V8.708h1.347v2.975zm11.06 0H20.63V8.708h1.347v2.975zM18.97 30c-.072-.094-1.767-2.368-1.767-7.09 0-2.082.534-3.784.955-4.8h-5.042l.048-.717c.01-.143.246-3.552 1.662-7.67 1.43-4.16 4.44-7.58 4.567-7.724l1.007.893c-.025.032-2.957 3.37-4.3 7.268-.987 2.867-1.38 5.41-1.522 6.603h5.827l-.602 1.018c-.013.02-1.253 2.17-1.253 5.13 0 4.223 1.478 6.253 1.492 6.274L18.972 30z"/></svg>