<svg xmlns="http://www.w3.org/2000/svg" width="96" height="32" viewBox="0 0 96 32"><path fill="#FFF" d="M29.486 0c1.295 0 2.348 1.053 2.348 2.347v27.307c0 1.294-1.053 2.346-2.348 2.346H2.18C.888 32-.165 30.948-.165 29.652V2.347C-.166 1.053.887 0 2.18 0h27.306"/><path fill="#B4B4B4" d="M27.957 3.854c0 1.118-.902 2.02-2.02 2.02H5.73c-1.116 0-2.02-.904-2.02-2.02s.904-2.02 2.02-2.02h20.207c1.118 0 2.02.904 2.02 2.02zm0 15.125c0 1.11-.902 2.02-2.02 2.02H5.73c-1.116 0-2.02-.91-2.02-2.02 0-1.12.904-2.024 2.02-2.024h20.207c1.117 0 2.02.902 2.02 2.02v.003zm0-7.57c0 1.117-.902 2.02-2.02 2.02H5.73c-1.116 0-2.02-.903-2.02-2.02 0-1.115.904-2.02 2.02-2.02h20.207c1.118 0 2.02.905 2.02 2.02zM10.54 29.833V25c0-.248.02-.646.06-1.197h-.02c-.047.146-.09.273-.127.38-.04.11-.078.196-.11.27l-2.44 5.38h-.28L5.18 24.48c-.073-.165-.146-.395-.22-.69h-.02c.012.15.02.32.026.515.005.192.007.404.007.64v4.893h-.63v-7.003h.767l2.38 5.27c.05.106.096.22.143.34.047.106.09.23.13.36h.028l.126-.354c.038-.107.085-.226.14-.35l2.397-5.272h.728v7.003h-.64v.003zm2.648-2.388c.004.306.045.58.123.824.08.24.19.445.338.618.147.16.325.3.535.383.21.09.447.137.71.137.563 0 1.094-.197 1.596-.59v.614c-.48.343-1.06.513-1.74.513-.334 0-.64-.063-.912-.178-.273-.117-.506-.287-.698-.513-.192-.228-.34-.5-.444-.82-.104-.323-.156-.694-.156-1.112 0-.373.057-.72.17-1.04.115-.32.273-.595.475-.827.202-.23.44-.414.718-.547.277-.13.58-.195.91-.195.32 0 .605.06.853.17.248.112.455.272.623.48.166.208.294.462.382.762s.133.635.133 1.006v.313h-3.61l-.007.005zm2.97-.547c-.01-.52-.133-.926-.37-1.21-.24-.288-.57-.436-.99-.436-.21 0-.41.037-.59.112-.18.07-.34.184-.475.32-.14.146-.25.313-.34.52-.09.206-.157.44-.19.69h2.956v.004zm5.244 2.935v-2.88c0-1.13-.41-1.695-1.23-1.695-.22 0-.42.043-.605.13-.186.087-.346.205-.48.358-.134.152-.237.335-.313.544-.076.21-.115.438-.115.683v2.86h-.626v-5h.625v.87h.02c.37-.658.93-.987 1.675-.987.547 0 .965.18 1.25.532.287.354.432.867.432 1.538v3.047h-.635zm5.4 0v-.85h-.02c-.34.645-.864.967-1.577.967-1.188 0-1.78-.726-1.78-2.18v-2.94h.624v2.822c0 .6.104 1.04.32 1.326.212.287.538.432.98.432.212 0 .407-.04.585-.124.178-.082.332-.2.46-.354.128-.147.228-.332.3-.543.072-.215.105-.448.105-.704V24.83h.62v5h-.626l.007.003z"/><g><path fill="#FFF" d="M93.486 0c1.296 0 2.348 1.053 2.348 2.347v27.307c0 1.294-1.052 2.346-2.348 2.346H66.182c-1.295 0-2.348-1.052-2.348-2.348V2.347C63.834 1.053 64.887 0 66.182 0h27.304"/><path fill="#8C0D00" d="M88.455 20.402c-.79.79-2.066.79-2.855.002L71.31 6.114c-.788-.788-.788-2.066 0-2.855.79-.79 2.068-.79 2.857 0l14.288 14.288c.79.79.79 2.067 0 2.854zm.002-17.14c.785.786.79 2.068 0 2.858L74.17 20.41c-.79.788-2.072.783-2.857-.002-.79-.79-.793-2.07-.004-2.86l14.288-14.29c.79-.79 2.067-.79 2.857 0l.002.005z"/><path fill="#B4B4B4" d="M74.54 29.833V25c0-.248.02-.646.06-1.197h-.02c-.047.146-.09.273-.127.38-.04.11-.078.196-.11.27l-2.44 5.38h-.277l-2.44-5.354c-.073-.165-.147-.395-.224-.69h-.02c.014.15.02.32.025.515.005.192.007.404.007.64v4.893h-.63v-7.003h.767l2.38 5.265c.05.108.096.22.143.34.047.108.09.232.13.362h.028l.126-.356s.085-.227.14-.352l2.397-5.27h.73v7.003h-.642v.006zm2.65-2.388c.003.306.044.58.122.824.078.24.188.445.336.618.146.16.326.3.535.383.21.09.445.137.71.137.564 0 1.095-.197 1.597-.59v.614c-.48.343-1.06.513-1.738.513-.335 0-.64-.063-.913-.178-.273-.117-.507-.287-.7-.513-.188-.228-.34-.5-.44-.82-.104-.323-.156-.694-.156-1.112 0-.373.06-.72.17-1.04.115-.32.27-.595.477-.827.204-.23.44-.414.72-.547.277-.13.58-.195.908-.195.32 0 .604.06.854.17.248.112.455.272.623.48.167.208.295.462.383.762s.133.635.133 1.006v.313h-3.606l-.015.005zm2.97-.547c-.012-.52-.135-.926-.37-1.21-.24-.288-.57-.436-.993-.436-.21 0-.408.037-.588.112-.18.07-.34.184-.478.32-.142.146-.25.313-.34.52-.09.206-.156.44-.19.69H80.16v.004zm5.242 2.935v-2.88c0-1.13-.41-1.695-1.23-1.695-.218 0-.42.043-.605.13-.185.087-.346.205-.48.358-.134.152-.237.335-.313.544-.074.21-.113.438-.113.683v2.86h-.624v-5h.625v.87h.022c.37-.658.932-.987 1.676-.987.547 0 .965.18 1.25.532.287.354.432.867.432 1.538v3.047h-.638zm5.4 0v-.85h-.02c-.34.645-.863.967-1.576.967-1.188 0-1.782-.726-1.782-2.18v-2.94h.625v2.822c0 .6.104 1.04.32 1.326.212.287.54.432.98.432.212 0 .405-.04.585-.124.178-.082.332-.2.46-.354.128-.147.23-.332.3-.543.072-.215.104-.448.104-.704V24.83h.62v5h-.627l.01.003z"/></g></svg>