<svg xmlns="http://www.w3.org/2000/svg" width="32" height="32" viewBox="0 0 32 32"><path fill="#FFF" d="M21.8 2H10.2L2 10.2v11.6l8.2 8.2h11.6l8.2-8.2V10.2"/><path fill="#DF3800" d="M21.386 3L29 10.615v10.77L21.386 29h-10.77L3 21.385v-10.77L10.615 3h10.77"/><g fill="#FFF"><path d="M4.036 18.354c.397.256.966.45 1.58.45.906 0 1.436-.48 1.436-1.17 0-.636-.367-1.01-1.294-1.355-1.12-.41-1.814-1-1.814-1.958 0-1.063.887-1.86 2.22-1.86.687 0 1.212.167 1.504.34l-.245.723c-.215-.13-.674-.326-1.295-.326-.936 0-1.292.56-1.292 1.028 0 .64.417.958 1.364 1.324 1.162.447 1.74 1.007 1.74 2.015 0 1.06-.77 1.986-2.393 1.986-.66 0-1.384-.203-1.75-.45l.237-.74.002-.01zM11.472 13.322H9.385v-.754h5.082v.754H12.37v6.112h-.898M18.726 12.447c-1.832 0-3.177 1.428-3.177 3.605 0 2.08 1.262 3.495 3.086 3.495 1.752 0 3.188-1.264 3.188-3.617 0-2.047-1.213-3.483-3.098-3.483zm-.04 6.375c-1.405 0-2.2-1.314-2.2-2.79 0-1.5.736-2.862 2.21-2.862 1.477 0 2.19 1.424 2.19 2.8 0 1.56-.794 2.852-2.2 2.852zM27.6 13.09c-.405-.365-1.046-.572-1.923-.572-.713 0-1.273.066-1.7.132v6.79h.886v-2.75c.207.05.453.06.715.06.865 0 1.62-.26 2.098-.757.346-.352.53-.845.53-1.465 0-.61-.236-1.11-.605-1.437zm-2.006 2.947c-.3 0-.545-.02-.732-.073l-.006.002v-2.668c.15-.04.45-.07.836-.07.967 0 1.62.437 1.62 1.353 0 .928-.648 1.457-1.718 1.457z"/></g></svg>