<svg xmlns="http://www.w3.org/2000/svg" width="32" height="32" viewBox="0 0 32 32"><path fill="#C8C8C8" d="M26.885 30H5.115V2h21.77v28zM6.153 28.96H25.85V3.284H6.153V28.96z"/><path fill="#FFF" d="M6.154 28.838h19.694V3.162H6.154v25.676z"/><path fill="#F00" d="M7.82 24.178c-.203 0-.355-.06-.465-.135-.43-.28-.49-.613-.468-.85.103-1.032 2.343-2.003 2.79-2.188l.25.612c1.74-2.34 3.69-6.388 3.69-9.634h.667c0 4.5-3.68 10.867-5.815 12.008-.255.14-.474.19-.653.19l.002-.002zm2.1-2.55c-1.114.463-2.326 1.225-2.366 1.636-.003.026-.01.104.174.227.106.075.335-.033.427-.083.48-.258 1.106-.894 1.764-1.773v-.006zm1.904-.43l-.35-.568c3.828-2.364 11.176-2.574 13.274-1.35.533.31.637.675.63.92-.02.52-.272.746-.48.847-.933.452-2.937-.943-3.327-1.23l.388-.532c-2.91-.253-7.377.212-10.138 1.915h.004zm10.148-1.91c.977.702 2.262 1.332 2.633 1.155.02-.016.094-.05.102-.27.006-.132-.205-.273-.297-.324-.47-.274-1.338-.475-2.434-.57l-.004.01zm-1.65-.74c-3.91-2.227-7.63-8.567-7.57-10.99.016-.616.284-.883.506-.995.46-.23.783-.12.972.016.85.602.586 3.026.524 3.507L14.098 10c1.175 2.667 3.734 6.36 6.556 7.965l-.33.58-.002.002zM13.76 7.102c-.043 0-.105.014-.202.06-.118.057-.135.31-.14.416-.013.542.232 1.402.674 2.408.15-1.193.087-2.625-.25-2.86-.01-.01-.033-.025-.08-.025h-.002z"/></svg>