<svg xmlns="http://www.w3.org/2000/svg" width="32" height="32" viewBox="0 0 32 32"><circle fill="#CD1D1F" cx="16" cy="16" r="14"/><path fill="#FFF" d="M10.907 26.36c-5.246-2.325-7.867-8.88-5.74-14.376 2.26-5.84 8.76-8.815 14.617-6.688 5.95 2.164 8.988 8.544 6.935 14.577-1.92 5.628-8.4 8.967-13.84 7.212l1.79-5.414c1.744 1.6 4.063 1.65 6.1.1 2.51-1.925 3.624-6.394 2.283-9.267-1.08-2.313-2.97-3.615-5.446-3.94-3.27-.432-6.16.4-8.19 3.175-1.457 2-1.763 4.22-.74 6.536.324.738.877 1.287 1.6 1.65.42.218.688.12.84-.356.2-.64.19-1.16-.22-1.79-.86-1.31-.62-2.742-.055-4.1 1.348-3.215 5.973-4.35 8.56-2.13.854.733 1.28 1.686 1.35 2.77.11 1.645-.144 3.235-.935 4.707-.474.873-1.116 1.555-2.12 1.8-1.53.368-2.66-.735-2.29-2.26.245-1.02.564-2.026.837-3.045.07-.262.108-.537.12-.81.033-.78-.335-1.44-.917-1.696-.63-.274-1.454-.095-1.984.484-.967 1.055-1.017 2.3-.73 3.63.092.433.105.92.012 1.352-.434 2.02-.938 4.026-1.37 6.05-.14.62-.37 1.88-.472 1.833l.004-.004z"/></svg>