<svg xmlns="http://www.w3.org/2000/svg" width="32" height="32" viewBox="0 0 32 32"><path fill="#C8C8C8" d="M28.156 7.946H3.844c-.955 0-1.736.78-1.736 1.736v8.68c0 .956.782 1.737 1.736 1.737h5.21v6.946h13.892V20.1h5.21c.954 0 1.735-.78 1.735-1.736v-8.68c0-.957-.78-1.738-1.734-1.738"/><path fill="#FFF" d="M10.75 16.63h10.42v8.68H10.75z"/><path fill="#B4B4B4" d="M19.88 24.02h-7.836v-1.068h7.837v1.068zM19.88 21.883h-7.836v-1.066h7.837v1.066zM19.88 19.744h-7.836v-1.068h7.837v1.068zM9.27 4.953H22.73v3.04H9.27z"/></svg>