<svg xmlns="http://www.w3.org/2000/svg" width="32" height="32" viewBox="0 0 32 32"><path fill="#73CFEF" d="M28.668 17.803c.078-.568.122-1.146.122-1.735 0-7.064-5.757-12.79-12.856-12.79-.706 0-1.396.057-2.07.168-1.208-.788-2.646-1.245-4.19-1.245C5.434 2.2 2 5.637 2 9.875c0 1.542.455 2.974 1.236 4.177-.105.658-.16 1.332-.16 2.017 0 7.063 5.755 12.79 12.855 12.79.804 0 1.583-.076 2.34-.214 1.18.73 2.568 1.155 4.057 1.155 4.238 0 7.672-3.437 7.672-7.674 0-1.6-.49-3.09-1.332-4.32z"/><path opacity=".3" d="M28.668 17.803c.078-.568.122-1.146.122-1.735 0-3.662-1.554-6.954-4.034-9.286 2.162 2.29 3.496 5.36 3.496 8.747 0 .588-.045 1.166-.123 1.734.844 1.23 1.33 2.72 1.33 4.322 0 4.238-3.434 7.675-7.672 7.675-1.486 0-2.875-.424-4.055-1.154-.758.137-1.538.215-2.34.215-3.42 0-6.52-1.337-8.82-3.503 2.343 2.48 5.666 4.043 9.36 4.043.803 0 1.582-.077 2.34-.215 1.18.73 2.567 1.155 4.056 1.155 4.237 0 7.67-3.436 7.67-7.674 0-1.603-.49-3.092-1.332-4.323z"/><path opacity=".3" d="M3.886 16.605c0-.686.055-1.358.16-2.016-.782-1.203-1.237-2.636-1.237-4.178 0-4.238 3.433-7.672 7.67-7.672 1.547 0 2.982.458 4.19 1.244.675-.11 1.365-.168 2.07-.168 2.476 0 4.78.708 6.74 1.914-2.12-1.535-4.725-2.454-7.55-2.454-.705 0-1.395.058-2.07.17-1.207-.79-2.645-1.246-4.19-1.246C5.435 2.2 2 5.636 2 9.874c0 1.542.455 2.974 1.236 4.177-.105.658-.16 1.332-.16 2.017 0 4.6 2.45 8.625 6.114 10.875-3.208-2.323-5.304-6.083-5.304-10.337z"/><path opacity=".3" d="M16.008 26.602c-3.215 0-5.348-.77-7.358-2.656-1.304-1.227-1.798-2.752-1.322-4.082.373-1.045 1.297-1.74 2.41-1.814 1.616-.107 2.653 1.044 3.407 1.87.23.252.49.537.635.628.348.22 1.487.694 2.603.694.798 0 1.387-.23 1.8-.703.256-.293.318-.488.3-.543-.123-.332-1.207-.954-3.147-1.238-3.894-.577-8.303-2.717-7.923-6.848.33-3.576 2.942-6.105 6.655-6.44 3.587-.33 6.143.41 8.386 2.323 1.825 1.557 1.59 3.163 1.403 3.78-.328 1.088-1.27 1.906-2.347 2.036l-.23.015c-.927 0-1.668-.64-2.453-1.32-.887-.77-1.89-1.638-3.192-1.66-1.376 0-2.19.786-2.24 1.19-.024.21.373.526 1.183.723.516.125 1.038.24 1.558.355 3.373.744 6.863 1.512 8.313 4.943.67 1.593.497 3.338-.49 4.914-1.357 2.166-4.013 3.657-6.765 3.8-.418.02-.812.032-1.187.032z"/><path fill="#FFF" d="M14.163 6.003c3.503-.32 5.786.53 7.59 2.07 2.085 1.78.957 3.768-.373 3.93-1.32.158-2.81-2.928-5.73-2.974-3.01-.048-5.043 3.13-1.328 4.035 3.717.902 7.697 1.273 9.13 4.67 1.437 3.397-2.228 7.008-6.315 7.22-4.088.213-5.998-.69-7.75-2.334-1.955-1.835-1.17-3.93.423-4.035 1.592-.106 2.55 1.806 3.4 2.337.85.53 4.077 1.737 5.783-.214 1.858-2.123-1.234-3.222-3.503-3.556-3.237-.48-7.324-2.23-7.006-5.68.318-3.45 2.93-5.22 5.68-5.47z"/></svg>