<svg xmlns="http://www.w3.org/2000/svg" width="32" height="32" viewBox="0 0 32 32"><path fill="#999" d="M32 28.143c0 2.21-1.792 4-4 4H4c-2.21 0-4-1.79-4-4v-24c0-2.21 1.79-4 4-4h24c2.208 0 4 1.79 4 4v24z"/><path fill="#58B632" d="M32 28.143c0 2.21-1.792 4-4 4H4c-2.21 0-4-1.79-4-4v-24c0-2.21 1.79-4 4-4h24c2.208 0 4 1.79 4 4v24z"/><path fill="#58B632" d="M32 28.143c0 2.21-1.792 4-4 4H4c-2.21 0-4-1.79-4-4v-24c0-2.21 1.79-4 4-4h24c2.208 0 4 1.79 4 4v24z"/><path fill="#FFF" d="M28 .143H9.286L9.24.17C6.304 2.435 3.976 5.54 3.616 9.024c-.09.572-.15 1.15-.15 1.743 0 3.633 1.75 6.924 4.58 9.38v7.797l6.58-4.286c1.782.52 3.698.82 5.703.82 4.534 0 8.64-1.463 11.67-3.83V4.143c0-2.21-1.792-4-4-4zm2.69 12.3c-1.36 3.277-5.555 5.742-10.36 5.742s-9-2.458-10.356-5.73c-.137-.546-.208-1.11-.208-1.69 0-4.093 3.522-7.51 8.23-8.376.756-.128 1.533-.2 2.333-.2.807 0 1.59.074 2.348.203 4.698.87 8.213 4.283 8.213 8.37 0 .575-.073 1.135-.202 1.68h.002z"/></svg>