<svg xmlns="http://www.w3.org/2000/svg" width="32" height="32" viewBox="0 0 32 32"><path fill="#2AA9E0" d="M15.97 29.5c-5.89 0-10.68-5.175-10.68-11.535V5.547C5.29 3.867 6.64 2.5 8.3 2.5c1.63 0 2.908 1.34 2.91 3.048v3.96H23.7c1.66 0 3.01 1.346 3.01 3.002s-1.35 3.002-3.012 3.002h-12.49v2.453c0 2.96 2.28 5.555 4.878 5.555h7.7c1.667 0 2.924 1.272 2.924 2.96 0 1.666-1.363 3.02-3.04 3.02h-7.7z"/><path fill="#FFF" d="M8.3 3c1.35 0 2.408 1.12 2.41 2.547v4.46H23.7c1.385 0 2.51 1.123 2.51 2.503s-1.126 2.502-2.512 2.502h-12.99V17.965c0 3.226 2.513 6.055 5.378 6.055h7.7c1.382 0 2.424 1.058 2.424 2.46 0 1.39-1.14 2.52-2.54 2.52h-7.7c-5.613 0-10.18-4.95-10.18-11.035V5.547C5.79 4.143 6.916 3 8.3 3m0-1C6.36 2 4.79 3.59 4.79 5.547v12.418c0 6.65 5 12.035 11.18 12.035h7.7c1.938 0 3.54-1.563 3.54-3.52 0-1.96-1.48-3.46-3.425-3.46h-7.7c-2.268 0-4.378-2.36-4.378-5.056V16.01h11.99c1.94 0 3.513-1.567 3.513-3.5 0-1.936-1.57-3.504-3.51-3.504H11.71v-3.46C11.707 3.59 10.24 2 8.3 2z"/></svg>