<?xml version="1.0" encoding="utf-8"?>
<!-- Generator: Adobe Illustrator 14.0.0, SVG Export Plug-In . SVG Version: 6.00 Build 43363)  -->
<!DOCTYPE svg PUBLIC "-//W3C//DTD SVG 1.1//EN" "http://www.w3.org/Graphics/SVG/1.1/DTD/svg11.dtd">
<svg version="1.1" id="Layer_1" xmlns="http://www.w3.org/2000/svg" xmlns:xlink="http://www.w3.org/1999/xlink" x="0px" y="0px"
	 width="32px" height="32px" viewBox="0 0 32 32" enable-background="new 0 0 32 32" xml:space="preserve">
<g>
	<path fill="#FFFFFF" d="M23.639,16.878c-0.035-3.546,2.892-5.246,3.022-5.332c-1.646-2.407-4.207-2.736-5.119-2.773
		c-2.18-0.221-4.254,1.284-5.362,1.284c-1.103,0-2.811-1.251-4.619-1.22c-2.378,0.034-4.568,1.379-5.793,3.51
		c-2.467,4.284-0.631,10.63,1.775,14.103c1.176,1.702,2.578,3.615,4.419,3.547c1.77-0.071,2.442-1.148,4.584-1.148
		c2.144,0,2.749,1.148,4.623,1.112c1.907-0.035,3.117-1.732,4.284-3.44c1.348-1.974,1.908-3.884,1.937-3.983
		c-0.045-0.017-3.722-1.426-3.758-5.66L23.639,16.878L23.639,16.878z M20.115,6.472c0.978-1.185,1.636-2.831,1.458-4.471
		c-1.41,0.058-3.115,0.937-4.124,2.12c-0.908,1.05-1.701,2.725-1.489,4.333C17.533,8.577,19.136,7.654,20.115,6.472L20.115,6.472z"
		/>
	<path fill="#B3B3B3" d="M19.527,6.743c0.842-1.025,1.407-2.448,1.254-3.868c-1.212,0.051-2.678,0.812-3.546,1.834
		c-0.782,0.906-1.462,2.355-1.281,3.747C17.307,8.561,18.686,7.765,19.527,6.743z"/>
	<path fill="#999999" d="M20.45,3.333c-0.157,0.856-0.562,1.721-1.165,2.453c-0.601,0.727-1.415,1.258-2.223,1.484
		c0.173-0.965,0.702-1.871,1.207-2.453C18.81,4.185,19.634,3.638,20.45,3.333 M21.573,2c-1.41,0.058-3.115,0.937-4.124,2.12
		c-0.908,1.05-1.701,2.725-1.489,4.334c0.094,0.009,0.188,0.011,0.282,0.011c1.48,0,2.95-0.884,3.868-1.995
		C21.091,5.281,21.747,3.637,21.573,2z"/>
	<path fill="#B3B3B3" d="M23.639,16.878c-0.035-3.546,2.892-5.246,3.022-5.332c-1.646-2.407-4.207-2.736-5.119-2.773
		c-2.18-0.221-4.254,1.284-5.362,1.284c-1.103,0-2.811-1.251-4.619-1.22c-2.378,0.034-4.568,1.379-5.793,3.51
		c-2.467,4.284-0.631,10.63,1.775,14.103c1.176,1.702,2.578,3.615,4.419,3.547c1.77-0.071,2.442-1.148,4.584-1.148
		c2.144,0,2.749,1.148,4.623,1.112c1.907-0.035,3.117-1.732,4.284-3.44c1.348-1.974,1.908-3.884,1.937-3.983
		c-0.045-0.017-3.722-1.426-3.758-5.66L23.639,16.878L23.639,16.878z"/>
	<path fill="#999999" d="M21.098,9.828c0.111,0,0.224,0.005,0.337,0.017l0.03,0.002l0.033,0.002c0.71,0.029,2.316,0.245,3.611,1.514
		c-1.106,0.962-2.573,2.766-2.547,5.525c0.029,3.519,2.223,5.384,3.51,6.176c-0.289,0.727-0.774,1.787-1.504,2.853
		c-1.182,1.724-2.118,2.947-3.414,2.973H21.09c-0.646,0-1.092-0.193-1.652-0.438c-0.699-0.307-1.565-0.679-2.885-0.679
		c-1.369,0-2.271,0.383-2.996,0.693c-0.568,0.236-1.016,0.428-1.637,0.455h-0.054c-1.207,0-2.361-1.522-3.438-3.08
		c-2.083-3.01-3.996-9.018-1.727-12.959c1.036-1.803,2.902-2.939,4.925-2.971c0.796,0,1.622,0.329,2.421,0.646
		c0.743,0.294,1.445,0.571,2.129,0.571c0.636,0,1.301-0.265,2.074-0.566c0.877-0.35,1.872-0.743,2.841-0.743 M21.092,8.743
		c-2.01,0.003-3.883,1.308-4.915,1.308c-1.085,0-2.766-1.222-4.546-1.222c-0.022,0-0.046,0-0.069,0
		c-2.377,0.038-4.568,1.382-5.791,3.513c-2.467,4.283-0.636,10.63,1.77,14.104C8.701,28.128,10.076,30,11.87,30
		c0.032,0,0.063,0,0.095-0.002c1.771-0.071,2.443-1.149,4.587-1.149c2.11,0,2.727,1.113,4.537,1.113c0.028,0,0.056,0,0.086,0
		c1.908-0.036,3.116-1.731,4.284-3.441c1.356-1.974,1.907-3.884,1.942-3.982c-0.045-0.02-3.721-1.429-3.758-5.663
		c-0.035-3.544,2.892-5.245,3.021-5.33c-1.645-2.407-4.208-2.735-5.119-2.773C21.398,8.756,21.25,8.75,21.1,8.75L21.092,8.743z"/>
</g>
</svg>
