<?xml version="1.0" encoding="utf-8"?>
<!-- Generator: Adobe Illustrator 14.0.0, SVG Export Plug-In . SVG Version: 6.00 Build 43363)  -->
<!DOCTYPE svg PUBLIC "-//W3C//DTD SVG 1.1//EN" "http://www.w3.org/Graphics/SVG/1.1/DTD/svg11.dtd">
<svg version="1.1" id="Layer_1" xmlns="http://www.w3.org/2000/svg" xmlns:xlink="http://www.w3.org/1999/xlink" x="0px" y="0px"
	 width="32px" height="32px" viewBox="0 0 32 32" enable-background="new 0 0 32 32" xml:space="preserve">
<symbol  id="_x5F_button_x5F_shape" viewBox="-16 -16 32 32">
	<g id="button_x5F_shape_1_">
		<g>
			<g opacity="0">
				<path fill="#FFFFFF" d="M16-12c0-2.209-1.791-4-4-4h-24c-2.209,0-4,1.791-4,4v24c0,2.209,1.791,4,4,4h24c2.209,0,4-1.791,4-4
					V-12z"/>
			</g>
		</g>
	</g>
</symbol>
<g>
	<g id="XMLID_1_">
		<g>
			<g>
				<g>
					<g>
						<g>
							
								<use xlink:href="#_x5F_button_x5F_shape"  width="32" height="32" x="-16" y="-16" transform="matrix(1 0 0 -1 15.9998 16)" overflow="visible"/>
						</g>
						<g>
							<g>
								<g>
									<g>
										<path fill="#999999" d="M32,28c0,2.209-1.791,4-4,4H4c-2.209,0-4-1.791-4-4V4c0-2.209,1.791-4,4-4h24c2.209,0,4,1.791,4,4
											V28z"/>
									</g>
								</g>
							</g>
						</g>
					</g>
				</g>
			</g>
			<g>
				<g>
					<g>
						<g>
							<g>
								<g>
									<g>
										<path fill="#FB913F" d="M32,28c0,2.209-1.791,4-4,4H4c-2.209,0-4-1.791-4-4V4c0-2.209,1.791-4,4-4h24c2.209,0,4,1.791,4,4
											V28z"/>
									</g>
								</g>
							</g>
						</g>
						<g>
							<g>
								<g>
									<g>
										<path fill="#FB913F" d="M32,28c0,2.209-1.791,4-4,4H4c-2.209,0-4-1.791-4-4V4c0-2.209,1.791-4,4-4h24c2.209,0,4,1.791,4,4
											V28z"/>
									</g>
								</g>
							</g>
						</g>
						<g>
							<g>
								<g>
									<g>
										<path fill="#FB913F" d="M32,28c0,2.209-1.791,4-4,4H4c-2.209,0-4-1.791-4-4V4c0-2.209,1.791-4,4-4h24c2.209,0,4,1.791,4,4
											V28z"/>
									</g>
								</g>
							</g>
						</g>
					</g>
				</g>
			</g>
		</g>
		<path fill="#FFFFFF" d="M28.619,12.907v-0.018h-2.291l-0.001-0.002c-0.849-0.013-1.511-0.158-1.511-1.77c0-1.611,0-1.317,0-1.317
			c0-4.296-3.482-7.778-7.777-7.778h-7.26c-4.295,0-7.778,3.482-7.778,7.778v12.401c0,4.296,3.482,7.775,7.778,7.775h12.444
			c4.104,0,7.46-3.183,7.751-7.215h0.027v-8.318C30.002,13.645,29.396,12.994,28.619,12.907z M11.076,9.044h4.666
			c1.002,0,1.814,0.812,1.814,1.814c0,1.003-0.813,1.815-1.814,1.815h-4.666c-1.003,0-1.814-0.812-1.814-1.815
			C9.261,9.856,10.073,9.044,11.076,9.044z M16.033,17.506c-0.011,0.016-0.021,0.029-0.031,0.043
			c-0.014-0.019-0.025-0.035-0.04-0.054C15.985,17.498,16.01,17.502,16.033,17.506z M20.927,23.044h-9.851
			c-1.003,0-1.814-0.813-1.814-1.815s0.813-1.813,1.814-1.813h9.851c1.004,0,1.815,0.813,1.815,1.813
			C22.742,22.23,21.93,23.044,20.927,23.044z"/>
	</g>
</g>
</svg>
