<?xml version="1.0" encoding="utf-8"?>
<!-- Generator: Adobe Illustrator 14.0.0, SVG Export Plug-In . SVG Version: 6.00 Build 43363)  -->
<!DOCTYPE svg PUBLIC "-//W3C//DTD SVG 1.1//EN" "http://www.w3.org/Graphics/SVG/1.1/DTD/svg11.dtd">
<svg version="1.1" id="Layer_1" xmlns="http://www.w3.org/2000/svg" xmlns:xlink="http://www.w3.org/1999/xlink" x="0px" y="0px"
	 width="32px" height="32px" viewBox="0 0 32 32" enable-background="new 0 0 32 32" xml:space="preserve">
<path fill="#FFFFFF" d="M17.334,12.052c-3.352,0-6.077,2.729-6.077,6.077c0,3.35,2.726,6.07,6.077,6.07
	c3.352,0,6.077-2.727,6.077-6.076c0-3.352-2.72-6.078-6.07-6.078L17.334,12.052z M31.284,7.882v-3.96c0-0.68-0.552-1.23-1.229-1.23
	h-7.387c-0.68,0-1.23,0.55-1.23,1.23v3.233H2.46C1.103,7.155,0,8.257,0,9.617v17.23c0,1.357,1.102,2.459,2.46,2.459h27.08
	c1.358,0,2.462-1.102,2.462-2.459V9.617C32.002,8.939,31.729,8.327,31.284,7.882L31.284,7.882z M17.334,26.205
	c-4.453,0-8.077-3.623-8.077-8.076c0-4.46,3.624-8.08,8.077-8.08s8.077,3.62,8.077,8.074c0,4.452-3.62,8.075-8.07,8.075
	L17.334,26.205z M29.42,6.585H23.3V4.788h6.12V6.585L29.42,6.585z"/>
</svg>
