<?xml version="1.0" encoding="utf-8"?>
<!-- Generator: Adobe Illustrator 14.0.0, SVG Export Plug-In . SVG Version: 6.00 Build 43363)  -->
<!DOCTYPE svg PUBLIC "-//W3C//DTD SVG 1.1//EN" "http://www.w3.org/Graphics/SVG/1.1/DTD/svg11.dtd">
<svg version="1.1" id="Layer_1" xmlns="http://www.w3.org/2000/svg" xmlns:xlink="http://www.w3.org/1999/xlink" x="0px" y="0px"
	 width="32px" height="32px" viewBox="0 0 32 32" enable-background="new 0 0 32 32" xml:space="preserve">
<g>
	<g>
		<path fill="#FFFFFF" d="M22.978,27.182c-0.909,0-1.648-0.739-1.648-1.647c0-0.909,0.739-1.648,1.648-1.648
			c0.907,0,1.646,0.739,1.647,1.649C24.625,26.442,23.885,27.182,22.978,27.182L22.978,27.182z M11.693,27.182
			c-0.908,0-1.647-0.739-1.647-1.647c0-0.909,0.739-1.648,1.647-1.648s1.646,0.739,1.646,1.648
			C13.339,26.442,12.601,27.182,11.693,27.182L11.693,27.182z M9.733,22.206L5.717,5.968H2.445V4.816h4.107l0.974,3.839h21.78
			l-4.702,10.266H9.977l0.752,2.868h13.893l-0.158,0.417H9.733z"/>
		<path fill="#B4B4B4" d="M6.206,5.262L7.01,8.43L7.18,9.101h0.693h20.739l-4.292,9.376H10.555H9.401l0.293,1.116l0.52,1.979
			l0.049,0.19h-0.182L6.233,6.199L6.066,5.521H5.368H2.89v-0.26H6.206 M22.978,24.331c0.661,0,1.201,0.541,1.202,1.204
			c0,0.663-0.54,1.203-1.202,1.203c-0.664,0-1.203-0.539-1.203-1.203S22.315,24.331,22.978,24.331 M11.693,24.331
			c0.662,0,1.201,0.54,1.201,1.204c0,0.663-0.54,1.203-1.201,1.203c-0.662,0-1.202-0.539-1.202-1.203S11.031,24.331,11.693,24.331
			 M6.898,4.371H2v2.042h3.369l4.015,16.238H24.77l0.498-1.308H11.074l-0.519-1.978H24.89L30,8.209H7.873L6.898,4.371L6.898,4.371z
			 M22.978,23.44c-1.155,0-2.094,0.94-2.094,2.095s0.938,2.094,2.094,2.094c1.154,0,2.093-0.939,2.093-2.094
			C25.068,24.38,24.132,23.44,22.978,23.44L22.978,23.44z M11.693,23.44c-1.154,0-2.093,0.94-2.093,2.095s0.939,2.094,2.093,2.094
			c1.154,0,2.092-0.939,2.092-2.094C13.784,24.38,12.848,23.44,11.693,23.44L11.693,23.44z"/>
	</g>
	<polygon fill="#C8C8C8" points="8.603,10.246 10.404,17.559 23.302,17.559 26.599,10.246 	"/>
</g>
</svg>
