<svg xmlns="http://www.w3.org/2000/svg" xmlns:xlink="http://www.w3.org/1999/xlink" width="32" height="32" viewBox="0 0 32 32"><path fill="#E12E2F" d="M15.964 2.002s8.254-.37 12.629 7.91H15.261l-5.199 8.159-5.696-9.848s3.259-5.891 11.597-6.221"/><path fill="#FCD209" d="M28.162 23.028s-3.809 7.318-13.179 6.959l6.665-11.523-4.471-8.576 11.388.002s3.483 5.766-.403 13.138"/><path fill="#43A445" d="M3.823 23.084s-4.447-6.953.551-14.873c1.153 1.999 6.663 11.524 6.663 11.524l9.677.42L15.017 30s-6.741.123-11.194-6.922"/><path fill="#FFF" d="M9.682 16.114c0-3.443 2.796-6.234 6.247-6.234 3.447 0 6.245 2.791 6.245 6.234a6.242 6.242 0 0 1-6.246 6.24c-3.45 0-6.247-2.79-6.247-6.234"/><defs><path id="a" d="M10.729 16.114a5.196 5.196 0 0 0 5.2 5.192 5.194 5.194 0 0 0 5.198-5.192 5.196 5.196 0 0 0-5.198-5.188c-2.879 0-5.206 2.328-5.206 5.188"/></defs><clipPath id="b"><use xlink:href="#a" overflow="visible"/></clipPath><path clip-path="url(#b)" fill="#0C5A94" d="M21.127 10.925v10.38H10.73v-10.38h10.397z"/></svg>