<?xml version="1.0" encoding="utf-8"?>
<!-- Generator: Adobe Illustrator 14.0.0, SVG Export Plug-In . SVG Version: 6.00 Build 43363)  -->
<!DOCTYPE svg PUBLIC "-//W3C//DTD SVG 1.1//EN" "http://www.w3.org/Graphics/SVG/1.1/DTD/svg11.dtd">
<svg version="1.1" id="Layer_1" xmlns="http://www.w3.org/2000/svg" xmlns:xlink="http://www.w3.org/1999/xlink" x="0px" y="0px"
	 width="32px" height="32px" viewBox="0 0 32 32" enable-background="new 0 0 32 32" xml:space="preserve">
<g>
	<path fill="#FFFFFF" d="M23.321,14.957c1.021-4.171-1.909-6.154-3.88-6.154c-2.1,0-5.25,0.642-5.383,4.932
		C11.275,9.562,5.792,12.77,7.3,16.409c-3.259-1.481-4.367,1.777-4.367,3.556c0,1.782,1.451,3.233,3.234,3.233h18.552
		c2.396,0,4.348-1.954,4.348-4.347C29.066,16.782,27.958,13.762,23.321,14.957z"/>
	<path fill="#C8C8C8" d="M19.441,8.803c1.971,0,4.9,1.983,3.88,6.154c0.727-0.188,1.367-0.271,1.931-0.271
		c3.026,0,3.814,2.421,3.814,4.166c0,2.393-1.951,4.347-4.348,4.347H6.167c-1.783,0-3.234-1.451-3.234-3.233
		c0-1.464,0.751-3.932,2.835-3.932c0.447,0,0.957,0.114,1.532,0.376c-1.002-2.418,1.081-4.646,3.409-4.645
		c1.176,0,2.416,0.568,3.35,1.97C14.191,9.444,17.342,8.803,19.441,8.803 M19.441,7.869c-3.195,0-5.272,1.353-6.016,3.854
		c-0.804-0.584-1.729-0.893-2.717-0.893C9.153,10.83,7.658,11.623,6.805,12.9c-0.452,0.676-0.686,1.439-0.693,2.216
		c-0.116-0.011-0.23-0.016-0.343-0.016c0,0,0,0-0.001,0c-1.258,0-2.329,0.672-3.013,1.894C2.282,17.838,2,18.948,2,19.965
		c0,2.297,1.869,4.166,4.167,4.166h18.552c2.912,0,5.281-2.367,5.281-5.279c0-2.353-1.243-5.1-4.748-5.1
		c-0.258,0-0.525,0.016-0.804,0.046c0.132-1.869-0.501-3.157-1.127-3.955C22.365,8.626,20.879,7.869,19.441,7.869L19.441,7.869z"/>
</g>
</svg>
