<?xml version="1.0" encoding="utf-8"?>
<!-- Generator: Adobe Illustrator 14.0.0, SVG Export Plug-In . SVG Version: 6.00 Build 43363)  -->
<!DOCTYPE svg PUBLIC "-//W3C//DTD SVG 1.1//EN" "http://www.w3.org/Graphics/SVG/1.1/DTD/svg11.dtd">
<svg version="1.1" id="Layer_1" xmlns="http://www.w3.org/2000/svg" xmlns:xlink="http://www.w3.org/1999/xlink" x="0px" y="0px"
	 width="32px" height="32px" viewBox="0 0 32 32" enable-background="new 0 0 32 32" xml:space="preserve">
<g>
	<path fill="#0070BA" d="M5.902,27.2L3.656,2h24.688l-2.249,25.196L15.982,30L5.902,27.2z"/>
	<path fill="#28A9E0" d="M16,27.857l8.169-2.266l1.923-21.529H16V27.857z"/>
	<path fill="#EBEBEB" d="M16,21.434l-0.014,0.004l-3.443-0.93l-0.219-2.463H9.219l0.435,4.85l6.329,1.76l0.015-0.004L16,21.434z"/>
	<path fill="#FFFFFF" d="M15.988,13.407v3.09h3.807l-0.358,4.01l-3.447,0.93v3.216l6.338-1.758l0.044-0.52l0.727-8.14l0.078-0.829
		h-0.835L15.988,13.407L15.988,13.407z M15.988,7.15v3.063l-0.057,0.027v3.187l7.516-3.181l0.008-0.002l0.009-0.202l-0.006,0.171
		l0.059-0.66l0.14-1.566l0.075-0.831L15.988,7.15z"/>
	<path fill="#EBEBEB" d="M16,7.151H8.252l0.073,0.828l0.203,2.28l7.455-0.019L8.89,13.399H8.8l0.289,3.093H16v-3.091V7.151z"/>
</g>
</svg>
