<?xml version="1.0" encoding="utf-8"?>
<!-- Generator: Adobe Illustrator 14.0.0, SVG Export Plug-In . SVG Version: 6.00 Build 43363)  -->
<!DOCTYPE svg PUBLIC "-//W3C//DTD SVG 1.1//EN" "http://www.w3.org/Graphics/SVG/1.1/DTD/svg11.dtd">
<svg version="1.1" id="Layer_1" xmlns="http://www.w3.org/2000/svg" xmlns:xlink="http://www.w3.org/1999/xlink" x="0px" y="0px"
	 width="32px" height="32px" viewBox="0 0 32 32" enable-background="new 0 0 32 32" xml:space="preserve">
<g>
	<path fill="#FFFFFF" d="M5.63,9.188v20.294h20.741V2.519H12.113L5.63,9.188z"/>
	<path fill="#C8C8C8" d="M26.889,30H5.11V8.978L11.895,2h14.996v28H26.889z M6.149,28.962h19.707V3.036H12.335L6.15,9.398v19.566
		H6.149V28.962z"/>
	<path fill="#B4B4B4" d="M5.63,9.188h6.484V2.519L5.63,9.188z"/>
	<g>
		<path fill="#B4B4B4" d="M23.779,6.373H16V5.336h7.779V6.373z"/>
		<path fill="#B4B4B4" d="M23.779,8.447H16V7.409h7.779V8.447z"/>
		<path fill="#B4B4B4" d="M23.779,10.52H16V9.484h7.779V10.52z"/>
		<path fill="#B4B4B4" d="M23.779,14.288H7.875V13.25h15.904V14.288z"/>
		<path fill="#B4B4B4" d="M23.779,17.398H7.875v-1.038h15.904V17.398z"/>
		<path fill="#B4B4B4" d="M23.779,20.511H7.875v-1.038h15.904V20.511z"/>
		<path fill="#B4B4B4" d="M23.779,23.621H7.875v-1.038h15.904V23.621z"/>
		<path fill="#B4B4B4" d="M23.779,26.73H7.875v-1.037h15.904V26.73z"/>
	</g>
</g>
</svg>
