<?xml version="1.0" encoding="utf-8"?>
<!-- Generator: Adobe Illustrator 14.0.0, SVG Export Plug-In . SVG Version: 6.00 Build 43363)  -->
<!DOCTYPE svg PUBLIC "-//W3C//DTD SVG 1.1//EN" "http://www.w3.org/Graphics/SVG/1.1/DTD/svg11.dtd">
<svg version="1.1" id="Layer_1" xmlns="http://www.w3.org/2000/svg" xmlns:xlink="http://www.w3.org/1999/xlink" x="0px" y="0px"
	 width="32px" height="32px" viewBox="0 0 32 32" enable-background="new 0 0 32 32" xml:space="preserve">
<g>
	<path fill="#005A8D" d="M22.099,7.206c-1.43-0.89-2.779-1.239-4.128-2.13c-0.834-0.564-1.995-1.914-2.969-3.077
		C14.815,3.86,14.248,4.616,13.6,5.156c-1.374,1.079-2.237,1.402-3.426,2.049c-0.997,0.514-6.419,3.749-6.419,10.71
		c0,6.957,5.854,12.083,12.355,12.083c6.502,0,12.14-4.723,12.14-11.868C28.25,10.982,22.96,7.748,22.099,7.206z"/>
	<path fill="#FFFFFF" d="M19.908,23.953c0.432,0,0.894,0.029,1.216,0.245c0.322,0.217,0.513,0.702,0.618,0.969
		c0.109,0.272,0,0.431-0.214,0.54c-0.188,0.106-0.217,0.054-0.404-0.296c-0.189-0.35-0.35-0.705-1.295-0.705
		c-0.943,0-1.242,0.332-1.697,0.708c-0.459,0.377-0.621,0.512-0.784,0.299c-0.166-0.219-0.113-0.433,0.184-0.701
		c0.298-0.271,0.783-0.704,1.242-0.892c0.456-0.188,0.701-0.163,1.131-0.163L19.908,23.953z M15.385,26.848
		c0.539,0.431,1.348,0.781,3.074,0.781c1.725,0,2.939-0.487,3.475-0.895c0.244-0.192,0.351-0.024,0.38,0.082
		c0.026,0.108,0.082,0.271-0.109,0.456c-0.134,0.133-1.372,0.997-2.83,1.133c-1.457,0.132-3.428,0.215-4.614-0.862
		c-0.188-0.189-0.135-0.455,0-0.564c0.135-0.108,0.243-0.19,0.406-0.19c0.162,0,0.134,0,0.216,0.053L15.385,26.848z"/>
	<path fill="#0073BA" d="M15.5,23.375c7.313-3.5,10.042-9.524,9.567-13.684c-1.299-1.45-2.588-2.243-2.979-2.487
		c-1.4-0.891-2.776-1.24-4.125-2.131c-0.834-0.539-1.996-1.916-2.965-3.074c-0.193,1.861-0.731,2.643-1.404,3.155
		c-1.372,1.075-2.24,1.403-3.421,2.049c-1,0.539-6.423,3.751-6.423,10.707c0,2.223,0.596,4.255,1.62,5.998
		C5.369,23.908,8.917,26.525,15.5,23.375z"/>
	<path fill="#FFFFFF" d="M15.27,3.201c-0.24,1.779-1.247,2.533-1.708,2.861c-3.833,2.021-5.715,3.391-7.038,5.414
		c-0.403,0.623,0,0.866,0.083,0.918c3.163,0.397,9.27-5.393,7.372-5.639c1.246-0.842,1.475-2.938,1.284-3.559L15.27,3.201z
		 M8.927,21.293c0.028-2.099,1.996-4.067,4.478-4.095c3.156-0.031,5.341,3.124,6.934,3.098c1.348-0.024,3.937-2.669,5.205-2.669
		c1.348,0,1.726,1.399,1.726,2.237c0,0.835-0.271,2.345-0.918,3.288c-0.648,0.947-1.051,1.297-1.813,1.242
		c-0.97-0.081-2.912-3.104-4.151-3.158c-1.56-0.053-4.959,3.268-7.632,3.268c-1.619,0-2.102-0.24-2.642-0.595
		c-0.809-0.565-1.214-1.429-1.188-2.619L8.927,21.293z"/>
</g>
</svg>
