<?xml version="1.0" encoding="utf-8"?>
<!-- Generator: Adobe Illustrator 14.0.0, SVG Export Plug-In . SVG Version: 6.00 Build 43363)  -->
<!DOCTYPE svg PUBLIC "-//W3C//DTD SVG 1.1//EN" "http://www.w3.org/Graphics/SVG/1.1/DTD/svg11.dtd">
<svg version="1.1" id="Layer_1" xmlns="http://www.w3.org/2000/svg" xmlns:xlink="http://www.w3.org/1999/xlink" x="0px" y="0px"
	 width="32px" height="32px" viewBox="0 0 32 32" enable-background="new 0 0 32 32" xml:space="preserve">
<g id="XMLID_65_">
	<g id="XMLID_111_">
		<g>
			<path fill="#3B5998" d="M32,29c0,1.657-1.344,3-3,3H3c-1.658,0-3-1.343-3-3V3c0-1.657,1.342-3,3-3h26c1.656,0,3,1.343,3,3V29z"/>
			<path fill="#EAEEF4" d="M0,23v6c0,1.657,1.342,3,3,3h26c1.656,0,3-1.343,3-3v-6H0z"/>
		</g>
		<g>
			<g>
				<path fill="#FFFFFF" d="M12.115,30h4.03V17.906h5.035v-3.99h-5.035v-3.063c0-1.09,0.69-2.011,1.512-2.011h3.523V4.87h-3.523
					c-3.057,0-5.542,2.705-5.542,6.03v3.016h-4.03v3.99h4.029L12.115,30L12.115,30z"/>
			</g>
			<g>
				<path fill="#3B5998" d="M21.182,4.87v3.973h-3.523c-0.82,0-1.514,0.921-1.514,2.011v3.063h5.037v3.99h-5.037V30h-4.028V17.906
					h-4.03v-3.99h4.029V10.9c0-3.325,2.484-6.03,5.542-6.03H21.182 M22.182,3.87h-4.523c-3.608,0-6.542,3.153-6.542,7.03v2.016
					h-4.03v5.99h4.029V31h6.028V18.906h5.037v-5.99h-5.037v-2.063c0-0.629,0.293-1.011,1.043-1.011h3.994L22.182,3.87L22.182,3.87z"
					/>
			</g>
		</g>
	</g>
</g>
</svg>
