<?xml version="1.0" encoding="utf-8"?>
<!-- Generator: Adobe Illustrator 14.0.0, SVG Export Plug-In . SVG Version: 6.00 Build 43363)  -->
<!DOCTYPE svg PUBLIC "-//W3C//DTD SVG 1.1//EN" "http://www.w3.org/Graphics/SVG/1.1/DTD/svg11.dtd">
<svg version="1.1" id="Layer_1" xmlns="http://www.w3.org/2000/svg" xmlns:xlink="http://www.w3.org/1999/xlink" x="0px" y="0px"
	 width="32px" height="32px" viewBox="0 0 32 32" enable-background="new 0 0 32 32" xml:space="preserve">
<g>
	
		<radialGradient id="SVGID_1_" cx="319.3875" cy="-197.3647" r="29.886" gradientTransform="matrix(0.8232 0 0 -0.7755 -246.942 -148.9835)" gradientUnits="userSpaceOnUse">
		<stop  offset="0" style="stop-color:#52C4F1"/>
		<stop  offset="0.077" style="stop-color:#45BBEC"/>
		<stop  offset="0.182" style="stop-color:#00A9DC"/>
		<stop  offset="0.376" style="stop-color:#2276B8"/>
		<stop  offset="0.501" style="stop-color:#035495"/>
		<stop  offset="0.75" style="stop-color:#1D204E"/>
	</radialGradient>
	<path fill="url(#SVGID_1_)" d="M15.974,29.228c7.411,0,13.417-6.013,13.417-13.425c0-7.412-6.006-13.425-13.417-13.425
		c-7.413,0-13.417,6.013-13.417,13.425C2.557,23.215,8.561,29.228,15.974,29.228z"/>
	
		<radialGradient id="SVGID_2_" cx="310.2117" cy="-126.0195" r="29.2894" gradientTransform="matrix(0.875 0 0 -0.8585 -249.0296 -100.611)" gradientUnits="userSpaceOnUse">
		<stop  offset="0.119" style="stop-color:#FFFFFF"/>
		<stop  offset="0.122" style="stop-color:#FFFFFA"/>
		<stop  offset="0.25" style="stop-color:#FFE560"/>
		<stop  offset="0.287" style="stop-color:#FFDF56"/>
		<stop  offset="0.347" style="stop-color:#F8D03B"/>
		<stop  offset="0.406" style="stop-color:#F0BE1B"/>
		<stop  offset="0.473" style="stop-color:#EB9D23"/>
		<stop  offset="0.548" style="stop-color:#E57C27"/>
		<stop  offset="0.765" style="stop-color:#DD5626"/>
		<stop  offset="0.903" style="stop-color:#C33A28"/>
		<stop  offset="1" style="stop-color:#B02228"/>
	</radialGradient>
	<path fill="url(#SVGID_2_)" d="M26.137,23.764c0.771-1.447,1.813-2.299,2.379-3.3c0.747-1.336,2.17-5.082,1.097-8.112
		c0.492,1.893,0.334,3.817-1.225,4.787c0.509-1.335,0.82-4.262,0.302-6.902c-0.342-1.717-1.414-3.252-2.105-3.73
		c0.643,0.486,1.16,2.211,1.145,3.007c-1.343-2.266-3.546-4.437-6.872-5.353c2.585,1.702,3.548,3.15,4.151,4.438
		c-0.691-0.708-1.869-1.439-2.672-1.503c1.192,0.891,3.197,3.531,2.982,7.531c-0.311-0.644-0.867-1.654-1.265-2.004
		c0.43,3.927,0.056,4.771-0.206,5.814c-0.056-0.478-0.231-0.843-0.326-1.059c0,0-0.048,1.226-0.844,2.976
		c-0.604,1.328-1.224,1.732-1.503,1.685c-0.071-0.008-0.111-0.039-0.111-0.039c0.017-0.175,0.04-0.351-0.008-0.47
		c0,0-0.255,0.088-0.422,0.317c-0.063,0.096-0.15,0.184-0.262,0.272c-0.017,0.015,0.183-0.255,0.166-0.247
		c-0.095,0.079-0.207,0.175-0.311,0.286c-0.389,0.405-0.747,0.859-0.93,0.731c0.166-0.055,0.31-0.271,0.342-0.485
		c-0.15,0.111-0.541,0.398-1.416,0.532c-0.357,0.056-1.876,0.334-3.904-0.683c0.294-0.032,0.74-0.135,1.074,0.063
		c-0.334-0.366-1.153-0.294-1.733-0.477c-0.509-0.159-1.169-0.875-1.55-1.233c1.559,0.383,3.213,0.104,4.167-0.549
		c0.969-0.66,1.542-1.145,2.051-1.026c0.51,0.111,0.852-0.396,0.455-0.858c-0.398-0.461-1.369-1.074-2.681-0.747
		c-1.01,0.255-1.861,1.059-3.277,0.501c-0.087-0.031-0.175-0.071-0.263-0.119c-0.087-0.048,0.294,0.055,0.198,0
		c-0.27-0.103-0.764-0.325-0.89-0.414c-0.024-0.017,0.207,0.041,0.183,0.024c-1.344-0.796-1.256-1.432-1.256-1.821
		c0-0.319,0.19-0.74,0.548-0.938c0.191,0.072,0.31,0.135,0.31,0.135s-0.087-0.135-0.144-0.207c0.017-0.007,0.024-0.007,0.04-0.015
		c0.16,0.055,0.517,0.182,0.692,0.278c0.247,0.119,0.326,0.246,0.326,0.246s0.056-0.039,0-0.159
		c-0.023-0.055-0.111-0.207-0.35-0.351c0.008,0,0.008,0,0.008,0c0.127,0.047,0.262,0.111,0.405,0.199
		c0.048-0.214,0.136-0.438,0.079-0.827c-0.048-0.278-0.039-0.342-0.103-0.445c-0.055-0.087,0.016-0.119,0.103-0.048
		c-0.024-0.072-0.055-0.135-0.087-0.207l0,0c0.072-0.342,2.092-1.4,2.242-1.511c0.207-0.151,0.421-0.39,0.557-0.667
		c0.095-0.175,0.166-0.422,0.151-0.788c-0.017-0.263-0.167-0.422-2.323-0.398c-0.589,0.008-0.971-0.334-1.201-0.66
		c-0.048-0.072-0.087-0.135-0.127-0.198c-0.048-0.088-0.088-0.175-0.112-0.238c0.254-0.93,0.771-1.742,1.576-2.402
		c0.047-0.04-0.191,0.023-0.144-0.016c0.055-0.048,0.398-0.215,0.46-0.247c0.08-0.048-0.374-0.167-0.754-0.088
		c-0.39,0.08-0.461,0.127-0.669,0.231c0.081-0.088,0.343-0.215,0.279-0.207c-0.422,0.095-0.923,0.374-1.344,0.668
		c0-0.04,0-0.072,0.008-0.127c-0.198,0.104-0.684,0.477-0.803,0.755c0-0.063,0-0.095-0.008-0.159
		c-0.136,0.127-0.27,0.278-0.391,0.438c0,0,0,0.007-0.007,0.007C8.76,7.341,7.694,7.413,6.796,7.7
		C6.581,7.548,6.24,7.31,5.699,6.475C5.667,6.427,5.667,6.586,5.635,6.539C5.42,6.156,5.244,5.504,5.221,5.043
		c0,0-0.351,0.2-0.573,0.915c-0.04,0.127-0.072,0.199-0.096,0.271C4.546,6.251,4.57,5.997,4.561,6.021
		C4.522,6.109,4.394,6.252,4.355,6.411C4.323,6.53,4.276,6.602,4.259,6.753c0,0,0,0.008-0.007,0.008c0-0.039-0.008-0.175-0.016-0.15
		C4.133,6.873,4.045,7.175,3.965,7.517c-0.112,0.54-0.223,1.28-0.152,2.218c0,0.08,0.008,0.151,0.008,0.215
		c-0.342,0.469-0.557,0.867-0.644,1.066C2.764,11.819,2.343,13.06,2,14.984c0,0,0.232-0.723,0.685-1.543
		c-0.334,1.034-0.605,2.641-0.445,5.051c0.008-0.081,0.08-0.691,0.255-1.512c0.087,1.606,0.47,3.57,1.717,5.709
		c0.955,1.631,3.46,5.416,9.75,6.832c-0.692-0.199-1.121-0.598-1.121-0.598s2.354,0.757,4.064,0.692
		c-0.541-0.095-0.645-0.349-0.645-0.349s6.101,0.342,8.208-2.529c-0.723,0.843-2.545,1.081-3.236,1.089
		c1.05-0.963,3.371-0.947,5.893-3.42c1.383-1.36,1.526-2.394,1.678-3.356C28.602,22.309,27.394,23.071,26.137,23.764z"/>
</g>
</svg>
