<?xml version="1.0" encoding="utf-8"?>
<!-- Generator: Adobe Illustrator 14.0.0, SVG Export Plug-In . SVG Version: 6.00 Build 43363)  -->
<!DOCTYPE svg PUBLIC "-//W3C//DTD SVG 1.1//EN" "http://www.w3.org/Graphics/SVG/1.1/DTD/svg11.dtd">
<svg version="1.1" id="Layer_1" xmlns="http://www.w3.org/2000/svg" xmlns:xlink="http://www.w3.org/1999/xlink" x="0px" y="0px"
	 width="32px" height="32px" viewBox="0 0 32 32" enable-background="new 0 0 32 32" xml:space="preserve">
<path fill="#FFFFFF" d="M0.5,3.5h8.293l4,4H25.5v3H3.6L0.5,24.445V3.5z"/>
<path fill="#777777" d="M8.586,4l3.707,3.707L12.586,8H25v2H3.198l-0.174,0.783L1,19.893V4H8.586 M9,3H0v26l4-18h22V7H13L9,3z"/>
<path fill="#FFFFFF" d="M0.722,28.5l5.625-15h24.93l-5.625,15H0.722z"/>
<path fill="#777777" d="M30.557,14l-5.25,14H1.443l5.25-14H30.557 M32,13H6L0,29h26L32,13z"/>
</svg>
