<?xml version="1.0" encoding="utf-8"?>
<!-- Generator: Adobe Illustrator 14.0.0, SVG Export Plug-In . SVG Version: 6.00 Build 43363)  -->
<!DOCTYPE svg PUBLIC "-//W3C//DTD SVG 1.1//EN" "http://www.w3.org/Graphics/SVG/1.1/DTD/svg11.dtd">
<svg version="1.1" id="svg2" xmlns:svg="http://www.w3.org/2000/svg"
	 xmlns="http://www.w3.org/2000/svg" xmlns:xlink="http://www.w3.org/1999/xlink" x="0px" y="0px" width="32px" height="96px"
	 viewBox="306.5 244.5 32 96" enable-background="new 306.5 244.5 32 96" xml:space="preserve">
<g>
	<path fill="#C8C8C8" d="M322.414,272.675c-0.327,0-0.47-0.261-0.565-0.433c-0.112-0.203-0.322-0.581-0.825-1.146
		c-0.576-0.645-2.075-1.954-3.273-2.86c-3.701-2.795-4.18-3.18-5.687-4.567c-2.853-2.626-4.068-5.279-4.064-8.871
		c0.002-1.747,0.132-2.473,0.634-3.53c0.849-1.785,2.094-3.104,3.702-3.921c1.109-0.563,1.724-0.834,3.59-0.844l0.131,0
		c1.874,0,2.368,0.271,3.45,0.866c1.248,0.685,2.481,1.993,3.019,3.137c1.242-2.478,3.756-4.005,6.625-4.005
		c3.02,0,5.736,1.672,7.09,4.364c0.92,1.833,1.023,5.63,0.213,7.814c-1.031,2.782-2.955,4.899-7.352,8.091
		c-2.76,2.006-5.842,4.997-6.11,5.435C322.892,272.399,322.751,272.675,322.414,272.675L322.414,272.675z"/>
	<path fill="#FF0000" d="M321.396,270.764c-0.604-0.675-2.107-1.99-3.344-2.926c-3.664-2.768-4.162-3.167-5.65-4.537
		c-2.742-2.523-3.907-5.063-3.903-8.502c0.002-1.68,0.116-2.326,0.586-3.316c0.798-1.679,1.973-2.926,3.477-3.689
		c1.063-0.54,1.588-0.78,3.366-0.79c1.859-0.011,2.25,0.206,3.346,0.808c1.33,0.73,2.699,2.293,2.982,3.403l0.176,0.687l0.431-0.944
		c2.438-5.336,10.221-5.257,12.93,0.133c0.857,1.71,0.953,5.36,0.191,7.416c-0.994,2.683-2.861,4.728-7.178,7.86
		c-2.828,2.056-6.032,5.164-6.254,5.603C322.293,272.473,322.539,272.045,321.396,270.764z"/>
</g>
<g>
	<path fill="#FF0000" d="M322.414,338.5c-0.327,0-0.471-0.261-0.565-0.433c-0.112-0.203-0.322-0.581-0.825-1.146
		c-0.576-0.645-2.075-1.954-3.273-2.86c-3.701-2.795-4.18-3.18-5.687-4.567c-2.853-2.626-4.068-5.278-4.064-8.87
		c0.002-1.747,0.133-2.473,0.635-3.531c0.849-1.785,2.094-3.104,3.701-3.92c1.109-0.563,1.725-0.834,3.59-0.845l0.132-0.001
		c1.874,0,2.368,0.271,3.45,0.867c1.248,0.685,2.481,1.992,3.019,3.137c1.242-2.479,3.756-4.006,6.625-4.006
		c3.02,0,5.736,1.672,7.09,4.364c0.92,1.833,1.023,5.63,0.213,7.814c-1.031,2.782-2.955,4.899-7.352,8.091
		c-2.76,2.006-5.842,4.997-6.11,5.435C322.891,338.225,322.751,338.5,322.414,338.5L322.414,338.5z"/>
	<path fill="#C8C8C8" d="M321.484,335.7c-0.556-0.62-1.94-1.832-3.078-2.693c-3.373-2.547-3.832-2.915-5.202-4.176
		c-2.524-2.322-3.597-4.66-3.593-7.826c0.002-1.547,0.107-2.143,0.539-3.053c0.734-1.546,1.816-2.693,3.201-3.396
		c0.979-0.497,1.462-0.72,3.099-0.728c1.711-0.011,2.071,0.189,3.08,0.743c1.224,0.672,2.485,2.111,2.746,3.134l0.162,0.632
		l0.396-0.87c2.246-4.912,9.41-4.839,11.904,0.123c0.789,1.573,0.877,4.935,0.176,6.826c-0.916,2.47-2.635,4.353-6.607,7.235
		c-2.604,1.894-5.553,4.754-5.757,5.157C322.309,337.274,322.536,336.88,321.484,335.7z"/>
</g>
</svg>
