<?xml version="1.0" encoding="utf-8"?>
<!-- Generator: Adobe Illustrator 14.0.0, SVG Export Plug-In . SVG Version: 6.00 Build 43363)  -->
<!DOCTYPE svg PUBLIC "-//W3C//DTD SVG 1.1//EN" "http://www.w3.org/Graphics/SVG/1.1/DTD/svg11.dtd">
<svg version="1.1" id="svg2" xmlns:svg="http://www.w3.org/2000/svg"
	 xmlns="http://www.w3.org/2000/svg" xmlns:xlink="http://www.w3.org/1999/xlink" x="0px" y="0px" width="32px" height="32px"
	 viewBox="0 0 32 32" enable-background="new 0 0 32 32" xml:space="preserve">
<g>
	<path fill="#C8C8C8" d="M15.914,29.088c-0.327,0-0.47-0.261-0.565-0.433c-0.112-0.203-0.322-0.581-0.825-1.146
		c-0.576-0.645-2.075-1.954-3.273-2.86c-3.701-2.795-4.18-3.18-5.687-4.567c-2.853-2.626-4.068-5.279-4.064-8.871
		c0.002-1.747,0.132-2.473,0.634-3.53C2.982,5.896,4.228,4.577,5.835,3.76c1.109-0.563,1.724-0.834,3.59-0.844l0.131,0
		c1.874,0,2.368,0.271,3.45,0.866c1.248,0.685,2.481,1.993,3.019,3.137c1.242-2.478,3.756-4.005,6.624-4.005
		c3.021,0,5.737,1.672,7.09,4.364c0.92,1.833,1.023,5.63,0.214,7.814c-1.031,2.782-2.955,4.899-7.353,8.091
		c-2.759,2.006-5.841,4.997-6.108,5.435C16.393,28.813,16.251,29.088,15.914,29.088L15.914,29.088z"/>
	<path fill="#FF0000" d="M14.896,27.177c-0.604-0.675-2.107-1.99-3.344-2.926c-3.664-2.768-4.162-3.167-5.65-4.537
		C3.161,17.19,1.996,14.651,2,11.212c0.002-1.68,0.116-2.326,0.586-3.316C3.383,6.217,4.558,4.97,6.062,4.206
		c1.063-0.54,1.588-0.78,3.366-0.79c1.859-0.011,2.25,0.206,3.346,0.808c1.33,0.73,2.699,2.293,2.982,3.403l0.176,0.687l0.432-0.944
		c2.438-5.336,10.221-5.257,12.93,0.133c0.857,1.71,0.953,5.36,0.191,7.416c-0.994,2.683-2.861,4.728-7.178,7.86
		c-2.828,2.056-6.031,5.164-6.254,5.603C15.793,28.886,16.039,28.458,14.896,27.177z"/>
</g>
</svg>
