<?xml version="1.0" encoding="utf-8"?>
<!-- Generator: Adobe Illustrator 14.0.0, SVG Export Plug-In . SVG Version: 6.00 Build 43363)  -->
<!DOCTYPE svg PUBLIC "-//W3C//DTD SVG 1.1//EN" "http://www.w3.org/Graphics/SVG/1.1/DTD/svg11.dtd">
<svg version="1.1" id="Layer_1" xmlns="http://www.w3.org/2000/svg" xmlns:xlink="http://www.w3.org/1999/xlink" x="0px" y="0px"
	 width="32px" height="32px" viewBox="0 0 32 32" enable-background="new 0 0 32 32" xml:space="preserve">
<path fill="#999999" d="M32,28c0,2.21-1.79,4-4,4H4c-2.21,0-4-1.79-4-4V4c0-2.21,1.79-4,4-4h24c2.21,0,4,1.79,4,4V28z"/>
<path fill="#F2F2F2" d="M31,27.25c0,2.07-1.68,3.75-3.75,3.75H4.75C2.68,31,1,29.32,1,27.25V4.75C1,2.68,2.68,1,4.75,1h22.5
	C29.32,1,31,2.68,31,4.75V27.25z"/>
<path fill="#999999" d="M32,28c0,2.21-1.79,4-4,4H4c-2.21,0-4-1.79-4-4V4c0-2.21,1.79-4,4-4h24c2.21,0,4,1.79,4,4V28z"/>
<path fill="#F2F2F2" d="M31,27.25c0,2.07-1.68,3.75-3.75,3.75H4.75C2.68,31,1,29.32,1,27.25V4.75C1,2.68,2.68,1,4.75,1h22.5
	C29.32,1,31,2.68,31,4.75V27.25z"/>
<path d="M32,28c0,2.21-1.79,4-4,4H4c-2.21,0-4-1.79-4-4V4c0-2.21,1.79-4,4-4h24c2.21,0,4,1.79,4,4V28z M32,28c0,2.21-1.79,4-4,4H4
	c-2.21,0-4-1.79-4-4V4c0-2.21,1.79-4,4-4h24c2.21,0,4,1.79,4,4V28z"/>
<path fill="#FDA600" d="M12.168,15.74c0-1.693-1.33-2.038-2.642-2.038c-1.2,0-2.585,1.15-2.585,1.15v-4.424H2.008v1.723H2.87v7.07
	H2.007v2.355H7.23V19.22H6.77c0,0,0-1.208,0-2.127c0-0.917,1.867-2.152,1.867-0.545c0,0.92,0.027,2.672,0.027,2.672H8.148v2.354
	h4.939V19.22h-0.92c0,0,0-2.325,0-3.474V15.74z M15.098,10.486h3.33v2.297H15.1L15.098,10.486z M18.343,19.273v-5.57H13.49V16h0.89
	v3.273h-0.89v2.297h5.57v-2.29L18.343,19.273z"/>
<path fill="#FFFFFF" d="M29.055,10.43h-7.928l-0.976,4.913l3.087,0.628c0,0,0.42-0.59,1.013-0.57c0.525,0.017,1.12,0.397,1.12,1.65
	c0,1.12-0.562,1.956-1.58,1.956c-1.377,0-0.859-0.86-0.859-1.636c0-1.093-0.861-1.19-1.916-0.963
	c-0.851,0.186-1.457,0.888-1.457,1.736c0,1.606,1.967,3.431,4.836,3.431c2.875,0,5.601-1.534,5.601-4.464
	c0-2.541-1.765-3.76-3.716-3.791c-1.305-0.021-2.096,0.229-2.713,0.644c0.095-0.324,0.148-0.6,0.199-1.177c0.746,0,5.228,0,5.228,0
	l0.057-2.353L29.055,10.43z"/>
</svg>
