<?xml version="1.0" encoding="utf-8"?>
<!-- Generator: Adobe Illustrator 14.0.0, SVG Export Plug-In . SVG Version: 6.00 Build 43363)  -->
<!DOCTYPE svg PUBLIC "-//W3C//DTD SVG 1.1//EN" "http://www.w3.org/Graphics/SVG/1.1/DTD/svg11.dtd">
<svg version="1.1" id="Layer_1" xmlns="http://www.w3.org/2000/svg" xmlns:xlink="http://www.w3.org/1999/xlink" x="0px" y="0px"
	 width="32px" height="32px" viewBox="0 0 32 32" enable-background="new 0 0 32 32" xml:space="preserve">
<path fill="#FFFFFF" d="M27.563,2.58c-3.438-3.44-9.014-3.44-12.453,0c-2.626,2.626-3.24,6.498-1.854,9.71L1.93,23.62l-0.018,1.97
	l11.46-11.46l0.484,0.483L1.9,26.566l-0.042,4.68c0,0,0.388,1.243,1.094,0.54c0.705-0.707,3.17-3.173,3.17-3.173l0.32-2.961
	l2.96-0.319l0.318-2.96l2.96-0.316L13,19.098l2.96-0.317l1.89-1.895c3.217,1.388,7.086,0.773,9.713-1.854
	C31,11.592,31,6.018,27.563,2.58L27.563,2.58z M25.721,8.104c-1.018,1.02-2.664,1.02-3.684,0c-1.016-1.017-1.016-2.663,0-3.682
	c1.02-1.017,2.666-1.017,3.684,0C26.736,5.439,26.734,7.087,25.721,8.104z"/>
</svg>
