<?xml version="1.0" encoding="utf-8"?>
<!-- Generator: Adobe Illustrator 14.0.0, SVG Export Plug-In . SVG Version: 6.00 Build 43363)  -->
<!DOCTYPE svg PUBLIC "-//W3C//DTD SVG 1.1//EN" "http://www.w3.org/Graphics/SVG/1.1/DTD/svg11.dtd">
<svg version="1.1" id="Layer_1" xmlns="http://www.w3.org/2000/svg" xmlns:xlink="http://www.w3.org/1999/xlink" x="0px" y="0px"
	 width="32px" height="32px" viewBox="0 0 32 32" enable-background="new 0 0 32 32" xml:space="preserve">
<g id="g1369" transform="translate(-310.7524,-64.25268)">
	<g>
		<path d="M342.852,94.36c-0.368-0.823-0.788-1.603-1.266-2.328c-2.439-3.728-6.002-6.44-5.951-11.224
			c0.063-5.665,0.646-16.372-10.202-15.506c-10.708,0.862-7.869,12.174-8.027,15.963c-0.234,3.322-2.232,7.909-6.554,13.095H342.852
			z"/>
	</g>
	<path fill="#ECECE8" d="M335.062,94.36c-1.397-2.771-3.353-7.669-4.158-11.015c-0.87-3.606-11.689-2.743-11.689,0.868
		c-0.047,3.171-1.588,6.991-3.018,10.146H335.062z"/>
	<path id="path115" fill="#ECECE8" d="M322.778,77.475c0.106,1.848-0.779,3.404-1.976,3.473c-1.198,0.069-2.255-1.373-2.361-3.222
		c-0.106-1.849,0.778-3.404,1.977-3.474C321.615,74.183,322.672,75.626,322.778,77.475z"/>
	<path id="path116" fill="#ECECE8" d="M324.953,77.616c0.043,2.139,1.426,3.837,3.089,3.791c1.663-0.045,2.976-1.816,2.93-3.955
		c-0.043-2.14-1.426-3.836-3.088-3.791C326.22,73.706,324.909,75.476,324.953,77.616z"/>
	<path id="path117" d="M326.33,78.1c-0.025,1.173,0.567,2.127,1.324,2.129c0.754,0.001,1.387-0.95,1.412-2.124
		c0.025-1.173-0.566-2.127-1.322-2.129C326.987,75.975,326.354,76.927,326.33,78.1z"/>
	<path id="path118" d="M321.54,78.113c0.094,0.972-0.272,1.814-0.817,1.88c-0.546,0.066-1.066-0.668-1.161-1.64
		c-0.095-0.972,0.271-1.814,0.817-1.88C320.925,76.406,321.443,77.14,321.54,78.113z"/>
	<g id="path119">
		<path fill="#FFDD5F" d="M320.428,80.037c0.82-0.778,2.85-3.109,6.659-0.66c0.708,0.46,1.282,0.502,2.646,1.085
			c2.725,1.12,1.422,3.821-1.465,4.723c-1.235,0.401-2.359,1.902-4.61,1.773c-1.923-0.112-2.426-1.363-3.607-2.057
			c-2.1-1.186-2.409-2.788-1.275-3.636C319.908,80.415,320.352,80.109,320.428,80.037z"/>
		<path fill="#DF9000" d="M323.926,87.137c-0.092,0-0.186-0.002-0.279-0.009c-1.356-0.077-2.04-0.701-2.702-1.304
			c-0.315-0.288-0.613-0.558-0.982-0.775c-1.216-0.688-1.947-1.584-2.005-2.461c-0.036-0.571,0.218-1.089,0.714-1.461
			c0.603-0.453,1.005-0.748,1.271-0.941c0.198-0.145,0.339-0.248,0.366-0.274c0.046-0.042,0.094-0.09,0.146-0.141
			c0.595-0.578,1.705-1.657,3.447-1.657c1.022,0,2.125,0.375,3.279,1.117c0.394,0.257,0.75,0.379,1.241,0.548
			c0.357,0.125,0.8,0.277,1.377,0.523c1.069,0.44,1.639,1.16,1.6,2.029c-0.053,1.228-1.318,2.468-3.078,3.018
			c-0.389,0.124-0.785,0.378-1.202,0.646C326.281,86.529,325.331,87.137,323.926,87.137L323.926,87.137z M323.901,78.458
			c-1.602,0-2.606,0.977-3.207,1.561c-0.054,0.052-0.103,0.1-0.148,0.143c-0.043,0.042-0.148,0.119-0.4,0.302
			c-0.266,0.193-0.667,0.487-1.269,0.938c-0.406,0.305-0.606,0.707-0.576,1.164c0.049,0.758,0.717,1.555,1.833,2.185
			c0.403,0.236,0.729,0.533,1.042,0.819c0.645,0.589,1.254,1.144,2.49,1.216c0.087,0.005,0.175,0.007,0.259,0.007
			c1.305,0,2.209-0.578,3.006-1.088c0.437-0.28,0.851-0.545,1.281-0.685c1.625-0.508,2.793-1.619,2.84-2.704
			c0.031-0.713-0.461-1.314-1.389-1.695c-0.567-0.243-0.986-0.388-1.357-0.516c-0.513-0.176-0.886-0.306-1.314-0.585
			C325.897,78.815,324.856,78.458,323.901,78.458L323.901,78.458z"/>
	</g>
	<g id="path120">
		<path fill="#DF9000" d="M323.556,84.919c-1.939,0-3.314-1.29-4.051-1.986c-0.201-0.188-0.427-0.398-0.501-0.419
			c0,0,0.004,0.002,0.011,0.002v-0.344c0.181,0,0.375,0.181,0.724,0.511c0.754,0.709,2.014,1.894,3.817,1.894
			c1.553,0,3.067-0.911,4.283-1.645c0.804-0.483,1.437-0.866,1.919-0.895l0.019,0.344c-0.396,0.025-1.026,0.405-1.76,0.846
			C326.765,83.981,325.205,84.919,323.556,84.919L323.556,84.919z"/>
	</g>
</g>
</svg>
