<?xml version="1.0" encoding="utf-8"?>
<!-- Generator: Adobe Illustrator 14.0.0, SVG Export Plug-In . SVG Version: 6.00 Build 43363)  -->
<!DOCTYPE svg PUBLIC "-//W3C//DTD SVG 1.1//EN" "http://www.w3.org/Graphics/SVG/1.1/DTD/svg11.dtd">
<svg version="1.1" id="Layer_1" xmlns="http://www.w3.org/2000/svg" xmlns:xlink="http://www.w3.org/1999/xlink" x="0px" y="0px"
	 width="32px" height="32px" viewBox="0 0 32 32" enable-background="new 0 0 32 32" xml:space="preserve">
<g>
	<path fill="#BBCFE5" d="M18.589,5.312c-0.867,1.301-1.854,3.009-2.485,4.85c-0.987,2.866-1.38,5.409-1.522,6.602h5.827
		l-0.602,1.018c-0.013,0.02-1.253,2.168-1.253,5.13c0,1.474,0.179,2.674,0.416,3.62h9.52V5.313h-9.898L18.589,5.312z"/>
	<path fill="#3B90CB" d="M18.159,18.111h-5.042v-0.005l0.047-0.713c0.016-0.143,0.254-3.552,1.669-7.67
		c0.564-1.638,1.372-3.157,2.151-4.412H3.512v21.219h14.07c-0.219-0.989-0.378-2.189-0.378-3.62
		C17.205,20.83,17.74,19.126,18.159,18.111z"/>
	<path d="M16.29,22.911c-6.487,0-8.919-2.103-9.021-2.194l0.892-1.007c0.023,0.018,2.226,1.853,8.129,1.853
		c5.892,0,8.021-1.828,8.041-1.846l0.91,0.994C25.144,20.801,22.783,22.911,16.29,22.911z M10.917,11.683H9.569V8.708h1.348V11.683z
		 M21.976,11.683H20.63V8.708h1.347V11.683z M18.972,30c-0.072-0.094-1.767-2.368-1.767-7.089c0-2.083,0.534-3.785,0.955-4.8h-5.042
		l0.048-0.718c0.009-0.143,0.246-3.552,1.662-7.67c1.431-4.159,4.44-7.58,4.567-7.724l1.007,0.894
		c-0.025,0.032-2.957,3.369-4.3,7.268c-0.987,2.866-1.381,5.409-1.522,6.602h5.827l-0.602,1.018c-0.013,0.02-1.253,2.168-1.253,5.13
		c0,4.222,1.478,6.252,1.492,6.273L18.972,30L18.972,30z"/>
</g>
</svg>
