<?xml version="1.0" encoding="UTF-8" standalone="no"?>
<!-- Generator: Adobe Illustrator 14.0.0, SVG Export Plug-In . SVG Version: 6.00 Build 43363)  -->

<svg
   xmlns:dc="http://purl.org/dc/elements/1.1/"
   xmlns:cc="http://creativecommons.org/ns#"
   xmlns:rdf="http://www.w3.org/1999/02/22-rdf-syntax-ns#"
   xmlns:svg="http://www.w3.org/2000/svg"
   xmlns="http://www.w3.org/2000/svg"
   xmlns:sodipodi="http://sodipodi.sourceforge.net/DTD/sodipodi-0.dtd"
   xmlns:inkscape="http://www.inkscape.org/namespaces/inkscape"
   version="1.1"
   id="Layer_1"
   x="0px"
   y="0px"
   width="96px"
   height="32px"
   viewBox="0 0 96 32"
   enable-background="new 0 0 96 32"
   xml:space="preserve"
   inkscape:version="0.91 r13725"
   sodipodi:docname="menu.svg"><metadata
     id="metadata25"><rdf:RDF><cc:Work
         rdf:about=""><dc:format>image/svg+xml</dc:format><dc:type
           rdf:resource="http://purl.org/dc/dcmitype/StillImage" /></cc:Work></rdf:RDF></metadata><defs
     id="defs23" /><sodipodi:namedview
     pagecolor="#ffffff"
     bordercolor="#666666"
     borderopacity="1"
     objecttolerance="10"
     gridtolerance="10"
     guidetolerance="10"
     inkscape:pageopacity="0"
     inkscape:pageshadow="2"
     inkscape:window-width="1358"
     inkscape:window-height="732"
     id="namedview21"
     showgrid="false"
     inkscape:zoom="3.5104167"
     inkscape:cx="59.394659"
     inkscape:cy="16"
     inkscape:window-x="0"
     inkscape:window-y="0"
     inkscape:window-maximized="1"
     inkscape:current-layer="Layer_1" /><g
     id="g3"
     transform="translate(0,4.583)"><path
       d="m 27.957,3.854 c 0,1.118 -0.902,2.02 -2.02,2.02 l -20.207,0 c -1.116,0 -2.02,-0.904 -2.02,-2.02 0,-1.116 0.904,-2.02 2.02,-2.02 l 20.207,0 c 1.118,0 2.02,0.904 2.02,2.02 l 0,0 z m 0,15.125 c 0,1.11 -0.902,2.021 -2.02,2.021 L 5.73,21 c -1.116,0 -2.02,-0.91 -2.02,-2.021 0,-1.119 0.904,-2.023 2.02,-2.023 l 20.207,0 c 1.117,0 2.021,0.902 2.021,2.021 l -10e-4,0.002 z m 0,-7.568 c 0,1.116 -0.902,2.02 -2.02,2.02 l -20.207,0 c -1.116,0 -2.02,-0.904 -2.02,-2.02 0,-1.116 0.904,-2.02 2.02,-2.02 l 20.207,0 c 1.118,0 2.02,0.904 2.02,2.02 l 0,0 z"
       id="path7"
       inkscape:connector-curvature="0"
       style="fill:#b4b4b4" /></g><g
     id="g11"
     transform="translate(0,4.167311)"><g
       id="g15"><path
         d="m 88.455,20.402 c -0.791,0.791 -2.066,0.791 -2.855,0.002 L 71.311,6.115 c -0.789,-0.789 -0.789,-2.067 0,-2.856 0.789,-0.79 2.067,-0.789 2.856,0 l 14.288,14.289 c 0.79,0.789 0.79,2.067 0,2.854 l 0,0 z M 88.457,3.263 c 0.785,0.785 0.791,2.067 0.001,2.857 L 74.17,20.41 c -0.789,0.788 -2.072,0.783 -2.857,-0.002 -0.791,-0.791 -0.793,-2.071 -0.004,-2.86 L 85.598,3.259 c 0.789,-0.79 2.067,-0.79 2.857,0 l 0.002,0.004 z"
         id="path17"
         inkscape:connector-curvature="0"
         style="fill:#8c0d00" /></g></g></svg>