<svg xmlns="http://www.w3.org/2000/svg" width="32" height="32" viewBox="0 0 32 32"><path fill="#FFF93F" d="M29.641 25.8c.479.48.479 1.261 0 1.74H2.36a1.231 1.231 0 0 1 0-1.74L15.13 4.82c.48-.48 1.26-.48 1.74 0L29.641 25.8z"/><path d="M16 5.46c.028 0 .066.006.104.025l12.68 20.833.063.102.084.085c.01.013.021.022.028.034H3.04c.008-.018.017-.027.027-.04l.085-.083.063-.104L15.895 5.48A.227.227 0 0 1 16 5.457m0-1c-.315 0-.63.12-.87.36L2.36 25.8c-.48.48-.48 1.261 0 1.74h27.281a1.231 1.231 0 0 0 0-1.74L16.87 4.82c-.24-.24-.555-.36-.87-.36v-.003zM14.635 24.18c0-.832.578-1.434 1.39-1.434.81 0 1.34.6 1.34 1.434 0 .811-.53 1.436-1.388 1.436-.788-.001-1.342-.628-1.342-1.436zm.578-3.284L14.89 9.773h2.221L16.787 20.9h-1.574v-.004z"/></svg>