<?xml version="1.0" encoding="utf-8"?>
<!-- Generator: Adobe Illustrator 14.0.0, SVG Export Plug-In . SVG Version: 6.00 Build 43363)  -->
<!DOCTYPE svg PUBLIC "-//W3C//DTD SVG 1.1//EN" "http://www.w3.org/Graphics/SVG/1.1/DTD/svg11.dtd">
<svg version="1.1" id="Layer_1" xmlns="http://www.w3.org/2000/svg" xmlns:xlink="http://www.w3.org/1999/xlink" x="0px" y="0px"
	 width="32px" height="32px" viewBox="0 0 32 32" enable-background="new 0 0 32 32" xml:space="preserve">
<path fill="#E41414" d="M15.955,27.006c7.285,0,7.452-22.354,0-22.354C8.699,4.652,8.739,27.006,15.955,27.006 M15.955,2.446
	c16.79,0,16.534,27.11,0,27.11C-0.425,29.557-0.745,2.446,15.955,2.446"/>
<path fill="#AB0000" d="M15.955,30c-8.436,0-12.85-7.092-12.85-14.098c0-3.64,1.132-7.027,3.188-9.54C8.626,3.51,11.968,2,15.955,2
	c8.891,0,12.939,7.217,12.939,13.922c0,3.664-1.147,7.09-3.234,9.648C23.295,28.47,19.939,30,15.955,30z M15.955,2.89
	c-3.71,0-6.814,1.395-8.974,4.036C5.06,9.28,4,12.468,4,15.903c0,6.36,3.743,13.208,11.96,13.208c3.708,0,6.827-1.412,9.015-4.101
	c1.961-2.399,3.037-5.623,3.037-9.082c0-6.277-3.77-13.034-12.05-13.034L15.955,2.89z M15.955,27.45
	c-4.034,0-5.872-6.036-5.872-11.645c0-2.984,0.494-5.77,1.39-7.846c1.063-2.46,2.61-3.758,4.48-3.758
	c4.104,0,5.972,5.976,5.972,11.527c0,3-0.507,5.815-1.427,7.92c-1.083,2.484-2.655,3.797-4.543,3.797V27.45z M15.955,5.097
	c-1.88,0-3.03,1.75-3.664,3.216c-0.85,1.967-1.312,4.628-1.312,7.493c0,5.346,1.71,10.756,4.982,10.756
	c1.904,0,3.08-1.773,3.73-3.263c0.856-1.968,1.35-4.727,1.35-7.566c0-5.286-1.746-10.637-5.082-10.637H15.955z"/>
</svg>
