<svg xmlns="http://www.w3.org/2000/svg" width="32" height="32" viewBox="0 0 32 32"><path fill="#C8C8C8" d="M26.885 30H5.115V2h21.769v28zM6.153 28.961H25.85V3.283H6.153v25.678z"/><path fill="#FFF" d="M6.154 28.838h19.694V3.162H6.154v25.676z"/><path fill="#F00" d="M7.819 24.178a.807.807 0 0 1-.464-.135c-.429-.279-.49-.613-.468-.85.103-1.032 2.343-2.003 2.79-2.188l.251.612c1.738-2.34 3.688-6.388 3.688-9.634h.668c0 4.501-3.68 10.867-5.815 12.008a1.362 1.362 0 0 1-.652.188l.002-.001zm2.1-2.55c-1.113.463-2.325 1.225-2.365 1.636-.003.026-.011.104.174.227.106.074.335-.034.427-.084.481-.258 1.106-.894 1.764-1.773v-.006zm1.905-.429l-.35-.569c3.828-2.364 11.176-2.574 13.274-1.349.533.31.637.674.629.92-.02.518-.271.745-.48.846-.932.452-2.936-.943-3.326-1.229l.387-.533c-2.91-.253-7.377.212-10.138 1.915l.004-.001zm10.148-1.91c.977.701 2.262 1.331 2.633 1.154.021-.016.094-.05.102-.271.006-.131-.205-.272-.297-.323-.469-.273-1.338-.474-2.434-.569l-.004.009zm-1.65-.742c-3.911-2.226-7.63-8.566-7.569-10.988.015-.617.283-.884.505-.996.46-.23.783-.12.972.016.849.603.586 3.027.524 3.508l-.656-.088c1.175 2.668 3.734 6.361 6.556 7.966l-.33.579-.002.003zM13.76 7.103a.484.484 0 0 0-.202.061c-.118.056-.135.31-.14.415-.013.543.232 1.403.674 2.409.149-1.193.087-2.625-.25-2.861-.01-.01-.033-.024-.08-.024h-.002z"/></svg>