<svg xmlns="http://www.w3.org/2000/svg" width="32" height="32" viewBox="0 0 32 32"><path fill="#FFF" d="M8.926 8.622l-.024.086 2.734 4.736a.066.066 0 0 0 .055.032l.032-.011 1.794-1.031a.064.064 0 0 0 .026-.087l-2.735-4.736-.084-.022-.329.186-1.469.847zM17.705 19.679l-.053-.092-1.796 1.036a.066.066 0 0 0-.026.089l2.734 4.732c.018.031.05.034.058.034l.03-.008 1.796-1.04.024-.084-2.681-4.65-.086-.017zM21.086 23.597c.088-.043.956-.579.956-.579.74-.592 1.099-1.334 1.063-2.208-.18-4.446-5.976-13.256-8.231-14.102a2.886 2.886 0 0 0-1.017-.185c-.861 0-1.641.386-2.185.752l2.463 4.271c.3-.138.608-.207.919-.207 1.146 0 2.258.919 3.305 2.731 1.738 3.021 1.198 4.612.362 5.432l2.365 4.095z"/><path fill="#C8C8C8" d="M13.856 6.74c.321 0 .637.058.941.173 2.217.83 7.912 9.516 8.09 13.905.032.801-.299 1.483-.98 2.028l-.258.205v-.001l-.402.219c-.024.014-.049.026-.074.039l-2.179-3.773c.824-.905 1.284-2.572-.445-5.574-1.089-1.885-2.263-2.84-3.494-2.84-.279 0-.556.051-.826.149l-2.264-3.924c.502-.313 1.169-.606 1.891-.606m-3.158 1.116l2.579 4.465-1.529.879L9.17 8.734l1.007-.581v.007l.521-.304m6.933 11.996l.027.048 2.549 4.419-1.528.887-2.581-4.467 1.533-.887M16 2C8.28 2 2 8.28 2 16s6.28 14 14 14c.9 0 1.801-.086 2.667-.254l-.163-.834c-.813.16-1.654.238-2.503.238-7.249 0-13.152-5.898-13.152-13.15S8.748 2.849 16 2.849 29.15 8.746 29.15 16c0 3.432-1.313 6.679-3.7 9.144-1.02 1.052-1.433 1.21-1.612 1.21h-.023c-.015-.002-.045-.007-.088-.09-.412-.762-1.307-2.582-1.549-3.076.662-.529 1.188-1.295 1.146-2.389-.183-4.492-5.963-13.394-8.375-14.297a3.078 3.078 0 0 0-1.094-.2c-.983 0-1.859.46-2.481.912.012.008.023.026.034.043l2.64 4.576a2.044 2.044 0 0 1 1.005-.276c.86 0 1.942.59 3.116 2.622 1.774 3.083 1.094 4.575.274 5.279l2.551 4.419c.151-.065.307-.141.46-.224.296.602 1.115 2.266 1.515 3.008a.95.95 0 0 0 .866.537c.709 0 1.477-.702 2.214-1.468A13.875 13.875 0 0 0 30 16c0-7.72-6.28-14-14-14zm-5.245 5.361a.28.28 0 0 0-.141.038v-.003L8.816 8.433a.282.282 0 0 0-.103.385l2.734 4.737c.053.09.147.141.244.141a.276.276 0 0 0 .142-.04l1.796-1.032a.283.283 0 0 0 .105-.385l-2.735-4.736a.282.282 0 0 0-.244-.142zm6.928 11.998a.28.28 0 0 0-.14.039l-1.798 1.036a.287.287 0 0 0-.105.387l2.735 4.733a.29.29 0 0 0 .248.143.293.293 0 0 0 .14-.037l1.796-1.04a.275.275 0 0 0 .105-.383l-2.73-4.733h-.006v-.001a.28.28 0 0 0-.245-.144z"/></svg>