<?xml version="1.0" encoding="utf-8"?>
<!-- Generator: Adobe Illustrator 14.0.0, SVG Export Plug-In . SVG Version: 6.00 Build 43363)  -->
<!DOCTYPE svg PUBLIC "-//W3C//DTD SVG 1.1//EN" "http://www.w3.org/Graphics/SVG/1.1/DTD/svg11.dtd">
<svg version="1.1" id="Layer_1" xmlns="http://www.w3.org/2000/svg" xmlns:xlink="http://www.w3.org/1999/xlink" x="0px" y="0px"
	 width="32px" height="32px" viewBox="0 0 32 32" enable-background="new 0 0 32 32" xml:space="preserve">
<path fill="#777777" d="M20.983,18.738c2.877-4.132,2.529-9.922-1.064-13.641c-3.994-4.13-10.463-4.13-14.456,0
	c-3.993,4.13-3.993,10.826,0,14.955c3.593,3.719,9.189,4.078,13.184,1.104L27.196,30c0,0,0.685-0.143,1.492-0.978
	c0.815-0.838,0.85-1.439,0.85-1.439l-8.55-8.845H20.983z"/>
<path fill="#FFFFFF" d="M19.079,5.966c3.529,3.65,3.532,9.57,0.003,13.222c-3.53,3.65-9.25,3.65-12.779,0
	c-3.525-3.654-3.525-9.573,0-13.22C9.83,2.315,15.551,2.315,19.079,5.966z"/>
<path fill="#E6E6E6" d="M17.677,5.29c2.676,2.768,2.675,7.258-0.002,10.027c-2.677,2.767-7.015,2.767-9.69,0
	C5.308,12.548,5.308,8.058,7.983,5.29C10.66,2.521,15,2.521,17.677,5.29z"/>
</svg>
