<?xml version="1.0" encoding="utf-8"?>
<!-- Generator: Adobe Illustrator 14.0.0, SVG Export Plug-In . SVG Version: 6.00 Build 43363)  -->
<!DOCTYPE svg PUBLIC "-//W3C//DTD SVG 1.1//EN" "http://www.w3.org/Graphics/SVG/1.1/DTD/svg11.dtd">
<svg version="1.1" id="Layer_1" xmlns="http://www.w3.org/2000/svg" xmlns:xlink="http://www.w3.org/1999/xlink" x="0px" y="0px"
	 width="32px" height="96px" viewBox="0 0 32 96" enable-background="new 0 0 32 96" xml:space="preserve">
<g>
	<g>
		<path fill="#C8C8C8" d="M24.565,28.545L16,22.56l-8.566,5.985l3.048-10.083L2,12.1h10.594L16,2l3.406,10.1H30l-8.481,6.362
			L24.565,28.545L24.565,28.545z"/>
	</g>
	<polygon fill="#F5EB16" points="16,3.413 19.082,12.551 28.646,12.551 20.994,18.29 23.757,27.428 16,22.009 8.243,27.428 
		11.006,18.29 3.355,12.551 12.918,12.551 	"/>
</g>
<path fill="#C8C8C8" d="M24.565,94L16,88.015L7.434,94l3.048-10.083L2,77.555h10.594L16,67.455l3.406,10.1H30l-8.481,6.362
	L24.565,94L24.565,94z"/>
</svg>
