<?xml version="1.0" encoding="utf-8"?>
<!-- Generator: Adobe Illustrator 14.0.0, SVG Export Plug-In . SVG Version: 6.00 Build 43363)  -->
<!DOCTYPE svg PUBLIC "-//W3C//DTD SVG 1.1//EN" "http://www.w3.org/Graphics/SVG/1.1/DTD/svg11.dtd">
<svg version="1.1" id="Layer_1" xmlns="http://www.w3.org/2000/svg" xmlns:xlink="http://www.w3.org/1999/xlink" x="0px" y="0px"
	 width="32px" height="32px" viewBox="0 0 32 32" enable-background="new 0 0 32 32" xml:space="preserve">
<g transform="matrix(1 0 0 -1 15.999 16.143)">
</g>
<path fill="#999999" d="M32,28.143c0,2.211-1.792,4-4,4H4c-2.21,0-4-1.789-4-4v-24c0-2.21,1.79-4,4-4h24c2.208,0,4,1.79,4,4V28.143z
	"/>
<g transform="matrix(.938 0 0 -.938 15.999 16.143)">
</g>
<path fill="#58B632" d="M32,28.143c0,2.211-1.792,4-4,4H4c-2.21,0-4-1.789-4-4v-24c0-2.21,1.79-4,4-4h24c2.208,0,4,1.79,4,4V28.143z
	"/>
<path fill="#58B632" d="M32,28.143c0,2.211-1.792,4-4,4H4c-2.21,0-4-1.789-4-4v-24c0-2.21,1.79-4,4-4h24c2.208,0,4,1.79,4,4V28.143z
	"/>
<path fill="#FFFFFF" d="M28,0.143H9.286C9.27,0.152,9.254,0.161,9.239,0.171C6.305,2.434,3.977,5.539,3.617,9.023
	c-0.09,0.572-0.149,1.15-0.149,1.743c0,3.633,1.75,6.924,4.579,9.38v7.797l6.58-4.286c1.782,0.521,3.698,0.82,5.703,0.82
	c4.534,0,8.641-1.463,11.67-3.83V4.143C32,1.933,30.208,0.143,28,0.143z M30.69,12.443c-1.36,3.277-5.555,5.742-10.36,5.742
	s-9-2.458-10.356-5.73c-0.137-0.546-0.208-1.11-0.208-1.69c0-4.093,3.522-7.51,8.229-8.376c0.757-0.127,1.534-0.2,2.334-0.2
	c0.808,0,1.59,0.075,2.349,0.204c4.698,0.87,8.213,4.283,8.213,8.37c0,0.575-0.074,1.135-0.203,1.68H30.69z"/>
</svg>
