<?xml version="1.0" encoding="utf-8"?>
<!-- Generator: Adobe Illustrator 14.0.0, SVG Export Plug-In . SVG Version: 6.00 Build 43363)  -->
<!DOCTYPE svg PUBLIC "-//W3C//DTD SVG 1.1//EN" "http://www.w3.org/Graphics/SVG/1.1/DTD/svg11.dtd">
<svg version="1.1" id="Layer_1" xmlns="http://www.w3.org/2000/svg" xmlns:xlink="http://www.w3.org/1999/xlink" x="0px" y="0px"
	 width="32px" height="32px" viewBox="0 0 32 32" enable-background="new 0 0 32 32" xml:space="preserve">
<g>
	<path fill="#324F6D" d="M21.266,25.395c-0.956,0.204-4.533,0.583-4.533-3.397v-8.434h6.994V9.42h-6.994V2.483h-3.297
		c-0.213,3.55-2.604,6.511-5.854,7.569v3.513h3.561v11.211c0,0-0.067,4.741,6.412,4.741c4.211,0,6.866-1.058,6.866-1.058v-4.232
		C24.421,24.228,24.29,24.748,21.266,25.395L21.266,25.395z"/>
	<path fill="#FFFFFF" d="M17.554,30c-2.397,0-4.227-0.623-5.439-1.853c-1.464-1.485-1.456-3.302-1.455-3.378V14.048H7.099V9.702
		l0.333-0.108c3.107-1.011,5.326-3.88,5.522-7.139L12.982,2h4.235v6.938h6.994v5.108h-6.994v7.951c0,2.011,0.98,3.03,2.916,3.03
		c0.491,0,0.887-0.073,1.033-0.104c2.436-0.521,2.834-0.932,2.85-0.949l0.182,0.166l0.706,0.088v4.56l-0.304,0.122
		C24.488,28.953,21.809,30,17.554,30L17.554,30z M8.065,13.082h3.561v11.694c0,0.02,0.005,1.515,1.188,2.705
		c1.025,1.03,2.62,1.553,4.74,1.553c3.26,0,5.584-0.654,6.384-0.916v-2.997c-0.515,0.224-1.317,0.478-2.57,0.746
		c-0.221,0.046-0.674,0.126-1.235,0.126c-2.468,0-3.882-1.457-3.882-3.996v-8.917h6.994V9.903h-6.994V2.965h-2.372
		c-0.375,3.346-2.65,6.258-5.814,7.43V13.082L8.065,13.082z"/>
</g>
</svg>
