<?xml version="1.0" encoding="utf-8"?>
<!-- Generator: Adobe Illustrator 14.0.0, SVG Export Plug-In . SVG Version: 6.00 Build 43363)  -->
<!DOCTYPE svg PUBLIC "-//W3C//DTD SVG 1.1//EN" "http://www.w3.org/Graphics/SVG/1.1/DTD/svg11.dtd">
<svg version="1.1" id="Layer_1" xmlns="http://www.w3.org/2000/svg" xmlns:xlink="http://www.w3.org/1999/xlink" x="0px" y="0px"
	 width="32px" height="32px" viewBox="0 0 32 32" enable-background="new 0 0 32 32" xml:space="preserve">
<g>
	<path fill="#2AA9E0" d="M11.151,27.084c-3.014,0-5.942-0.857-8.47-2.482c-0.183-0.117-0.261-0.346-0.187-0.549
		c0.067-0.188,0.244-0.311,0.438-0.311c0.019,0,0.038,0.002,0.056,0.004c0.395,0.049,0.806,0.072,1.223,0.072
		c1.936,0,3.782-0.523,5.403-1.521c-1.954-0.467-3.565-1.922-4.194-3.889c-0.05-0.156-0.014-0.33,0.095-0.453
		c0.089-0.1,0.217-0.156,0.349-0.156c0.029,0,0.059,0.002,0.088,0.008c0.098,0.02,0.198,0.035,0.298,0.049
		c-1.657-1.045-2.733-2.892-2.733-4.938c0-0.166,0.087-0.353,0.23-0.437c0.087-0.051,0.186-0.084,0.283-0.084
		c0.063,0,0.124,0.014,0.18,0.045c0.212,0.119,0.434,0.22,0.662,0.305c-0.843-1.029-1.319-2.326-1.319-3.69
		c0-1.021,0.273-2.034,0.791-2.929c0.077-0.133,0.214-0.22,0.367-0.232c0.012-0.001,0.025-0.001,0.038-0.001
		c0.139,0,0.272,0.063,0.361,0.171c2.524,3.092,6.189,5.036,10.129,5.394c-0.03-0.243-0.045-0.482-0.045-0.716
		c0-3.213,2.614-5.828,5.827-5.828c1.516,0,2.984,0.598,4.068,1.651c1.062-0.236,2.074-0.637,3.014-1.194
		c0.073-0.044,0.155-0.065,0.237-0.065c0.104,0,0.206,0.034,0.291,0.102c0.151,0.121,0.212,0.323,0.154,0.507
		c-0.235,0.735-0.614,1.41-1.109,1.991c0.408-0.123,0.808-0.271,1.196-0.444c0.062-0.027,0.126-0.04,0.19-0.04
		c0.135,0,0.267,0.058,0.357,0.166c0.134,0.159,0.147,0.387,0.032,0.56c-0.709,1.061-1.58,1.984-2.59,2.747
		c0.006,0.154,0.009,0.31,0.009,0.466C26.874,19.09,20.992,27.084,11.151,27.084L11.151,27.084z"/>
	<path fill="#FFFFFF" d="M21.023,5.382c1.543,0,2.935,0.65,3.914,1.693c1.22-0.241,2.369-0.687,3.405-1.301
		c-0.4,1.253-1.25,2.298-2.358,2.961c1.086-0.13,2.121-0.418,3.08-0.845V7.889h0.002c-0.718,1.075-1.627,2.021-2.679,2.779
		c0.014,0.23,0.02,0.46,0.02,0.694c0,7.085-5.394,15.255-15.256,15.255c-3.028,0-5.847-0.885-8.218-2.408
		c0.417,0.051,0.845,0.076,1.279,0.076c2.513,0,4.825-0.859,6.661-2.297c-2.347-0.043-4.326-1.594-5.007-3.723
		c0.326,0.063,0.663,0.096,1.008,0.096c0.488,0,0.962-0.066,1.413-0.188c-2.453-0.494-4.301-2.661-4.301-5.257
		c0-0.023,0-0.045,0-0.068c0.719,0.402,1.549,0.642,2.427,0.67c-1.438-0.962-2.39-2.602-2.39-4.462c0-0.983,0.271-1.904,0.729-2.696
		c2.648,3.244,6.599,5.381,11.051,5.605c-0.086-0.392-0.14-0.802-0.14-1.223C15.662,7.783,18.062,5.382,21.023,5.382 M21.023,4.449
		c-3.47,0-6.294,2.824-6.294,6.295c0,0.063,0.001,0.126,0.003,0.19c-3.604-0.47-6.932-2.313-9.259-5.163
		C5.296,5.553,5.03,5.428,4.751,5.428c-0.025,0-0.05,0.001-0.075,0.003C4.37,5.456,4.096,5.629,3.943,5.894
		C3.384,6.86,3.089,7.954,3.089,9.057c0,1.019,0.246,2.002,0.698,2.88c-0.095,0.021-0.188,0.056-0.274,0.107
		c-0.286,0.168-0.461,0.474-0.461,0.805v0.068c0,1.849,0.814,3.549,2.129,4.716c-0.004,0.004-0.009,0.008-0.013,0.014
		c-0.219,0.246-0.292,0.59-0.191,0.904c0.563,1.76,1.853,3.139,3.478,3.848c-1.313,0.627-2.75,0.953-4.243,0.953
		c-0.398,0-0.791-0.023-1.167-0.068c-0.037-0.006-0.075-0.008-0.112-0.008c-0.389,0-0.743,0.244-0.877,0.617
		c-0.147,0.41,0.008,0.867,0.374,1.104c2.604,1.672,5.62,2.555,8.723,2.555c10.134,0,16.188-8.23,16.188-16.189
		c0-0.081-0.001-0.162-0.001-0.242c0.971-0.765,1.811-1.675,2.504-2.712c0.191-0.287,0.209-0.655,0.047-0.958
		c-0.162-0.304-0.479-0.494-0.823-0.494c-0.071,0-0.143,0.008-0.213,0.024c0.15-0.295,0.277-0.604,0.378-0.922
		c0.119-0.369-0.004-0.773-0.307-1.014c-0.17-0.135-0.375-0.203-0.582-0.203c-0.164,0-0.328,0.042-0.476,0.13
		c-0.826,0.489-1.712,0.853-2.641,1.083C24.078,5.028,22.574,4.449,21.023,4.449L21.023,4.449z"/>
</g>
</svg>
