<?xml version="1.0" encoding="utf-8"?>
<!-- Generator: Adobe Illustrator 14.0.0, SVG Export Plug-In . SVG Version: 6.00 Build 43363)  -->
<!DOCTYPE svg PUBLIC "-//W3C//DTD SVG 1.1//EN" "http://www.w3.org/Graphics/SVG/1.1/DTD/svg11.dtd">
<svg version="1.1" id="Layer_1" xmlns="http://www.w3.org/2000/svg" xmlns:xlink="http://www.w3.org/1999/xlink" x="0px" y="0px"
	 width="32px" height="32px" viewBox="0 0 32 32" enable-background="new 0 0 32 32" xml:space="preserve">
<path fill="#FFFFFF" d="M15.2,13.81c0,3.092,2.508,5.6,5.6,5.6c3.093,0,5.601-2.508,5.601-5.6c0-3.095-2.508-5.6-5.601-5.6
	C17.708,8.21,15.2,10.715,15.2,13.81 M26.4,20.811H15.2c-3.093,0-5.6,2.51-5.6,5.6v4.1H32v-4.1C32,23.316,29.493,20.811,26.4,20.811
	"/>
<path fill="#FFFFFF" d="M10.4,11.888c2.87,0,5.2-2.328,5.2-5.198c0-2.872-2.33-5.2-5.2-5.2c-2.872,0-5.2,2.327-5.2,5.2
	C5.2,9.56,7.53,11.888,10.4,11.888z"/>
<path fill="#777777" d="M10.4,2.49c2.315,0,4.2,1.883,4.2,4.198c0,2.313-1.885,4.198-4.2,4.198c-2.316,0-4.2-1.885-4.2-4.198
	c0-2.315,1.884-4.2,4.2-4.2 M10.4,1.488c-2.872,0-5.2,2.328-5.2,5.2c0,2.87,2.328,5.198,5.2,5.198c2.87,0,5.2-2.328,5.2-5.198
	C15.6,3.816,13.27,1.488,10.4,1.488z"/>
<path fill="#FFFFFF" d="M8.48,26.408c0-3.705,3.014-6.721,6.72-6.721h2.35c-2.067-1.146-3.47-3.354-3.47-5.879
	c0-0.21,0.013-0.417,0.03-0.62H5.2c-2.873,0-5.2,2.326-5.2,5.2v10.261h8.48V26.408z"/>
<path fill="#777777" d="M13.088,14.188c0.083,1.67,0.706,3.244,1.74,4.51c-4.085,0.189-7.35,3.577-7.35,7.71v1.24H1v-9.263
	c0-2.314,1.884-4.2,4.2-4.2h7.888 M14.111,13.188H5.2c-2.873,0-5.2,2.326-5.2,5.2v10.261h8.48v-2.24c0-3.704,3.015-6.721,6.72-6.721
	h2.35c-2.066-1.146-3.47-3.354-3.47-5.879C14.08,13.6,14.093,13.393,14.111,13.188L14.111,13.188z"/>
</svg>
