<?xml version="1.0" encoding="utf-8"?>
<!-- Generator: Adobe Illustrator 14.0.0, SVG Export Plug-In . SVG Version: 6.00 Build 43363)  -->
<!DOCTYPE svg PUBLIC "-//W3C//DTD SVG 1.1//EN" "http://www.w3.org/Graphics/SVG/1.1/DTD/svg11.dtd">
<svg version="1.1" id="Layer_1" xmlns="http://www.w3.org/2000/svg" xmlns:xlink="http://www.w3.org/1999/xlink" x="0px" y="0px"
	 width="32px" height="32px" viewBox="0 0 32 32" enable-background="new 0 0 32 32" xml:space="preserve">
<g>
	<g>
		<path fill="#FFFFFF" d="M15.095,13.899c0,2.663,2.161,4.825,4.825,4.825c2.665,0,4.825-2.162,4.825-4.825
			c0-2.667-2.16-4.826-4.825-4.826C17.257,9.073,15.095,11.232,15.095,13.899 M24.745,19.93h-9.65c-2.665,0-4.825,2.162-4.825,4.824
			v3.533h19.298v-3.533C29.569,22.088,27.409,19.93,24.745,19.93"/>
		<path fill="#C8C8C8" d="M30,28.718H9.84v-3.964c0-2.898,2.357-5.256,5.255-5.256h9.65c2.898,0,5.255,2.357,5.255,5.256V28.718
			L30,28.718z M10.702,27.856h18.438v-3.103c0-2.422-1.972-4.393-4.394-4.393h-9.651c-2.422,0-4.393,1.971-4.393,4.393V27.856
			L10.702,27.856z M19.92,19.153c-2.898,0-5.255-2.356-5.255-5.255c0-2.899,2.356-5.256,5.255-5.256s5.256,2.357,5.256,5.256
			C25.176,16.797,22.818,19.153,19.92,19.153L19.92,19.153z M19.92,9.504c-2.423,0-4.394,1.972-4.394,4.395s1.971,4.394,4.394,4.394
			s4.394-1.972,4.394-4.394C24.314,11.476,22.343,9.504,19.92,9.504L19.92,9.504z"/>
	</g>
	<path fill="#FFFFFF" d="M10.96,12.243c2.473,0,4.48-2.005,4.48-4.478c0-2.475-2.007-4.48-4.48-4.48c-2.475,0-4.48,2.005-4.48,4.48
		C6.48,10.237,8.487,12.243,10.96,12.243z"/>
	<path fill="#B4B4B4" d="M10.96,4.146c1.995,0,3.619,1.623,3.619,3.617c0,1.992-1.624,3.616-3.619,3.616
		c-1.995,0-3.618-1.623-3.618-3.616c0-1.994,1.622-3.619,3.618-3.619 M10.96,3.283c-2.475,0-4.48,2.005-4.48,4.48
		c0,2.473,2.005,4.478,4.48,4.478c2.473,0,4.48-2.005,4.48-4.478C15.44,5.288,13.433,3.283,10.96,3.283z"/>
	<path fill="#FFFFFF" d="M9.306,24.752c0-3.191,2.597-5.79,5.789-5.79h2.025c-1.782-0.988-2.99-2.89-2.99-5.064
		c0-0.181,0.011-0.36,0.025-0.535H6.48c-2.475,0-4.48,2.004-4.48,4.481v8.839h7.307V24.752z"/>
	<path fill="#B4B4B4" d="M13.277,14.225c0.072,1.438,0.607,2.794,1.499,3.885c-3.52,0.164-6.333,3.082-6.333,6.643v1.069H2.861
		v-7.98c0-1.994,1.623-3.619,3.619-3.619h6.797 M14.157,13.362H6.48c-2.475,0-4.48,2.004-4.48,4.48v8.84h7.307v-1.929
		c0-3.19,2.598-5.791,5.789-5.791h2.025c-1.781-0.987-2.99-2.889-2.99-5.063C14.13,13.718,14.141,13.54,14.157,13.362L14.157,13.362
		z"/>
</g>
</svg>
