<?xml version="1.0" encoding="utf-8"?>
<!-- Generator: Adobe Illustrator 14.0.0, SVG Export Plug-In . SVG Version: 6.00 Build 43363)  -->
<!DOCTYPE svg PUBLIC "-//W3C//DTD SVG 1.1//EN" "http://www.w3.org/Graphics/SVG/1.1/DTD/svg11.dtd">
<svg version="1.1" id="Layer_1" xmlns="http://www.w3.org/2000/svg" xmlns:xlink="http://www.w3.org/1999/xlink" x="0px" y="0px"
	 width="32px" height="32px" viewBox="0 0 32 32" enable-background="new 0 0 32 32" xml:space="preserve">
<g>
</g>
<path fill="#00ADEF" d="M13.229,15.017V4.394L2,5.96v9.057H13.229z M2,16.985v9.2l11.229,1.511v-10.71L2,16.985L2,16.985z
	 M30,15.017V2.049L15.198,4.118v10.898H30z M30,2.048l-14.802,2.07v10.898H30V2.048L30,2.048z M15.198,16.984v10.978L30,29.952
	V16.984H15.198z M30,16.984H15.198v10.978L30,29.952V16.984z M13.229,15.016V4.393L2,5.961v9.057L13.229,15.016z M2,16.984v9.201
	l11.229,1.511v-10.71L2,16.984z M30,15.016V2.048l-14.802,2.07v10.898L30,15.016z M15.198,16.984v10.978L30,29.952V16.984H15.198z"
	/>
</svg>
