<?xml version="1.0" encoding="utf-8"?>
<!-- Generator: Adobe Illustrator 14.0.0, SVG Export Plug-In . SVG Version: 6.00 Build 43363)  -->
<!DOCTYPE svg PUBLIC "-//W3C//DTD SVG 1.1//EN" "http://www.w3.org/Graphics/SVG/1.1/DTD/svg11.dtd">
<svg version="1.1" id="Layer_1" xmlns="http://www.w3.org/2000/svg" xmlns:xlink="http://www.w3.org/1999/xlink" x="0px" y="0px"
	 width="32px" height="32px" viewBox="0 0 32 32" enable-background="new 0 0 32 32" xml:space="preserve">
<g>
	<g>
		<path fill="#FFFFFF" d="M26.831,29.366c-0.105,0-0.203-0.041-0.276-0.115L13.009,15.708l-0.285,0.15
			c-1.001,0.526-2.132,0.804-3.269,0.804c-1.875,0-3.638-0.73-4.96-2.057C2.449,12.561,1.877,9.54,2.986,6.92l4.208,4.208
			c0.24,0.238,0.558,0.369,0.895,0.369c0.337,0,0.655-0.13,0.895-0.368l2.344-2.344c0.239-0.239,0.371-0.557,0.371-0.895
			c0-0.339-0.131-0.657-0.371-0.896L7.304,2.972c0.695-0.225,1.42-0.338,2.161-0.338c1.87,0,3.629,0.728,4.952,2.05
			c2.042,2.042,2.625,5.075,1.482,7.729l-0.117,0.271l13.668,13.672c0.073,0.073,0.113,0.17,0.113,0.274
			c0.001,0.104-0.04,0.203-0.114,0.276l-2.341,2.345C27.034,29.325,26.935,29.366,26.831,29.366L26.831,29.366z"/>
		<path fill="#C8C8C8" d="M9.465,3.071c1.753,0,3.402,0.682,4.643,1.921c1.915,1.914,2.46,4.758,1.389,7.247l-0.234,0.545
			l0.419,0.419l13.425,13.428l-2.276,2.277L13.546,15.627l-0.456-0.457l-0.569,0.3c-0.939,0.493-2,0.753-3.066,0.753
			c-1.758,0-3.41-0.685-4.652-1.929c-1.757-1.754-2.354-4.28-1.642-6.58l3.726,3.726c0.321,0.318,0.749,0.494,1.202,0.494
			c0.455,0,0.88-0.175,1.205-0.497l2.343-2.342c0.321-0.322,0.498-0.75,0.498-1.205s-0.178-0.883-0.498-1.205L8.152,3.202
			C8.581,3.114,9.02,3.071,9.465,3.071 M9.465,2.196c-1.005,0-2.01,0.202-2.95,0.605l4.503,4.502c0.323,0.324,0.323,0.85,0,1.172
			L8.674,10.82c-0.162,0.161-0.374,0.24-0.586,0.24c-0.212,0-0.424-0.08-0.586-0.24L2.857,6.174
			c-1.482,2.813-1.042,6.375,1.327,8.74C5.64,16.373,7.547,17.1,9.454,17.1c1.194,0,2.388-0.284,3.473-0.854l13.317,13.315
			c0.163,0.161,0.374,0.242,0.587,0.242c0.212,0,0.424-0.082,0.586-0.242l2.342-2.346c0.322-0.323,0.322-0.85,0-1.171L16.302,12.584
			c1.168-2.717,0.646-5.99-1.576-8.211C13.271,2.92,11.368,2.196,9.465,2.196L9.465,2.196z"/>
	</g>
</g>
</svg>
