<?xml version="1.0" encoding="utf-8"?>
<!-- Generator: Adobe Illustrator 14.0.0, SVG Export Plug-In . SVG Version: 6.00 Build 43363)  -->
<!DOCTYPE svg PUBLIC "-//W3C//DTD SVG 1.1//EN" "http://www.w3.org/Graphics/SVG/1.1/DTD/svg11.dtd">
<svg version="1.1" id="Layer_1" xmlns="http://www.w3.org/2000/svg" xmlns:xlink="http://www.w3.org/1999/xlink" x="0px" y="0px"
	 width="32px" height="32px" viewBox="0 0 32 32" enable-background="new 0 0 32 32" xml:space="preserve">
<g>
	<path fill="#FFFFFF" d="M4,31.5c-1.93,0-3.5-1.57-3.5-3.5V4c0-1.93,1.57-3.5,3.5-3.5h24c1.93,0,3.5,1.57,3.5,3.5v24
		c0,1.93-1.57,3.5-3.5,3.5H4z"/>
</g>
<path fill="#333333" d="M6.907,3h1.846l1.19,4.317h0.115L11.19,3h1.864L10.92,9.32v4.48H9.09V9.52L6.907,3z M13.187,7.655
	c0-0.618,0.218-1.11,0.655-1.475c0.438-0.365,1.027-0.55,1.768-0.55c0.674,0,1.226,0.194,1.658,0.58
	c0.428,0.385,0.643,0.882,0.643,1.49v4.114c0,0.682-0.21,1.215-0.631,1.604C16.854,13.806,16.274,14,15.535,14
	c-0.712,0-1.282-0.2-1.71-0.6c-0.426-0.4-0.64-0.94-0.64-1.617V7.655H13.187z M14.86,11.935c0,0.218,0.06,0.386,0.174,0.506
	s0.28,0.18,0.496,0.18c0.22,0,0.396-0.06,0.525-0.18s0.194-0.29,0.194-0.5V7.6c0-0.175-0.065-0.315-0.198-0.423
	c-0.133-0.107-0.307-0.16-0.521-0.16c-0.198,0-0.36,0.053-0.484,0.16c-0.123,0.108-0.186,0.248-0.186,0.422v4.34V11.935z
	 M23.874,5.833V13.8h-1.63v-0.88c-0.296,0.323-0.607,0.572-0.936,0.74c-0.33,0.17-0.641,0.255-0.949,0.255
	c-0.381,0-0.66-0.12-0.852-0.356c-0.189-0.24-0.283-0.6-0.283-1.07V5.83h1.623v6.11c0,0.19,0.036,0.324,0.104,0.41
	c0.064,0.083,0.177,0.126,0.33,0.126c0.117,0,0.27-0.057,0.453-0.168c0.183-0.113,0.351-0.256,0.5-0.43V5.832h1.631L23.874,5.833z"
	/>
<path fill="#EE3E3A" d="M27,16H5c-2.75,0-5,2.25-5,5v7c0,2.21,1.79,4,4,4h24c2.208,0,4-1.79,4-4v-7C32,18.25,29.75,16,27,16z"/>
<path fill="#FFFFFF" d="M10.524,19.154h-5v1.424H7.21v8.378h1.63v-8.378h1.686L10.524,19.154L10.524,19.154z M13.844,27.218
	c-0.139,0.155-0.286,0.285-0.45,0.386c-0.162,0.104-0.298,0.153-0.402,0.153c-0.136,0-0.234-0.038-0.297-0.116
	c-0.061-0.068-0.09-0.19-0.09-0.363v-5.549H11.16v6.049c0,0.432,0.086,0.75,0.254,0.97c0.17,0.218,0.42,0.321,0.756,0.321
	c0.271,0,0.551-0.073,0.84-0.229c0.29-0.152,0.565-0.375,0.835-0.67v0.795h1.444V21.73h-1.45v5.494L13.844,27.218z M20.17,22.098
	c-0.239-0.307-0.59-0.462-1.048-0.462c-0.226,0-0.446,0.058-0.667,0.173c-0.217,0.111-0.424,0.283-0.62,0.5v-3.152h-1.46v9.802h1.46
	v-0.556c0.19,0.222,0.397,0.386,0.62,0.488c0.22,0.11,0.47,0.16,0.755,0.16c0.43,0,0.757-0.132,0.981-0.41
	c0.228-0.27,0.341-0.662,0.341-1.18v-4.01c0-0.59-0.12-1.04-0.362-1.35V22.098z M19.043,27.264c0,0.23-0.043,0.396-0.125,0.497
	c-0.084,0.11-0.213,0.16-0.391,0.16c-0.123,0-0.237-0.026-0.351-0.08c-0.108-0.05-0.227-0.137-0.343-0.254V23.08
	c0.102-0.1,0.197-0.175,0.298-0.221c0.101-0.049,0.203-0.069,0.308-0.069c0.193,0,0.346,0.06,0.451,0.187
	c0.103,0.125,0.15,0.312,0.15,0.559v3.732L19.043,27.264z M25.545,25.514V23.67c0-0.688-0.177-1.21-0.53-1.578
	c-0.355-0.367-0.865-0.55-1.527-0.55c-0.646,0-1.172,0.197-1.582,0.592c-0.409,0.396-0.614,0.91-0.614,1.534v3.248
	c0,0.695,0.188,1.243,0.561,1.641c0.372,0.398,0.883,0.596,1.529,0.596c0.721,0,1.262-0.186,1.62-0.561
	c0.366-0.375,0.546-0.935,0.546-1.676v-0.37h-1.484v0.33c0,0.424-0.051,0.698-0.146,0.819c-0.097,0.129-0.263,0.189-0.503,0.189
	c-0.229,0-0.395-0.072-0.49-0.22c-0.095-0.146-0.14-0.412-0.14-0.792V25.51h2.763L25.545,25.514L25.545,25.514z M22.779,23.657
	c0-0.304,0.049-0.521,0.15-0.65c0.1-0.133,0.264-0.196,0.493-0.196c0.222,0,0.384,0.07,0.48,0.2c0.1,0.13,0.152,0.351,0.152,0.65
	v0.729h-1.277v-0.729L22.779,23.657L22.779,23.657z"/>
<path fill="#C8C8C8" d="M28,1c1.654,0,3,1.346,3,3v24c0,1.654-1.346,3-3,3H4c-1.654,0-3-1.346-3-3V4c0-1.654,1.346-3,3-3H28 M28,0H4
	C1.79,0,0,1.79,0,4v24c0,2.21,1.79,4,4,4h24c2.208,0,4-1.79,4-4V4C32,1.79,30.208,0,28,0L28,0z"/>
</svg>
