<?xml version="1.0" encoding="utf-8"?>
<!-- Generator: Adobe Illustrator 14.0.0, SVG Export Plug-In . SVG Version: 6.00 Build 43363)  -->
<!DOCTYPE svg PUBLIC "-//W3C//DTD SVG 1.1//EN" "http://www.w3.org/Graphics/SVG/1.1/DTD/svg11.dtd">
<svg version="1.1" id="Layer_1" xmlns="http://www.w3.org/2000/svg" xmlns:xlink="http://www.w3.org/1999/xlink" x="0px" y="0px"
	 width="32px" height="32px" viewBox="0 0 32 32" enable-background="new 0 0 32 32" xml:space="preserve">
<g>
	<path fill="#98CB02" d="M19.832,4.361l1.204-1.938c0.083-0.131,0.042-0.304-0.09-0.383c-0.13-0.081-0.301-0.041-0.384,0.091
		l-1.243,1.995c-1.002-0.419-2.13-0.659-3.321-0.659c-1.191,0-2.318,0.239-3.323,0.661l-1.242-1.995
		c-0.081-0.131-0.252-0.171-0.383-0.092c-0.131,0.082-0.17,0.252-0.09,0.383l1.206,1.938C9.969,5.47,8.48,7.5,8.41,9.836h15.176
		C23.517,7.5,22.028,5.47,19.832,4.361z M12.772,7.727c-0.491,0-0.886-0.396-0.886-0.885c0-0.491,0.396-0.887,0.887-0.887
		c0.489,0,0.885,0.396,0.885,0.887C13.658,7.332,13.262,7.727,12.772,7.727z M19.225,7.727c-0.491,0-0.888-0.396-0.888-0.885
		c0-0.491,0.396-0.887,0.888-0.887c0.49,0,0.887,0.396,0.887,0.887C20.112,7.332,19.716,7.727,19.225,7.727z"/>
	<path fill="#98CB02" d="M5.685,11.054v0.005c-0.837,0-1.518,0.677-1.518,1.517v6.957c0,0.84,0.681,1.516,1.518,1.516
		c0.84,0,1.519-0.679,1.519-1.519v-6.956C7.203,11.733,6.524,11.054,5.685,11.054z"/>
	<path fill="#98CB02" d="M26.313,11.054v0.005c-0.841,0-1.519,0.677-1.519,1.517v6.957c0,0.84,0.679,1.516,1.519,1.516
		c0.837,0,1.519-0.679,1.519-1.519v-6.956C27.832,11.733,27.15,11.054,26.313,11.054z"/>
	<path fill="#98CB02" d="M8.406,22.955h0.002l0,0c0,0.812,0.639,1.477,1.44,1.515h1.506v3.989c0,0.839,0.679,1.518,1.518,1.518
		s1.519-0.679,1.519-1.518V24.47h3.21v4.008c0,0.841,0.683,1.52,1.521,1.52c0.837,0,1.516-0.679,1.516-1.518v-4.008h1.438
		c0.837,0,1.516-0.676,1.516-1.515V11.059H8.406V22.955z"/>
</g>
</svg>
