<?xml version="1.0" encoding="utf-8"?>
<!-- Generator: Adobe Illustrator 14.0.0, SVG Export Plug-In . SVG Version: 6.00 Build 43363)  -->
<!DOCTYPE svg PUBLIC "-//W3C//DTD SVG 1.1//EN" "http://www.w3.org/Graphics/SVG/1.1/DTD/svg11.dtd">
<svg version="1.1" id="Layer_1" xmlns="http://www.w3.org/2000/svg" xmlns:xlink="http://www.w3.org/1999/xlink" x="0px" y="0px"
	 width="32px" height="32px" viewBox="0 0 32 32" enable-background="new 0 0 32 32" xml:space="preserve">
<g>
	<path fill="#DD1B16" d="M15.894,28.984L5.603,23.032L3.943,7.227l12.05-4.295l12.054,4.295l-1.858,15.806"/>
	<path fill="#FFFFFF" d="M19.927,18.568l1.874,3.977h2.801L15.919,4.103L7.626,22.545h3.008l1.788-3.979L19.927,18.568z
		 M15.926,9.801l2.933,6.221h-5.73L15.926,9.801z"/>
	<path opacity="0.2" enable-background="new    " d="M15.993,2.931l-0.099,0.037v26.017l10.295-5.952l1.857-15.806L15.993,2.931z"/>
	<path fill="#B3B3B3" d="M15.993,2.931l12.054,4.292l-1.857,15.811l-10.295,5.95L5.6,23.032L3.941,7.227l12.057-4.295 M15.997,2
		l-0.294,0.105L3.654,6.397L3.003,6.63l0.072,0.687l1.653,15.805l0.048,0.446l0.387,0.225l10.294,5.953L15.894,30l0.439-0.254
		l10.295-5.954l0.381-0.219l0.054-0.438l1.852-15.809l0.082-0.696L28.34,6.396L16.288,2.105L15.993,2H15.997z"/>
</g>
</svg>
