<?xml version="1.0" encoding="utf-8"?>
<!-- Generator: Adobe Illustrator 14.0.0, SVG Export Plug-In . SVG Version: 6.00 Build 43363)  -->
<!DOCTYPE svg PUBLIC "-//W3C//DTD SVG 1.1//EN" "http://www.w3.org/Graphics/SVG/1.1/DTD/svg11.dtd">
<svg version="1.1" id="Layer_1" xmlns="http://www.w3.org/2000/svg" xmlns:xlink="http://www.w3.org/1999/xlink" x="0px" y="0px"
	 width="32px" height="32px" viewBox="0 0 32 32" enable-background="new 0 0 32 32" xml:space="preserve">
<g>
	<path fill="#FFFFFF" d="M24.73,17.003c-0.04-4.052,3.305-5.994,3.454-6.092c-1.88-2.75-4.807-3.126-5.849-3.169
		c-2.491-0.253-4.861,1.467-6.126,1.467c-1.26,0-3.212-1.43-5.279-1.394c-2.716,0.039-5.219,1.576-6.619,4.011
		c-2.819,4.895-0.72,12.146,2.029,16.116c1.343,1.944,2.945,4.13,5.049,4.052c2.023-0.082,2.79-1.313,5.239-1.313
		s3.14,1.313,5.282,1.271c2.179-0.04,3.561-1.98,4.895-3.93c1.54-2.256,2.18-4.439,2.212-4.552c-0.05-0.02-4.252-1.629-4.294-6.468
		H24.73z M20.703,5.113c1.117-1.354,1.87-3.235,1.666-5.109c-1.61,0.066-3.56,1.07-4.712,2.422c-1.037,1.2-1.943,3.113-1.7,4.952
		C17.754,7.518,19.586,6.464,20.703,5.113L20.703,5.113z"/>
	<path fill="#B3B3B3" d="M20.032,5.422c0.962-1.171,1.607-2.797,1.433-4.419c-1.385,0.058-3.06,0.927-4.052,2.095
		C16.52,4.134,15.743,5.79,15.95,7.38C17.496,7.5,19.071,6.59,20.032,5.422z"/>
	<path fill="#999999" d="M21.087,1.526c-0.18,0.979-0.643,1.966-1.332,2.803c-0.686,0.83-1.617,1.437-2.539,1.696
		c0.197-1.103,0.802-2.138,1.378-2.803C19.213,2.499,20.153,1.875,21.087,1.526 M22.369,0.003c-1.61,0.066-3.56,1.07-4.712,2.422
		c-1.037,1.2-1.943,3.113-1.7,4.952c0.107,0.01,0.214,0.013,0.322,0.013c1.69,0,3.37-1.01,4.419-2.279
		C21.818,3.752,22.568,1.873,22.369,0.003z"/>
	<path fill="#B3B3B3" d="M24.73,17.003c-0.04-4.052,3.305-5.994,3.454-6.092c-1.88-2.75-4.807-3.126-5.849-3.169
		c-2.491-0.253-4.861,1.467-6.126,1.467c-1.26,0-3.212-1.43-5.279-1.394c-2.716,0.039-5.219,1.576-6.619,4.011
		c-2.819,4.895-0.72,12.146,2.029,16.116c1.343,1.944,2.945,4.13,5.049,4.052c2.023-0.082,2.79-1.313,5.239-1.313
		s3.14,1.313,5.282,1.271c2.179-0.04,3.561-1.98,4.895-3.93c1.54-2.256,2.18-4.439,2.212-4.552c-0.05-0.02-4.252-1.629-4.294-6.468
		H24.73z"/>
	<path fill="#999999" d="M21.827,8.947c0.127,0,0.256,0.006,0.385,0.02l0.035,0.003l0.038,0.002c0.81,0.034,2.646,0.28,4.126,1.73
		c-1.265,1.1-2.941,3.16-2.91,6.313c0.034,4.021,2.54,6.152,4.01,7.057c-0.33,0.83-0.884,2.042-1.718,3.26
		c-1.35,1.969-2.42,3.367-3.902,3.396h-0.074c-0.739,0-1.247-0.22-1.889-0.5c-0.798-0.35-1.788-0.775-3.295-0.775
		c-1.564,0-2.595,0.438-3.423,0.792c-0.65,0.271-1.16,0.49-1.87,0.52h-0.062c-1.379,0-2.697-1.739-3.929-3.519
		c-2.38-3.44-4.566-10.305-1.973-14.808c1.183-2.06,3.316-3.359,5.628-3.394c0.91,0,1.853,0.376,2.766,0.738
		c0.85,0.336,1.652,0.653,2.434,0.653c0.725,0,1.486-0.302,2.369-0.647c1.002-0.4,2.14-0.849,3.246-0.849 M21.819,7.708
		c-2.296,0.004-4.436,1.494-5.615,1.494c-1.24,0-3.16-1.396-5.195-1.396c-0.026,0-0.053,0-0.08,0
		C8.214,7.849,5.71,9.386,4.313,11.82c-2.819,4.894-0.726,12.146,2.023,16.116c1.326,1.921,2.897,4.061,4.947,4.061
		c0.036,0,0.072,0,0.108-0.002c2.025-0.082,2.792-1.313,5.242-1.313c2.411,0,3.116,1.272,5.184,1.272c0.032,0,0.064,0,0.098,0
		c2.18-0.042,3.561-1.98,4.895-3.933c1.55-2.255,2.18-4.438,2.22-4.55c-0.051-0.023-4.252-1.633-4.294-6.472
		c-0.04-4.049,3.304-5.992,3.453-6.089c-1.88-2.75-4.808-3.126-5.849-3.169c-0.17-0.018-0.34-0.025-0.51-0.025L21.819,7.708z"/>
</g>
</svg>
