<?xml version="1.0" encoding="utf-8"?>
<!-- Generator: Adobe Illustrator 14.0.0, SVG Export Plug-In . SVG Version: 6.00 Build 43363)  -->
<!DOCTYPE svg PUBLIC "-//W3C//DTD SVG 1.1//EN" "http://www.w3.org/Graphics/SVG/1.1/DTD/svg11.dtd">
<svg version="1.1" id="Layer_1" xmlns="http://www.w3.org/2000/svg" xmlns:xlink="http://www.w3.org/1999/xlink" x="0px" y="0px"
	 width="32px" height="32px" viewBox="0 0 32 32" enable-background="new 0 0 32 32" xml:space="preserve">
<g id="XMLID_1_">
	<path fill="#C8C8C8" d="M24.406,5.852V1.427c0-0.617-0.502-1.12-1.122-1.12c-0.617,0-1.12,0.503-1.12,1.12v3.364H8.721
		c-1.487,0-1.689,0.202-1.689,1.688V30c0,1.484,0.203,1.689,1.689,1.689h14.556c1.486,0,1.689-0.205,1.689-1.689V6.479
		C24.968,5.864,24.754,6.305,24.406,5.852z"/>
	<path fill="#FFFFFF" d="M23.396,17.492H8.601V7.03h14.796L23.396,17.492L23.396,17.492z"/>
	<path fill="#999999" d="M23.7,17.794H8.296V6.73H23.7V17.794L23.7,17.794z M8.9,17.189h14.195V7.332H8.9V17.189z"/>
	<path fill="#C8C8C8" d="M18.481,12.598c0.682,1.917-5.747,4.169-5.747,4.169s5.799-2.77,4.944-4.806
		c-0.851-2.034,1.688-4.533,1.688-4.533h3.083C22.452,7.429,17.798,10.681,18.481,12.598L18.481,12.598z"/>
	<path fill="none" d="M18.481,12.598c0.682,1.917-5.747,4.169-5.747,4.169s3.799-2.77,2.944-4.806
		c-0.851-2.034,1.688-4.533,1.688-4.533h5.083C22.452,7.429,17.798,10.681,18.481,12.598L18.481,12.598z"/>
	<g>
		<rect x="9.328" y="19.272" fill="#999999" width="3" height="2"/>
		<rect x="9.328" y="25.651" fill="#999999" width="3" height="2"/>
		<rect x="9.328" y="22.462" fill="#999999" width="3" height="2"/>
		<rect x="14.5" y="19.272" fill="#999999" width="3" height="2"/>
		<rect x="14.5" y="25.651" fill="#999999" width="3" height="2"/>
		<rect x="14.5" y="22.462" fill="#999999" width="3" height="2"/>
		<rect x="19.672" y="19.272" fill="#999999" width="3" height="2"/>
		<rect x="19.672" y="25.651" fill="#999999" width="3" height="2"/>
		<rect x="9.328" y="29" fill="#999999" width="3" height="2"/>
		<rect x="14.5" y="29" fill="#999999" width="3" height="2"/>
		<rect x="19.672" y="29" fill="#999999" width="3" height="2"/>
		<rect x="19.672" y="22.462" fill="#999999" width="3" height="2"/>
	</g>
</g>
</svg>
