<?xml version="1.0" encoding="utf-8"?>
<!-- Generator: Adobe Illustrator 14.0.0, SVG Export Plug-In . SVG Version: 6.00 Build 43363)  -->
<!DOCTYPE svg PUBLIC "-//W3C//DTD SVG 1.1//EN" "http://www.w3.org/Graphics/SVG/1.1/DTD/svg11.dtd">
<svg version="1.1" id="Layer_1" xmlns="http://www.w3.org/2000/svg" xmlns:xlink="http://www.w3.org/1999/xlink" x="0px" y="0px"
	 width="32px" height="32px" viewBox="0 0 32 32" enable-background="new 0 0 32 32" xml:space="preserve">
<g>
	<path d="M31.407,16c0,8.51-6.897,15.407-15.407,15.407S0.593,24.51,0.593,16S7.49,0.593,16,0.593S31.407,7.49,31.407,16z"/>
	<path fill="#FFFFFF" d="M16,32C7.178,32,0,24.823,0,16C0,7.178,7.177,0,16,0s16,7.178,16,16C32,24.823,24.822,32,16,32z M16,1.186
		C7.832,1.186,1.186,7.832,1.186,16S7.83,30.815,16,30.815S30.816,24.17,30.816,16S24.17,1.186,16,1.186z M13.487,17.486
		l1.674,0.218c-0.18,1.153-0.65,2.058-1.4,2.71c-0.752,0.653-1.68,0.979-2.775,0.979c-1.374,0-2.48-0.449-3.314-1.35
		c-0.835-0.9-1.253-2.187-1.253-3.864c0-1.084,0.18-2.031,0.54-2.847c0.358-0.813,0.905-1.423,1.64-1.83
		c0.734-0.406,1.534-0.61,2.398-0.61c1.09,0,1.984,0.276,2.678,0.828c0.69,0.558,1.135,1.34,1.33,2.351l-1.655,0.26
		c-0.158-0.676-0.437-1.184-0.837-1.523c-0.4-0.34-0.883-0.51-1.45-0.51c-0.86,0-1.556,0.308-2.09,0.922
		c-0.538,0.613-0.806,1.586-0.806,2.917c0,1.351,0.26,2.33,0.778,2.94c0.52,0.612,1.194,0.92,2.027,0.92
		c0.67,0,1.227-0.206,1.674-0.617c0.45-0.41,0.733-1.04,0.853-1.89L13.487,17.486z M24.493,17.486l1.674,0.218
		c-0.183,1.153-0.649,2.058-1.405,2.71c-0.755,0.653-1.68,0.979-2.775,0.979c-1.375,0-2.48-0.447-3.317-1.35
		c-0.84-0.897-1.26-2.186-1.26-3.864c0-1.08,0.18-2.029,0.54-2.842c0.359-0.812,0.904-1.424,1.642-1.83
		c0.733-0.407,1.532-0.609,2.397-0.609c1.09,0,1.979,0.274,2.677,0.826c0.696,0.556,1.142,1.335,1.335,2.354l-1.652,0.25
		c-0.16-0.674-0.438-1.18-0.838-1.521c-0.4-0.34-0.887-0.51-1.453-0.51c-0.853,0-1.55,0.306-2.09,0.92
		c-0.535,0.615-0.8,1.588-0.8,2.92c0,1.351,0.256,2.33,0.774,2.94c0.518,0.61,1.193,0.92,2.024,0.92
		c0.671,0,1.228-0.207,1.677-0.618c0.449-0.41,0.733-1.04,0.854-1.89L24.493,17.486z"/>
</g>
</svg>
