<?xml version="1.0" encoding="utf-8"?>
<!-- Generator: Adobe Illustrator 14.0.0, SVG Export Plug-In . SVG Version: 6.00 Build 43363)  -->
<!DOCTYPE svg PUBLIC "-//W3C//DTD SVG 1.1//EN" "http://www.w3.org/Graphics/SVG/1.1/DTD/svg11.dtd">
<svg version="1.1" id="Layer_1" xmlns="http://www.w3.org/2000/svg" xmlns:xlink="http://www.w3.org/1999/xlink" x="0px" y="0px"
	 width="32px" height="32px" viewBox="0 0 32 32" enable-background="new 0 0 32 32" xml:space="preserve">
<g>
	<path fill="#777777" d="M16,1.143c8.192,0,14.857,6.665,14.857,14.857c0,8.192-6.665,14.857-14.857,14.857
		C7.808,30.857,1.143,24.192,1.143,16C1.143,7.808,7.808,1.143,16,1.143 M16,0C7.162,0,0,7.164,0,16c0,8.835,7.162,16,16,16
		c8.835,0,16-7.165,16-16C32,7.164,24.835,0,16,0z"/>
	<g>
		<path fill="#FFFFFF" d="M16.082,14.58l14.775-4.646V4.571H1.143V9.92L16.082,14.58z M16.082,16.96L1.143,12.302v15.127h29.715
			V12.316L16.082,16.96z"/>
		<path fill="#777777" d="M31.429,28H0.571V11.525l15.51,4.836l15.348-4.823V28L31.429,28z M1.714,26.857h28.572V13.095
			l-14.203,4.463l-0.171-0.052L1.714,13.079V26.857L1.714,26.857z M16.083,15.179L0.571,10.34V4h30.857v6.354L16.083,15.179
			L16.083,15.179z M1.714,9.5l14.367,4.481l14.205-4.466V5.143H1.714V9.5L1.714,9.5z"/>
	</g>
</g>
</svg>
