<?xml version="1.0" encoding="utf-8"?>
<!-- Generator: Adobe Illustrator 14.0.0, SVG Export Plug-In . SVG Version: 6.00 Build 43363)  -->
<!DOCTYPE svg PUBLIC "-//W3C//DTD SVG 1.1//EN" "http://www.w3.org/Graphics/SVG/1.1/DTD/svg11.dtd">
<svg version="1.1" id="Layer_1" xmlns="http://www.w3.org/2000/svg" xmlns:xlink="http://www.w3.org/1999/xlink" x="0px" y="0px"
	 width="32px" height="32px" viewBox="0 0 32 32" enable-background="new 0 0 32 32" xml:space="preserve">
<g>
	<path fill="#CF3E2B" d="M20.623,2h-8.583C6.771,2,4.275,5.077,4.275,8.585c0,3.792,2.547,6.342,6.337,6.342
		c0.15,0,0.307-0.004,0.479-0.01c-0.127,0.722-0.096,1.202,0.025,1.872c0.057,0.316,0.4,0.945,0.885,1.445c-0.09,0-0.493,0-0.584,0
		c-0.246,0.006-0.495,0.011-0.757,0.011c-4.928,0-8.229,3.396-8.229,6.566c0,3.008,3.099,5.188,8.262,5.188
		c4.979,0,9.269-3.758,9.269-6.673c0-2.4-1.098-4.142-2.96-5.481c-1.859-1.34-2.319-1.727-2.319-2.355
		c0-0.828,0.204-1.23,1.563-2.291c1.619-1.266,2.477-2.82,2.477-4.5c0-1.866-0.404-3.698-2.678-5.289h2.896L20.623,2z
		 M17.339,23.995c0,2.724-2.015,3.979-6.103,3.979c-3.174,0-5.632-1.736-5.632-4.145c0-2.299,2.493-4.197,5.827-4.197
		c2.823,0,5.909,2.483,5.909,4.358V23.995z M14.089,12.979c-0.575,0.539-1.337,0.779-2.199,0.697l-0.11-0.013
		c-2.303-0.292-4.111-2.65-4.208-5.483c-0.058-1.64,0.438-3.08,1.362-3.945c0.64-0.601,1.425-0.874,2.275-0.792l0.094,0.01
		c2.146,0.275,3.848,2.78,3.952,5.831c0.058,1.62-0.356,2.934-1.166,3.692V12.979z M26.319,13.646v-3.25h-1.87v3.25h-3.25v1.87h3.25
		v3.25h1.87v-3.25h3.25v-1.87H26.319z"/>
</g>
</svg>
