<?xml version="1.0" encoding="utf-8"?>
<!-- Generator: Adobe Illustrator 14.0.0, SVG Export Plug-In . SVG Version: 6.00 Build 43363)  -->
<!DOCTYPE svg PUBLIC "-//W3C//DTD SVG 1.1//EN" "http://www.w3.org/Graphics/SVG/1.1/DTD/svg11.dtd">
<svg version="1.1" id="Layer_1" xmlns="http://www.w3.org/2000/svg" xmlns:xlink="http://www.w3.org/1999/xlink" x="0px" y="0px"
	 width="159.083px" height="32px" viewBox="0 0 159.083 32" enable-background="new 0 0 159.083 32" xml:space="preserve">
<g>
	<circle fill="#188040" cx="16" cy="16" r="14"/>
	<circle fill="#18B24B" cx="15.999" cy="14.717" r="12.449"/>
</g>
<g>
	<polygon fill="#188040" points="79.158,30 94,2 91.232,2 77.115,23.352 73.542,17.506 66,17.506 73.788,30 	"/>
	<polygon fill="#18B24B" points="79.186,29.5 93.563,2.375 90.881,2.375 77.205,23.059 73.743,17.396 66.438,17.396 73.982,29.5 	
		"/>
</g>
<g>
	<polygon fill="#96281F" points="158,4.478 154.02,2.683 144.314,13.125 135.582,3.234 130,4.577 141.11,16.572 130,28.526 
		135.582,29.869 144.29,20.005 152.917,29.317 158,28.626 147.34,16.552 	"/>
	<polygon fill="#DA2626" points="158,3.926 154.02,2.131 144.314,12.573 135.582,2.683 130,4.025 141.11,16.021 130,27.975 
		135.582,29.317 144.29,19.453 152.917,28.766 158,28.074 147.34,16 	"/>
</g>
</svg>
