<?xml version="1.0" encoding="utf-8"?>
<!-- Generator: Adobe Illustrator 14.0.0, SVG Export Plug-In . SVG Version: 6.00 Build 43363)  -->
<!DOCTYPE svg PUBLIC "-//W3C//DTD SVG 1.1//EN" "http://www.w3.org/Graphics/SVG/1.1/DTD/svg11.dtd">
<svg version="1.1" id="Layer_1" xmlns="http://www.w3.org/2000/svg" xmlns:xlink="http://www.w3.org/1999/xlink" x="0px" y="0px"
	 width="32px" height="32px" viewBox="0 0 32 32" enable-background="new 0 0 32 32" xml:space="preserve">
<g>
	<path fill="#EFC825" d="M5.904,27.2L3.656,2h24.688l-2.25,25.196L15.988,30L5.904,27.2z"/>
	<path fill="#F9E034" d="M16.002,27.858l8.169-2.266l1.923-21.531H16.002V27.858z"/>
	<path fill="#EBEBEB" d="M11.798,7.151v14.026l-2.482-0.671l-0.221-2.46H5.992l0.433,4.853l8.619,2.498V7.155L11.798,7.151z"/>
	<path fill="#FFFFFF" d="M24.207,10.242l0.274-3.091h-7.896v10.087h3.807l-0.358,4.01l-3.447,0.928v3.217l6.335-1.757l0.047-0.521
		l0.805-8.969h-3.886l0.077-3.902L24.207,10.242z"/>
</g>
</svg>
