<?xml version="1.0" encoding="utf-8"?>
<!-- Generator: Adobe Illustrator 14.0.0, SVG Export Plug-In . SVG Version: 6.00 Build 43363)  -->
<!DOCTYPE svg PUBLIC "-//W3C//DTD SVG 1.1//EN" "http://www.w3.org/Graphics/SVG/1.1/DTD/svg11.dtd">
<svg version="1.1" id="Layer_1" xmlns="http://www.w3.org/2000/svg" xmlns:xlink="http://www.w3.org/1999/xlink" x="0px" y="0px"
	 width="32px" height="32px" viewBox="0 0 32 32" enable-background="new 0 0 32 32" xml:space="preserve">
<g>
	<path fill="#C8C8C8" d="M30.329,28h-28l1.779-3.998H28.55L30.329,28z"/>
	<path fill="#999999" d="M30.329,28h-28v1.22h28V28z"/>
	<path fill="#B4B4B4" d="M26.81,5.485c-1.522,0-19.487,0-21.009,0c-1.784,0-1.723-0.041-1.723,1.6c0,0.241,0,16.917,0,16.917h24.456
		c0,0,0-16.676,0-16.917C28.534,5.445,28.595,5.485,26.81,5.485z"/>
	<g>
		<path fill="#FFFFFF" d="M27.576,22.978H4.93V6.754h22.646V22.978z"/>
	</g>
	<path fill="#C8C8C8" d="M20.321,13.09c0.45,2.679-3.255,6.38-3.255,6.38s2.507-3.881,1.944-6.733
		c-0.563-2.852,0.994-5.984,0.994-5.984h2.817c-0.004,0-2.416,4.191-1.963,6.875L20.321,13.09z"/>
</g>
</svg>
