<?xml version="1.0" encoding="utf-8"?>
<!-- Generator: Adobe Illustrator 14.0.0, SVG Export Plug-In . SVG Version: 6.00 Build 43363)  -->
<!DOCTYPE svg PUBLIC "-//W3C//DTD SVG 1.1//EN" "http://www.w3.org/Graphics/SVG/1.1/DTD/svg11.dtd">
<svg version="1.1" id="Layer_1" xmlns="http://www.w3.org/2000/svg" xmlns:xlink="http://www.w3.org/1999/xlink" x="0px" y="0px"
	 width="32px" height="32px" viewBox="0 0 32 32" enable-background="new 0 0 32 32" xml:space="preserve">
<g>
	<path fill="#FFFFFF" d="M4.629,31.5c-0.63,0-1.162-0.354-1.162-0.773V12.868c0-0.261,0-0.803,1.409-0.803h0.5v-0.5
		c0-5.877,4.527-10.724,10.307-11.034l0.427-0.023l0.207,0.023c5.779,0.31,10.305,5.157,10.305,11.034v0.5h0.5
		c1.41,0,1.41,0.542,1.41,0.803v17.856c0,0.42-0.532,0.774-1.162,0.774L4.629,31.5L4.629,31.5z M16,4.006
		c-4.096,0-7.185,3.251-7.185,7.563v0.5l0.5,0.027h13.871v-0.5C23.186,7.257,20.097,4.006,16,4.006L16,4.006z"/>
	<path fill="#C8C8C8" d="M15.939,1.011l0.351,0.02c5.515,0.296,9.832,4.923,9.832,10.535v1h1c0.91,0,0.91,0.205,0.91,0.303v17.856
		C28.021,30.789,27.79,31,27.37,31H4.629c-0.419,0-0.648-0.211-0.662-0.273V12.868c0-0.099,0-0.303,0.909-0.303h1v-1
		c0-5.612,4.319-10.239,9.833-10.535L15.939,1.011 M8.315,12.596h1h13.371l1-0.027v-1c0-4.596-3.305-8.063-7.687-8.063
		c-4.381,0-7.685,3.466-7.685,8.063v0.027V12.596 M16.257,0c-0.087,0-0.427,0-0.514,0c-0.029,0-0.058,0.004-0.087,0.004v0.027
		C9.659,0.353,4.877,5.423,4.877,11.565c-0.596,0-1.909,0.058-1.909,1.303v17.856C2.968,31.432,3.711,32,4.629,32H27.37
		c0.919,0,1.662-0.568,1.662-1.273V12.868c0-1.245-1.313-1.303-1.91-1.303c0-6.142-4.78-11.212-10.777-11.534V0.004
		C16.313,0.004,16.285,0,16.257,0L16.257,0z M9.315,11.596c0-0.009,0-0.017,0-0.027c0-4.277,3.038-7.063,6.685-7.063
		s6.687,2.785,6.687,7.063c0,0.01,0,0.018,0,0.027H9.315L9.315,11.596z"/>
</g>
<path fill="#999999" d="M18.053,26h-4.105l0.892-4.35c-0.54-0.359-0.892-0.965-0.892-1.651C13.948,18.895,14.867,18,16,18
	c1.135,0,2.055,0.896,2.055,1.999c0,0.683-0.354,1.292-0.896,1.649L18.053,26z"/>
</svg>
