<?xml version="1.0" encoding="utf-8"?>
<!-- Generator: Adobe Illustrator 14.0.0, SVG Export Plug-In . SVG Version: 6.00 Build 43363)  -->
<!DOCTYPE svg PUBLIC "-//W3C//DTD SVG 1.1//EN" "http://www.w3.org/Graphics/SVG/1.1/DTD/svg11.dtd">
<svg version="1.1" id="Layer_1" xmlns="http://www.w3.org/2000/svg" xmlns:xlink="http://www.w3.org/1999/xlink" x="0px" y="0px"
	 width="32px" height="32px" viewBox="0 0 32 32" enable-background="new 0 0 32 32" xml:space="preserve">
<g>
	<circle fill="#CD1D1F" cx="16" cy="16" r="14"/>
	<path fill="#FFFFFF" d="M10.907,26.359c-5.246-2.324-7.867-8.878-5.741-14.375c2.26-5.84,8.762-8.815,14.618-6.688
		c5.95,2.164,8.988,8.544,6.935,14.577c-1.918,5.628-8.4,8.967-13.839,7.212c0.6-1.814,1.201-3.63,1.79-5.414
		c1.744,1.6,4.063,1.65,6.101,0.1c2.51-1.926,3.623-6.395,2.282-9.268c-1.079-2.313-2.97-3.615-5.446-3.941
		c-3.27-0.431-6.161,0.4-8.19,3.176c-1.457,2-1.763,4.219-0.741,6.536c0.325,0.738,0.878,1.287,1.601,1.651
		c0.42,0.217,0.688,0.118,0.84-0.357c0.2-0.639,0.19-1.161-0.22-1.789c-0.859-1.31-0.62-2.743-0.055-4.101
		c1.348-3.215,5.973-4.35,8.56-2.13c0.854,0.733,1.28,1.686,1.351,2.771c0.109,1.644-0.145,3.234-0.936,4.706
		c-0.474,0.873-1.116,1.555-2.121,1.799c-1.529,0.369-2.659-0.734-2.29-2.259c0.246-1.021,0.565-2.026,0.838-3.045
		c0.07-0.262,0.108-0.537,0.119-0.811c0.034-0.779-0.334-1.439-0.916-1.695c-0.629-0.274-1.454-0.095-1.984,0.484
		c-0.967,1.055-1.017,2.299-0.73,3.629c0.092,0.434,0.105,0.92,0.012,1.353c-0.434,2.021-0.938,4.026-1.371,6.05
		c-0.14,0.62-0.37,1.88-0.471,1.833L10.907,26.359z"/>
</g>
</svg>
