<?xml version="1.0" encoding="utf-8"?>
<!-- Generator: Adobe Illustrator 14.0.0, SVG Export Plug-In . SVG Version: 6.00 Build 43363)  -->
<!DOCTYPE svg PUBLIC "-//W3C//DTD SVG 1.1//EN" "http://www.w3.org/Graphics/SVG/1.1/DTD/svg11.dtd">
<svg version="1.1" id="Layer_1" xmlns="http://www.w3.org/2000/svg" xmlns:xlink="http://www.w3.org/1999/xlink" x="0px" y="0px"
	 width="32px" height="32px" viewBox="0 0 32 32" enable-background="new 0 0 32 32" xml:space="preserve">
<g>
	<path fill="#231F20" d="M28.694,15.767c0,6.997-5.672,12.669-12.672,12.669S3.35,22.765,3.35,15.767
		c0-6.998,5.673-12.674,12.673-12.674S28.694,8.767,28.694,15.767z"/>
	<path fill="#B3B3B3" d="M30.758,15.765c0,8.137-6.598,14.737-14.736,14.737c-8.139,0-14.737-6.598-14.737-14.737
		c0-8.137,6.597-14.737,14.737-14.737S30.758,7.626,30.758,15.765z"/>
	<path fill="#4D4D4D" d="M29.851,15.766c0,7.635-6.191,13.828-13.83,13.828c-7.638,0-13.828-6.192-13.828-13.83
		c0-7.638,6.19-13.828,13.828-13.828C23.659,1.936,29.851,8.126,29.851,15.766z"/>
	<path fill="#FFFFFF" d="M28.694,15.765c0,7-5.672,12.669-12.672,12.669S3.35,22.765,3.35,15.765c0-6.998,5.673-12.67,12.673-12.67
		S28.694,8.765,28.694,15.765z"/>
	<linearGradient id="SVGID_1_" gradientUnits="userSpaceOnUse" x1="14.8276" y1="4.2871" x2="17.2374" y2="27.4487">
		<stop  offset="0.3403" style="stop-color:#003FE7"/>
		<stop  offset="0.7547" style="stop-color:#5FBAE1"/>
	</linearGradient>
	<path fill="url(#SVGID_1_)" d="M27.666,15.766c0,6.408-5.215,11.604-11.645,11.604c-6.43,0-11.644-5.193-11.644-11.604
		c0-6.409,5.214-11.605,11.644-11.605C22.451,4.161,27.666,9.354,27.666,15.766L27.666,15.766z"/>
	<path fill="#4D4D4D" d="M16.021,15.765"/>
	<g>
		<g>
			<polygon fill="#FFFFFF" points="14.736,14.536 7.796,23.99 17.252,17.052 			"/>
			<polygon fill="#E53A00" points="17.252,17.052 17.285,17.027 24.248,7.54 14.76,14.503 14.736,14.536 			"/>
			<polygon opacity="0.2" points="7.832,23.942 7.796,23.99 17.285,17.027 24.248,7.54 24.199,7.575 			"/>
		</g>
		<g>
			<polygon fill="#FFFFFF" points="12.365,15.403 7.127,16.377 12.45,16.625 			"/>
			<polygon fill="#FFFFFF" points="19.678,16.126 24.916,15.152 19.594,14.905 			"/>
			<polygon fill="#FFFFFF" points="16.384,12.108 15.41,6.87 15.163,12.193 			"/>
			<polygon fill="#FFFFFF" points="15.661,19.422 16.635,24.66 16.883,19.338 			"/>
		</g>
	</g>
</g>
</svg>
