<?xml version="1.0" encoding="utf-8"?>
<!-- Generator: Adobe Illustrator 14.0.0, SVG Export Plug-In . SVG Version: 6.00 Build 43363)  -->
<!DOCTYPE svg PUBLIC "-//W3C//DTD SVG 1.1//EN" "http://www.w3.org/Graphics/SVG/1.1/DTD/svg11.dtd">
<svg version="1.1" id="Layer_1" xmlns="http://www.w3.org/2000/svg" xmlns:xlink="http://www.w3.org/1999/xlink" x="0px" y="0px"
	 width="32px" height="32px" viewBox="0 0 32 32" enable-background="new 0 0 32 32" xml:space="preserve">
<path fill="#777777" d="M21.695,19.13c3.287-4.723,2.891-11.34-1.217-15.59c-4.564-4.72-11.958-4.72-16.521,0
	c-4.564,4.72-4.564,12.373,0,17.092c4.106,4.25,10.502,4.66,15.067,1.263L28.795,32c0,0,0.783-0.163,1.706-1.117
	c0.931-0.957,0.97-1.645,0.97-1.645L21.7,19.13H21.695z"/>
<path fill="#FFFFFF" d="M19.518,4.532c4.034,4.172,4.037,10.938,0.004,15.11c-4.035,4.172-10.571,4.172-14.605,0
	c-4.03-4.175-4.03-10.94,0-15.108C8.948,0.36,15.486,0.36,19.518,4.532z"/>
<path fill="#E6E6E6" d="M17.917,3.76c3.058,3.163,3.056,8.295-0.002,11.46c-3.06,3.162-8.018,3.162-11.075,0
	C3.78,12.055,3.78,6.923,6.837,3.76C9.897,0.596,14.857,0.596,17.917,3.76z"/>
</svg>
