<?xml version="1.0" encoding="utf-8"?>
<!-- Generator: Adobe Illustrator 14.0.0, SVG Export Plug-In . SVG Version: 6.00 Build 43363)  -->
<!DOCTYPE svg PUBLIC "-//W3C//DTD SVG 1.1//EN" "http://www.w3.org/Graphics/SVG/1.1/DTD/svg11.dtd">
<svg version="1.1" id="Layer_1" xmlns="http://www.w3.org/2000/svg" xmlns:xlink="http://www.w3.org/1999/xlink" x="0px" y="0px"
	 width="32px" height="32px" viewBox="0 0 32 32" enable-background="new 0 0 32 32" xml:space="preserve">
<g>
	<path fill="#73CFEF" d="M28.668,17.803c0.078-0.568,0.122-1.146,0.122-1.735c0-7.064-5.757-12.791-12.856-12.791
		c-0.706,0-1.396,0.058-2.071,0.169c-1.207-0.788-2.645-1.245-4.189-1.245C5.434,2.201,2,5.636,2,9.874
		c0,1.542,0.455,2.974,1.236,4.177c-0.105,0.657-0.16,1.331-0.16,2.016c0,7.063,5.755,12.791,12.855,12.791
		c0.803,0,1.582-0.077,2.34-0.215c1.18,0.73,2.567,1.155,4.056,1.155c4.238,0,7.672-3.437,7.672-7.674
		C30,20.523,29.511,19.034,28.668,17.803z"/>
	<path opacity="0.3" enable-background="new    " d="M28.668,17.803c0.078-0.568,0.122-1.146,0.122-1.735
		c0-3.662-1.554-6.954-4.034-9.286c2.162,2.29,3.496,5.359,3.496,8.747c0,0.589-0.045,1.167-0.123,1.735
		c0.845,1.231,1.331,2.721,1.331,4.322c0,4.238-3.434,7.675-7.672,7.675c-1.486,0-2.875-0.425-4.055-1.155
		c-0.758,0.137-1.538,0.215-2.34,0.215c-3.421,0-6.52-1.338-8.821-3.504c2.344,2.481,5.667,4.043,9.361,4.043
		c0.803,0,1.582-0.077,2.34-0.215c1.18,0.73,2.567,1.155,4.056,1.155c4.238,0,7.672-3.436,7.672-7.674
		C30,20.523,29.511,19.034,28.668,17.803z"/>
	<path opacity="0.3" enable-background="new    " d="M3.886,16.605c0-0.686,0.055-1.358,0.159-2.016
		c-0.781-1.202-1.236-2.635-1.236-4.177c0-4.238,3.434-7.672,7.672-7.672c1.546,0,2.981,0.458,4.189,1.244
		c0.675-0.11,1.365-0.168,2.07-0.168c2.476,0,4.78,0.708,6.741,1.914c-2.121-1.535-4.726-2.454-7.55-2.454
		c-0.706,0-1.396,0.058-2.071,0.169c-1.207-0.788-2.645-1.245-4.189-1.245C5.434,2.201,2,5.636,2,9.874
		c0,1.542,0.455,2.974,1.236,4.177c-0.105,0.657-0.16,1.331-0.16,2.016c0,4.601,2.449,8.625,6.114,10.875
		C5.982,24.619,3.886,20.859,3.886,16.605z"/>
	<g>
		<path opacity="0.3" enable-background="new    " d="M16.008,26.602c-3.215,0-5.348-0.771-7.358-2.656
			c-1.304-1.227-1.798-2.752-1.322-4.082c0.373-1.045,1.297-1.74,2.41-1.814c1.616-0.107,2.653,1.044,3.407,1.871
			c0.229,0.251,0.489,0.536,0.635,0.627c0.348,0.219,1.487,0.694,2.603,0.694c0.798,0,1.387-0.23,1.801-0.703
			c0.255-0.292,0.317-0.487,0.298-0.542c-0.122-0.332-1.206-0.954-3.146-1.238c-3.894-0.576-8.303-2.716-7.923-6.847
			c0.33-3.576,2.942-6.105,6.655-6.441c3.587-0.329,6.143,0.411,8.386,2.324c1.825,1.557,1.59,3.163,1.403,3.781
			c-0.328,1.087-1.271,1.905-2.347,2.035l-0.229,0.014l0,0c-0.928,0-1.669-0.641-2.454-1.321c-0.887-0.768-1.891-1.637-3.192-1.658
			c-0.001,0-0.001,0-0.001,0c-1.375,0-2.189,0.785-2.238,1.189c-0.025,0.21,0.372,0.526,1.182,0.723
			c0.516,0.125,1.038,0.24,1.558,0.355c3.373,0.744,6.863,1.512,8.313,4.943c0.672,1.593,0.498,3.338-0.489,4.914
			c-1.357,2.166-4.013,3.657-6.765,3.801C16.777,26.59,16.383,26.602,16.008,26.602L16.008,26.602z"/>
		<path fill="#FFFFFF" d="M14.163,6.003c3.503-0.319,5.786,0.531,7.59,2.071c2.085,1.778,0.957,3.767-0.373,3.928
			c-1.321,0.159-2.81-2.927-5.729-2.973c-3.011-0.047-5.044,3.132-1.329,4.036c3.717,0.902,7.697,1.273,9.131,4.671
			c1.436,3.396-2.229,7.007-6.316,7.22c-4.088,0.212-5.998-0.69-7.75-2.335c-1.955-1.836-1.17-3.93,0.423-4.036
			c1.592-0.106,2.549,1.806,3.399,2.337c0.85,0.53,4.078,1.737,5.784-0.214c1.858-2.123-1.234-3.222-3.503-3.556
			c-3.237-0.479-7.324-2.229-7.006-5.681C8.802,8.021,11.414,6.252,14.163,6.003z"/>
	</g>
</g>
</svg>
