<?xml version="1.0" encoding="utf-8"?>
<!-- Generator: Adobe Illustrator 14.0.0, SVG Export Plug-In . SVG Version: 6.00 Build 43363)  -->
<!DOCTYPE svg PUBLIC "-//W3C//DTD SVG 1.1//EN" "http://www.w3.org/Graphics/SVG/1.1/DTD/svg11.dtd">
<svg version="1.1" id="Layer_1" xmlns="http://www.w3.org/2000/svg" xmlns:xlink="http://www.w3.org/1999/xlink" x="0px" y="0px"
	 width="32px" height="32px" viewBox="0 0 32 32" enable-background="new 0 0 32 32" xml:space="preserve">
<g>
	<path fill="#0000FF" d="M15.13,22.465c0.082-2.449-1.985-4.555-4.608-4.689l-0.987-0.054c-0.953-0.054-1.759-0.84-1.759-1.73
		c0-0.857,0.796-1.593,1.722-1.593h6.491c0.926,0,1.643,0.793,1.643,1.723v5.967c0,2.642,2.15,4.791,4.793,4.791h0.785
		c2.641,0,4.791-2.149,4.791-4.791V2.035C27.883,2.028,27.773,2,27.656,2h-2.768v20.091c0,0.929-0.754,1.683-1.682,1.683h-0.783
		c-0.926,0-1.682-0.754-1.682-1.681v-5.969c0-2.642-2.15-4.793-4.794-4.793H9.464c-2.641,0-4.792,2.094-4.792,4.666
		c0,2.53,2.11,4.697,4.706,4.831l0.988,0.055c0.926,0.048,1.687,0.724,1.662,1.48c-0.025,0.764-0.839,1.41-1.782,1.41H0v3.111
		h10.239c2.617,0,4.809-1.989,4.891-4.425V22.465z"/>
	<path fill="#84C341" d="M15.13,20.466c0.082-2.449-1.985-4.554-4.608-4.689l-0.987-0.054c-0.953-0.045-1.758-0.836-1.758-1.725
		c0-0.856,0.793-1.593,1.722-1.593h6.484c0.926,0,1.645,0.793,1.645,1.723v5.967c0,2.643,2.148,4.792,4.791,4.792h0.785
		c2.641,0,4.791-2.149,4.791-4.792V0.035C27.879,0.028,27.77,0,27.65,0h-2.768v20.094c0,0.926-0.754,1.681-1.682,1.681h-0.783
		c-0.926,0-1.684-0.755-1.684-1.681v-5.967c0-2.645-2.148-4.795-4.793-4.795H9.459c-2.642,0-4.793,2.095-4.793,4.666
		c0,2.53,2.112,4.698,4.708,4.833l0.987,0.054c0.926,0.047,1.687,0.724,1.663,1.479c-0.025,0.765-0.84,1.411-1.781,1.411H0v3.11
		h10.239C12.856,24.885,15.048,22.901,15.13,20.466z"/>
	<path fill="#FFFFFF" d="M22.418,25.615c-2.494,0-4.523-2.029-4.523-4.522v-5.967c0-1.099-0.857-1.992-1.912-1.992H9.497
		c-1.077,0-1.989,0.854-1.989,1.862c0,1.027,0.922,1.941,2.013,1.996l0.987,0.054c2.477,0.13,4.426,2.11,4.35,4.415
		c-0.075,2.292-2.153,4.155-4.619,4.155H0.269v-2.574h9.97c1.083,0,2.021-0.765,2.052-1.672c0.03-0.896-0.849-1.701-1.917-1.758
		l-0.987-0.054c-2.455-0.125-4.452-2.173-4.452-4.562c0-2.423,2.029-4.396,4.524-4.396h6.484c2.495,0,4.526,2.03,4.526,4.525v5.967
		c0,1.069,0.875,1.948,1.951,1.948h0.783c1.076,0,1.951-0.879,1.951-1.948V1.271h2.498c0.023,0,0.051,0,0.076,0.003v19.819
		c0,2.493-2.031,4.522-4.525,4.522H22.418z"/>
	<path fill="#666666" d="M27.457,1.54v19.553c0,2.345-1.908,4.254-4.254,4.254h-0.785c-2.346,0-4.254-1.909-4.254-4.254v-5.967
		c0-1.247-0.979-2.261-2.182-2.261H9.497c-1.224,0-2.259,0.976-2.259,2.131c0,1.163,1.039,2.201,2.269,2.263l0.98,0.055
		c2.333,0.117,4.171,1.975,4.099,4.134c-0.072,2.148-2.024,3.898-4.35,3.898H0.539v-2.035h9.701c1.245,0,2.286-0.867,2.32-1.931
		c0.035-1.058-0.939-1.971-2.171-2.035L9.4,19.292c-2.315-0.119-4.196-2.046-4.196-4.296c0-2.274,1.909-4.126,4.255-4.126h6.484
		c2.346,0,4.256,1.909,4.256,4.256v5.967c0,1.217,0.994,2.218,2.221,2.218h0.783c1.225,0,2.223-1.001,2.223-2.218V1.54H27.457
		 M27.65,1.002h-2.766v20.091c0,0.929-0.754,1.681-1.684,1.681h-0.785c-0.926,0-1.68-0.751-1.68-1.681v-5.967
		c0-2.644-2.154-4.794-4.802-4.794h-6.48c-2.642,0-4.793,2.094-4.793,4.666c0,2.531,2.112,4.695,4.708,4.824l0.987,0.054
		c0.926,0.05,1.687,0.726,1.663,1.481c-0.024,0.765-0.84,1.41-1.78,1.41H0v3.112h10.239c2.617,0,4.809-1.98,4.891-4.418
		c0.082-2.45-1.985-4.555-4.608-4.689l-0.987-0.055c-0.953-0.047-1.759-0.836-1.759-1.723c0-0.858,0.796-1.593,1.722-1.593h6.491
		c0.926,0,1.643,0.791,1.643,1.722v5.965c0,2.644,2.15,4.791,4.793,4.791h0.785c2.643,0,4.791-2.147,4.791-4.791V1.036
		C27.885,1.028,27.773,1,27.656,1L27.65,1.002z"/>
</g>
</svg>
