<?xml version="1.0" encoding="utf-8"?>
<!-- Generator: Adobe Illustrator 14.0.0, SVG Export Plug-In . SVG Version: 6.00 Build 43363)  -->
<!DOCTYPE svg PUBLIC "-//W3C//DTD SVG 1.1//EN" "http://www.w3.org/Graphics/SVG/1.1/DTD/svg11.dtd">
<svg version="1.1" id="Layer_1" xmlns="http://www.w3.org/2000/svg" xmlns:xlink="http://www.w3.org/1999/xlink" x="0px" y="0px"
	 width="32px" height="32px" viewBox="0 0 32 32" enable-background="new 0 0 32 32" xml:space="preserve">
<g>
	<path fill="#2AA9E0" d="M15.97,29.5c-5.889,0-10.681-5.175-10.681-11.535V5.547C5.29,3.867,6.64,2.5,8.3,2.5
		c1.629,0,2.908,1.339,2.91,3.048v3.959h12.491c1.659,0,3.01,1.347,3.01,3.003s-1.352,3.002-3.013,3.002h-12.49v2.453
		c0,2.959,2.279,5.555,4.878,5.555h7.7c1.667,0,2.924,1.272,2.924,2.961c0,1.665-1.363,3.02-3.04,3.02H15.97z"/>
	<path fill="#FFFFFF" d="M8.3,3c1.35,0,2.408,1.119,2.41,2.547v3.46v1h1h11.991c1.384,0,2.51,1.123,2.51,2.503
		s-1.127,2.502-2.513,2.502h-11.99h-1v1v1.953c0,3.226,2.513,6.055,5.378,6.055h7.7c1.382,0,2.424,1.058,2.424,2.461
		c0,1.39-1.14,2.52-2.54,2.52H15.97C10.357,29,5.79,24.05,5.79,17.965V5.547C5.79,4.143,6.916,3,8.3,3 M8.3,2
		C6.36,2,4.79,3.59,4.79,5.547v12.418C4.79,24.615,9.79,30,15.97,30h7.699c1.939,0,3.54-1.563,3.54-3.52
		c0-1.961-1.48-3.461-3.424-3.461h-7.7c-2.268,0-4.378-2.36-4.378-5.055v-1.953h11.99c1.94,0,3.513-1.568,3.513-3.502
		c0-1.935-1.569-3.503-3.51-3.503H11.71v-3.46C11.707,3.59,10.24,2,8.3,2L8.3,2z"/>
</g>
</svg>
