<?xml version="1.0" encoding="utf-8"?>
<!-- Generator: Adobe Illustrator 14.0.0, SVG Export Plug-In . SVG Version: 6.00 Build 43363)  -->
<!DOCTYPE svg PUBLIC "-//W3C//DTD SVG 1.1//EN" "http://www.w3.org/Graphics/SVG/1.1/DTD/svg11.dtd">
<svg version="1.1" id="Layer_1" xmlns="http://www.w3.org/2000/svg" xmlns:xlink="http://www.w3.org/1999/xlink" x="0px" y="0px"
	 width="32px" height="32px" viewBox="0 0 32 32" enable-background="new 0 0 32 32" xml:space="preserve">
<g>
	<g>
		<path fill="#2B76AD" d="M17.344,23.31c-0.875,0-1.651-0.288-2.308-0.856c-0.645-0.553-1.107-1.281-1.411-2.227
			c-0.067-0.208,0.036-0.432,0.237-0.517l1.37-0.575c0.052-0.022,0.108-0.033,0.163-0.033c0.056,0,0.112,0.012,0.165,0.033
			c0.104,0.045,0.187,0.129,0.228,0.235c0.176,0.452,0.408,0.813,0.689,1.07c0.249,0.225,0.538,0.335,0.881,0.335
			c0.201,0,0.507-0.062,0.832-0.592c0.28-0.459,0.422-1.028,0.422-1.689c0-0.801-0.174-1.565-0.433-1.903
			c-0.305-0.4-0.822-0.877-1.558-0.877h-1.152c-0.232,0-0.42-0.188-0.42-0.42v-0.314c0-0.083,0.024-0.164,0.07-0.232l2.399-3.625
			h-1.89l-3.358,11.171c-0.053,0.178-0.217,0.3-0.403,0.3h-0.167c-0.187,0-0.35-0.123-0.403-0.302l-2.107-7.125l-2.11,7.122
			c-0.053,0.179-0.217,0.301-0.403,0.301H6.508c-0.185,0-0.348-0.12-0.402-0.296L2.088,9.292c-0.04-0.127-0.016-0.266,0.063-0.374
			c0.08-0.107,0.205-0.171,0.338-0.171h1.757c0.187,0,0.352,0.124,0.403,0.303l2.026,6.959l1.202-4.115L7.109,9.287
			C7.072,9.16,7.096,9.022,7.176,8.917C7.255,8.81,7.38,8.748,7.512,8.748h1.759c0.202,0,0.372,0.144,0.411,0.334l2.017,6.92
			l2.025-6.947c0.052-0.18,0.217-0.303,0.404-0.303h5.927c0.232,0,0.421,0.188,0.421,0.42v0.854c0,0.065-0.016,0.129-0.045,0.188
			l-1.942,3.892c0.854,0.361,1.524,0.902,1.915,1.555c0.538,0.896,0.812,1.85,0.812,2.834c0,1.386-0.337,2.493-1.029,3.384
			C19.46,22.827,18.502,23.31,17.344,23.31L17.344,23.31z"/>
		<path fill="#FFFFFF" d="M9.272,9.168v0.004l2.428,8.332l2.429-8.332h5.927v0.854l-2.15,4.31c0.87,0.283,1.693,0.797,2.138,1.541
			c0.448,0.744,0.753,1.618,0.753,2.618c0,1.242-0.285,2.281-0.941,3.126c-0.65,0.848-1.477,1.268-2.512,1.268
			c-0.784,0-1.454-0.253-2.033-0.754c-0.585-0.501-1.009-1.178-1.286-2.037l1.37-0.575c0.202,0.521,0.47,0.929,0.798,1.229
			c0.329,0.297,0.717,0.444,1.165,0.444c0.472,0,0.865-0.263,1.189-0.791c0.323-0.529,0.485-1.168,0.485-1.91
			c0-0.821-0.175-1.708-0.52-2.159c-0.403-0.53-1.033-1.042-1.892-1.042h-1.152v-0.314l2.831-4.277h-2.83l-0.159,0.014
			l-3.444,11.457h-0.167l-2.51-8.486L6.675,22.17H6.508L2.489,9.168h1.757l2.429,8.344l1.64-5.617L7.512,9.168H9.272 M9.272,8.327
			H7.512c-0.265,0-0.515,0.125-0.673,0.337C6.68,8.876,6.631,9.151,6.706,9.406l0.733,2.49l-0.763,2.612L5.053,8.934
			C4.948,8.574,4.62,8.327,4.246,8.327H2.489c-0.267,0-0.518,0.127-0.677,0.342C1.654,8.884,1.607,9.161,1.686,9.417l4.018,13.001
			c0.109,0.352,0.435,0.593,0.804,0.593h0.167c0.372,0,0.7-0.245,0.806-0.603l1.707-5.76l1.705,5.763
			c0.106,0.358,0.434,0.603,0.807,0.603h0.167c0.371,0,0.699-0.243,0.805-0.599l0.588-1.953c0.326,0.958,0.831,1.735,1.504,2.313
			c0.732,0.633,1.602,0.955,2.58,0.955c1.296,0,2.365-0.537,3.179-1.597c0.75-0.964,1.115-2.155,1.115-3.638
			c0-1.063-0.293-2.088-0.872-3.051c-0.371-0.62-0.962-1.147-1.707-1.535l1.75-3.507c0.059-0.117,0.089-0.246,0.089-0.375V9.172
			c0-0.464-0.376-0.841-0.841-0.841h-5.927c-0.374,0-0.703,0.247-0.808,0.605L11.7,14.5l-1.615-5.542
			C9.99,8.596,9.662,8.327,9.272,8.327L9.272,8.327z M15.94,11.543h0.795l-1.456,2.198L15.94,11.543L15.94,11.543z M13.584,19.382
			l1.122-3.733c0.134,0.287,0.425,0.486,0.763,0.486h1.152c0.563,0,0.977,0.386,1.223,0.71c0.169,0.221,0.347,0.872,0.347,1.649
			c0,0.584-0.121,1.079-0.361,1.472c-0.237,0.389-0.407,0.389-0.472,0.389c-0.241,0-0.426-0.07-0.601-0.228
			c-0.23-0.211-0.426-0.518-0.578-0.909c-0.083-0.212-0.247-0.382-0.456-0.47c-0.104-0.045-0.217-0.067-0.329-0.067
			c-0.111,0-0.222,0.022-0.326,0.066l-1.37,0.575C13.658,19.34,13.62,19.359,13.584,19.382L13.584,19.382z"/>
	</g>
	<g>
		<g>
			<path fill="#2B76AD" d="M25.511,23.354c-2.842,0-4.269-2.959-4.269-4.615c0-0.207,0.15-0.383,0.354-0.415
				c0.022-0.004,0.045-0.005,0.066-0.005c0.18,0,0.342,0.114,0.399,0.289c0.544,1.667,1.785,2.622,3.405,2.622
				c1.584,0,2.905-2.565,2.959-2.669c0.067-0.146,0.217-0.242,0.38-0.242c0.016,0,0.032,0.001,0.048,0.003
				c0.212,0.024,0.372,0.204,0.372,0.418v1.969c0,0.08-0.022,0.158-0.065,0.226C29.099,21.034,27.601,23.354,25.511,23.354
				L25.511,23.354z"/>
			<path fill="#FFFFFF" d="M21.664,18.739c0.566,1.735,1.902,2.911,3.805,2.911c1.905,0,3.338-2.907,3.339-2.91v1.969
				c0,0-1.413,2.226-3.296,2.226C22.986,22.935,21.664,20.237,21.664,18.739 M28.807,18.74L28.807,18.74 M21.665,17.898
				c-0.045,0-0.089,0.003-0.134,0.011c-0.408,0.064-0.708,0.417-0.708,0.83c0,1.808,1.566,5.036,4.688,5.036
				c2.318,0,3.938-2.509,4.005-2.615c0.087-0.135,0.132-0.291,0.132-0.451V18.74c0-0.427-0.32-0.787-0.744-0.835
				c-0.033-0.004-0.065-0.006-0.098-0.006c-0.327,0-0.622,0.19-0.76,0.481c-0.318,0.641-1.457,2.429-2.578,2.429
				c-1.953,0-2.721-1.461-3.006-2.331C22.348,18.129,22.022,17.898,21.665,17.898L21.665,17.898z"/>
		</g>
		<g>
			<path fill="#2B76AD" d="M22.661,16.673c-0.161,0-0.314-0.094-0.383-0.248c-0.481-1.072-0.639-2.626-0.398-3.959
				c0.307-1.711,1.222-2.988,2.574-3.595c0.322-0.144,0.644-0.217,0.958-0.217c1.203,0,1.986,1.037,2.393,1.777l0.556-0.847
				c0.078-0.121,0.212-0.19,0.351-0.19c0.041,0,0.081,0.006,0.12,0.018c0.179,0.053,0.301,0.217,0.301,0.403v1.693
				c0,0.077-0.021,0.152-0.061,0.219l-0.735,1.209c-0.076,0.125-0.213,0.202-0.359,0.202l0,0c-0.153,0-0.297-0.086-0.37-0.221
				c-0.335-0.611-1.194-1.767-2.05-1.767c-0.128,0-0.251,0.025-0.376,0.076c-1.21,0.494-2.393,2.774-2.102,4.973
				c0.026,0.207-0.103,0.403-0.303,0.459C22.738,16.668,22.699,16.673,22.661,16.673L22.661,16.673z"/>
			<path fill="#FFFFFF" d="M25.412,9.074c1.553,0,2.328,2.222,2.328,2.222l0.971-1.482v1.693l-0.734,1.21l0,0
				c-0.001,0-1.063-1.989-2.42-1.988c-0.174,0-0.352,0.032-0.534,0.106c-1.37,0.559-2.677,3.029-2.361,5.418
				c-0.816-1.819-0.819-5.75,1.966-6.999C24.907,9.128,25.17,9.074,25.412,9.074 M25.412,8.233v0.841V8.233
				c-0.373,0-0.753,0.085-1.129,0.253c-1.484,0.666-2.484,2.052-2.817,3.905c-0.258,1.433-0.093,3.044,0.429,4.206
				c0.139,0.308,0.442,0.496,0.767,0.496c0.077,0,0.154-0.011,0.23-0.032c0.401-0.114,0.658-0.505,0.604-0.919
				c-0.274-2.078,0.911-4.148,1.845-4.529c0.072-0.029,0.145-0.044,0.217-0.044c0.573,0,1.328,0.906,1.681,1.549
				c0.147,0.27,0.432,0.439,0.739,0.439c0.294,0,0.565-0.153,0.719-0.404l0.734-1.21c0.081-0.131,0.123-0.282,0.123-0.437V9.814
				c0-0.372-0.244-0.7-0.601-0.806c-0.08-0.023-0.161-0.035-0.241-0.035c-0.278,0-0.545,0.138-0.703,0.38l-0.199,0.303
				C27.301,8.95,26.512,8.233,25.412,8.233L25.412,8.233z"/>
		</g>
	</g>
</g>
</svg>
