<?xml version="1.0" encoding="utf-8"?>
<!-- Generator: Adobe Illustrator 14.0.0, SVG Export Plug-In . SVG Version: 6.00 Build 43363)  -->
<!DOCTYPE svg PUBLIC "-//W3C//DTD SVG 1.1//EN" "http://www.w3.org/Graphics/SVG/1.1/DTD/svg11.dtd">
<svg version="1.1" id="Layer_1" xmlns="http://www.w3.org/2000/svg" xmlns:xlink="http://www.w3.org/1999/xlink" x="0px" y="0px"
	 width="32px" height="32px" viewBox="0 0 32 32" enable-background="new 0 0 32 32" xml:space="preserve">
<circle fill="#FFFFFF" cx="16" cy="16" r="14"/>
<path fill="#16638A" d="M16,2.933C8.784,2.933,2.933,8.782,2.933,16c0,7.214,5.851,13.066,13.066,13.066
	c7.214,0,13.066-5.853,13.066-13.066C29.066,8.782,23.214,2.933,16,2.933z M3.94,16L3.94,16c-0.001-1.75,0.375-3.41,1.045-4.908
	l5.752,15.76C6.714,24.897,3.94,20.771,3.94,16z M16,28.061c-1.185,0-2.327-0.174-3.408-0.492l3.62-10.515l3.706,10.156
	c0.024,0.058,0.054,0.114,0.085,0.163C18.753,27.818,17.406,28.061,16,28.061z M17.661,10.345c0.729-0.037,1.381-0.115,1.381-0.115
	c0.649-0.078,0.572-1.034-0.077-0.997c0,0-1.954,0.155-3.214,0.155c-1.186,0-3.176-0.155-3.176-0.155
	c-0.651-0.038-0.727,0.954-0.078,0.995c0,0,0.615,0.079,1.265,0.115l1.879,5.15l-2.638,7.914L8.611,10.345
	c0.727-0.037,1.381-0.114,1.381-0.114c0.65-0.079,0.57-1.034-0.078-0.996c0,0-1.951,0.153-3.214,0.153
	c-0.228,0-0.492-0.006-0.774-0.017C8.081,6.1,11.786,3.94,16,3.94c3.142,0,6,1.201,8.144,3.167
	c-0.052-0.003-0.104-0.012-0.156-0.012c-1.186,0-2.024,1.034-2.024,2.141c0,0.996,0.573,1.835,1.184,2.83
	c0.459,0.802,0.998,1.833,0.998,3.326v0.001c0,1.029-0.311,2.327-0.919,3.896l-1.206,4.018L17.661,10.345z M22.064,26.422
	l3.686-10.647c0.686-1.72,0.914-3.097,0.914-4.32c0-0.444-0.029-0.858-0.082-1.241c0.94,1.719,1.478,3.689,1.478,5.787
	C28.059,20.447,25.647,24.332,22.064,26.422z"/>
</svg>
