<?xml version="1.0" encoding="utf-8"?>
<!-- Generator: Adobe Illustrator 14.0.0, SVG Export Plug-In . SVG Version: 6.00 Build 43363)  -->
<!DOCTYPE svg PUBLIC "-//W3C//DTD SVG 1.1//EN" "http://www.w3.org/Graphics/SVG/1.1/DTD/svg11.dtd">
<svg version="1.1" id="Layer_1" xmlns="http://www.w3.org/2000/svg" xmlns:xlink="http://www.w3.org/1999/xlink" x="0px" y="0px"
	 width="32px" height="32px" viewBox="0 0 32 32" enable-background="new 0 0 32 32" xml:space="preserve">
<g>
	<g>
		<path fill="#C8C8C8" d="M6.83,22.048L6.83,22.048l-0.027-0.001h0c-1.173,0-1.439-1.563-1.527-2.077
			c-0.144-1.373-0.031-3.817,0.538-4.728c0.289-0.452,0.731-0.709,1.215-0.709c0.152,0.002,0.355,0.004,6.272,2.427
			c0.639,0.239,1.051,0.911,1.01,1.666c-0.042,0.742-0.491,1.33-1.145,1.497l-0.002-0.008C12.302,20.399,7.165,22.048,6.83,22.048
			L6.83,22.048z"/>
		<path fill="#C8C8C8" d="M14.939,30L14.939,30c-1.345,0-4.248-1.042-5.263-2.068c-1.054-1.042,1.565-4.188,3.948-6.645
			c0.381-0.481,1.181-0.684,1.871-0.419c0.69,0.265,1.11,0.874,1.067,1.551v0.147c-0.039,6.231-0.088,6.376-0.128,6.49
			c-0.178,0.487-0.591,0.818-1.138,0.916C15.188,29.99,15.07,30,14.939,30L14.939,30z"/>
		<path fill="#C8C8C8" d="M22.45,27.985L22.45,27.985c-0.309,0-0.601-0.102-0.843-0.292c-0.084-0.065-0.241-0.188-3.594-5.613
			c-0.381-0.578-0.319-1.366,0.159-1.948c0.451-0.558,1.183-0.779,1.8-0.538l0.499,0.166c5.572,1.854,5.667,1.924,5.776,2.006
			c0.411,0.33,0.594,0.827,0.516,1.374c-0.182,1.255-2.543,4.257-3.715,4.725C22.85,27.943,22.648,27.985,22.45,27.985L22.45,27.985
			z"/>
		<path fill="#C8C8C8" d="M19.161,18.191C19.161,18.191,19.161,18.191,19.161,18.191c-0.548,0-1.071-0.3-1.4-0.803
			c-0.406-0.619-0.389-1.357,0.042-1.88l0.187-0.254c3.601-4.895,3.711-4.967,3.827-5.043c0.413-0.276,0.954-0.306,1.452-0.069
			c1.119,0.548,3.215,3.639,3.35,4.939l0.005,0.042l-0.003,0.07c0.035,0.5-0.187,0.979-0.607,1.263
			c-0.093,0.06-0.257,0.168-6.474,1.685C19.427,18.174,19.295,18.191,19.161,18.191L19.161,18.191z"/>
		<path fill="#C8C8C8" d="M15.022,15.914C15.022,15.914,15.022,15.914,15.022,15.914c-0.654,0-1.264-0.452-1.813-1.342
			c-1.307-2.056-5.593-8.805-5.726-9.078C7.325,4.933,7.476,4.414,7.855,4.02C8.719,3.128,12.571,2,14.263,2
			c0.224,0,0.408,0.019,0.563,0.057c0.557,0.141,0.955,0.514,1.093,1.024c0.082,0.469,0.632,8.632,0.71,10.443
			c0.062,1.281-0.325,2.061-1.152,2.314C15.403,15.861,15.238,15.914,15.022,15.914L15.022,15.914z"/>
	</g>
	<g>
		<path fill="#BE2826" d="M6.222,15.499c-0.439,0.703-0.624,2.919-0.471,4.39c0.173,1.02,0.482,1.676,1.077,1.676
			c0.215,0.012,6.212-1.905,6.218-1.909c0.45-0.114,0.752-0.527,0.782-1.056c0.029-0.541-0.25-1.021-0.711-1.192
			c0,0-5.831-2.388-6.051-2.391C6.729,15.003,6.431,15.173,6.222,15.499"/>
		<path fill="#BE2826" d="M15.978,28.899c0.07-0.204,0.102-6.491,0.103-6.511c0.029-0.462-0.27-0.882-0.759-1.07
			c-0.504-0.193-1.047-0.074-1.351,0.305c0,0-4.891,5.04-3.952,5.969c0.949,0.959,4.106,2.092,5.191,1.905
			C15.587,29.43,15.861,29.217,15.978,28.899"/>
		<path fill="#BE2826" d="M22.87,27.416c1.023-0.409,3.258-3.252,3.416-4.346c0.055-0.38-0.065-0.708-0.327-0.918
			c-0.173-0.129-6.138-2.098-6.161-2.109c-0.43-0.167-0.922-0.012-1.252,0.396c-0.345,0.418-0.396,0.971-0.121,1.388
			c0,0,3.307,5.352,3.48,5.487C22.173,27.524,22.515,27.559,22.87,27.416"/>
		<path fill="#BE2826" d="M25.743,16.056c0.278-0.188,0.419-0.502,0.395-0.885c0-0.012,0.003-0.025,0-0.039
			c-0.117-1.132-2.101-4.075-3.077-4.553c-0.348-0.166-0.693-0.155-0.98,0.038c-0.179,0.116-3.892,5.185-3.905,5.2
			c-0.294,0.357-0.299,0.869-0.011,1.309c0.298,0.454,0.801,0.677,1.261,0.549C19.425,17.673,25.561,16.175,25.743,16.056z"/>
		<path fill="#BE2826" d="M16.147,13.545c-0.079-1.827-0.63-9.96-0.694-10.337c-0.092-0.341-0.36-0.585-0.743-0.682
			c-1.177-0.292-5.674,0.968-6.507,1.828C7.936,4.633,7.836,4.977,7.917,5.282c0.131,0.27,5.703,9.036,5.703,9.036
			c0.823,1.335,1.496,1.128,1.716,1.059C15.555,15.31,16.223,15.102,16.147,13.545"/>
	</g>
</g>
</svg>
