<?xml version="1.0" encoding="utf-8"?>
<!-- Generator: Adobe Illustrator 14.0.0, SVG Export Plug-In . SVG Version: 6.00 Build 43363)  -->
<!DOCTYPE svg PUBLIC "-//W3C//DTD SVG 1.1//EN" "http://www.w3.org/Graphics/SVG/1.1/DTD/svg11.dtd">
<svg version="1.1" id="Layer_1" xmlns="http://www.w3.org/2000/svg" xmlns:xlink="http://www.w3.org/1999/xlink" x="0px" y="0px"
	 width="32px" height="32px" viewBox="0 0 32 32" enable-background="new 0 0 32 32" xml:space="preserve">
<g>
	<path fill="#FFFFFF" d="M28.225,24.335H3.775V7.665h24.45V24.335z"/>
	<path fill="#C8C8C8" d="M28.725,24.835H3.275V7.165h25.45V24.835L28.725,24.835z M4.275,23.835h23.45V8.165H4.275V23.835
		L4.275,23.835z"/>
</g>
<path fill="#777777" d="M6.558,19.782l3.5-4.576c0.354-0.434,0.674-0.803,1.028-1.22v-0.033H6.88V12.83h5.908v0.883l-3.468,4.51
	c-0.338,0.438-0.644,0.838-0.997,1.226v0.028h4.53V20.6H6.557L6.558,19.782L6.558,19.782z M15.888,10.646
	c0,0.48-0.336,0.865-0.897,0.865c-0.51,0-0.85-0.38-0.85-0.86c0-0.483,0.358-0.883,0.888-0.883c0.51,0,0.866,0.385,0.866,0.884
	L15.888,10.646z M14.314,20.6v-7.77h1.413v7.77H14.314z M18.074,15.366c0-0.995-0.03-1.798-0.064-2.537h1.25l0.08,1.33h0.033
	c0.563-0.95,1.493-1.498,2.762-1.498c1.896,0,3.309,1.59,3.309,3.935c0,2.797-1.719,4.174-3.551,4.174
	c-1.025,0-1.926-0.443-2.392-1.22h-0.03v4.228H18.08V15.36L18.074,15.366z M19.468,17.436c0,0.211,0.019,0.404,0.065,0.58
	c0.257,0.98,1.107,1.655,2.119,1.655c1.494,0,2.361-1.22,2.361-3c0-1.54-0.82-2.874-2.313-2.874c-0.966,0-1.88,0.675-2.136,1.736
	c-0.051,0.177-0.103,0.387-0.103,0.563v1.347L19.468,17.436z"/>
<polygon fill="#B4B4B4" points="16,32 28.43,26 3.57,26 "/>
<polygon fill="#B4B4B4" points="3.57,6 28.43,6 16,0 "/>
</svg>
