<svg xmlns="http://www.w3.org/2000/svg" xmlns:xlink="http://www.w3.org/1999/xlink" width="72" height="72" viewBox="0 0 72 72">
    <symbol id="a" viewBox="-50 -50 100.001 100">
        <path fill="#666" d="M0-50c-27.57 0-50 22.43-50 49.999 0 27.57 22.43 50.001 50 50.001s50-22.431 50-50.001c0-27.569-22.431-49.999-50-49.999zm0 96c-25.364 0-46-20.637-46-46.001s20.636-45.999 46-45.999c25.365 0 46 20.635 46 45.999s-20.635 46.001-46 46.001z"/>
    </symbol>
    <symbol id="b" viewBox="-36.5 -36.5 73 73">
        <path fill="#333" stroke="#ccc" d="M36-36h-72v72h72v-72z"/>
        <path fill="#B3B3B3" d="M-24.835-32.344c-.828-.437-1.859-.656-3.094-.656-1.594 0-2.87.513-3.828 1.539s-1.438 2.372-1.438 4.039c0 1.792.539 3.239 1.617 4.344 1.078 1.105 2.445 1.656 4.102 1.656 1.063 0 1.942-.153 2.641-.461v-1.398c-.802.448-1.688.672-2.656.672-1.286 0-2.329-.43-3.129-1.289-.8-.858-1.199-2.008-1.199-3.444 0-1.364.374-2.452 1.121-3.263.747-.81 1.728-1.215 2.941-1.215 1.125 0 2.099.25 2.922.75v-1.274zm10.619 3.211h-5.648c.021-.892.261-1.578.719-2.063.458-.484 1.089-.727 1.891-.727.901 0 1.729.297 2.484.891v-1.203c-.704-.51-1.633-.765-2.79-.765-1.13 0-2.019.363-2.664 1.09-.645.728-.969 1.749-.969 3.066 0 1.245.353 2.259 1.059 3.043.706.784 1.582 1.176 2.629 1.176s1.856-.339 2.43-1.016c.574-.678.859-1.617.859-2.82v-.672zm-1.312 1.086c-.005.739-.184 1.314-.535 1.727s-.84.617-1.465.617c-.604 0-1.117-.216-1.539-.647-.422-.433-.683-.997-.781-1.695l4.32-.002zm6.611-4.766h-1.281v11.845h1.281v-11.845zm5.955 0h-1.281v11.845h1.281v-11.845zm11.143 0h-1.282v1.267h-.031c-.531-.97-1.354-1.454-2.469-1.454-1.906 0-2.859 1.136-2.859 3.406v4.78h1.273v-4.577c0-1.688.646-2.531 1.938-2.531.625 0 1.14.229 1.543.69.403.462.605 1.063.605 1.81v4.608h1.281l.001-7.999zm5.947 0h-1.281v11.845h1.281v-11.845zm10.4 0h-1.281v1.25h-.031c-.558-.958-1.378-1.437-2.461-1.437-.797 0-1.421.211-1.871.633-.45.422-.676.981-.676 1.681 0 1.494.88 2.363 2.641 2.608l2.398.336c0 1.359-.55 2.039-1.648 2.039-.964 0-1.833-.328-2.609-.983v1.313c.786.5 1.692.75 2.719.75 1.88 0 2.82-.995 2.82-2.984l-.001-5.206zm-1.281 4.047l-1.93-.267c-.594-.083-1.042-.229-1.344-.44-.302-.211-.453-.585-.453-1.121 0-.392.14-.71.418-.957s.649-.371 1.113-.371c.636 0 1.16.223 1.574.668s.621 1.009.621 1.69l.001.798zm9.947 2.657c-.224.173-.547.259-.969.259-.547 0-1.004-.259-1.371-.773s-.551-1.219-.551-2.109v-4.077h-1.281v8h1.281v-1.648h.031c.183.563.461 1.001.836 1.316.375.314.794.473 1.258.473.333 0 .589-.036.766-.109v-1.332z"/>
        <use xlink:href="#a" width="100.001" height="100" x="-50" y="-50" transform="matrix(0 .324 -.324 0 .038 15.868)" overflow="visible"/>
        <use xlink:href="#a" width="100.001" height="100" x="-50" y="-50" transform="matrix(0 .324 -.324 0 .038 -.352)" overflow="visible"/>
        <use xlink:href="#a" width="100.001" height="100" x="-50" y="-50" transform="matrix(0 .324 -.324 0 -13.406 7.908)" overflow="visible"/>
        <use xlink:href="#a" width="100.001" height="100" x="-50" y="-50" transform="matrix(0 .324 -.324 0 13.406 7.908)" overflow="visible"/>
    </symbol>
    <path fill="#333" stroke="#ccc" d="M232 442h-72v-72h72v72z"/>
    <path fill="#B3B3B3" d="M171.165 438.344c-.828.438-1.858.656-3.095.656-1.594 0-2.869-.513-3.827-1.539s-1.438-2.372-1.438-4.039c0-1.792.539-3.239 1.617-4.344 1.078-1.105 2.445-1.656 4.102-1.656 1.063 0 1.942.153 2.642.461v1.398c-.802-.448-1.688-.672-2.656-.672-1.286 0-2.329.43-3.129 1.289-.8.858-1.198 2.008-1.198 3.444 0 1.364.373 2.452 1.121 3.263.746.81 1.727 1.215 2.94 1.215 1.125 0 2.099-.25 2.922-.75v1.274zm10.619-3.211h-5.647c.021.892.26 1.578.719 2.063.457.484 1.088.727 1.891.727.9 0 1.729-.297 2.484-.891v1.203c-.705.51-1.633.765-2.791.765-1.129 0-2.019-.363-2.664-1.09-.645-.728-.969-1.749-.969-3.066 0-1.245.354-2.259 1.06-3.043s1.582-1.176 2.629-1.176 1.856.339 2.43 1.016c.574.678.859 1.617.859 2.82v.672zm-1.311-1.086c-.006-.739-.185-1.314-.535-1.727-.352-.412-.84-.617-1.465-.617-.604 0-1.117.216-1.539.647-.422.433-.684.997-.781 1.695l4.32.002zm6.61 4.766h-1.281v-11.845h1.281v11.845zm5.955 0h-1.281v-11.845h1.281v11.845zm11.144 0h-1.283v-1.267h-.03c-.531.969-1.354 1.453-2.47 1.453-1.905 0-2.858-1.136-2.858-3.406v-4.78h1.272v4.577c0 1.688.646 2.531 1.938 2.531.625 0 1.14-.229 1.543-.69.403-.462.604-1.063.604-1.81v-4.608h1.281v8h.003zm5.946 0h-1.28v-11.845h1.28v11.845zm10.399 0h-1.28v-1.25h-.031c-.558.958-1.378 1.437-2.461 1.437-.797 0-1.421-.211-1.871-.633s-.676-.981-.676-1.681c0-1.494.88-2.363 2.642-2.608l2.397-.336c0-1.359-.55-2.039-1.647-2.039-.965 0-1.834.328-2.609.983v-1.313c.785-.5 1.691-.75 2.719-.75 1.88 0 2.82.995 2.82 2.984v5.205h-.003zm-1.28-4.047l-1.931.267c-.594.083-1.041.229-1.344.44-.302.211-.453.585-.453 1.121 0 .392.141.71.418.957.278.247.649.371 1.113.371.637 0 1.16-.223 1.574-.668s.621-1.009.621-1.69l.002-.798zm9.946-2.657c-.223-.173-.547-.259-.969-.259-.547 0-1.004.259-1.371.773s-.551 1.219-.551 2.109v4.077h-1.281v-8h1.281v1.648h.031c.184-.563.461-1.001.836-1.316.375-.314.794-.473 1.258-.473.334 0 .59.036.766.109v1.332z"/>
    <use xlink:href="#a" width="100.001" height="100" x="-50" y="-50" transform="matrix(0 -.324 -.324 0 196.038 390.132)" overflow="visible"/>
    <use xlink:href="#a" width="100.001" height="100" x="-50" y="-50" transform="matrix(0 -.324 -.324 0 196.038 406.352)" overflow="visible"/>
    <use xlink:href="#a" width="100.001" height="100" x="-50" y="-50" transform="matrix(0 -.324 -.324 0 182.594 398.092)" overflow="visible"/>
    <use xlink:href="#a" width="100.001" height="100" x="-50" y="-50" transform="matrix(0 -.324 -.324 0 209.406 398.092)" overflow="visible"/>
    <use xlink:href="#b" width="73" height="73" x="-36.5" y="-36.5" transform="matrix(1 0 0 -1 196 406)" overflow="visible"/>
</svg>