<?xml version="1.0" encoding="utf-8"?>
<!-- Generator: Adobe Illustrator 14.0.0, SVG Export Plug-In . SVG Version: 6.00 Build 43363)  -->
<!DOCTYPE svg PUBLIC "-//W3C//DTD SVG 1.1//EN" "http://www.w3.org/Graphics/SVG/1.1/DTD/svg11.dtd">
<svg version="1.1" id="Layer_1" xmlns="http://www.w3.org/2000/svg" xmlns:xlink="http://www.w3.org/1999/xlink" x="0px" y="0px"
	 width="72px" height="72px" viewBox="0 0 72 72" enable-background="new 0 0 72 72" xml:space="preserve">
<symbol  id="a" viewBox="-50 -50 100 100">
	<path fill="#666666" d="M0-50c-27.57,0-50,22.43-50,50s22.43,50,50,50S50,27.57,50,0S27.57-50,0-50z M0,46
		c-25.364,0-46-20.637-46-46s20.636-46,46-46c25.365,0,46,20.635,46,46S25.365,46,0,46z"/>
</symbol>
<g>
	<g>
		<path fill="#333333" d="M72,72H0V0h72V72z"/>
		<path fill="#CCCCCC" d="M72.5,72.5h-73v-73h73V72.5L72.5,72.5z M0.5,71.5h71v-71h-71V71.5L0.5,71.5z"/>
	</g>
	<g>
		<path fill="#B3B3B3" d="M11.165,68.344C10.337,68.782,9.307,69,8.07,69c-1.594,0-2.87-0.513-3.827-1.54s-1.438-2.37-1.438-4.038
			c0-1.792,0.54-3.24,1.617-4.344c1.078-1.105,2.445-1.656,4.102-1.656c1.063,0,1.942,0.153,2.643,0.46v1.4
			c-0.802-0.45-1.688-0.673-2.656-0.673c-1.285,0-2.33,0.43-3.13,1.279c-0.8,0.86-1.196,2.011-1.196,3.44
			c0,1.362,0.373,2.45,1.119,3.26c0.747,0.811,1.729,1.216,2.94,1.216c1.126,0,2.1-0.25,2.923-0.75v1.272L11.165,68.344z
			 M21.785,65.134h-5.648c0.021,0.891,0.26,1.577,0.721,2.063c0.455,0.483,1.086,0.727,1.89,0.727c0.899,0,1.729-0.297,2.483-0.89
			v1.202C20.531,68.745,19.602,69,18.441,69c-1.131,0-2.021-0.363-2.66-1.09c-0.641-0.729-0.971-1.75-0.971-3.066
			c0-1.245,0.36-2.26,1.061-3.043c0.699-0.783,1.59-1.17,2.63-1.17s1.86,0.34,2.431,1.021c0.579,0.68,0.859,1.62,0.859,2.819v0.679
			L21.785,65.134z M20.473,64.047c-0.006-0.74-0.185-1.313-0.535-1.727c-0.352-0.412-0.84-0.617-1.465-0.617
			c-0.604,0-1.117,0.216-1.539,0.646c-0.42,0.434-0.684,0.997-0.781,1.695L20.473,64.047z M27.083,68.813h-1.28V56.968h1.28V68.813z
			 M33.038,68.813h-1.28V56.968h1.28V68.813z M44.182,68.813H42.9v-1.267h-0.03c-0.532,0.97-1.354,1.453-2.47,1.453
			c-1.906,0-2.86-1.14-2.86-3.41v-4.78h1.272v4.57c0,1.684,0.646,2.53,1.938,2.53c0.63,0,1.14-0.23,1.55-0.69s0.61-1.066,0.61-1.81
			v-4.61h1.28v8h0.006L44.182,68.813z M50.128,68.813h-1.28V56.968h1.28V68.813z M60.527,68.813h-1.279v-1.25h-0.032
			C58.658,68.521,57.838,69,56.756,69c-0.798,0-1.422-0.21-1.872-0.633s-0.676-0.98-0.676-1.68c0-1.495,0.88-2.364,2.642-2.61
			l2.397-0.335c0-1.36-0.55-2.04-1.647-2.04c-0.965,0-1.834,0.33-2.609,0.983v-1.313c0.785-0.5,1.691-0.75,2.72-0.75
			c1.88,0,2.82,0.995,2.82,2.984v5.205H60.527L60.527,68.813z M59.248,64.766l-1.932,0.268c-0.594,0.083-1.041,0.229-1.344,0.439
			s-0.453,0.585-0.453,1.12c0,0.394,0.14,0.71,0.409,0.958c0.28,0.25,0.65,0.38,1.11,0.38c0.632,0,1.16-0.22,1.57-0.67
			s0.619-1.01,0.619-1.689l0.002-0.8L59.248,64.766z M69.193,62.109c-0.224-0.181-0.547-0.261-0.971-0.261
			c-0.546,0-1.003,0.261-1.369,0.771c-0.367,0.51-0.551,1.22-0.551,2.109v4.07h-1.281v-8h1.289v1.643h0.03
			c0.19-0.563,0.46-1,0.841-1.316c0.377-0.314,0.797-0.473,1.26-0.473c0.336,0,0.59,0.035,0.768,0.109v1.33L69.193,62.109z"/>
	</g>
	<g>
		<path fill="#666666" d="M52.238,20.132c0,8.933-7.268,16.2-16.2,16.2s-16.2-7.268-16.2-16.2s7.268-16.2,16.2-16.2
			S52.238,11.199,52.238,20.132z M21.134,20.132c0,8.218,6.686,14.904,14.904,14.904s14.904-6.686,14.904-14.904
			c0-8.218-6.686-14.904-14.904-14.904C27.82,5.228,21.134,11.914,21.134,20.132z"/>
	</g>
	<g>
		<path fill="#666666" d="M52.238,36.352c0,8.933-7.268,16.2-16.2,16.2s-16.2-7.268-16.2-16.2s7.268-16.2,16.2-16.2
			S52.238,27.419,52.238,36.352z M21.134,36.352c0,8.218,6.686,14.904,14.904,14.904s14.904-6.687,14.904-14.904
			c0-8.218-6.686-14.904-14.904-14.904C27.82,21.448,21.134,28.133,21.134,36.352z"/>
	</g>
	<g>
		<path fill="#666666" d="M38.794,28.092c0,8.933-7.268,16.2-16.2,16.2s-16.2-7.268-16.2-16.2s7.268-16.2,16.2-16.2
			S38.794,19.159,38.794,28.092z M7.69,28.092c0,8.218,6.686,14.904,14.904,14.904s14.904-6.687,14.904-14.904
			c0-8.218-6.686-14.904-14.904-14.904S7.69,19.874,7.69,28.092z"/>
	</g>
	<g>
		<path fill="#666666" d="M65.606,28.092c0,8.933-7.268,16.2-16.2,16.2s-16.2-7.268-16.2-16.2s7.268-16.2,16.2-16.2
			S65.606,19.159,65.606,28.092z M34.502,28.092c0,8.218,6.686,14.904,14.904,14.904s14.904-6.687,14.904-14.904
			c0-8.218-6.686-14.904-14.904-14.904S34.502,19.874,34.502,28.092z"/>
	</g>
</g>
</svg>
