<?xml version="1.0" encoding="utf-8"?>
<!-- Generator: Adobe Illustrator 14.0.0, SVG Export Plug-In . SVG Version: 6.00 Build 43363)  -->
<!DOCTYPE svg PUBLIC "-//W3C//DTD SVG 1.1//EN" "http://www.w3.org/Graphics/SVG/1.1/DTD/svg11.dtd">
<svg version="1.1" id="Layer_1" xmlns="http://www.w3.org/2000/svg" xmlns:xlink="http://www.w3.org/1999/xlink" x="0px" y="0px"
	 width="72px" height="72px" viewBox="0 0 72 72" enable-background="new 0 0 72 72" xml:space="preserve">
<g>
	<g>
		<path fill="#FFFFFF" d="M72,72H0V0h72V72z"/>
		<path fill="#CCCCCC" d="M72.5,72.5h-73v-73h73V72.5L72.5,72.5z M0.5,71.5h71v-71h-71V71.5L0.5,71.5z"/>
	</g>
	<g>
		<path fill="#B3B3B3" d="M11.165,68.344C10.337,68.782,9.307,69,8.07,69c-1.594,0-2.87-0.514-3.827-1.54s-1.438-2.37-1.438-4.038
			c0-1.792,0.54-3.24,1.617-4.344c1.078-1.105,2.445-1.656,4.102-1.656c1.063,0,1.942,0.153,2.643,0.46v1.4
			c-0.802-0.45-1.688-0.673-2.656-0.673c-1.285,0-2.33,0.43-3.13,1.279c-0.8,0.859-1.196,2.01-1.196,3.439
			c0,1.361,0.373,2.449,1.119,3.26c0.747,0.811,1.729,1.217,2.94,1.217c1.126,0,2.1-0.25,2.923-0.75v1.271L11.165,68.344z
			 M21.785,65.134h-5.648c0.021,0.892,0.26,1.577,0.721,2.063c0.455,0.482,1.086,0.727,1.89,0.727c0.899,0,1.729-0.297,2.483-0.89
			v1.202c-0.7,0.509-1.629,0.764-2.79,0.764c-1.131,0-2.021-0.363-2.66-1.09c-0.641-0.729-0.971-1.75-0.971-3.066
			c0-1.244,0.36-2.26,1.061-3.043c0.699-0.783,1.59-1.17,2.63-1.17s1.86,0.34,2.431,1.021c0.579,0.68,0.859,1.619,0.859,2.818v0.68
			L21.785,65.134z M20.473,64.047c-0.006-0.74-0.185-1.313-0.535-1.727c-0.352-0.412-0.84-0.617-1.465-0.617
			c-0.604,0-1.117,0.216-1.539,0.646c-0.42,0.434-0.684,0.996-0.781,1.694L20.473,64.047z M27.083,68.813h-1.28V56.968h1.28V68.813z
			 M33.038,68.813h-1.28V56.968h1.28V68.813z M44.182,68.813H42.9v-1.267h-0.03c-0.532,0.97-1.354,1.453-2.47,1.453
			c-1.906,0-2.86-1.14-2.86-3.41v-4.78h1.272v4.57c0,1.684,0.646,2.53,1.938,2.53c0.63,0,1.141-0.229,1.55-0.69
			c0.41-0.46,0.61-1.066,0.61-1.81v-4.61h1.279v8h0.006L44.182,68.813z M50.128,68.813h-1.28V56.968h1.28V68.813z M60.527,68.813
			h-1.279v-1.25h-0.032C58.658,68.521,57.838,69,56.756,69c-0.798,0-1.422-0.21-1.872-0.633c-0.45-0.424-0.676-0.98-0.676-1.68
			c0-1.496,0.88-2.364,2.642-2.61l2.397-0.335c0-1.36-0.55-2.04-1.647-2.04c-0.965,0-1.834,0.33-2.608,0.983v-1.313
			c0.784-0.5,1.69-0.75,2.72-0.75c1.88,0,2.82,0.995,2.82,2.983v5.205h-0.004V68.813z M59.248,64.766l-1.932,0.269
			c-0.594,0.083-1.041,0.229-1.344,0.438c-0.304,0.211-0.453,0.586-0.453,1.12c0,0.394,0.14,0.71,0.408,0.958
			c0.28,0.25,0.65,0.381,1.11,0.381c0.632,0,1.16-0.221,1.569-0.671c0.41-0.45,0.619-1.01,0.619-1.688l0.002-0.801L59.248,64.766z
			 M69.193,62.109c-0.225-0.182-0.547-0.262-0.971-0.262c-0.547,0-1.004,0.262-1.369,0.771c-0.367,0.51-0.552,1.22-0.552,2.109
			v4.069h-1.28v-8h1.289v1.644h0.029c0.189-0.563,0.46-1,0.842-1.316c0.377-0.314,0.797-0.473,1.26-0.473
			c0.336,0,0.59,0.035,0.768,0.108v1.33L69.193,62.109z"/>
	</g>
	<g opacity="0.7">
		<g>
			<path fill="#B3B3B3" d="M52.238,20.132c0,8.933-7.268,16.2-16.2,16.2c-8.932,0-16.2-7.268-16.2-16.2
				c0-8.932,7.268-16.2,16.2-16.2C44.971,3.932,52.238,11.199,52.238,20.132z M21.134,20.132c0,8.218,6.686,14.904,14.904,14.904
				c8.218,0,14.903-6.686,14.903-14.904c0-8.218-6.686-14.904-14.903-14.904C27.82,5.228,21.134,11.914,21.134,20.132z"/>
		</g>
		<g>
			<path fill="#B3B3B3" d="M52.238,36.352c0,8.933-7.268,16.2-16.2,16.2c-8.932,0-16.2-7.268-16.2-16.2s7.268-16.2,16.2-16.2
				C44.971,20.152,52.238,27.419,52.238,36.352z M21.134,36.352c0,8.218,6.686,14.904,14.904,14.904
				c8.218,0,14.903-6.688,14.903-14.904c0-8.218-6.686-14.904-14.903-14.904C27.82,21.448,21.134,28.133,21.134,36.352z"/>
		</g>
		<g>
			<path fill="#B3B3B3" d="M38.794,28.092c0,8.934-7.268,16.2-16.2,16.2c-8.932,0-16.2-7.269-16.2-16.2s7.268-16.2,16.2-16.2
				C31.526,11.892,38.794,19.159,38.794,28.092z M7.69,28.092c0,8.218,6.686,14.904,14.904,14.904
				c8.218,0,14.904-6.687,14.904-14.904c0-8.218-6.686-14.904-14.904-14.904C14.376,13.188,7.69,19.874,7.69,28.092z"/>
		</g>
		<g>
			<path fill="#B3B3B3" d="M65.605,28.092c0,8.934-7.268,16.2-16.199,16.2s-16.2-7.269-16.2-16.2s7.269-16.2,16.2-16.2
				S65.605,19.159,65.605,28.092z M34.502,28.092c0,8.218,6.686,14.904,14.904,14.904c8.218,0,14.904-6.687,14.904-14.904
				c0-8.218-6.687-14.904-14.904-14.904C41.188,13.188,34.502,19.874,34.502,28.092z"/>
		</g>
	</g>
</g>
</svg>
